<?xml version="1.0" ?><svg id="Layer_1" style="enable-background:new 0 0 24 24;" version="1.1" viewBox="0 0 24 24" xml:space="preserve" xmlns="http://www.w3.org/2000/svg" xmlns:xlink="http://www.w3.org/1999/xlink"><g id="XMLID_1711_"><path d="M15,5.5c-1.067,0-2.081,0.256-3,0.712C11.081,5.756,10.067,5.5,9,5.5   c-4.142,0-7.5,3.806-7.5,8.5s3.358,8.5,7.5,8.5c1.067,0,4.933,0,6,0c4.142,0,7.5-3.806,7.5-8.5S19.142,5.5,15,5.5z" id="XMLID_1485_" style="fill:#F99F38;"/><path d="M15.722,5.541C17.689,7.311,19,10.433,19,14   s-1.311,6.688-3.278,8.459C19.525,22.047,22.5,18.419,22.5,14C22.5,9.582,19.525,5.953,15.722,5.541z" id="XMLID_1480_" style="opacity:0.1;enable-background:new    ;"/><path d="M5,14c0-3.567,1.311-6.688,3.278-8.459   C4.475,5.953,1.5,9.581,1.5,14c0,4.418,2.975,8.047,6.778,8.459C6.311,20.688,5,17.567,5,14z" id="XMLID_1481_" style="opacity:0.2;fill:#FFFFFF;enable-background:new    ;"/><path d="M6.5,9.5v2c0,0.552,0.448,1,1,1h3L6.5,9.5z" id="XMLID_1305_" style="fill:#5C6671;"/><path d="M17.5,9.5v2c0,0.552-0.448,1-1,1h-3L17.5,9.5z" id="XMLID_1_" style="fill:#5C6671;"/><path d="M11.5,5.5v0.497c0.168,0.068,0.337,0.134,0.5,0.215   c0.476-0.236,0.979-0.416,1.5-0.537V5.5c0-2.209-1.791-4-4-4v2C10.605,3.5,11.5,4.395,11.5,5.5z" id="XMLID_1471_" style="fill:#0DB14B;"/><g id="XMLID_1465_"><path d="M7.5,13h3c0.215,0,0.406-0.138,0.474-0.342S10.972,12.229,10.8,12.1l-4-3    C6.65,8.986,6.446,8.969,6.277,9.053C6.108,9.138,6.001,9.311,6.001,9.5v2C6,12.327,6.673,13,7.5,13z M7,10.5L9,12H7.5    C7.224,12,7,11.776,7,11.5V10.5z" id="XMLID_1842_" style="fill:#303C42;"/><path d="M13.5,13h3c0.827,0,1.5-0.673,1.5-1.5v-2c0-0.189-0.107-0.362-0.276-0.447    C17.556,8.97,17.352,8.986,17.201,9.1l-4,3c-0.172,0.129-0.243,0.354-0.174,0.558C13.094,12.862,13.285,13,13.5,13z M17,10.5v1    c0,0.276-0.224,0.5-0.5,0.5H15L17,10.5z" id="XMLID_1845_" style="fill:#303C42;"/><path d="M17.684,15.228c-0.271-0.054-0.534,0.123-0.587,0.394l-0.207,1.049l-1.114-0.229    c-0.19-0.038-0.386,0.036-0.502,0.191l-0.716,0.962l-1.056-0.586c-0.18-0.102-0.405-0.08-0.563,0.054l-0.938,0.786l-0.94-0.787    c-0.158-0.133-0.383-0.153-0.564-0.053l-1.051,0.586l-0.715-0.961c-0.116-0.156-0.312-0.231-0.502-0.191l-1.114,0.23l-0.209-1.052    c-0.054-0.271-0.313-0.452-0.588-0.393c-0.271,0.054-0.447,0.317-0.393,0.588l0.308,1.546c0.026,0.13,0.103,0.246,0.214,0.319    s0.247,0.098,0.377,0.073l1.295-0.268l0.787,1.057c0.15,0.2,0.424,0.261,0.645,0.138l1.133-0.632l0.998,0.834    C11.775,18.961,11.889,19,12.003,19s0.228-0.039,0.321-0.117l0.996-0.834l1.138,0.631c0.219,0.122,0.495,0.063,0.644-0.138    l0.788-1.058l1.296,0.267c0.13,0.025,0.266,0,0.378-0.073c0.111-0.074,0.188-0.189,0.214-0.32l0.304-1.544    C18.131,15.544,17.955,15.281,17.684,15.228z" id="XMLID_1846_" style="fill:#303C42;"/><path d="M15,5c-0.351,0-0.698,0.035-1.042,0.086C13.745,2.801,11.839,1,9.5,1    C9.224,1,9,1.224,9,1.5v2C9,3.776,9.224,4,9.5,4c0.755,0,1.375,0.563,1.479,1.29C10.335,5.104,9.674,5,9,5c-4.411,0-8,4.038-8,9    s3.589,9,8,9h6c4.411,0,8-4.038,8-9S19.411,5,15,5z M10,3.05V2.035c1.628,0.234,2.886,1.596,2.982,3.265    C12.65,5.398,12.322,5.511,12,5.658V5.5C12,4.292,11.14,3.283,10,3.05z M15,22H9c-3.86,0-7-3.589-7-8s3.14-8,7-8    c0.79,0,1.562,0.159,2.303,0.456c0.002,0.001,0.003,0.001,0.004,0.002c0.158,0.063,0.316,0.125,0.47,0.201    c0.14,0.069,0.305,0.069,0.444,0c0.883-0.438,1.818-0.66,2.778-0.66c3.86,0,7,3.589,7,8S18.86,22,15,22z" id="XMLID_1862_" style="fill:#303C42;"/></g><linearGradient gradientUnits="userSpaceOnUse" id="XMLID_3_" x1="2.3375" x2="22.1046" y1="8.9172" y2="18.1347"><stop offset="0" style="stop-color:#FFFFFF;stop-opacity:0.2"/><stop offset="1" style="stop-color:#FFFFFF;stop-opacity:0"/></linearGradient><path d="M15,5c-0.351,0-0.698,0.035-1.042,0.086C13.745,2.801,11.839,1,9.5,1   C9.224,1,9,1.224,9,1.5v2C9,3.776,9.224,4,9.5,4c0.755,0,1.375,0.563,1.479,1.29C10.335,5.104,9.674,5,9,5c-4.411,0-8,4.038-8,9   s3.589,9,8,9h6c4.411,0,8-4.038,8-9S19.411,5,15,5z" id="XMLID_1473_" style="fill:url(#XMLID_3_);"/></g></svg>