<?xml version="1.0" ?><svg viewBox="0 0 64 64" xmlns="http://www.w3.org/2000/svg"><title/><g data-name="Day 10" id="c70ec5cd-c42e-4b4d-9ebf-6ba5c85c70a2"><path d="M47.42,34.32c-1,2.22-2.79,4.53-3.42,4.68-1,.25-1-2-1-2s-1.18.27-2.76.53A35.24,35.24,0,0,1,36,38a16.92,16.92,0,0,1-6-1s.12.62-2,2c-1.84,1.2-3.5-3.46-3.9-4.7A1.93,1.93,0,0,1,26.53,33a33.52,33.52,0,0,0,13.57.71c1.94-.25,3.65-.59,5-.89A1.92,1.92,0,0,1,47.42,34.32Z" data-name="&lt;Path&gt;" fill="#fff2f6" id="d8b60c24-cd3f-4b0a-9bc6-230779e25eed"/><path d="M24.1,34.3c.4,1.24,2.06,5.9,3.9,4.7,2.12-1.38,2-2,2-2a16.92,16.92,0,0,0,6,1,46.16,46.16,0,0,0,7-1s0,2.25,1,2c.63-.15,2.42-2.46,3.42-4.68a1.87,1.87,0,0,1-.06.87c-2,6.38-8.06,11.87-12.81,11.81-7.29-.09-10-7.3-10.51-12A1.54,1.54,0,0,1,24.1,34.3Z" data-name="&lt;Path&gt;" fill="#4c2931" id="f5ab6903-1818-49d3-837d-b6d50ae66859"/><path d="M19.52,27.77a2,2,0,0,1,.89,3.35L18.7,32.83A4,4,0,0,1,12,31l-.62-2.33a2,2,0,0,1,2.45-2.45Z" data-name="&lt;Path&gt;" fill="#f291a1" id="e0c2ec2e-f8df-43b7-8584-ee7bfdfbbb14"/><path d="M59.64,24a11.9,11.9,0,0,1,1.51,5.26,4,4,0,0,1-6.54,1.35L52.9,28.94a2,2,0,0,1,.9-3.35l5.68-1.52Z" data-name="&lt;Path&gt;" fill="#f291a1" id="3a559c37-d07d-4a41-958b-3fc214ee66e3"/><circle cx="13" cy="28" data-name="&lt;Path&gt;" fill="#fff" id="547a0927-66c1-4372-995d-6b422cd588b7" r="2"/><circle cx="55" cy="28" data-name="&lt;Path&gt;" fill="#fff" id="54ea633b-7b62-4d18-8ce8-b04ca0f37b70" r="1"/><path d="M43,26a6.62,6.62,0,0,1-5,4,9.32,9.32,0,0,1-5-3,10.48,10.48,0,0,1-2.72-4.88A18,18,0,0,1,30,18c.08-3.07,2-5.84,3.48-7.47A4.52,4.52,0,0,1,36.86,9h.59a4.3,4.3,0,0,1,2.89,1.06,11.66,11.66,0,0,1,1.56,1.69C45.56,16.53,44.45,22.69,43,26Z" data-name="&lt;Path&gt;" fill="#c23f53" id="8e21e038-6105-4d7d-a8d3-4dd9a9fcd780"/><path d="M41,22a6.62,6.62,0,0,1-5,4,9.32,9.32,0,0,1-5-3c-.26-.3-.5-.59-.73-.88A18,18,0,0,1,30,18c.08-3.07,2-5.84,3.48-7.47A4.52,4.52,0,0,1,36.86,9h.59a4.3,4.3,0,0,1,2.89,1.06,11.66,11.66,0,0,1,1.56,1.69A16,16,0,0,1,41,22Z" data-name="&lt;Path&gt;" fill="#f24e69" id="5504a35b-56b6-46a4-a352-d6b38788e29c"/><path d="M61.15,29.3a4,4,0,0,1-6.54,1.35L52.9,28.94a2,2,0,0,1,.9-3.35l1.34-.36,4.34-1.16.16,0A8.76,8.76,0,0,0,54,20S53.75,8.62,44,8c0,0-.25-.26-.67-.66C41.93,6,38.64,3.13,37,4c0,0-3.5-3.5-9-1-1.2.55-2.17,1-2.94,1.49C22.31,6.08,22,7,22,7s-7.12-.62-11,11c-1.94,0-3.51,1.24-4.69,3.14C4,24.86,3.17,31.29,4,37a11.45,11.45,0,0,0,.33,1.52,13,13,0,0,0,.58,1.69C7.94,47.38,17,53,24,53l-1-3s6.62,3.88,11,4,9-5,9-5l-1,4s10.55-6.38,16-13a12.62,12.62,0,0,0,3-6A23.8,23.8,0,0,0,61.15,29.3ZM51,19v1a6.61,6.61,0,0,0-.93.06,4.05,4.05,0,0,0-2.6,1.22A2.23,2.23,0,0,0,47,22V19a2,2,0,0,1,2-2,2,2,0,0,1,1.09.32A2,2,0,0,1,51,19ZM30,18c.08-3.07,2-5.84,3.48-7.47A4.52,4.52,0,0,1,36.86,9h.59a4.3,4.3,0,0,1,2.89,1.06C45.82,15,44.63,22.28,43,26a6.62,6.62,0,0,1-5,4,9.32,9.32,0,0,1-5-3C30.88,24.5,29.88,22.88,30,18ZM24.1,34.3A1.93,1.93,0,0,1,26.53,33c6.65,2,14.43.76,18.55-.18a1.92,1.92,0,0,1,2.34,1.5,1.87,1.87,0,0,1-.06.87c-2,6.38-8.06,11.87-12.81,11.81-7.29-.09-10-7.3-10.51-12A1.54,1.54,0,0,1,24.1,34.3ZM20,18a2,2,0,0,1,2-2,2,2,0,0,1,2,2v3a2.39,2.39,0,0,0-.54-.8,0,0,0,0,0,0,0A4.6,4.6,0,0,0,20,19Zm-6.16,8.25,5.68,1.52a2,2,0,0,1,.89,3.35L18.7,32.83A4,4,0,0,1,12,31l-.62-2.33A2,2,0,0,1,13.84,26.25Z" data-name="&lt;Compound Path&gt;" fill="#f5feff" id="588ef21d-8e1e-45e8-a61e-c5820dabffb9"/><path d="M56,54c-6.62,6.88-17,4-17,4l-4-3.18s0,0,0,0L34,54a6.08,6.08,0,0,0,1.13-.08c2.51-.4,5-2.23,6.44-3.53A19.71,19.71,0,0,0,43,49l-.49,2L42,53s.79-.48,2-1.3C47.38,49.5,54,44.81,58,40h1a10.78,10.78,0,0,1,.89,3.24A12.82,12.82,0,0,1,56,54Z" data-name="&lt;Path&gt;" fill="#9493ed" id="bde36179-91d2-4612-9dbd-5eee6e84e7c4"/><path d="M21,19l-5,1s6,1.25,5,4-5,3-5,3a42.91,42.91,0,0,0,6,2C28.5,25.63,26.5,21.88,21,19Z" data-name="&lt;Path&gt;" fill="#dce4e6" id="6a41ada8-6a3c-4376-b3f8-86ede77470bb"/><path d="M56,54c-6.62,6.88-17,4-17,4l-4-3.18s0,0,0,0c0-.48,0-.81,0-.81l.13-.08L41,50s.21.16.57.39.57.36.94.56A12.84,12.84,0,0,0,44,51.7a5.13,5.13,0,0,0,4,.3c2.62-1.25,6.25.62,8-3a29.85,29.85,0,0,1,3.89-5.76A12.82,12.82,0,0,1,56,54Z" data-name="&lt;Path&gt;" fill="#5c5ac9" id="6cacbf39-d8db-4d05-ac64-592b494ff0c5"/><path d="M36,49c7.5-2.37,7,0,7,0s-4.62,5.12-9,5-11-4-11-4l1,3C17,53,7.94,47.38,4.91,40.21a13,13,0,0,1-.58-1.69A6.63,6.63,0,0,1,6,40c5.75,6.62,18,10,18,10C30.62,54.12,28.5,51.38,36,49Z" data-name="&lt;Path&gt;" fill="#dce4e6" id="d3a1253c-aade-45a2-b713-86be98d9f337"/><path d="M43,9l.33-1.66c.42.4.67.66.67.66,9.75.62,10,12,10,12a8.76,8.76,0,0,1,5.64,4l-.16,0-4.34,1.16a39.81,39.81,0,0,0-5.07-5.17L50,20a11.65,11.65,0,0,0,.09-2.68c0-.63,0-1.39-.09-2.32C49.75,10.88,43,9,43,9Z" data-name="&lt;Path&gt;" fill="#dce4e6" id="29f6d017-e8cd-4575-b3a0-d6c78958660f"/><path d="M61,34a12.62,12.62,0,0,1-3,6c-5.4,6.63-16,13-16,13l1-4v2S56.75,40.13,57,33c0-.5.58-.76.71-1.19a4,4,0,0,0,3.44-2.51A23.8,23.8,0,0,1,61,34Z" data-name="&lt;Path&gt;" fill="#dce4e6" id="2a69b39b-0476-44b2-af52-24befe1c4877"/><path d="M34,54l-5,5a52.41,52.41,0,0,1-12.67-.47C8.92,57.32,3.83,54.58,3,52,1.87,48.49,4.42,41.51,4.91,40.21c2.62,6.21,9.78,11.26,16.19,12.5A15.41,15.41,0,0,0,24,53l-1-3S29.62,53.88,34,54Z" data-name="&lt;Path&gt;" fill="#9493ed" id="6d61f54d-9547-4dbd-b0bb-15ca593d15cd"/><path d="M25.06,4.49C22.31,6.08,22,7,22,7s-4-.35-7.59,4.32A22,22,0,0,0,11,18c-1.94,0-3.51,1.24-4.69,3.14L6,21s-3.62-1.25-3-4a11.52,11.52,0,0,1,3-5,4.4,4.4,0,0,1-1.33-1.32A4.22,4.22,0,0,1,4,8c.25-3.12,1.93-3.44,6-4A65.39,65.39,0,0,1,25,4Z" data-name="&lt;Path&gt;" fill="#474747" id="914b4c13-cd60-43a3-b33c-fc00dff211e2"/><path d="M34,54l-5,5a52.41,52.41,0,0,1-12.67-.47A7.16,7.16,0,0,1,20,56c1.52-.31,1.5-1.85,1.1-3.29A15.41,15.41,0,0,0,24,53l-1-3S29.62,53.88,34,54Z" data-name="&lt;Path&gt;" fill="#5c5ac9" id="1d5d4334-a9e4-4441-9c56-46270077b9c3"/><path d="M51,20a4.49,4.49,0,0,0-3.53,1.28c-.15.06-.31.14-.47.22V19a2,2,0,0,1,2-2,2,2,0,0,1,2,2Z" data-name="&lt;Path&gt;" fill="#001c63" id="7cbba4e1-aec9-4e07-a625-3bffcf8fdc73"/><path d="M14.41,11.32A22,22,0,0,0,11,18c-1.94,0-3.51,1.24-4.69,3.14L6,21s-3.62-1.25-3-4a11.52,11.52,0,0,1,3-5,4.4,4.4,0,0,1-1.33-1.32A26.66,26.66,0,0,0,9,11,42.52,42.52,0,0,1,14.41,11.32Z" data-name="&lt;Path&gt;" fill="#363636" id="514bb522-c5e0-45d7-a32f-60995e6d3541"/><path d="M47,21.5c.16-.08.32-.16.47-.22A2.24,2.24,0,0,0,47,22Z" data-name="&lt;Path&gt;" fill="#001c63" id="a13e958b-e6d8-40bf-83fd-0b1c72ed2b16"/><path d="M24,20.55V21a2.39,2.39,0,0,0-.54-.8A5.49,5.49,0,0,1,24,20.55Z" data-name="&lt;Path&gt;" fill="#001c63" id="0d561f5b-61fd-4c65-acd7-e2f70dcad626"/><path d="M24,18v2.55a5.49,5.49,0,0,0-.54-.35h0A4.6,4.6,0,0,0,20,19V18a2,2,0,0,1,2-2,2,2,0,0,1,2,2Z" data-name="&lt;Path&gt;" fill="#001c63" id="aa2b68c6-d778-4c1c-ab68-85ef6e660ea8"/><path d="M31,24s.67-2.25,2-1,2,5,2,5S30,25,31,24Z" data-name="&lt;Path&gt;" fill="#912f3e" id="40d0bee4-1446-471d-a2c7-37187e092496"/><path d="M43.87,24s.71-1.93-.87-1c-2.66,1.56-2,5-2,5S44.87,25,43.87,24Z" data-name="&lt;Path&gt;" fill="#912f3e" id="5eea3d0f-df5d-456d-83e2-c9b654dab2fc"/><path d="M47.42,34.32c-1,2.22-2.79,4.53-3.42,4.68-1,.25-1-2-1-2s-1.18.27-2.76.53a4.44,4.44,0,0,0-.14-3.82c1.94-.25,3.65-.59,5-.89A1.92,1.92,0,0,1,47.42,34.32Z" data-name="&lt;Path&gt;" fill="#ded3d6" id="e680a704-d4f7-49d5-a58f-98eb2dc9af19"/><g data-name="&lt;Group&gt;" id="0d711826-6321-459e-ab16-567dfe279443"><path d="M59.64,24A8.76,8.76,0,0,0,54,20S53.75,8.62,44,8c0,0-4.88-5.12-7-4,0,0-3.5-3.5-9-1-1.2.55-2.17,1-2.94,1.49C22.31,6.08,22,7,22,7s-7.12-.62-11,11c-1.94,0-3.51,1.24-4.69,3.14C4,24.86,3.17,31.29,4,37a13.16,13.16,0,0,0,.91,3.21C7.94,47.38,17,53,24,53l-1-3s6.62,3.88,11,4,9-5,9-5l-1,4s10.55-6.38,16-13a12.62,12.62,0,0,0,3-6,23.8,23.8,0,0,0,.15-4.7A11.9,11.9,0,0,0,59.64,24Z" data-name="&lt;Path&gt;" fill="none" id="4e0bc367-87b1-4317-9df3-46801402bcf5" stroke="#001c63" stroke-linecap="round" stroke-linejoin="round" stroke-width="2"/><path d="M36.86,9a4.52,4.52,0,0,0-3.38,1.53C32,12.16,30.08,14.93,30,18c-.12,4.88.88,6.5,3,9a9.32,9.32,0,0,0,5,3,6.62,6.62,0,0,0,5-4c1.63-3.72,2.82-11-2.66-15.94A4.3,4.3,0,0,0,37.45,9Z" data-name="&lt;Path&gt;" fill="none" id="692bded2-7a68-4a74-8b1e-f4bb9934e40d" stroke="#001c63" stroke-linecap="round" stroke-linejoin="round" stroke-width="2"/><path d="M12,31l-.62-2.33a2,2,0,0,1,2.45-2.45l5.68,1.52a2,2,0,0,1,.89,3.35L18.7,32.83A4,4,0,0,1,12,31Z" data-name="&lt;Path&gt;" fill="none" id="af43a96f-14fa-4efa-917a-1727311e9190" stroke="#001c63" stroke-linecap="round" stroke-linejoin="round" stroke-width="2"/><path d="M61.15,29.3a4,4,0,0,1-6.54,1.35L52.9,28.94a2,2,0,0,1,.9-3.35l5.68-1.52.16,0" data-name="&lt;Path&gt;" fill="none" id="b304a0b9-c2c8-4f1a-924b-0e5da38c2c3d" stroke="#001c63" stroke-linecap="round" stroke-linejoin="round" stroke-width="2"/><path d="M47.42,34.32a1.87,1.87,0,0,1-.06.87c-2,6.38-8.06,11.87-12.81,11.81-7.29-.09-10-7.3-10.51-12a1.54,1.54,0,0,1,.06-.68" data-name="&lt;Path&gt;" fill="none" id="74ad072b-f888-4746-94f0-8535a0d0c2d4" stroke="#001c63" stroke-linecap="round" stroke-linejoin="round" stroke-width="2"/><path d="M5,41c-.49,1.3-3.13,7.49-2,11,1.25,3.88,12.12,8.12,26,7l5-5,5,4s10.38,2.88,17-4,3-14,3-14" data-name="&lt;Path&gt;" fill="none" id="0f3a0d92-d179-4a90-9af7-0dd6b358b3d2" stroke="#001c63" stroke-linecap="round" stroke-linejoin="round" stroke-width="2"/><path d="M15,20s4.38-2.25,8.45.19" data-name="&lt;Path&gt;" fill="none" id="23068cbe-2e63-43cc-adb0-06bc5ffc8957" stroke="#001c63" stroke-linecap="round" stroke-linejoin="round" stroke-width="2"/><path d="M47,21.5A9.26,9.26,0,0,0,43,26" data-name="&lt;Path&gt;" fill="none" id="04a16ecb-50dd-4288-808a-1f4d421439be" stroke="#001c63" stroke-linecap="round" stroke-linejoin="round" stroke-width="2"/><path d="M27,24a10.53,10.53,0,0,0-3-3.45" data-name="&lt;Path&gt;" fill="none" id="6aadce1f-9b3b-46f7-a601-e58da5b3d2ac" stroke="#001c63" stroke-linecap="round" stroke-linejoin="round" stroke-width="2"/><path d="M52,21a6.74,6.74,0,0,0-4.53.28" data-name="&lt;Path&gt;" fill="none" id="d117af1d-978f-4713-be6b-fad6edc050a1" stroke="#001c63" stroke-linecap="round" stroke-linejoin="round" stroke-width="2"/><path d="M47.42,34.32c-1,2.22-2.79,4.53-3.42,4.68-1,.25-1-2-1-2a46.16,46.16,0,0,1-7,1,16.92,16.92,0,0,1-6-1s.12.62-2,2c-1.84,1.2-3.5-3.46-3.9-4.7A1.93,1.93,0,0,1,26.53,33c6.65,2,14.43.76,18.55-.18A1.92,1.92,0,0,1,47.42,34.32Z" data-name="&lt;Path&gt;" fill="none" id="e83e595c-9d06-442a-a9d1-e0c7c6b82e6e" stroke="#001c63" stroke-miterlimit="10" stroke-width="2"/><path d="M25,4A65.39,65.39,0,0,0,10,4c-4.07.56-5.75.88-6,4a4.35,4.35,0,0,0,2,4,11.52,11.52,0,0,0-3,5c-.62,2.75,3,4,3,4" data-name="&lt;Path&gt;" fill="none" id="4212ebde-c9f3-4f7c-996c-edb74b65afbf" stroke="#001c63" stroke-linecap="round" stroke-linejoin="round" stroke-width="2"/></g><path d="M36,12s-2.25,1.25-3,5" data-name="&lt;Path&gt;" fill="none" id="abea22f3-ba90-48e2-b45f-2678d8e23eed" stroke="#fff" stroke-linecap="round" stroke-linejoin="round" stroke-width="2"/><path d="M14,7A8.74,8.74,0,0,0,8,8" data-name="&lt;Path&gt;" fill="none" id="6d4e9cb2-af2d-475b-9574-ca0ffd470fb8" stroke="#fff" stroke-linecap="round" stroke-linejoin="round" stroke-width="2"/></g></svg>