<?xml version="1.0" ?><!DOCTYPE svg  PUBLIC '-//W3C//DTD SVG 1.1//EN'  'http://www.w3.org/Graphics/SVG/1.1/DTD/svg11.dtd'><svg enable-background="new 0 0 32 32" height="32px" version="1.1" viewBox="0 0 32 32" width="32px" xml:space="preserve" xmlns="http://www.w3.org/2000/svg" xmlns:xlink="http://www.w3.org/1999/xlink"><g id="Angry_x2C__devil_x2C__evil_x2C__grin_x2C__smile_x2C__smiley"><path d="M20.5,6.5l4.5,2c0,0,2.5-1.5,2.5-7C24.5,4.5,20.5,6.5,20.5,6.5z" fill="#A18DC5" id="XMLID_231_"/><path d="M11.5,6.5L7,8.5c0,0-2.5-1.5-2.5-7C7.5,4.5,11.5,6.5,11.5,6.5z" fill="#A18DC5" id="XMLID_232_"/><circle cx="16" cy="16" fill="#E67C73" id="XMLID_233_" r="13.5"/><path d="M25,9c-0.169,0-0.335-0.087-0.429-0.243c-0.142-0.235-0.066-0.54,0.168-0.684   c0.039-0.024,1.904-1.264,2.217-5.373c-2.852,2.542-6.082,4.172-6.232,4.247c-0.248,0.124-0.547,0.023-0.671-0.224   c-0.123-0.247-0.023-0.547,0.224-0.671c0.039-0.02,3.965-2.001,6.87-4.906c0.143-0.143,0.358-0.185,0.545-0.108   C27.878,1.115,28,1.298,28,1.5c0,5.718-2.631,7.361-2.743,7.429C25.177,8.978,25.088,9,25,9z" fill="#455A64" id="XMLID_234_"/><path d="M6.998,9C6.911,9,6.823,8.977,6.743,8.929C6.631,8.861,4,7.218,4,1.5   c0-0.202,0.122-0.385,0.309-0.462c0.187-0.075,0.402-0.034,0.545,0.108c2.905,2.905,6.831,4.887,6.87,4.906   c0.247,0.124,0.347,0.424,0.224,0.671s-0.423,0.348-0.671,0.224C11.126,6.872,7.896,5.242,5.044,2.7   c0.313,4.13,2.196,5.36,2.218,5.374C7.494,8.22,7.567,8.526,7.424,8.76C7.329,8.914,7.166,9,6.998,9z" fill="#455A64" id="XMLID_235_"/><circle cx="16" cy="16" fill="#B39DDB" id="XMLID_236_" r="13.5"/><path d="M3,18.5C3,11.044,9.044,5,16.5,5c6.111,0,11.268,4.063,12.931,9.633   C28.745,7.819,22.994,2.5,16,2.5C8.544,2.5,2.5,8.544,2.5,16c0,1.345,0.203,2.642,0.569,3.867C3.023,19.418,3,18.962,3,18.5z" fill="#C1AEE1" id="XMLID_237_"/><path d="M28.509,10.936C28.819,12.073,29,13.264,29,14.5C29,21.956,22.956,28,15.5,28   c-5.663,0-10.505-3.491-12.509-8.436C4.557,25.288,9.78,29.5,16,29.5c7.456,0,13.5-6.044,13.5-13.5   C29.5,14.208,29.144,12.5,28.509,10.936z" fill="#A18DC5" id="XMLID_238_"/><path d="M8.542,5.245c-0.161,0-0.32-0.078-0.417-0.224c-0.152-0.229-0.09-0.54,0.141-0.693   C10.56,2.806,13.234,2,16,2c2.763,0,5.435,0.804,7.728,2.323c0.23,0.153,0.293,0.463,0.141,0.693   c-0.154,0.232-0.465,0.29-0.693,0.141C21.047,3.746,18.565,3,16,3c-2.568,0-5.052,0.747-7.182,2.162   C8.733,5.218,8.638,5.245,8.542,5.245z" fill="#455A64" id="XMLID_239_"/><path d="M16,30C8.28,30,2,23.72,2,16c0-3.89,1.557-7.504,4.384-10.176   c0.2-0.19,0.517-0.18,0.707,0.02c0.189,0.201,0.181,0.518-0.02,0.707C4.445,9.032,3,12.388,3,16c0,7.168,5.832,13,13,13   s13-5.832,13-13c0-3.602-1.439-6.951-4.052-9.432c-0.201-0.189-0.209-0.506-0.019-0.706c0.19-0.202,0.507-0.208,0.706-0.019   C28.45,8.515,30,12.121,30,16C30,23.72,23.72,30,16,30z" fill="#455A64" id="XMLID_240_"/><g id="XMLID_241_"><path d="M18,13c-0.157,0-0.313-0.074-0.409-0.213c-0.159-0.227-0.104-0.538,0.122-0.696l5-3.5    c0.228-0.158,0.538-0.104,0.696,0.122c0.159,0.227,0.104,0.538-0.122,0.696l-5,3.5C18.199,12.971,18.1,13,18,13z" fill="#455A64" id="XMLID_242_"/><g id="XMLID_243_"><g id="XMLID_244_"><path d="M18.5,13c0,1.381,1.119,2.5,2.5,2.5s2.5-1.119,2.5-2.5c0-0.56-0.185-1.077-0.495-1.493      L18.5,13z" fill="#FFFFFF" id="XMLID_245_"/><path d="M21,16c-1.654,0-3-1.346-3-3c0-0.216,0.138-0.407,0.343-0.475l4.505-1.493      c0.203-0.068,0.429,0.003,0.558,0.176C23.795,11.729,24,12.349,24,13C24,14.654,22.654,16,21,16z M19.031,13.351      C19.197,14.287,20.017,15,21,15c1.103,0,2-0.897,2-2c0-0.315-0.072-0.619-0.211-0.895L19.031,13.351z" fill="#455A64" id="XMLID_246_"/></g><circle cx="21" cy="13" fill="#455A64" id="XMLID_249_" r="1"/></g></g><g id="XMLID_250_"><path d="M14,13c-0.1,0-0.199-0.029-0.287-0.091l-5-3.5c-0.226-0.158-0.281-0.47-0.122-0.696    c0.157-0.227,0.47-0.28,0.696-0.122l5,3.5c0.226,0.158,0.281,0.47,0.122,0.696C14.313,12.926,14.157,13,14,13z" fill="#455A64" id="XMLID_251_"/><g id="XMLID_252_"><g id="XMLID_253_"><path d="M13.5,13c0,1.381-1.119,2.5-2.5,2.5S8.5,14.381,8.5,13c0-0.56,0.185-1.077,0.495-1.493      L13.5,13z" fill="#FFFFFF" id="XMLID_254_"/><path d="M11,16c-1.654,0-3-1.346-3-3c0-0.651,0.205-1.271,0.595-1.792      c0.129-0.173,0.356-0.243,0.558-0.176l4.505,1.493C13.862,12.593,14,12.784,14,13C14,14.654,12.654,16,11,16z M9.211,12.105      C9.072,12.381,9,12.685,9,13c0,1.103,0.897,2,2,2c0.983,0,1.803-0.713,1.969-1.649L9.211,12.105z" fill="#455A64" id="XMLID_255_"/></g><circle cx="11" cy="13" fill="#455A64" id="XMLID_258_" r="1"/></g></g><g id="XMLID_259_"><path d="M24.5,18.5c0,5-3.156,8-8.5,8s-8.5-3-8.5-8c0,0,2.708,1,8.5,1S24.5,18.5,24.5,18.5z" fill="#FFFFFF" id="XMLID_260_"/><path d="M14.371,24L14.371,24c-0.153,0-0.299-0.07-0.394-0.191l-1.231-1.566l-1.173,1.119    c-0.109,0.105-0.261,0.154-0.41,0.135s-0.282-0.105-0.361-0.234l-0.949-1.547l-0.989,0.694c-0.225,0.158-0.537,0.104-0.696-0.122    c-0.159-0.226-0.104-0.537,0.122-0.696l1.424-1c0.114-0.08,0.253-0.106,0.389-0.08c0.135,0.027,0.252,0.11,0.324,0.228    l0.904,1.473l1.123-1.072c0.103-0.099,0.238-0.151,0.381-0.138c0.141,0.011,0.271,0.079,0.358,0.19l1.18,1.5l1.184-1.501    C15.65,21.07,15.795,21,15.948,21l0,0c0.153,0,0.298,0.07,0.393,0.19l1.183,1.502l1.184-1.502c0.087-0.11,0.217-0.179,0.356-0.189    c0.151-0.013,0.278,0.039,0.381,0.137l1.146,1.089l0.992-1.502c0.076-0.115,0.195-0.193,0.331-0.217    c0.141-0.03,0.275,0.009,0.386,0.092l1.335,1c0.221,0.166,0.266,0.479,0.101,0.7c-0.166,0.222-0.479,0.267-0.7,0.101l-0.91-0.683    l-1.029,1.558c-0.081,0.124-0.213,0.205-0.36,0.222c-0.147,0.014-0.294-0.033-0.401-0.135l-1.181-1.122l-1.237,1.569    C17.821,23.93,17.677,24,17.523,24l0,0c-0.153,0-0.298-0.07-0.393-0.19l-1.183-1.502l-1.185,1.502    C14.669,23.93,14.524,24,14.371,24z" fill="#455A64" id="XMLID_261_"/><path d="M16,20c-5.814,0-8.56-0.989-8.673-1.031c-0.259-0.096-0.392-0.382-0.296-0.641    c0.095-0.26,0.381-0.392,0.642-0.298C7.699,18.04,10.391,19,16,19s8.301-0.96,8.327-0.97c0.262-0.095,0.547,0.038,0.642,0.298    c0.096,0.259-0.037,0.545-0.296,0.641C24.56,19.011,21.814,20,16,20z" fill="#455A64" id="XMLID_262_"/><path d="M16,27c-4.745,0-7.946-2.299-8.784-6.307c-0.057-0.271,0.116-0.535,0.387-0.592    c0.274-0.059,0.535,0.116,0.592,0.387C8.938,24.043,11.709,26,16,26c4.317,0,7.094-1.979,7.817-5.57    c0.055-0.271,0.323-0.445,0.589-0.392c0.271,0.055,0.446,0.318,0.392,0.589C23.981,24.677,20.775,27,16,27z" fill="#455A64" id="XMLID_263_"/></g></g></svg>