<?xml version="1.0" ?><svg viewBox="0 0 64 64" xmlns="http://www.w3.org/2000/svg"><defs><style>.cls-1{fill:#dd5891;}.cls-2{fill:#d9387c;}.cls-3{fill:#f7f8fa;}</style></defs><g id="Octopus"><path class="cls-1" d="M16,42.52c-.22.07-.45.15-.69.21a8.72,8.72,0,0,1-5-.31,2.18,2.18,0,0,1,1.39-4.14,3.89,3.89,0,0,0,2.5.22,10.59,10.59,0,0,0,2.34-1.15,16,16,0,0,1,6-2.16l4.29,1-3.37,4.93Z" id="path207148-5"/><path class="cls-1" d="M39.44,35.19a16,16,0,0,1,6,2.16,10.59,10.59,0,0,0,2.34,1.15,3.89,3.89,0,0,0,2.5-.22,2.18,2.18,0,0,1,1.39,4.14,8.72,8.72,0,0,1-5,.31c-.24-.06-.47-.14-.69-.21l-2.7.64-6.24-3.51Z" id="path207138-5"/><path class="cls-2" d="M40.24,38.66a9.24,9.24,0,0,1,6.28,4.61,4.37,4.37,0,0,0,3.6,2.23,6.93,6.93,0,0,0,2.35-.11,2.18,2.18,0,0,1,1.12,4.22,11.8,11.8,0,0,1-4,.23,9.09,9.09,0,0,1-6.85-4.34,6.15,6.15,0,0,0-1.87-2.2l-4.37,3.42a7,7,0,0,0-.84-3.32h0a4.69,4.69,0,0,0-2.88-1.8,9.79,9.79,0,0,0-3.62,0,4.61,4.61,0,0,0-2.87,1.79,6.89,6.89,0,0,0-.85,3.32L21.1,43.3a6.15,6.15,0,0,0-1.87,2.2,9.09,9.09,0,0,1-6.85,4.34,11.8,11.8,0,0,1-4-.23,2.18,2.18,0,0,1,1.12-4.22,6.93,6.93,0,0,0,2.35.11,4.37,4.37,0,0,0,3.6-2.23,9.24,9.24,0,0,1,6.28-4.61l8.93-4.31Z" id="path207142-3"/><path class="cls-1" d="M35.69,39.12a7,7,0,0,1,.84,3.32v6A8.61,8.61,0,0,0,45.1,57h1.41a2.19,2.19,0,0,0,0-4.37H45.1a4.17,4.17,0,0,1-4.2-4.2v-6a11.21,11.21,0,0,0-.84-4.27,7.89,7.89,0,0,1,.15-6.57,22.31,22.31,0,0,0,3-10.34,12.26,12.26,0,1,0-24.52,0A22.31,22.31,0,0,0,21.79,31.6a7.89,7.89,0,0,1,.15,6.57,11.4,11.4,0,0,0-.84,4.27v6a4.16,4.16,0,0,1-4.2,4.2H15.5a2.19,2.19,0,1,0,0,4.37h1.4a8.61,8.61,0,0,0,8.57-8.57v-6a6.86,6.86,0,0,1,.85-3.32,4.61,4.61,0,0,1,2.87-1.79,9.79,9.79,0,0,1,3.62,0A4.69,4.69,0,0,1,35.69,39.12Z" id="path189293-6"/><path class="cls-3" d="M29.36,24.82a2.73,2.73,0,1,1-2.73-2.72A2.72,2.72,0,0,1,29.36,24.82Z" id="path206029-6"/><path class="cls-3" d="M38.09,24.82a2.73,2.73,0,1,1-2.72-2.72A2.72,2.72,0,0,1,38.09,24.82Z" id="path206134-2"/><path class="cls-2" d="M31,9c-.41,0-.82,0-1.22.06a12.26,12.26,0,0,1,11,12.2A22.31,22.31,0,0,1,37.76,31.6a7.89,7.89,0,0,0-.15,6.57,11.21,11.21,0,0,1,.84,4.27v6a4.17,4.17,0,0,0,4.2,4.19h1.41a2.19,2.19,0,0,1,2.18,2.19A2.16,2.16,0,0,1,44.41,57c.23,0,.46,0,.69,0h1.41a2.19,2.19,0,0,0,0-4.37H45.1a4.17,4.17,0,0,1-4.2-4.19v-6a11.21,11.21,0,0,0-.84-4.27,7.89,7.89,0,0,1,.15-6.57,22.31,22.31,0,0,0,3-10.34A12.26,12.26,0,0,0,31,9Z" id="path114946"/><path d="M54.63,44.75a3.17,3.17,0,0,0-2.4-.33,6.29,6.29,0,0,1-2,.09A3.92,3.92,0,0,1,48.52,44h.07A10.91,10.91,0,0,0,52,43.37a3.18,3.18,0,1,0-2-6,3,3,0,0,1-1.92.2A10.72,10.72,0,0,1,46,36.48a17.47,17.47,0,0,0-5.51-2.1,5.54,5.54,0,0,1,.61-2.29,23.21,23.21,0,0,0,3.18-10.83,13.26,13.26,0,1,0-26.52,0,23.21,23.21,0,0,0,3.18,10.83,5.54,5.54,0,0,1,.61,2.29A17.57,17.57,0,0,0,16,36.48a10.72,10.72,0,0,1-2.1,1.06,3,3,0,0,1-1.92-.2,3.17,3.17,0,0,0-4,2,3.17,3.17,0,0,0,2,4,10.91,10.91,0,0,0,3.44.59h.07a3.92,3.92,0,0,1-1.71.55,6.27,6.27,0,0,1-2-.08,3.16,3.16,0,0,0-2.42.32,3.18,3.18,0,0,0,.78,5.83,13,13,0,0,0,2.93.33,11.81,11.81,0,0,0,1.42-.08A10.16,10.16,0,0,0,20.09,46v2.41a3.17,3.17,0,0,1-3.2,3.2H15.49a3.19,3.19,0,1,0,0,6.37H16.9a9.58,9.58,0,0,0,9.57-9.57V46.72a6,6,0,0,1,.72-2.84,3.73,3.73,0,0,1,2.19-1.29,8.61,8.61,0,0,1,3.24,0,3.66,3.66,0,0,1,2.19,1.29,6,6,0,0,1,.72,2.84v1.71A9.58,9.58,0,0,0,45.1,58h1.41a3.19,3.19,0,0,0,0-6.37H45.1a3.17,3.17,0,0,1-3.2-3.2V46a10.16,10.16,0,0,0,7.59,4.81,11.81,11.81,0,0,0,1.42.08,12.11,12.11,0,0,0,2.92-.33,3.18,3.18,0,0,0,.79-5.83Zm-7.06-5.28a4.87,4.87,0,0,0,3.07-.24,1.19,1.19,0,0,1,1.5.75,1.19,1.19,0,0,1-.75,1.49,7.82,7.82,0,0,1-4.42.29l-.34-.1A10.1,10.1,0,0,0,41,37.8h0a7,7,0,0,1-.39-1.35A15.39,15.39,0,0,1,45,38.21,11.38,11.38,0,0,0,47.57,39.47Zm-37,2A1.19,1.19,0,0,1,9.86,40a1.2,1.2,0,0,1,1.5-.75,4.87,4.87,0,0,0,3.07.24A11.38,11.38,0,0,0,17,38.21a15.39,15.39,0,0,1,4.39-1.77A7,7,0,0,1,21,37.79h0a10.1,10.1,0,0,0-5.64,3.86l-.34.1A7.83,7.83,0,0,1,10.61,41.47ZM18.37,45a8.2,8.2,0,0,1-6.1,3.86,11.2,11.2,0,0,1-3.6-.2,1.19,1.19,0,0,1-.84-1.45,1.14,1.14,0,0,1,.55-.72,1.18,1.18,0,0,1,.9-.12A8.3,8.3,0,0,0,12,46.5a5.36,5.36,0,0,0,4.34-2.72,8.65,8.65,0,0,1,4-3.63,12.43,12.43,0,0,0-.22,2.29v.36A8.49,8.49,0,0,0,18.37,45ZM33,40.62a10.65,10.65,0,0,0-4,0,6.47,6.47,0,0,0-2.46,1.13,6,6,0,0,1,.64-2.15,3.73,3.73,0,0,1,2.19-1.29,8.41,8.41,0,0,1,3.24,0,3.66,3.66,0,0,1,2.19,1.29,6,6,0,0,1,.64,2.15A6.47,6.47,0,0,0,33,40.62Zm12.11,13h1.41a1.19,1.19,0,0,1,0,2.37H45.1a7.58,7.58,0,0,1-7.57-7.57v-6a7.87,7.87,0,0,0-1-3.8A5.57,5.57,0,0,0,33,36.34a10.65,10.65,0,0,0-4,0,5.6,5.6,0,0,0-3.57,2.3,7.87,7.87,0,0,0-1,3.8v6A7.58,7.58,0,0,1,16.9,56H15.49a1.18,1.18,0,0,1-.83-2,1.18,1.18,0,0,1,.83-.35H16.9a5.14,5.14,0,0,0,5.2-5.2v-6a10.18,10.18,0,0,1,.77-3.89,8.88,8.88,0,0,0-.21-7.45,21.47,21.47,0,0,1-2.92-9.84,11.26,11.26,0,1,1,22.52,0,21.47,21.47,0,0,1-2.92,9.84,8.88,8.88,0,0,0-.21,7.45,10.18,10.18,0,0,1,.77,3.89v6A5.14,5.14,0,0,0,45.1,53.63Zm8.23-5a11.16,11.16,0,0,1-3.6.2A8.2,8.2,0,0,1,43.63,45,8.49,8.49,0,0,0,41.9,42.8v-.36a12.43,12.43,0,0,0-.22-2.29,8.65,8.65,0,0,1,4,3.63A5.36,5.36,0,0,0,50,46.5a8.45,8.45,0,0,0,2.73-.14,1.16,1.16,0,0,1,.89.12,1.14,1.14,0,0,1,.55.72A1.19,1.19,0,0,1,53.33,48.65Z"/><path d="M26.63,21.1a3.72,3.72,0,1,0,3.73,3.72A3.73,3.73,0,0,0,26.63,21.1Zm0,5.44a1.72,1.72,0,1,1,1.73-1.72A1.73,1.73,0,0,1,26.63,26.54Z"/><path d="M35.37,21.1a3.72,3.72,0,1,0,3.72,3.72A3.73,3.73,0,0,0,35.37,21.1Zm0,5.44a1.72,1.72,0,1,1,1.72-1.72A1.73,1.73,0,0,1,35.37,26.54Z"/></g></svg>