<?xml version="1.0" ?><svg viewBox="0 0 64 64" xmlns="http://www.w3.org/2000/svg"><title/><g data-name="Day 07" id="ae0713cd-e41b-407b-ad20-4eb35c3b136b"><path d="M58.5,30.5a1.62,1.62,0,0,1,0,.22c-.06,5.62-2.9,10.81-6,15A20.88,20.88,0,0,0,53,41a24.43,24.43,0,0,0-.53-5.24C49.41,21.83,34,23,31,23s-12.4-.38-17.17,6.89C12.11,32.49,11,36.07,11,41a23.47,23.47,0,0,0,.43,4.57A25.81,25.81,0,0,1,6,30.5a24.75,24.75,0,0,1,4.15-13.71A26.28,26.28,0,0,1,32,5C46.08,5,58.5,16.42,58.5,30.5Z" data-name="&lt;Path&gt;" fill="#299ac2" id="f7a9abb3-4f9a-4870-a29b-84261bd9c4f3"/><path d="M58.5,30.5a1.62,1.62,0,0,1,0,.22,24.16,24.16,0,0,1-6,5A31.14,31.14,0,0,1,36.5,40c-9.61,0-18-4-22.67-10.11A17.8,17.8,0,0,1,10,19a16.19,16.19,0,0,1,.15-2.21A26.28,26.28,0,0,1,32,5C46.08,5,58.5,16.42,58.5,30.5Z" data-name="&lt;Path&gt;" fill="#32bded" id="baaf61fe-30f7-4b56-9e3e-987421858ecb"/><circle cx="31.5" cy="23.5" data-name="&lt;Path&gt;" fill="#4d6dbd" id="791a1925-31e0-4394-a2a9-9d4827513820" r="15.5" stroke="#001c63" stroke-linecap="round" stroke-linejoin="round" stroke-width="2"/><path d="M41,20.5a9.47,9.47,0,1,1-.06-1.09A9.82,9.82,0,0,1,41,20.5Z" data-name="&lt;Path&gt;" fill="#d44665" id="29ebb6e9-5326-40e6-8a53-3a64c27a28d6"/><path d="M40.94,19.41a9.5,9.5,0,0,1-16.88-4.82,9.5,9.5,0,0,1,16.88,4.82Z" data-name="&lt;Path&gt;" fill="#f25073" id="8cd91ae2-f322-4436-8c80-8d868f0cea0d"/><circle cx="31.5" cy="20.5" data-name="&lt;Path&gt;" fill="none" id="a557d643-0ade-412b-b047-327e505268b9" r="9.5" stroke="#001c63" stroke-linecap="round" stroke-linejoin="round" stroke-width="2"/><polygon data-name="&lt;Path&gt;" fill="#fff" id="fd2a9484-6976-402c-b269-85dcf6cc4909" points="34.41 13.17 32 15.59 29.59 13.17 27.17 15.59 29.59 18 27.17 20.41 29.59 22.83 32 20.41 34.41 22.83 36.83 20.41 34.41 18 36.83 15.59 34.41 13.17"/><path d="M11,41c0-18.7,16-18,20-18,3.33,0,22-1.44,22,18a20.83,20.83,0,0,1-.54,4.72c3.16-4.25,6-9.51,6-15.22C58.5,16.42,46.08,5,32,5S6,16.42,6,30.5c0,5.64,2.33,10.85,5.43,15.07A23.19,23.19,0,0,1,11,41Z" data-name="&lt;Path&gt;" fill="none" id="80323365-eedf-4c1f-808a-9a45b7afbb96" stroke="#001c63" stroke-linecap="round" stroke-linejoin="round" stroke-width="2"/><path d="M53,41a14.59,14.59,0,0,1-2.25,8.42c-3,4.37-9,6.58-18.75,6.58-15.55,0-21-5.06-21-15,0-7.69,2.71-12.1,6.18-14.62C22.14,22.76,28.65,23,31,23,34.33,23,53,21.56,53,41Z" data-name="&lt;Path&gt;" fill="#edc5b6" id="6503cbf3-eece-4766-ab42-b1197a7e6fab"/><path d="M53,41a14.59,14.59,0,0,1-2.25,8.42C47.34,51.8,42.17,53,35,53c-15.55,0-21-5.06-21-15,0-5.26,1.27-9,3.18-11.62C22.14,22.76,28.65,23,31,23,34.33,23,53,21.56,53,41Z" data-name="&lt;Path&gt;" fill="#edd7cf" id="66a6e544-7abc-4c47-9f4c-5bbd410407ae"/><path d="M53,41c0,9.94-6.28,15-21,15-15.55,0-21-5.06-21-15,0-18.7,16-18,20-18C34.33,23,53,21.56,53,41Z" data-name="&lt;Path&gt;" fill="none" id="6b4cbc57-c765-4367-ba24-b36e648f259e" stroke="#001c63" stroke-linecap="round" stroke-linejoin="round" stroke-width="2"/><path d="M12.11,31S10.23,42.64,6.52,50.2A4.52,4.52,0,0,0,6,52.85,2.32,2.32,0,0,0,8.11,55c2.85.41,5.56-11.72,6-18S12.11,31,12.11,31Z" data-name="&lt;Path&gt;" fill="#4d6dbd" id="01513366-5f0e-4d5d-b0e9-ed8d6b810512" stroke="#001c63" stroke-linecap="round" stroke-linejoin="round" stroke-width="2"/><path d="M51.89,31s1.88,11.64,5.59,19.2A4.52,4.52,0,0,1,58,52.85,2.32,2.32,0,0,1,55.89,55c-2.85.41-5.56-11.72-6-18S51.89,31,51.89,31Z" data-name="&lt;Path&gt;" fill="#4d6dbd" id="31ec1691-fcdc-4185-bc9e-30d51652d7d7" stroke="#001c63" stroke-linecap="round" stroke-linejoin="round" stroke-width="2"/><path d="M54.42,32.19C46,32.19,39.72,29,32.26,29s-13.87,3.16-22.17,3.16a4.23,4.23,0,0,1-.43-4s0,0,0,0c.29-1,.72-1.93.94-3,11.72,0,13.51-5.45,21.66-5.45s9.17,5.45,20.62,5.45A21.79,21.79,0,0,1,54.4,29,5.76,5.76,0,0,1,54.42,32.19Z" data-name="&lt;Path&gt;" fill="#d44665" id="6eb0866e-13e2-4b9e-b739-f5896d42e772"/><path d="M54.4,29C46,29,39.71,25.85,32.26,25.85S18.39,29,10.09,29a4.06,4.06,0,0,1-.43-.78s0,0,0,0c.29-1,.72-1.93.94-3,11.72,0,13.51-5.45,21.66-5.45s9.17,5.45,20.62,5.45A21.79,21.79,0,0,1,54.4,29Z" data-name="&lt;Path&gt;" fill="#f25073" id="2d8e44b5-c77d-4c84-b238-cb1ada6f2ad3"/><path d="M54.42,32.19C46,32.19,39.72,29,32.26,29s-13.87,3.15-22.17,3.15c-1.67-2.41,0-4.53.52-6.93,11.72,0,13.51-5.44,21.65-5.44s9.18,5.44,20.62,5.44C54.07,27.79,55.1,29.88,54.42,32.19Z" data-name="&lt;Path&gt;" fill="none" id="303eb6d7-932d-4590-b01b-9cb2c2a2fa19" stroke="#001c63" stroke-linecap="round" stroke-linejoin="round" stroke-width="2"/><path d="M22.57,26c-3,1.29-6.12,3.34-12.57,3" data-name="&lt;Path&gt;" fill="none" id="e4e3d808-0425-40a9-a01a-6586fdcd1789" stroke="#001c63" stroke-linecap="round" stroke-linejoin="round" stroke-width="2"/><path d="M27,25a9.1,9.1,0,0,0-2,.2" data-name="&lt;Path&gt;" fill="none" id="10bfc890-c67f-4030-8fe3-2f6c671bce18" stroke="#001c63" stroke-linecap="round" stroke-linejoin="round" stroke-width="2"/><path d="M39,43s1.06,3.86-2.17,3.86C33.75,46.86,32,45,32,44a4,4,0,0,1-3.83,2.86C24.44,46.86,26,43,26,43" data-name="&lt;Path&gt;" fill="none" id="57cf421c-7cfe-472a-a9eb-977b7717560f" stroke="#001c63" stroke-linecap="round" stroke-linejoin="round" stroke-width="2"/><path d="M37,47l-.59,5.07L36,55.65a4,4,0,0,1-8,0l-.41-3.58L27,47s4.06.62,5-3C32.81,47.25,37,47,37,47Z" data-name="&lt;Path&gt;" fill="#873759" id="cc8651fb-a566-4ae5-a32b-b5abb037dda1" stroke="#001c63" stroke-linecap="round" stroke-linejoin="round" stroke-width="2"/><path d="M36.41,52.07,36,55.65a4,4,0,0,1-8,0l-.41-3.58A7.07,7.07,0,0,1,32,50.5,6.88,6.88,0,0,1,36.41,52.07Z" data-name="&lt;Path&gt;" fill="#c45050" id="ca0284dc-5fa5-46c3-b5ad-5f8390b6fcec"/><path d="M36.41,52.07,36,55.65a4,4,0,0,1-1.29,2.93,3.35,3.35,0,0,1-.71.07,4,4,0,0,1-4-4l-.41-3.58a2.7,2.7,0,0,1,.34-.25A6.74,6.74,0,0,1,32,50.5,6.88,6.88,0,0,1,36.41,52.07Z" data-name="&lt;Path&gt;" fill="#e85f5f" id="2b330735-827b-4adb-ac62-880ccb0ccd6c"/><path d="M36.41,52.07,36,55.65a4,4,0,0,1-8,0l-.41-3.58a7,7,0,0,1,8.82,0Z" data-name="&lt;Path&gt;" fill="none" id="de84ce55-c864-47ae-b330-a5ee6d2f45e1" stroke="#001c63" stroke-linecap="round" stroke-linejoin="round" stroke-width="2"/><path d="M18,36s2.5-3.42,6,0" data-name="&lt;Path&gt;" fill="none" id="70bada89-5080-461a-82cd-fa189a56e313" stroke="#001c63" stroke-linecap="round" stroke-linejoin="round" stroke-width="2"/><path d="M46,36s-2.5-3.42-6,0" data-name="&lt;Path&gt;" fill="none" id="c1598be4-2f51-4606-a0f6-c1d83c794d74" stroke="#001c63" stroke-linecap="round" stroke-linejoin="round" stroke-width="2"/><ellipse cx="21" cy="39.5" data-name="&lt;Path&gt;" fill="#f25073" id="cf63228d-97e9-421b-9ef9-91e42b6c0f37" rx="3" ry="1.5"/><ellipse cx="43" cy="39.5" data-name="&lt;Path&gt;" fill="#f25073" id="8d33a3a3-8878-4911-8852-d6096afda070" rx="3" ry="1.5"/><path d="M32,44s-3-1.9-3-3h0a2,2,0,0,1,2-2h2a2,2,0,0,1,2,2h0C35,42.1,32,44,32,44Z" data-name="&lt;Path&gt;" fill="#873759" id="cedc8d47-fad2-4217-94c4-28cf2aab0fe5" stroke="#001c63" stroke-linecap="round" stroke-linejoin="round" stroke-width="2"/><circle cx="19.5" cy="20.75" data-name="&lt;Path&gt;" fill="#32bded" id="ae8f541b-49c4-411c-9c44-505f9f67a79d" r="0.5"/><circle cx="20.5" cy="16.25" data-name="&lt;Path&gt;" fill="#32bded" id="47218652-8f29-48bc-84a5-c7cbceaa11b4" r="0.5"/><circle cx="43.5" cy="20.75" data-name="&lt;Path&gt;" fill="#32bded" id="1de5bdab-d589-46e8-abf0-eb0dd5cd7217" r="0.5"/><circle cx="42.5" cy="16.25" data-name="&lt;Path&gt;" fill="#32bded" id="9dc587d5-e542-4ff8-85eb-8499aba2414e" r="0.5"/><path d="M17,3a2,2,0,0,0-2,2v.51C15,6.71,15,7.72,13,8V4A2,2,0,0,0,9,4v7.1c0,1,.15,2.9-.9,2.9H7V4A2,2,0,0,0,3,4V16.27C3,20,7,24,10.73,24H14a2,2,0,0,0,0-4H10.73c-1.25,0-2.3-1.35-2.62-2.5,2.95,0,4.89-2.44,5.32-5.27C16.81,12,19,8.95,19,5.51V5A2,2,0,0,0,17,3Z" data-name="&lt;Path&gt;" fill="#c9886d" id="312add45-9e0c-4a42-b8f9-d89f23a51384" stroke="#001c63" stroke-linecap="round" stroke-linejoin="round" stroke-width="2"/><path d="M47,3a2,2,0,0,1,2,2v.51C49,6.71,49,7.72,51,8V4a2,2,0,0,1,4,0v7.1c0,1-.15,2.9.9,2.9H57V4a2,2,0,0,1,4,0V16.27C61,20,57,24,53.27,24H50a2,2,0,0,1,0-4h3.27c1.25,0,2.3-1.35,2.62-2.5-2.95,0-4.89-2.44-5.32-5.27C47.19,12,45,8.95,45,5.51V5A2,2,0,0,1,47,3Z" data-name="&lt;Path&gt;" fill="#c9886d" id="e480b7b4-d802-4e85-908f-af24fbff4a5b" stroke="#001c63" stroke-linecap="round" stroke-linejoin="round" stroke-width="2"/></g></svg>