<?xml version="1.0" ?><svg viewBox="0 0 64 64" xmlns="http://www.w3.org/2000/svg"><g data-name="24-Black Cat" id="_24-Black_Cat"><circle cx="32" cy="44" r="2" style="fill:#ffa426"/><path d="M16,1a10.866,10.866,0,0,0,3.7,7.76,15.929,15.929,0,0,0-4.02,2.92,13.181,13.181,0,0,0-1,1.11C14.39,12.44,14,11.5,14,9A20.687,20.687,0,0,1,16,1Z" style="fill:#ebccff"/><path d="M48,1.01A20.609,20.609,0,0,1,50,9c0,2.5-.39,3.44-.68,3.79A15.986,15.986,0,0,0,44.3,8.76,10.81,10.81,0,0,0,48,1.01Z" style="fill:#ebccff"/><path d="M26,7v.03a15.928,15.928,0,0,0-6.3,1.73A10.866,10.866,0,0,1,16,1Z" style="fill:#c78ff5"/><path d="M48,1v.01a10.81,10.81,0,0,1-3.7,7.75A15.928,15.928,0,0,0,38,7.03V7Z" style="fill:#c78ff5"/><path d="M16,19H28s0,6-6,6S16,19,16,19Z" style="fill:#ffa426"/><path d="M36,19H48s0,6-6,6S36,19,36,19Z" style="fill:#ffa426"/><path d="M22,23a5.439,5.439,0,0,1-5.649-4H16s0,6,6,6,6-6,6-6h-.351A5.439,5.439,0,0,1,22,23Z" style="fill:#fe8205"/><path d="M42,23a5.439,5.439,0,0,1-5.649-4H36s0,6,6,6,6-6,6-6h-.351A5.439,5.439,0,0,1,42,23Z" style="fill:#fe8205"/><path d="M37,39a16.2,16.2,0,0,0,3.06-.29,12.971,12.971,0,0,0,.6,2.36A54.186,54.186,0,0,1,32,42a54.186,54.186,0,0,1-8.66-.93,12.971,12.971,0,0,0,.6-2.36A16.2,16.2,0,0,0,27,39Z" style="fill:#ffa426"/><path d="M57,45.5V48H52V45.5a2.5,2.5,0,1,1,5,0Z" style="fill:#e0b8ff"/><path d="M55.5,43.211A2.5,2.5,0,0,0,52,45.5V48h2V45.5A2.5,2.5,0,0,1,55.5,43.211Z" style="fill:#d2a0f5"/><path d="M57,48v9a6,6,0,0,1-6,6H46a36.7,36.7,0,0,0-.34-5H50a2.006,2.006,0,0,0,2-2V48Z" style="fill:#c78ff5"/><path d="M48.16,60.5H52.5a2.006,2.006,0,0,0,2-2v-8H57V48H52v8a2.006,2.006,0,0,1-2,2H45.66A36.7,36.7,0,0,1,46,63h2.414C48.357,62.15,48.272,61.315,48.16,60.5Z" style="fill:#b674f2"/><path d="M24,63H18c0-9.54,3.79-17.19,5.34-21.93A54.186,54.186,0,0,0,32,42a2,2,0,1,0,2,2,2.006,2.006,0,0,0-2-2,54.186,54.186,0,0,0,8.66-.93c1.26,3.88,4.04,9.71,5,16.93A36.7,36.7,0,0,1,46,63H24Z" style="fill:#b674f2"/><path d="M23.34,44.07a61.164,61.164,0,0,0,6.909.874A1.965,1.965,0,0,1,30,44a2.006,2.006,0,0,1,2-2,54.186,54.186,0,0,1-8.66-.93C21.79,45.81,18,53.46,18,63h.131C18.8,54.856,21.956,48.3,23.34,44.07Z" style="fill:#a260e5"/><path d="M34,44a1.965,1.965,0,0,1-.249.944,61.164,61.164,0,0,0,6.909-.874c1.26,3.88,4.04,9.71,5,16.93.09.653.151,1.325.206,2H46a36.7,36.7,0,0,0-.34-5c-.96-7.22-3.74-13.05-5-16.93A54.186,54.186,0,0,1,32,42,2.006,2.006,0,0,1,34,44Z" style="fill:#a260e5"/><path d="M32,49a1.991,1.991,0,0,0,1.307-3.5,1.958,1.958,0,0,1-2.614,0A1.991,1.991,0,0,0,32,49Z" style="fill:#a260e5"/><path d="M19.7,8.76A15.928,15.928,0,0,1,26,7.03c.33-.02.66-.03,1-.03H37c.34,0,.67.01,1,.03a16,16,0,0,1,2.06,31.68A16.2,16.2,0,0,1,37,39H27a16.2,16.2,0,0,1-3.06-.29,16.006,16.006,0,0,1-9.26-25.92,13.181,13.181,0,0,1,1-1.11A15.929,15.929,0,0,1,19.7,8.76ZM48,19H36s0,6,6,6S48,19,48,19ZM35,25H29a3,3,0,0,0,6,0Zm-7-6H16s0,6,6,6S28,19,28,19Z" style="fill:#b674f2"/><path d="M14.68,16.79a13.181,13.181,0,0,1,1-1.11A16.057,16.057,0,0,1,26,11.03c.33-.02.66-.03,1-.03H37c.34,0,.67.01,1,.03A15.967,15.967,0,0,1,52.862,25,16.142,16.142,0,0,0,53,23,16,16,0,0,0,38,7.03c-.33-.02-.66-.03-1-.03H27c-.34,0-.67.01-1,.03a16.057,16.057,0,0,0-10.32,4.65,13.181,13.181,0,0,0-1,1.11A15.752,15.752,0,0,0,11.139,25,15.919,15.919,0,0,1,14.68,16.79Z" style="fill:#a260e5"/><path d="M33,29V27H31v2a1.883,1.883,0,0,1-2,2H27v2h2a3.767,3.767,0,0,0,3-1.3A3.767,3.767,0,0,0,35,33h2V31H35A1.883,1.883,0,0,1,33,29Z" style="fill:#8f4cd6"/><path d="M19.371,27.071A33.759,33.759,0,0,0,8,25v2a32.264,32.264,0,0,1,10.629,1.929Z" style="fill:#ebccff"/><rect height="2" style="fill:#ebccff" width="12" x="7" y="30"/><path d="M8,36v2c5.177,0,11.193-2.979,11.447-3.1l-.894-1.79C18.5,33.135,12.7,36,8,36Z" style="fill:#ebccff"/><path d="M56,27V25a33.759,33.759,0,0,0-11.371,2.071l.742,1.858A32.138,32.138,0,0,1,56,27Z" style="fill:#ebccff"/><rect height="2" style="fill:#ebccff" width="12" x="45" y="30"/><path d="M44.553,34.9c.254.126,6.27,3.1,11.447,3.1V36c-4.7,0-10.495-2.865-10.553-2.9Z" style="fill:#ebccff"/><rect height="3" style="fill:#ffda45" width="2" x="21" y="19"/><rect height="3" style="fill:#ffda45" width="2" x="41" y="19"/><path d="M29,25h6a3,3,0,0,1-6,0Z" style="fill:#ffa426"/><rect height="32" rx="16" style="fill:none;stroke:#000;stroke-linejoin:round;stroke-width:2px" width="42" x="11" y="7"/><path d="M48,1a20.687,20.687,0,0,1,2,8c0,4-1,4-1,4" style="fill:none;stroke:#000;stroke-linejoin:round;stroke-width:2px"/><path d="M26,7,16,1a20.687,20.687,0,0,0-2,8c0,4,1,4,1,4" style="fill:none;stroke:#000;stroke-linejoin:round;stroke-width:2px"/><path d="M49,13s1,0,1-4a20.687,20.687,0,0,0-2-8L38,7" style="fill:none;stroke:#000;stroke-linejoin:round;stroke-width:2px"/><path d="M29,25h6a3,3,0,0,1-6,0Z" style="fill:none;stroke:#000;stroke-linejoin:round;stroke-width:2px"/><path d="M32,28v1a2.938,2.938,0,0,0,3,3h2" style="fill:none;stroke:#000;stroke-linejoin:round;stroke-width:2px"/><path d="M32,29a2.938,2.938,0,0,1-3,3H27" style="fill:none;stroke:#000;stroke-linejoin:round;stroke-width:2px"/><path d="M16,19H28s0,6-6,6S16,19,16,19Z" style="fill:none;stroke:#000;stroke-linejoin:round;stroke-width:2px"/><path d="M36,19H48s0,6-6,6S36,19,36,19Z" style="fill:none;stroke:#000;stroke-linejoin:round;stroke-width:2px"/><path d="M19,28A33.008,33.008,0,0,0,8,26" style="fill:none;stroke:#000;stroke-linejoin:round;stroke-width:2px"/><line style="fill:none;stroke:#000;stroke-linejoin:round;stroke-width:2px" x1="19" x2="7" y1="31" y2="31"/><path d="M19,34s-6,3-11,3" style="fill:none;stroke:#000;stroke-linejoin:round;stroke-width:2px"/><path d="M45,28a33.008,33.008,0,0,1,11-2" style="fill:none;stroke:#000;stroke-linejoin:round;stroke-width:2px"/><line style="fill:none;stroke:#000;stroke-linejoin:round;stroke-width:2px" x1="45" x2="57" y1="31" y2="31"/><path d="M45,34s6,3,11,3" style="fill:none;stroke:#000;stroke-linejoin:round;stroke-width:2px"/><line style="fill:none;stroke:#000;stroke-linejoin:round;stroke-width:2px" x1="22" x2="22" y1="19" y2="22"/><line style="fill:none;stroke:#000;stroke-linejoin:round;stroke-width:2px" x1="42" x2="42" y1="19" y2="22"/><path d="M16,1a10.8,10.8,0,0,0,4,8" style="fill:none;stroke:#000;stroke-linejoin:round;stroke-width:2px"/><path d="M48,1a10.8,10.8,0,0,1-4,8" style="fill:none;stroke:#000;stroke-linejoin:round;stroke-width:2px"/><path d="M45,58h5a2,2,0,0,0,2-2V45.5A2.5,2.5,0,0,1,54.5,43h0A2.5,2.5,0,0,1,57,45.5V57a6,6,0,0,1-6,6H46" style="fill:none;stroke:#000;stroke-linejoin:round;stroke-width:2px"/><path d="M40,38c0,4,6,13,6,25H18c0-12,6-21,6-25" style="fill:none;stroke:#000;stroke-linejoin:round;stroke-width:2px"/><path d="M30,49V63H24V61a2,2,0,0,1,2-2V47" style="fill:none;stroke:#000;stroke-linejoin:round;stroke-width:2px"/><path d="M34,49V63h6V61a2,2,0,0,0-2-2V47" style="fill:none;stroke:#000;stroke-linejoin:round;stroke-width:2px"/><path d="M23,41a55.273,55.273,0,0,0,9,1,55.273,55.273,0,0,0,9-1" style="fill:none;stroke:#000;stroke-linejoin:round;stroke-width:2px"/><circle cx="32" cy="44" r="2" style="fill:none;stroke:#000;stroke-linejoin:round;stroke-width:2px"/><line style="fill:none;stroke:#000;stroke-linejoin:round;stroke-width:2px" x1="52" x2="57" y1="48" y2="48"/></g></svg>