<?xml version="1.0" ?><svg viewBox="0 0 24 24" xmlns="http://www.w3.org/2000/svg"><defs><style>.a{fill:gray;}.b{fill:#b2b2b2;}.c{fill:none;}.c,.d,.e{stroke:#191919;stroke-linecap:round;stroke-linejoin:round;}.d{fill:#ffdda1;}.e{fill:#c77f67;}</style></defs><title/><path class="a" d="M21.489,10.214l.032.023s2.646-4.572-.6-7.237c-2,0-5.058,3.3-5.058,3.3l.022.016A14.152,14.152,0,0,0,8.1,6.3C8.083,6.285,5.037,3,3.042,3c-3.173,2.6-.729,7.012-.614,7.217A8.876,8.876,0,0,0,1.033,15.96c.241,3.126,2.847,6.54,5.982,6.54H16.9c3.135,0,5.742-3.414,5.982-6.54A8.857,8.857,0,0,0,21.489,10.214Z"/><path class="b" d="M1.354,12.556A19.383,19.383,0,0,1,11.959,9.5a19.381,19.381,0,0,1,10.606,3.053,8.311,8.311,0,0,0-1.076-2.342l.032.023s2.646-4.572-.6-7.237c-2,0-5.058,3.3-5.058,3.3l.022.015A14.162,14.162,0,0,0,8.1,6.3C8.083,6.285,5.037,3,3.042,3c-3.173,2.6-.729,7.012-.614,7.217A8.33,8.33,0,0,0,1.354,12.556Z"/><path class="c" d="M21.489,10.214l.032.023s2.646-4.572-.6-7.237c-2,0-5.058,3.3-5.058,3.3l.022.016A14.152,14.152,0,0,0,8.1,6.3C8.083,6.285,5.037,3,3.042,3c-3.173,2.6-.729,7.012-.614,7.217A8.876,8.876,0,0,0,1.033,15.96c.241,3.126,2.847,6.54,5.982,6.54H16.9c3.135,0,5.742-3.414,5.982-6.54A8.857,8.857,0,0,0,21.489,10.214Z"/><path class="d" d="M19.459,17c0-5.969-4.126-3.532-7.5-3.532s-7.5-2.375-7.5,3.532a3.5,3.5,0,0,0,3.5,3.5h8A3.5,3.5,0,0,0,19.459,17Z"/><ellipse class="e" cx="15.48" cy="17" rx="1" ry="1.5"/><ellipse class="e" cx="8.48" cy="17" rx="1" ry="1.5"/></svg>