<?xml version="1.0" ?><svg id="Layer_1" style="enable-background:new 0 0 24 24;" version="1.1" viewBox="0 0 24 24" xml:space="preserve" xmlns="http://www.w3.org/2000/svg" xmlns:xlink="http://www.w3.org/1999/xlink"><title/><g id="Rudolf_Deer"><g><path d="M16.377,13.59c3.09,0,6.13-5.09,6.13-5.09s-5.24,0-7.11,3.16" style="fill:#9D581F;"/><path d="M16.007,12.74c1.25-2.08,4-2.79,5.68-3    c0.51-0.7,0.82-1.21,0.82-1.21s-5.24,0-7.11,3.16L16.007,12.74z" style="opacity:0.2;fill:#FFFFFF;enable-background:new    ;"/><path d="M12.007,23.5c0.404,0.053,0.8-0.145,1-0.5c0,0,1.5-0.12,2.5-3c0.672-1.581,1.012-3.282,1-5    c0-1.17-0.12-4.5-4.5-4.5s-4.5,3.33-4.5,4.5c-0.012,1.718,0.328,3.419,1,5c1,2.88,2.5,3,2.5,3    C11.207,23.355,11.603,23.553,12.007,23.5z" style="fill:#9D581F;"/><g><path d="M12.007,11.5c4,0,4.44,2.74,4.49,4.12     c0-0.21,0-0.41,0-0.62c0-1.17-0.12-4.5-4.5-4.5s-4.49,3.33-4.49,4.5c0,0.21,0,0.41,0,0.62C7.567,14.24,8.007,11.5,12.007,11.5z" style="opacity:0.2;fill:#FFFFFF;enable-background:new    ;"/><path d="M15.507,19c-1,2.88-2.5,3-2.5,3c-0.2,0.355-0.596,0.553-1,0.5     c-0.404,0.053-0.8-0.145-1-0.5c0,0-1.5-0.12-2.5-3c-0.573-1.395-0.911-2.875-1-4.38c0,0.14,0,0.27,0,0.38     c-0.012,1.718,0.328,3.419,1,5c1,2.88,2.5,3,2.5,3c0.2,0.355,0.596,0.553,1,0.5c0.404,0.053,0.8-0.145,1-0.5c0,0,1.5-0.12,2.5-3     c0.672-1.581,1.012-3.282,1-5c0-0.11,0-0.24,0-0.38C16.418,16.125,16.08,17.605,15.507,19z" style="opacity:0.1;enable-background:new    ;"/></g><path d="M7.637,13.59c-3.1,0-6.13-5.09-6.13-5.09s5.24,0,7.11,3.16" style="fill:#9D581F;"/><path d="M8.007,12.74c-1.25-2.08-4-2.79-5.68-3    C1.817,9,1.507,8.5,1.507,8.5s5.24,0,7.11,3.16L8.007,12.74z" style="opacity:0.2;fill:#FFFFFF;enable-background:new    ;"/><path d="M10.007,16c-0.552,0-1-0.448-1-1s0.448-1,1-1s1,0.448,1,1S10.559,16,10.007,16z M10.007,15    L10.007,15z" style="fill:#303C42;"/><path d="M12.007,22c-0.552,0-1-0.448-1-1c-0.012-0.21,0.086-0.411,0.26-0.53    c0.201-0.116,0.449-0.116,0.65,0h0.1h0.09c0.201-0.116,0.449-0.116,0.65,0c0.17,0.121,0.264,0.322,0.25,0.53    C13.007,21.552,12.559,22,12.007,22z M12.487,21L12.487,21z M12.007,21L12.007,21z" style="fill:#303C42;"/><path d="M22.937,8.25c-0.089-0.154-0.252-0.249-0.43-0.25l0,0c-0.21,0-5,0.07-7.2,2.91    c-0.249-0.179-0.517-0.33-0.8-0.45l0.43-2.09c1.07-0.43,5.07-2.17,5.07-4.87c0-2.99-1.15-3.43-1.38-3.5    c-0.273-0.069-0.55,0.096-0.62,0.369c0,0,0,0.001,0,0.001c-0.075,0.254,0.071,0.521,0.325,0.596    c0.005,0.001,0.01,0.003,0.015,0.004c0,0,0.66,0.33,0.66,2.53c-0.058,0.71-0.397,1.369-0.94,1.83    c-0.126-1.113-0.517-2.179-1.14-3.11c-0.155-0.229-0.466-0.29-0.695-0.135s-0.29,0.466-0.135,0.695c0.45,0.67,1.4,2.5,0.77,3.44    c-0.602-0.029-1.171-0.286-1.59-0.72c-1.27-1.32-1.27-3.96-1.27-3.99c0.006-0.276-0.214-0.504-0.49-0.51c0,0,0,0,0,0l0,0    c-0.272,0-0.495,0.218-0.5,0.49c0,0.13,0,3.09,1.55,4.71c0.308,0.339,0.683,0.611,1.1,0.8c-0.432,0.216-0.876,0.407-1.33,0.57    c-0.158,0.049-0.281,0.172-0.33,0.33l-0.46,2.26c-1.019-0.21-2.071-0.21-3.09,0l-0.45-2.26C9.97,7.727,9.844,7.586,9.677,7.53    C9.223,7.38,8.779,7.203,8.347,7c0.421-0.188,0.799-0.46,1.11-0.8c1.55-1.62,1.55-4.58,1.55-4.71    c-0.016-0.272-0.238-0.485-0.51-0.49c-0.276,0.005-0.495,0.234-0.49,0.51c0,0,0,0,0,0c0,0,0,2.66-1.26,4    c-0.422,0.436-0.994,0.694-1.6,0.72c-0.63-0.94,0.32-2.78,0.77-3.44c0.155-0.229,0.094-0.54-0.135-0.695S7.241,2.001,7.087,2.23    l0,0c-0.622,0.928-1.013,1.991-1.14,3.1C5.403,4.869,5.065,4.21,5.007,3.5c0-2.17,0.64-2.5,0.62-2.5    c0.276-0.066,0.446-0.344,0.38-0.62S5.663-0.066,5.387,0c-0.23,0.07-1.38,0.51-1.38,3.5c0,2.7,4,4.44,5.07,4.87l0.43,2.09    c-0.283,0.12-0.551,0.271-0.8,0.45C6.507,8.07,1.727,8,1.507,8c-0.18,0.002-0.347,0.096-0.44,0.25c-0.089,0.155-0.089,0.345,0,0.5    c0.12,0.21,2.88,4.76,6,5.28c-0.04,0.322-0.06,0.646-0.06,0.97c-0.021,1.77,0.319,3.526,1,5.16c0.87,2.49,2.12,3.12,2.67,3.28    c0.332,0.383,0.824,0.59,1.33,0.56c0.498,0.027,0.98-0.176,1.31-0.55c0.55-0.16,1.8-0.79,2.67-3.28    c0.689-1.636,1.037-3.395,1.02-5.17c0.001-0.334-0.019-0.668-0.06-1c3.11-0.52,5.87-5.08,6-5.28    C23.022,8.571,23.018,8.395,22.937,8.25z M2.487,9.07c1.46,0.17,4.15,0.74,5.48,2.55c-0.326,0.431-0.567,0.919-0.71,1.44    C5.327,12.77,3.397,10.37,2.487,9.07z M15.007,19.84c-0.83,2.47-2,2.66-2,2.66c-0.182,0.007-0.343,0.121-0.41,0.29    c0,0-0.17,0.21-0.59,0.21s-0.54-0.19-0.54-0.19c-0.072-0.168-0.228-0.286-0.41-0.31c0,0-1.22-0.19-2.05-2.66    c-0.663-1.527-1.004-3.175-1-4.84c0-2.69,1.31-4,4-4s4,1.31,4,4C16.01,16.665,15.67,18.313,15.007,19.84z M16.727,13.07    c-0.146-0.521-0.39-1.01-0.72-1.44c1.33-1.82,4-2.39,5.48-2.55c-0.87,1.29-2.8,3.69-4.73,3.98L16.727,13.07z" style="fill:#303C42;"/><path d="M14.007,16c-0.552,0-1-0.448-1-1s0.448-1,1-1s1,0.448,1,1S14.559,16,14.007,16z M14.007,15    L14.007,15z" style="fill:#303C42;"/><linearGradient gradientTransform="matrix(1 0 0 -1 0 24)" gradientUnits="userSpaceOnUse" id="SVGID_1_" x1="2.1166" x2="20.291" y1="18.0467" y2="9.5794"><stop offset="0" style="stop-color:#FFFFFF;stop-opacity:0.2"/><stop offset="1" style="stop-color:#FFFFFF;stop-opacity:0"/></linearGradient><path d="M22.937,8.25c-0.089-0.154-0.252-0.249-0.43-0.25l0,0c-0.21,0-5,0.07-7.2,2.91    c-0.249-0.179-0.517-0.33-0.8-0.45l0.43-2.09c1.07-0.43,5.07-2.17,5.07-4.87c0-2.99-1.15-3.43-1.38-3.5    c-0.273-0.069-0.55,0.096-0.62,0.369c0,0,0,0.001,0,0.001c-0.075,0.254,0.071,0.521,0.325,0.596    c0.005,0.001,0.01,0.003,0.015,0.004c0,0,0.66,0.33,0.66,2.53c-0.058,0.71-0.397,1.369-0.94,1.83    c-0.126-1.113-0.517-2.179-1.14-3.11c-0.155-0.229-0.466-0.29-0.695-0.135s-0.29,0.466-0.135,0.695c0.45,0.67,1.4,2.5,0.77,3.44    c-0.602-0.029-1.171-0.286-1.59-0.72c-1.27-1.32-1.27-3.96-1.27-3.99c0.006-0.276-0.214-0.504-0.49-0.51c0,0,0,0,0,0l0,0    c-0.272,0-0.495,0.218-0.5,0.49c0,0.13,0,3.09,1.55,4.71c0.308,0.339,0.683,0.611,1.1,0.8c-0.432,0.216-0.876,0.407-1.33,0.57    c-0.158,0.049-0.281,0.172-0.33,0.33l-0.46,2.26c-1.019-0.21-2.071-0.21-3.09,0l-0.45-2.26C9.97,7.727,9.844,7.586,9.677,7.53    C9.223,7.38,8.779,7.203,8.347,7c0.421-0.188,0.799-0.46,1.11-0.8c1.55-1.62,1.55-4.58,1.55-4.71    c-0.016-0.272-0.238-0.485-0.51-0.49c-0.276,0.005-0.495,0.234-0.49,0.51c0,0,0,0,0,0c0,0,0,2.66-1.26,4    c-0.422,0.436-0.994,0.694-1.6,0.72c-0.63-0.94,0.32-2.78,0.77-3.44c0.155-0.229,0.094-0.54-0.135-0.695S7.241,2.001,7.087,2.23    l0,0c-0.622,0.928-1.013,1.991-1.14,3.1C5.403,4.869,5.065,4.21,5.007,3.5c0-2.17,0.64-2.5,0.62-2.5    c0.276-0.066,0.446-0.344,0.38-0.62S5.663-0.066,5.387,0c-0.23,0.07-1.38,0.51-1.38,3.5c0,2.7,4,4.44,5.07,4.87l0.43,2.09    c-0.283,0.12-0.551,0.271-0.8,0.45C6.507,8.07,1.727,8,1.507,8c-0.18,0.002-0.347,0.096-0.44,0.25c-0.089,0.155-0.089,0.345,0,0.5    c0.12,0.21,2.88,4.76,6,5.28c-0.04,0.322-0.06,0.646-0.06,0.97c-0.021,1.77,0.319,3.526,1,5.16c0.87,2.49,2.12,3.12,2.67,3.28    c0.332,0.383,0.824,0.59,1.33,0.56c0.498,0.027,0.98-0.176,1.31-0.55c0.55-0.16,1.8-0.79,2.67-3.28    c0.689-1.636,1.037-3.395,1.02-5.17c0.001-0.334-0.019-0.668-0.06-1c3.11-0.52,5.87-5.08,6-5.28    C23.022,8.571,23.018,8.395,22.937,8.25z" style="fill:url(#SVGID_1_);"/></g></g></svg>