<?xml version="1.0" ?><svg viewBox="0 0 64 64" xmlns="http://www.w3.org/2000/svg"><title/><g data-name="Day 9" id="259aad18-085b-4056-bbb1-672c1180eea7"><g data-name="&lt;Group&gt;" id="82506d80-9669-4a4a-aae7-02031e9e370f"><path d="M58.5,38a16.54,16.54,0,0,1-.62,4.51C55.28,51.94,44.68,59,32,59S8.72,51.94,6.12,42.51A16.54,16.54,0,0,1,5.5,38C5.5,26.4,17.36,17,32,17S58.5,26.4,58.5,38Z" data-name="&lt;Path&gt;" fill="#f4f4f4" id="4c690887-619a-4976-9108-8179f9ebd610"/><path d="M57.88,42.51C55.28,51.94,44.68,59,32,59S8.72,51.94,6.12,42.51C12.63,38.5,21.82,36,32,36S51.37,38.5,57.88,42.51Z" data-name="&lt;Path&gt;" fill="#d6d6d6" id="4c0245b3-a776-4e5a-83ef-a8fb706e7537"/><ellipse cx="32" cy="38" data-name="&lt;Path&gt;" fill="none" id="76b9a741-59b1-47f4-a7ef-9a261aa81970" rx="26.5" ry="21" stroke="#001c63" stroke-linecap="round" stroke-linejoin="round" stroke-width="2"/><path d="M47,12v-.7C43,9.47,37.64,9,31.5,9c-5.71,0-10.7.59-14.82,2.26l.2.74L21,15H44Z" data-name="&lt;Path&gt;" fill="#ef420c" id="53cdb7aa-7199-40f1-9ec8-b5c1e99e06c5"/><path d="M47,12v-.7C43,9.47,37.64,9,31.5,9c-5.71,0-10.7.59-14.82,2.26l.2.74L21,15H44Z" data-name="&lt;Path&gt;" fill="none" id="5a433829-bb61-409c-820d-4cfa23ffbe4a" stroke="#001c63" stroke-linecap="round" stroke-linejoin="round" stroke-width="2"/><polygon data-name="&lt;Path&gt;" fill="#cc390a" id="0c7f2c7e-1b67-410b-8651-9f8987d7488c" points="51 5 51 19 43.5 15 46.15 10.2 49 5 51 5"/><polygon data-name="&lt;Path&gt;" fill="#ef420c" id="4837d60c-bde7-4834-9034-98498310123f" points="51 5 51 13 45.9 10.2 49 5 51 5"/><polygon data-name="&lt;Path&gt;" fill="none" id="4d8f1ecd-8ad9-4bb8-b2c4-ef7b773c4b9d" points="51 5 51 19 43.5 15 49 5 51 5" stroke="#001c63" stroke-linecap="round" stroke-linejoin="round" stroke-width="2"/><polygon data-name="&lt;Path&gt;" fill="#cc390a" id="0d97647a-bdbf-4c58-83a4-4a87d52827f8" points="11 5 11 19 19.5 15 17.35 10.2 15 5 11 5"/><polygon data-name="&lt;Path&gt;" fill="#ef420c" id="f814e15e-d275-4684-9c22-5cad368bf5b6" points="11 5 11 13 17.1 10.2 15 5 11 5"/><polygon data-name="&lt;Path&gt;" fill="none" id="e3fcac51-6daf-459a-b791-6c964e6a500b" points="11 5 11 19 19.5 15 15 5 11 5" stroke="#001c63" stroke-linecap="round" stroke-linejoin="round" stroke-width="2"/><path d="M52,40.13a9.82,9.82,0,0,1-2.32,6.34c-.18.22-.38.43-.58.63a9.84,9.84,0,0,1-7,2.9H21.87A9.9,9.9,0,0,1,12,40.13,8.16,8.16,0,0,1,20.13,32H43.87A8.16,8.16,0,0,1,52,40.13Z" data-name="&lt;Path&gt;" fill="#fff" id="d2c67e48-c276-44f1-a9d3-ef5649f2a489"/><path d="M49.68,46.47c-.18.22-.38.43-.58.63a9.84,9.84,0,0,1-7,2.9H21.87a9.84,9.84,0,0,1-7.55-3.53l.07-.08A8.12,8.12,0,0,1,20.13,44H43.87A8.08,8.08,0,0,1,49.68,46.47Z" data-name="&lt;Path&gt;" fill="#a8a8a8" id="e753c1ee-da3c-430d-b4ab-4480d698d3f6"/><path d="M20.13,32H43.87A8.13,8.13,0,0,1,52,40.13v0A9.87,9.87,0,0,1,42.13,50H21.87A9.87,9.87,0,0,1,12,40.13v0A8.13,8.13,0,0,1,20.13,32Z" data-name="&lt;Rectangle&gt;" fill="none" id="39d3460f-1083-49fd-9732-957399a9559b" stroke="#001c63" stroke-linecap="round" stroke-linejoin="round" stroke-width="2"/><path d="M56,28.5c0,7.13-3.09,11.07-8,13.2C43.75,43.53,38.14,44,32,44c-5.71,0-11-.59-15.07-2.26C11.48,39.56,8,35.51,8,28.5c0-.52,0-1,.06-1.51C8.87,15.39,19.28,13,32,13s23.11,3.07,23.94,14C56,27.51,56,28,56,28.5Z" data-name="&lt;Path&gt;" fill="#d6d6d6" id="6240a0d6-1e1a-4e85-860b-4bf3858f0fa8"/><path d="M55.94,27c-.41,6.17-3.4,9.69-7.94,11.66C43.75,40.53,38.14,41,32,41c-5.71,0-11-.59-15.07-2.26-5-2-8.41-5.65-8.87-11.75C8.87,15.39,19.28,13,32,13S55.11,16.07,55.94,27Z" data-name="&lt;Path&gt;" fill="#fff" id="fc06e538-273c-451b-b393-7aa5fea66958"/><path d="M56,28.5c0,7.13-3.09,11.07-8,13.2C43.75,43.53,38.14,44,32,44c-5.71,0-11-.59-15.07-2.26C11.48,39.56,8,35.51,8,28.5,8,15.59,18.75,13,32,13S56,16.34,56,28.5Z" data-name="&lt;Path&gt;" fill="none" id="6f1d8e45-1201-430d-a84a-f0f4d1fb0818" stroke="#001c63" stroke-linecap="round" stroke-linejoin="round" stroke-width="2"/><g data-name="&lt;Group&gt;" id="35358f64-b3da-4d97-a0b3-5d749f4b34b3"><circle cx="19" cy="29" data-name="&lt;Path&gt;" fill="#001c63" id="b767f40b-cca3-4345-be93-69cb2a903189" r="3"/><circle cx="45" cy="29" data-name="&lt;Path&gt;" fill="#001c63" id="2d31cb25-bd17-4032-8e06-6daeed3317e4" r="3"/><line data-name="&lt;Path&gt;" fill="none" id="e1d8fe52-aabf-47b7-85b7-4d8863a2bfbf" stroke="#001c63" stroke-linecap="round" stroke-linejoin="round" stroke-width="2" x1="19" x2="43" y1="29" y2="29"/></g><path d="M47,50v.7C43,52.53,37.64,53,31.5,53c-5.71,0-10.7-.59-14.82-2.26l.2-.74L21,47H44Z" data-name="&lt;Path&gt;" fill="#ef420c" id="c510fd49-4547-4ebe-9b1b-d415d3ea0816"/><path d="M47,50v.7C43,52.53,37.64,53,31.5,53c-5.71,0-10.7-.59-14.82-2.26l.2-.74L21,47H44Z" data-name="&lt;Path&gt;" fill="none" id="b3cf79f5-f903-4463-9b7c-ee48ac737c85" stroke="#001c63" stroke-linecap="round" stroke-linejoin="round" stroke-width="2"/></g></g></svg>