<?xml version="1.0" encoding="UTF-8"?>
<svg version="1.1" xmlns="http://www.w3.org/2000/svg" width="512" height="512">
<path d="M0 0 C11.98739412 7.28544212 23.75549616 9.36833612 37.61328125 6.70947266 C43.21404548 4.89278231 48.04928682 1.85456003 53.0390625 -1.20068359 C66.41778626 -9.37620092 79.27861191 -12.22073002 94.921875 -9.00537109 C97.61458764 -8.09245712 100.02550226 -7.0255651 102.5390625 -5.70068359 C103.82490234 -5.06453125 103.82490234 -5.06453125 105.13671875 -4.41552734 C116.00312786 1.46839554 121.21100659 10.20828169 126.89624023 20.76611328 C133.54713083 33.01000199 141.73437527 40.15104311 155.09448242 44.47412109 C161.21554536 45.94050374 167.33608186 45.81823582 173.6015625 45.79931641 C188.28773493 45.75510314 200.71370355 48.43075203 211.953125 58.45166016 C220.37763864 67.14384229 225.59769664 77.70120564 225.71484375 89.83056641 C225.73869141 91.11705078 225.76253906 92.40353516 225.78710938 93.72900391 C225.83323932 96.41163755 225.86109156 99.09272699 225.88085938 101.77587891 C226.19373967 116.41576613 229.9437039 127.83878696 240.53125 138.26025391 C245.00018423 141.98717642 249.89435429 144.59258396 255.0390625 147.23681641 C265.34785597 152.55595972 272.3325039 158.77542136 277.5390625 169.29931641 C277.95285156 170.08435547 278.36664063 170.86939453 278.79296875 171.67822266 C283.28041132 181.66942754 283.4869698 195.70597922 280.1015625 206.11181641 C277.84714681 211.25899489 274.76737026 215.97667144 271.83837891 220.76025391 C264.55293679 232.74764803 262.47004278 244.51575007 265.12890625 258.37353516 C266.94559659 263.97429939 269.98381887 268.80954072 273.0390625 273.79931641 C281.21457983 287.17804017 284.05910893 300.03886582 280.84375 315.68212891 C279.93083603 318.37484154 278.86394401 320.78575616 277.5390625 323.29931641 C277.11496094 324.15654297 276.69085938 325.01376953 276.25390625 325.89697266 C270.36998337 336.76338177 261.63009722 341.97126049 251.07226562 347.65649414 C238.82837691 354.30738474 231.6873358 362.49462918 227.36425781 375.85473633 C225.89787517 381.97579927 226.02014308 388.09633577 226.0390625 394.36181641 C226.08327576 409.04798883 223.40762687 421.47395746 213.38671875 432.71337891 C204.35693865 441.46509447 193.68684738 446.34867238 181.12890625 446.47509766 C179.89076172 446.49894531 178.65261719 446.52279297 177.37695312 446.54736328 C174.80419793 446.58987751 172.23123383 446.62137136 169.65820312 446.64111328 C155.20550427 446.96228437 143.85159034 450.854318 133.578125 461.29150391 C129.85120249 465.76043814 127.24579495 470.6546082 124.6015625 475.79931641 C119.28241919 486.10810988 113.06295755 493.0927578 102.5390625 498.29931641 C101.75402344 498.71310547 100.96898437 499.12689453 100.16015625 499.55322266 C90.16895137 504.04066523 76.13239969 504.24722371 65.7265625 500.86181641 C60.57938402 498.60740071 55.86170747 495.52762417 51.078125 492.59863281 C39.09073088 485.3131907 27.32262884 483.23029669 13.46484375 485.88916016 C7.86407952 487.7058505 3.02883818 490.74407278 -1.9609375 493.79931641 C-15.33966126 501.97483373 -28.20048691 504.81936283 -43.84375 501.60400391 C-46.53646264 500.69108994 -48.94737726 499.62419791 -51.4609375 498.29931641 C-52.31816406 497.87521484 -53.17539063 497.45111328 -54.05859375 497.01416016 C-64.92500286 491.13023727 -70.13288159 482.39035113 -75.81811523 471.83251953 C-82.48060755 459.56727275 -90.66435001 452.45667044 -104.04321289 448.12890625 C-110.0164549 446.67901152 -115.9666238 446.74000355 -122.0859375 446.73681641 C-138.19646956 446.67844491 -150.37028439 443.70856512 -162.390625 432.52587891 C-173.68141916 420.38294934 -174.99704762 406.3202847 -174.94921875 390.48095703 C-175.11203326 375.95346207 -178.96017297 364.66673561 -189.453125 354.33837891 C-193.92205923 350.61145639 -198.81622929 348.00604885 -203.9609375 345.36181641 C-214.26973097 340.0426731 -221.2543789 333.82321145 -226.4609375 323.29931641 C-227.08162109 322.12175781 -227.08162109 322.12175781 -227.71484375 320.92041016 C-232.20228632 310.92920527 -232.4088448 296.89265359 -229.0234375 286.48681641 C-226.76902181 281.33963792 -223.68924526 276.62196138 -220.76025391 271.83837891 C-213.47481179 259.85098478 -211.39191778 248.08288275 -214.05078125 234.22509766 C-215.86747159 228.62433342 -218.90569387 223.78909209 -221.9609375 218.79931641 C-230.13645483 205.42059265 -232.98098393 192.559767 -229.765625 176.91650391 C-228.85271103 174.22379127 -227.78581901 171.81287665 -226.4609375 169.29931641 C-226.03683594 168.44208984 -225.61273438 167.58486328 -225.17578125 166.70166016 C-219.29185837 155.83525104 -210.55197222 150.62737232 -199.99414062 144.94213867 C-187.75025191 138.29124808 -180.6092108 130.10400363 -176.28613281 116.74389648 C-174.81975017 110.62283354 -174.94201808 104.50229704 -174.9609375 98.23681641 C-175.00515076 83.55064398 -172.32950187 71.12467536 -162.30859375 59.88525391 C-153.61641162 51.46074027 -143.05904827 46.24068226 -130.9296875 46.12353516 C-129.64320313 46.0996875 -128.35671875 46.07583984 -127.03125 46.05126953 C-124.34861636 46.00513959 -121.66752692 45.97728735 -118.984375 45.95751953 C-104.34448778 45.64463924 -92.92146694 41.894675 -82.5 31.30712891 C-78.77307749 26.83819467 -76.16766995 21.94402462 -73.5234375 16.79931641 C-68.20429419 6.49052294 -61.98483255 -0.49412499 -51.4609375 -5.70068359 C-50.28337891 -6.32136719 -50.28337891 -6.32136719 -49.08203125 -6.95458984 C-31.99479751 -14.62913771 -14.91870553 -9.13473529 0 0 Z " fill="#C61926" transform="translate(230.4609375,9.70068359375)"/>
<path d="M0 0 C11.98739412 7.28544212 23.75549616 9.36833612 37.61328125 6.70947266 C43.21404548 4.89278231 48.04928682 1.85456003 53.0390625 -1.20068359 C66.41778626 -9.37620092 79.27861191 -12.22073002 94.921875 -9.00537109 C97.61458764 -8.09245712 100.02550226 -7.0255651 102.5390625 -5.70068359 C103.82490234 -5.06453125 103.82490234 -5.06453125 105.13671875 -4.41552734 C116.00312786 1.46839554 121.21100659 10.20828169 126.89624023 20.76611328 C133.54713083 33.01000199 141.73437527 40.15104311 155.09448242 44.47412109 C161.21554536 45.94050374 167.33608186 45.81823582 173.6015625 45.79931641 C188.28773493 45.75510314 200.71370355 48.43075203 211.953125 58.45166016 C220.37763864 67.14384229 225.59769664 77.70120564 225.71484375 89.83056641 C225.73869141 91.11705078 225.76253906 92.40353516 225.78710938 93.72900391 C225.83323932 96.41163755 225.86109156 99.09272699 225.88085938 101.77587891 C226.19373967 116.41576613 229.9437039 127.83878696 240.53125 138.26025391 C245.00018423 141.98717642 249.89435429 144.59258396 255.0390625 147.23681641 C265.34785597 152.55595972 272.3325039 158.77542136 277.5390625 169.29931641 C277.95285156 170.08435547 278.36664063 170.86939453 278.79296875 171.67822266 C283.28041132 181.66942754 283.4869698 195.70597922 280.1015625 206.11181641 C277.84714681 211.25899489 274.76737026 215.97667144 271.83837891 220.76025391 C264.55293679 232.74764803 262.47004278 244.51575007 265.12890625 258.37353516 C266.94559659 263.97429939 269.98381887 268.80954072 273.0390625 273.79931641 C281.21457983 287.17804017 284.05910893 300.03886582 280.84375 315.68212891 C279.93083603 318.37484154 278.86394401 320.78575616 277.5390625 323.29931641 C277.11496094 324.15654297 276.69085938 325.01376953 276.25390625 325.89697266 C270.36998337 336.76338177 261.63009722 341.97126049 251.07226562 347.65649414 C238.82837691 354.30738474 231.6873358 362.49462918 227.36425781 375.85473633 C225.89787517 381.97579927 226.02014308 388.09633577 226.0390625 394.36181641 C226.08327576 409.04798883 223.40762687 421.47395746 213.38671875 432.71337891 C204.35693865 441.46509447 193.68684738 446.34867238 181.12890625 446.47509766 C179.89076172 446.49894531 178.65261719 446.52279297 177.37695312 446.54736328 C174.80419793 446.58987751 172.23123383 446.62137136 169.65820312 446.64111328 C155.20550427 446.96228437 143.85159034 450.854318 133.578125 461.29150391 C129.85120249 465.76043814 127.24579495 470.6546082 124.6015625 475.79931641 C119.28241919 486.10810988 113.06295755 493.0927578 102.5390625 498.29931641 C101.75402344 498.71310547 100.96898437 499.12689453 100.16015625 499.55322266 C90.16895137 504.04066523 76.13239969 504.24722371 65.7265625 500.86181641 C60.57938402 498.60740071 55.86170747 495.52762417 51.078125 492.59863281 C39.09073088 485.3131907 27.32262884 483.23029669 13.46484375 485.88916016 C7.86407952 487.7058505 3.02883818 490.74407278 -1.9609375 493.79931641 C-15.33966126 501.97483373 -28.20048691 504.81936283 -43.84375 501.60400391 C-46.53646264 500.69108994 -48.94737726 499.62419791 -51.4609375 498.29931641 C-52.31816406 497.87521484 -53.17539063 497.45111328 -54.05859375 497.01416016 C-64.92500286 491.13023727 -70.13288159 482.39035113 -75.81811523 471.83251953 C-82.48060755 459.56727275 -90.66435001 452.45667044 -104.04321289 448.12890625 C-110.0164549 446.67901152 -115.9666238 446.74000355 -122.0859375 446.73681641 C-138.19646956 446.67844491 -150.37028439 443.70856512 -162.390625 432.52587891 C-173.68141916 420.38294934 -174.99704762 406.3202847 -174.94921875 390.48095703 C-175.11203326 375.95346207 -178.96017297 364.66673561 -189.453125 354.33837891 C-193.92205923 350.61145639 -198.81622929 348.00604885 -203.9609375 345.36181641 C-214.26973097 340.0426731 -221.2543789 333.82321145 -226.4609375 323.29931641 C-227.08162109 322.12175781 -227.08162109 322.12175781 -227.71484375 320.92041016 C-232.20228632 310.92920527 -232.4088448 296.89265359 -229.0234375 286.48681641 C-226.76902181 281.33963792 -223.68924526 276.62196138 -220.76025391 271.83837891 C-213.47481179 259.85098478 -211.39191778 248.08288275 -214.05078125 234.22509766 C-215.86747159 228.62433342 -218.90569387 223.78909209 -221.9609375 218.79931641 C-230.13645483 205.42059265 -232.98098393 192.559767 -229.765625 176.91650391 C-228.85271103 174.22379127 -227.78581901 171.81287665 -226.4609375 169.29931641 C-226.03683594 168.44208984 -225.61273438 167.58486328 -225.17578125 166.70166016 C-219.29185837 155.83525104 -210.55197222 150.62737232 -199.99414062 144.94213867 C-187.75025191 138.29124808 -180.6092108 130.10400363 -176.28613281 116.74389648 C-174.81975017 110.62283354 -174.94201808 104.50229704 -174.9609375 98.23681641 C-175.00515076 83.55064398 -172.32950187 71.12467536 -162.30859375 59.88525391 C-153.61641162 51.46074027 -143.05904827 46.24068226 -130.9296875 46.12353516 C-129.64320313 46.0996875 -128.35671875 46.07583984 -127.03125 46.05126953 C-124.34861636 46.00513959 -121.66752692 45.97728735 -118.984375 45.95751953 C-104.34448778 45.64463924 -92.92146694 41.894675 -82.5 31.30712891 C-78.77307749 26.83819467 -76.16766995 21.94402462 -73.5234375 16.79931641 C-68.20429419 6.49052294 -61.98483255 -0.49412499 -51.4609375 -5.70068359 C-50.28337891 -6.32136719 -50.28337891 -6.32136719 -49.08203125 -6.95458984 C-31.99479751 -14.62913771 -14.91870553 -9.13473529 0 0 Z M-114.4609375 102.29931641 C-115.4437007 103.21891834 -116.426777 104.13818577 -117.41015625 105.05712891 C-146.43196877 132.63046281 -165.41192318 171.21574249 -172.4609375 210.29931641 C-172.62319824 211.18796387 -172.78545898 212.07661133 -172.95263672 212.9921875 C-176.58561866 233.67656453 -176.54765613 254.54970781 -173.4609375 275.29931641 C-173.32413574 276.30937744 -173.32413574 276.30937744 -173.18457031 277.33984375 C-166.36723034 327.1542665 -137.61992408 374.85245227 -97.81420898 405.42456055 C-53.83618664 438.17151995 -0.36632354 453.29356392 54.24365234 445.65429688 C61.11225239 444.59208198 67.82316236 443.07923927 74.5390625 441.29931641 C75.84351318 440.95755371 75.84351318 440.95755371 77.17431641 440.60888672 C111.04201757 431.53514763 140.29915558 414.47099892 165.5390625 390.29931641 C166.28736328 389.59186279 166.28736328 389.59186279 167.05078125 388.87011719 C204.02966658 353.78057722 225.23789751 302.77599401 226.76953125 252.06103516 C227.02617965 237.90083068 226.06393279 224.23235603 223.5390625 210.29931641 C223.33023438 209.13311768 223.33023438 209.13311768 223.1171875 207.94335938 C215.93189224 169.2309179 196.76874812 134.49322602 169.5390625 106.29931641 C168.61946057 105.3165532 167.70019313 104.3334769 166.78125 103.35009766 C155.08154473 91.03578507 141.14773172 80.90757185 126.5390625 72.29931641 C125.61335449 71.75114258 125.61335449 71.75114258 124.66894531 71.19189453 C112.2610106 63.96384978 99.08882643 58.96439952 85.5390625 54.29931641 C84.8574707 54.06341797 84.17587891 53.82751953 83.47363281 53.58447266 C14.66321684 30.35668745 -63.30282357 52.89079598 -114.4609375 102.29931641 Z " fill="#FECA5A" transform="translate(230.4609375,9.70068359375)"/>
<path d="M0 0 C3.3038968 2.88426709 6.48633968 5.8786641 9.61572266 8.95068359 C11.09226779 10.39217721 12.59336484 11.80357281 14.10058594 13.21289062 C27.0103483 25.46529889 37.17958845 40.05986794 46.09667969 55.39648438 C46.45068848 56.00137695 46.80469727 56.60626953 47.16943359 57.22949219 C72.633364 101.27456374 78.52617597 155.7038062 65.84716797 204.63671875 C56.48969626 239.04688796 39.69428925 268.69939746 15.09667969 294.39648438 C14.62649414 294.89390137 14.15630859 295.39131836 13.671875 295.90380859 C-21.76608565 333.24922887 -72.70303088 353.97758658 -123.81347656 355.63476562 C-178.51686542 356.62228734 -229.48492668 336.16031387 -268.94628906 298.57226562 C-307.32752795 261.38973366 -329.18462317 210.30921439 -330.19580078 156.8762207 C-330.55109489 103.9937254 -310.84083863 54.0891113 -274.31542969 15.87597656 C-273.37897471 14.89483598 -272.44789801 13.9085319 -271.52246094 12.91699219 C-258.85561913 -0.63420599 -243.89507304 -11.30551181 -227.90332031 -20.60351562 C-226.99598145 -21.13452881 -226.99598145 -21.13452881 -226.0703125 -21.67626953 C-155.3885349 -62.53977145 -61.97993028 -52.21705773 0 0 Z M-225.90332031 25.39648438 C-227.24136719 26.40195313 -227.24136719 26.40195313 -228.60644531 27.42773438 C-247.42535414 42.17471556 -262.02059904 60.18639168 -272.90332031 81.39648438 C-273.38043457 82.31397461 -273.38043457 82.31397461 -273.8671875 83.25 C-289.45731712 113.58314665 -293.1176237 147.93803761 -287.90332031 181.39648438 C-287.74347656 182.63527344 -287.58363281 183.8740625 -287.41894531 185.15039062 C-282.74952561 215.9117704 -266.16174218 244.18562425 -244.90332031 266.39648438 C-243.824375 267.57017578 -243.824375 267.57017578 -242.72363281 268.76757812 C-230.99224756 281.11120739 -217.02587157 290.69891766 -201.90332031 298.39648438 C-201.29311035 298.71311035 -200.68290039 299.02973633 -200.05419922 299.35595703 C-164.88427475 317.43660276 -121.70018321 320.87488652 -83.90332031 309.39648438 C-82.76540039 309.05472168 -82.76540039 309.05472168 -81.60449219 308.70605469 C-56.82127849 301.08587078 -35.59319768 288.3089126 -16.90332031 270.39648438 C-16.03578125 269.59210938 -15.16824219 268.78773438 -14.27441406 267.95898438 C13.19063905 241.70505025 31.29106245 201.66802526 32.40917969 163.66601562 C33.2363563 117.54090636 19.34867373 76.04830454 -12.90332031 42.39648438 C-14.10988281 41.09517578 -14.10988281 41.09517578 -15.34082031 39.76757812 C-27.10092225 27.46497149 -40.81628922 18.14865035 -55.90332031 10.39648438 C-56.94488281 9.85507813 -57.98644531 9.31367187 -59.05957031 8.75585938 C-112.6956771 -17.50924446 -178.54634803 -10.70993648 -225.90332031 25.39648438 Z " fill="#FE4754" transform="translate(384.9033203125,101.603515625)"/>
<path d="M0 0 C6.24163407 3.53300042 9.15049843 8.99635033 12.08984375 15.28515625 C12.77507947 16.70132247 13.46063606 18.11733348 14.14648438 19.53320312 C15.20243845 21.73820422 16.25366983 23.94526262 17.29858398 26.15551758 C18.32072839 28.30912536 19.3604609 30.45354355 20.40234375 32.59765625 C20.70567123 33.25298843 21.00899872 33.90832062 21.32151794 34.58351135 C23.88015178 39.81398991 26.99163828 43.55042398 32.50683594 45.75024414 C33.18004883 45.86489014 33.85326172 45.97953613 34.546875 46.09765625 C35.31708984 46.23574707 36.08730469 46.37383789 36.88085938 46.51611328 C37.68330078 46.6345459 38.48574219 46.75297852 39.3125 46.875 C40.13041016 46.99987793 40.94832031 47.12475586 41.79101562 47.25341797 C44.37895584 47.62846011 46.9698387 47.97176251 49.5625 48.3125 C74.71965779 51.83662319 74.71965779 51.83662319 80.3125 58.875 C82.04111156 61.74239283 82.60742336 63.91043928 82.625 67.25 C82.64175781 67.97960937 82.65851563 68.70921875 82.67578125 69.4609375 C81.6912065 76.00359554 77.50924787 80.06829566 72.96484375 84.4453125 C72.35234268 85.04882538 71.73984161 85.65233826 71.10877991 86.2741394 C69.16292155 88.19012683 67.20742192 90.09583306 65.25 92 C63.28992846 93.91218274 61.332224 95.82657167 59.38050842 97.74728394 C58.16915417 98.93893918 56.95289601 100.12563525 55.73118591 101.30667114 C51.64461862 105.32026869 49.46244072 107.82164514 49.03125 113.7265625 C49.2114464 121.5940659 51.06573341 129.33452111 52.53515625 137.0390625 C55.91268153 155.49000061 55.91268153 155.49000061 52.6875 162.3125 C48.3829438 166.95688959 44.18350067 169.49723675 37.8984375 170.32421875 C31.56669165 170.23599662 26.33729101 166.67413859 20.9375 163.6875 C17.72942023 161.9581445 14.52040845 160.23057665 11.30957031 158.50634766 C9.4183081 157.47690695 7.54029541 156.42237284 5.68261719 155.33349609 C-0.46092327 151.89277361 -5.67792296 150.46383103 -12.6875 151.875 C-17.49390278 153.72844944 -21.94895344 156.11745978 -26.4375 158.625 C-27.62778936 159.26769782 -28.81919286 159.90833664 -30.01171875 160.546875 C-34.63963729 163.04563866 -39.22717541 165.58920667 -43.73828125 168.29296875 C-47.92061432 170.53647192 -51.06837191 170.80199483 -55.6875 169.875 C-60.21151888 167.88443169 -64.20760642 165.25128278 -66.6875 160.875 C-70.66006519 148.95730442 -66.54589945 131.45019836 -62.6875 119.875 C-62.45432953 117.79241624 -62.45432953 117.79241624 -62.4375 115.5625 C-62.39882812 114.45455078 -62.39882812 114.45455078 -62.359375 113.32421875 C-63.2387051 106.76064767 -67.49739953 102.67530178 -72.03515625 98.3046875 C-72.64765732 97.70117462 -73.26015839 97.09766174 -73.89122009 96.4758606 C-75.83707845 94.55987317 -77.79257808 92.65416694 -79.75 90.75 C-81.71007154 88.83781726 -83.667776 86.92342833 -85.61949158 85.00271606 C-86.83084583 83.81106082 -88.04710399 82.62436475 -89.26881409 81.44332886 C-93.54926671 77.239308 -95.96589284 74.20217961 -96.0625 68 C-95.92864318 61.93182435 -93.67036311 58.85786311 -89.4375 54.625 C-81.66303401 49.67761255 -70.69771564 49.65968952 -61.7734375 48.46289062 C-48.30999368 47.14062735 -48.30999368 47.14062735 -37.87631226 39.60560608 C-35.89586735 36.72258568 -34.41681453 33.66572265 -32.9453125 30.5 C-32.26476492 29.0883285 -31.5837613 27.67687677 -30.90234375 26.265625 C-29.85407717 24.0700044 -28.81116351 21.87215437 -27.77685547 19.66992188 C-21.88591546 7.17923146 -15.8571527 -4.8377754 0 0 Z " fill="#FEE179" transform="translate(262.6875,170.125)"/>
<path d="M0 0 C2.32826348 2.32826348 2.75133003 3.94822653 3.75 7.0625 C7.67455733 18.0483959 14.63608738 26.80346906 24.87890625 32.640625 C31.78878047 35.91223892 37.89306078 37.09884491 45.54296875 37.17578125 C46.78240234 37.19962891 48.02183594 37.22347656 49.29882812 37.24804688 C51.8715812 37.29068919 54.44454696 37.32211535 57.01757812 37.34179688 C72.29296142 37.68160106 83.36163429 42.895543 94.02661133 53.70800781 C97.84728543 58.14552959 100.19398234 63.36400105 102.77734375 68.578125 C108.60471287 79.85244151 117.40152251 87.11572404 129.171875 91.87890625 C134.13893915 93.25543759 139.31255051 93.21917685 144.4375 93.3125 C145.12932373 93.33046631 145.82114746 93.34843262 146.53393555 93.36694336 C156.32036508 93.34977218 163.9854032 89.83834451 172 84.5 C184.06815723 76.46166912 195.66759867 74.44091742 210 76 C218.35733157 77.86418926 225.0284919 82.17403159 232.06079102 86.82177734 C243.09699437 94.0726014 254.83367047 94.62441283 267.703125 92.34375 C279.01061277 89.23553061 288.2831134 82.6200596 295 73 C296.53992931 70.22812723 297.955124 67.39731973 299.375 64.5625 C305.93701064 51.61833682 314.62003664 44.34218317 328 39 C331.90570519 38.02513665 335.5752166 37.87629752 339.59375 37.859375 C340.8725 37.84003906 342.15125 37.82070313 343.46875 37.80078125 C346.12582129 37.76273096 348.7797949 37.74873036 351.4375 37.74609375 C365.22935865 37.48404844 376.13278364 33.52836622 386.0859375 24.00390625 C392.71576828 17.09064405 396.28792963 9.1224185 399 0 C399.33 0 399.66 0 400 0 C400.77326969 21.93078759 400.77326969 21.93078759 396 31 C395.5875 31.845625 395.175 32.69125 394.75 33.5625 C388.60717408 45.01049375 379.02366049 51.58764753 367 56 C363.15540831 56.93753502 359.54157817 57.13599773 355.58984375 57.17578125 C353.73262695 57.21155273 353.73262695 57.21155273 351.83789062 57.24804688 C349.26513543 57.29056111 346.69217133 57.32205495 344.11914062 57.34179688 C329.66644177 57.66296796 318.31252784 61.5550016 308.0390625 71.9921875 C304.31213999 76.46112173 301.70673245 81.35529179 299.0625 86.5 C293.74335669 96.80879347 287.52389505 103.7934414 277 109 C275.82244141 109.62068359 275.82244141 109.62068359 274.62109375 110.25390625 C264.62988887 114.74134882 250.59333719 114.9479073 240.1875 111.5625 C235.04032152 109.30808431 230.32264497 106.22830776 225.5390625 103.29931641 C213.55166838 96.01387429 201.78356634 93.93098028 187.92578125 96.58984375 C182.32501702 98.40653409 177.48977568 101.44475637 172.5 104.5 C159.12127624 112.67551733 146.26045059 115.52004643 130.6171875 112.3046875 C127.92447486 111.39177353 125.51356024 110.32488151 123 109 C122.14277344 108.57589844 121.28554687 108.15179688 120.40234375 107.71484375 C109.53593464 101.83092087 104.32805591 93.09103472 98.64282227 82.53320312 C91.98032995 70.26795634 83.79658749 63.15735403 70.41772461 58.82958984 C64.4444826 57.37969511 58.4943137 57.44068714 52.375 57.4375 C36.26446794 57.37912851 24.09065311 54.40924871 12.0703125 43.2265625 C8.61916382 39.51494977 6.23946352 35.5265752 4 31 C3.37931641 29.82244141 3.37931641 29.82244141 2.74609375 28.62109375 C-1.32437724 19.55826809 -0.34236349 9.709809 0 0 Z " fill="#F7B737" transform="translate(56,399)"/>
<path d="M0 0 C0.33 0 0.66 0 1 0 C1.14864502 0.90032959 1.14864502 0.90032959 1.30029297 1.81884766 C6.37404035 31.61660161 15.58398013 60.98763104 33 86 C33.37092773 86.54317871 33.74185547 87.08635742 34.12402344 87.64599609 C38.99060925 94.76156415 44.03611706 101.46280399 49.9296875 107.77734375 C51.79625956 109.78126734 53.55616074 111.83752915 55.3125 113.9375 C83.69047381 146.26765737 127.08733645 166.45757641 169 173 C170.09094971 173.17063965 171.18189941 173.3412793 172.3059082 173.51708984 C181.30603786 174.82788518 190.08532048 175.38805827 199.1875 175.375 C200.21206299 175.37368576 200.21206299 175.37368576 201.25732422 175.37234497 C247.11158501 175.18102074 290.32475649 159.75443256 326 131 C326.91023926 130.27127686 326.91023926 130.27127686 327.83886719 129.52783203 C366.95795998 97.93488958 392.85385967 49.86754764 399 0 C399.33 0 399.66 0 400 0 C400.23919061 9.6074894 399.79052642 18.52935398 398 28 C397.80535156 29.13566406 397.61070312 30.27132813 397.41015625 31.44140625 C388.16673464 82.14348812 358.40964492 128.95945819 315.98046875 158.40136719 C271.50127847 188.70745741 217.98692515 201.55661259 164.66796875 192.31640625 C112.13252163 182.35080899 64.38911684 152.23525674 34.1640625 107.875 C12.939454 76.11232449 -1.33349543 38.57259004 0 0 Z " fill="#FC2D3A" transform="translate(56,262)"/>
<path d="M0 0 C0.33 0 0.66 0 1 0 C1.23074219 1.24652344 1.46148437 2.49304688 1.69921875 3.77734375 C7.56792499 34.74341764 18.12718878 62.87409702 39 87 C39.4861377 87.56444824 39.97227539 88.12889648 40.47314453 88.71044922 C47.05808258 96.27744576 53.97006943 102.94482138 62 109 C63.010625 109.78761719 64.02125 110.57523437 65.0625 111.38671875 C88.69393112 129.37673186 119.76008868 141.94430491 149.6953125 142.23828125 C150.51673737 142.24812042 151.33816223 142.25795959 152.18447876 142.26809692 C177.36996821 142.66174334 177.36996821 142.66174334 202 138 C202.81694336 137.75862305 203.63388672 137.51724609 204.47558594 137.26855469 C247.41497796 124.18430146 282.40513096 96.21315014 303.73046875 56.5703125 C310.33270278 43.68748437 315.26257468 29.94276164 318.24609375 15.7890625 C318.61927734 14.40847656 318.61927734 14.40847656 319 13 C319.66 12.67 320.32 12.34 321 12 C323.82064011 45.45592572 304.49384787 81.20663174 283.62109375 106.05859375 C257.24206686 135.66128711 222.54921853 155.63060255 183 161 C182.04738281 161.13148438 181.09476563 161.26296875 180.11328125 161.3984375 C137.07154551 166.04820165 94.67085131 154.48377884 60.7734375 127.44921875 C27.39710077 100.24593489 5.71786586 62.59307032 0.6015625 19.65625 C-0.02341209 13.1024624 -0.11656643 6.57952727 0 0 Z " fill="#AD1729" transform="translate(95,255)"/>
<path d="M0 0 C2.63667411 1.08940535 5.03705756 2.21313158 7.5390625 3.55078125 C8.61197289 4.1061834 8.61197289 4.1061834 9.70655823 4.67280579 C12.01916187 5.87410285 14.32206281 7.09278992 16.625 8.3125 C18.20570032 9.1386923 19.78683792 9.9640485 21.3684082 10.78857422 C32.66755767 16.69620368 43.89383211 22.73639724 55 29 C55 30.32 55 31.64 55 33 C50.42826557 37.44111344 45.87197781 39.47921448 39.45922852 39.41064453 C34.06376053 38.50970368 29.35732683 35.42996239 24.625 32.8125 C21.41692023 31.0831445 18.20790845 29.35557665 14.99707031 27.63134766 C13.1058081 26.60190695 11.22779541 25.54737284 9.37011719 24.45849609 C3.22657673 21.01777361 -1.99042296 19.58883103 -9 21 C-13.80640278 22.85344944 -18.26145344 25.24245978 -22.75 27.75 C-23.94028936 28.39269782 -25.13169286 29.03333664 -26.32421875 29.671875 C-30.95213729 32.17063866 -35.53967541 34.71420667 -40.05078125 37.41796875 C-44.23731903 39.66372743 -47.37677737 39.91988649 -52 39 C-57.09659937 36.83726914 -60.65349417 34.1329815 -63 29 C-62.01660645 28.59168945 -61.03321289 28.18337891 -60.02001953 27.76269531 C-55.80940034 25.95639076 -51.74935031 23.89810066 -47.6796875 21.796875 C-46.50891159 21.19555756 -46.50891159 21.19555756 -45.31448364 20.58209229 C-43.66838927 19.73602445 -42.02288065 18.8888161 -40.37792969 18.04052734 C-37.90439686 16.76515722 -35.42893264 15.49360372 -32.953125 14.22265625 C-31.34106967 13.3933772 -29.72908967 12.56395171 -28.1171875 11.734375 C-27.33083923 11.33077759 -26.54449097 10.92718018 -25.73431396 10.51135254 C-22.167553 8.67240353 -18.62487258 6.80944352 -15.13378906 4.83007812 C-13.9990918 4.19005859 -12.86439453 3.55003906 -11.6953125 2.890625 C-10.72867676 2.32891602 -9.76204102 1.76720703 -8.76611328 1.18847656 C-5.46293128 -0.23075468 -3.56920281 -0.46125513 0 0 Z " fill="#F8CD57" transform="translate(259,301)"/>
<path d="M0 0 C0.33 0 0.66 0 1 0 C1 10.23 1 20.46 1 31 C0.67 31 0.34 31 0 31 C-0.144375 30.236875 -0.28875 29.47375 -0.4375 28.6875 C-0.9632594 25.91827092 -0.9632594 25.91827092 -2 23 C-1.70537745 21.65758187 -1.36776178 20.32425079 -1 19 C-0.85870882 17.48729395 -0.75537183 15.97071872 -0.68359375 14.453125 C-0.64169922 13.60878906 -0.59980469 12.76445312 -0.55664062 11.89453125 C-0.51732422 11.02183594 -0.47800781 10.14914063 -0.4375 9.25 C-0.39431641 8.36183594 -0.35113281 7.47367188 -0.30664062 6.55859375 C-0.20086385 4.37254037 -0.09877454 2.18637911 0 0 Z " fill="#C01F2F" transform="translate(416,242)"/>
</svg>
