<?xml version="1.0" encoding="UTF-8"?>
<svg version="1.1" xmlns="http://www.w3.org/2000/svg" width="512" height="512">
<path d="M0 0 C3.12117088 1.04039029 5.36159422 1.13959634 8.63671875 1.17578125 C28.21095361 1.53544225 49.68023083 2.67842833 65.01953125 16.66015625 C68.48154343 19.37803999 70.74202297 19.87156698 75.0625 20.5 C94.17500685 23.7369287 111.59261196 33.70373229 123.4609375 49.16015625 C126.3354242 52.37515907 128.76220278 53.64312194 132.6875 55.375 C139.25022022 58.44452113 144.61590789 62.10375808 150 67 C150.85464844 67.7734375 151.70929688 68.546875 152.58984375 69.34375 C159.25190254 75.67521038 164.31439447 82.48002361 168.33984375 90.75390625 C171.08469569 96.34703933 174.11376866 100.35406132 178.8125 104.4375 C192.91534599 116.7072808 202.74075987 133.88911847 204.3125 152.75 C205.14326465 156.67725108 206.78658879 158.51247058 209.25 161.59765625 C220.26461962 176.71817202 222.22201851 193.09947138 222.56787109 211.24926758 C222.78158675 219.61074488 223.93258027 226.20364151 227 234 C230.47114702 248.65768595 229.14807958 265.92031248 224 280 C222.95960971 283.12117088 222.86040366 285.36159422 222.82421875 288.63671875 C222.46455775 308.21095361 221.32157167 329.68023083 207.33984375 345.01953125 C204.62196001 348.48154343 204.12843302 350.74202297 203.5 355.0625 C200.2630713 374.17500685 190.29626771 391.59261196 174.83984375 403.4609375 C171.62484093 406.3354242 170.35687806 408.76220278 168.625 412.6875 C165.55547887 419.25022022 161.89624192 424.61590789 157 430 C156.2265625 430.85464844 155.453125 431.70929688 154.65625 432.58984375 C148.34502656 439.23060892 141.55585705 444.33382722 133.28125 448.3046875 C127.34877561 451.18568799 123.40898857 454.40390897 119.125 459.3125 C106.93037427 473.27584218 89.80079108 482.21827858 71.30078125 484.4453125 C67.99682557 485.00053345 66.85251575 485.44857617 64.4375 487.625 C49.03138165 499.92623845 31.8100462 502.20468724 12.75073242 502.56787109 C4.38925512 502.78158675 -2.20364151 503.93258027 -10 507 C-24.65768595 510.47114702 -41.92031248 509.14807958 -56 504 C-59.12117088 502.95960971 -61.36159422 502.86040366 -64.63671875 502.82421875 C-84.21095361 502.46455775 -105.68023083 501.32157167 -121.01953125 487.33984375 C-124.48154343 484.62196001 -126.74202297 484.12843302 -131.0625 483.5 C-150.13245554 480.27027787 -167.56756298 470.34904583 -179.375 454.890625 C-182.59535791 451.34439754 -185.78073644 449.80833041 -190.0625 447.8125 C-198.39130849 443.66552378 -204.58831844 438.68328078 -211 432 C-211.75925781 431.22527344 -212.51851563 430.45054687 -213.30078125 429.65234375 C-218.43498918 424.17005392 -222.97648564 418.0242381 -225.80078125 411.01171875 C-227.84875469 405.93904607 -231.13131092 402.87494208 -235.1875 399.3125 C-249.16253034 386.99011442 -258.20419437 369.9177889 -260.4453125 351.30078125 C-261.00053345 347.99682557 -261.44857617 346.85251575 -263.625 344.4375 C-275.92623845 329.03138165 -278.20468724 311.8100462 -278.56787109 292.75073242 C-278.78158675 284.38925512 -279.93258027 277.79635849 -283 270 C-286.47114702 255.34231405 -285.14807958 238.07968752 -280 224 C-278.93616436 220.80849309 -278.85959378 218.4636405 -278.82421875 215.109375 C-278.48057368 195.57108006 -277.29161589 174.27793437 -263.33984375 158.9765625 C-260.62021957 155.51687364 -260.12832426 153.2572293 -259.5 148.9375 C-256.2630713 129.82499315 -246.29626771 112.40738804 -230.83984375 100.5390625 C-227.62484093 97.6645758 -226.35687806 95.23779722 -224.625 91.3125 C-221.55547887 84.74977978 -217.89624192 79.38409211 -213 74 C-212.2265625 73.14535156 -211.453125 72.29070312 -210.65625 71.41015625 C-204.32478962 64.74809746 -197.51997639 59.68560553 -189.24609375 55.66015625 C-182.95012969 52.57038726 -178.7399361 48.84624584 -174.19091797 43.6081543 C-162.34370942 30.12677587 -145.10805253 21.68699464 -127.30859375 19.55859375 C-124.00106919 19.00018051 -122.8549136 18.55358479 -120.4375 16.375 C-105.03138165 4.07376155 -87.8100462 1.79531276 -68.75073242 1.43212891 C-60.38925512 1.21841325 -53.79635849 0.06741973 -46 -3 C-31.34231405 -6.47114702 -14.07968752 -5.14807958 0 0 Z " fill="#1A4E56" transform="translate(284,4)"/>
<path d="M0 0 C3.12117088 1.04039029 5.36159422 1.13959634 8.63671875 1.17578125 C28.21095361 1.53544225 49.68023083 2.67842833 65.01953125 16.66015625 C68.48154343 19.37803999 70.74202297 19.87156698 75.0625 20.5 C94.17500685 23.7369287 111.59261196 33.70373229 123.4609375 49.16015625 C126.3354242 52.37515907 128.76220278 53.64312194 132.6875 55.375 C139.25022022 58.44452113 144.61590789 62.10375808 150 67 C150.85464844 67.7734375 151.70929688 68.546875 152.58984375 69.34375 C159.25190254 75.67521038 164.31439447 82.48002361 168.33984375 90.75390625 C171.08469569 96.34703933 174.11376866 100.35406132 178.8125 104.4375 C192.91534599 116.7072808 202.74075987 133.88911847 204.3125 152.75 C205.14326465 156.67725108 206.78658879 158.51247058 209.25 161.59765625 C220.26461962 176.71817202 222.22201851 193.09947138 222.56787109 211.24926758 C222.78158675 219.61074488 223.93258027 226.20364151 227 234 C230.47114702 248.65768595 229.14807958 265.92031248 224 280 C222.95960971 283.12117088 222.86040366 285.36159422 222.82421875 288.63671875 C222.46455775 308.21095361 221.32157167 329.68023083 207.33984375 345.01953125 C204.62196001 348.48154343 204.12843302 350.74202297 203.5 355.0625 C200.2630713 374.17500685 190.29626771 391.59261196 174.83984375 403.4609375 C171.62484093 406.3354242 170.35687806 408.76220278 168.625 412.6875 C165.55547887 419.25022022 161.89624192 424.61590789 157 430 C156.2265625 430.85464844 155.453125 431.70929688 154.65625 432.58984375 C148.34502656 439.23060892 141.55585705 444.33382722 133.28125 448.3046875 C127.34877561 451.18568799 123.40898857 454.40390897 119.125 459.3125 C106.93037427 473.27584218 89.80079108 482.21827858 71.30078125 484.4453125 C67.99682557 485.00053345 66.85251575 485.44857617 64.4375 487.625 C49.03138165 499.92623845 31.8100462 502.20468724 12.75073242 502.56787109 C4.38925512 502.78158675 -2.20364151 503.93258027 -10 507 C-24.65768595 510.47114702 -41.92031248 509.14807958 -56 504 C-59.12117088 502.95960971 -61.36159422 502.86040366 -64.63671875 502.82421875 C-84.21095361 502.46455775 -105.68023083 501.32157167 -121.01953125 487.33984375 C-124.48154343 484.62196001 -126.74202297 484.12843302 -131.0625 483.5 C-150.13245554 480.27027787 -167.56756298 470.34904583 -179.375 454.890625 C-182.59535791 451.34439754 -185.78073644 449.80833041 -190.0625 447.8125 C-198.39130849 443.66552378 -204.58831844 438.68328078 -211 432 C-211.75925781 431.22527344 -212.51851563 430.45054687 -213.30078125 429.65234375 C-218.43498918 424.17005392 -222.97648564 418.0242381 -225.80078125 411.01171875 C-227.84875469 405.93904607 -231.13131092 402.87494208 -235.1875 399.3125 C-249.16253034 386.99011442 -258.20419437 369.9177889 -260.4453125 351.30078125 C-261.00053345 347.99682557 -261.44857617 346.85251575 -263.625 344.4375 C-275.92623845 329.03138165 -278.20468724 311.8100462 -278.56787109 292.75073242 C-278.78158675 284.38925512 -279.93258027 277.79635849 -283 270 C-286.47114702 255.34231405 -285.14807958 238.07968752 -280 224 C-278.93616436 220.80849309 -278.85959378 218.4636405 -278.82421875 215.109375 C-278.48057368 195.57108006 -277.29161589 174.27793437 -263.33984375 158.9765625 C-260.62021957 155.51687364 -260.12832426 153.2572293 -259.5 148.9375 C-256.2630713 129.82499315 -246.29626771 112.40738804 -230.83984375 100.5390625 C-227.62484093 97.6645758 -226.35687806 95.23779722 -224.625 91.3125 C-221.55547887 84.74977978 -217.89624192 79.38409211 -213 74 C-212.2265625 73.14535156 -211.453125 72.29070312 -210.65625 71.41015625 C-204.32478962 64.74809746 -197.51997639 59.68560553 -189.24609375 55.66015625 C-182.95012969 52.57038726 -178.7399361 48.84624584 -174.19091797 43.6081543 C-162.34370942 30.12677587 -145.10805253 21.68699464 -127.30859375 19.55859375 C-124.00106919 19.00018051 -122.8549136 18.55358479 -120.4375 16.375 C-105.03138165 4.07376155 -87.8100462 1.79531276 -68.75073242 1.43212891 C-60.38925512 1.21841325 -53.79635849 0.06741973 -46 -3 C-31.34231405 -6.47114702 -14.07968752 -5.14807958 0 0 Z M-156.66796875 109.859375 C-158.18613908 111.25293839 -159.72972823 112.61946369 -161.30078125 113.953125 C-167.3235562 119.0709234 -172.12147551 124.80130132 -177 131 C-177.65742188 131.77988281 -178.31484375 132.55976563 -178.9921875 133.36328125 C-185.15466899 140.72608544 -190.13112523 148.74874774 -195 157 C-195.36125977 157.60972656 -195.72251953 158.21945313 -196.09472656 158.84765625 C-207.06442885 177.62927259 -214.61659393 199.51701391 -218 221 C-218.18433594 222.06992188 -218.36867188 223.13984375 -218.55859375 224.2421875 C-224.8097883 265.71562994 -216.32261418 308.48917166 -196 345 C-195.4745459 345.94794434 -195.4745459 345.94794434 -194.93847656 346.91503906 C-187.9679665 359.3341958 -179.68005784 370.32034886 -170.01953125 380.79296875 C-168.26095093 382.71482152 -166.59180225 384.67647489 -164.9375 386.6875 C-161.62833409 390.55117479 -157.91148903 393.75887623 -154 397 C-153.50951172 397.41878418 -153.01902344 397.83756836 -152.51367188 398.26904297 C-113.49810835 431.52147723 -63.9622453 447.05624022 -13 444 C37.38883718 439.08820979 85.80744873 415.78100279 118.60888672 376.70703125 C152.26876575 335.40308703 168.42795325 284.44906539 163.5390625 231.16015625 C157.80185319 180.2611615 131.30612209 133.11447406 91.421875 101.1015625 C81.54324508 93.35685682 71.0607066 86.91369346 60 81 C59.05205566 80.49194824 59.05205566 80.49194824 58.08496094 79.97363281 C-11.22869343 43.5868159 -99.7741898 57.2854791 -156.66796875 109.859375 Z " fill="#FEC700" transform="translate(284,4)"/>
<path d="M0 0 C14.62989324 0 14.62989324 0 21.125 1.9375 C22.36507813 2.29714844 23.60515625 2.65679687 24.8828125 3.02734375 C26.92802462 3.66551144 28.96748049 4.3224935 31 5 C32.87695226 5.10378883 34.75701382 5.15501351 36.63671875 5.17578125 C56.21095361 5.53544225 77.68023083 6.67842833 93.01953125 20.66015625 C96.48154343 23.37803999 98.74202297 23.87156698 103.0625 24.5 C122.17500685 27.7369287 139.59261196 37.70373229 151.4609375 53.16015625 C154.3354242 56.37515907 156.76220278 57.64312194 160.6875 59.375 C167.25022022 62.44452113 172.61590789 66.10375808 178 71 C178.85464844 71.7734375 179.70929688 72.546875 180.58984375 73.34375 C187.25190254 79.67521038 192.31439447 86.48002361 196.33984375 94.75390625 C199.08469569 100.34703933 202.11376866 104.35406132 206.8125 108.4375 C220.91534599 120.7072808 230.74075987 137.88911847 232.3125 156.75 C233.14326465 160.67725108 234.78658879 162.51247058 237.25 165.59765625 C248.26461962 180.71817202 250.22201851 197.09947138 250.56787109 215.24926758 C250.78158675 223.61074488 251.93258027 230.20364151 255 238 C258.47114702 252.65768595 257.14807958 269.92031248 252 284 C250.95960971 287.12117088 250.86040366 289.36159422 250.82421875 292.63671875 C250.46455775 312.21095361 249.32157167 333.68023083 235.33984375 349.01953125 C232.62196001 352.48154343 232.12843302 354.74202297 231.5 359.0625 C228.2630713 378.17500685 218.29626771 395.59261196 202.83984375 407.4609375 C199.62484093 410.3354242 198.35687806 412.76220278 196.625 416.6875 C193.55547887 423.25022022 189.89624192 428.61590789 185 434 C184.2265625 434.85464844 183.453125 435.70929688 182.65625 436.58984375 C176.34502656 443.23060892 169.55585705 448.33382722 161.28125 452.3046875 C155.34877561 455.18568799 151.40898857 458.40390897 147.125 463.3125 C134.93037427 477.27584218 117.80079108 486.21827858 99.30078125 488.4453125 C95.99682557 489.00053345 94.85251575 489.44857617 92.4375 491.625 C77.03138165 503.92623845 59.8100462 506.20468724 40.75073242 506.56787109 C32.38925512 506.78158675 25.79635849 507.93258027 18 511 C13 512 13 512 0 512 C0 490.88 0 469.76 0 448 C7.59 447.34 15.18 446.68 23 446 C76.79260186 437.58551479 123.28568101 411.69401284 155.76391602 367.515625 C184.57496749 327.36824621 196.7224264 275.94589888 189.47827148 227.07348633 C181.03032989 176.07398439 153.19650937 130.51456129 111.4140625 100.05859375 C103.95960155 94.78547641 96.04508072 90.30136545 88 86 C87.36803711 85.66129883 86.73607422 85.32259766 86.08496094 84.97363281 C67.4597068 75.19614065 45.91470324 68.77525361 25.0625 66.375 C23.59006836 66.19324219 23.59006836 66.19324219 22.08789062 66.0078125 C14.72457195 65.1228676 7.4083978 64.56987675 0 64 C0 42.88 0 21.76 0 0 Z " fill="#FEA400" transform="translate(256,0)"/>
<path d="M0 0 C27.26771654 0 27.26771654 0 40 3 C40.73605469 3.16628906 41.47210938 3.33257812 42.23046875 3.50390625 C90.70439688 14.61422933 134.50334221 44.2400679 161.47509766 86.30029297 C175.63309119 109.25520877 185.39515798 133.37356669 190 160 C190.22558594 161.25167969 190.45117188 162.50335938 190.68359375 163.79296875 C198.27138081 213.45372679 184.06041191 264.79714755 154.6875 305 C144.1151984 318.82531748 132.74821317 331.2722276 119 342 C118.44957031 342.4321582 117.89914062 342.86431641 117.33203125 343.30957031 C83.74650565 369.4798647 42.41054852 383 0 383 C0 351.32 0 319.64 0 287 C41 286.75 41 286.75 53.91015625 286.70214844 C57.7540536 286.66889786 57.7540536 286.66889786 61.59790039 286.63043213 C63.30000246 286.61588965 65.00218161 286.60904935 66.7043457 286.60845947 C69.29429254 286.60602732 71.88293687 286.57857924 74.47265625 286.54589844 C75.59584007 286.55343454 75.59584007 286.55343454 76.74171448 286.56112289 C82.05988446 286.4566535 86.72216626 285.29845092 91 282 C93.39690989 278.61930455 94.61123787 275.43947899 95.62030029 271.44132996 C95.90353653 270.33534958 96.18677277 269.2293692 96.47859192 268.08987427 C96.77795151 266.88612152 97.0773111 265.68236877 97.38574219 264.44213867 C97.87161049 262.52911201 97.87161049 262.52911201 98.36729431 260.57743835 C99.25306085 257.08754011 100.12825405 253.59507346 101.00077343 250.10184264 C101.7310865 247.18130234 102.46612815 244.26196017 103.20102334 241.34257013 C104.93525036 234.45223784 106.66045165 227.55968774 108.38037109 220.66577148 C110.15216357 213.56472332 111.94042081 206.46796487 113.73664165 199.37306041 C115.2805959 193.27180691 116.81357658 187.16786589 118.33801198 181.06170636 C119.24756773 177.41910154 120.16133487 173.77768762 121.08596039 170.13887596 C122.11718189 166.0784646 123.12549153 162.01269332 124.13183594 157.94604492 C124.43929245 156.74836487 124.74674896 155.55068481 125.06352234 154.31671143 C126.96168305 146.53832586 128.10636612 139.34823412 124 132 C118.75096582 128.61352634 113.06184408 128.19272859 107 129 C102.67701527 130.50997468 98.69997264 132.56544088 94.6484375 134.6875 C93.50839264 135.26459717 92.36834778 135.84169434 91.1937561 136.4362793 C88.19079397 137.96088346 85.19774627 139.50218101 82.20812988 141.0526123 C79.1449382 142.6357135 76.07003582 144.19571961 72.99609375 145.7578125 C66.98647749 148.8175581 60.98888259 151.89988607 55 155 C51.701312 151.81306884 49.33496948 148.54893515 47.05078125 144.59375 C46.68060883 143.96460693 46.3104364 143.33546387 45.92904663 142.68725586 C45.13283964 141.33281639 44.33930192 139.9768049 43.54818726 138.61938477 C41.87291712 135.74605092 40.18336621 132.88121693 38.49427795 130.01599121 C37.62448136 128.54051768 36.75529502 127.06468424 35.88670349 125.58850098 C31.89018628 118.79934188 27.85129352 112.03650884 23.77304077 105.29614258 C23.05825059 104.11344626 22.34517159 102.92971378 21.63394165 101.74487305 C19.46640114 98.13456359 17.25624031 94.555517 15 91 C14.26064209 89.80697266 14.26064209 89.80697266 13.50634766 88.58984375 C9.47532196 82.58683531 7.40289564 82.29017584 0 79 C0 52.93 0 26.86 0 0 Z " fill="#00353F" transform="translate(256,65)"/>
<path d="M0 0 C7.68299211 4.90557243 11.46683236 12.91267406 15.875 20.625 C17.12342707 22.77470125 18.37650433 24.92165124 19.62954712 27.06866455 C20.48328876 28.53256566 21.33547347 29.99737583 22.18612671 31.46307373 C26.48608516 38.86765123 30.91833643 46.18902693 35.375 53.5 C36.07678152 54.65438586 36.77844511 55.80884343 37.47998047 56.96337891 C40.94998853 62.66575598 44.44737524 68.34872045 48 74 C50.46129926 72.86026908 52.9190381 71.71366024 55.375 70.5625 C56.18702881 70.18359619 56.99905762 69.80469238 57.83569336 69.41430664 C63.78523906 66.60618099 69.64330133 63.64944959 75.48046875 60.6171875 C77.75023203 59.44803421 80.02079322 58.28044403 82.29156494 57.11325073 C83.79662419 56.33402347 85.29796663 55.54757181 86.79534912 54.75369263 C102.84004412 46.25337061 102.84004412 46.25337061 111 48 C116.31395208 49.81687318 118.86016339 52.59958187 121.46875 57.51171875 C123.12352973 65.26241497 119.89019028 74.1802623 118.01245117 81.67651367 C117.70661606 82.91664719 117.40078094 84.1567807 117.0856781 85.43449402 C116.25233836 88.81171817 115.41151218 92.18703334 114.56860137 95.56187987 C114.04143482 97.67411487 113.5159488 99.78676067 112.99105263 101.89956093 C111.15743959 109.28015189 109.31781178 116.65921272 107.47241211 124.03686523 C105.75584028 130.90014411 104.05244608 137.76660217 102.35514086 144.63466853 C100.89342294 150.54698319 99.42261102 156.4569867 97.94473821 162.36528379 C97.06389009 165.88740432 96.18668186 169.41033203 95.3186245 172.93562889 C94.35082984 176.86434831 93.36416635 180.78809233 92.37573242 184.71166992 C91.9508252 186.45344513 91.9508252 186.45344513 91.51733398 188.23040771 C88.39583689 200.47686489 88.39583689 200.47686489 82.81140232 204.62614632 C79.31374413 206.33535405 76.80510581 206.38555483 72.91604614 206.40113831 C72.21434197 206.40793498 71.5126378 206.41473164 70.78966987 206.42173427 C68.44442636 206.44068574 66.09970601 206.43827088 63.75439453 206.43579102 C62.0704481 206.44476983 60.38650784 206.45497836 58.70257568 206.46632385 C54.13226653 206.49281499 49.56212589 206.49985692 44.99174738 206.50177121 C42.13543987 206.50390429 39.27917515 206.51031017 36.42287827 206.51826286 C26.45555655 206.54601299 16.48835516 206.55826875 6.52099609 206.5559082 C-2.766028 206.55410578 -12.05252935 206.58576459 -21.33942115 206.63313919 C-29.3166604 206.67238097 -37.2937289 206.68845928 -45.27106392 206.68654197 C-50.03390198 206.68577748 -54.79627538 206.69430493 -59.55901718 206.72607613 C-64.03919166 206.75514689 -68.51845815 206.75534003 -72.99866486 206.73352623 C-74.64055077 206.730392 -76.28249348 206.73745843 -77.92428207 206.7556076 C-91.85488324 206.89959982 -91.85488324 206.89959982 -96.34402466 203.45445251 C-99.41255495 200.03730862 -100.82806126 196.3875965 -102 192 C-102.36859414 190.68126924 -102.36859414 190.68126924 -102.74463463 189.33589745 C-103.5947215 186.19347018 -104.39480066 183.04123407 -105.1862793 179.88354492 C-105.48907806 178.69060318 -105.79187683 177.49766144 -106.10385132 176.26856995 C-106.92766685 173.01726938 -107.74720896 169.76496042 -108.56398368 166.51188827 C-109.07585707 164.47394606 -109.5888849 162.43629784 -110.10227394 160.39873695 C-111.89704042 153.27453067 -113.68620588 146.14894077 -115.47094727 139.0222168 C-117.12849248 132.40414015 -118.79930173 125.78950698 -120.47611111 119.17628783 C-121.92062847 113.47639341 -123.35506765 107.77402173 -124.7819894 102.0696972 C-125.63201657 98.67246309 -126.48607825 95.27637465 -127.35062218 91.88280296 C-128.31556973 88.09366259 -129.25955662 84.29946593 -130.2019043 80.50463867 C-130.48706406 79.39726349 -130.77222382 78.28988831 -131.06602478 77.1489563 C-135.11073811 60.64050727 -135.11073811 60.64050727 -131.70000744 54.75783062 C-128.26669387 50.44766941 -125.01978702 48.25247338 -119.5 47.5625 C-110.03688764 47.87504316 -101.22035721 53.8630888 -93.08154297 58.26367188 C-83.98661615 63.15025792 -74.63340282 67.50715725 -65.2956543 71.90600586 C-63.18374885 72.91243448 -61.08849566 73.94599565 -59 75 C-58.60760132 73.94341187 -58.60760132 73.94341187 -58.20727539 72.86547852 C-56.91227592 69.79178613 -55.37278064 67.02834092 -53.68359375 64.15234375 C-53.35507416 63.59138504 -53.02655457 63.03042633 -52.68807983 62.45246887 C-51.60836685 60.61187365 -50.523236 58.77454787 -49.4375 56.9375 C-48.67989121 55.65073995 -47.92232347 54.36395573 -47.16479492 53.07714844 C-41.77240868 43.93297453 -36.31396346 34.82891197 -30.8125 25.75 C-30.28594315 24.87950516 -30.28594315 24.87950516 -29.74874878 23.99142456 C-13.34713388 -3.09546995 -13.34713388 -3.09546995 0 0 Z " fill="#FEC700" transform="translate(262,145)"/>
<path d="M0 0 C0 67.98 0 135.96 0 206 C-86 206 -86 206 -93 200 C-94.34672882 197.19730277 -95.21198146 194.95024584 -96 192 C-96.36859414 190.68126924 -96.36859414 190.68126924 -96.74463463 189.33589745 C-97.5947215 186.19347018 -98.39480066 183.04123407 -99.1862793 179.88354492 C-99.48907806 178.69060318 -99.79187683 177.49766144 -100.10385132 176.26856995 C-100.92766685 173.01726938 -101.74720896 169.76496042 -102.56398368 166.51188827 C-103.07585707 164.47394606 -103.5888849 162.43629784 -104.10227394 160.39873695 C-105.89704042 153.27453067 -107.68620588 146.14894077 -109.47094727 139.0222168 C-111.12849248 132.40414015 -112.79930173 125.78950698 -114.47611111 119.17628783 C-115.92062847 113.47639341 -117.35506765 107.77402173 -118.7819894 102.0696972 C-119.63201657 98.67246309 -120.48607825 95.27637465 -121.35062218 91.88280296 C-122.31556973 88.09366259 -123.25955662 84.29946593 -124.2019043 80.50463867 C-124.48706406 79.39726349 -124.77222382 78.28988831 -125.06602478 77.1489563 C-129.11073811 60.64050727 -129.11073811 60.64050727 -125.70000744 54.75783062 C-122.26669387 50.44766941 -119.01978702 48.25247338 -113.5 47.5625 C-104.03688764 47.87504316 -95.22035721 53.8630888 -87.08154297 58.26367188 C-77.98661615 63.15025792 -68.63340282 67.50715725 -59.2956543 71.90600586 C-57.18374885 72.91243448 -55.08849566 73.94599565 -53 75 C-52.60760132 73.94341187 -52.60760132 73.94341187 -52.20727539 72.86547852 C-50.91227592 69.79178613 -49.37278064 67.02834092 -47.68359375 64.15234375 C-47.35507416 63.59138504 -47.02655457 63.03042633 -46.68807983 62.45246887 C-45.60836685 60.61187365 -44.523236 58.77454787 -43.4375 56.9375 C-42.67989121 55.65073995 -41.92232347 54.36395573 -41.16479492 53.07714844 C-35.77240868 43.93297453 -30.31396346 34.82891197 -24.8125 25.75 C-24.28594315 24.87950516 -24.28594315 24.87950516 -23.74874878 23.99142456 C-9.22149811 0 -9.22149811 0 0 0 Z " fill="#FEE56E" transform="translate(256,145)"/>
</svg>
