<?xml version="1.0" encoding="UTF-8"?>
<svg version="1.1" xmlns="http://www.w3.org/2000/svg" width="512" height="512">
<path d="M0 0 C1.01790619 0.00215515 2.03581238 0.0043103 3.08456421 0.00653076 C17.68763423 0.05618106 32.03429136 0.2859388 46.375 3.3125 C47.37644043 3.52181152 48.37788086 3.73112305 49.40966797 3.94677734 C58.25294668 5.84666374 67.07866202 7.8291088 75.6484375 10.74804688 C86.45197479 14.40506833 96.83452446 16.56752452 108.1569519 17.87185669 C112.93481159 18.42670318 117.7036679 19.049808 122.47265625 19.67578125 C123.45222794 19.80405807 124.43179962 19.9323349 125.4410553 20.0644989 C136.12692909 21.49607642 146.71838146 23.38505056 157.3125 25.375 C158.17504395 25.53490417 159.03758789 25.69480835 159.92626953 25.85955811 C172.84547392 28.26410322 185.61645285 31.16916347 198.375 34.3125 C200.15281033 40.33460732 201.34061655 46.24390807 202.3125 52.4375 C202.48942383 53.539729 202.66634766 54.64195801 202.84863281 55.77758789 C203.90610533 62.80901244 204.59626461 69.76967105 205.01953125 76.86328125 C205.0716124 77.68076843 205.12369354 78.49825562 205.17735291 79.34051514 C205.43372467 83.39548302 205.65254098 87.44627253 205.80834961 91.50634766 C206.33596859 101.71631615 208.46284575 107.43933824 215.375 115.3125 C218.66939157 120.11607746 221.4872105 125.25638746 224.375 130.3125 C224.92607422 131.26672852 224.92607422 131.26672852 225.48828125 132.24023438 C247.08900446 169.98425425 256.85195594 212.74846762 256.6875 255.9375 C256.68534485 256.95540619 256.6831897 257.97331238 256.68096924 259.02206421 C256.63129854 273.63113523 256.38040191 287.96325853 253.375 302.3125 C253.07698486 303.77478027 253.07698486 303.77478027 252.77294922 305.26660156 C242.65232806 353.6484774 220.7358123 397.63678269 186.375 433.3125 C185.74287598 433.97185547 185.11075195 434.63121094 184.45947266 435.31054688 C175.31502521 444.79880305 166.01765991 453.5387044 155.375 461.3125 C154.22394983 462.17056152 153.07290823 463.02863451 151.921875 463.88671875 C143.73224019 469.92427396 135.22961724 475.30707302 126.375 480.3125 C125.66778809 480.7146875 124.96057617 481.116875 124.23193359 481.53125 C101.09654164 494.5566741 75.92537591 503.30551461 49.9375 508.625 C49.21860596 508.77235596 48.49971191 508.91971191 47.7590332 509.0715332 C33.08339502 511.86090125 18.55831162 512.66142619 3.64770508 512.62817383 C0.70811513 512.6250221 -2.2304558 512.64854926 -5.16992188 512.67382812 C-18.54306192 512.71848737 -31.43916711 511.51301542 -44.625 509.3125 C-46.33055054 509.03031616 -46.33055054 509.03031616 -48.07055664 508.74243164 C-91.33802759 500.97044532 -132.38793216 480.98345309 -165.625 452.3125 C-166.37007813 451.67828125 -167.11515625 451.0440625 -167.8828125 450.390625 C-181.38779833 438.57948485 -194.05918743 425.82889772 -204.625 411.3125 C-205.48149066 410.16255169 -206.33826433 409.01281411 -207.1953125 407.86328125 C-213.23534209 399.67315742 -218.61867614 391.16870382 -223.625 382.3125 C-224.0271875 381.60528809 -224.429375 380.89807617 -224.84375 380.16943359 C-237.8691741 357.03404164 -246.61801461 331.86287591 -251.9375 305.875 C-252.08485596 305.15610596 -252.23221191 304.43721191 -252.3840332 303.6965332 C-255.35789088 288.05024391 -255.99800362 272.57681954 -255.9375 256.6875 C-255.93534485 255.66959381 -255.9331897 254.65168762 -255.93096924 253.60293579 C-255.88129854 238.99386477 -255.63040191 224.66174147 -252.625 210.3125 C-252.42632324 209.33764648 -252.22764648 208.36279297 -252.02294922 207.35839844 C-244.96069784 173.59713379 -231.8626545 129.5501545 -206.625 104.3125 C-206.38169024 101.9528942 -206.19701496 99.61218417 -206.046875 97.24609375 C-205.9399899 95.7267515 -205.83228724 94.2074666 -205.72387695 92.68823242 C-205.66736969 91.88259857 -205.61086243 91.07696472 -205.55264282 90.24691772 C-204.23582613 71.73796303 -201.82332836 53.58567931 -198.625 35.3125 C-189.94764504 32.08720006 -180.98468304 30.33508538 -171.9375 28.5 C-171.09018311 28.32675201 -170.24286621 28.15350403 -169.36987305 27.9750061 C-156.50081031 25.35404786 -143.59970077 23.03284885 -130.625 21 C-129.82546906 20.87456818 -129.02593811 20.74913635 -128.20217896 20.61990356 C-119.85982194 19.32096323 -111.5276098 18.15419602 -103.13305664 17.24194336 C-92.75841458 16.09675626 -83.32600108 13.59719673 -73.40356445 10.36914062 C-66.0194404 7.9836447 -58.66133085 6.01296441 -51.0625 4.4375 C-49.71007202 4.15156982 -49.71007202 4.15156982 -48.33032227 3.85986328 C-32.23090181 0.65361662 -16.37428547 -0.06235029 0 0 Z " fill="#FEB52D" transform="translate(255.625,-0.3125)"/>
<path d="M0 0 C0.33 0 0.66 0 1 0 C1.01401855 1.42034546 1.01401855 1.42034546 1.02832031 2.86938477 C1.44688461 39.38009277 4.33706302 75.19695347 12.65917969 110.82177734 C13.81724848 115.97877214 13.93643896 119.73181272 13 125 C12.81760418 128.77072483 12.81494945 132.53789677 12.8125 136.3125 C12.79413086 137.78493164 12.79413086 137.78493164 12.77539062 139.28710938 C12.75883245 147.62690963 13.64301178 155.53941768 17 163.25 C17.34546875 164.08144531 17.6909375 164.91289062 18.046875 165.76953125 C18.36140625 166.50558594 18.6759375 167.24164063 19 168 C21.40912641 173.66144707 21.19387886 178.94667124 21 185 C20.05125 184.175 19.1025 183.35 18.125 182.5 C16.75082371 181.33236323 15.37573819 180.1657961 14 179 C12.87658203 178.02546875 12.87658203 178.02546875 11.73046875 177.03125 C3.58687127 170.19010188 -5.1205526 164.41844028 -16 164 C-15.6285402 184.32898189 -6.5534171 201.12877046 7.4140625 215.48046875 C13.71526602 221.45160923 20.7220227 226.28143081 29.03515625 228.98828125 C33.6854455 232.14361586 34.80069478 236.66454996 36.6875 241.8125 C37.43953016 243.77806258 38.19338815 245.74292695 38.94921875 247.70703125 C39.47008057 249.08882568 39.47008057 249.08882568 40.00146484 250.49853516 C40.84370436 252.60845841 41.76148558 254.57461189 42.83203125 256.57421875 C43.21746094 257.37472656 43.60289063 258.17523438 44 259 C43.67 259.66 43.34 260.32 43 261 C42.11699219 260.52949219 41.23398438 260.05898438 40.32421875 259.57421875 C28.43523293 253.35236615 18.62353251 250.41520608 5 251 C7.60562533 266.89431451 17.17543893 277.74350236 29.9296875 286.93359375 C40.11094097 293.78586231 51.4196142 300.33706961 63.9375 299.875 C69.78861965 300.09555218 72.3918527 301.69609058 76.30493164 305.76660156 C78.68146856 308.44849987 80.98529842 311.18340051 83.26220703 313.95019531 C86.00265997 317.18268237 88.98508138 320.15059394 92 323.125 C92.51570557 323.64416992 93.03141113 324.16333984 93.56274414 324.69824219 C96.07217913 327.20318364 98.62955343 329.55914367 101.375 331.8046875 C102.24125 332.52914063 103.1075 333.25359375 104 334 C104 334.33 104 334.66 104 335 C103.30551758 335.0093457 102.61103516 335.01869141 101.89550781 335.02832031 C82.05159508 334.83098051 82.05159508 334.83098051 64 342 C65.51560599 348.25187471 70.42497685 351.81099859 75.68261719 355.03027344 C92.8986335 364.90322497 113.49010051 369.86242554 133.21875 365.12890625 C136.21644373 364.20731798 139.09152814 363.16619886 142 362 C144.41846416 361.14051987 145.60448417 360.87678072 148.08374023 361.64916992 C148.81794189 362.00599854 149.55214355 362.36282715 150.30859375 362.73046875 C151.13254639 363.11968506 151.95649902 363.50890137 152.80541992 363.90991211 C153.67400635 364.33151611 154.54259277 364.75312012 155.4375 365.1875 C162.47001171 368.49875517 169.23303985 371.26586944 176.76171875 373.24609375 C179 374 179 374 180 376 C179.28972656 376.06058594 178.57945312 376.12117188 177.84765625 376.18359375 C176.46900391 376.30927734 176.46900391 376.30927734 175.0625 376.4375 C174.14597656 376.51871094 173.22945312 376.59992188 172.28515625 376.68359375 C170.03840268 376.76044976 170.03840268 376.76044976 169 378 C168.83333333 381 168.83333333 381 169 384 C169.33 384.33 169.66 384.66 170 385 C172.88955941 384.96062445 175.74189166 384.85303997 178.625 384.6875 C179.48150146 384.64189941 180.33800293 384.59629883 181.22045898 384.54931641 C186.5574833 384.23487784 191.77667109 383.67030896 197.0625 382.875 C203.04811512 382.02263823 208.05625566 382.13386613 214 383 C217.16410008 383.37831631 220.33149644 383.72324608 223.5 384.0625 C224.32910889 384.15152588 225.15821777 384.24055176 226.01245117 384.33227539 C235.74446223 385.81078376 235.74446223 385.81078376 245 384 C245 382.02 245 380.04 245 378 C242.70370006 376.85185003 240.92301914 376.69230191 238.375 376.4375 C237.55773437 376.35371094 236.74046875 376.26992188 235.8984375 376.18359375 C235.27195312 376.12300781 234.64546875 376.06242187 234 376 C236.16626467 373.83373533 237.55875851 373.27234279 240.40234375 372.23046875 C241.28760742 371.90087158 242.17287109 371.57127441 243.08496094 371.23168945 C244.02629883 370.88710693 244.96763672 370.54252441 245.9375 370.1875 C251.89140293 367.99620267 257.63261553 365.7859367 263.25 362.8125 C266.91270658 361.0766201 268.82012519 360.78424458 272.6875 362.0625 C273.65236328 362.51302734 273.65236328 362.51302734 274.63671875 362.97265625 C281.37496299 365.90184341 287.87996738 366.35893401 295.125 366.3125 C296.05006348 366.30686035 296.97512695 366.3012207 297.92822266 366.29541016 C315.12842972 365.99312707 334.19172902 360.73457823 346.71875 348.29296875 C349.26648775 345.53414235 349.26648775 345.53414235 350 342 C348.27398621 341.18082358 346.5440353 340.36993984 344.8125 339.5625 C343.84957031 339.11003906 342.88664062 338.65757812 341.89453125 338.19140625 C337.37360641 336.33056674 333.12325643 335.86557644 328.26171875 335.68359375 C327.19501953 335.64169922 326.12832031 335.59980469 325.02929688 335.55664062 C323.37510742 335.49766602 323.37510742 335.49766602 321.6875 335.4375 C320.56537109 335.39431641 319.44324219 335.35113281 318.28710938 335.30664062 C315.52485431 335.20085213 312.7625137 335.09876328 310 335 C312.87713983 331.04393273 316.15810215 328.04391072 319.84619141 324.88720703 C323.45026442 321.72925142 326.81013382 318.33425776 330.1875 314.9375 C330.87263672 314.25623047 331.55777344 313.57496094 332.26367188 312.87304688 C335.24649577 309.88448126 338.04323655 306.99348587 340.51953125 303.5703125 C343.80329386 300.16761046 345.83933365 300.18979985 350.5 299.9375 C358.32745956 299.28842421 364.83983183 297.32469547 372 294 C372.92167969 293.57976562 373.84335937 293.15953125 374.79296875 292.7265625 C391.3425989 284.46368799 402.75524274 271.36739357 409 254 C409.33 253.01 409.66 252.02 410 251 C394.93794421 250.03859218 383.27360868 253.6604752 370 261 C371.66344545 255.69076479 373.7690447 250.61675875 375.9375 245.5 C376.28490234 244.67113281 376.63230469 243.84226562 376.99023438 242.98828125 C377.97672047 240.65118237 378.9837604 238.32428887 380 236 C380.74443359 234.28103516 380.74443359 234.28103516 381.50390625 232.52734375 C383.16920902 229.71415605 383.96665792 229.09405935 387 228.0625 C405.74029641 220.63939558 418.01153323 205.02757797 425.8515625 186.921875 C428.80215658 179.41492136 429.49251192 172.01296974 430 164 C417.11037753 165.83745682 408.7209786 171.58732212 399 180 C397.77312077 181.02358133 396.5444632 182.04504333 395.3125 183.0625 C394.1678125 184.0215625 394.1678125 184.0215625 393 185 C392.9190277 182.56183415 392.85953028 180.12635616 392.8125 177.6875 C392.77479492 176.65206055 392.77479492 176.65206055 392.73632812 175.59570312 C392.66100682 170.39853306 392.66100682 170.39853306 394.37890625 168.37890625 C395.18134766 167.69634766 395.18134766 167.69634766 396 167 C397.19482277 164.29222986 397.19482277 164.29222986 398.125 161.25 C398.45757812 160.24453125 398.79015625 159.2390625 399.1328125 158.203125 C401.07391957 151.03327007 401.15370417 144.05968791 401.125 136.6875 C401.12886719 135.70587891 401.13273437 134.72425781 401.13671875 133.71289062 C401.13053677 129.04240637 400.97936075 124.53282757 400.35546875 119.90234375 C399.76457879 114.54660638 400.82100294 110.03864482 402.1875 104.875 C402.66266586 102.91920408 403.13255072 100.96211899 403.59765625 99.00390625 C403.83500488 98.00633301 404.07235352 97.00875977 404.31689453 95.98095703 C411.50255237 64.62395839 412.44816705 32.03984772 413 0 C415.92958527 2.83401189 418.57143284 5.53450148 420.76171875 8.9765625 C421.47255615 10.0905542 421.47255615 10.0905542 422.19775391 11.22705078 C422.68937012 12.01837402 423.18098633 12.80969727 423.6875 13.625 C424.21005371 14.46401855 424.73260742 15.30303711 425.27099609 16.16748047 C450.63512579 57.39863329 463.49634202 103.34484152 463.3125 151.625 C463.31034485 152.64290619 463.3081897 153.66081238 463.30596924 154.70956421 C463.25629854 169.31863523 463.00540191 183.65075853 460 198 C459.70198486 199.46228027 459.70198486 199.46228027 459.39794922 200.95410156 C449.27732806 249.3359774 427.3608123 293.32428269 393 329 C392.36787598 329.65935547 391.73575195 330.31871094 391.08447266 330.99804688 C381.94002521 340.48630305 372.64265991 349.2262044 362 357 C360.84894983 357.85806152 359.69790823 358.71613451 358.546875 359.57421875 C350.35724019 365.61177396 341.85461724 370.99457302 333 376 C332.29278809 376.4021875 331.58557617 376.804375 330.85693359 377.21875 C307.72154164 390.2441741 282.55037591 398.99301461 256.5625 404.3125 C255.84360596 404.45985596 255.12471191 404.60721191 254.3840332 404.7590332 C239.70839502 407.54840125 225.18331162 408.34892619 210.27270508 408.31567383 C207.33311513 408.3125221 204.3945442 408.33604926 201.45507812 408.36132812 C188.08193808 408.40598737 175.18583289 407.20051542 162 405 C160.29444946 404.71781616 160.29444946 404.71781616 158.55444336 404.42993164 C115.28697241 396.65794532 74.23706784 376.67095309 41 348 C40.25492187 347.36578125 39.50984375 346.7315625 38.7421875 346.078125 C25.23720167 334.26698485 12.56581257 321.51639772 2 307 C1.14350934 305.85005169 0.28673567 304.70031411 -0.5703125 303.55078125 C-6.61034209 295.36065742 -11.99367614 286.85620382 -17 278 C-17.4021875 277.29278809 -17.804375 276.58557617 -18.21875 275.85693359 C-31.2441741 252.72154164 -39.99301461 227.55037591 -45.3125 201.5625 C-45.45985596 200.84360596 -45.60721191 200.12471191 -45.7590332 199.3840332 C-48.73289088 183.73774391 -49.37300362 168.26431954 -49.3125 152.375 C-49.31034485 151.35709381 -49.3081897 150.33918762 -49.30596924 149.29043579 C-49.25629854 134.68136477 -49.00540191 120.34924147 -46 106 C-45.80132324 105.02514648 -45.60264648 104.05029297 -45.39794922 103.04589844 C-38.33569784 69.28463379 -25.2376545 25.2376545 0 0 Z " fill="#514899" transform="translate(49,104)"/>
<path d="M0 0 C-0.99934624 3.66684519 -1.99949841 7.33346989 -3 11 C-3.33064453 12.21284668 -3.33064453 12.21284668 -3.66796875 13.45019531 C-4.27594223 15.67588168 -4.88758025 17.90053342 -5.5 20.125 C-5.79970703 21.22521484 -5.79970703 21.22521484 -6.10546875 22.34765625 C-6.51225785 23.82194288 -6.93426873 25.29211897 -7.37182617 26.75756836 C-8.0405427 29.0209601 -8.0405427 29.0209601 -8.46606445 31.46313477 C-9.04001107 33.97639813 -9.59235222 35.83543633 -11 38 C-14.25123149 39.71927422 -17.57493907 40.1609582 -21.1875 40.6875 C-23.19558409 41.06330093 -25.20211639 41.44748616 -27.20703125 41.83984375 C-28.68937256 42.12190674 -28.68937256 42.12190674 -30.20166016 42.40966797 C-53.24476213 47.27079348 -76.15972344 62.93409966 -91 81 C-91.81174683 82.29466187 -91.81174683 82.29466187 -92.63989258 83.61547852 C-98.0142431 92.0494805 -103.62062209 94.7627504 -112.9375 97.9375 C-115.38897901 98.80803557 -117.8359195 99.69149574 -120.27734375 100.58984375 C-121.35234131 100.95972412 -122.42733887 101.32960449 -123.53491211 101.71069336 C-126.14409289 102.74295889 -126.14409289 102.74295889 -126.85766602 105.02563477 C-127.02396813 107.00255566 -127.02396813 107.00255566 -127 109 C-126.41992188 109.18175781 -125.83984375 109.36351562 -125.2421875 109.55078125 C-124.46101563 109.80214844 -123.67984375 110.05351562 -122.875 110.3125 C-122.10929687 110.55613281 -121.34359375 110.79976563 -120.5546875 111.05078125 C-117.61059153 112.14468847 -114.80917555 113.59541222 -112 115 C-112 140.08 -112 165.16 -112 191 C-113.65 191.66 -115.3 192.32 -117 193 C-119.33141409 196.88569015 -119.32361862 200.55024402 -119 205 C-118.65066406 205.6091626 -118.30132812 206.2183252 -117.94140625 206.84594727 C-116.64450924 209.81340637 -117.13205176 211.73092139 -117.6875 214.90234375 C-117.88859375 216.05589355 -118.0896875 217.20944336 -118.296875 218.39794922 C-119.4190297 224.14665423 -120.67896115 229.85652775 -122 235.5625 C-122.52406752 237.83389163 -123.04492637 240.10602608 -123.5625 242.37890625 C-123.79066406 243.3644751 -124.01882812 244.35004395 -124.25390625 245.36547852 C-125.31791291 250.5486811 -126.13011807 255.78070842 -127 261 C-114.46 261 -101.92 261 -89 261 C-89.99 256.38 -90.98 251.76 -92 247 C-91.67 245.68 -91.34 244.36 -91 243 C-90.15179688 243.89460937 -89.30359375 244.78921875 -88.4296875 245.7109375 C-77.82703227 256.710353 -64.79518827 269.06827058 -50 274 C-50 275.32 -50 276.64 -50 278 C-49.4121875 278.27714844 -48.824375 278.55429687 -48.21875 278.83984375 C-41.77368314 282.20988752 -38.34646107 286.31680537 -35.921875 293.14453125 C-35.61765625 293.75683594 -35.3134375 294.36914062 -35 295 C-34.01 295.33 -33.02 295.66 -32 296 C-31.71511719 295.41863281 -31.43023437 294.83726562 -31.13671875 294.23828125 C-30.57404297 293.13033203 -30.57404297 293.13033203 -30 292 C-29.51466797 291.03126953 -29.51466797 291.03126953 -29.01953125 290.04296875 C-27.52545811 287.74625437 -26.34497456 286.45045664 -24 285 C-19.66225181 284.63350677 -15.53251723 285.17318169 -11.22802734 285.74169922 C-7.18605017 286.21029574 -3.12515468 286.3655815 0.9375 286.5625 C2.48832872 286.646261 4.03911465 286.73082068 5.58984375 286.81640625 C6.71519531 286.87699219 7.84054687 286.93757813 9 287 C9.44988281 288.05574219 9.89976562 289.11148437 10.36328125 290.19921875 C22.77751697 318.9474555 38.52456314 345.76061012 58.79858398 369.67260742 C59.33040283 370.3091626 59.86222168 370.94571777 60.41015625 371.6015625 C60.88590088 372.16182129 61.36164551 372.72208008 61.85180664 373.29931641 C63.16140119 375.23906457 63.69538609 376.681502 64 379 C63.32702458 380.64878978 62.64275769 382.2941238 61.89453125 383.91015625 C59.59745091 389.27669766 58.1220269 394.86452927 57.7890625 400.69140625 C57.21895084 410.432452 57.21895084 410.432452 53.91015625 414.6875 C51.38468819 416.84105481 48.8090758 418.78166257 46.04882812 420.62353516 C43.69778489 422.20303727 41.40550797 423.85344974 39.109375 425.51171875 C12.78942743 444.37033241 12.78942743 444.37033241 2.5625 443.8125 C-5.18772092 442.04490575 -11.36795817 439.54595595 -17.8125 434.875 C-18.49973145 434.38926514 -19.18696289 433.90353027 -19.89501953 433.40307617 C-21.94067853 431.94953158 -23.97267852 430.47898509 -26 429 C-26.57250488 428.58347168 -27.14500977 428.16694336 -27.73486328 427.73779297 C-44.57474662 415.42525338 -44.57474662 415.42525338 -49 411 C-49.10933138 408.98040636 -49.18618576 406.95904385 -49.25 404.9375 C-50.62122369 384.4938013 -60.59059595 366.07753997 -75.88671875 352.62890625 C-79.02100705 350.21301305 -81.00178617 349 -85 349 C-87.44698897 353.80445395 -87.43620061 358.53791706 -87.625 363.8125 C-87.66367188 364.69615234 -87.70234375 365.57980469 -87.7421875 366.49023438 C-87.83600784 368.65982972 -87.91907326 370.82988547 -88 373 C-90 373 -90 373 -91.3046875 371.7421875 C-92.44404994 370.38742321 -93.57888164 369.02884442 -94.7109375 367.66796875 C-96.47803725 365.60836273 -98.27074962 363.67592481 -100.1640625 361.73828125 C-108.62763909 352.87244341 -108.62763909 352.87244341 -109.546875 348.25 C-109.25 345.6875 -109.25 345.6875 -108.65625 343.02734375 C-105.03193391 326.30802844 -109.2617868 308.37833263 -118 294 C-119.2566852 292.00918525 -119.2566852 292.00918525 -121 291 C-123.65466049 291.23043864 -123.65466049 291.23043864 -126 292 C-127.62640734 289.08411598 -129.25087728 286.16715706 -130.875 283.25 C-131.56529297 282.0125 -131.56529297 282.0125 -132.26953125 280.75 C-132.71425781 279.95078125 -133.15898437 279.1515625 -133.6171875 278.328125 C-134.02565918 277.5949707 -134.43413086 276.86181641 -134.85498047 276.10644531 C-138.30881788 269.75256276 -138.30881788 269.75256276 -137.25 265.875 C-137.05148438 265.07835937 -136.85296875 264.28171875 -136.6484375 263.4609375 C-136.23803042 261.90336846 -135.82669029 260.34604471 -135.4140625 258.7890625 C-132.63484845 246.9874724 -132.8553341 234.42250186 -137 223 C-143.73608746 225.88689463 -148.0764493 229.60504551 -153 235 C-160.605815 223.5912775 -161.64662942 211.59418854 -161.92138672 198.27246094 C-162.3367286 186.26624273 -165.08981339 175.22574623 -172.6796875 165.82421875 C-174.68237779 163.05718808 -175.3017683 160.31660059 -176 157 C-176.30164063 155.81277344 -176.60328125 154.62554687 -176.9140625 153.40234375 C-178.61422125 145.70414327 -179.32178982 137.83236904 -180.125 130 C-180.21404602 129.13317596 -180.30309204 128.26635193 -180.39483643 127.3732605 C-184.02671865 91.04657341 -182.1275652 55.08305648 -177 19 C-118.19941055 6.46328818 -60.14531695 -0.66447618 0 0 Z " fill="#FE9100" transform="translate(252,32)"/>
<path d="M0 0 C0.87785156 -0.02578125 1.75570312 -0.0515625 2.66015625 -0.078125 C13.16817605 0.97392943 22.99538501 6.05168455 32.625 10.125 C34.20650748 10.78961584 35.78821607 11.45375328 37.37011719 12.11743164 C40.61359756 13.47910289 43.8558788 14.84357047 47.09716797 16.21044922 C51.79242066 18.19003423 56.49131817 20.16083371 61.19140625 22.12890625 C68.44178329 25.16528088 75.69033209 28.20597166 82.9375 31.25 C79.9375 33.25 79.9375 33.25 77.9375 34.25 C77.6075 35.24 77.2775 36.23 76.9375 37.25 C77.5253125 37.52714844 78.113125 37.80429688 78.71875 38.08984375 C85.16381686 41.45988752 88.59103893 45.56680537 91.015625 52.39453125 C91.31984375 53.00683594 91.6240625 53.61914062 91.9375 54.25 C92.9275 54.58 93.9175 54.91 94.9375 55.25 C95.20820313 54.66476563 95.47890625 54.07953125 95.7578125 53.4765625 C96.92891283 51.26620758 98.19525577 49.52714736 99.8125 47.625 C100.30492187 47.03460938 100.79734375 46.44421875 101.3046875 45.8359375 C103.14362744 44.04979009 104.50773184 43.08383188 106.9375 42.25 C112.27188151 43.05057594 117.12237879 45.05751182 122.125 47 C123.03958984 47.33515625 123.95417969 47.6703125 124.89648438 48.015625 C131.5670405 50.61492658 131.5670405 50.61492658 133.55078125 54.015625 C133.74220703 55.12164062 133.74220703 55.12164062 133.9375 56.25 C129.77655907 60.04990373 125.71810471 61.64464521 120.49609375 63.4296875 C118.84338179 64.03367659 117.19171748 64.64053873 115.54101562 65.25 C112.95954724 66.19594147 110.37723723 67.12424355 107.77270508 68.00488281 C97.38656606 71.22125571 97.38656606 71.22125571 89.9609375 78.53930664 C88.90542602 82.14182379 88.32736982 85.52062582 87.9375 89.25 C87.59971177 90.92341243 87.24983453 92.59447405 86.8828125 94.26171875 C86.60391331 95.81934444 86.33058339 97.37797641 86.0625 98.9375 C84.55637186 107.25824069 82.80577433 115.50330216 80.9375 123.75 C79.09175845 131.91562497 77.34119069 140.08144406 75.8125 148.3125 C75.34298813 150.80634786 74.87229702 153.29996885 74.40087891 155.79345703 C74.08542134 157.46581425 73.77270199 159.13868979 73.46240234 160.81201172 C72.99466967 163.29568641 72.50075649 165.77279966 72 168.25 C71.8664209 168.98613525 71.7328418 169.72227051 71.59521484 170.48071289 C70.54370207 175.51227822 69.02844937 178.14633308 64.9375 181.25 C62.0409525 182.71425343 59.07552622 183.78502532 56 184.8125 C55.13189697 185.10914551 54.26379395 185.40579102 53.36938477 185.71142578 C16.77973544 197.66532852 -25.34658688 196.44120353 -61.15234375 182.33984375 C-64.44896059 180.45895193 -66.50586396 178.8246821 -67.81030273 175.13452148 C-68.56546404 172.27059753 -69.20164971 169.39820937 -69.8125 166.5 C-70.06 165.38036865 -70.3075 164.2607373 -70.5625 163.10717773 C-73.24024448 150.81531329 -75.65099546 138.46526597 -78.08740234 126.1237793 C-80.66755224 113.07423751 -83.44160321 100.08254134 -86.41162109 87.11547852 C-87.3092966 83.16348398 -88.18335383 79.20615775 -89.0625 75.25 C-95.3325 72.61 -101.6025 69.97 -108.0625 67.25 C-108.0625 91.34 -108.0625 115.43 -108.0625 140.25 C-106.7425 140.58 -105.4225 140.91 -104.0625 141.25 C-100.54844867 144.60432172 -99.21156207 146.01491425 -98.625 150.875 C-99.0625 154.25 -99.0625 154.25 -100.13037109 156.07446289 C-103.86657945 164.79456575 -96.98663139 182.32074345 -94.94335938 191.54272461 C-94.46586082 193.70597381 -93.9944929 195.87049652 -93.5234375 198.03515625 C-93.24290527 199.30238525 -92.96237305 200.56961426 -92.67333984 201.87524414 C-92.14864445 204.77407082 -91.93187371 207.31859229 -92.0625 210.25 C-96.13419824 211.01382268 -99.98431571 211.3782321 -104.125 211.3828125 C-105.25164062 211.38410156 -106.37828125 211.38539063 -107.5390625 211.38671875 C-108.70179688 211.38285156 -109.86453125 211.37898437 -111.0625 211.375 C-112.80660156 211.38080078 -112.80660156 211.38080078 -114.5859375 211.38671875 C-115.71257812 211.38542969 -116.83921875 211.38414062 -118 211.3828125 C-119.01964844 211.38168457 -120.03929687 211.38055664 -121.08984375 211.37939453 C-124.15146192 211.24612764 -127.05300479 210.81456067 -130.0625 210.25 C-129.76965299 202.65062017 -128.53788007 195.48685812 -126.72680664 188.12255859 C-125.28506183 182.24984703 -123.97165472 176.36002177 -122.75 170.4375 C-122.56655029 169.58349609 -122.38310059 168.72949219 -122.1940918 167.84960938 C-122.03078369 167.04716797 -121.86747559 166.24472656 -121.69921875 165.41796875 C-121.55186279 164.70922607 -121.40450684 164.0004834 -121.25268555 163.27026367 C-120.94260474 159.97640144 -122.02683925 157.35698225 -123.0625 154.25 C-123.42944508 149.29624138 -123.29050966 146.14587373 -120.0625 142.25 C-117.5875 141.26 -117.5875 141.26 -115.0625 140.25 C-115.3925 115.17 -115.7225 90.09 -116.0625 64.25 C-120.6825 62.27 -125.3025 60.29 -130.0625 58.25 C-130.3925 56.6 -130.7225 54.95 -131.0625 53.25 C-126.51932555 50.28340733 -121.68738864 48.307754 -116.69140625 46.25 C-115.75775742 45.86182098 -114.82410858 45.47364197 -113.86216736 45.07369995 C-110.78466912 43.79534261 -107.70486772 42.52263688 -104.625 41.25 C-102.47252589 40.35724784 -100.32018395 39.46417694 -98.16796875 38.57080078 C-91.4684795 35.79154806 -84.76573052 33.0202145 -78.0625 30.25 C-75.93602483 29.37079321 -73.80955977 28.49156195 -71.68310547 27.61230469 C-63.7126762 24.31718792 -55.74167105 21.02347352 -47.76855469 17.73486328 C-36.67307833 13.15819112 -25.58327821 8.5689446 -14.515625 3.92529297 C-13.68160156 3.57611816 -12.84757812 3.22694336 -11.98828125 2.8671875 C-11.29130127 2.57440918 -10.59432129 2.28163086 -9.8762207 1.97998047 C-6.44656123 0.59962217 -3.67704633 0.06348857 0 0 Z " fill="#655CB1" transform="translate(255.0625,82.75)"/>
<path d="M0 0 C1.01790619 0.00215515 2.03581238 0.0043103 3.08456421 0.00653076 C17.68763423 0.05618106 32.03429136 0.2859388 46.375 3.3125 C47.37644043 3.52181152 48.37788086 3.73112305 49.40966797 3.94677734 C58.25294668 5.84666374 67.07866202 7.8291088 75.6484375 10.74804688 C86.45197479 14.40506833 96.83452446 16.56752452 108.1569519 17.87185669 C112.93481159 18.42670318 117.7036679 19.049808 122.47265625 19.67578125 C123.45222794 19.80405807 124.43179962 19.9323349 125.4410553 20.0644989 C136.12692909 21.49607642 146.71838146 23.38505056 157.3125 25.375 C158.17504395 25.53490417 159.03758789 25.69480835 159.92626953 25.85955811 C172.84547392 28.26410322 185.61645285 31.16916347 198.375 34.3125 C200.26442988 40.65685125 201.38307666 46.90475487 202.375 53.4375 C202.54 54.47003906 202.705 55.50257812 202.875 56.56640625 C205.73493678 75.17833859 206.75676345 93.62297831 206.6875 112.4375 C206.68501251 113.52543854 206.68252502 114.61337708 206.67996216 115.73428345 C206.57399681 145.90303147 203.6387631 174.70037898 197.99609375 204.328125 C197.86279663 205.03381119 197.72949951 205.73949738 197.59216309 206.46656799 C196.95840046 209.71699986 196.21331103 212.84532908 195.25097656 216.01660156 C194.42777587 219.11392859 194.25966209 220.92005684 194.73828125 224.03125 C195.45654941 229.64159271 195.55873731 235.1609469 195.5625 240.8125 C195.57474609 241.78058594 195.58699219 242.74867188 195.59960938 243.74609375 C195.61648103 252.12568428 194.61180693 260.02393332 191.375 267.8125 C191.045 268.6271875 190.715 269.441875 190.375 270.28125 C189.375 272.3125 189.375 272.3125 187.375 274.3125 C187.13122117 277.66994112 187.13122117 277.66994112 187.25 281.4375 C187.26804687 282.71882813 187.28609375 284.00015625 187.3046875 285.3203125 C187.32789063 286.30773437 187.35109375 287.29515625 187.375 288.3125 C187.83648437 287.81621094 188.29796875 287.31992187 188.7734375 286.80859375 C196.13707756 279.13934807 206.76885173 269.40223955 217.78125 268.0078125 C220 268 220 268 223.375 268.3125 C224.53918758 286.26039184 217.10442225 301.46896088 205.55078125 314.88671875 C204.83277344 315.68722656 204.11476563 316.48773438 203.375 317.3125 C202.81167969 317.95832031 202.24835938 318.60414063 201.66796875 319.26953125 C195.92917473 325.45514135 188.49495869 331.24427142 180.28515625 333.390625 C177.58072768 334.35720482 176.57991317 334.99878434 174.99145508 337.43066406 C173.76593219 340.18880263 172.73521815 342.95979979 171.75 345.8125 C171.00073117 347.80903817 170.24686427 349.80385713 169.48828125 351.796875 C168.95195068 353.22870117 168.95195068 353.22870117 168.40478516 354.68945312 C166.22179934 360.24990823 163.63217749 366.05532251 159.375 370.3125 C156.25 369.9375 156.25 369.9375 153.375 369.3125 C151.58434967 362.57015336 153.60241701 358.52860189 156.625 352.4375 C159.65552243 346.15657497 162.34795129 339.99447794 164.375 333.3125 C163.56192383 332.6462561 163.56192383 332.6462561 162.73242188 331.96655273 C148.50421824 320.1718351 141.09305158 303.3557665 137.625 285.4375 C137.51180401 284.0646358 137.43401622 282.68875816 137.375 281.3125 C137.31183594 280.17941406 137.24867188 279.04632813 137.18359375 277.87890625 C136.92192462 269.49705321 137.8266053 262.93204397 141.375 255.3125 C146.06387515 255.78476081 148.24868817 257.61814509 151.625 260.8125 C152.49640625 261.6271875 153.3678125 262.441875 154.265625 263.28125 C156.375 265.3125 156.375 265.3125 157.375 266.3125 C162.58998648 255.03832558 164.99454685 245.56335581 165.21484375 233.16015625 C165.48979829 219.73009515 168.57304759 205.11445241 178.375 195.3125 C181.27423639 184.64480859 182.42391272 173.46954647 183.5625 162.5 C183.64904846 161.6734491 183.73559692 160.84689819 183.82476807 159.99530029 C186.71740336 131.60537026 186.604473 102.67334171 183.375 74.3125 C183.27896484 73.46397461 183.18292969 72.61544922 183.08398438 71.74121094 C182.66214817 68.06951421 182.22100888 64.40310642 181.7421875 60.73828125 C181.40181474 57.56267584 181.30639126 54.50280653 181.375 51.3125 C180.116875 51.23 178.85875 51.1475 177.5625 51.0625 C172.62771296 50.56833496 167.83875956 49.6208018 163 48.5625 C154.65443791 46.74594733 146.28028778 45.14116119 137.875 43.625 C136.70662598 43.41069336 135.53825195 43.19638672 134.33447266 42.97558594 C127.35974379 41.72985029 120.44293963 40.81543858 113.375 40.3125 C111.86139595 48.20789798 113.16903319 54.41212145 115.46484375 61.9921875 C116.375 65.3125 116.375 65.3125 116.375 69.3125 C111.3837279 68.90997806 107.00202086 68.28365425 102.25 66.6875 C95.19487698 64.47327678 89.6060171 66.4206748 82.8046875 68.69140625 C80.23503057 69.34827997 78.01597077 69.42058243 75.375 69.3125 C75.79979681 64.72469448 76.50480931 60.73767969 78 56.375 C79.59392876 51.33013809 79.31572756 47.44294935 78.375 42.3125 C78.03659133 39.97989735 77.7024051 37.64667254 77.375 35.3125 C76.20710938 35.26351562 75.03921875 35.21453125 73.8359375 35.1640625 C72.14059437 35.08923237 70.445285 35.01363555 68.75 34.9375 C67.80398926 34.89568604 66.85797852 34.85387207 65.88330078 34.81079102 C60.61014801 34.56301637 55.35405667 34.24644612 50.09375 33.80078125 C-22.03868368 27.8421759 -98.34550434 33.21547315 -168.89331055 49.83984375 C-172.88134894 50.7759266 -176.49261595 51.600412 -180.625 51.3125 C-180.67398438 52.03050781 -180.72296875 52.74851563 -180.7734375 53.48828125 C-181.31239811 60.95009791 -182.02031747 68.37600342 -182.87646484 75.80786133 C-184.44237542 89.93951212 -184.89454826 104.10515003 -184.9375 118.3125 C-184.94045074 119.18380554 -184.94340149 120.05511108 -184.94644165 120.95281982 C-184.95685968 134.69497611 -184.21154462 148.26847569 -182.8125 161.9375 C-182.72972809 162.75895508 -182.64695618 163.58041016 -182.56167603 164.42675781 C-181.43288078 184.44800829 -181.43288078 184.44800829 -172.625 201.3125 C-166.65468544 210.8692226 -164.6121891 221.81466178 -164.5546875 232.93359375 C-164.46118246 245.36848261 -161.8331265 255.05315603 -156.625 266.3125 C-156.10550781 265.76980469 -155.58601563 265.22710937 -155.05078125 264.66796875 C-147.78508914 257.21425504 -147.78508914 257.21425504 -143.625 255.3125 C-142.635 255.3125 -141.645 255.3125 -140.625 255.3125 C-134.53825577 267.89358295 -135.33015885 280.98354673 -139.2890625 294.04760742 C-141.32730467 300.88658695 -139.67508566 304.57120414 -136.43554688 310.59960938 C-136.02369141 311.35048828 -135.61183594 312.10136719 -135.1875 312.875 C-134.37603015 314.37615512 -133.56482353 315.87745256 -132.75390625 317.37890625 C-132.21358765 318.3680603 -132.21358765 318.3680603 -131.66235352 319.37719727 C-131.32002686 320.01584717 -130.9777002 320.65449707 -130.625 321.3125 C-130.23094971 322.00770752 -129.83689941 322.70291504 -129.4309082 323.41918945 C-129.1649585 324.04398193 -128.89900879 324.66877441 -128.625 325.3125 C-129.6015625 327.5390625 -129.6015625 327.5390625 -131.25 329.9375 C-134.44287413 334.85862709 -136.6344648 339.80925562 -138.625 345.3125 C-141.00064933 343.10762906 -142.65324522 340.85388146 -144.32421875 338.08203125 C-145.05415039 336.87836914 -145.05415039 336.87836914 -145.79882812 335.65039062 C-146.5480957 334.40032227 -146.5480957 334.40032227 -147.3125 333.125 C-148.07916992 331.8575293 -148.07916992 331.8575293 -148.86132812 330.56445312 C-150.11975268 328.48276017 -151.37414166 326.39874508 -152.625 324.3125 C-153.71018111 325.22697846 -154.79304738 326.14420407 -155.875 327.0625 C-156.47828125 327.57296875 -157.0815625 328.0834375 -157.703125 328.609375 C-159.7618643 330.43378625 -161.69741968 332.35080322 -163.625 334.3125 C-162.00233595 338.2301385 -160.37646504 342.14643818 -158.75 346.0625 C-158.28980469 347.17367188 -157.82960938 348.28484375 -157.35546875 349.4296875 C-156.91074219 350.49960937 -156.46601563 351.56953125 -156.0078125 352.671875 C-155.59934082 353.65639648 -155.19086914 354.64091797 -154.77001953 355.65527344 C-153.69885124 358.26113208 -153.69885124 358.26113208 -152.45263672 360.43066406 C-151.12122017 363.45796753 -152.01762853 366.15416835 -152.625 369.3125 C-154.605 369.6425 -156.585 369.9725 -158.625 370.3125 C-162.16346908 366.27754194 -164.35016003 362.14104989 -166.5625 357.3125 C-166.9138501 356.56718018 -167.2652002 355.82186035 -167.62719727 355.05395508 C-169.24610374 351.56601866 -170.75160294 348.10924135 -171.9375 344.44921875 C-173.65135051 338.45679122 -173.65135051 338.45679122 -177.54296875 333.87109375 C-179.75034728 332.9001418 -179.75034728 332.9001418 -182.10546875 332.171875 C-197.63864156 326.87373854 -209.11459301 311.80233258 -216.44921875 297.83984375 C-221.29982102 287.61012323 -222.93090141 279.61385782 -222.625 268.3125 C-213.59511443 267.27059013 -206.74364822 271.29498138 -199.5859375 276.5390625 C-195.00282733 280.23272811 -190.75056311 284.11313433 -186.625 288.3125 C-186.38173489 281.47404749 -186.87049661 276.42551615 -189.578125 270.078125 C-189.92359375 269.24796875 -190.2690625 268.4178125 -190.625 267.5625 C-190.955 266.80453125 -191.285 266.0465625 -191.625 265.265625 C-194.3680487 257.16505932 -194.92004921 249.31454816 -194.8125 240.8125 C-194.81185547 239.84441406 -194.81121094 238.87632812 -194.81054688 237.87890625 C-194.78267269 233.26417925 -194.59167748 228.80122854 -193.9765625 224.2265625 C-193.39022349 218.86726476 -194.44469099 214.35419599 -195.8125 209.1875 C-196.28783807 207.23695767 -196.75771378 205.28507763 -197.22265625 203.33203125 C-197.46000488 202.33510254 -197.69735352 201.33817383 -197.94189453 200.31103516 C-199.97356944 191.39286819 -201.35298064 182.36572165 -202.625 173.3125 C-202.85364746 171.72236084 -202.85364746 171.72236084 -203.08691406 170.10009766 C-208.03032291 134.02816075 -208.21949368 95.30129635 -202.625 59.3125 C-202.44855957 58.16023926 -202.27211914 57.00797852 -202.09033203 55.82080078 C-201.0237551 48.96825507 -199.87574825 42.13380768 -198.625 35.3125 C-189.94764504 32.08720006 -180.98468304 30.33508538 -171.9375 28.5 C-171.09018311 28.32675201 -170.24286621 28.15350403 -169.36987305 27.9750061 C-156.50081031 25.35404786 -143.59970077 23.03284885 -130.625 21 C-129.82546906 20.87456818 -129.02593811 20.74913635 -128.20217896 20.61990356 C-119.85982194 19.32096323 -111.5276098 18.15419602 -103.13305664 17.24194336 C-92.75841458 16.09675626 -83.32600108 13.59719673 -73.40356445 10.36914062 C-66.0194404 7.9836447 -58.66133085 6.01296441 -51.0625 4.4375 C-49.71007202 4.15156982 -49.71007202 4.15156982 -48.33032227 3.85986328 C-32.23090181 0.65361662 -16.37428547 -0.06235029 0 0 Z " fill="#FECC70" transform="translate(255.625,-0.3125)"/>
<path d="M0 0 C6.52916461 2.70172329 9.56138601 9.60260425 12.25 15.8125 C15.3519985 24.23959592 16.15806123 32.64942225 16.1875 41.5625 C16.18991699 42.29364014 16.19233398 43.02478027 16.19482422 43.77807617 C16.15814091 47.96044385 15.69283676 51.76228132 14.875 55.875 C14.46232214 59.55006363 14.80557556 60.71233118 16.9140625 63.83203125 C19.50187105 66.68956607 22.2033489 69.34779572 25 72 C26.37404453 73.48181273 27.73118173 74.97968456 29.0625 76.5 C29.61035156 77.1084375 30.15820312 77.716875 30.72265625 78.34375 C32 80 32 80 33 83 C33.66 83 34.32 83 35 83 C34.94779297 81.04707031 34.94779297 81.04707031 34.89453125 79.0546875 C34.86638099 77.32813796 34.83908216 75.60157439 34.8125 73.875 C34.78736328 73.0190625 34.76222656 72.163125 34.73632812 71.28125 C34.67601191 66.05384474 35.14738007 62.56718676 38 58 C43.47639355 58.3422746 46.96890162 61.60986171 51 65 C51.59039062 65.49371094 52.18078125 65.98742187 52.7890625 66.49609375 C63.60870628 76.40174936 71.50186891 92.58330458 74 107 C73.98668427 109.35422119 73.96552491 111.70840796 73.9375 114.0625 C74.19675571 118.17930182 74.48708774 120.33559049 77.0234375 123.62109375 C79.58254484 125.80386177 82.14662811 127.73724913 84.93505859 129.60742188 C87.29080502 131.19611632 89.59101504 132.85214737 91.89453125 134.515625 C108.38078299 147.68120912 108.38078299 147.68120912 127.875 152.8125 C135.836216 151.48006694 142.3084514 148.58886095 148.8125 143.875 C149.49900635 143.38999023 150.1855127 142.90498047 150.89282227 142.40527344 C152.93957109 140.95143674 154.97241133 139.48041332 157 138 C157.8667334 137.36723145 157.8667334 137.36723145 158.75097656 136.72167969 C161.29791068 134.85148928 163.81547614 132.95441648 166.3046875 131.0078125 C169 129 169 129 171.6328125 127.5546875 C174.98644738 125.58132678 177.41190947 123.93341484 178.58740234 120.06884766 C179.40982664 116.03077082 179.86800916 111.9621679 180.33984375 107.87109375 C182.08097797 93.35031743 189.57933611 79.9561906 199 69 C199.54398437 68.360625 200.08796875 67.72125 200.6484375 67.0625 C205.07282529 62.24344851 210.04201117 59.6013754 216 57 C218.79894315 62.59038243 219.51232631 67.22634137 219.6875 73.4375 C219.72166016 74.26443359 219.75582031 75.09136719 219.79101562 75.94335938 C219.87268621 77.96178944 219.93803724 79.98086884 220 82 C231.35955832 71.78045588 231.35955832 71.78045588 239 59 C238.73212441 56.6582489 238.38710701 54.32501693 238 52 C236.97628075 34.04208829 238.52051148 17.25459377 249.47265625 2.328125 C251 1 251 1 255 1 C260.73718217 6.80008986 263.65381553 14.33482589 266 22 C269.55944071 17.86092559 272.13828729 13.44728261 274.75 8.6875 C275.16121094 7.94693359 275.57242187 7.20636719 275.99609375 6.44335938 C277.00154785 4.63120373 278.001353 2.8159158 279 1 C282.47775179 2.51553404 284.9557984 4.5773456 287.75 7.125 C288.54921875 7.84945313 289.3484375 8.57390625 290.171875 9.3203125 C290.77515625 9.87460937 291.3784375 10.42890625 292 11 C291.13174576 13.39847536 290.25717916 15.79413548 289.375 18.1875 C289.10864746 18.9105835 288.84229492 19.63366699 288.56787109 20.37866211 C286.4132709 26.12489373 283.90192457 31.57086001 281.1015625 37.03515625 C279.81005627 40.51123153 279.80708799 43.32089244 280 47 C282.78938212 47.41890218 282.78938212 47.41890218 286 47 C286.75539063 46.24332031 287.51078125 45.48664063 288.2890625 44.70703125 C296.70249656 36.30572029 310.32574 31.89065373 322 31.75 C327.66019417 31.83009709 327.66019417 31.83009709 330 33 C327.32378146 49.32493307 316.7652047 61.13031279 303.671875 70.6015625 C299.72109465 73.28974473 295.55930189 75.44700146 291.25 77.5 C290.56550781 77.82629395 289.88101562 78.15258789 289.17578125 78.48876953 C282.50462054 81.49623377 276.03227453 83.2459237 268.6875 82.8125 C262.48983761 83.31965961 259.58363798 86.88655517 255.77783203 91.35253906 C254.74622917 92.58248876 253.71668278 93.81416558 252.68896484 95.04736328 C249.65443093 98.55563189 246.3541177 101.79744059 243.0625 105.0625 C242.43569336 105.6930127 241.80888672 106.32352539 241.16308594 106.97314453 C237.92280905 110.20732084 234.65123998 113.22173201 231 116 C231.64437012 116.01458252 232.28874023 116.02916504 232.95263672 116.04418945 C235.92730199 116.11955474 238.90095095 116.2159163 241.875 116.3125 C242.88820313 116.33505859 243.90140625 116.35761719 244.9453125 116.38085938 C254.71320696 116.72524027 262.72127137 118.78080152 271 124 C268.14401202 132.42225025 260.9080166 136.7685481 253.3125 140.75 C236.5031014 148.72672436 215.57497919 152.75107302 197.4375 147.0625 C195.61975408 146.38899255 193.80622049 145.7038324 192 145 C188.49368623 143.74480014 186.764349 144.20965154 183.40234375 145.73046875 C182.52280029 146.11984619 181.64325684 146.50922363 180.73706055 146.91040039 C179.35127808 147.5425647 179.35127808 147.5425647 177.9375 148.1875 C176.04786172 149.0256656 174.1572438 149.86162629 172.265625 150.6953125 C171.35876953 151.0965332 170.45191406 151.49775391 169.51757812 151.91113281 C165.08838835 153.82678316 160.57579378 155.46759131 156 157 C156.63808594 157.13277344 157.27617187 157.26554688 157.93359375 157.40234375 C158.75988281 157.57894531 159.58617187 157.75554687 160.4375 157.9375 C161.26121094 158.11152344 162.08492187 158.28554688 162.93359375 158.46484375 C165 159 165 159 166 160 C166.25 162.9375 166.25 162.9375 166 166 C157.55356435 171.6309571 140.77111097 166.98669933 131.078125 165.57421875 C124.92733648 164.71764921 119.36568055 165.53117141 113.2421875 166.4453125 C108.40590245 167.12364257 103.56082772 167.46336077 98.6875 167.75 C97.85677979 167.80655762 97.02605957 167.86311523 96.17016602 167.92138672 C94.11621352 168.03125576 92.05673443 168.02521023 90 168 C88 166 88 166 87.75 163 C88 160 88 160 90 158 C92.1640625 157.5859375 92.1640625 157.5859375 94.625 157.375 C95.85089844 157.26285156 95.85089844 157.26285156 97.1015625 157.1484375 C97.72804687 157.09945312 98.35453125 157.05046875 99 157 C97.87464844 156.64808594 96.74929687 156.29617188 95.58984375 155.93359375 C87.00868683 153.1912687 78.7766905 150.26851616 70.77319336 146.09741211 C67.50671841 144.42238001 67.50671841 144.42238001 63.91796875 144.1796875 C63.28503906 144.45039063 62.65210938 144.72109375 62 145 C44.01539125 152.21121993 23.48966565 150.78789961 5.81640625 143.26953125 C-2.41391313 139.5392152 -10.14770096 135.05991631 -16 128 C-16.75390625 125.734375 -16.75390625 125.734375 -17 124 C-7.62835803 118.21749751 0.57453058 116.5443137 11.5625 116.3125 C12.66658203 116.27833984 13.77066406 116.24417969 14.90820312 116.20898438 C17.60536703 116.12725214 20.30223643 116.05786174 23 116 C22.23558594 115.30777344 21.47117187 114.61554688 20.68359375 113.90234375 C14.30178653 108.08722568 8.05190634 102.15880076 1.9375 96.0625 C1.30706787 95.43657959 0.67663574 94.81065918 0.02709961 94.16577148 C-2.57939972 91.55084484 -4.91606305 89.11972651 -7.04296875 86.0859375 C-8.86461205 83.72415161 -8.86461205 83.72415161 -11.890625 83.50390625 C-13.55351563 83.53291016 -13.55351563 83.53291016 -15.25 83.5625 C-33.78217786 82.84898223 -50.15687289 71.74003846 -63 59 C-69.37865449 51.64936007 -75.25240308 42.96795888 -76 33 C-74.20881557 31.20881557 -71.6751867 31.74261788 -69.25 31.6875 C-56.99681116 31.82112256 -45.3608735 36.63267074 -35 43 C-33.98211999 44.31973409 -32.97731717 45.64995225 -32 47 C-28.87413125 47.33397787 -28.87413125 47.33397787 -26 47 C-25.3848608 40.42068503 -27.46462686 35.97969735 -30.3125 30.125 C-33.30911854 23.84500517 -35.9694874 17.66347054 -38 11 C-36.40423801 9.49106184 -34.79810089 7.99308924 -33.1875 6.5 C-32.29417969 5.6646875 -31.40085938 4.829375 -30.48046875 3.96875 C-28 2 -28 2 -25 2 C-23.55786133 3.8359375 -23.55786133 3.8359375 -22.08203125 6.375 C-21.55029297 7.27734375 -21.01855469 8.1796875 -20.47070312 9.109375 C-19.92349609 10.06328125 -19.37628906 11.0171875 -18.8125 12 C-18.25369141 12.95390625 -17.69488281 13.9078125 -17.11914062 14.890625 C-15.7360847 17.25482316 -14.36365718 19.62457679 -13 22 C-11.22821575 19.34232363 -10.35253376 17.33980212 -9.3125 14.375 C-7.14835785 8.77949938 -3.88663359 4.51984918 0 0 Z " fill="#9ACD1C" transform="translate(129,322)"/>
<path d="M0 0 C12.54093034 15.7112568 11.66105972 44.93465762 9.71142578 63.79101562 C6.29881387 88.47175789 -5.04390866 111.12720379 -21 130 C-21.58136719 130.74507812 -22.16273438 131.49015625 -22.76171875 132.2578125 C-31.18431232 142.73831936 -43.43110211 150.45728996 -55 157 C-55.93972656 157.53238281 -56.87945312 158.06476563 -57.84765625 158.61328125 C-82.39280241 171.6792669 -109.36834886 174.36402656 -136.6875 171 C-141.37014247 170.56617172 -141.37014247 170.56617172 -145.41796875 172.64453125 C-147.77423638 175.25476785 -149.43393965 177.8678793 -151 181 C-152.86328125 180.7890625 -152.86328125 180.7890625 -155 180 C-156.16796875 177.9609375 -156.16796875 177.9609375 -157.1875 175.375 C-159.55570208 170.16197656 -162.45651206 167.65466264 -167.20703125 164.5703125 C-167.79871094 164.05210937 -168.39039063 163.53390625 -169 163 C-169 161.68 -169 160.36 -169 159 C-169.721875 158.89558594 -170.44375 158.79117188 -171.1875 158.68359375 C-181.05166316 156.28605409 -190.26393995 147.44708775 -198 141 C-198.58700684 140.51789063 -199.17401367 140.03578125 -199.77880859 139.5390625 C-208.74723798 132.00724038 -212.91798207 125.64766001 -214.67041016 114.04931641 C-215.00795889 111.95051337 -215.44541819 109.89654478 -215.91796875 107.82421875 C-218.69751642 95.39503285 -218.69751642 95.39503285 -216 90 C-215.62489536 86.74909308 -215.33459131 84.15611549 -217.01171875 81.2421875 C-219.17965416 78.54691644 -220.69053188 77.10315604 -224 76 C-224 51.91 -224 27.82 -224 3 C-221.03 3.99 -218.06 4.98 -215 6 C-213.97390625 6.19078125 -212.9478125 6.3815625 -211.890625 6.578125 C-208.37193124 7.47341394 -206.60667001 8.43092619 -204 11 C-201.32021534 17.02799287 -200.65361985 23.87058581 -199.61865234 30.33154297 C-198.58777103 36.44441693 -197.2904893 42.50086512 -196.01834106 48.56729126 C-195.56091363 50.75759601 -195.11027357 52.94918966 -194.66186523 55.14135742 C-192.34553488 66.45750691 -189.89457758 77.73985941 -187.3359375 89.00390625 C-186.46870484 92.83550892 -185.65882127 96.67010812 -184.9140625 100.52734375 C-184.74672607 101.36523438 -184.57938965 102.203125 -184.40698242 103.06640625 C-184.10674175 104.58275435 -183.82154684 106.10220909 -183.5559082 107.625 C-182.89495408 110.89418386 -182.16517992 112.8217154 -179.8828125 115.28515625 C-176.33948989 117.39290507 -172.85315189 118.74461646 -168.9375 120 C-168.15963135 120.25418701 -167.3817627 120.50837402 -166.58032227 120.77026367 C-134.27237497 130.93777418 -97.28876696 131.52585355 -65 121 C-64.29810547 120.78472656 -63.59621094 120.56945312 -62.87304688 120.34765625 C-60.65324729 119.66015926 -58.451555 118.93116825 -56.25 118.1875 C-55.569375 117.97569092 -54.88875 117.76388184 -54.1875 117.5456543 C-50.7370974 116.30654249 -49.16235804 115.26378701 -47.23046875 112.125 C-45.31671597 106.51117785 -44.2498415 100.61208671 -43.0625 94.8125 C-42.80017578 93.56017578 -42.53785156 92.30785156 -42.26757812 91.01757812 C-40.64602188 83.24446696 -39.07487434 75.46136899 -37.54150391 67.67041016 C-35.84644083 59.10450557 -33.99537786 50.57230085 -32.1472168 42.03833008 C-30.5386731 34.59441479 -30.5386731 34.59441479 -29.0546875 27.125 C-28.92457275 26.44091064 -28.79445801 25.75682129 -28.66040039 25.05200195 C-28.34523313 23.36292663 -28.04111384 21.67179908 -27.73828125 19.98046875 C-27.49464844 18.99691406 -27.25101563 18.01335937 -27 17 C-26.72929687 15.82953125 -26.45859375 14.6590625 -26.1796875 13.453125 C-24.09556897 8.81428053 -19.67826934 7.61666801 -15.20507812 5.83007812 C-14.08552734 5.41177734 -12.96597656 4.99347656 -11.8125 4.5625 C-10.68134766 4.11712891 -9.55019531 3.67175781 -8.38476562 3.21289062 C-5.59775231 2.11925249 -2.80383962 1.04957412 0 0 Z " fill="#FECC70" transform="translate(371,147)"/>
<path d="M0 0 C6.69064596 2.10988617 13.14288727 4.6284338 19.60546875 7.3515625 C21.10621696 7.97905899 21.10621696 7.97905899 22.63728333 8.61923218 C25.821973 9.95144595 29.00481467 11.28800583 32.1875 12.625 C44.54732466 17.80576483 56.90759781 22.98536067 69.30078125 28.0859375 C70.22070358 28.46674469 71.14062592 28.84755188 72.08842468 29.23989868 C72.94007706 29.58918427 73.79172943 29.93846985 74.66918945 30.29833984 C75.41199661 30.60411957 76.15480377 30.90989929 76.92012024 31.22494507 C85.80421258 34.53554971 94.72874126 33.88599009 103.4453125 30.38671875 C104.13551483 30.11860382 104.82571716 29.85048889 105.53683472 29.57424927 C107.69683258 28.72956745 109.84929455 27.86804657 112 27 C112.66676758 26.73150238 113.33353516 26.46300476 114.02050781 26.18637085 C118.03300025 24.56373368 122.03278431 22.91151505 126.02832031 21.24761963 C129.68520242 19.72565749 133.34653694 18.21448106 137.0078125 16.703125 C137.75049377 16.39645905 138.49317505 16.08979309 139.25836182 15.77383423 C146.49576169 12.78895394 153.74782939 9.84117314 161.01263428 6.92364502 C162.33235924 6.39329886 163.65157838 5.86169217 164.97027588 5.32879639 C166.79128073 4.59331796 168.61433857 3.86292866 170.4375 3.1328125 C171.46746094 2.71918457 172.49742187 2.30555664 173.55859375 1.87939453 C176 1 176 1 178 1 C177.46163953 8.80129281 175.96417755 16.20814549 174.1875 23.8125 C172.3137795 32.0194848 170.51496325 40.21901539 169 48.5 C167.28283963 57.84278035 165.25131868 67.10388494 163.14282227 76.36572266 C162.04835904 81.18971286 160.96255302 85.99894874 160.125 90.875 C160.00390869 91.5673877 159.88281738 92.25977539 159.75805664 92.97314453 C159.46601122 94.70584358 159.19846471 96.44262679 158.93359375 98.1796875 C157.50348603 102.49992923 155.1400723 104.91139578 151.07250977 106.98046875 C148.76092867 107.9409089 146.4366856 108.76932985 144.0625 109.5625 C142.76034546 110.00746826 142.76034546 110.00746826 141.43188477 110.46142578 C104.84223544 122.41532852 62.71591312 121.19120353 26.91015625 107.08984375 C23.61353941 105.20895193 21.55663604 103.5746821 20.25219727 99.88452148 C19.49703596 97.02059753 18.86085029 94.14820937 18.25 91.25 C18.0025 90.13036865 17.755 89.0107373 17.5 87.85717773 C14.82230526 75.56554161 12.40820193 63.21612347 9.97729492 50.8737793 C7.76402141 39.65858781 5.41306589 28.49082194 2.81445312 17.35766602 C1.48136866 11.56530007 0.5328053 5.92210027 0 0 Z " fill="#514899" transform="translate(167,158)"/>
<path d="M0 0 C7.41496429 4.6608347 9.99853031 13.26839388 12.421875 21.28515625 C13.57261127 26.68895159 14.04233875 32.10035745 14.0703125 37.62109375 C14.16381754 50.05598261 16.7918735 59.74065603 22 71 C22.51949219 70.45730469 23.03898437 69.91460937 23.57421875 69.35546875 C30.83991086 61.90175504 30.83991086 61.90175504 35 60 C35.99 60 36.98 60 38 60 C44.08674423 72.58108295 43.29484115 85.67104673 39.3359375 98.73510742 C37.29769533 105.57408695 38.94991434 109.25870414 42.18945312 115.28710938 C42.60130859 116.03798828 43.01316406 116.78886719 43.4375 117.5625 C44.24896985 119.06365512 45.06017647 120.56495256 45.87109375 122.06640625 C46.41141235 123.0555603 46.41141235 123.0555603 46.96264648 124.06469727 C47.30497314 124.70334717 47.6472998 125.34199707 48 126 C48.39405029 126.69520752 48.78810059 127.39041504 49.1940918 128.10668945 C49.4600415 128.73148193 49.72599121 129.35627441 50 130 C49.0234375 132.2265625 49.0234375 132.2265625 47.375 134.625 C44.18212587 139.54612709 41.9905352 144.49675562 40 150 C37.62435067 147.79512906 35.97175478 145.54138146 34.30078125 142.76953125 C33.81416016 141.96708984 33.32753906 141.16464844 32.82617188 140.33789062 C32.0769043 139.08782227 32.0769043 139.08782227 31.3125 137.8125 C30.80138672 136.96751953 30.29027344 136.12253906 29.76367188 135.25195312 C28.50524732 133.17026017 27.25085834 131.08624508 26 129 C24.91481889 129.91447846 23.83195262 130.83170407 22.75 131.75 C22.14671875 132.26046875 21.5434375 132.7709375 20.921875 133.296875 C18.8631357 135.12128625 16.92758032 137.03830322 15 139 C16.62266405 142.9176385 18.24853496 146.83393818 19.875 150.75 C20.33519531 151.86117187 20.79539062 152.97234375 21.26953125 154.1171875 C21.71425781 155.18710937 22.15898438 156.25703125 22.6171875 157.359375 C23.02565918 158.34389648 23.43413086 159.32841797 23.85498047 160.34277344 C24.92614876 162.94863208 24.92614876 162.94863208 26.17236328 165.11816406 C27.50377983 168.14546753 26.60737147 170.84166835 26 174 C24.02 174.33 22.04 174.66 20 175 C16.46153092 170.96504194 14.27483997 166.82854989 12.0625 162 C11.7111499 161.25468018 11.3597998 160.50936035 10.99780273 159.74145508 C9.37889626 156.25351866 7.87339706 152.79674135 6.6875 149.13671875 C4.97364949 143.14429122 4.97364949 143.14429122 1.08203125 138.55859375 C-1.12534728 137.5876418 -1.12534728 137.5876418 -3.48046875 136.859375 C-19.01364156 131.56123854 -30.48959301 116.48983258 -37.82421875 102.52734375 C-42.67482102 92.29762323 -44.30590141 84.30135782 -44 73 C-34.97011443 71.95809013 -28.11864822 75.98248138 -20.9609375 81.2265625 C-16.37782733 84.92022811 -12.12556311 88.80063433 -8 93 C-7.75673489 86.16154749 -8.24549661 81.11301615 -10.953125 74.765625 C-11.29859375 73.93546875 -11.6440625 73.1053125 -12 72.25 C-12.33 71.49203125 -12.66 70.7340625 -13 69.953125 C-15.73697732 61.87048884 -16.31778836 53.98484278 -16.25 45.5 C-16.25773437 44.53191406 -16.26546875 43.56382812 -16.2734375 42.56640625 C-16.23261461 27.35987802 -12.18738771 12.35831586 -1.3203125 1.2890625 C-0.88460937 0.86367187 -0.44890625 0.43828125 0 0 Z " fill="#B8E546" transform="translate(77,195)"/>
<path d="M0 0 C10.32610586 7.43479622 14.56971914 19.32565152 16.6953125 31.57763672 C18.38258615 44.99200303 18.25071315 59.86547148 13 72.5 C12.67 73.3146875 12.34 74.129375 12 74.96875 C11 77 11 77 9 79 C8.75622117 82.35744112 8.75622117 82.35744112 8.875 86.125 C8.89304687 87.40632813 8.91109375 88.68765625 8.9296875 90.0078125 C8.95289063 90.99523437 8.97609375 91.98265625 9 93 C9.46148437 92.50371094 9.92296875 92.00742187 10.3984375 91.49609375 C17.76207756 83.82684807 28.39385173 74.08973955 39.40625 72.6953125 C41.625 72.6875 41.625 72.6875 45 73 C46.16418758 90.94789184 38.72942225 106.15646088 27.17578125 119.57421875 C26.45777344 120.37472656 25.73976563 121.17523438 25 122 C24.43667969 122.64582031 23.87335938 123.29164063 23.29296875 123.95703125 C17.55417473 130.14264135 10.11995869 135.93177142 1.91015625 138.078125 C-0.79427232 139.04470482 -1.79508683 139.68628434 -3.38354492 142.11816406 C-4.60906781 144.87630263 -5.63978185 147.64729979 -6.625 150.5 C-7.37426883 152.49653817 -8.12813573 154.49135713 -8.88671875 156.484375 C-9.24427246 157.43892578 -9.60182617 158.39347656 -9.97021484 159.37695312 C-12.15320066 164.93740823 -14.74282251 170.74282251 -19 175 C-22.125 174.625 -22.125 174.625 -25 174 C-26.79065033 167.25765336 -24.77258299 163.21610189 -21.75 157.125 C-18.71947757 150.84407497 -16.02704871 144.68197794 -14 138 C-14.54205078 137.5558374 -15.08410156 137.1116748 -15.64257812 136.65405273 C-29.87078176 124.8593351 -37.28194842 108.0432665 -40.75 90.125 C-40.86319599 88.7521358 -40.94098378 87.37625816 -41 86 C-41.06316406 84.86691406 -41.12632812 83.73382813 -41.19140625 82.56640625 C-41.45307538 74.18455321 -40.5483947 67.61954397 -37 60 C-32.31112485 60.47226081 -30.12631183 62.30564509 -26.75 65.5 C-25.87859375 66.3146875 -25.0071875 67.129375 -24.109375 67.96875 C-22 70 -22 70 -21 71 C-15.78501352 59.72582558 -13.38045315 50.25085581 -13.16015625 37.84765625 C-12.88520171 24.41759515 -9.80195241 9.80195241 0 0 Z " fill="#B8E546" transform="translate(434,195)"/>
<path d="M0 0 C6.90268408 2.20415505 13.55828665 4.7952798 20.23828125 7.59765625 C21.80306465 8.25005531 21.80306465 8.25005531 23.39945984 8.91563416 C25.58928516 9.82936957 27.77846999 10.74464134 29.96704102 11.66137695 C33.31833869 13.06494532 36.67168592 14.46352224 40.02539062 15.86132812 C42.15897545 16.75231379 44.29244315 17.64358001 46.42578125 18.53515625 C47.42684402 18.9528981 48.4279068 19.37063995 49.45930481 19.80104065 C50.39094955 20.19162155 51.3225943 20.58220245 52.2824707 20.98461914 C53.09915726 21.32642715 53.91584381 21.66823517 54.75727844 22.020401 C56.87781295 22.94662988 58.94114803 23.94466081 61 25 C61.02578125 26.26328125 61.0515625 27.5265625 61.078125 28.828125 C61.94483414 59.24672694 68.41262214 87.955896 77 117 C62.64995723 117.83080896 48.71785429 114.42588248 35.125 110.0625 C34.39458496 109.8341748 33.66416992 109.60584961 32.91162109 109.37060547 C28.32149832 107.81127121 23.95757002 106.00511617 21 102 C19.56413675 98.48850537 18.85450833 94.90185589 18.125 91.1875 C17.88652344 90.07238037 17.64804688 88.95726074 17.40234375 87.80834961 C16.72491716 84.60024467 16.07164184 81.38836215 15.43225098 78.17248535 C14.97629616 75.88086493 14.51544595 73.59026717 14.05371094 71.29980469 C12.68311082 64.49334035 11.31838034 57.6857866 9.97680664 50.87353516 C7.76436123 39.65828766 5.41304037 28.49071259 2.81445312 17.35766602 C1.48136866 11.56530007 0.5328053 5.92210027 0 0 Z " fill="#453D83" transform="translate(167,158)"/>
<path d="M0 0 C12.54093034 15.7112568 11.66105972 44.93465762 9.71142578 63.79101562 C6.24802322 88.83908673 -5.77162683 117.04790992 -25.1875 133.875 C-26.115625 134.57625 -27.04375 135.2775 -28 136 C-28.79921875 135.28714844 -29.5984375 134.57429687 -30.421875 133.83984375 C-37.55528392 127.58321551 -44.5752508 122.44766039 -53 118 C-52.236875 117.360625 -51.47375 116.72125 -50.6875 116.0625 C-45.40564275 110.77137308 -44.49897697 102.27897051 -43.1875 95.1875 C-41.56785792 86.76665171 -39.81437488 78.38100755 -38 70 C-36.25242973 61.90690439 -34.53693568 53.81121078 -32.9375 45.6875 C-31.46701724 38.2600931 -29.94757808 30.84400277 -28.375 23.4375 C-28.16866943 22.44258545 -27.96233887 21.4476709 -27.74975586 20.42260742 C-27.5513208 19.49810791 -27.35288574 18.5736084 -27.1484375 17.62109375 C-26.97489746 16.8005249 -26.80135742 15.97995605 -26.62255859 15.13452148 C-26 13 -26 13 -24 10 C-21.56982422 8.74145508 -21.56982422 8.74145508 -18.5546875 7.51953125 C-17.47832031 7.07802734 -16.40195312 6.63652344 -15.29296875 6.18164062 C-14.16503906 5.72982422 -13.03710938 5.27800781 -11.875 4.8125 C-10.73933594 4.34908203 -9.60367188 3.88566406 -8.43359375 3.40820312 C-5.62566042 2.26379332 -2.81449996 1.12814171 0 0 Z " fill="#FED892" transform="translate(371,147)"/>
<path d="M0 0 C3.38967891 2.94190098 6.72296906 5.93322104 10 9 C13.12197478 7.6910428 13.12197478 7.6910428 15 5 C16.86328125 5.2109375 16.86328125 5.2109375 19 6 C20.16796875 8.0390625 20.16796875 8.0390625 21.1875 10.625 C23.86486509 16.4848934 27.70020247 19.51298725 33 23 C32.7890625 24.86328125 32.7890625 24.86328125 32 27 C29.9609375 28.16796875 29.9609375 28.16796875 27.375 29.1875 C21.5151066 31.86486509 18.48701275 35.70020247 15 41 C13.13671875 40.7890625 13.13671875 40.7890625 11 40 C9.83203125 37.9609375 9.83203125 37.9609375 8.8125 35.375 C6.13513491 29.5151066 2.29979753 26.48701275 -3 23 C-2.6875 21.125 -2.6875 21.125 -2 19 C-1.01 18.34 -0.02 17.68 1 17 C-9.28968922 12.70278739 -19.58254741 8.41324125 -29.87841797 4.13085938 C-33.24004793 2.73262047 -36.60101906 1.33281668 -39.96142578 -0.06835938 C-43.87639369 -1.7003825 -47.79332543 -3.32760356 -51.71173096 -4.95135498 C-53.18973578 -5.56469436 -54.66707848 -6.17963186 -56.14373779 -6.79620361 C-58.20735114 -7.65750172 -60.2732707 -8.51301997 -62.33984375 -9.3671875 C-63.50894287 -9.85300293 -64.67804199 -10.33881836 -65.88256836 -10.83935547 C-68.61995441 -11.85850601 -71.12585259 -12.5351945 -74 -13 C-74.72316406 -13.12503906 -75.44632812 -13.25007813 -76.19140625 -13.37890625 C-82.88866966 -13.89747525 -88.04916272 -12.04406825 -94.10546875 -9.5078125 C-94.97846619 -9.15023361 -95.85146362 -8.79265472 -96.75091553 -8.42424011 C-99.50481521 -7.29270053 -102.25287246 -6.14787228 -105 -5 C-105.85699493 -4.6439267 -106.71398987 -4.28785339 -107.59695435 -3.92098999 C-112.75862325 -1.77635771 -117.91257399 0.38621439 -123.06350708 2.55648804 C-136.84661813 8.3591698 -150.63754846 14.14662388 -164.47155762 19.82705688 C-165.85900867 20.39800648 -167.24533682 20.97169289 -168.63049316 21.54818726 C-170.52274274 22.33508419 -172.4194531 23.11122923 -174.31640625 23.88671875 C-175.37287354 24.32201904 -176.42934082 24.75731934 -177.51782227 25.20581055 C-180 26 -180 26 -182 25 C-159.11813814 -2.83886095 -131.11724684 -23.44202154 -94.34985352 -27.79931641 C-59.98256044 -30.7343725 -26.76163891 -22.3331794 0 0 Z " fill="#FED791" transform="translate(335,97)"/>
<path d="M0 0 C2.97 0.99 5.94 1.98 9 3 C10.02609375 3.19078125 11.0521875 3.3815625 12.109375 3.578125 C15.62806876 4.47341394 17.39332999 5.43092619 20 8 C22.67978466 14.02799287 23.34638015 20.87058581 24.38134766 27.33154297 C25.41222897 33.44441693 26.7095107 39.50086512 27.98165894 45.56729126 C28.43908637 47.75759601 28.88972643 49.94918966 29.33813477 52.14135742 C31.65465623 63.45844053 34.10834741 74.74127072 36.66015625 86.0078125 C37.52411374 89.82824837 38.34713837 93.65252832 39.12109375 97.4921875 C39.29294189 98.32556641 39.46479004 99.15894531 39.6418457 100.01757812 C39.95012891 101.52176337 40.24794645 103.02815763 40.53198242 104.53710938 C41.45158373 108.95641018 42.92963942 111.70031789 46 115 C45.27296875 115.46148437 44.5459375 115.92296875 43.796875 116.3984375 C36.03363107 121.43459318 28.98861923 126.9531096 22 133 C20.89134015 132.08877273 19.78827781 131.17073341 18.6875 130.25 C17.76517578 129.48429687 17.76517578 129.48429687 16.82421875 128.703125 C12.822799 124.96732412 11.47746752 121.8104091 10.359375 116.44140625 C10.09382812 115.16845703 9.82828125 113.89550781 9.5546875 112.58398438 C9.42288086 111.92358154 9.29107422 111.26317871 9.15527344 110.58276367 C8.75136895 108.56932414 8.32614435 106.56123592 7.8984375 104.55273438 C5.38165395 92.2366921 5.38165395 92.2366921 8 87 C8.37510464 83.74909308 8.66540869 81.15611549 6.98828125 78.2421875 C4.82034584 75.54691644 3.30946812 74.10315604 0 73 C0 48.91 0 24.82 0 0 Z " fill="#FCD692" transform="translate(147,150)"/>
<path d="M0 0 C3.9656446 1.61074876 6.66763651 4.38414752 9.6875 7.3125 C21.78501798 18.73600348 35.49726809 28.36368633 49.20458984 37.75048828 C50.89223836 38.92500353 52.53597924 40.16190312 54.17578125 41.40234375 C56.83478703 43.22946171 56.83478703 43.22946171 59.5859375 42.91796875 C79.19011735 35.46330489 97.95147495 16.83340167 112.9765625 2.58203125 C115 1 115 1 118 1 C117.66226563 1.98097656 117.32453125 2.96195312 116.9765625 3.97265625 C116.5230861 5.33495722 116.07280975 6.69832581 115.625 8.0625 C115.386604 8.78260254 115.14820801 9.50270508 114.90258789 10.24462891 C113.33376798 15.23152678 112.71969766 19.66233005 112.4375 24.875 C111.74379112 30.64786435 110.55223704 33.26684083 106.125 37.0625 C104.44845066 38.27131637 102.76809765 39.47629194 101.04882812 40.62353516 C98.69778489 42.20303727 96.40550797 43.85344974 94.109375 45.51171875 C67.78942743 64.37033241 67.78942743 64.37033241 57.5625 63.8125 C49.81227908 62.04490575 43.63204183 59.54595595 37.1875 54.875 C36.15665283 54.14639771 36.15665283 54.14639771 35.10498047 53.40307617 C33.05932147 51.94953158 31.02732148 50.47898509 29 49 C28.42749512 48.58347168 27.85499023 48.16694336 27.26513672 47.73779297 C10.42525338 35.42525338 10.42525338 35.42525338 6 31 C5.89031371 29.00127206 5.81365936 27.00072285 5.75 25 C5.21691177 16.23566816 2.72469115 8.3047782 0 0 Z " fill="#FDCB70" transform="translate(197,412)"/>
<path d="M0 0 C1.98 0.66 3.96 1.32 6 2 C6 26.42 6 50.84 6 76 C7.32 76.33 8.64 76.66 10 77 C13.51405133 80.35432172 14.85093793 81.76491425 15.4375 86.625 C15 90 15 90 13.93212891 91.82446289 C10.19592055 100.54456575 17.07586861 118.07074345 19.11914062 127.29272461 C19.59663918 129.45597381 20.0680071 131.62049652 20.5390625 133.78515625 C20.81959473 135.05238525 21.10012695 136.31961426 21.38916016 137.62524414 C21.91385555 140.52407082 22.13062629 143.06859229 22 146 C17.92830176 146.76382268 14.07818429 147.1282321 9.9375 147.1328125 C8.81085938 147.13410156 7.68421875 147.13539063 6.5234375 147.13671875 C5.36070312 147.13285156 4.19796875 147.12898437 3 147.125 C1.25589844 147.13080078 1.25589844 147.13080078 -0.5234375 147.13671875 C-1.65007812 147.13542969 -2.77671875 147.13414062 -3.9375 147.1328125 C-4.95714844 147.13168457 -5.97679687 147.13055664 -7.02734375 147.12939453 C-10.08896192 146.99612764 -12.99050479 146.56456067 -16 146 C-15.70715299 138.40062017 -14.47538007 131.23685812 -12.66430664 123.87255859 C-11.22256183 117.99984703 -9.90915472 112.11002177 -8.6875 106.1875 C-8.50405029 105.33349609 -8.32060059 104.47949219 -8.1315918 103.59960938 C-7.96828369 102.79716797 -7.80497559 101.99472656 -7.63671875 101.16796875 C-7.48936279 100.45922607 -7.34200684 99.7504834 -7.19018555 99.02026367 C-6.88010474 95.72640144 -7.96433925 93.10698225 -9 90 C-9.37066773 84.99598565 -9.09881835 82.01698676 -6 78 C-3 76 -3 76 0 76 C0 50.92 0 25.84 0 0 Z " fill="#554B9E" transform="translate(141,147)"/>
<path d="M0 0 C7.41496429 4.6608347 9.99853031 13.26839388 12.421875 21.28515625 C13.57686909 26.70894607 14.03297756 32.15158376 14.10546875 37.69140625 C14.2384092 47.16100502 15.03284783 55.11139987 19.00463867 63.79907227 C20.88833451 67.99778012 21.32739802 70.56927875 20 75 C18.73046875 77.45703125 18.73046875 77.45703125 17.1875 79.8125 C14.31069647 84.38072536 12.04829831 89.01179117 10 94 C7.60926851 91.06810006 6.15892693 88.27856712 4.8125 84.75 C4.46832031 83.85796875 4.12414062 82.9659375 3.76953125 82.046875 C3.51558594 81.37140625 3.26164062 80.6959375 3 80 C2.32453125 80.04640625 1.6490625 80.0928125 0.953125 80.140625 C0.06109375 80.17671875 -0.8309375 80.2128125 -1.75 80.25 C-2.63171875 80.29640625 -3.5134375 80.3428125 -4.421875 80.390625 C-7.87799953 79.86696977 -8.88483389 78.74560438 -11 76 C-12.23046875 73.23046875 -12.23046875 73.23046875 -13.1875 70.1875 C-13.51105469 69.19105469 -13.83460937 68.19460938 -14.16796875 67.16796875 C-16.04652403 60.01534748 -16.18273302 53.03340853 -16.1875 45.6875 C-16.19974609 44.70587891 -16.21199219 43.72425781 -16.22460938 42.71289062 C-16.25492628 27.44327547 -12.23868677 12.41056932 -1.3203125 1.2890625 C-0.88460937 0.86367187 -0.44890625 0.43828125 0 0 Z " fill="#CAEC72" transform="translate(77,195)"/>
<path d="M0 0 C10.32610586 7.43479622 14.56971914 19.32565152 16.6953125 31.57763672 C18.37988961 44.97056464 18.23022317 59.79836984 13.0625 72.4375 C12.58490234 73.64212891 12.58490234 73.64212891 12.09765625 74.87109375 C10.92632206 77.1428985 10.07397406 78.49947499 8 80 C5.51953125 80.29296875 5.51953125 80.29296875 2.8125 80.1875 C1.224375 80.125625 -0.36375 80.06375 -2 80 C-3.98 84.62 -5.96 89.24 -8 94 C-10.67718211 89.98422684 -12.83508187 85.71587687 -15.078125 81.44921875 C-16.61677654 78.53841154 -18.17193763 75.74209356 -20 73 C-19.65327246 68.55445766 -18.22302476 64.95215743 -16.5 60.875 C-13.96354386 54.00482736 -13.50124957 47.82835418 -13.3059082 40.55102539 C-12.88301967 26.18513242 -10.61195756 10.61195756 0 0 Z " fill="#CAEC72" transform="translate(434,195)"/>
<path d="M0 0 C1.01790619 0.00215515 2.03581238 0.0043103 3.08456421 0.00653076 C17.68763423 0.05618106 32.03429136 0.2859388 46.375 3.3125 C47.37644043 3.52181152 48.37788086 3.73112305 49.40966797 3.94677734 C63.31586894 6.93437989 76.89749744 10.78251702 90.375 15.3125 C90.375 15.6425 90.375 15.9725 90.375 16.3125 C87.83313807 16.19084918 85.29154451 16.06554339 82.75 15.9375 C81.52566505 15.87668243 81.52566505 15.87668243 80.27659607 15.81463623 C75.25492679 15.55311801 70.24484042 15.23458372 65.2331543 14.82275391 C44.6612123 13.18039339 24.162857 13.00188923 3.53442383 13.05175781 C-1.23391597 13.06315948 -6.00203256 13.05637254 -10.77036476 13.04486847 C-46.30107828 12.86948987 -46.30107828 12.86948987 -81.625 16.3125 C-84.3043948 16.42001986 -86.94132049 16.3595821 -89.625 16.3125 C-79.07656969 9.28021313 -63.50712176 7.08144069 -51.25 4.5 C-50.33839111 4.30559326 -49.42678223 4.11118652 -48.48754883 3.91088867 C-32.33290788 0.66110459 -16.43611702 -0.06258573 0 0 Z " fill="#554B99" transform="translate(255.625,-0.3125)"/>
<path d="M0 0 C1.3547862 0.28877529 2.70879302 0.58120717 4.0625 0.875 C4.89136719 1.05417969 5.72023438 1.23335937 6.57421875 1.41796875 C9 2 9 2 12.375 3.1875 C19.84563358 4.86195235 26.98601048 3.37182021 34.02734375 0.62109375 C36 0 36 0 40 0 C39.57244678 4.6175748 38.85119965 8.6608636 37.375 13.0625 C35.06463721 20.52587785 37.40950016 26.88995513 39.37890625 34.23046875 C40 37 40 37 40 41 C35.0087279 40.59747806 30.62702086 39.97115425 25.875 38.375 C18.81987698 36.16077678 13.2310171 38.1081748 6.4296875 40.37890625 C3.86003057 41.03577997 1.64097077 41.10808243 -1 41 C-0.57520319 36.41219448 0.12980931 32.42517969 1.625 28.0625 C4.05891829 20.24771333 2.1712245 13.80426796 -0.4765625 6.26171875 C-1.05220142 3.77444312 -0.81978523 2.38830765 0 0 Z " fill="#FFFEFC" transform="translate(332,28)"/>
<path d="M0 0 C2 1 2 1 2.89453125 3.40625 C3.19746094 4.4271875 3.50039063 5.448125 3.8125 6.5 C5.59350519 12.1185673 7.91460309 16.99255255 11 22 C-0.38576542 35.56188441 -13.27271355 46.62473103 -27.5 57.0625 C-28.29027588 57.64757324 -29.08055176 58.23264648 -29.89477539 58.83544922 C-30.64106201 59.37572754 -31.38734863 59.91600586 -32.15625 60.47265625 C-32.82462891 60.96000244 -33.49300781 61.44734863 -34.18164062 61.94946289 C-36 63 -36 63 -39 63 C-38.56429688 62.41734375 -38.12859375 61.8346875 -37.6796875 61.234375 C-29.69387934 50.2409248 -24.92213805 38.81789477 -21.06640625 25.86328125 C-20.03751716 23.10073289 -19.18391535 21.6701081 -17.1875 19.5625 C-13.39738921 15.44176253 -9.72021011 11.23814152 -6.0625 7 C-4.90777942 5.66646978 -3.75284837 4.33312176 -2.59765625 3 C-1.74042969 2.01 -0.88320313 1.02 0 0 Z " fill="#534B97" transform="translate(368,383)"/>
<path d="M0 0 C3.65958281 2.74949391 6.47982667 5.59875664 9.3125 9.1875 C12.12857333 12.75327671 14.99304434 15.9665534 18.25 19.125 C22.41585833 23.71812586 23.62177938 28.54486302 25.13549805 34.40625 C27.09486489 41.87300417 30.27177295 48.2503188 34 55 C34.44085938 55.79921875 34.88171875 56.5984375 35.3359375 57.421875 C36.20330021 58.95975214 37.09691819 60.48282255 38 62 C33.74040909 60.51943587 30.25417177 58.30934099 26.625 55.6875 C26.01922119 55.25091064 25.41344238 54.81432129 24.78930664 54.36450195 C14.73125899 46.98584695 5.49025072 38.63637555 -3.375 29.875 C-3.92873291 29.33061279 -4.48246582 28.78622559 -5.05297852 28.2253418 C-7.42341559 25.83527377 -8.92071379 24.23785862 -10 21 C-8.890625 18.87109375 -8.890625 18.87109375 -7.25 16.4375 C-4.46347297 12.04112324 -2.83634388 7.95816015 -1.54296875 2.93359375 C-1 1 -1 1 0 0 Z " fill="#534A97" transform="translate(143,383)"/>
<path d="M0 0 C3.47775179 1.51553404 5.9557984 3.5773456 8.75 6.125 C9.54921875 6.84945313 10.3484375 7.57390625 11.171875 8.3203125 C11.77515625 8.87460937 12.3784375 9.42890625 13 10 C6.65076794 27.86924022 -0.84430211 45.51979487 -12 61 C-12.33 61 -12.66 61 -13 61 C-12.75636719 59.34097656 -12.75636719 59.34097656 -12.5078125 57.6484375 C-11.88354898 52.63447644 -11.85305748 47.67178044 -11.875 42.625 C-11.87113281 41.74328125 -11.86726563 40.8615625 -11.86328125 39.953125 C-11.86981249 35.49882106 -12.10340036 31.38039102 -12.875 26.9921875 C-13.56836123 20.69487988 -10.51960308 16.57291915 -7.125 11.5 C-6.55652344 10.60796875 -5.98804688 9.7159375 -5.40234375 8.796875 C-4.35715543 7.15833748 -3.30118955 5.52658729 -2.23095703 3.90429688 C-0.96669553 2.02503857 -0.96669553 2.02503857 0 0 Z " fill="#534A98" transform="translate(408,323)"/>
<path d="M0 0 C4.10328932 3.66260192 6.88633047 8.02075406 9.8125 12.625 C10.32748047 13.38167969 10.84246094 14.13835937 11.37304688 14.91796875 C14.64869335 20.1011202 15.41742816 23.39992488 14.41381836 29.43798828 C13.70713476 33.81317276 13.85560619 38.20321021 13.875 42.625 C13.87113281 43.51445312 13.86726563 44.40390625 13.86328125 45.3203125 C13.87110113 50.63783311 14.2273188 55.73840899 15 61 C2.87940513 46.6050601 -5.40154837 27.82559776 -11 10 C-9.93458984 9.04287109 -9.93458984 9.04287109 -8.84765625 8.06640625 C-7.46900391 6.82697266 -7.46900391 6.82697266 -6.0625 5.5625 C-4.68771484 4.32693359 -4.68771484 4.32693359 -3.28515625 3.06640625 C-1.61665644 1.56046061 -1.61665644 1.56046061 0 0 Z " fill="#524A98" transform="translate(102,323)"/>
<path d="M0 0 C0.80822128 2.82758123 1.10996364 5.29398593 1.0625 8.23046875 C1.05476563 9.03419922 1.04703125 9.83792969 1.0390625 10.66601562 C1.01332334 12.32747867 0.98728886 13.98893717 0.9609375 15.65039062 C0.92121631 19.81118479 1.07913914 23.65956083 1.78125 27.765625 C2.21231064 31.27684484 2.12271873 31.80006206 0.15625 35.00390625 C-0.7203125 35.84824219 -1.596875 36.69257813 -2.5 37.5625 C-3.42039062 38.48160156 -4.34078125 39.40070313 -5.2890625 40.34765625 C-6.63097656 41.66056641 -6.63097656 41.66056641 -8 43 C-9.30748921 44.48622837 -10.60147808 45.98456452 -11.875 47.5 C-14.04408002 50.0723763 -16.25336146 52.05000554 -19 54 C-19.04898437 52.70964844 -19.09796875 51.41929687 -19.1484375 50.08984375 C-19.22351803 48.37237653 -19.29906354 46.65492959 -19.375 44.9375 C-19.4059375 44.08994141 -19.436875 43.24238281 -19.46875 42.36914062 C-19.65290512 38.39445919 -19.91942001 34.88712811 -21.2265625 31.11328125 C-22 28 -22 28 -20.9375 26.015625 C-20.298125 25.43296875 -19.65875 24.8503125 -19 24.25 C-14.28994267 19.51506561 -10.42467877 14.33691862 -6.5 8.9375 C-5.86449219 8.06706055 -5.22898437 7.19662109 -4.57421875 6.29980469 C-3.04565331 4.20260624 -1.52089139 2.10276699 0 0 Z " fill="#FDCC6F" transform="translate(367,351)"/>
<path d="M0 0 C0.52851563 0.66257812 1.05703125 1.32515625 1.6015625 2.0078125 C4.5134207 5.64052159 7.44195941 9.25938545 10.375 12.875 C10.92671875 13.55691406 11.4784375 14.23882812 12.046875 14.94140625 C12.87058594 15.95654297 12.87058594 15.95654297 13.7109375 16.9921875 C14.24944336 17.66475586 14.78794922 18.33732422 15.34277344 19.03027344 C16.97300448 21.02511911 16.97300448 21.02511911 18.82128906 22.82128906 C20.45959635 24.48940069 21.83780725 25.96995498 23 28 C22.4140625 31.31640625 22.4140625 31.31640625 21 35 C20.60011818 38.30352192 20.49634039 41.61327888 20.375 44.9375 C20.33632812 45.81212891 20.29765625 46.68675781 20.2578125 47.58789062 C20.1643893 49.72494631 20.08114602 51.86244294 20 54 C18 54 18 54 16.6953125 52.7421875 C15.55595006 51.38742321 14.42111836 50.02884442 13.2890625 48.66796875 C11.52196275 46.60836273 9.72925038 44.67592481 7.8359375 42.73828125 C-0.60060157 33.90570108 -0.60060157 33.90570108 -1.546875 29.390625 C-1.25 26.9375 -1.25 26.9375 -0.64453125 24.3515625 C0.28797753 19.50251684 0.11986737 14.73666898 0.0625 9.8125 C0.05307668 7.94401195 0.04393882 6.07552242 0.03515625 4.20703125 C0.0241339 2.80468185 0.01269347 1.40233527 0 0 Z " fill="#FCCB6F" transform="translate(144,351)"/>
<path d="M0 0 C1.86328125 0.2109375 1.86328125 0.2109375 4 1 C5.16796875 3.0390625 5.16796875 3.0390625 6.1875 5.625 C8.86486509 11.4848934 12.70020247 14.51298725 18 18 C17.7890625 19.86328125 17.7890625 19.86328125 17 22 C14.9609375 23.16796875 14.9609375 23.16796875 12.375 24.1875 C6.5151066 26.86486509 3.48701275 30.70020247 0 36 C-1.86328125 35.7890625 -1.86328125 35.7890625 -4 35 C-5.16796875 32.9609375 -5.16796875 32.9609375 -6.1875 30.375 C-8.86486509 24.5151066 -12.70020247 21.48701275 -18 18 C-17.7890625 16.13671875 -17.7890625 16.13671875 -17 14 C-14.9609375 12.83203125 -14.9609375 12.83203125 -12.375 11.8125 C-6.5151066 9.13513491 -3.48701275 5.29979753 0 0 Z " fill="#FCE4BD" transform="translate(350,102)"/>
<path d="M0 0 C1.86328125 0.2109375 1.86328125 0.2109375 4 1 C5.16796875 3.0390625 5.16796875 3.0390625 6.1875 5.625 C8.86486509 11.4848934 12.70020247 14.51298725 18 18 C17.7890625 19.86328125 17.7890625 19.86328125 17 22 C14.9609375 23.16796875 14.9609375 23.16796875 12.375 24.1875 C6.5151066 26.86486509 3.48701275 30.70020247 0 36 C-1.859375 35.7890625 -1.859375 35.7890625 -4 35 C-5.203125 32.9609375 -5.203125 32.9609375 -6.25 30.375 C-8.49174287 25.45581502 -11.10352527 22.75008677 -15.42578125 19.5703125 C-15.94527344 19.05210937 -16.46476563 18.53390625 -17 18 C-17 16.68 -17 15.36 -17 14 C-16.35933594 13.74347656 -15.71867188 13.48695313 -15.05859375 13.22265625 C-8.03962837 10.11590108 -4.19801344 6.38042439 0 0 Z " fill="#FFFDFA" transform="translate(220,292)"/>
<path d="M0 0 C0.33 0 0.66 0 1 0 C1 24.75 1 49.5 1 75 C-1.475 75.99 -1.475 75.99 -4 77 C-12.88329745 51.84309883 -7.71605383 24.64257508 0 0 Z " fill="#FED68E" transform="translate(139,148)"/>
<path d="M0 0 C0.66 0 1.32 0 2 0 C3.294174 2.56126064 4.58540784 5.12393358 5.875 7.6875 C6.23980469 8.40873047 6.60460937 9.12996094 6.98046875 9.87304688 C7.68832988 11.28233404 8.38478305 12.69741795 9.06884766 14.1184082 C10.03744159 16.13975244 10.03744159 16.13975244 11.515625 18.5234375 C12.3251677 22.66255099 10.00691299 25.47956282 7.875 28.9375 C7.47023438 29.62779297 7.06546875 30.31808594 6.6484375 31.02929688 C4.23334074 35.11251334 1.66497477 39.07622379 -1 43 C-4.07096947 41.46451527 -4.2404125 39.047509 -5.375 35.875 C-6.85633736 31.40154095 -6.85633736 31.40154095 -9.2578125 27.41088867 C-10.70530098 25.55154728 -11.49845096 24.3150126 -12 22 C-10.71295283 17.82275535 -8.52130591 14.27632679 -6.25 10.5625 C-5.36441406 9.03592773 -5.36441406 9.03592773 -4.4609375 7.47851562 C-2.99987128 4.96878091 -1.51309382 2.47859481 0 0 Z " fill="#FDCC6F" transform="translate(397,302)"/>
<path d="M0 0 C0.66 0 1.32 0 2 0 C3.62568217 3.08297412 5.25042584 6.16644189 6.875 9.25 C7.33519531 10.12269531 7.79539062 10.99539063 8.26953125 11.89453125 C8.71425781 12.73886719 9.15898438 13.58320313 9.6171875 14.453125 C10.02565918 15.22817383 10.43413086 16.00322266 10.85498047 16.80175781 C11.23283691 17.52717773 11.61069336 18.25259766 12 19 C12.39928711 19.70785645 12.79857422 20.41571289 13.20996094 21.14501953 C13.47067383 21.75716309 13.73138672 22.36930664 14 23 C13.0234375 25.2265625 13.0234375 25.2265625 11.375 27.625 C8.18212587 32.54612709 5.9905352 37.49675562 4 43 C0.44341298 39.67867109 -1.6932068 35.73579352 -4.125 31.5625 C-4.58003906 30.79873047 -5.03507812 30.03496094 -5.50390625 29.24804688 C-5.93832031 28.50748047 -6.37273437 27.76691406 -6.8203125 27.00390625 C-7.21492676 26.33174072 -7.60954102 25.6595752 -8.01611328 24.96704102 C-9.02397967 22.95205851 -9.65094357 21.22534248 -10 19 C-8.92578125 16.73828125 -8.92578125 16.73828125 -7.3125 14.3125 C-4.37300654 9.70112681 -2.07453581 5.05210486 0 0 Z " fill="#FDCC6F" transform="translate(113,302)"/>
<path d="M0 0 C1.98 0.66 3.96 1.32 6 2 C6 26.09 6 50.18 6 75 C4.02 75 2.04 75 0 75 C0 50.25 0 25.5 0 0 Z " fill="#453D83" transform="translate(141,147)"/>
<path d="M0 0 C0.33 0 0.66 0 1 0 C1.00257812 1.258125 1.00515625 2.51625 1.0078125 3.8125 C1.17797458 13.55380121 1.91637456 21.86270142 6.00439453 30.796875 C7.88695396 34.99686395 8.32773163 37.56816519 7 42 C5.73046875 44.45703125 5.73046875 44.45703125 4.1875 46.8125 C1.31069647 51.38072536 -0.95170169 56.01179117 -3 61 C-5.27524006 58.16086759 -6.89322136 55.4119976 -8.3125 52.0625 C-8.67988281 51.22847656 -9.04726562 50.39445312 -9.42578125 49.53515625 C-10.16513708 46.27092542 -9.4696729 44.97119629 -8 42 C-7.5978125 41.05382812 -7.195625 40.10765625 -6.78125 39.1328125 C-5.92896083 37.1320117 -5.07480169 35.13200639 -4.21875 33.1328125 C-1.31395711 25.66600513 -0.61154232 19.00145168 -0.375 11.0625 C-0.33632812 9.99708984 -0.29765625 8.93167969 -0.2578125 7.83398438 C-0.16413854 5.22282266 -0.07841665 2.61165696 0 0 Z " fill="#FBCC6D" transform="translate(90,228)"/>
<path d="M0 0 C0.33 0 0.66 0 1 0 C1.15855469 1.01578125 1.31710937 2.0315625 1.48046875 3.078125 C3.09648487 12.81815459 5.45171439 21.67343797 10.33203125 30.375 C11.31132172 34.22343975 9.77864979 36.89612991 8.125 40.3125 C7.82980469 40.95767578 7.53460938 41.60285156 7.23046875 42.26757812 C6.50265055 43.85234357 5.75339577 45.42723312 5 47 C2.32281789 42.98422684 0.16491813 38.71587687 -2.078125 34.44921875 C-3.61677654 31.53841154 -5.17193763 28.74209356 -7 26 C-6.53434521 20.14605405 -4.21111866 14.88529133 -2.15625 9.4375 C-1.09046088 6.26893776 -0.44350781 3.30614914 0 0 Z " fill="#FCCC6F" transform="translate(421,242)"/>
<path d="M0 0 C0.70745361 0.53113403 0.70745361 0.53113403 1.42919922 1.07299805 C3.61884215 2.71616553 5.80936166 4.35815983 8 6 C8.7312207 6.54865723 9.46244141 7.09731445 10.21582031 7.66259766 C20.24520137 15.1725525 30.33221412 22.42182209 41 29 C37.65173913 30.11608696 36.96895461 29.9122431 33.74609375 28.84765625 C32.89950195 28.56954102 32.05291016 28.29142578 31.18066406 28.00488281 C30.27541992 27.69389648 29.37017578 27.38291016 28.4375 27.0625 C27.5103418 26.74764648 26.58318359 26.43279297 25.62792969 26.10839844 C19.23323166 23.888229 12.95640819 21.45171736 6.75 18.75 C5.98228271 18.42136963 5.21456543 18.09273926 4.42358398 17.75415039 C2.57465156 16.92190793 0.78034707 15.97033134 -1 15 C-1.33 14.01 -1.66 13.02 -2 12 C-1.67 11.34 -1.34 10.68 -1 10 C-0.77377919 8.29636178 -0.59111527 6.58671299 -0.4375 4.875 C-0.29166667 3.25 -0.14583333 1.625 0 0 Z " fill="#564F94" transform="translate(203,443)"/>
<path d="M0 0 C0.33 0 0.66 0 1 0 C1.06058594 0.67546875 1.12117188 1.3509375 1.18359375 2.046875 C1.26738281 2.93890625 1.35117187 3.8309375 1.4375 4.75 C1.51871094 5.63171875 1.59992188 6.5134375 1.68359375 7.421875 C1.96238465 9.69350452 2.38790577 11.79851823 3 14 C-4.32715217 18.00490305 -11.84318728 21.24719413 -19.625 24.25 C-20.92957153 24.76143555 -20.92957153 24.76143555 -22.26049805 25.28320312 C-28.09716197 27.49621882 -33.84539047 28.96791171 -40 30 C-35.39750876 26.16929666 -30.48655811 22.83370567 -25.5625 19.4375 C-12.19915841 10.45587554 -12.19915841 10.45587554 0 0 Z " fill="#564E95" transform="translate(308,443)"/>
<path d="M0 0 C0.33 0 0.66 0 1 0 C0.03644647 16.8929385 0.03644647 16.8929385 -1 24 C-1.66 24 -2.32 24 -3 24 C-5.55940293 14.48155936 -4.20579635 8.80282957 0 0 Z " fill="#5A5294" transform="translate(431,276)"/>
<path d="M0 0 C3.13915857 3.73709354 6 8.02298499 6 13.0546875 C5.75908043 15.04980266 5.38186966 17.02700676 5 19 C4.7215625 20.485 4.7215625 20.485 4.4375 22 C4.293125 22.66 4.14875 23.32 4 24 C3.34 24 2.68 24 2 24 C1.66029235 21.50072231 1.32811968 19.00080405 1 16.5 C0.90460938 15.80390625 0.80921875 15.1078125 0.7109375 14.390625 C0.0838378 9.55299871 -0.08789528 4.87818804 0 0 Z " fill="#5A5294" transform="translate(80,276)"/>
</svg>
