<?xml version="1.0" encoding="UTF-8"?>
<svg version="1.1" xmlns="http://www.w3.org/2000/svg" width="512" height="512">
<path d="M0 0 C1.29478271 0.74612549 1.29478271 0.74612549 2.61572266 1.50732422 C3.60048584 2.06669678 4.58524902 2.62606934 5.59985352 3.20239258 C6.64923096 3.81606689 7.6986084 4.42974121 8.77978516 5.06201172 C9.88394775 5.69437744 10.98811035 6.32674316 12.12573242 6.97827148 C15.56046916 8.95064859 18.98351141 10.94139228 22.40478516 12.93701172 C24.42685422 14.11030317 26.44898691 15.28348496 28.47119141 16.45654297 C32.42375683 18.75466057 36.37083629 21.06190777 40.31494141 23.37451172 C46.62048935 27.06914482 52.94772952 30.72553853 59.27978516 34.37451172 C60.35993896 34.99704834 61.44009277 35.61958496 62.55297852 36.26098633 C64.7427485 37.52277998 66.93260871 38.78441706 69.12255859 40.04589844 C74.55138458 43.1738132 79.97797797 46.3055962 85.40478516 49.43701172 C87.57144098 50.68703051 89.73810765 51.9370305 91.90478516 53.18701172 C96.23811849 55.68701172 100.57145182 58.18701172 104.90478516 60.68701172 C106.51619385 61.61646606 106.51619385 61.61646606 108.16015625 62.56469727 C110.30939717 63.80491763 112.45816672 65.04595526 114.60644531 66.2878418 C119.67697485 69.2177123 124.75187984 72.13905733 129.84393311 75.03134155 C132.24628462 76.39654836 134.64594407 77.76644843 137.04541016 79.13671875 C138.73811733 80.1007803 140.4346887 81.05804705 142.13134766 82.01513672 C143.15744141 82.60166016 144.18353516 83.18818359 145.24072266 83.79248047 C146.1435498 84.30447998 147.04637695 84.81647949 147.9765625 85.34399414 C150.68606943 87.12154619 152.43509205 88.33443063 154.40478516 90.93701172 C154.98992586 94.0239176 154.90989866 97.07045134 154.85888672 100.20361328 C154.85947083 101.14054016 154.86005493 102.07746704 154.86065674 103.04278564 C154.85787112 106.13811353 154.82675607 109.23247717 154.79541016 112.32763672 C154.78794948 114.47425816 154.78225573 116.62088641 154.77825928 118.76751709 C154.7629894 124.41641048 154.72369554 130.06489225 154.67944336 135.71362305 C154.63852008 141.47813346 154.62025453 147.2427104 154.60009766 153.00732422 C154.55720292 164.31740087 154.4889349 175.62717206 154.40478516 186.93701172 C155.55253418 186.54433105 156.7002832 186.15165039 157.8828125 185.74707031 C162.23266897 184.25905976 166.58284419 182.77198288 170.93310547 181.28515625 C172.79874941 180.64738123 174.66431229 180.009369 176.52978516 179.37109375 C177.42697266 179.06413574 178.32416016 178.75717773 179.24853516 178.44091797 C180.14517883 178.13414124 181.04182251 177.8273645 181.96563721 177.5112915 C184.67935864 176.58506149 187.39504187 175.66474971 190.11083984 174.74462891 C193.57015529 173.57065307 197.01676343 172.36718063 200.45654297 171.13720703 C201.2566983 170.85664459 202.05685364 170.57608215 202.8812561 170.28701782 C204.3627219 169.76752046 205.84066948 169.23780967 207.31381226 168.69515991 C212.33970541 166.9540332 217.09048492 166.33839364 222.40478516 166.93701172 C224.96728516 168.24951172 224.96728516 168.24951172 226.40478516 170.93701172 C227.68378401 181.19855539 225.06917331 191.98325629 223.44775391 202.08544922 C223.14062495 204.03066298 222.83393579 205.97594623 222.52766418 207.92129517 C221.88682449 211.97840291 221.23966278 216.03443923 220.58813477 220.08984375 C219.75452339 225.28283935 218.93848552 230.47842335 218.12729931 235.674963 C217.49920224 239.68418882 216.86106582 243.69176759 216.21996498 247.69893265 C215.91488243 249.61453985 215.61310205 251.53067605 215.31471825 253.4473381 C214.89696325 256.12193684 214.46553158 258.79398207 214.03051758 261.46582031 C213.85033081 262.64723099 213.85033081 262.64723099 213.66650391 263.85250854 C212.9516418 268.14103165 212.0005947 271.42087279 209.40478516 274.93701172 C203.35382045 279.03647482 192.65168803 282.93701172 185.40478516 282.93701172 C185.28247025 283.65505478 185.16015533 284.37309784 185.03413391 285.11289978 C184.39630692 287.97505657 183.48462092 290.42787995 182.33520508 293.12280273 C181.90773483 294.13057266 181.48026459 295.13834259 181.0398407 296.176651 C180.57632706 297.2538591 180.11281342 298.3310672 179.63525391 299.44091797 C179.15784256 300.55635483 178.68043121 301.67179169 178.18855286 302.82102966 C177.17816044 305.17646933 176.16513092 307.53077928 175.1496582 309.8840332 C173.5984708 313.4851516 172.06282067 317.09263609 170.52783203 320.70068359 C169.54375162 322.98950186 168.55875607 325.27792692 167.57275391 327.56591797 C167.11531296 328.6451503 166.65787201 329.72438263 166.18656921 330.83631897 C165.74964249 331.84093674 165.31271576 332.8455545 164.86254883 333.88061523 C164.48361984 334.76266129 164.10469086 335.64470734 163.71427917 336.55348206 C162.11612983 339.46241965 161.13873121 340.98521385 158.40478516 342.93701172 C154.78132892 343.9347579 151.12666591 344.4460653 147.40478516 344.93701172 C146.53867867 345.05938705 145.67257217 345.18176239 144.78022003 345.30784607 C142.1265825 345.67018609 139.47058888 346.00165149 136.81201172 346.32568359 C135.81703171 346.44955948 134.8220517 346.57343536 133.79692078 346.70106506 C131.6582892 346.96700242 129.51948735 347.23157338 127.38053131 347.49488831 C123.99161526 347.91238903 120.60326143 348.33420857 117.21502686 348.75720215 C107.58909863 349.95821264 97.96228403 351.15202219 88.33496094 352.34179688 C82.42783614 353.0721205 76.5214004 353.80781841 70.61534882 354.54676819 C68.37178167 354.8263443 66.12795196 355.10382184 63.88385773 355.37913513 C60.74858401 355.76384721 57.61422644 356.15535503 54.47998047 356.54833984 C53.55930283 356.6595668 52.63862518 356.77079376 51.69004822 356.88539124 C44.51931367 357.79586011 38.31839919 359.11787216 32.03369141 362.87841797 C31.0544873 363.45833496 30.0752832 364.03825195 29.06640625 364.63574219 C27.53234131 365.55830811 27.53234131 365.55830811 25.96728516 366.49951172 C23.82568807 367.76439352 21.68376004 369.02871517 19.54150391 370.29248047 C16.63452215 372.01728067 13.72868917 373.74394457 10.82519531 375.47460938 C8.6501845 376.76580915 6.46657114 378.04089454 4.27978516 379.31201172 C3.66047119 379.68656494 3.04115723 380.06111816 2.40307617 380.44702148 C-1.45881613 382.67567642 -4.16380097 383.63789861 -8.59521484 382.93701172 C-11.36622025 381.79969871 -13.89258703 380.3306658 -16.47021484 378.81201172 C-17.25356201 378.37477783 -18.03690918 377.93754395 -18.84399414 377.48706055 C-23.32072199 374.96140247 -27.59743837 372.27685683 -31.81005859 369.33154297 C-43.48426597 361.43449303 -53.49089038 357.84236556 -67.32958984 356.33935547 C-68.94482973 356.14473794 -70.5597801 355.94770455 -72.17445374 355.7484436 C-75.57448347 355.33277441 -78.9757458 354.93128528 -82.3788147 354.54129028 C-87.55871611 353.94589488 -92.73288697 353.30894703 -97.90649414 352.66137695 C-99.63424909 352.44561033 -101.36200687 352.22986634 -103.08976746 352.0141449 C-103.9460845 351.90716215 -104.80240154 351.80017941 -105.68466759 351.68995476 C-110.00131811 351.15205756 -114.31875006 350.62054378 -118.63623047 350.08935547 C-119.48890094 349.98426887 -120.34157141 349.87918226 -121.22008038 349.77091122 C-125.62031587 349.22919699 -130.02103224 348.69185723 -134.42260742 348.16113281 C-138.79772079 347.6332553 -143.17139228 347.09462114 -147.54429817 346.5487709 C-149.18279609 346.34626166 -150.82178652 346.147693 -152.46127129 345.95333481 C-154.72533241 345.68451247 -156.98728964 345.40196175 -159.24926758 345.11621094 C-161.16702248 344.88235184 -161.16702248 344.88235184 -163.1235199 344.64376831 C-167.74533004 343.70287493 -171.49790845 342.57354948 -174.1875 338.56225586 C-174.58243652 337.62502686 -174.97737305 336.68779785 -175.38427734 335.72216797 C-176.07602051 334.12308594 -176.07602051 334.12308594 -176.78173828 332.49169922 C-177.25643555 331.33927734 -177.73113281 330.18685547 -178.22021484 328.99951172 C-178.99331811 327.18821306 -179.76643271 325.37691915 -180.54016113 323.56588745 C-181.34888169 321.66392059 -182.14815018 319.75819561 -182.94580078 317.8515625 C-184.60625344 313.8932704 -186.31944649 309.95908403 -188.04052734 306.02685547 C-188.87340397 304.11637833 -189.70537137 302.20550896 -190.5368042 300.29440308 C-191.33579029 298.45866543 -192.1366342 296.62373674 -192.9375 294.78881836 C-193.65752197 293.11420532 -193.65752197 293.11420532 -194.39208984 291.40576172 C-194.81844727 290.42027344 -195.24480469 289.43478516 -195.68408203 288.41943359 C-196.59521484 285.93701172 -196.59521484 285.93701172 -196.59521484 282.93701172 C-197.33384766 282.76685547 -198.07248047 282.59669922 -198.83349609 282.42138672 C-218.98149901 277.60839492 -218.98149901 277.60839492 -222.59521484 272.93701172 C-223.44184875 269.76216125 -223.44184875 269.76216125 -224.1003418 265.84838867 C-224.22256513 265.14106 -224.34478846 264.43373133 -224.47071552 263.70496845 C-224.85716704 261.45077291 -225.2266925 259.19420017 -225.59521484 256.93701172 C-225.83505303 255.51875569 -226.0757917 254.10065162 -226.31747437 252.68270874 C-227.06891366 248.24327039 -227.79342482 243.79965097 -228.51318359 239.35498047 C-228.64282312 238.5559411 -228.77246265 237.75690174 -228.90603065 236.93364906 C-229.58932382 232.71975302 -230.26995783 228.50543723 -230.94848633 224.29077148 C-231.64387282 219.97522761 -232.34929116 215.66138421 -233.05683422 211.34781933 C-233.60565063 207.98990634 -234.14675198 204.63078172 -234.68584633 201.27129555 C-234.94247905 199.68061764 -235.20197548 198.09039868 -235.46455956 196.50069237 C-239.1881315 173.91507329 -239.1881315 173.91507329 -236.15771484 168.24951172 C-230.37507974 165.28767423 -224.29086593 166.84633271 -218.37280273 168.6652832 C-216.01647976 169.44895951 -213.66501262 170.24734459 -211.31787109 171.05810547 C-209.44632607 171.68713524 -209.44632607 171.68713524 -207.53697205 172.32887268 C-204.24406004 173.43600189 -200.95696056 174.55948641 -197.67077637 175.68640137 C-194.31522581 176.8334051 -190.95387976 177.96316581 -187.59326172 179.09521484 C-182.69669658 180.7484855 -177.801905 182.40686101 -172.91186523 184.0793457 C-171.93085342 184.41465805 -170.94984161 184.7499704 -169.93910217 185.09544373 C-167.59521484 185.93701172 -167.59521484 185.93701172 -165.59521484 186.93701172 C-165.60853851 185.74541946 -165.62186218 184.55382721 -165.6355896 183.3261261 C-165.75719183 172.09938772 -165.84714962 160.87278286 -165.90608788 149.64553547 C-165.93740751 143.87335589 -165.97989314 138.10170771 -166.04785156 132.32983398 C-166.11301965 126.76012637 -166.14891612 121.19093002 -166.1644783 115.62087059 C-166.17556909 113.49532203 -166.19722712 111.36980163 -166.22959518 109.2444706 C-166.27312393 106.26807715 -166.27915035 103.29379893 -166.27636719 100.31713867 C-166.29793884 99.43744415 -166.3195105 98.55774963 -166.34173584 97.65139771 C-166.28255373 91.80613437 -166.28255373 91.80613437 -164.30702209 89.30812454 C-161.24860163 86.70740653 -157.72060116 84.67380116 -154.23583984 82.69482422 C-153.21619141 82.11152344 -152.19654297 81.52822266 -151.14599609 80.92724609 C-150.05673828 80.31171875 -148.96748047 79.69619141 -147.84521484 79.06201172 C-146.09514586 78.06295659 -144.34508189 77.06389251 -142.59533691 76.06427002 C-140.7870506 75.03213051 -138.97736866 74.00247204 -137.16748047 72.97314453 C-131.62865248 69.82003687 -126.11325139 66.62631246 -120.59521484 63.43701172 C-118.42865673 62.18682358 -116.26198973 60.93682412 -114.09521484 59.68701172 C-113.02271484 59.06826172 -111.95021484 58.44951172 -110.84521484 57.81201172 C-98.92854818 50.93701172 -87.01188151 44.06201172 -75.09521484 37.18701172 C-74.02231201 36.56802002 -72.94940918 35.94902832 -71.84399414 35.3112793 C-69.68142901 34.06366432 -67.51883145 32.81610555 -65.35620117 31.56860352 C-58.76509653 27.76644411 -52.17509 23.96239281 -45.58642578 20.15600586 C-43.40452168 18.89688015 -41.22159721 17.63952076 -39.03759766 16.3840332 C-33.84104314 13.39637159 -28.65884302 10.38910519 -23.50537109 7.32763672 C-22.07028198 6.4839856 -22.07028198 6.4839856 -20.60620117 5.62329102 C-18.81988775 4.57273212 -17.03932074 3.51231383 -15.26586914 2.44018555 C-14.47220947 1.97636475 -13.6785498 1.51254395 -12.86083984 1.03466797 C-12.17795898 0.62740479 -11.49507812 0.2201416 -10.79150391 -0.19946289 C-6.94161879 -1.71314049 -3.80708759 -1.55936588 0 0 Z " fill="#37474F" transform="translate(261.59521484375,65.06298828125)"/>
<path d="M0 0 C4.1143102 1.90223112 7.94283058 4.20885492 11.8125 6.5625 C12.96453634 7.24770775 14.11755134 7.93127248 15.27148438 8.61328125 C17.66610846 10.0302955 20.05638282 11.45425981 22.44384766 12.88330078 C27.92393243 16.15547976 33.46496293 19.32201851 39 22.5 C41.16695157 23.74950604 43.33361746 24.99950764 45.5 26.25 C46.5725 26.86875 47.645 27.4875 48.75 28.125 C52 30 55.25 31.875 58.5 33.75 C59.57378906 34.3694751 60.64757812 34.9889502 61.75390625 35.62719727 C63.9076172 36.86976019 66.06126367 38.11243489 68.21484375 39.35522461 C73.23684262 42.25314623 78.25942807 45.15003349 83.28442383 48.04275513 C85.05045522 49.05947198 86.81627431 50.07655658 88.58203125 51.09375 C90.78734155 52.36400873 92.99304216 53.63359018 95.19921875 54.90234375 C98.13673329 56.59489374 101.06873491 58.29665639 104 60 C104.95648438 60.54769043 105.91296875 61.09538086 106.8984375 61.65966797 C107.79820312 62.18318848 108.69796875 62.70670898 109.625 63.24609375 C110.42164063 63.70556396 111.21828125 64.16503418 112.0390625 64.63842773 C114 66 114 66 116 69 C116.26006222 71.66654778 116.26006222 71.66654778 116.27415466 74.94577026 C116.28412979 76.18796326 116.29410492 77.43015625 116.30438232 78.70999146 C116.30527814 80.08905017 116.3059417 81.46810904 116.30639648 82.84716797 C116.31401688 84.29761177 116.32244418 85.74805153 116.33161926 87.19848633 C116.3535829 91.1406752 116.36236563 95.08278651 116.36744571 99.02502966 C116.37108705 101.48765453 116.37732593 103.95025902 116.3844471 106.41287613 C116.40894797 115.0032872 116.42199489 123.59363781 116.42553711 132.18408203 C116.42917302 140.1929688 116.45907046 148.20147249 116.50094169 156.21024215 C116.53562511 163.08507188 116.55108521 169.95977453 116.55178314 176.83469117 C116.55257663 180.94130391 116.56134741 185.04752653 116.58978081 189.15404892 C116.61592854 193.01689747 116.61818578 196.87903156 116.60212517 200.7419281 C116.60030801 202.1588967 116.60702573 203.57590606 116.62294388 204.99278641 C116.75006604 217.04357291 116.75006604 217.04357291 113.62458801 220.27574158 C110.98971141 222.00675923 108.41110172 223.69198358 105.640625 225.19921875 C104.61654541 225.76310303 103.59246582 226.3269873 102.53735352 226.90795898 C101.45252686 227.49520752 100.3677002 228.08245605 99.25 228.6875 C96.97188941 229.94131603 94.69454609 231.19652716 92.41796875 232.453125 C91.31114746 233.06220703 90.20432617 233.67128906 89.06396484 234.29882812 C85.19153719 236.44887401 81.36840121 238.67232298 77.5625 240.9375 C70.59282516 245.07405063 63.58493511 249.14114621 56.5625 253.1875 C55.46180176 253.82187988 54.36110352 254.45625977 53.22705078 255.10986328 C48.67369807 257.73332688 44.11954268 260.35539553 39.56542969 262.97753906 C37.29953951 264.28241723 35.03391156 265.58775088 32.76855469 266.89355469 C30.56716965 268.16172285 28.3647133 269.42803335 26.16113281 270.69238281 C21.34891276 273.45929867 16.5594029 276.24777163 11.8359375 279.1640625 C11.06193604 279.63739014 10.28793457 280.11071777 9.49047852 280.59838867 C8.09725699 281.45499892 6.711454 282.32387081 5.33569336 283.20825195 C0.97306569 285.88048392 -1.93409818 286.85835966 -7 286 C-10.98503615 284.24642881 -14.69003301 282.08415224 -18.4375 279.875 C-19.53715088 279.24263428 -20.63680176 278.61026855 -21.76977539 277.95874023 C-25.18882438 275.98751769 -28.59511807 273.99557322 -32 272 C-34.02037084 270.82602662 -36.04118605 269.65281756 -38.0625 268.48046875 C-42.01662675 266.18277834 -45.96515376 263.87581838 -49.91015625 261.5625 C-56.21570566 257.86786604 -62.54304427 254.21164867 -68.875 250.5625 C-69.94572754 249.94503906 -71.01645508 249.32757813 -72.11962891 248.69140625 C-77.14996604 245.79152051 -82.1820657 242.89474706 -87.21736145 240.003479 C-108.52914145 227.76534431 -108.52914145 227.76534431 -115.9375 223.3125 C-116.87464844 222.75175781 -117.81179687 222.19101562 -118.77734375 221.61328125 C-121.17869927 219.87029385 -122.45756482 218.53251945 -124 216 C-124.38590336 213.22602177 -124.38590336 213.22602177 -124.40113831 209.97193909 C-124.41393326 208.73678558 -124.42672821 207.50163208 -124.43991089 206.22904968 C-124.43886239 204.86306734 -124.43747782 203.49708522 -124.43579102 202.13110352 C-124.44476902 200.69036068 -124.45497737 199.24962506 -124.46632385 197.80889893 C-124.49282198 193.89772918 -124.49985715 189.98675633 -124.50177121 186.0755055 C-124.50462084 182.81003361 -124.51565823 179.54460753 -124.5262875 176.27915329 C-124.55071205 168.57532009 -124.55804097 160.87159207 -124.5559082 153.16772461 C-124.55410525 145.22064474 -124.58577374 137.2741754 -124.63313919 129.32725006 C-124.67236184 122.50333931 -124.68846012 115.67962817 -124.68654197 108.85560554 C-124.68577696 104.78024864 -124.69433203 100.7054345 -124.72607613 96.6301899 C-124.7551157 92.79757748 -124.75536251 88.96602686 -124.73352623 85.13337708 C-124.73038812 83.72769559 -124.73748173 82.32194805 -124.7556076 80.91637993 C-124.88353815 70.30818155 -124.88353815 70.30818155 -122.70998764 67.08998585 C-121.12239075 65.73275757 -121.12239075 65.73275757 -118 64 C-116.6699292 63.14740601 -116.6699292 63.14740601 -115.31298828 62.27758789 C-114.40790527 61.76446045 -113.50282227 61.25133301 -112.5703125 60.72265625 C-111.5405127 60.13427979 -110.51071289 59.54590332 -109.44970703 58.93969727 C-107.80397705 58.01048462 -107.80397705 58.01048462 -106.125 57.0625 C-104.36711241 56.06107865 -102.61043083 55.05756196 -100.85372925 54.05406189 C-99.65599086 53.3701399 -98.45784758 52.68692651 -97.25930786 52.00440979 C-91.52124221 48.73558127 -85.82187544 45.40239521 -80.125 42.0625 C-70.86130533 36.64316941 -61.55374612 31.30348667 -52.22866821 25.99084473 C-42.74993707 20.58960238 -33.30952177 15.1253062 -23.90039062 9.60351562 C-22.10798155 8.55296828 -20.31270946 7.50728536 -18.51416016 6.46728516 C-16.85514806 5.49907165 -15.20843136 4.5094347 -13.57568359 3.49755859 C-8.88064231 0.67300432 -5.59926281 -1.1008115 0 0 Z " fill="#CED7DB" transform="translate(260,113)"/>
<path d="M0 0 C4.16456169 0.83291234 6.17068234 1.43771882 9.67578125 3.44921875 C11.02216675 4.21564697 11.02216675 4.21564697 12.39575195 4.99755859 C13.35827881 5.55523926 14.32080566 6.11291992 15.3125 6.6875 C16.32723389 7.26838379 17.34196777 7.84926758 18.38745117 8.44775391 C27.56758652 13.71512568 36.70563081 19.05584623 45.83984375 24.40234375 C55.43942238 30.01678675 65.08135951 35.5580032 74.71777344 41.10888672 C80.14659942 44.23680148 85.57319281 47.36858448 91 50.5 C93.16665583 51.75001879 95.3333225 53.00001878 97.5 54.25 C101.83333333 56.75 106.16666667 59.25 110.5 61.75 C111.57427246 62.36963623 112.64854492 62.98927246 113.75537109 63.62768555 C115.90461202 64.86790591 118.05338156 66.10894354 120.20166016 67.35083008 C125.27218969 70.28070058 130.34709468 73.20204561 135.43914795 76.09432983 C137.84149946 77.45953665 140.24115891 78.82943671 142.640625 80.19970703 C144.33333218 81.16376858 146.02990354 82.12103533 147.7265625 83.078125 C148.75265625 83.66464844 149.77875 84.25117188 150.8359375 84.85546875 C151.73876465 85.36746826 152.6415918 85.87946777 153.57177734 86.40698242 C156.28128427 88.18453447 158.0303069 89.39741891 160 92 C160.58514071 95.08690588 160.5051135 98.13343962 160.45410156 101.26660156 C160.45468567 102.20352844 160.45526978 103.14045532 160.45587158 104.10577393 C160.45308596 107.20110181 160.42197092 110.29546545 160.390625 113.390625 C160.38316432 115.53724644 160.37747057 117.68387469 160.37347412 119.83050537 C160.35820425 125.47939876 160.31891038 131.12788053 160.2746582 136.77661133 C160.23373492 142.54112174 160.21546937 148.30569869 160.1953125 154.0703125 C160.15241776 165.38038915 160.08414974 176.69016034 160 188 C161.14774902 187.60731934 162.29549805 187.21463867 163.47802734 186.81005859 C167.82788381 185.32204804 172.17805904 183.83497116 176.52832031 182.34814453 C178.39396426 181.71036951 180.25952713 181.07235728 182.125 180.43408203 C183.0221875 180.12712402 183.919375 179.82016602 184.84375 179.50390625 C185.74039368 179.19712952 186.63703735 178.89035278 187.56085205 178.57427979 C190.27457348 177.64804977 192.99025672 176.72773799 195.70605469 175.80761719 C199.16537014 174.63364136 202.61197828 173.43016891 206.05175781 172.20019531 C206.85191315 171.91963287 207.65206848 171.63907043 208.47647095 171.3500061 C209.95793674 170.83050874 211.43588432 170.30079795 212.9090271 169.75814819 C217.93492025 168.01702148 222.68569976 167.40138192 228 168 C230.5625 169.3125 230.5625 169.3125 232 172 C233.27899885 182.26154367 230.66438815 193.04624457 229.04296875 203.1484375 C228.73583979 205.09365126 228.42915063 207.03893451 228.12287903 208.98428345 C227.48203933 213.0413912 226.83487763 217.09742751 226.18334961 221.15283203 C225.34973823 226.34582763 224.53370036 231.54141163 223.72251415 236.73795128 C223.09441709 240.7471771 222.45628067 244.75475587 221.81517982 248.76192093 C221.51009727 250.67752813 221.20831689 252.59366433 220.90993309 254.51032639 C220.49217809 257.18492512 220.06074642 259.85697035 219.62573242 262.52880859 C219.44554565 263.71021927 219.44554565 263.71021927 219.26171875 264.91549683 C218.54685664 269.20401993 217.59580955 272.48386107 215 276 C208.9490353 280.0994631 198.24690287 284 191 284 C190.87768509 284.71804306 190.75537018 285.43608612 190.62934875 286.17588806 C189.99152177 289.03804485 189.07983576 291.49086823 187.93041992 294.18579102 C187.50294968 295.19356094 187.07547943 296.20133087 186.63505554 297.23963928 C186.1715419 298.31684738 185.70802826 299.39405548 185.23046875 300.50390625 C184.7530574 301.61934311 184.27564606 302.73477997 183.7837677 303.88401794 C182.77337528 306.23945761 181.76034576 308.59376756 180.74487305 310.94702148 C179.19368564 314.54813988 177.65803551 318.15562437 176.12304688 321.76367188 C175.13896646 324.05249014 174.15397092 326.3409152 173.16796875 328.62890625 C172.7105278 329.70813858 172.25308685 330.78737091 171.78178406 331.89930725 C171.34485733 332.90392502 170.9079306 333.90854279 170.45776367 334.94360352 C169.88937019 336.26667259 169.88937019 336.26667259 169.30949402 337.61647034 C167.71134467 340.52540793 166.73394605 342.04820213 164 344 C160.37654377 344.99774618 156.72188076 345.50905358 153 346 C152.13389351 346.12237534 151.26778702 346.24475067 150.37543488 346.37083435 C147.72179734 346.73317437 145.06580372 347.06463977 142.40722656 347.38867188 C141.41224655 347.51254776 140.41726654 347.63642365 139.39213562 347.76405334 C137.25350405 348.0299907 135.11470219 348.29456166 132.97574615 348.55787659 C129.58683011 348.97537731 126.19847628 349.39719685 122.8102417 349.82019043 C113.18431348 351.02120092 103.55749887 352.21501047 93.93017578 353.40478516 C88.02305099 354.13510878 82.11661524 354.87080669 76.21056366 355.60975647 C73.96699651 355.88933258 71.7231668 356.16681012 69.47907257 356.44212341 C66.34379885 356.82683549 63.20944129 357.21834331 60.07519531 357.61132812 C59.15451767 357.72255508 58.23384003 357.83378204 57.28526306 357.94837952 C50.11452852 358.8588484 43.91361404 360.18086044 37.62890625 363.94140625 C36.64946045 364.52132324 35.67001465 365.10124023 34.66088867 365.69873047 C33.12718628 366.62129639 33.12718628 366.62129639 31.5625 367.5625 C29.42493765 368.8275979 27.28691526 370.09191884 25.1484375 371.35546875 C24.10526367 371.97470215 23.06208984 372.59393555 21.98730469 373.23193359 C17.90653574 375.64717785 13.807651 378.02765909 9.6875 380.375 C9.04304932 380.74955322 8.39859863 381.12410645 7.73461914 381.51000977 C4.92520821 383.10468565 3.28921958 384 0 384 C0 368.16 0 352.32 0 336 C4.888125 333.2465625 4.888125 333.2465625 9.875 330.4375 C21.86176568 323.67079138 33.78685374 316.79962455 45.70166016 309.90722656 C50.05242282 307.39144878 54.40571998 304.88007824 58.75927734 302.36914062 C60.91472384 301.12595105 63.06999813 299.88246285 65.22509766 298.63867188 C70.77663841 295.43473084 76.33011153 292.23420969 81.88671875 289.0390625 C84.15374771 287.73455203 86.42067645 286.42986738 88.6875 285.125 C89.77095703 284.50165771 90.85441406 283.87831543 91.97070312 283.23608398 C98.63925068 279.39015037 105.27387986 275.49542782 111.81518555 271.43603516 C115.78854186 269 115.78854186 269 118 269 C119.07742222 265.76773334 119.12580195 263.44062902 119.12698364 260.04077148 C119.12980347 258.79568817 119.13262329 257.55060486 119.13552856 256.26779175 C119.1335842 254.88555894 119.13153603 253.50332627 119.12939453 252.12109375 C119.13074935 250.66740881 119.13252974 249.21372422 119.13470459 247.76004028 C119.13926928 243.80972072 119.13749331 239.85942723 119.1343255 235.90910721 C119.13179695 231.77851541 119.13414083 227.64792587 119.13571167 223.51733398 C119.13753191 216.5802368 119.13513086 209.64315026 119.13037109 202.70605469 C119.12492875 194.68138113 119.12669151 186.65673299 119.1321975 178.63206005 C119.13673276 171.74708177 119.13737715 164.86211114 119.13475883 157.97713184 C119.13319834 153.86291398 119.13299608 149.74870807 119.13629532 145.63449097 C119.13918001 141.76693403 119.13718728 137.89940992 119.13140106 134.03185654 C119.13007669 132.61083913 119.13046214 131.18981896 119.13266373 129.76880264 C119.1353878 127.83227892 119.13136941 125.89574918 119.12698364 123.95922852 C119.12660662 122.87448746 119.12622959 121.7897464 119.12584114 120.6721344 C119.11619677 117.89650701 119.11619677 117.89650701 118 115 C115.72373307 113.94665323 115.72373307 113.94665323 113 113 C111.06003488 111.96310728 109.13811842 110.89208452 107.23046875 109.796875 C106.10705078 109.15363281 104.98363281 108.51039063 103.82617188 107.84765625 C102.61321505 107.14855234 101.40032616 106.44933056 100.1875 105.75 C98.92393897 105.02454649 97.66026552 104.29928874 96.39648438 103.57421875 C87.60068817 98.52219693 78.83620262 93.4170285 70.08276367 88.29199219 C61.83073914 83.46678857 53.53388568 78.72231509 45.2281189 73.99057007 C35.74957571 68.58941193 26.30934479 63.12520234 16.90039062 57.60351562 C15.99095703 57.07048828 15.08152344 56.53746094 14.14453125 55.98828125 C13.36440674 55.52977783 12.58428223 55.07127441 11.78051758 54.59887695 C7.87867647 52.35520697 3.93452539 50.18584744 0 48 C0 32.16 0 16.32 0 0 Z " fill="#263238" transform="translate(256,64)"/>
<path d="M0 0 C0 20.79 0 41.58 0 63 C-2.97 64.485 -2.97 64.485 -6 66 C-7.33674732 67.79937362 -7.33674732 67.79937362 -7.97753906 69.93310547 C-8.26908371 70.71758057 -8.56062836 71.50205566 -8.86100769 72.31030273 C-9.1595314 73.15407471 -9.45805511 73.99784668 -9.765625 74.8671875 C-21.29142779 104.16774066 -21.29142779 104.16774066 -30.08056641 108.33984375 C-38.45142469 111.30021054 -47.46172877 111.24799546 -56.23876953 111.02246094 C-64.98187279 110.94588132 -64.98187279 110.94588132 -72.75219727 114.37451172 C-74.26393357 116.09427655 -74.26393357 116.09427655 -74.625 119.1875 C-73.71845447 124.71742776 -70.89639968 127.13634318 -67 131 C-66.04708611 131.97549798 -65.09533444 132.95213215 -64.14453125 133.9296875 C-59.18053412 138.99623999 -54.14819749 143.92783369 -48.71875 148.5 C-47.86796875 149.2425 -47.86796875 149.2425 -47 150 C-46.2678125 150.61488281 -45.535625 151.22976563 -44.78125 151.86328125 C-43 154 -43 154 -42.6875 156.35546875 C-42.790625 157.29003906 -42.89375 158.22460938 -43 159.1875 C-43.12246094 160.32316406 -43.24492187 161.45882812 -43.37109375 162.62890625 C-44.29394585 169.37532948 -45.43575 176.09790472 -46.62695312 182.80151367 C-49.11916131 194.08416208 -49.11916131 194.08416208 -46.85571289 204.80712891 C-44.01213543 206.63500938 -42.35155955 206.44739559 -39 206 C-36.00271382 204.84663391 -33.21588719 203.36454044 -30.390625 201.84375 C-29.58260437 201.42202515 -28.77458374 201.00030029 -27.94207764 200.5657959 C-25.37184552 199.22197873 -22.81069582 197.86188801 -20.25 196.5 C-17.67362453 195.14100634 -15.09549474 193.78550399 -12.51507568 192.4342041 C-10.91199813 191.59353894 -9.31152519 190.74788494 -7.71392822 189.89685059 C-2.22132404 187 -2.22132404 187 0 187 C0 219.67 0 252.34 0 286 C-4.52197755 285.09560449 -6.82222518 284.17994154 -10.69921875 281.9296875 C-11.81248535 281.28829834 -12.92575195 280.64690918 -14.07275391 279.98608398 C-15.27773761 279.28250636 -16.48265113 278.5788085 -17.6875 277.875 C-18.94411816 277.14786085 -20.20112306 276.42138967 -21.45849609 275.69555664 C-24.04627864 274.2003235 -26.63175689 272.7012215 -29.21533203 271.19873047 C-33.78153198 268.54390233 -38.3593331 265.90932376 -42.93676758 263.27392578 C-47.22090654 260.80625649 -51.50148784 258.33244827 -55.78222656 255.85888672 C-60.10373486 253.36237958 -64.42670484 250.86841124 -68.75 248.375 C-70.90407951 247.13226182 -73.05773071 245.88878092 -75.2109375 244.64453125 C-80.24553081 241.73619822 -85.28354956 238.83443642 -90.33599854 235.95724487 C-92.11819143 234.94192342 -93.89911912 233.92441725 -95.6796875 232.90625 C-97.9089786 231.63236937 -100.14060369 230.36256089 -102.375 229.09765625 C-117.8934868 220.2130264 -117.8934868 220.2130264 -120 216 C-120.10657414 214.07301802 -120.14830186 212.14233559 -120.16062927 210.21244812 C-120.1706749 208.98004395 -120.18072052 207.74763977 -120.19107056 206.47789001 C-120.19710087 205.10464538 -120.20298585 203.73140011 -120.20874023 202.3581543 C-120.21827678 200.9177121 -120.22816785 199.47727222 -120.23838806 198.03683472 C-120.26979374 193.29932379 -120.2900409 188.56179517 -120.30859375 183.82421875 C-120.31353973 182.61577376 -120.31353973 182.61577376 -120.31858563 181.38291574 C-120.3493652 173.78713929 -120.37607664 166.19135894 -120.39300442 158.59553814 C-120.41492078 148.87475042 -120.4569108 139.15451439 -120.52644199 129.43394727 C-120.57365704 122.6016166 -120.59793453 115.76943493 -120.6052013 108.93694621 C-120.61016113 104.85480464 -120.62527206 100.77328465 -120.6649456 96.69132042 C-120.70178255 92.85059032 -120.71023219 89.01083751 -120.69693947 85.16996384 C-120.69699347 83.76103495 -120.70731074 82.35206309 -120.7286911 80.94329643 C-120.88145351 70.30841702 -120.88145351 70.30841702 -118.71194458 67.08802891 C-117.12437439 65.73077393 -117.12437439 65.73077393 -114 64 C-112.6699292 63.14740601 -112.6699292 63.14740601 -111.31298828 62.27758789 C-110.40790527 61.76446045 -109.50282227 61.25133301 -108.5703125 60.72265625 C-107.5405127 60.13427979 -106.51071289 59.54590332 -105.44970703 58.93969727 C-103.80397705 58.01048462 -103.80397705 58.01048462 -102.125 57.0625 C-100.36711241 56.06107865 -98.61043083 55.05756196 -96.85372925 54.05406189 C-95.65599086 53.3701399 -94.45784758 52.68692651 -93.25930786 52.00440979 C-87.52124221 48.73558127 -81.82187544 45.40239521 -76.125 42.0625 C-66.86130533 36.64316941 -57.55374612 31.30348667 -48.22866821 25.99084473 C-38.74993707 20.58960238 -29.30952177 15.1253062 -19.90039062 9.60351562 C-17.27077656 8.06227478 -14.63660648 6.52924194 -12 5 C-11.15356934 4.50419434 -10.30713867 4.00838867 -9.43505859 3.49755859 C-8.63535645 3.03816895 -7.8356543 2.5787793 -7.01171875 2.10546875 C-6.30877686 1.6983667 -5.60583496 1.29126465 -4.8815918 0.87182617 C-3 0 -3 0 0 0 Z " fill="#ECEEEF" transform="translate(256,113)"/>
<path d="M0 0 C4.55724622 3.79885705 6.88094094 8.06818698 9.42578125 13.29296875 C9.81823532 14.08020828 10.21068939 14.86744781 10.61503601 15.67854309 C11.43729269 17.33275226 12.25474944 18.98935516 13.06762695 20.64819336 C14.31609575 23.19483465 15.57957166 25.73358548 16.84570312 28.27148438 C17.64411114 29.88237567 18.44166771 31.4936893 19.23828125 33.10546875 C19.61632401 33.86691696 19.99436676 34.62836517 20.38386536 35.41288757 C23 40.76665866 23 40.76665866 23 43 C23.74628662 43.04535889 24.49257324 43.09071777 25.26147461 43.13745117 C33.72060516 43.71316976 42.05664083 44.71395205 50.43286133 45.99194336 C52.58936338 46.31654352 54.74841662 46.61805285 56.90820312 46.91992188 C58.29448392 47.12879899 59.68056086 47.33903459 61.06640625 47.55078125 C62.9218103 47.82402222 62.9218103 47.82402222 64.81469727 48.1027832 C68.48319463 49.13610334 69.91938978 49.80013367 72 53 C72.69133181 56.99664943 73.00562339 59.39298109 70.83355713 62.86401367 C69.15028046 64.80953255 67.37657269 66.57567126 65.5078125 68.34375 C64.8466745 68.99831177 64.1855365 69.65287354 63.50436401 70.32727051 C62.10962035 71.7012333 60.70541088 73.06564523 59.29248047 74.42089844 C57.1215968 76.50326444 54.97889577 78.6115558 52.83984375 80.7265625 C51.48070713 82.05886497 50.1200805 83.3896495 48.7578125 84.71875 C48.11192169 85.34986694 47.46603088 85.98098389 46.80056763 86.63122559 C42.23668483 91 42.23668483 91 40 91 C40.176521 92.03294189 40.35304199 93.06588379 40.53491211 94.13012695 C41.19705513 98.01157141 41.85358801 101.89394839 42.50854492 105.77661133 C42.79122664 107.44776384 43.0753713 109.11866965 43.36108398 110.78930664 C47.92785902 137.51013922 47.92785902 137.51013922 45 142 C41.21305628 144.52462915 39.50369113 144.43641873 35 144 C32.20551364 142.96690925 29.67773202 141.56523559 27.08984375 140.09765625 C26.3593129 139.70049911 25.62878204 139.30334198 24.87611389 138.89414978 C22.55543731 137.63059366 20.24594914 136.34823987 17.9375 135.0625 C15.62445844 133.78245793 13.30927752 132.50693139 10.98817444 131.24156189 C9.54850764 130.4559648 8.11350272 129.66174356 6.68406677 128.85768127 C2.81417282 126.7375612 -0.49984533 125.19335384 -5 125 C-7.51378094 125.70523357 -7.51378094 125.70523357 -9.87109375 127.02734375 C-10.76828125 127.4864917 -11.66546875 127.94563965 -12.58984375 128.41870117 C-13.52957031 128.91990479 -14.46929687 129.4211084 -15.4375 129.9375 C-16.40945312 130.43805908 -17.38140625 130.93861816 -18.3828125 131.4543457 C-22.81201218 133.74610548 -27.20416825 136.09901369 -31.56640625 138.515625 C-32.23937744 138.8856665 -32.91234863 139.25570801 -33.60571289 139.63696289 C-35.38113224 140.62157811 -37.14419289 141.62838561 -38.90625 142.63671875 C-42.25617426 144.11288487 -44.38208009 144.38137617 -48 144 C-50.375 142.6875 -50.375 142.6875 -52 140 C-53.04478909 131.03860609 -51.05294158 122.04444363 -49.5 113.25 C-49.13918904 111.18538644 -48.78121178 109.12041647 -48.43005371 107.05413818 C-48.1128334 105.19025294 -47.78620816 103.32797538 -47.45898438 101.46582031 C-46.36779082 94.68632857 -46.36779082 94.68632857 -48.6875 88.59375 C-49.450625 87.9028125 -50.21375 87.211875 -51 86.5 C-51.83015625 85.73171875 -52.6603125 84.9634375 -53.515625 84.171875 C-56.22606657 81.80236948 -58.94352343 79.44196672 -61.67578125 77.09765625 C-64.8601909 74.22365964 -67.89979631 71.21528196 -70.9375 68.1875 C-71.51790039 67.61161133 -72.09830078 67.03572266 -72.69628906 66.44238281 C-77.8856968 61.23447451 -77.8856968 61.23447451 -78.3125 56.625 C-78 53 -78 53 -76.4296875 50.86401367 C-73.24665218 48.42204475 -70.77526383 48.11245433 -66.8125 47.55078125 C-66.11415039 47.44783249 -65.41580078 47.34488373 -64.69628906 47.23881531 C-62.46610875 46.91442403 -60.23343167 46.61359073 -58 46.3125 C-56.52973781 46.09975432 -55.05968238 45.88557451 -53.58984375 45.66992188 C-45.41185181 44.49079988 -37.24717489 43.55914733 -29 43 C-28.74782715 42.17330811 -28.4956543 41.34661621 -28.23583984 40.49487305 C-26.83266065 36.52677541 -25.09493163 32.84748007 -23.2265625 29.08203125 C-22.86154633 28.34297043 -22.49653015 27.60390961 -22.12045288 26.842453 C-21.35102504 25.28915632 -20.57938912 23.73695165 -19.80566406 22.18579102 C-18.62589025 19.81428951 -17.46126047 17.43572754 -16.296875 15.05664062 C-15.54519081 13.54381337 -14.79261683 12.03142784 -14.0390625 10.51953125 C-13.52166 9.45542778 -13.52166 9.45542778 -12.99380493 8.36982727 C-9.91141802 2.26121105 -7.18643907 -1.17329617 0 0 Z " fill="#F68C1F" transform="translate(259,176)"/>
<path d="M0 0 C2.35632298 0.78367631 4.70779012 1.58206138 7.05493164 2.39282227 C8.30262833 2.81217545 9.55032501 3.23152863 10.83583069 3.66358948 C14.1287427 4.77071868 17.41584217 5.8942032 20.70202637 7.02111816 C24.05757693 8.16812189 27.41892298 9.29788261 30.77954102 10.42993164 C35.67610615 12.0832023 40.57089774 13.7415778 45.4609375 15.4140625 C46.93245522 15.91703102 46.93245522 15.91703102 48.43370056 16.43016052 C50.77758789 17.27172852 50.77758789 17.27172852 52.77758789 18.27172852 C52.78567474 19.53848923 52.7937616 20.80524994 52.80209351 22.11039734 C52.879551 34.04372372 52.96728946 45.97693603 53.06511497 57.91011333 C53.11507799 64.04519575 53.16140821 70.18026094 53.19946289 76.31542969 C53.23631536 82.23530138 53.28267554 88.15502901 53.3356514 94.0747776 C53.35419548 96.33419075 53.36930338 98.59363478 53.38093185 100.8530941 C53.39779378 104.01581983 53.42682931 107.17821562 53.45874023 110.34082031 C53.46090042 111.27661926 53.46306061 112.21241821 53.46528625 113.17657471 C53.50281244 119.47498743 53.50281244 119.47498743 55.77758789 125.27172852 C58.59752733 126.47625375 58.59752733 126.47625375 61.77758789 127.27172852 C63.59081045 128.20451449 65.37730649 129.19066813 67.13696289 130.22094727 C68.15661133 130.81391602 69.17625977 131.40688477 70.22680664 132.01782227 C71.31606445 132.65848633 72.40532227 133.29915039 73.52758789 133.95922852 C74.68479761 134.63429491 75.84235646 135.30876313 77.00024414 135.98266602 C79.40329371 137.38188657 81.80482709 138.78365787 84.20532227 140.18725586 C89.71545601 143.40622216 95.24766406 146.58692697 100.77758789 149.77172852 C102.94435768 151.02154976 105.11102404 152.27155032 107.27758789 153.52172852 C108.88633789 154.44985352 108.88633789 154.44985352 110.52758789 155.39672852 C113.77758789 157.27172852 117.02758789 159.14672852 120.27758789 161.02172852 C121.35210205 161.64152588 122.42661621 162.26132324 123.53369141 162.89990234 C125.68041496 164.13862662 127.82674279 165.37803695 129.97265625 166.61816406 C135.07250698 169.56425276 140.17629266 172.50285823 145.2940979 175.41763306 C147.72527516 176.80283083 150.15422696 178.19190455 152.58300781 179.58129883 C154.30911337 180.56654846 156.03844166 181.54614513 157.76782227 182.52563477 C158.80358398 183.11860352 159.8393457 183.71157227 160.90649414 184.32250977 C161.82503174 184.84498291 162.74356934 185.36745605 163.68994141 185.90576172 C165.77758789 187.27172852 165.77758789 187.27172852 166.77758789 189.27172852 C152.57413074 187.91583565 138.4129121 186.31682107 124.25415039 184.55688477 C122.72075579 184.36666654 122.72075579 184.36666654 121.15638351 184.17260551 C115.773875 183.50434799 110.39178945 182.83279197 105.01000977 182.15869141 C99.47231062 181.4658506 93.93311391 180.78580156 88.39351845 180.10831547 C84.10320183 179.58114638 79.8141452 179.04423196 75.52537155 178.50466728 C73.48214085 178.24938445 71.43844092 177.99782748 69.39427567 177.75013924 C66.54879417 177.40450519 63.70538667 177.04501042 60.86206055 176.68212891 C60.02673294 176.58384796 59.19140533 176.48556702 58.33076477 176.38430786 C53.61786502 175.76573653 49.89906645 174.81173375 45.77758789 172.27172852 C44.18530273 169.89697266 44.18530273 169.89697266 42.98852539 167.05688477 C42.52736328 165.99083008 42.06620117 164.92477539 41.59106445 163.82641602 C41.11636719 162.67399414 40.64166992 161.52157227 40.15258789 160.33422852 C39.37948463 158.52292985 38.60637003 156.71163595 37.8326416 154.90060425 C37.02392104 152.99863739 36.22465255 151.09291241 35.42700195 149.1862793 C33.76654929 145.2279872 32.05335624 141.29380083 30.33227539 137.36157227 C29.49939876 135.45109512 28.66743136 133.54022576 27.83599854 131.62911987 C27.03701245 129.79338222 26.23616854 127.95845354 25.43530273 126.12353516 C24.95528809 125.00712646 24.47527344 123.89071777 23.98071289 122.74047852 C23.55435547 121.75499023 23.12799805 120.76950195 22.6887207 119.75415039 C21.77758789 117.27172852 21.77758789 117.27172852 21.77758789 114.27172852 C21.03895508 114.10157227 20.30032227 113.93141602 19.53930664 113.75610352 C-0.60869628 108.94311171 -0.60869628 108.94311171 -4.22241211 104.27172852 C-5.06904602 101.09687805 -5.06904602 101.09687805 -5.72753906 97.18310547 C-5.84976239 96.4757768 -5.97198572 95.76844812 -6.09791279 95.03968525 C-6.4843643 92.78548971 -6.85388976 90.52891696 -7.22241211 88.27172852 C-7.4622503 86.85347249 -7.70298897 85.43536842 -7.94467163 84.01742554 C-8.69611093 79.57798719 -9.42062209 75.13436777 -10.14038086 70.68969727 C-10.27002039 69.8906579 -10.39965992 69.09161854 -10.53322792 68.26836586 C-11.21652109 64.05446981 -11.8971551 59.84015403 -12.57568359 55.62548828 C-13.27107009 51.30994441 -13.97648843 46.99610101 -14.68403149 42.68253613 C-15.2328479 39.32462313 -15.77394924 35.96549852 -16.31304359 32.60601234 C-16.56967632 31.01533444 -16.82917274 29.42511548 -17.09175682 27.83540916 C-20.81532876 5.24979008 -20.81532876 5.24979008 -17.78491211 -0.41577148 C-12.00227701 -3.37760898 -5.9180632 -1.8189505 0 0 Z " fill="#478FCB" transform="translate(43.222412109375,233.728271484375)"/>
<path d="M0 0 C4.8769948 9.11785984 0.04646748 24.07904098 -1.51953125 33.8359375 C-1.82666021 35.78115126 -2.13334937 37.72643451 -2.43962097 39.67178345 C-3.08046067 43.7288912 -3.72762237 47.78492751 -4.37915039 51.84033203 C-5.21276177 57.03332763 -6.02879964 62.22891163 -6.83998585 67.42545128 C-7.46808291 71.4346771 -8.10621933 75.44225587 -8.74732018 79.44942093 C-9.05240273 81.36502813 -9.35418311 83.28116433 -9.65256691 85.19782639 C-10.07032191 87.87242512 -10.50175358 90.54447035 -10.93676758 93.21630859 C-11.11695435 94.39771927 -11.11695435 94.39771927 -11.30078125 95.60299683 C-12.01564336 99.89151993 -12.96669045 103.17136107 -15.5625 106.6875 C-21.6134647 110.7869631 -32.31559713 114.6875 -39.5625 114.6875 C-39.68481491 115.40554306 -39.80712982 116.12358612 -39.93315125 116.86338806 C-40.57097823 119.72554485 -41.48266424 122.17836823 -42.63208008 124.87329102 C-43.05955032 125.88106094 -43.48702057 126.88883087 -43.92744446 127.92713928 C-44.3909581 129.00434738 -44.85447174 130.08155548 -45.33203125 131.19140625 C-45.8094426 132.30684311 -46.28685394 133.42227997 -46.7787323 134.57151794 C-47.78912472 136.92695761 -48.80215424 139.28126756 -49.81762695 141.63452148 C-51.36881436 145.23563988 -52.90446449 148.84312437 -54.43945312 152.45117188 C-55.42353354 154.73999014 -56.40852908 157.0284152 -57.39453125 159.31640625 C-57.8519722 160.39563858 -58.30941315 161.47487091 -58.78071594 162.58680725 C-59.21764267 163.59142502 -59.6545694 164.59604279 -60.10473633 165.63110352 C-60.67312981 166.95417259 -60.67312981 166.95417259 -61.25300598 168.30397034 C-62.85115533 171.21290793 -63.82855395 172.73570213 -66.5625 174.6875 C-70.18583229 175.68332694 -73.84164618 176.19349133 -77.5625 176.6875 C-78.86589986 176.87530313 -78.86589986 176.87530313 -80.19563103 177.06690025 C-82.86225487 177.44141311 -85.53135028 177.78611487 -88.20288086 178.1237793 C-89.20267975 178.25247406 -90.20247864 178.38116882 -91.23257446 178.51376343 C-94.49709548 178.93296464 -97.76216328 179.34768743 -101.02734375 179.76171875 C-103.31133103 180.05267239 -105.59531225 180.34367352 -107.87928772 180.63471985 C-112.64556488 181.24120161 -117.41216333 181.84508671 -122.17895508 182.44750977 C-128.29200618 183.22057926 -134.40378236 184.00328709 -140.51531124 184.78828716 C-145.22176206 185.39120153 -149.92903653 185.98747658 -154.63656807 186.5818882 C-156.89156377 186.86774198 -159.14625117 187.15603874 -161.4006176 187.44681358 C-164.54220105 187.85133371 -167.68482235 188.246534 -170.82788086 188.6394043 C-171.75934433 188.76141708 -172.6908078 188.88342987 -173.65049744 189.00914001 C-174.5067572 189.11425903 -175.36301697 189.21937805 -176.245224 189.3276825 C-176.98680724 189.42187312 -177.72839048 189.51606375 -178.49244595 189.61310863 C-180.70728826 189.69270324 -182.44951908 189.32559237 -184.5625 188.6875 C-126.0625 154.9375 -126.0625 154.9375 -122.80810547 153.06005859 C-120.6559787 151.81838473 -118.50395927 150.57652478 -116.35205078 149.33447266 C-111.31219023 146.42583177 -106.27132508 143.51898102 -101.22650146 140.61895752 C-99.44500422 139.59474335 -97.66385678 138.56992349 -95.8828125 137.54492188 C-93.65173375 136.26116625 -91.42000427 134.97854061 -89.1875 133.69726562 C-79.15093633 128.9119735 -79.15093633 128.9119735 -71.5625 121.6875 C-71.45926869 120.30675309 -71.41607219 118.92126302 -71.40428162 117.53671265 C-71.3944928 116.66730545 -71.38470398 115.79789825 -71.37461853 114.90214539 C-71.36886307 113.94620987 -71.3631076 112.99027435 -71.35717773 112.00537109 C-71.34727814 111.00046127 -71.33737854 109.99555145 -71.32717896 108.96018982 C-71.29550418 105.62712996 -71.2707829 102.29405583 -71.24609375 98.9609375 C-71.22552939 96.65450665 -71.20453306 94.34807962 -71.18312073 92.04165649 C-71.12784661 85.96223025 -71.0784609 79.88276969 -71.03027344 73.80328369 C-70.98009736 67.60319962 -70.924391 61.40316556 -70.86914062 55.203125 C-70.76149375 43.03129269 -70.66006331 30.85941702 -70.5625 18.6875 C-65.05336543 16.80265359 -59.54390872 14.91875254 -54.03417969 13.03564453 C-52.16853574 12.39786951 -50.30297287 11.75985728 -48.4375 11.12158203 C-47.5403125 10.81462402 -46.643125 10.50766602 -45.71875 10.19140625 C-44.82210632 9.88462952 -43.92546265 9.57785278 -43.00164795 9.26177979 C-40.28792652 8.33554977 -37.57224328 7.41523799 -34.85644531 6.49511719 C-31.39712986 5.32114136 -27.95052172 4.11766891 -24.51074219 2.88769531 C-23.31050919 2.46685165 -23.31050919 2.46685165 -22.08602905 2.0375061 C-20.60456326 1.51800874 -19.12661568 0.98829795 -17.6534729 0.44564819 C-11.95356551 -1.52897815 -5.56484274 -2.8502853 0 0 Z " fill="#478FCC" transform="translate(486.5625,233.3125)"/>
<path d="M0 0 C-0.99 0.33 -1.98 0.66 -3 1 C-2.67 41.59 -2.34 82.18 -2 124 C-9.59 127.63 -17.18 131.26 -25 135 C-31.77425596 138.66873651 -31.77425596 138.66873651 -38.50390625 142.41796875 C-42.07495769 144.0339194 -44.14265629 144.46041075 -48 144 C-50.375 142.6875 -50.375 142.6875 -52 140 C-53.04478909 131.03860609 -51.05294158 122.04444363 -49.5 113.25 C-49.13918904 111.18538644 -48.78121178 109.12041647 -48.43005371 107.05413818 C-48.1128334 105.19025294 -47.78620816 103.32797538 -47.45898438 101.46582031 C-46.36779082 94.68632857 -46.36779082 94.68632857 -48.6875 88.59375 C-49.450625 87.9028125 -50.21375 87.211875 -51 86.5 C-51.83015625 85.73171875 -52.6603125 84.9634375 -53.515625 84.171875 C-56.22606657 81.80236948 -58.94352343 79.44196672 -61.67578125 77.09765625 C-64.8601909 74.22365964 -67.89979631 71.21528196 -70.9375 68.1875 C-71.51790039 67.61161133 -72.09830078 67.03572266 -72.69628906 66.44238281 C-77.8856968 61.23447451 -77.8856968 61.23447451 -78.3125 56.625 C-78 53 -78 53 -76.4296875 50.86401367 C-73.24665218 48.42204475 -70.77526383 48.11245433 -66.8125 47.55078125 C-66.11415039 47.44783249 -65.41580078 47.34488373 -64.69628906 47.23881531 C-62.46610875 46.91442403 -60.23343167 46.61359073 -58 46.3125 C-56.52973781 46.09975432 -55.05968238 45.88557451 -53.58984375 45.66992188 C-45.41185181 44.49079988 -37.24717489 43.55914733 -29 43 C-28.74782715 42.17330811 -28.4956543 41.34661621 -28.23583984 40.49487305 C-26.83266065 36.52677541 -25.09493163 32.84748007 -23.2265625 29.08203125 C-22.86154633 28.34297043 -22.49653015 27.60390961 -22.12045288 26.842453 C-21.35102504 25.28915632 -20.57938912 23.73695165 -19.80566406 22.18579102 C-18.62589025 19.81428951 -17.46126047 17.43572754 -16.296875 15.05664062 C-15.54519081 13.54381337 -14.79261683 12.03142784 -14.0390625 10.51953125 C-13.52166 9.45542778 -13.52166 9.45542778 -12.99380493 8.36982727 C-9.70532405 1.8527779 -7.3931342 -0.50407733 0 0 Z " fill="#F9A62A" transform="translate(259,176)"/>
<path d="M0 0 C18.26376207 4.37581874 35.49200473 9.7841302 51.60644531 19.5546875 C55.17064371 21.70687584 58.77490713 23.78896326 62.375 25.88037109 C65.42828817 27.65598936 68.47593488 29.44103608 71.5234375 31.2265625 C78.32174529 35.19900497 85.15858522 39.10255145 92 43 C109.7826388 53.13569753 127.49263158 63.3945749 145 74 C141.90878767 74.94855277 139.54437712 75.00637494 136.34536743 74.60894775 C135.41456863 74.49685974 134.48376984 74.38477173 133.52476501 74.26928711 C132.00357811 74.07459839 132.00357811 74.07459839 130.45166016 73.87597656 C129.37806747 73.74439148 128.30447479 73.6128064 127.198349 73.47723389 C123.64425426 73.03936985 120.09165655 72.59049178 116.5390625 72.140625 C114.07054693 71.83216971 111.60198959 71.52404842 109.13339233 71.21624756 C103.95611719 70.56881396 98.7796039 69.91564118 93.60351562 69.25878906 C88.28918141 68.58441594 82.97379748 67.91920013 77.65722656 67.26269531 C71.23876211 66.46990943 64.82174612 65.66633531 58.40571213 64.85411835 C55.96053531 64.54607891 53.51491785 64.2415165 51.06886673 63.94049835 C47.64685558 63.51807987 44.22691291 63.08163866 40.80712891 62.64160156 C39.79705276 62.51990601 38.78697662 62.39821045 37.74629211 62.27282715 C32.63432436 61.59937156 28.43569747 60.82862828 24 58 C22.40771484 55.62524414 22.40771484 55.62524414 21.2109375 52.78515625 C20.74977539 51.71910156 20.28861328 50.65304687 19.81347656 49.5546875 C19.10143066 47.82605469 19.10143066 47.82605469 18.375 46.0625 C17.60189674 44.25120134 16.82878214 42.43990743 16.05505371 40.62887573 C15.24633315 38.72690887 14.44706466 36.82118389 13.64941406 34.91455078 C11.9889614 30.95625868 10.27576835 27.02207231 8.5546875 23.08984375 C7.72181087 21.17936661 6.88984347 19.26849725 6.05841064 17.35739136 C5.25942456 15.52165371 4.45858064 13.68672502 3.65771484 11.85180664 C3.1777002 10.73539795 2.69768555 9.61898926 2.203125 8.46875 C1.77676758 7.48326172 1.35041016 6.49777344 0.91113281 5.48242188 C0 3 0 3 0 0 Z " fill="#94C7EB" transform="translate(65,348)"/>
<path d="M0 0 C-0.62011678 3.64036199 -1.62214094 6.79212218 -3.06958008 10.18579102 C-3.49705032 11.19356094 -3.92452057 12.20133087 -4.36494446 13.23963928 C-5.06021492 14.85545143 -5.06021492 14.85545143 -5.76953125 16.50390625 C-6.2469426 17.61934311 -6.72435394 18.73477997 -7.2162323 19.88401794 C-8.22662472 22.23945761 -9.23965424 24.59376756 -10.25512695 26.94702148 C-11.80631436 30.54813988 -13.34196449 34.15562437 -14.87695312 37.76367188 C-15.86103354 40.05249014 -16.84602908 42.3409152 -17.83203125 44.62890625 C-18.2894722 45.70813858 -18.74691315 46.78737091 -19.21821594 47.89930725 C-19.65514267 48.90392502 -20.0920694 49.90854279 -20.54223633 50.94360352 C-21.11062981 52.26667259 -21.11062981 52.26667259 -21.69050598 53.61647034 C-23.28865533 56.52540793 -24.26605395 58.04820213 -27 60 C-30.62333229 60.99582694 -34.27914618 61.50599133 -38 62 C-38.86893324 62.12520208 -39.73786648 62.25040417 -40.63313103 62.37940025 C-43.29975487 62.75391311 -45.96885028 63.09861487 -48.64038086 63.4362793 C-49.64017975 63.56497406 -50.63997864 63.69366882 -51.67007446 63.82626343 C-54.93459548 64.24546464 -58.19966328 64.66018743 -61.46484375 65.07421875 C-63.74883103 65.36517239 -66.03281225 65.65617352 -68.31678772 65.94721985 C-73.08306488 66.55370161 -77.84966333 67.15758671 -82.61645508 67.76000977 C-88.72950618 68.53307926 -94.84128236 69.31578709 -100.95281124 70.10078716 C-105.65926206 70.70370153 -110.36653653 71.29997658 -115.07406807 71.8943882 C-117.32906377 72.18024198 -119.58375117 72.46853874 -121.8381176 72.75931358 C-124.97970105 73.16383371 -128.12232235 73.559034 -131.26538086 73.9519043 C-132.19684433 74.07391708 -133.1283078 74.19592987 -134.08799744 74.32164001 C-134.9442572 74.42675903 -135.80051697 74.53187805 -136.682724 74.6401825 C-137.42430724 74.73437312 -138.16589048 74.82856375 -138.92994595 74.92560863 C-141.14478826 75.00520324 -142.88701908 74.63809237 -145 74 C-125.5 62.75 -106 51.5 -86.5 40.25 C-85.42621094 39.63044434 -84.35242188 39.01088867 -83.24609375 38.37255859 C-81.09266491 37.13032038 -78.93902116 35.88845463 -76.78515625 34.64697266 C-71.75793245 31.74870197 -66.73278998 28.84701928 -61.71557617 25.93145752 C-59.95024789 24.90584372 -58.18421529 23.88145336 -56.41796875 22.85742188 C-54.2108368 21.57728534 -52.00501077 20.29489334 -49.80078125 19.00976562 C-38.9457678 12.72052928 -28.5645817 7.94244592 -16.5625 4.1875 C-15.28429762 3.77733906 -14.00630135 3.36653525 -12.72851562 2.95507812 C-3.41629464 0 -3.41629464 0 0 0 Z " fill="#6FB1E1" transform="translate(447,348)"/>
</svg>
