<?xml version="1.0" encoding="UTF-8"?>
<svg version="1.1" xmlns="http://www.w3.org/2000/svg" width="512" height="512">
<path d="M0 0 C1.28216404 -0.00538554 2.56432808 -0.01077108 3.88534558 -0.01631981 C7.42394266 -0.03071793 10.96230571 -0.02654749 14.50091529 -0.019153 C18.32515608 -0.01440958 22.1493471 -0.02694155 25.97357178 -0.03717041 C33.45778582 -0.05434099 40.94191584 -0.05520202 48.42614447 -0.04995751 C54.51137064 -0.04591121 60.59657203 -0.04736483 66.68179703 -0.05270576 C67.98239913 -0.0538284 67.98239913 -0.0538284 69.30927602 -0.05497371 C71.07089718 -0.05650524 72.83251833 -0.05804358 74.59413947 -0.05958868 C91.10361073 -0.0733075 107.61303456 -0.06788045 124.12250473 -0.05640347 C139.21388779 -0.04647247 154.30514822 -0.05941054 169.39651237 -0.08333766 C184.90628337 -0.10774217 200.41599728 -0.11733316 215.92578709 -0.11068493 C224.62776514 -0.10719562 233.3296489 -0.10940568 242.0316124 -0.12693596 C249.43962736 -0.14167489 256.84748164 -0.14227137 264.25549351 -0.12486505 C268.03211636 -0.1163664 271.8084524 -0.11417738 275.58506012 -0.1295166 C279.68633257 -0.14596771 283.78691621 -0.13118533 287.88818359 -0.11352539 C289.07176103 -0.1231304 290.25533846 -0.1327354 291.47478187 -0.14263147 C302.25946797 -0.04728829 312.23266349 2.63212658 320.07107544 10.38768005 C328.62586806 20.64654605 331.23142212 30.7272269 331.20478821 43.90248108 C331.20705376 44.73389535 331.20931932 45.56530963 331.21165353 46.42191827 C331.21795842 49.19388574 331.21716645 51.96580388 331.21633911 54.73777771 C331.21933268 56.73067284 331.22273566 58.72356739 331.22651672 60.71646118 C331.23533791 66.11910575 331.23769396 71.52173447 331.23833251 76.92438555 C331.23904374 80.29961721 331.24117938 83.67484486 331.24382973 87.05007553 C331.25307482 98.82407131 331.2571654 110.59805577 331.25637817 122.37205505 C331.25577664 133.35057768 331.26634535 144.3290513 331.28212184 155.30756152 C331.29518641 164.73445671 331.30056257 174.16133585 331.29992276 183.58824003 C331.29966759 189.21824899 331.30253018 194.84821432 331.31310081 200.47821426 C331.32276428 205.76907113 331.32287303 211.05984245 331.31558418 216.35070229 C331.31453636 218.29335339 331.31691287 220.23600978 331.32294464 222.17865181 C331.33063924 224.82815128 331.32603667 227.47735344 331.3183136 230.12684631 C331.32345716 230.89736977 331.32860072 231.66789323 331.33390015 232.46176589 C331.30769041 236.524016 331.06341701 239.8031444 329.07107544 243.38768005 C326.07107544 245.38768005 326.07107544 245.38768005 323.07107544 245.38768005 C323.07107544 251.65768005 323.07107544 257.92768005 323.07107544 264.38768005 C324.39107544 264.71768005 325.71107544 265.04768005 327.07107544 265.38768005 C329.48896974 267.35781615 330.05610108 268.34275696 331.07107544 271.38768005 C331.16915715 274.10089444 331.21013428 276.78836933 331.20478821 279.50170898 C331.20705376 280.33842839 331.20931932 281.17514779 331.21165353 282.03722233 C331.21800234 284.85140246 331.21716358 287.66553455 331.21633911 290.47972107 C331.21933017 292.49346987 331.22273257 294.50721811 331.22651672 296.52096558 C331.2353692 302.00062651 331.23769544 307.48027185 331.23833251 312.95993924 C331.23928124 317.53463816 331.24295937 322.10933343 331.2465046 326.68403095 C331.25465491 337.48181495 331.25708842 348.2795906 331.25637817 359.07737732 C331.25577812 370.20908686 331.26631415 381.34074782 331.28212184 392.47244507 C331.29521098 402.03097148 331.30056145 411.58948205 331.29992276 421.14801735 C331.29966806 426.85593396 331.30250376 432.56380748 331.31310081 438.27171516 C331.32280417 443.64543247 331.3228456 449.0190657 331.31558418 454.39278603 C331.31454093 456.360747 331.3168858 458.32871327 331.32294464 460.29666519 C331.36626196 475.34661039 330.57508529 487.02944215 322.38357544 500.07518005 C313.46500445 508.99375104 304.22315722 512.69823716 291.74226868 512.79357237 C290.55422981 512.78756232 289.36619093 512.78155228 288.14215088 512.77536011 C286.21890482 512.78343841 286.21890482 512.78343841 284.2568053 512.79167992 C280.71820822 512.80607804 277.17984517 512.8019076 273.64123559 512.79451311 C269.81699479 512.78976968 265.99280378 512.80230166 262.1685791 512.81253052 C254.68436506 512.82970109 247.20023504 512.83056213 239.71600641 512.82531761 C233.63078024 512.82127131 227.54557884 512.82272493 221.46035385 512.82806587 C220.59328578 512.82881429 219.72621771 512.82956272 218.83287486 512.83033382 C217.0712537 512.83186534 215.30963255 512.83340369 213.54801141 512.83494879 C197.03854015 512.84866761 180.52911632 512.84324056 164.01964615 512.83176357 C148.92826309 512.82183258 133.83700266 512.83477065 118.7456385 512.85869776 C103.23586751 512.88310228 87.7261536 512.89269326 72.21636379 512.88604504 C63.51438574 512.88255573 54.81250198 512.88476579 46.11053848 512.90229607 C38.70252352 512.917035 31.29466924 512.91763148 23.88665737 512.90022516 C20.11003451 512.89172651 16.33369848 512.88953749 12.55709076 512.90487671 C8.45581831 512.92132781 4.35523467 512.90654544 0.25396729 512.8888855 C-0.92961015 512.8984905 -2.11318758 512.90809551 -3.33263099 512.91799158 C-14.11731709 512.82264839 -24.09051261 510.14323352 -31.92892456 502.38768005 C-41.30342921 491.14581935 -43.07352445 480.28199028 -43.13204956 465.9775238 C-43.13774963 464.89185623 -43.14344971 463.80618866 -43.14932251 462.68762207 C-43.15873578 460.40072087 -43.16529182 458.11380634 -43.16915894 455.82688904 C-43.17890208 452.33324206 -43.20997584 448.84017454 -43.24142456 445.34666443 C-43.24795189 443.11945436 -43.25320342 440.89224011 -43.25704956 438.6650238 C-43.27556976 437.103881 -43.27556976 437.103881 -43.29446411 435.51119995 C-43.26459126 425.77630857 -43.26459126 425.77630857 -39.92892456 421.38768005 C-38.27892456 421.05768005 -36.62892456 420.72768005 -34.92892456 420.38768005 C-34.92892456 414.11768005 -34.92892456 407.84768005 -34.92892456 401.38768005 C-36.24892456 401.05768005 -37.56892456 400.72768005 -38.92892456 400.38768005 C-41.34681886 398.41754396 -41.9139502 397.43260314 -42.92892456 394.38768005 C-43.02274778 392.65320129 -43.0580498 390.91530716 -43.06035233 389.17829418 C-43.06419347 388.09268521 -43.06803462 387.00707623 -43.07199216 385.88857001 C-43.07112568 384.69131633 -43.07025919 383.49406266 -43.06936646 382.26052856 C-43.07233758 380.9922139 -43.0753087 379.72389924 -43.07836986 378.4171508 C-43.08644791 374.88961902 -43.08822987 371.36210759 -43.08896732 367.83456767 C-43.09081647 364.03282857 -43.09836309 360.23110006 -43.10510254 356.42936707 C-43.11869193 348.11329282 -43.12471148 339.7972234 -43.1291132 331.4811399 C-43.1318745 326.29011733 -43.13611164 321.09909664 -43.14061737 315.90807533 C-43.15281065 301.54007299 -43.16310996 287.17207215 -43.16649246 272.80406475 C-43.16671203 271.88425239 -43.16693159 270.96444002 -43.16715781 270.01675456 C-43.16737609 269.09472279 -43.16759437 268.17269102 -43.16781926 267.22271889 C-43.16826273 265.35428472 -43.16870929 263.48585055 -43.16915894 261.61741638 C-43.16938037 260.69060555 -43.1696018 259.76379473 -43.16982993 258.80889872 C-43.17377872 243.78814621 -43.19123494 228.76744219 -43.21451846 213.74670842 C-43.23822173 198.33095336 -43.25069384 182.91522265 -43.25186038 167.49944907 C-43.2527777 158.84170473 -43.25854432 150.18402357 -43.27667999 141.52629662 C-43.29206715 134.15462239 -43.29720964 126.78303088 -43.28894189 119.41134366 C-43.2850305 115.64959718 -43.28598868 111.88801733 -43.29999924 108.12629128 C-43.31504514 104.04933414 -43.30688623 99.9727538 -43.29641724 95.89578247 C-43.30447364 94.70522096 -43.31253005 93.51465945 -43.32083058 92.28802031 C-43.25658989 81.62876243 -43.25658989 81.62876243 -39.92892456 77.38768005 C-37.45392456 76.89268005 -37.45392456 76.89268005 -34.92892456 76.38768005 C-34.92892456 70.11768005 -34.92892456 63.84768005 -34.92892456 57.38768005 C-36.24892456 57.05768005 -37.56892456 56.72768005 -38.92892456 56.38768005 C-41.34681886 54.41754396 -41.9139502 53.43260314 -42.92892456 50.38768005 C-43.67606234 36.05305992 -41.94042952 24.96155832 -34.24142456 12.70018005 C-24.08262058 2.54137607 -13.99964121 -0.07082132 0 0 Z " fill="#F1EEF1" transform="translate(111.92892456054688,-0.3876800537109375)"/>
<path d="M0 0 C1.28216404 -0.00538554 2.56432808 -0.01077108 3.88534558 -0.01631981 C7.42394266 -0.03071793 10.96230571 -0.02654749 14.50091529 -0.019153 C18.32515608 -0.01440958 22.1493471 -0.02694155 25.97357178 -0.03717041 C33.45778582 -0.05434099 40.94191584 -0.05520202 48.42614447 -0.04995751 C54.51137064 -0.04591121 60.59657203 -0.04736483 66.68179703 -0.05270576 C67.98239913 -0.0538284 67.98239913 -0.0538284 69.30927602 -0.05497371 C71.07089718 -0.05650524 72.83251833 -0.05804358 74.59413947 -0.05958868 C91.10361073 -0.0733075 107.61303456 -0.06788045 124.12250473 -0.05640347 C139.21388779 -0.04647247 154.30514822 -0.05941054 169.39651237 -0.08333766 C184.90628337 -0.10774217 200.41599728 -0.11733316 215.92578709 -0.11068493 C224.62776514 -0.10719562 233.3296489 -0.10940568 242.0316124 -0.12693596 C249.43962736 -0.14167489 256.84748164 -0.14227137 264.25549351 -0.12486505 C268.03211636 -0.1163664 271.8084524 -0.11417738 275.58506012 -0.1295166 C279.68633257 -0.14596771 283.78691621 -0.13118533 287.88818359 -0.11352539 C289.07176103 -0.1231304 290.25533846 -0.1327354 291.47478187 -0.14263147 C302.25946797 -0.04728829 312.23266349 2.63212658 320.07107544 10.38768005 C328.62586806 20.64654605 331.23142212 30.7272269 331.20478821 43.90248108 C331.20705376 44.73389535 331.20931932 45.56530963 331.21165353 46.42191827 C331.21795842 49.19388574 331.21716645 51.96580388 331.21633911 54.73777771 C331.21933268 56.73067284 331.22273566 58.72356739 331.22651672 60.71646118 C331.23533791 66.11910575 331.23769396 71.52173447 331.23833251 76.92438555 C331.23904374 80.29961721 331.24117938 83.67484486 331.24382973 87.05007553 C331.25307482 98.82407131 331.2571654 110.59805577 331.25637817 122.37205505 C331.25577664 133.35057768 331.26634535 144.3290513 331.28212184 155.30756152 C331.29518641 164.73445671 331.30056257 174.16133585 331.29992276 183.58824003 C331.29966759 189.21824899 331.30253018 194.84821432 331.31310081 200.47821426 C331.32276428 205.76907113 331.32287303 211.05984245 331.31558418 216.35070229 C331.31453636 218.29335339 331.31691287 220.23600978 331.32294464 222.17865181 C331.33063924 224.82815128 331.32603667 227.47735344 331.3183136 230.12684631 C331.32345716 230.89736977 331.32860072 231.66789323 331.33390015 232.46176589 C331.30769041 236.524016 331.06341701 239.8031444 329.07107544 243.38768005 C326.07107544 245.38768005 326.07107544 245.38768005 322.63357544 245.32518005 C319.07107544 244.38768005 319.07107544 244.38768005 316.87680054 242.55303955 C314.13236537 237.74216113 314.54603571 233.25072072 314.61697388 227.8044281 C314.61638977 226.6332695 314.61580566 225.4621109 314.61520386 224.25546265 C314.61798935 220.38647266 314.64910528 216.51825413 314.68045044 212.6493988 C314.68791117 209.96610204 314.69380165 207.28284795 314.69760132 204.59954834 C314.71002247 198.26012392 314.74283209 191.92097616 314.78299928 185.58167344 C314.83213522 177.65443193 314.85399934 169.72714527 314.87576294 161.79978943 C314.91469624 147.66220424 314.99482802 133.52522257 315.07107544 119.38768005 C284.71107544 119.38768005 254.35107544 119.38768005 223.07107544 119.38768005 C223.07107544 122.35768005 223.07107544 125.32768005 223.07107544 128.38768005 C222.52371216 131.17845154 222.52371216 131.17845154 221.75076294 133.5087738 C221.32355957 134.81044495 221.32355957 134.81044495 220.88772583 136.13841248 C220.42160889 137.46836243 220.42160889 137.46836243 219.94607544 138.82518005 C219.6269519 139.75241882 219.30782837 140.67965759 218.97903442 141.63499451 C216.69574625 148.07054127 214.1796767 153.88925565 210.07107544 159.38768005 C209.47681763 160.21010193 208.88255981 161.0325238 208.27029419 161.87986755 C195.91192489 178.17607396 177.57920757 190.49694007 157.07107544 193.38768005 C130.31248141 194.89443477 109.38989503 190.43288728 88.86795044 172.45799255 C75.91552698 160.14824659 68.0490931 143.86734891 65.07107544 126.38768005 C65.07107544 124.07768005 65.07107544 121.76768005 65.07107544 119.38768005 C34.71107544 119.38768005 4.35107544 119.38768005 -26.92892456 119.38768005 C-26.90797729 127.72235535 -26.88703003 136.05703064 -26.865448 144.64427185 C-26.80127096 171.30104967 -26.75676455 197.9578254 -26.72466324 224.61466001 C-26.71966032 228.75408811 -26.71448304 232.89351597 -26.709198 237.03294373 C-26.70814876 237.85704185 -26.70709951 238.68113998 -26.70601848 239.53021077 C-26.68860526 252.88024661 -26.65706254 266.23021367 -26.62031338 279.58020868 C-26.58292942 293.27484882 -26.56069411 306.96945288 -26.55257058 320.66414195 C-26.54707751 329.11699251 -26.52971778 337.56964867 -26.49725869 346.0224394 C-26.4761422 351.81599313 -26.46971799 357.60944611 -26.47491905 363.40303554 C-26.4774854 366.74757929 -26.47133099 370.09150827 -26.45210266 373.43603897 C-26.43228203 377.06042672 -26.43695734 380.68397405 -26.44790649 384.30838013 C-26.43625513 385.36771765 -26.42460376 386.42705517 -26.41259933 387.51849383 C-26.44882558 391.93691749 -26.49369907 394.6365475 -28.74023819 398.51373005 C-31.7994707 401.13304036 -33.93654894 401.45897248 -37.92892456 401.38768005 C-40.87465061 399.21714507 -41.76953397 397.86585183 -42.92892456 394.38768005 C-43.02274778 392.65320129 -43.0580498 390.91530716 -43.06035233 389.17829418 C-43.06419347 388.09268521 -43.06803462 387.00707623 -43.07199216 385.88857001 C-43.07112568 384.69131633 -43.07025919 383.49406266 -43.06936646 382.26052856 C-43.07233758 380.9922139 -43.0753087 379.72389924 -43.07836986 378.4171508 C-43.08644791 374.88961902 -43.08822987 371.36210759 -43.08896732 367.83456767 C-43.09081647 364.03282857 -43.09836309 360.23110006 -43.10510254 356.42936707 C-43.11869193 348.11329282 -43.12471148 339.7972234 -43.1291132 331.4811399 C-43.1318745 326.29011733 -43.13611164 321.09909664 -43.14061737 315.90807533 C-43.15281065 301.54007299 -43.16310996 287.17207215 -43.16649246 272.80406475 C-43.16671203 271.88425239 -43.16693159 270.96444002 -43.16715781 270.01675456 C-43.16737609 269.09472279 -43.16759437 268.17269102 -43.16781926 267.22271889 C-43.16826273 265.35428472 -43.16870929 263.48585055 -43.16915894 261.61741638 C-43.16938037 260.69060555 -43.1696018 259.76379473 -43.16982993 258.80889872 C-43.17377872 243.78814621 -43.19123494 228.76744219 -43.21451846 213.74670842 C-43.23822173 198.33095336 -43.25069384 182.91522265 -43.25186038 167.49944907 C-43.2527777 158.84170473 -43.25854432 150.18402357 -43.27667999 141.52629662 C-43.29206715 134.15462239 -43.29720964 126.78303088 -43.28894189 119.41134366 C-43.2850305 115.64959718 -43.28598868 111.88801733 -43.29999924 108.12629128 C-43.31504514 104.04933414 -43.30688623 99.9727538 -43.29641724 95.89578247 C-43.30447364 94.70522096 -43.31253005 93.51465945 -43.32083058 92.28802031 C-43.25658989 81.62876243 -43.25658989 81.62876243 -39.92892456 77.38768005 C-37.45392456 76.89268005 -37.45392456 76.89268005 -34.92892456 76.38768005 C-34.92892456 70.11768005 -34.92892456 63.84768005 -34.92892456 57.38768005 C-36.24892456 57.05768005 -37.56892456 56.72768005 -38.92892456 56.38768005 C-41.34681886 54.41754396 -41.9139502 53.43260314 -42.92892456 50.38768005 C-43.67606234 36.05305992 -41.94042952 24.96155832 -34.24142456 12.70018005 C-24.08262058 2.54137607 -13.99964121 -0.07082132 0 0 Z " fill="#010102" transform="translate(111.92892456054688,-0.3876800537109375)"/>
<path d="M0 0 C30.36 0 60.72 0 92 0 C92.03738281 8.61609375 92.07476562 17.2321875 92.11328125 26.109375 C92.14739625 32.25282477 92.18338259 38.39624116 92.22207737 44.53966141 C92.27198299 52.5026607 92.31743864 60.46560511 92.34643555 68.42871094 C92.36940416 74.73246441 92.40278925 81.03606174 92.44870156 87.3396914 C92.4726497 90.67771663 92.48981419 94.015443 92.49761391 97.35356903 C92.50720315 101.0793726 92.53520145 104.80460856 92.56762695 108.53027344 C92.56547432 110.19183472 92.56547432 110.19183472 92.5632782 111.88696289 C92.58208542 113.40975861 92.58208542 113.40975861 92.60127258 114.96331787 C92.60588155 115.84455196 92.61049051 116.72578606 92.61523914 117.63372421 C93.08990402 120.55290892 93.92938341 121.90222318 96 124 C97.32 124.33 98.64 124.66 100 125 C100 131.93 100 138.86 100 146 C98.35 146.66 96.7 147.32 95 148 C92.43574264 150.56425736 92.75811712 152.24777227 92.73431265 155.74339306 C92.74130747 156.95795424 92.74130747 156.95795424 92.7484436 158.197052 C92.74547346 159.05474587 92.74250333 159.91243974 92.73944318 160.79612434 C92.73176849 163.68722908 92.73831143 166.57813272 92.74462891 169.46923828 C92.74188057 171.53534585 92.73820163 173.60145236 92.73365784 175.66755676 C92.72552892 180.12614492 92.72338166 184.58468288 92.72560501 189.04327774 C92.72843156 196.09431323 92.71410981 203.14524797 92.69662476 210.19625854 C92.64953773 230.24996415 92.62566148 250.30366348 92.61914062 270.35742188 C92.61538949 281.42589498 92.59735282 292.49425467 92.56404626 303.56267917 C92.54382375 310.57032123 92.54146675 317.5776709 92.55232644 324.58533025 C92.55493503 328.95063172 92.54092153 333.31576332 92.52224541 337.68102074 C92.51692603 339.70302778 92.51841584 341.72506617 92.52728081 343.74706078 C92.53842388 346.5121279 92.52494481 349.27604867 92.50552368 352.04104614 C92.51464834 352.83736926 92.523773 353.63369238 92.53317416 354.4541465 C92.44298987 361.07340662 90.39863642 366.21292044 86.0703125 371.2421875 C85.42835938 371.78101563 84.78640625 372.31984375 84.125 372.875 C83.48820312 373.42929687 82.85140625 373.98359375 82.1953125 374.5546875 C75.80484525 378.76193462 69.04752435 378.28690918 61.67739868 378.26742554 C60.42426608 378.27195665 59.17113349 378.27648776 57.88002717 378.28115618 C54.40871842 378.29337344 50.93750614 378.29312724 47.4661808 378.29076743 C43.71966191 378.29035895 39.97317382 378.30140137 36.22666931 378.31088257 C28.88945504 378.32748607 21.5522729 378.3329918 14.21504141 378.33410732 C8.2508125 378.33505802 2.28659418 378.33916938 -3.67763138 378.34550858 C-20.59028378 378.3631185 -37.50291081 378.37234773 -54.41557245 378.37084763 C-55.32708588 378.37076772 -56.23859932 378.3706878 -57.17773438 378.37060547 C-58.09036162 378.37052371 -59.00298886 378.37044195 -59.94327147 378.37035771 C-74.73617504 378.36954467 -89.52897682 378.38868739 -104.32185094 378.4168822 C-119.5139735 378.44560936 -134.70604641 378.45942262 -149.89819682 378.45769465 C-158.42630921 378.45703073 -166.95431487 378.46252381 -175.4824028 378.48405075 C-182.74271395 378.50226024 -190.00286997 378.50661176 -197.26319407 378.4930319 C-200.96652277 378.48650128 -204.66955383 378.48638815 -208.37285423 378.5037384 C-212.38993861 378.52236503 -216.40633367 378.50991739 -220.4234314 378.49447632 C-221.59055707 378.50476344 -222.75768275 378.51505057 -223.96017587 378.52564943 C-231.78587486 378.45910399 -237.19241438 377.33661249 -243.2421875 372.03515625 C-243.78101563 371.38417969 -244.31984375 370.73320312 -244.875 370.0625 C-245.42929688 369.41410156 -245.98359375 368.76570313 -246.5546875 368.09765625 C-249.98367909 363.12098467 -250.26240534 358.60121434 -250.125 352.6875 C-250.11597656 351.94693359 -250.10695313 351.20636719 -250.09765625 350.44335938 C-250.07424213 348.62876533 -250.03837615 346.81433929 -250 345 C-242.93432061 344.83185018 -235.86848941 344.6719456 -228.80249023 344.51782227 C-226.39782467 344.46439247 -223.99320056 344.40906237 -221.58862305 344.35180664 C-218.13599588 344.26992334 -214.68327822 344.19483416 -211.23046875 344.12109375 C-209.61316109 344.08054115 -209.61316109 344.08054115 -207.96318054 344.03916931 C-206.96236954 344.01907303 -205.96155853 343.99897675 -204.93041992 343.97827148 C-204.04883713 343.95828598 -203.16725433 343.93830048 -202.25895691 343.91770935 C-200 344 -200 344 -197 345 C-194.32475551 345.10652184 -191.67518196 345.1572478 -188.99951172 345.16113281 C-188.18447678 345.16609772 -187.36944183 345.17106262 -186.52970886 345.17617798 C-183.82969316 345.19079708 -181.1297363 345.19760277 -178.4296875 345.203125 C-176.54981485 345.20887863 -174.66994221 345.21463634 -172.79006958 345.22039795 C-168.84409309 345.23090858 -164.89813696 345.23675019 -160.95214844 345.24023438 C-155.9118524 345.24570558 -150.87182835 345.26970388 -145.83161736 345.29820633 C-141.94525384 345.31689606 -138.05895485 345.32204177 -134.1725502 345.32357025 C-132.31552781 345.32658529 -130.45850623 345.33457475 -128.60152817 345.34775543 C-125.99309844 345.3649414 -123.3853199 345.36290486 -120.77685547 345.35644531 C-120.01911331 345.3656601 -119.26137115 345.37487488 -118.48066711 345.3843689 C-112.88183757 345.3412563 -108.20581914 344.01849542 -103 342 C-103.33 342.66 -103.66 343.32 -104 344 C-83.74654552 344.11677581 -63.49315931 344.20495997 -43.23943806 344.25906086 C-33.83537356 344.284848 -24.43151817 344.32000821 -15.02758789 344.37719727 C-6.83158501 344.42701669 1.36426643 344.45928731 9.56041652 344.47044247 C13.90073027 344.47696375 18.24061079 344.49230084 22.58078575 344.52865028 C26.66596402 344.56258692 30.75053057 344.57305785 34.83583641 344.56553841 C36.33506087 344.56691402 37.83430578 344.57686102 39.33340836 344.59602737 C41.3809097 344.62092117 43.42873924 344.61193888 45.47636414 344.60127258 C46.62215281 344.60588155 47.76794149 344.61049051 48.94845104 344.61523914 C52.09806862 344.15455532 52.09806862 344.15455532 54.86777496 342.30198669 C58.28210453 337.01451909 57.68981448 331.73006149 57.63923645 325.56694031 C57.64554818 324.16843128 57.65405108 322.76993072 57.66455668 321.37144691 C57.68707826 317.52881798 57.67849181 313.68678904 57.6648711 309.84414136 C57.65561667 305.70030645 57.67514628 301.55659621 57.69119263 297.41279602 C57.71504798 290.23352734 57.72063752 283.05443036 57.71384621 275.87512779 C57.70405349 265.49508159 57.72176878 255.115226 57.74621352 244.73521063 C57.78512491 227.89467725 57.80176735 211.0541983 57.80444336 194.21362305 C57.80709057 177.85389411 57.82020207 161.49422881 57.84741211 145.13452148 C57.84908549 144.1262306 57.85075887 143.11793971 57.85248295 142.07909455 C57.86094238 137.02083134 57.8696078 131.9625685 57.87837565 126.90430582 C57.9508554 84.93621077 57.98583947 42.96815183 58 1 C39.19 1 20.38 1 1 1 C0.67 1.66 0.34 2.32 0 3 C0 2.01 0 1.02 0 0 Z " fill="#E1DDE1" transform="translate(335,119)"/>
<path d="M0 0 C1.07380739 -0.00644889 2.14761479 -0.01289778 3.2539618 -0.0195421 C4.42777964 -0.01644489 5.60159749 -0.01334769 6.81098557 -0.01015663 C8.06255817 -0.01468774 9.31413078 -0.01921886 10.60362983 -0.02388728 C14.07526726 -0.03612038 17.54680835 -0.03585645 21.01846242 -0.03349853 C24.76365472 -0.03309043 28.50881609 -0.04412886 32.25399399 -0.05361366 C39.59101247 -0.07022679 46.92799881 -0.07572337 54.26503453 -0.07683842 C60.2297555 -0.07778883 66.19446588 -0.08189879 72.1591835 -0.08823967 C89.07267839 -0.10585365 105.9861479 -0.1150784 122.89965203 -0.11357872 C124.26737621 -0.11345885 124.26737621 -0.11345885 125.66273117 -0.11333656 C127.03212682 -0.11321392 127.03212682 -0.11321392 128.42918703 -0.1130888 C143.22147864 -0.11227606 158.01366838 -0.13141028 172.80593053 -0.1596133 C187.99689624 -0.18834774 203.18781229 -0.20215325 218.37880588 -0.20042574 C226.90640612 -0.19976199 235.43389961 -0.20524769 243.96147537 -0.22678185 C251.2228801 -0.24500112 258.48412969 -0.24933496 265.74554738 -0.235763 C269.44899304 -0.2292368 273.15214112 -0.22910317 276.8555584 -0.2464695 C280.87453554 -0.26512133 284.89282495 -0.2526366 288.91181564 -0.23720741 C290.0767106 -0.24749454 291.24160555 -0.25778167 292.44180036 -0.26838052 C300.36371898 -0.20117891 306.7355627 1.05756313 312.95521164 6.18695641 C313.4824382 6.82890953 314.00966476 7.47086266 314.55286789 8.13226891 C315.37077805 9.08746422 315.37077805 9.08746422 316.20521164 10.06195641 C319.36593267 14.98252488 319.86288774 19.70418989 319.84241867 25.45599937 C319.84265974 26.16048777 319.84290081 26.86497616 319.84314919 27.59081268 C319.84166645 29.85215955 319.82648209 32.11316917 319.81068039 34.37445641 C319.80773672 35.77818201 319.80569827 37.18190981 319.80457687 38.58563805 C319.79412709 43.76788199 319.76620453 48.95007883 319.74036789 54.13226891 C319.69911789 65.72351891 319.65786789 77.31476891 319.61536789 89.25726891 C289.25536789 89.25726891 258.89536789 89.25726891 227.61536789 89.25726891 C225.96536789 83.31726891 224.31536789 77.37726891 222.61536789 71.25726891 C213.56605267 50.49707516 199.37627877 34.61810831 178.11536789 25.94476891 C159.01848633 18.58886274 135.11132887 18.63622026 116.20521164 26.90961266 C96.74449228 37.03623133 83.39785296 51.09747363 74.61536789 71.25726891 C72.96536789 77.19726891 71.31536789 83.13726891 69.61536789 89.25726891 C39.25536789 89.25726891 8.89536789 89.25726891 -22.38463211 89.25726891 C-22.71463211 81.66726891 -23.04463211 74.07726891 -23.38463211 66.25726891 C-26.18455043 62.94285483 -26.18455043 62.94285483 -30.38463211 62.25726891 C-30.38463211 55.32726891 -30.38463211 48.39726891 -30.38463211 41.25726891 C-28.73463211 40.59726891 -27.08463211 39.93726891 -25.38463211 39.25726891 C-23.2983887 36.12790379 -23.14449431 35.42510961 -23.14635086 31.87055016 C-23.12218094 30.58567711 -23.12218094 30.58567711 -23.09752274 29.27484703 C-23.08077964 27.49106384 -23.07531526 25.70713416 -23.08189774 23.92328453 C-22.90729552 16.38159543 -20.58108719 11.76524291 -15.54088211 6.23383141 C-14.99431961 5.78781578 -14.44775711 5.34180016 -13.88463211 4.88226891 C-13.33806961 4.42078453 -12.79150711 3.95930016 -12.22838211 3.48383141 C-8.27335301 0.85273154 -4.71096122 0.00716885 0 0 Z " fill="#6D60B5" transform="translate(107.3846321105957,14.742731094360352)"/>
<path d="M0 0 C0.78445999 -0.00832352 1.56891998 -0.01664703 2.37715149 -0.02522278 C4.96413175 -0.0492667 7.55085938 -0.05808936 10.13793945 -0.06469727 C11.94529798 -0.0736701 13.75265576 -0.08279206 15.56001282 -0.09205627 C19.34862061 -0.10853518 23.13714018 -0.11624399 26.92578125 -0.11914062 C31.75989653 -0.12451355 36.59317189 -0.16215297 41.42705059 -0.20788479 C45.16163591 -0.23776195 48.89602193 -0.24486654 52.63071632 -0.24586678 C54.4115768 -0.2500504 56.1924389 -0.26240943 57.97318077 -0.28338432 C77.92244503 -0.49959776 77.92244503 -0.49959776 85.98271179 7.12062073 C90.55407465 11.99490868 92.30169947 16.61198016 92.37011719 23.31494141 C92.38610458 24.5035527 92.40209198 25.692164 92.41856384 26.91679382 C92.42392654 28.19391739 92.42928925 29.47104095 92.43481445 30.78686523 C92.44379357 32.12339878 92.45291562 33.45993137 92.46217346 34.79646301 C92.47863503 37.59642976 92.48635776 40.3962774 92.48925781 43.19628906 C92.49462412 46.75931639 92.53224094 50.32120052 92.57800198 53.88390636 C92.60796535 56.64571562 92.61498557 59.4072567 92.61598396 62.16921425 C92.62216031 64.11334452 92.65153567 66.05735737 92.6815033 68.00126648 C92.63876928 76.46950474 91.3494496 83.42340936 85.62083435 89.95036316 C80.03850112 95.0151034 73.90612953 95.60450854 66.67504883 95.58105469 C65.85475693 95.58616562 65.03446503 95.59127655 64.1893158 95.59654236 C61.49112554 95.61038659 58.79319214 95.60948576 56.0949707 95.60717773 C54.21219793 95.61106697 52.32942604 95.61540211 50.44665527 95.62016296 C46.50599316 95.62761365 42.56542066 95.62734185 38.62475586 95.62207031 C33.58086392 95.61627145 28.53733869 95.63322234 23.49350739 95.65641499 C19.60725773 95.67116118 15.72109628 95.67202292 11.83482361 95.66890526 C9.97532931 95.66941783 8.11583 95.6746436 6.25636292 95.68471718 C3.65479813 95.69708406 1.05394635 95.69028901 -1.54760742 95.67871094 C-2.6933297 95.69017654 -2.6933297 95.69017654 -3.86219788 95.70187378 C-10.77470045 95.6340397 -16.072584 93.17009179 -20.9362793 88.30639648 C-26.17109644 80.57199231 -26.67408161 73.4420811 -26.6003418 64.30249023 C-26.60512543 62.98402603 -26.60990906 61.66556183 -26.61483765 60.30714417 C-26.62215913 57.53258556 -26.61165803 54.75883835 -26.58813477 51.984375 C-26.55961914 48.45149261 -26.57609486 44.9205077 -26.60599709 41.38769436 C-26.62854037 37.98414605 -26.61269966 34.58109221 -26.6003418 31.17749023 C-26.61046295 29.92101181 -26.62058411 28.66453339 -26.63101196 27.36997986 C-26.51638925 18.72783005 -24.99856158 12.48408452 -18.8737793 6.18530273 C-18.2344043 5.75088867 -17.5950293 5.31647461 -16.9362793 4.86889648 C-16.2969043 4.41643555 -15.6575293 3.96397461 -14.9987793 3.49780273 C-10.00915866 0.61554081 -5.70322707 0.00517108 0 0 Z " fill="#020303" transform="translate(147.936279296875,369.693603515625)"/>
<path d="M0 0 C3.03351802 3.75578422 2.45520735 8.17393186 2.44621277 12.73902893 C2.44847833 13.57574833 2.45074388 14.41246774 2.45307809 15.27454227 C2.4594269 18.08872241 2.45858814 20.90285449 2.45776367 23.71704102 C2.46075473 25.73078982 2.46415713 27.74453805 2.46794128 29.75828552 C2.47679377 35.23794646 2.47912 40.71759179 2.47975707 46.19725919 C2.4807058 50.77195811 2.48438393 55.34665338 2.48792917 59.9213509 C2.49607947 70.71913489 2.49851298 81.51691055 2.49780273 92.31469727 C2.49720268 103.4464068 2.50773871 114.57806777 2.5235464 125.70976502 C2.53663555 135.26829143 2.54198601 144.82680199 2.54134732 154.38533729 C2.54109262 160.09325391 2.54392832 165.80112743 2.55452538 171.50903511 C2.56422873 176.88275242 2.56427016 182.25638565 2.55700874 187.63010597 C2.55596549 189.59806695 2.55831037 191.56603321 2.5643692 193.53398514 C2.60768652 208.58393033 1.81650985 220.26676209 -6.375 233.3125 C-15.29357099 242.23107099 -24.53541822 245.93555711 -37.01630676 246.03089231 C-38.20434563 246.02488227 -39.39238451 246.01887222 -40.61642456 246.01268005 C-42.53967062 246.02075836 -42.53967062 246.02075836 -44.50177014 246.02899987 C-48.04036722 246.04339799 -51.57873027 246.03922755 -55.11733985 246.03183305 C-58.94158064 246.02708963 -62.76577166 246.03962161 -66.58999634 246.04985046 C-74.07421038 246.06702104 -81.5583404 246.06788207 -89.04256903 246.06263756 C-95.1277952 246.05859126 -101.21299659 246.06004488 -107.29822159 246.06538582 C-108.59882369 246.06650845 -108.59882369 246.06650845 -109.92570058 246.06765376 C-111.68732174 246.06918529 -113.44894289 246.07072364 -115.21056403 246.07226873 C-131.72003529 246.08598756 -148.22945912 246.0805605 -164.73892929 246.06908352 C-179.83031235 246.05915252 -194.92157278 246.07209059 -210.01293693 246.09601771 C-225.52270793 246.12042223 -241.03242184 246.13001321 -256.54221165 246.12336498 C-265.2441897 246.11987568 -273.94607346 246.12208574 -282.64803696 246.13961601 C-290.05605192 246.15435494 -297.4639062 246.15495142 -304.87191807 246.1375451 C-308.64854092 246.12904645 -312.42487696 246.12685743 -316.20148468 246.14219666 C-320.30275713 246.15864776 -324.40334077 246.14386539 -328.50460815 246.12620544 C-329.68818559 246.13581045 -330.87176302 246.14541546 -332.09120643 246.15531152 C-342.87589253 246.05996834 -352.84908805 243.38055347 -360.6875 235.625 C-370.06200465 224.38313929 -371.83209989 213.51931023 -371.890625 199.21484375 C-371.89917511 197.58634239 -371.89917511 197.58634239 -371.90789795 195.92494202 C-371.91731122 193.63804082 -371.92386726 191.35112628 -371.92773438 189.06420898 C-371.93747752 185.57056201 -371.96855128 182.07749449 -372 178.58398438 C-372.00652733 176.35677431 -372.01177886 174.12956006 -372.015625 171.90234375 C-372.0279718 170.86158188 -372.0403186 169.82082001 -372.05303955 168.7485199 C-372.03639788 163.32537439 -371.87998112 159.24854381 -368.6875 154.625 C-365.6793298 153.35840202 -364.1888477 153.4817578 -361.0625 154.375 C-358.66710184 155.63573587 -357.34946571 156.50824305 -355.6875 158.625 C-355.31568909 161.01994324 -355.31568909 161.01994324 -355.31860352 163.88745117 C-355.31172012 164.9625444 -355.30483673 166.03763763 -355.29774475 167.14530945 C-355.30390305 168.30778702 -355.31006134 169.47026459 -355.31640625 170.66796875 C-355.29901668 173.12825655 -355.28143238 175.58854298 -355.26367188 178.04882812 C-355.25361521 181.92849325 -355.24999804 185.80806655 -355.25170898 189.68774414 C-355.24812925 193.43143022 -355.22073965 197.17440892 -355.19140625 200.91796875 C-355.19958878 202.07032516 -355.2077713 203.22268158 -355.21620178 204.40995789 C-355.14497839 212.15186509 -354.1460732 217.61707849 -348.94140625 223.6484375 C-348.10416016 224.31746094 -348.10416016 224.31746094 -347.25 225 C-346.41662109 225.69222656 -346.41662109 225.69222656 -345.56640625 226.3984375 C-341.57842477 229.00181834 -338.03281787 229.87507116 -333.30286789 229.88226891 C-331.6921568 229.89194224 -331.6921568 229.89194224 -330.04890609 229.901811 C-328.28817932 229.8971652 -328.28817932 229.8971652 -326.49188232 229.89242554 C-325.24030972 229.89695665 -323.98873711 229.90148776 -322.69923806 229.90615618 C-319.22760063 229.91838929 -315.75605954 229.91812536 -312.28440547 229.91576743 C-308.53921317 229.91535934 -304.7940518 229.92639776 -301.0488739 229.93588257 C-293.71185542 229.9524957 -286.37486908 229.95799227 -279.03783336 229.95910732 C-273.07311239 229.96005774 -267.10840201 229.9641677 -261.14368439 229.97050858 C-244.2301895 229.98812255 -227.31671998 229.99734731 -210.40321586 229.99584763 C-209.49139974 229.99576772 -208.57958363 229.9956878 -207.64013672 229.99560547 C-206.72720629 229.99552371 -205.81427585 229.99544195 -204.87368086 229.99535771 C-190.08138925 229.99454497 -175.28919951 230.01367919 -160.49693736 230.0418822 C-145.30597165 230.07061665 -130.1150556 230.08442216 -114.92406201 230.08269465 C-106.39646177 230.0820309 -97.86896828 230.08751659 -89.34139252 230.10905075 C-82.07998779 230.12727003 -74.8187382 230.13160386 -67.55732051 230.1180319 C-63.85387485 230.1115057 -60.15072677 230.11137207 -56.44730949 230.1287384 C-52.42833235 230.14739024 -48.41004294 230.13490551 -44.39105225 230.11947632 C-42.64370981 230.13490701 -42.64370981 230.13490701 -40.86106753 230.15064943 C-33.29963673 230.08650583 -26.53634332 229.21134735 -20.80938888 223.87497842 C-15.46291957 218.08934552 -14.39075157 212.82904237 -14.4359436 205.04026794 C-14.43297346 204.17718854 -14.43000333 203.31410913 -14.42694318 202.4248758 C-14.41930641 199.53375261 -14.42579584 196.64283277 -14.43212891 193.75170898 C-14.42937893 191.67866885 -14.42569899 189.60562976 -14.42115784 187.53259277 C-14.41304601 183.06913772 -14.41087731 178.60573275 -14.41310501 174.14227104 C-14.41593576 167.0878934 -14.4015959 160.03361609 -14.38412476 152.97926331 C-14.33707217 132.91986593 -14.31314816 112.8604755 -14.30664062 92.80102539 C-14.30289469 81.72194811 -14.28490469 70.64298443 -14.25154626 59.56395584 C-14.23128716 52.54767324 -14.22898379 45.53168268 -14.23982644 38.51538265 C-14.24242717 34.15573936 -14.22846118 29.7962674 -14.20974541 25.4366684 C-14.20440763 23.41136613 -14.20594711 21.38603261 -14.21478081 19.36074257 C-14.22584953 16.60099854 -14.21253193 13.84242061 -14.19302368 11.08274841 C-14.20214834 10.27682029 -14.211273 9.47089216 -14.22067416 8.64054197 C-14.17110023 5.04959508 -14.00359759 3.03580322 -11.78090477 0.14717197 C-7.74834838 -2.78501028 -4.00851403 -3.26619662 0 0 Z " fill="#000000" transform="translate(440.6875,266.375)"/>
<path d="M0 0 C0.87398438 0.43441406 1.74796875 0.86882812 2.6484375 1.31640625 C15.97764919 8.51418056 25.33189913 21.02594014 30 35.3125 C33.45533647 50.81604917 30.89068347 66.24545822 22.8125 79.875 C13.81806679 92.69398921 1.83310701 101.55262691 -13.65893555 104.65136719 C-24.88318656 106.32288981 -36.782154 106.23193078 -47 101 C-47.89589844 100.59910156 -48.79179687 100.19820313 -49.71484375 99.78515625 C-62.93344024 93.38906117 -71.91669344 82.18396101 -77.3125 68.7265625 C-82.25622935 53.72371719 -81.25990173 39.13369119 -74.52734375 24.8828125 C-66.8954633 10.70158783 -55.02728914 1.19085593 -39.984375 -4.05078125 C-27.17743521 -7.62645993 -11.61497935 -6.30957812 0 0 Z " fill="#020203" transform="translate(359,262)"/>
<path d="M0 0 C5.86355204 2.64661848 10.10297047 6.3943453 13.0703125 12.16015625 C13.0703125 13.15015625 13.0703125 14.14015625 13.0703125 15.16015625 C14.04379639 15.13397217 15.01728027 15.10778809 16.02026367 15.08081055 C19.64486552 14.99005604 23.26936777 14.93281724 26.89477539 14.88549805 C28.46135364 14.86041078 30.02781549 14.8263321 31.59399414 14.78295898 C33.85071559 14.72204399 36.10588544 14.69389126 38.36328125 14.671875 C39.05930954 14.64606857 39.75533783 14.62026215 40.47245789 14.59367371 C44.32804672 14.59146855 45.96280428 15.07697554 49.0480957 17.46411133 C51.0703125 20.16015625 51.0703125 20.16015625 51.1328125 23.78515625 C49.93694388 27.58379776 49.48782944 28.30559573 46.0703125 30.16015625 C43.44885756 30.41645914 41.07505083 30.51085055 38.4609375 30.453125 C37.73412781 30.44888016 37.00731812 30.44463531 36.25848389 30.44026184 C33.94537746 30.42351755 31.63315395 30.3858751 29.3203125 30.34765625 C27.74871053 30.33260383 26.17709486 30.3189164 24.60546875 30.30664062 C20.76007835 30.2736282 16.91534494 30.22187681 13.0703125 30.16015625 C12.78671875 31.09601563 12.503125 32.031875 12.2109375 32.99609375 C10.07770347 38.9136265 5.29388069 41.980593 0.0703125 45.16015625 C-5.78479019 47.11185715 -13.16651883 47.24062411 -18.9296875 44.84765625 C-21.9296875 43.16015625 -21.9296875 43.16015625 -24.0546875 41.34765625 C-24.6734375 40.95578125 -25.2921875 40.56390625 -25.9296875 40.16015625 C-29.39367516 41.32151274 -32.61467417 42.94567058 -35.87182617 44.59033203 C-36.82598923 45.07067902 -37.78015228 45.551026 -38.76322937 46.04592896 C-39.78109024 46.56057709 -40.79895111 47.07522522 -41.84765625 47.60546875 C-44.00971187 48.69281522 -46.1718229 49.78005154 -48.33398438 50.8671875 C-51.73864691 52.58197154 -55.14266164 54.29801758 -58.5456543 56.01611328 C-61.83209121 57.67436154 -65.1209492 59.32772366 -68.41015625 60.98046875 C-69.43408981 61.49916534 -70.45802338 62.01786194 -71.51298523 62.55227661 C-72.4576918 63.02631927 -73.40239838 63.50036194 -74.37573242 63.98876953 C-75.20892502 64.40909454 -76.04211761 64.82941956 -76.90055847 65.26248169 C-78.9296875 66.16015625 -78.9296875 66.16015625 -80.9296875 66.16015625 C-80.9709375 67.43890625 -81.0121875 68.71765625 -81.0546875 70.03515625 C-81.82011326 76.68282658 -84.79796353 82.5779612 -90 86.8671875 C-97.31364768 91.54954127 -104.33782297 92.14181651 -112.9296875 91.16015625 C-118.92086723 88.69721039 -123.22376281 84.37161284 -126.9296875 79.16015625 C-127.2596875 78.17015625 -127.5896875 77.18015625 -127.9296875 76.16015625 C-143.1096875 76.16015625 -158.2896875 76.16015625 -173.9296875 76.16015625 C-175.2496875 78.47015625 -176.5696875 80.78015625 -177.9296875 83.16015625 C-179.7109375 85.0859375 -179.7109375 85.0859375 -181.4296875 86.47265625 C-182.28046875 87.17841797 -182.28046875 87.17841797 -183.1484375 87.8984375 C-189.50814981 92.40323372 -196.43567049 91.99875429 -203.9296875 91.16015625 C-211.3477836 88.70357684 -215.2219519 84.15940803 -218.87109375 77.4296875 C-221.60855668 71.5608094 -222.03843884 65.6988346 -220.09375 59.4921875 C-217.30693533 53.31069589 -213.74765553 49.58385115 -207.9296875 46.16015625 C-207.33671875 45.78890625 -206.74375 45.41765625 -206.1328125 45.03515625 C-200.29025604 42.71470829 -191.99422743 42.98613532 -186.15625 45.22265625 C-181.00573396 48.45711001 -176.95914126 52.88534265 -173.9296875 58.16015625 C-173.9296875 58.82015625 -173.9296875 59.48015625 -173.9296875 60.16015625 C-167.45117104 60.19459443 -160.97444305 60.17486039 -154.49609375 60.11743164 C-152.29235679 60.10429098 -150.08850953 60.10355844 -147.88476562 60.11547852 C-144.71633862 60.13046432 -141.55098727 60.10085232 -138.3828125 60.0625 C-137.39726379 60.07675522 -136.41171509 60.09101044 -135.39630127 60.10569763 C-132.7264048 60.04917064 -130.48315995 59.9454767 -127.9296875 59.16015625 C-125.82216611 56.94024683 -125.11740244 55.06341524 -123.9296875 52.16015625 C-122.1484375 50.234375 -122.1484375 50.234375 -120.4296875 48.84765625 C-119.8625 48.37714844 -119.2953125 47.90664062 -118.7109375 47.421875 C-112.57247732 43.07379904 -106.26134953 43.36220596 -98.9296875 44.16015625 C-94.62587546 45.66761125 -90.89641248 47.85073485 -87.11257935 50.3699646 C-84.9133159 51.41127202 -84.9133159 51.41127202 -82.56393433 50.4515686 C-81.69060455 50.00300507 -80.81727478 49.55444153 -79.91748047 49.09228516 C-78.92320038 48.5916153 -77.92892029 48.09094543 -76.9045105 47.57510376 C-75.30435593 46.73935318 -75.30435593 46.73935318 -73.671875 45.88671875 C-72.57247589 45.32898773 -71.47307678 44.77125671 -70.34036255 44.19662476 C-67.4188335 42.71172962 -64.50456666 41.21371951 -61.59350586 39.70843506 C-57.48614999 37.58846876 -53.36661629 35.49228788 -49.24758911 33.39511108 C-47.05448464 32.27677411 -44.8641994 31.1528888 -42.67697144 30.02310181 C-41.19500778 29.26264053 -41.19500778 29.26264053 -39.68310547 28.48681641 C-38.81136688 28.03666168 -37.9396283 27.58650696 -37.04147339 27.12271118 C-34.9296875 26.16015625 -34.9296875 26.16015625 -32.9296875 26.16015625 C-32.97609375 25.53109375 -33.0225 24.90203125 -33.0703125 24.25390625 C-33.33654241 17.940454 -32.76184144 13.30162946 -28.9296875 8.16015625 C-20.5640954 -0.53114538 -12.07020987 -3.46012683 0 0 Z " fill="#030303" transform="translate(340.9296875,187.83984375)"/>
<path d="M0 0 C13.09201964 10.07500394 22.38741729 24.55686746 24.984375 40.96484375 C26.67133599 59.02843747 24.1295879 76.14199133 12.984375 90.96484375 C12.324375 90.96484375 11.664375 90.96484375 10.984375 90.96484375 C9.72265625 89.05859375 9.72265625 89.05859375 8.296875 86.46484375 C2.26417001 76.20347234 -5.19551179 70.34422556 -15.015625 63.96484375 C-14.5103125 63.13984375 -14.005 62.31484375 -13.484375 61.46484375 C-7.4072465 50.91723726 -5.93236828 41.06724975 -8.953125 29.08984375 C-12.01314466 21.66040067 -18.05460047 15.58996092 -25.078125 11.83984375 C-33.23840541 8.61475402 -43.78684423 8.25291541 -52.015625 11.52734375 C-60.38779192 16.08090782 -66.97562254 22.84483636 -70.015625 31.96484375 C-70.75284054 42.42277282 -70.98780769 50.95227714 -65.015625 59.96484375 C-64.33250449 61.28982246 -63.66050645 62.62083849 -63.015625 63.96484375 C-63.72847656 64.47273438 -64.44132812 64.980625 -65.17578125 65.50390625 C-68.14001931 67.63432769 -71.07917549 69.79632751 -74.015625 71.96484375 C-74.67820313 72.43019531 -75.34078125 72.89554687 -76.0234375 73.375 C-80.71626193 76.94372927 -83.48198956 81.58193179 -86.35229492 86.6472168 C-87.19215734 88.11490242 -88.09865017 89.54405977 -89.015625 90.96484375 C-89.675625 90.96484375 -90.335625 90.96484375 -91.015625 90.96484375 C-102.01475651 73.39826963 -106.09278765 55.88923834 -102.3203125 35.140625 C-101.42216785 32.25373148 -100.36322043 29.66843085 -99.015625 26.96484375 C-98.59152344 26.0521875 -98.16742188 25.13953125 -97.73046875 24.19921875 C-89.52553238 7.83505597 -76.23544479 -3.81971834 -59.015625 -10.03515625 C-38.59178763 -15.96892683 -17.41175908 -11.75068197 0 0 Z " fill="#958CC8" transform="translate(295.015625,62.03515625)"/>
<path d="M0 0 C7.90528071 5.0094024 17.04309458 12.56427833 19.19494629 22.12001038 C19.36715698 23.01763596 19.53936768 23.91526154 19.71679688 24.84008789 C19.89198853 25.74449112 20.06718018 26.64889435 20.24768066 27.58070374 C20.37864136 28.27207932 20.50960205 28.9634549 20.64453125 29.67578125 C19.35764404 29.69036377 18.07075684 29.70494629 16.74487305 29.7199707 C11.97554575 29.77789273 7.20669363 29.85512588 2.43774414 29.93823242 C0.37271835 29.97151049 -1.69239902 29.99953339 -3.75756836 30.0222168 C-6.72419307 30.0557098 -9.68997623 30.1080227 -12.65625 30.1640625 C-14.04388298 30.17364738 -14.04388298 30.17364738 -15.45954895 30.1834259 C-16.32021469 30.20322006 -17.18088043 30.22301422 -18.06762695 30.2434082 C-18.8248555 30.25451126 -19.58208405 30.26561432 -20.36225891 30.27705383 C-22.94156226 30.79302508 -23.82148332 31.55461583 -25.35546875 33.67578125 C-25.82425512 35.70529336 -25.82425512 35.70529336 -25.7878418 37.96362305 C-25.80763596 38.82428879 -25.82743011 39.68495453 -25.8478241 40.57170105 C-25.85740898 41.95933403 -25.85740898 41.95933403 -25.8671875 43.375 C-25.8851387 44.32518509 -25.9030899 45.27537018 -25.92158508 46.25434875 C-25.97578768 49.29061438 -26.00961579 52.32672192 -26.04296875 55.36328125 C-26.07613303 57.421246 -26.11062185 59.47918987 -26.14648438 61.53710938 C-26.23151995 66.58321944 -26.29828373 71.62928181 -26.35546875 76.67578125 C-27.96745562 76.20544318 -29.57843006 75.73163419 -31.18896484 75.25634766 C-32.53479141 74.86112411 -32.53479141 74.86112411 -33.9078064 74.45791626 C-43.37004949 71.43431638 -51.14296662 63.22965979 -55.73046875 54.61328125 C-60.14997469 44.62050455 -61.22681622 33.35641171 -57.79296875 22.86328125 C-53.40643806 12.38178161 -45.19024662 3.78365479 -35.04296875 -1.26171875 C-24.13879176 -5.4216139 -10.48681828 -5.20674195 0 0 Z " fill="#FC72C3" transform="translate(353.35546875,275.32421875)"/>
<path d="M0 0 C1.13021576 -0.0131424 1.13021576 -0.0131424 2.28326416 -0.02655029 C4.76495569 -0.04849233 7.24485402 -0.03401173 9.7265625 -0.01708984 C11.45622091 -0.02045951 13.18587702 -0.02531339 14.91552734 -0.03158569 C18.53701364 -0.03894992 22.15788247 -0.02826648 25.77929688 -0.00488281 C30.41674955 0.02360527 35.05275542 0.0071988 39.69015503 -0.02274513 C43.2607713 -0.0408306 46.83104568 -0.03505448 50.40167236 -0.02210617 C52.11126884 -0.01877558 53.82089656 -0.02284706 55.53045654 -0.03450394 C57.92217977 -0.04723405 60.31157482 -0.02780947 62.703125 0 C63.406651 -0.01012115 64.110177 -0.02024231 64.83502197 -0.03067017 C68.61774013 0.05063615 70.27307415 0.58597175 73.29411316 2.93391418 C75.29704528 5.57508344 75.97286384 6.49315253 75.91918945 9.70288086 C75.9188118 10.46329178 75.91843414 11.2237027 75.91804504 12.00715637 C75.89223862 12.81255356 75.86643219 13.61795074 75.83984375 14.44775391 C75.83276901 15.28412888 75.82569427 16.12050385 75.81840515 16.98222351 C75.79051235 19.64223317 75.72778731 22.30010405 75.6640625 24.95947266 C75.63897284 26.76738487 75.61616083 28.57533022 75.59570312 30.38330078 C75.54070292 34.80534338 75.45446893 39.22579596 75.3515625 43.64697266 C74.22617094 42.68650765 73.10136438 41.72535716 71.97680664 40.76391602 C71.35036758 40.22874863 70.72392853 39.69358124 70.07850647 39.14219666 C65.75768619 35.40114061 61.87938356 31.33812501 58.2890625 26.89697266 C54.8475474 22.89834545 51.93258471 21.00423279 46.5859375 20.26416016 C40.14452856 19.89191793 36.09327526 20.50831916 31.21484375 24.81103516 C30.59996094 25.41689453 29.98507813 26.02275391 29.3515625 26.64697266 C28.68511719 27.27345703 28.01867187 27.89994141 27.33203125 28.54541016 C24.08345859 31.68838868 21.0416706 34.96566005 18.1015625 38.39697266 C14.53528248 42.55217965 10.66796885 46.36244017 6.77246094 50.2043457 C3.27958157 53.66688578 -0.01444145 57.23080556 -3.1484375 61.02587891 C-4.82499639 62.83778499 -6.63827952 64.22166667 -8.6484375 65.64697266 C-11.20618438 63.39658768 -12.51859149 61.49110821 -13.04031372 58.09936523 C-13.19521148 54.82844814 -13.22882635 51.57784758 -13.21484375 48.30322266 C-13.22104233 47.10137329 -13.22724091 45.89952393 -13.23362732 44.66125488 C-13.24072433 42.12281097 -13.23755366 39.5843205 -13.22485352 37.04589844 C-13.21098668 33.16075088 -13.24506719 29.27801065 -13.28320312 25.39306641 C-13.2841543 22.9256179 -13.28229559 20.45816638 -13.27734375 17.99072266 C-13.29060196 16.82915649 -13.30386017 15.66759033 -13.31752014 14.4708252 C-13.30498703 13.38619995 -13.29245392 12.30157471 -13.27954102 11.18408203 C-13.27857925 10.23319702 -13.27761749 9.28231201 -13.27662659 8.3026123 C-11.60746628 1.24631606 -6.49832009 -0.09348695 0 0 Z " fill="#B9ECF0" transform="translate(149.6484375,384.35302734375)"/>
<path d="M0 0 C19.635572 -0.86733815 19.635572 -0.86733815 27.0234375 5.8359375 C32.59745827 11.77397595 34.25613313 17.02659088 34.22705078 25.19873047 C34.22734283 25.89211014 34.22763489 26.58548981 34.22793579 27.29988098 C34.22655185 29.57244757 34.21103539 31.84467879 34.1953125 34.1171875 C34.19157903 35.7004478 34.18873364 37.28371043 34.18673706 38.86697388 C34.17912688 43.01967833 34.15950106 47.1722413 34.1373291 51.32489014 C34.11320269 56.31511512 34.10407722 61.3053876 34.09242249 66.2956543 C34.07307497 73.86386772 34.03473435 81.43177113 34 89 C22.78 89 11.56 89 0 89 C-0.4375 76.625 -0.4375 76.625 -0.56811523 72.72509766 C-0.60622314 71.71495605 -0.64433105 70.70481445 -0.68359375 69.6640625 C-0.72025146 68.62717285 -0.75690918 67.5902832 -0.79467773 66.52197266 C-0.84164223 64.00574834 -0.84164223 64.00574834 -2 62 C-2.125 58.9375 -2.125 58.9375 -2 56 C-1.505 55.505 -1.505 55.505 -1 55 C-0.90053547 53.23140807 -0.86919783 51.45888549 -0.8671875 49.6875 C-0.86589844 48.61242188 -0.86460937 47.53734375 -0.86328125 46.4296875 C-0.86714844 45.29789063 -0.87101562 44.16609375 -0.875 43 C-0.86919922 41.30230469 -0.86919922 41.30230469 -0.86328125 39.5703125 C-0.86457031 38.49523438 -0.86585938 37.42015625 -0.8671875 36.3125 C-0.86887939 34.82169922 -0.86887939 34.82169922 -0.87060547 33.30078125 C-0.7416567 31.03624774 -0.7416567 31.03624774 -2 30 C-2.125 27 -2.125 27 -2 24 C-1.67 23.67 -1.34 23.34 -1 23 C-0.84259395 21.29436222 -0.74906608 19.58272756 -0.68359375 17.87109375 C-0.64169922 16.83662109 -0.59980469 15.80214844 -0.55664062 14.73632812 C-0.51732422 13.64771484 -0.47800781 12.55910156 -0.4375 11.4375 C-0.37272461 9.7987793 -0.37272461 9.7987793 -0.30664062 8.12695312 C-0.20017932 5.41810436 -0.09816484 2.70916008 0 0 Z " fill="#6253AF" transform="translate(393,15)"/>
<path d="M0 0 C4.92169908 3.80828877 8.16410816 7.87412724 11.125 13.3125 C11.74375 14.42625 12.3625 15.54 13 16.6875 C14.125 19.3125 14.125 19.3125 14.125 22.3125 C-0.95665598 34.52463737 -19.38497924 35.50488053 -37.875 34.3125 C-42.26098989 33.53484222 -45.90644199 32.3089525 -49.875 30.3125 C-50.88046875 29.8071875 -51.8859375 29.301875 -52.921875 28.78125 C-56.70006405 26.78448688 -60.31924598 24.68300268 -63.875 22.3125 C-62.49185717 13.7580623 -57.37451021 5.60741692 -50.39453125 0.49609375 C-47.60729448 -1.34540475 -44.78423513 -3.046393 -41.875 -4.6875 C-41.23820312 -5.05359375 -40.60140625 -5.4196875 -39.9453125 -5.796875 C-27.28530076 -11.7611472 -10.89733036 -7.34799799 0 0 Z " fill="#00EFA4" transform="translate(280.875,143.6875)"/>
<path d="M0 0 C0.9070015 -0.00990463 1.81400299 -0.01980927 2.74848938 -0.03001404 C3.73613281 -0.02551239 4.72377625 -0.02101074 5.74134827 -0.01637268 C6.78728653 -0.02323593 7.83322479 -0.03009918 8.91085815 -0.03717041 C12.37150105 -0.05548555 15.83169265 -0.05159404 19.29237366 -0.0459137 C21.69606677 -0.05047324 24.09975858 -0.05577813 26.50344849 -0.0617981 C31.54308872 -0.07073851 36.58257056 -0.06829541 41.62220764 -0.05836487 C48.08326699 -0.04687465 54.54377987 -0.06708339 61.00476742 -0.09628201 C65.96929401 -0.11462045 70.93368909 -0.11435619 75.89824104 -0.10864449 C78.28049549 -0.10849098 80.6627587 -0.11455929 83.044981 -0.12693596 C86.37510926 -0.14179894 89.70422077 -0.13120238 93.03431702 -0.11402893 C94.01993622 -0.1236969 95.00555542 -0.13336487 96.02104187 -0.14332581 C100.32679929 -0.09678545 102.80052954 0.00056153 106.56460571 2.23544312 C108.45252991 4.38768005 108.45252991 4.38768005 109.07752991 7.32518005 C108.21420297 11.55548204 106.903241 12.78783779 103.45252991 15.38768005 C99.95181602 16.12904904 96.51021945 16.0709445 92.94252014 16.03465271 C91.88507599 16.04341431 90.82763184 16.0521759 89.73814392 16.061203 C86.24538558 16.08319661 82.7538947 16.06864424 79.26112366 16.05174255 C76.83404294 16.05511041 74.40696386 16.05996278 71.97988892 16.0662384 C66.89484082 16.07360952 61.81023201 16.06289482 56.72523499 16.03953552 C50.20230157 16.01103332 43.68039605 16.02746068 37.15750027 16.05739784 C32.14664947 16.07545086 27.1360431 16.06972203 22.12518501 16.05675888 C19.71978191 16.05342017 17.31435672 16.05752817 14.90897942 16.06915665 C11.54976841 16.08183335 8.19223121 16.06253107 4.83314514 16.03465271 C3.83615097 16.04477386 2.8391568 16.05489502 1.81195068 16.06532288 C-4.88990538 15.9621017 -4.88990538 15.9621017 -8.19625854 13.07380676 C-10.05340023 9.38192159 -9.70872716 7.30692265 -8.54747009 3.38768005 C-5.74727902 0.73168944 -3.82185268 0.01181142 0 0 Z " fill="#020202" transform="translate(131.54747009277344,337.61231994628906)"/>
<path d="M0 0 C0.9070015 -0.00990463 1.81400299 -0.01980927 2.74848938 -0.03001404 C3.73613281 -0.02551239 4.72377625 -0.02101074 5.74134827 -0.01637268 C6.78728653 -0.02323593 7.83322479 -0.03009918 8.91085815 -0.03717041 C12.37150105 -0.05548555 15.83169265 -0.05159404 19.29237366 -0.0459137 C21.69606677 -0.05047324 24.09975858 -0.05577813 26.50344849 -0.0617981 C31.54308872 -0.07073851 36.58257056 -0.06829541 41.62220764 -0.05836487 C48.08326699 -0.04687465 54.54377987 -0.06708339 61.00476742 -0.09628201 C65.96929401 -0.11462045 70.93368909 -0.11435619 75.89824104 -0.10864449 C78.28049549 -0.10849098 80.6627587 -0.11455929 83.044981 -0.12693596 C86.37510926 -0.14179894 89.70422077 -0.13120238 93.03431702 -0.11402893 C94.01993622 -0.1236969 95.00555542 -0.13336487 96.02104187 -0.14332581 C100.32679929 -0.09678545 102.80052954 0.00056153 106.56460571 2.23544312 C108.45252991 4.38768005 108.45252991 4.38768005 109.07752991 7.32518005 C108.21420297 11.55548204 106.903241 12.78783779 103.45252991 15.38768005 C99.95181602 16.12904904 96.51021945 16.0709445 92.94252014 16.03465271 C91.88507599 16.04341431 90.82763184 16.0521759 89.73814392 16.061203 C86.24538558 16.08319661 82.7538947 16.06864424 79.26112366 16.05174255 C76.83404294 16.05511041 74.40696386 16.05996278 71.97988892 16.0662384 C66.89484082 16.07360952 61.81023201 16.06289482 56.72523499 16.03953552 C50.20230157 16.01103332 43.68039605 16.02746068 37.15750027 16.05739784 C32.14664947 16.07545086 27.1360431 16.06972203 22.12518501 16.05675888 C19.71978191 16.05342017 17.31435672 16.05752817 14.90897942 16.06915665 C11.54976841 16.08183335 8.19223121 16.06253107 4.83314514 16.03465271 C3.83615097 16.04477386 2.8391568 16.05489502 1.81195068 16.06532288 C-4.88990538 15.9621017 -4.88990538 15.9621017 -8.19625854 13.07380676 C-10.05340023 9.38192159 -9.70872716 7.30692265 -8.54747009 3.38768005 C-5.74727902 0.73168944 -3.82185268 0.01181142 0 0 Z " fill="#020202" transform="translate(131.54747009277344,303.61231994628906)"/>
<path d="M0 0 C13.96883069 8.97996259 24.08113931 21.84837261 28.1328125 38.234375 C32.04460899 57.15032239 28.34753849 74.6023305 18.55078125 90.9375 C18.03902344 91.618125 17.52726562 92.29875 17 93 C16.34 93 15.68 93 15 93 C13.73828125 91.09375 13.73828125 91.09375 12.3125 88.5 C8.66779425 82.20216286 4.15544638 77.09314492 -1 72 C-0.56945312 71.66355469 -0.13890625 71.32710938 0.3046875 70.98046875 C2.7574849 68.11510404 3.84743315 64.80815401 5.125 61.3125 C5.38925781 60.62994141 5.65351563 59.94738281 5.92578125 59.24414062 C12.5519308 41.43426151 9.42647409 22.4367282 2.0859375 5.53125 C1 3 1 3 0 0 Z " fill="#8177BF" transform="translate(291,60)"/>
<path d="M0 0 C3.39904422 0.43631624 4.73128601 1.4761822 6.8125 4.125 C11.10632325 9.29071312 15.87884963 13.93248284 20.66918945 18.63134766 C27.76991709 25.64016532 27.76991709 25.64016532 30 29 C29.505 30.485 29.505 30.485 29 32 C9.86 32 -9.28 32 -29 32 C-26.68526249 28.14210414 -25.10557736 25.87043272 -22.015625 22.85546875 C-21.24476563 22.09556641 -20.47390625 21.33566406 -19.6796875 20.55273438 C-18.87789062 19.77220703 -18.07609375 18.99167969 -17.25 18.1875 C-11.58195836 12.64489863 -6.15262452 7.02586893 -1 1 C-0.67 0.67 -0.34 0.34 0 0 Z " fill="#04E09A" transform="translate(192,418)"/>
<path d="M0 0 C4.09366045 1.30442062 5.86059334 2.61210077 8.125 6.25 C8.62515625 7.05179688 9.1253125 7.85359375 9.640625 8.6796875 C14 16.12068966 14 16.12068966 14 20 C-1.05176925 32.18793705 -19.53403917 33.24333594 -38 32 C-42.28614197 31.3399225 -46.11082696 29.90595235 -50 28 C-50.81984375 27.6184375 -51.6396875 27.236875 -52.484375 26.84375 C-54.34718548 25.94446218 -56.17872654 24.98068571 -58 24 C-58 23.67 -58 23.34 -58 23 C-57.4423999 22.96559814 -56.8847998 22.93119629 -56.31030273 22.89575195 C-33.90888575 21.41152864 -16.46225932 16.06162911 0 0 Z " fill="#04E09A" transform="translate(281,146)"/>
<path d="M0 0 C5.67458259 1.89152753 9.32628019 5.65256038 12 11 C12.68243922 18.37258109 12.76668165 24.13331489 8 30 C2.6411782 33.97039979 -2.36908882 35.4495533 -9 35 C-14.20796865 33.02097191 -18.14585957 29.97570089 -21.1171875 25.20703125 C-22.9230798 20.69230051 -22.51720175 15.76336428 -22 11 C-17.23019465 1.10707039 -10.15273798 -0.77655503 0 0 Z " fill="#FBDCCC" transform="translate(261,86)"/>
<path d="M0 0 C1.69195496 -0.01891296 1.69195496 -0.01891296 3.41809082 -0.03820801 C5.23850891 -0.02606262 5.23850891 -0.02606262 7.09570312 -0.01367188 C8.3457312 -0.01749878 9.59575928 -0.02132568 10.88366699 -0.02526855 C13.52701218 -0.02799102 16.16887798 -0.02262141 18.81201172 -0.00390625 C22.19512803 0.01888458 25.57697509 0.00575829 28.96004486 -0.01819611 C32.19280946 -0.03614871 35.42542195 -0.02356889 38.65820312 -0.01367188 C39.87181519 -0.0217688 41.08542725 -0.02986572 42.33581543 -0.03820801 C43.4637854 -0.02559937 44.59175537 -0.01299072 45.75390625 0 C47.24138367 0.00477356 47.24138367 0.00477356 48.75891113 0.00964355 C52.12189911 0.66210744 53.3079624 1.83087524 55.37695312 4.51757812 C55.93945312 8.01757812 55.93945312 8.01757812 55.37695312 11.51757812 C53.16141912 14.28800143 51.30431659 15.38467478 47.78585815 15.88891602 C44.44380582 16.04896633 41.12514644 16.07165942 37.77929688 16.04882812 C36.55287979 16.05265503 35.32646271 16.05648193 34.06288147 16.0604248 C31.47314634 16.06314415 28.88338376 16.05578154 26.29370117 16.0390625 C22.32538815 16.01763716 18.35888204 16.03887527 14.390625 16.06445312 C11.87434496 16.06181022 9.35806604 16.05668601 6.84179688 16.04882812 C5.65319565 16.05692505 4.46459442 16.06502197 3.23997498 16.07336426 C2.13525345 16.06075562 1.03053192 16.04814697 -0.10766602 16.03515625 C-1.56397179 16.03038269 -1.56397179 16.03038269 -3.04969788 16.0255127 C-6.37987277 15.36819379 -7.57098102 14.17784296 -9.62304688 11.51757812 C-10.12304688 8.01757812 -10.12304688 8.01757812 -9.62304688 4.51757812 C-6.70460461 0.71900103 -4.71955096 0.01514581 0 0 Z " fill="#020202" transform="translate(273.623046875,427.482421875)"/>
<path d="M0 0 C1.69195496 -0.01891296 1.69195496 -0.01891296 3.41809082 -0.03820801 C5.23850891 -0.02606262 5.23850891 -0.02606262 7.09570312 -0.01367188 C8.3457312 -0.01749878 9.59575928 -0.02132568 10.88366699 -0.02526855 C13.52701218 -0.02799102 16.16887798 -0.02262141 18.81201172 -0.00390625 C22.19512803 0.01888458 25.57697509 0.00575829 28.96004486 -0.01819611 C32.19280946 -0.03614871 35.42542195 -0.02356889 38.65820312 -0.01367188 C39.87181519 -0.0217688 41.08542725 -0.02986572 42.33581543 -0.03820801 C43.4637854 -0.02559937 44.59175537 -0.01299072 45.75390625 0 C47.24138367 0.00477356 47.24138367 0.00477356 48.75891113 0.00964355 C52.12189911 0.66210744 53.3079624 1.83087524 55.37695312 4.51757812 C55.93945312 8.01757812 55.93945312 8.01757812 55.37695312 11.51757812 C53.16141912 14.28800143 51.30431659 15.38467478 47.78585815 15.88891602 C44.44380582 16.04896633 41.12514644 16.07165942 37.77929688 16.04882812 C36.55287979 16.05265503 35.32646271 16.05648193 34.06288147 16.0604248 C31.47314634 16.06314415 28.88338376 16.05578154 26.29370117 16.0390625 C22.32538815 16.01763716 18.35888204 16.03887527 14.390625 16.06445312 C11.87434496 16.06181022 9.35806604 16.05668601 6.84179688 16.04882812 C5.65319565 16.05692505 4.46459442 16.06502197 3.23997498 16.07336426 C2.13525345 16.06075562 1.03053192 16.04814697 -0.10766602 16.03515625 C-1.56397179 16.03038269 -1.56397179 16.03038269 -3.04969788 16.0255127 C-6.37987277 15.36819379 -7.57098102 14.17784296 -9.62304688 11.51757812 C-10.12304688 8.01757812 -10.12304688 8.01757812 -9.62304688 4.51757812 C-6.70460461 0.71900103 -4.71955096 0.01514581 0 0 Z " fill="#020202" transform="translate(273.623046875,392.482421875)"/>
<path d="M0 0 C10.56 0 21.12 0 32 0 C29.27452644 10.90189425 24.47443386 20.46711753 14.578125 26.46875 C9.70579289 29.00826855 5.38287529 30.46203563 0 32 C0 21.44 0 10.88 0 0 Z " fill="#02C5DB" transform="translate(342,320)"/>
<path d="M0 0 C10.08345955 -0.11588734 20.1667605 -0.204712 30.25075054 -0.25906086 C34.93327557 -0.28514676 39.61534475 -0.32052611 44.29760742 -0.37719727 C48.81692288 -0.43155345 53.33580011 -0.46142812 57.85541725 -0.47438622 C59.57903759 -0.48361968 61.30263414 -0.50165089 63.02606773 -0.52865028 C65.44197649 -0.56499028 67.85607838 -0.56994354 70.2722168 -0.56762695 C70.98359802 -0.58560333 71.69497925 -0.60357971 72.42791748 -0.62210083 C76.24036964 -0.5825877 77.89822491 -0.07879498 80.94750977 2.28198242 C82.94349233 4.92516952 83.62126378 5.84842578 83.56762695 9.0559082 C83.5672493 9.81631912 83.56687164 10.57673004 83.56648254 11.36018372 C83.54067612 12.1655809 83.51486969 12.97097809 83.48828125 13.80078125 C83.48120651 14.63715622 83.47413177 15.47353119 83.46684265 16.33525085 C83.43894985 18.99526052 83.37622481 21.65313139 83.3125 24.3125 C83.28741034 26.12041221 83.26459833 27.92835757 83.24414062 29.73632812 C83.18914042 34.15837073 83.10290643 38.57882331 83 43 C78.02280101 38.83540492 73.64070704 34.64070704 69 30 C69.33 20.43 69.66 10.86 70 1 C46.9 1 23.8 1 0 1 C0 0.67 0 0.34 0 0 Z " fill="#9CD7DF" transform="translate(142,385)"/>
<path d="M0 0 C1.22783203 -0.00515625 2.45566406 -0.0103125 3.72070312 -0.015625 C5.63979492 0.00757813 5.63979492 0.00757813 7.59765625 0.03125 C8.87318359 0.01578125 10.14871094 0.0003125 11.46289062 -0.015625 C13.30657227 -0.00789063 13.30657227 -0.00789063 15.1875 0 C16.30890381 0.00451172 17.43030762 0.00902344 18.58569336 0.01367188 C22.32661534 0.64344672 24.00790214 1.85927766 26.66015625 4.53125 C27.46659379 8.32150645 27.04882198 9.90938484 25 13.1875 C20.4934607 17.46180145 13.35526664 16.20139608 7.59765625 16.09375 C5.67856445 16.11018555 5.67856445 16.11018555 3.72070312 16.12695312 C-5.66049694 16.05308541 -5.66049694 16.05308541 -8.70483398 13.71459961 C-11.0889226 10.53094954 -10.89297675 8.40318099 -10.33984375 4.53125 C-7.28506434 0.44787158 -4.98513 0.02007676 0 0 Z " fill="#040404" transform="translate(363.33984375,427.46875)"/>
<path d="M0 0 C1.22783203 -0.00515625 2.45566406 -0.0103125 3.72070312 -0.015625 C5.63979492 0.00757813 5.63979492 0.00757813 7.59765625 0.03125 C8.87318359 0.01578125 10.14871094 0.0003125 11.46289062 -0.015625 C13.30657227 -0.00789063 13.30657227 -0.00789063 15.1875 0 C16.30890381 0.00451172 17.43030762 0.00902344 18.58569336 0.01367188 C22.32661534 0.64344672 24.00790214 1.85927766 26.66015625 4.53125 C27.46659379 8.32150645 27.04882198 9.90938484 25 13.1875 C20.4934607 17.46180145 13.35526664 16.20139608 7.59765625 16.09375 C5.67856445 16.11018555 5.67856445 16.11018555 3.72070312 16.12695312 C-5.66049694 16.05308541 -5.66049694 16.05308541 -8.70483398 13.71459961 C-11.0889226 10.53094954 -10.89297675 8.40318099 -10.33984375 4.53125 C-7.28506434 0.44787158 -4.98513 0.02007676 0 0 Z " fill="#040404" transform="translate(363.33984375,392.46875)"/>
<path d="M0 0 C3.70365785 0.77468376 5.03006484 1.79213509 7.4375 4.75 C9.51778962 7.26611704 11.56392721 9.57857021 14 11.75 C16 14 16 14 15.9375 16.25 C15 18 15 18 13 19 C10.82175039 19.08559118 8.64084745 19.10713412 6.4609375 19.09765625 C5.15898437 19.09443359 3.85703125 19.09121094 2.515625 19.08789062 C1.13541601 19.07953466 -0.24479232 19.07106971 -1.625 19.0625 C-3.01301926 19.05748501 -4.40104022 19.0529221 -5.7890625 19.04882812 C-9.19275132 19.03700976 -12.59635439 19.02053434 -16 19 C-14.62736637 15.94839391 -13.04043427 13.75173068 -10.7421875 11.328125 C-10.11699219 10.66425781 -9.49179688 10.00039063 -8.84765625 9.31640625 C-8.19667969 8.63449219 -7.54570312 7.95257813 -6.875 7.25 C-6.21628906 6.55261719 -5.55757812 5.85523438 -4.87890625 5.13671875 C-3.25672226 3.42049511 -1.63034621 1.70846565 0 0 Z " fill="#00EDA2" transform="translate(192,418)"/>
<path d="M0 0 C3.75979392 1.05909688 5.09536663 3.27164342 6.94140625 6.546875 C7.00958198 10.50106705 6.50792855 12.66310022 4.37890625 15.984375 C1.53956106 17.80446807 -0.71936938 18.18096702 -4.0859375 17.9921875 C-7.6302289 17.19209003 -9.06334452 15.47739731 -11.05859375 12.546875 C-11.84640655 8.1351233 -11.58834508 6.32494726 -9.05859375 2.609375 C-5.74275684 0.32973712 -3.94956664 -0.26979962 0 0 Z " fill="#F870C0" transform="translate(238.05859375,246.453125)"/>
<path d="M0 0 C3.5442914 0.80009747 4.97740702 2.51479019 6.97265625 5.4453125 C7.76046905 9.8570642 7.50240758 11.66724024 4.97265625 15.3828125 C1.65681934 17.66245038 -0.13637086 18.26198712 -4.0859375 17.9921875 C-7.84573142 16.93309062 -9.18130413 14.72054408 -11.02734375 11.4453125 C-11.09551948 7.49112045 -10.59386605 5.32908728 -8.46484375 2.0078125 C-5.62549856 0.18771943 -3.36656812 -0.18877952 0 0 Z " fill="#F870C0" transform="translate(146.02734375,246.5546875)"/>
<path d="M0 0 C3.75979392 1.05909688 5.09536663 3.27164342 6.94140625 6.546875 C7.00958198 10.50106705 6.50792855 12.66310022 4.37890625 15.984375 C1.53956106 17.80446807 -0.71936938 18.18096702 -4.0859375 17.9921875 C-7.6302289 17.19209003 -9.06334452 15.47739731 -11.05859375 12.546875 C-11.84640655 8.1351233 -11.58834508 6.32494726 -9.05859375 2.609375 C-5.74275684 0.32973712 -3.94956664 -0.26979962 0 0 Z " fill="#04DD98" transform="translate(334.05859375,201.453125)"/>
<path d="M0 0 C2.625 1.5625 2.625 1.5625 4 4 C4.5625 7.5 4.5625 7.5 4 11 C1.89576213 13.5645399 0.3289564 14.71598916 -2.9375 15.4140625 C-6.95136583 15.70293921 -8.63890446 15.25577601 -12 12.875 C-14 10 -14 10 -14.5625 6.9375 C-14 4 -14 4 -12.625 1.625 C-8.55927305 -0.89187859 -4.65031254 -0.74930285 0 0 Z " fill="#030205" transform="translate(405,67)"/>
<path d="M0 0 C2.27734375 1.28125 2.27734375 1.28125 4 3 C4.45351444 6.1746011 4.68470208 7.98852271 4 11 C1.8905299 13.63683762 0.37858099 14.7081633 -2.9375 15.41015625 C-6.95104539 15.70661131 -8.63966166 15.25523966 -12 12.875 C-14 10 -14 10 -14.5625 6.9375 C-14 4 -14 4 -12.625 1.625 C-8.65527525 -0.83244866 -4.55189962 -0.80971291 0 0 Z " fill="#030306" transform="translate(405,35)"/>
<path d="M0 0 C5.94 0 11.88 0 18 0 C16.09124054 4.77189866 14.78361325 6.62351051 11.25 10.125 C10.40953125 10.97320312 9.5690625 11.82140625 8.703125 12.6953125 C6 15 6 15 0 18 C0 12.06 0 6.12 0 0 Z " fill="#2DD0E1" transform="translate(342,320)"/>
<path d="M0 0 C2.375 1.5625 2.375 1.5625 4 4 C4.5625 7.5 4.5625 7.5 4 11 C1.58140437 13.69500656 -0.00763965 14.80636871 -3.5625 15.5 C-6.9249123 14.8102744 -8.0486167 13.81866476 -10 11 C-10.56783945 7.02512383 -10.62340519 4.93510779 -8.375 1.5625 C-5.28314769 -0.47161336 -3.63632575 -0.60605429 0 0 Z " fill="#050606" transform="translate(159,397)"/>
<path d="M0 0 C5.28 0 10.56 0 16 0 C11.5 6.75 11.5 6.75 8.25 9.875 C7.63640625 10.47054688 7.0228125 11.06609375 6.390625 11.6796875 C5.70226562 12.33324219 5.70226562 12.33324219 5 13 C2.5 11 2.5 11 0 8 C0 5.36 0 2.72 0 0 Z " fill="#A1E0E9" transform="translate(137,437)"/>
<path d="M0 0 C2.43252903 2.43252903 3.63767581 3.82219647 5.125 6.75 C5.45757812 7.38421875 5.79015625 8.0184375 6.1328125 8.671875 C7 11 7 11 8 18 C-5.53 18 -19.06 18 -33 18 C-33 17.67 -33 17.34 -33 17 C-21.78 17 -10.56 17 1 17 C0.67 11.39 0.34 5.78 0 0 Z " fill="#CB4595" transform="translate(366,287)"/>
<path d="M0 0 C5.94 0.33 11.88 0.66 18 1 C18 3.64 18 6.28 18 9 C11.34130175 7.32168056 5.47730483 5.2533261 0 1 C0 0.67 0 0.34 0 0 Z " fill="#F34BAF" transform="translate(309,343)"/>
</svg>
