<?xml version="1.0" encoding="UTF-8"?>
<svg version="1.1" xmlns="http://www.w3.org/2000/svg" width="512" height="512">
<path d="M0 0 C1.09307447 -0.00843994 2.18614894 -0.01687988 3.31234688 -0.02557558 C4.50766582 -0.01956553 5.70298476 -0.01355549 6.93452549 -0.00736332 C8.20863256 -0.01274886 9.48273962 -0.01813439 10.79545599 -0.02368313 C14.32993991 -0.03815363 17.86419097 -0.03388811 21.39868772 -0.02651632 C25.21131518 -0.02179089 29.0238918 -0.03428894 32.83650303 -0.04453373 C40.30488203 -0.06173931 47.77317696 -0.06255811 55.24157064 -0.05732083 C61.31120322 -0.0532812 67.38081093 -0.05472021 73.45044231 -0.06006908 C74.74569669 -0.06119172 74.74569669 -0.06119172 76.06711783 -0.06233703 C77.82125978 -0.06386849 79.57540172 -0.06540684 81.32954366 -0.066952 C97.78352618 -0.08068337 114.23746117 -0.07523485 130.69144262 -0.06376678 C145.74765874 -0.05383346 160.80375199 -0.06677565 175.85994916 -0.09070098 C191.31645885 -0.11507755 206.77291127 -0.12470342 222.2294398 -0.11804825 C230.90840259 -0.11455285 239.58727086 -0.11680921 248.26621914 -0.13429928 C255.65434542 -0.14900324 263.04231062 -0.14968042 270.43043368 -0.13222837 C274.20033371 -0.12370105 277.96994577 -0.12161071 281.73983097 -0.13687992 C285.82555305 -0.15322359 289.91057696 -0.13861432 293.99629307 -0.12088871 C295.7859254 -0.13529622 295.7859254 -0.13529622 297.61171192 -0.14999479 C303.69213055 -0.09553101 307.89750045 -0.01406854 312.5289011 4.38031673 C315.95824499 8.50998978 315.94777885 12.53225299 315.88966465 17.68825436 C315.89222792 18.52148761 315.8947912 19.35472086 315.89743215 20.21320361 C315.90237078 23.00323614 315.88587584 25.79272669 315.86947727 28.58270931 C315.86863102 30.58342126 315.86910611 32.58413414 315.87080479 34.58484554 C315.87166622 40.01627593 315.8540163 45.44750794 315.83308291 50.87889218 C315.81434094 56.55503127 315.81256763 62.2311748 315.80900669 67.90734005 C315.79967895 78.65596352 315.77505524 89.40449555 315.74495822 100.15307873 C315.71143695 112.38995021 315.69493391 124.62682603 315.67987192 136.86373198 C315.64850637 162.03597933 315.595128 187.20813906 315.5289011 212.38031673 C325.4289011 212.38031673 335.3289011 212.38031673 345.5289011 212.38031673 C345.37142837 205.73877051 345.37142837 205.73877051 345.16854954 199.09857845 C345.10016963 193.36459232 345.48428231 189.7963801 349.5289011 185.38031673 C354.01964638 182.30185031 357.37248948 181.3334012 362.79403782 181.49603939 C371.7059286 183.60604517 379.17717961 189.92000399 386.5914011 195.06781673 C388.51713977 196.37516941 390.44466162 197.67989893 392.3738718 198.98212337 C396.39498552 201.70253897 400.40497666 204.43829187 404.40683079 207.18695736 C410.4669135 211.34599413 416.55961122 215.45513283 422.6617136 219.55219173 C430.81063538 225.02594524 438.95089974 230.51205608 447.07690525 236.01978207 C448.15662098 236.75113369 448.15662098 236.75113369 449.25814915 237.49726009 C449.95351276 237.9691325 450.64887638 238.44100491 451.36531162 238.92717648 C452.903012 239.95994833 454.44889827 240.98057767 456.00022984 241.99275875 C456.80794331 242.52090679 457.61565678 243.04905483 458.44784641 243.59320736 C459.18069859 244.06770321 459.91355076 244.54219906 460.66861057 245.03107357 C463.1722709 246.84694401 464.41474536 248.49794621 465.5289011 251.38031673 C465.96249485 254.28266048 465.96249485 254.28266048 465.9664011 257.31781673 C465.99540501 258.81635189 465.99540501 258.81635189 466.02499485 260.34516048 C465.28360288 264.88107831 463.26977015 267.95180698 459.76054478 270.8313818 C457.55112392 272.3804507 455.30298513 273.84409536 453.02499485 275.29047298 C452.16996876 275.8474638 451.31494267 276.40445461 450.43400669 276.97832394 C448.58431663 278.18165244 446.73116877 279.37967903 444.87497044 280.57294369 C439.90477001 283.76820663 434.95912786 287.00117285 430.00936985 290.22797298 C428.986106 290.89342129 427.96284214 291.55886959 426.90857029 292.24448299 C414.84047404 300.10406393 402.92157103 308.18258592 391.00103855 316.26340389 C389.22375356 317.46801061 387.44616066 318.67216318 385.6682291 319.87581539 C384.06699791 320.96009204 382.46666375 322.0456953 380.86747837 323.13298702 C377.33238943 325.52790178 373.78059877 327.89550276 370.18856907 330.20429134 C369.56110783 330.60860882 368.93364658 331.01292629 368.28717136 331.42949581 C364.02402811 333.73487848 359.16423239 333.08441769 354.5289011 332.38031673 C349.95378159 330.21315486 347.58760805 327.9709966 345.5289011 323.38031673 C345.16625705 319.76615035 345.24711893 316.19531625 345.3414011 312.56781673 C345.4032761 309.20594173 345.4651511 305.84406673 345.5289011 302.38031673 C335.6289011 302.38031673 325.7289011 302.38031673 315.5289011 302.38031673 C315.54984837 306.62020443 315.57079563 310.86009212 315.59237766 315.22846127 C315.65861249 329.22619861 315.70302625 343.22394207 315.73614979 357.22179508 C315.75676967 365.70993827 315.7848792 374.19793294 315.83065891 382.6859808 C315.87054437 390.08470124 315.89633809 397.48331412 315.90525508 404.88213909 C315.91046698 408.79933195 315.92270454 412.71621709 315.95182133 416.63331127 C315.97901766 420.32201091 315.98733773 424.01027673 315.98133183 427.69906712 C315.98295301 429.69468506 316.00445375 431.690256 316.02658176 433.68575191 C315.97527361 444.83301182 315.97527361 444.83301182 311.5289011 449.38031673 C306.95035328 453.46530959 301.57570129 452.78226779 295.77182102 452.72089291 C294.68844456 452.72133099 293.60506809 452.72176907 292.48886204 452.72222042 C288.91218057 452.72013239 285.33596932 452.69679992 281.75936985 452.67328548 C279.27787119 452.6676896 276.79636922 452.66341947 274.31486607 452.66042233 C267.78654916 452.64897305 261.25843278 452.61950482 254.73019505 452.58631039 C248.0674324 452.55398928 241.40461142 452.54191734 234.74179173 452.52680111 C221.67074268 452.49463548 208.59983256 452.44401528 195.5289011 452.38031673 C195.53778355 453.00592495 195.54666599 453.63153316 195.5558176 454.27609921 C195.64442805 460.79739893 195.7046924 467.31852715 195.74862766 473.84027767 C195.76872181 476.27296554 195.79600198 478.70560524 195.83065891 481.13812923 C195.87927171 484.63825029 195.90189249 488.13773175 195.9195261 491.63812923 C195.94017124 492.72272427 195.96081638 493.8073193 195.98208714 494.92478085 C195.98391016 501.08313892 195.66090627 504.70089278 191.5289011 509.38031673 C187.73366423 512.83053207 183.94977365 512.84655715 179.04144382 512.78238583 C171.26766643 511.89254736 163.9184975 508.96731523 156.54843235 506.44672298 C154.65546181 505.81297649 152.76195866 505.18081899 150.86796665 504.5501318 C146.83553889 503.20463236 142.8063978 501.84985573 138.77945042 500.48804379 C132.55185955 498.38404094 126.31396478 496.31197295 120.07333469 494.24701595 C108.21253842 490.32017389 96.35952218 486.37028481 84.50796604 482.41565609 C81.20983327 481.31562616 77.91131109 480.2167724 74.61264133 479.11835384 C62.89327303 475.21580721 51.17710118 471.30407083 39.46751308 467.37226582 C33.60439084 465.40521991 27.73587527 463.4556231 21.86170197 461.52183723 C18.29355478 460.34457159 14.72941625 459.15551235 11.16614819 457.96357059 C9.52654701 457.41806144 7.88521865 456.87771173 6.24207211 456.34297657 C4.00580893 455.61457342 1.77640165 454.86805396 -0.45230007 454.116889 C-1.69549511 453.70624706 -2.93869015 453.29560513 -4.21955776 452.87251949 C-8.97280588 450.69115083 -11.60457203 447.68010704 -14.4710989 443.38031673 C-14.72409856 440.23180455 -14.72409856 440.23180455 -14.72836781 436.24999428 C-14.73187388 435.51557614 -14.73537995 434.78115801 -14.73899227 434.02448478 C-14.74835452 431.54411897 -14.74337062 429.06398547 -14.73852444 426.58360958 C-14.74225828 424.79513125 -14.74685873 423.00665456 -14.75225508 421.21818048 C-14.76453353 416.28824059 -14.76421894 411.35836831 -14.76186633 406.42841661 C-14.76145938 401.11745579 -14.77248564 395.80651701 -14.78198147 390.49556637 C-14.79861912 380.08450547 -14.80409227 369.67346722 -14.80520622 359.26239415 C-14.80615542 350.80236787 -14.81025926 342.34234908 -14.81660748 333.88232517 C-14.83422765 309.91395247 -14.84344517 285.9455977 -14.84194653 261.97721847 C-14.84186661 260.68413494 -14.8417867 259.39105141 -14.84170437 258.05878353 C-14.84158173 256.11679887 -14.84158173 256.11679887 -14.84145661 254.13558219 C-14.84064355 233.14945059 -14.85978418 212.16339075 -14.8879811 191.17727991 C-14.91668312 169.64589456 -14.93052287 148.11454422 -14.92879355 126.58313924 C-14.92812871 114.48807263 -14.93366221 102.39308122 -14.95514965 90.29803181 C-14.97332621 80.00035314 -14.97773787 69.70278375 -14.9641308 59.40509602 C-14.95758324 54.14868869 -14.95754828 48.89249123 -14.9748373 43.63610363 C-14.99049429 38.82653118 -14.98778022 34.01733631 -14.97026904 29.20777348 C-14.96718281 27.46550518 -14.97089218 25.7232092 -14.98198919 23.9809735 C-14.99605652 21.61624311 -14.98556765 19.25284696 -14.96887684 16.88816261 C-14.96931157 15.57367817 -14.96974631 14.25919372 -14.97019422 12.90487641 C-14.23538933 7.71576005 -12.1934294 4.7043847 -8.06304258 1.52908653 C-5.15761239 0.24137705 -3.16915345 0.00345996 0 0 Z " fill="#FE8759" transform="translate(30.47109889984131,-0.38031673431396484)"/>
<path d="M0 0 C38.37086101 -0.09152931 76.74170559 -0.16202539 115.11265365 -0.20426132 C119.6413461 -0.20926422 124.17003834 -0.2144415 128.69873047 -0.21972656 C129.60032227 -0.2207758 130.50191407 -0.22182505 131.43082683 -0.22290608 C146.03469011 -0.24031753 160.63849049 -0.27185929 175.24231644 -0.30861118 C190.22404589 -0.34600002 205.20574237 -0.3682315 220.18751657 -0.37635398 C229.43419666 -0.38184603 238.68069897 -0.39920028 247.92732434 -0.43166587 C254.26565893 -0.45278837 260.60390144 -0.45920519 266.94226868 -0.45400551 C270.60076538 -0.45144018 274.25895114 -0.45540866 277.91739273 -0.4768219 C281.88283904 -0.49986274 285.84787898 -0.49196231 289.81338501 -0.48101807 C290.97097435 -0.49266943 292.12856368 -0.5043208 293.32123148 -0.51632524 C299.33733363 -0.47129095 303.40449792 -0.32384492 308 4 C311.42934389 8.12967305 311.41887775 12.15193625 311.36076355 17.30793762 C311.36332682 18.14117088 311.3658901 18.97440413 311.36853105 19.83288687 C311.37346968 22.6229194 311.35697474 25.41240996 311.34057617 28.20239258 C311.33972992 30.20310452 311.34020501 32.2038174 311.34190369 34.20452881 C311.34276512 39.6359592 311.3251152 45.0671912 311.30418181 50.49857545 C311.28543984 56.17471453 311.28366653 61.85085806 311.28010559 67.52702332 C311.27077785 78.27564678 311.24615414 89.02417881 311.21605712 99.772762 C311.18253585 112.00963347 311.16603281 124.24650929 311.15097082 136.48341525 C311.11960527 161.65566259 311.0662269 186.82782232 311 212 C320.9 212 330.8 212 341 212 C340.84252727 205.35845377 340.84252727 205.35845377 340.63964844 198.71826172 C340.57126853 192.98427558 340.95538121 189.41606337 345 185 C349.49074528 181.92153357 352.84358838 180.95308446 358.26513672 181.11572266 C367.1770275 183.22572844 374.64827851 189.53968726 382.0625 194.6875 C383.98823867 195.99485267 385.91576052 197.2995822 387.8449707 198.60180664 C391.86608442 201.32222223 395.87607556 204.05797513 399.87792969 206.80664062 C405.9380124 210.9656774 412.03071012 215.0748161 418.1328125 219.171875 C426.28173428 224.6456285 434.42199864 230.13173934 442.54800415 235.63946533 C443.62771988 236.37081696 443.62771988 236.37081696 444.72924805 237.11694336 C445.42461166 237.58881577 446.11997528 238.06068817 446.83641052 238.54685974 C448.3741109 239.5796316 449.91999717 240.60026093 451.47132874 241.61244202 C452.27904221 242.14059006 453.08675568 242.6687381 453.91894531 243.21289062 C454.65179749 243.68738647 455.38464966 244.16188232 456.13970947 244.65075684 C458.6433698 246.46662728 459.88584426 248.11762947 461 251 C461.43359375 253.90234375 461.43359375 253.90234375 461.4375 256.9375 C461.46650391 258.43603516 461.46650391 258.43603516 461.49609375 259.96484375 C460.75470178 264.50076157 458.74086905 267.57149024 455.23164368 270.45106506 C453.02222282 272.00013396 450.77408403 273.46377862 448.49609375 274.91015625 C447.64106766 275.46714706 446.78604156 276.02413788 445.90510559 276.5980072 C444.05541553 277.8013357 442.20226767 278.9993623 440.34606934 280.19262695 C435.37586891 283.3878899 430.43022676 286.62085612 425.48046875 289.84765625 C424.4572049 290.51310455 423.43394104 291.17855286 422.37966919 291.86416626 C410.31157294 299.72374719 398.39266993 307.80226918 386.47213745 315.88308716 C384.69485246 317.08769388 382.91725956 318.29184645 381.139328 319.49549866 C379.53809681 320.57977531 377.93776265 321.66537856 376.33857727 322.75267029 C372.80348833 325.14758505 369.25169767 327.51518602 365.65966797 329.82397461 C365.03220673 330.22829208 364.40474548 330.63260956 363.75827026 331.04917908 C359.49512701 333.35456175 354.63533129 332.70410096 350 332 C345.42488049 329.83283812 343.05870695 327.59067987 341 323 C340.63735595 319.38583362 340.71821783 315.81499952 340.8125 312.1875 C340.874375 308.825625 340.93625 305.46375 341 302 C331.1 302 321.2 302 311 302 C311.02094727 306.2398877 311.04189453 310.47977539 311.06347656 314.84814453 C311.12971139 328.84588188 311.17412515 342.84362533 311.20724869 356.84147835 C311.22786857 365.32962154 311.2559781 373.81761621 311.30175781 382.30566406 C311.34164327 389.70438451 311.36743699 397.10299738 311.37635398 404.50182235 C311.38156588 408.41901522 311.39380344 412.33590036 311.42292023 416.25299454 C311.45011655 419.94169418 311.45843663 423.62996 311.45243073 427.31875038 C311.45405191 429.31436832 311.47555265 431.30993926 311.49768066 433.30543518 C311.44637251 444.45269508 311.44637251 444.45269508 307 449 C302.19468254 452.96218979 297.16390137 452.40318937 291.24291992 452.34057617 C290.15954346 452.34101425 289.07616699 452.34145233 287.95996094 452.34190369 C284.38327947 452.33981566 280.80706822 452.31648319 277.23046875 452.29296875 C274.74897009 452.28737287 272.26746812 452.28310273 269.78596497 452.28010559 C263.25764806 452.26865631 256.72953168 452.23918808 250.20129395 452.20599365 C243.5385313 452.17367254 236.87571032 452.16160061 230.21289062 452.14648438 C217.14184158 452.11431875 204.07093146 452.06369855 191 452 C190.99940291 451.257457 190.99880582 450.514914 190.99819064 449.7498697 C190.96231151 405.75928001 190.90569538 361.76875903 190.82207905 317.77823284 C190.81206136 312.49847712 190.80221727 307.21872109 190.79248047 301.93896484 C190.7905391 300.88784231 190.78859772 299.83671977 190.78659752 298.75374503 C190.75556035 281.7249709 190.73859208 264.69621025 190.72680578 247.66741316 C190.71440311 230.19961397 190.68692173 212.73188565 190.64538693 195.26413119 C190.6202262 184.48202609 190.6068846 173.70003849 190.60857043 162.91790362 C190.60860014 155.52829415 190.59400848 148.13880453 190.56783572 140.74924175 C190.55316045 136.4832122 190.54501181 132.21742844 190.55419731 127.95137787 C190.56246309 124.0464822 190.55238821 120.14208115 190.52766338 116.23725899 C190.52196323 114.82398273 190.52302074 113.41065985 190.53148755 111.99739747 C190.82146833 102.11616417 190.82146833 102.11616417 186 94 C183.51635108 92.37691826 181.21756456 91.07684872 178.56982422 89.7890625 C177.75867598 89.37822418 176.94752773 88.96738586 176.11179924 88.5440979 C174.19868399 87.5783877 172.2815943 86.62052944 170.36159515 85.6685791 C166.58706714 83.79503447 162.82473876 81.89816594 159.06304932 79.99902344 C150.22772793 75.5435887 141.3774658 71.11823821 132.52566004 66.69566727 C128.05115966 64.45969788 123.57764899 62.22174984 119.10397339 59.98413086 C111.61251309 56.2374967 104.12022092 52.49253027 96.62744141 48.74853516 C87.97188042 44.42348902 79.31777954 40.09553206 70.6644088 35.76610565 C63.20402363 32.03364499 55.74286114 28.30274179 48.28104484 24.57314301 C43.83683217 22.35181483 39.39288908 20.12995193 34.94964981 17.90667725 C30.78566776 15.82324273 26.62071334 13.74176512 22.45499802 11.66179848 C20.92802931 10.89897508 19.40140033 10.1354712 17.87513733 9.3712368 C15.79219986 8.32840153 13.70804562 7.28803884 11.62356567 6.24829102 C10.45820848 5.66580093 9.2928513 5.08331085 8.09218025 4.48316956 C5.42549634 3.20409005 2.76149341 2.0550486 0 1 C0 0.67 0 0.34 0 0 Z " fill="#03232E" transform="translate(35,0)"/>
<path d="M0 0 C13.89461817 6.58166124 27.74702702 13.20629845 41.52099609 20.03051758 C43.77928636 21.14618333 46.04042205 22.25610582 48.30419922 23.3605957 C51.62366837 24.98088634 54.93365488 26.61923454 58.2421875 28.26171875 C59.250466 28.74936203 60.25874451 29.23700531 61.2975769 29.73942566 C67.49070071 32.84488487 71.82177217 35.64354434 75 42 C75.09903634 44.17258286 75.13103322 46.34829952 75.13422108 48.52313614 C75.13657331 49.20406084 75.13892554 49.88498555 75.14134905 50.58654433 C75.14805856 52.89090286 75.14758024 55.19520526 75.14717102 57.49957275 C75.15046843 59.15931813 75.15419374 60.81906271 75.1583125 62.47880626 C75.16835457 67.05753933 75.17205283 71.63625929 75.17470181 76.21500182 C75.17859833 81.14628519 75.18817709 86.07755812 75.19691467 91.00883484 C75.21669739 102.92655922 75.2267475 114.84428448 75.23564246 126.76202118 C75.24002233 132.36983873 75.24538991 137.97765532 75.25063133 143.58547211 C75.26764528 162.21945118 75.28214047 180.85342966 75.28938007 199.48741531 C75.29129007 204.32543183 75.29321039 209.16344834 75.29516602 214.00146484 C75.29564976 215.20397773 75.2961335 216.40649062 75.2966319 217.64544329 C75.30493596 237.13463611 75.3302785 256.62376763 75.36274669 276.11293367 C75.39578612 296.10746661 75.413826 316.10196837 75.41702431 336.09652877 C75.41919228 347.32865559 75.42798282 358.560693 75.45348549 369.79279327 C75.47514993 379.35670663 75.48326392 388.92050888 75.47351871 398.48444399 C75.46896166 403.36618042 75.47094155 408.2476874 75.49028015 413.12939262 C75.5078246 417.5966792 75.50698544 422.06356748 75.49138286 426.53085777 C75.48899347 428.14866466 75.49339885 429.7664985 75.50521151 431.38426402 C75.52026178 433.58116233 75.51070753 435.77663675 75.49498463 437.9734993 C75.49596144 439.19435518 75.49693824 440.41521105 75.49794465 441.67306256 C74.77342083 446.5138524 72.51823461 449.61978672 68.9375 452.875 C61.00297201 455.9137554 52.66895749 453.76021865 44.94140625 451.078125 C44.03100082 450.77686707 43.1205954 450.47560913 42.18260193 450.16522217 C39.3038621 449.20874167 36.43332749 448.2299401 33.5625 447.25 C31.64308113 446.6078695 29.72316183 445.9672328 27.80273438 445.328125 C24.24365921 444.14098525 20.68759018 442.94569058 17.13500977 441.73925781 C11.42983698 439.80688245 5.7144347 437.90481157 0 436 C0 372.64 0 309.28 0 244 C2.97 243.01 5.94 242.02 9 241 C13.41371054 236.4759467 14.12700616 233.64349818 14.17700195 227.44238281 C14.18357315 226.76897858 14.19014435 226.09557434 14.19691467 225.40176392 C14.2166553 223.16888316 14.22831318 220.93606976 14.23828125 218.703125 C14.24235678 217.94016869 14.2464323 217.17721237 14.25063133 216.39113617 C14.27149744 212.35125499 14.28579559 208.3114078 14.29516602 204.27148438 C14.306219 200.10400266 14.34060391 195.93705658 14.38033772 191.76976395 C14.40652166 188.56120837 14.4148595 185.35277991 14.41844749 182.14412689 C14.42331056 180.60836936 14.43491669 179.07261739 14.45348549 177.53696442 C14.47791169 175.38261411 14.47690634 173.22964255 14.4699707 171.07519531 C14.47583694 169.85100891 14.48170319 168.62682251 14.48774719 167.36553955 C13.90168246 163.32159204 12.52398195 161.17562648 10 158 C6.47301214 155.377368 4.47699417 154.89539883 0 154 C0 103.18 0 52.36 0 0 Z " fill="#FE3939" transform="translate(151,58)"/>
<path d="M0 0 C7.16738874 3.35045074 13.58648208 8.19109702 20.0625 12.6875 C21.98823867 13.99485267 23.91576052 15.2995822 25.8449707 16.60180664 C29.86608442 19.32222223 33.87607556 22.05797513 37.87792969 24.80664062 C43.9380124 28.9656774 50.03071012 33.0748161 56.1328125 37.171875 C64.28173428 42.6456285 72.42199864 48.13173934 80.54800415 53.63946533 C81.26781464 54.12703308 81.98762512 54.61460083 82.72924805 55.11694336 C83.77229347 55.82475197 83.77229347 55.82475197 84.83641052 56.54685974 C86.3741109 57.5796316 87.91999717 58.60026093 89.47132874 59.61244202 C90.27904221 60.14059006 91.08675568 60.6687381 91.91894531 61.21289062 C92.65179749 61.68738647 93.38464966 62.16188232 94.13970947 62.65075684 C96.6433698 64.46662728 97.88584426 66.11762947 99 69 C99.43359375 71.90234375 99.43359375 71.90234375 99.4375 74.9375 C99.45683594 75.93652344 99.47617187 76.93554688 99.49609375 77.96484375 C98.75470178 82.50076157 96.74086905 85.57149024 93.23164368 88.45106506 C91.02222282 90.00013396 88.77408403 91.46377862 86.49609375 92.91015625 C85.64106766 93.46714706 84.78604156 94.02413788 83.90510559 94.5980072 C82.05541553 95.8013357 80.20226767 96.9993623 78.34606934 98.19262695 C73.37586891 101.3878899 68.43022676 104.62085612 63.48046875 107.84765625 C62.4572049 108.51310455 61.43394104 109.17855286 60.37966919 109.86416626 C48.31157294 117.72374719 36.39266993 125.80226918 24.47213745 133.88308716 C22.69485246 135.08769388 20.91725956 136.29184645 19.139328 137.49549866 C17.53809681 138.57977531 15.93776265 139.66537856 14.33857727 140.75267029 C10.80348833 143.14758505 7.25169767 145.51518602 3.65966797 147.82397461 C3.03220673 148.22829208 2.40474548 148.63260956 1.75827026 149.04917908 C-2.50487299 151.35456175 -7.36466871 150.70410096 -12 150 C-16.57511951 147.83283812 -18.94129305 145.59067987 -21 141 C-21.36245433 137.38772438 -21.2824631 133.81314237 -21.1875 130.1875 C-21.17396484 129.20845703 -21.16042969 128.22941406 -21.14648438 127.22070312 C-21.11125312 124.81323375 -21.06199265 122.40690436 -21 120 C-21.55530427 120.00368717 -22.11060854 120.00737434 -22.68274021 120.01117325 C-36.2127081 120.0996228 -49.74262513 120.16550177 -63.27282047 120.20724869 C-69.81602317 120.22811658 -76.35901707 120.25642043 -82.90209961 120.30175781 C-89.21742745 120.34524285 -95.53255454 120.36914311 -101.84802055 120.37950897 C-104.25655718 120.38689547 -106.66508292 120.40131953 -109.07353401 120.42292023 C-112.44908452 120.45198848 -115.82380721 120.45595442 -119.19946289 120.45410156 C-120.19352646 120.46848267 -121.18759003 120.48286377 -122.21177673 120.49768066 C-128.34875548 120.46126892 -132.00932825 119.6532224 -137 116 C-142.77230583 109.97791554 -141.58119001 100.52078975 -141.53125 92.80859375 C-141.53394942 91.33463791 -141.53783558 89.86068381 -141.54284668 88.38673401 C-141.54871883 85.30948805 -141.54025227 82.23270894 -141.52148438 79.15551758 C-141.49867521 75.22582385 -141.51184363 71.29722194 -141.53577423 67.36756802 C-141.55027749 64.32790504 -141.54560605 61.28849796 -141.53526306 58.24882698 C-141.53260928 56.80045502 -141.53581774 55.35205926 -141.54518127 53.90371513 C-141.61842477 39.39550944 -141.61842477 39.39550944 -137 34 C-131.06676856 29.71809868 -126.39202943 29.44184368 -119.19946289 29.54589844 C-118.13530151 29.54531433 -117.07114014 29.54473022 -115.97473145 29.54412842 C-112.47370251 29.54690472 -108.97353561 29.57797663 -105.47265625 29.609375 C-103.03885869 29.61683897 -100.60505511 29.62253116 -98.17124939 29.62652588 C-91.77769261 29.64176975 -85.38450155 29.68104149 -78.99108887 29.7253418 C-72.46220852 29.766321 -65.93326886 29.7845426 -59.40429688 29.8046875 C-46.60270891 29.84753639 -33.80137394 29.91499999 -21 30 C-21.0314209 29.09290283 -21.0314209 29.09290283 -21.06347656 28.16748047 C-21.14708945 25.40349229 -21.19880054 22.63977087 -21.25 19.875 C-21.28351563 18.92367187 -21.31703125 17.97234375 -21.3515625 16.9921875 C-21.43527033 10.96522358 -21.02308772 7.58268875 -17 3 C-11.51942935 -1.08417689 -6.58243703 -1.55847738 0 0 Z " fill="#FE3839" transform="translate(397,182)"/>
<path d="M0 0 C38.28 0 76.56 0 116 0 C116 19.14 116 38.28 116 58 C94.18019168 47.66430132 94.18019168 47.66430132 86.47705078 43.78735352 C85.13894348 43.11720467 85.13894348 43.11720467 83.77380371 42.43351746 C81.88405437 41.4867749 79.99476589 40.53911189 78.10593033 39.59054756 C75.11318932 38.08766599 72.11911505 36.58746907 69.12472534 35.08787537 C62.7903347 31.91503961 56.45755438 28.73899875 50.125 25.5625 C42.72943886 21.85288274 35.33320804 18.14461298 27.93529892 14.4396801 C24.99136868 12.96448487 22.04865569 11.48688136 19.10598755 10.00917053 C17.30785926 9.1082909 15.50967507 8.20752284 13.71142578 7.30688477 C12.89898407 6.89808075 12.08654236 6.48927673 11.2494812 6.06808472 C7.54942336 4.21788271 3.88059564 2.45024991 0 1 C0 0.67 0 0.34 0 0 Z " fill="#07485D" transform="translate(35,0)"/>
<path d="M0 0 C4.9244843 2.371048 7.32699099 5.29319878 10 10 C10.50793457 13.33862305 10.50793457 13.33862305 10.51757812 17.01171875 C10.5245874 17.68570709 10.53159668 18.35969543 10.53881836 19.05410767 C10.55631771 21.26566677 10.54480598 23.47592957 10.53125 25.6875 C10.53394727 27.23397058 10.53783165 28.7804395 10.54284668 30.3269043 C10.54873075 33.56152559 10.54021455 36.79570382 10.52148438 40.03027344 C10.49869485 44.16636933 10.51182388 48.3014269 10.53577423 52.43748474 C10.55026213 55.62894444 10.54561266 58.82015994 10.53526306 62.0116272 C10.53260401 63.53618494 10.53583655 65.06076521 10.54518127 66.58529663 C10.55539712 68.72021801 10.53977939 70.85348258 10.51757812 72.98828125 C10.51280457 74.80646362 10.51280457 74.80646362 10.50793457 76.66137695 C9.71896632 81.8472173 7.19687537 84.91711276 3.375 88.375 C-1.21534482 90.58516602 -4.99467056 90.91077988 -10 90 C-15.39782796 87.63341498 -17.6856645 84.3679179 -20 79 C-20.39440918 75.70606995 -20.39440918 75.70606995 -20.41992188 72.09594727 C-20.42839142 71.43331879 -20.43686096 70.77069031 -20.44558716 70.08798218 C-20.46884248 67.91392426 -20.4699822 65.74057874 -20.46875 63.56640625 C-20.47585818 62.0447512 -20.48355814 60.5230988 -20.49182129 59.00144958 C-20.50523944 55.81819195 -20.50684681 52.63518223 -20.50097656 49.4519043 C-20.49508057 45.38529301 -20.52567859 41.31987566 -20.56609344 37.25349522 C-20.59202133 34.11262169 -20.59484337 30.97203382 -20.59120178 27.83106804 C-20.59288807 26.33242732 -20.60248317 24.83377271 -20.62034607 23.3352375 C-20.75985024 10.1868883 -20.75985024 10.1868883 -17.59960938 5.64819336 C-12.14228351 0.08887577 -7.69376667 -1.09910952 0 0 Z " fill="#EFE1DC" transform="translate(156,212)"/>
<path d="M0 0 C0 29.7 0 59.4 0 90 C-8.28699552 88.8161435 -8.28699552 88.8161435 -12 85 C-14.64980525 80.54689958 -15.38347935 77.25267375 -15.41992188 72.09594727 C-15.42839142 71.43331879 -15.43686096 70.77069031 -15.44558716 70.08798218 C-15.46884248 67.91392426 -15.4699822 65.74057874 -15.46875 63.56640625 C-15.47585818 62.0447512 -15.48355814 60.5230988 -15.49182129 59.00144958 C-15.50523944 55.81819195 -15.50684681 52.63518223 -15.50097656 49.4519043 C-15.49508057 45.38529301 -15.52567859 41.31987566 -15.56609344 37.25349522 C-15.59202133 34.11262169 -15.59484337 30.97203382 -15.59120178 27.83106804 C-15.59288807 26.33242732 -15.60248317 24.83377271 -15.62034607 23.3352375 C-15.75983724 10.18811431 -15.75983724 10.18811431 -12.61914062 5.64819336 C-8.23909854 1.21956579 -6.35124253 0 0 0 Z " fill="#FFF4F3" transform="translate(151,212)"/>
</svg>
