<?xml version="1.0" encoding="UTF-8"?>
<svg version="1.1" xmlns="http://www.w3.org/2000/svg" width="512" height="512">
<path d="M0 0 C18.82246326 16.42267148 32.78819126 38.67989019 34.58300781 64.06152344 C35.47186959 84.05811826 34.56295433 107.94895752 21.276577 124.42111397 C18.66043386 129.08202039 18.79394339 132.83604056 18.83648682 138.09420776 C18.82898556 139.12430596 18.82148431 140.15440415 18.81375575 141.21571743 C18.79346259 144.66598905 18.8015848 148.11560454 18.80957031 151.56591797 C18.80083623 154.03968456 18.79035104 156.5134455 18.77824402 158.98719788 C18.75612321 164.31228768 18.74618284 169.63718674 18.7473526 174.96230698 C18.74902275 182.66144912 18.72867791 190.36040994 18.7029973 198.05950369 C18.66192635 210.55137904 18.63860595 223.04322175 18.62646484 235.53515625 C18.61463438 247.66832618 18.59443385 259.80143467 18.56298828 271.93457031 C18.56105218 272.68272986 18.55911608 273.43088941 18.55712131 274.20172046 C18.54735664 277.95509891 18.53742755 281.7084769 18.52741671 285.4618547 C18.44460808 316.58912672 18.39090988 347.71638628 18.35546875 378.84375 C19.1753125 378.79734375 19.99515625 378.7509375 20.83984375 378.703125 C21.9175 378.66703125 22.99515625 378.6309375 24.10546875 378.59375 C25.1728125 378.54734375 26.24015625 378.5009375 27.33984375 378.453125 C31.02531145 378.93051719 32.11196916 379.95026471 34.35546875 382.84375 C34.86340332 384.9591217 34.86340332 384.9591217 34.87304688 387.25415039 C34.88565552 388.1192775 34.89826416 388.9844046 34.91125488 389.87574768 C34.8991095 391.26949867 34.8991095 391.26949867 34.88671875 392.69140625 C34.89054565 393.65848007 34.89437256 394.62555389 34.89831543 395.62193298 C34.90103671 397.67041055 34.89366042 399.71892274 34.87695312 401.76733398 C34.85570939 404.87109128 34.87666288 407.97249047 34.90234375 411.07617188 C34.92365258 425.58038292 33.78436337 436.91922474 23.35546875 447.84375 C12.42016568 458.28293346 0.66953764 459.4360208 -13.76220703 459.35168457 C-15.48803291 459.35629925 -17.21385486 459.36265597 -18.93966866 459.37059355 C-23.65954494 459.38723209 -28.3790961 459.37906548 -33.09897327 459.36664867 C-38.19790113 459.35757804 -43.29677406 459.37157789 -48.39569092 459.38256836 C-58.37556264 459.40033667 -68.35531389 459.3965211 -78.3351903 459.3849178 C-86.44744892 459.37587712 -94.55967382 459.37466223 -102.67193604 459.37901306 C-103.82737069 459.37962599 -104.98280535 459.38023893 -106.17325318 459.38087043 C-108.52063927 459.38214936 -110.86802535 459.38344621 -113.21541142 459.3847608 C-135.21680106 459.39616165 -157.21812399 459.38306063 -179.21950269 459.36155933 C-198.0897279 459.34368882 -216.95985469 459.34679306 -235.83007812 459.36523438 C-257.75378731 459.3866498 -279.67743805 459.39506306 -301.60115623 459.38278532 C-303.93981297 459.38151115 -306.27846971 459.38025367 -308.61712646 459.37901306 C-310.34303456 459.37808741 -310.34303456 459.37808741 -312.10380948 459.37714306 C-320.20449486 459.37369218 -328.30514312 459.37951286 -336.40582275 459.38893127 C-346.28047373 459.40016007 -356.15499755 459.3970926 -366.029634 459.3758083 C-371.06595704 459.36530983 -376.10206821 459.36115562 -381.13838959 459.37440491 C-385.75239548 459.38635944 -390.36599392 459.37971585 -394.97996306 459.3584947 C-396.64535997 459.3540416 -398.31079159 459.35626574 -399.97616601 459.36599785 C-413.57373397 459.43933858 -424.46378024 457.56261438 -434.64453125 447.84375 C-445.88216126 436.0720544 -446.29422261 423.50212219 -446.16601562 408.00756836 C-446.144412 404.8890354 -446.16597134 401.77276332 -446.19140625 398.65429688 C-446.18876579 396.6666616 -446.18364667 394.67902772 -446.17578125 392.69140625 C-446.18387817 391.76223892 -446.1919751 390.83307159 -446.20031738 389.87574768 C-446.18140442 388.57805702 -446.18140442 388.57805702 -446.16210938 387.25415039 C-446.15733582 386.11811119 -446.15733582 386.11811119 -446.15246582 384.9591217 C-445.42005281 381.90887499 -444.08032162 380.78857302 -441.64453125 378.84375 C-438.62890625 378.453125 -438.62890625 378.453125 -435.39453125 378.59375 C-434.316875 378.62984375 -433.23921875 378.6659375 -432.12890625 378.703125 C-431.3090625 378.74953125 -430.48921875 378.7959375 -429.64453125 378.84375 C-429.64680957 377.93274254 -429.64680957 377.93274254 -429.64913392 377.00333089 C-429.73869575 340.98717444 -429.80730249 304.9710372 -429.84879257 268.95479251 C-429.85379524 264.62782047 -429.85897255 260.30084866 -429.86425781 255.97387695 C-429.86530705 255.1124747 -429.8663563 254.25107244 -429.86743733 253.36356709 C-429.88483048 239.42589888 -429.91636216 225.48829684 -429.95314243 211.55066784 C-429.99058221 197.24353185 -430.01277352 182.93643045 -430.02088523 168.62924749 C-430.02636671 159.80483302 -430.04366354 150.9806056 -430.07619712 142.15624873 C-430.09738252 136.10054365 -430.10372221 130.04493491 -430.09853676 123.98919549 C-430.09598121 120.4981702 -430.09982795 117.00747118 -430.12135315 113.51650429 C-430.14131333 109.72344695 -430.13644726 105.9311838 -430.12554932 102.1381073 C-430.13720068 101.0456645 -430.14885205 99.9532217 -430.16085649 98.82767457 C-430.07226446 87.38571133 -426.57642944 78.15260969 -418.64453125 69.84375 C-409.8894737 61.48589733 -400.10547988 58.20938605 -388.13447571 58.36273193 C-387.13685736 58.35931423 -386.13923902 58.35589653 -385.11138982 58.35237527 C-381.80092781 58.34583759 -378.49129427 58.36770451 -375.1809082 58.38964844 C-372.79507974 58.3907778 -370.40924989 58.39014132 -368.02342224 58.38787842 C-362.23822509 58.38685241 -356.453295 58.40412461 -350.66815875 58.42962906 C-343.93130972 58.45832964 -337.19449756 58.46421893 -330.45759597 58.46878174 C-318.44538869 58.47751671 -306.43329063 58.50408323 -294.42114258 58.54199219 C-282.7587132 58.57875899 -271.09631359 58.60704783 -259.43383789 58.62402344 C-258.35389343 58.62559978 -258.35389343 58.62559978 -257.25213192 58.62720796 C-253.63996384 58.63242846 -250.02779555 58.63748321 -246.41562712 58.64245558 C-216.49185201 58.68386158 -186.56820446 58.75455997 -156.64453125 58.84375 C-156.44870201 57.72308136 -156.44870201 57.72308136 -156.24891663 56.57977295 C-155.986605 55.10314178 -155.986605 55.10314178 -155.71899414 53.59667969 C-155.54719131 52.62269226 -155.37538849 51.64870483 -155.19837952 50.64520264 C-150.69031083 27.84267411 -135.30151792 8.05911556 -116.64453125 -5.15625 C-108.1172753 -10.64517293 -99.33275286 -15.05601908 -89.64453125 -18.15625 C-88.67386719 -18.4759375 -87.70320313 -18.795625 -86.703125 -19.125 C-56.64977067 -27.24956137 -23.84221548 -19.44003389 0 0 Z " fill="#000000" transform="translate(461.64453125,37.15625)"/>
<path d="M0 0 C75.9 0 151.8 0 230 0 C232.64 5.61 235.28 11.22 238 17 C245.43765065 28.34718496 253.39497017 38.12336852 264.6015625 45.94140625 C265.29378906 46.46541016 265.29378906 46.46541016 266 47 C266 47.33 266 47.66 266 48 C265.38479492 48.0093457 264.76958984 48.01869141 264.13574219 48.02832031 C261.33968914 48.08211085 258.5452938 48.16573819 255.75 48.25 C254.78191406 48.26417969 253.81382812 48.27835938 252.81640625 48.29296875 C251.41455078 48.34130859 251.41455078 48.34130859 249.984375 48.390625 C248.69611816 48.4220459 248.69611816 48.4220459 247.38183594 48.45410156 C244.13300599 49.19870835 243.05703216 50.39121625 241 53 C240.40764447 56.15553187 240.40764447 56.15553187 240.51416016 59.72460938 C240.50846512 60.72534233 240.50846512 60.72534233 240.50265503 61.74629211 C240.49526114 63.94592702 240.51661323 66.14423303 240.5390625 68.34375 C240.54144778 69.87544601 240.54235207 71.40714499 240.5418396 72.93884277 C240.54496559 76.14675247 240.56151456 79.35421461 240.58837891 82.56201172 C240.62235866 86.67122186 240.63000734 90.77994042 240.62848854 94.8892746 C240.62903275 98.05145957 240.6400081 101.21353736 240.65449142 104.37568665 C240.66084974 105.89072356 240.66479606 107.40577261 240.66627884 108.92082214 C240.67062225 111.0392214 240.68814477 113.15710293 240.70947266 115.27539062 C240.71709625 116.48022095 240.72471985 117.68505127 240.73257446 118.9263916 C240.98931493 121.87719307 241.358217 123.56410083 243 126 C246.14562313 127.57281156 249.51262031 127.14726686 252.96630859 127.14526367 C253.78922897 127.14862228 254.61214935 127.1519809 255.46000671 127.15544128 C258.18949886 127.16496615 260.91892975 127.16689522 263.6484375 127.16796875 C265.54171779 127.17118047 267.43499783 127.17454447 269.32827759 127.17805481 C273.30121435 127.18405007 277.27412934 127.18589432 281.24707031 127.18530273 C286.34051352 127.18520114 291.43381725 127.19884921 296.5272274 127.21607494 C300.43912396 127.22718865 304.35098676 127.22922213 308.26289749 127.22869301 C310.14078883 127.22987423 312.01868102 127.23430398 313.89655685 127.24202538 C316.52277157 127.25181172 319.14868285 127.2489525 321.77490234 127.24291992 C322.55219193 127.24853943 323.32948151 127.25415894 324.13032532 127.25994873 C329.40212779 127.27057327 329.40212779 127.27057327 334 125 C335.05848176 121.82455471 335.15634114 119.48932514 335.20532227 116.15161133 C335.22526749 114.9505928 335.24521271 113.74957428 335.26576233 112.51216125 C335.28247482 111.21521835 335.29918732 109.91827545 335.31640625 108.58203125 C335.33698293 107.2410977 335.35797959 105.90017054 335.37937927 104.55924988 C335.43452627 101.03298111 335.48396794 97.50665452 335.53222656 93.98028564 C335.5824955 90.38068507 335.63815339 86.78116827 335.69335938 83.18164062 C335.80085071 76.12116648 335.90231565 69.06061718 336 62 C337.91512272 61.49411853 339.83216922 60.99551609 341.75 60.5 C342.81734375 60.2215625 343.8846875 59.943125 344.984375 59.65625 C348 59 348 59 352 59 C352 118.73 352 178.46 352 240 C323.351875 240.185625 294.70375 240.37125 265.1875 240.5625 C256.19266357 240.64443604 247.19782715 240.72637207 237.93041992 240.81079102 C226.8170166 240.85144043 226.8170166 240.85144043 221.58930969 240.85899353 C217.99247188 240.86726897 214.39686943 240.90054093 210.80036926 240.95018005 C188.06096271 241.25020256 169.12649003 240.28484996 148 231 C146.44213062 230.34392948 144.88393 229.68864458 143.32530212 229.03437805 C139.79201818 227.53234349 136.36388748 225.85865092 132.9375 224.125 C131.71996565 223.52132896 130.50226979 222.91798355 129.28442383 222.31494141 C89.12483861 202.24967723 89.12483861 202.24967723 84 192 C87.96 192 91.92 192 96 192 C96 186.72 96 181.44 96 176 C92.85210937 176.20882812 92.85210937 176.20882812 89.640625 176.421875 C66.34652749 177.63086156 66.34652749 177.63086156 60.33984375 173.46875 C56.09356283 169.59023814 53.56297388 165.12594777 51 160 C65.85 160 80.7 160 96 160 C96 154.72 96 149.44 96 144 C94.28490234 144.05760498 92.56980469 144.11520996 90.80273438 144.17456055 C85.11160906 144.3525281 79.42088488 144.47858449 73.72771454 144.56993389 C70.27814744 144.62715748 66.83161114 144.70462458 63.38378906 144.82983398 C59.41248988 144.9731373 55.4423813 145.02575104 51.46875 145.07421875 C50.24136108 145.13099289 49.01397217 145.18776703 47.74938965 145.2462616 C42.60383461 145.24994516 39.34237111 145.2386644 35.45727539 141.65371704 C32.23715622 137.34601663 29.87068006 133.03896305 28 128 C28.9683075 127.99191315 29.93661499 127.98382629 30.93426514 127.97549438 C40.05714562 127.89802864 49.17987705 127.81028823 58.30256271 127.71247292 C62.99269398 127.66251502 67.68280277 127.61618489 72.37304688 127.578125 C76.89891243 127.54126585 81.42458979 127.49490411 85.95029449 127.44193649 C87.6774287 127.42339591 89.40460324 127.40828669 91.13179779 127.39665604 C93.54997554 127.37978782 95.96772258 127.35075166 98.38574219 127.31884766 C99.10071869 127.31668747 99.81569519 127.31452728 100.55233765 127.31230164 C104.1441544 127.25171381 107.04617299 127.17369624 110 125 C111.13652833 121.59041502 111.13393633 118.96894777 111.14526367 115.37304688 C111.14862228 114.7044313 111.1519809 114.03581573 111.15544128 113.34693909 C111.16493781 111.13752382 111.16689358 108.92818441 111.16796875 106.71875 C111.17118165 105.18322722 111.17454575 103.64770475 111.17805481 102.11218262 C111.18404241 98.89427989 111.18589503 95.676404 111.18530273 92.45849609 C111.185201 88.33239534 111.19886656 84.20646622 111.21607494 80.08040619 C111.22718389 76.90972093 111.2292223 73.73907736 111.22869301 70.56837463 C111.22987428 69.04691474 111.2343043 67.52545382 111.24202538 66.00401306 C111.25180542 63.87820328 111.24895558 61.75276874 111.24291992 59.62695312 C111.24434494 58.41688599 111.24576996 57.20681885 111.24723816 55.96008301 C111.22459512 52.813079 111.22459512 52.813079 109 50 C105.27423292 48.75807764 101.80182882 48.83641819 97.92016602 48.82299805 C97.09709961 48.81642685 96.2740332 48.80985565 95.42602539 48.80308533 C92.70198476 48.78337151 89.97799912 48.77169604 87.25390625 48.76171875 C86.32388227 48.75764322 85.3938583 48.7535677 84.43565178 48.74936867 C79.51626686 48.72851941 74.59690977 48.71421087 69.67749023 48.70483398 C64.59178374 48.69375202 59.50651267 48.65932839 54.42096043 48.61966228 C50.51335319 48.59355169 46.60585079 48.58514727 42.69816399 48.58155251 C40.82303859 48.57667473 38.94791824 48.565027 37.07287788 48.54651451 C34.45130673 48.52223348 31.83087708 48.52306721 29.20922852 48.5300293 C28.43350998 48.51721924 27.65779144 48.50440918 26.85856628 48.49121094 C23.44984392 48.52425206 21.36454949 48.7504559 18.52104187 50.69691467 C16.69411518 53.46315545 16.4855277 55.01959177 16.45410156 58.31933594 C16.42452362 59.91053253 16.42452362 59.91053253 16.39434814 61.53387451 C16.39250519 63.24187225 16.39250519 63.24187225 16.390625 64.984375 C16.37408875 66.15510559 16.35755249 67.32583618 16.34051514 68.53204346 C16.29192919 72.27141511 16.27063967 76.01037976 16.25 79.75 C16.22184934 82.28517684 16.19192321 84.82033464 16.16015625 87.35546875 C16.08616719 93.57023835 16.03458676 99.78489299 16 106 C-5.10051752 74.34922372 0 36.13160239 0 0 Z " fill="#FED9A9" transform="translate(80,144)"/>
<path d="M0 0 C15.33797883 12.76840379 25.89757645 32.69712691 27.80908203 52.57519531 C29.33628708 74.92599005 23.25232923 96.00835027 8.57421875 113.1328125 C8.12820313 113.72191406 7.6821875 114.31101563 7.22265625 114.91796875 C-4.41831374 129.86061737 -24.07470086 138.30150295 -42.42578125 141.1328125 C-63.40871513 143.28152699 -83.60242291 138.41547709 -100.48828125 125.5078125 C-101.8086772 124.3920904 -103.12196621 123.26786651 -104.42578125 122.1328125 C-105.30556641 121.46572266 -105.30556641 121.46572266 -106.203125 120.78515625 C-121.29144448 109.04979666 -128.89067898 90.0054125 -132.01171875 71.6953125 C-134.50385305 50.25355328 -129.69619029 29.58857074 -116.3203125 12.453125 C-115.69511719 11.68742187 -115.06992187 10.92171875 -114.42578125 10.1328125 C-113.93464844 9.49085937 -113.44351562 8.84890625 -112.9375 8.1875 C-101.75940699 -5.85596333 -83.49893256 -15.36210274 -65.98046875 -18.48046875 C-41.29407225 -21.16613167 -19.69198013 -15.15743398 0 0 Z " fill="#FD9610" transform="translate(452.42578125,50.8671875)"/>
<path d="M0 0 C0.82175217 -0.00554901 1.64350433 -0.01109802 2.49015808 -0.01681519 C5.19911515 -0.02859978 7.90639499 -0.00434938 10.61523438 0.02148438 C12.50183028 0.02319588 14.38842856 0.02312939 16.27502441 0.0213623 C20.22606199 0.02301487 24.17653173 0.04170121 28.12744141 0.07324219 C33.1883391 0.11291954 38.24849319 0.11728702 43.30951691 0.10977936 C47.20435379 0.10670774 51.09902394 0.11883701 54.99382019 0.13591003 C56.85970514 0.14293428 58.72560898 0.14606527 60.59150696 0.1452179 C63.20067401 0.14701848 65.80895517 0.16842221 68.41796875 0.1953125 C69.18694992 0.1923819 69.95593109 0.18945129 70.74821472 0.18643188 C75.22812538 0.25756011 78.15074365 0.83251037 81.70898438 3.61523438 C83.13564454 6.4685547 82.8520613 8.90711711 82.87011719 12.09692383 C82.87756454 13.09480927 82.87756454 13.09480927 82.88516235 14.112854 C82.89979059 16.31808501 82.90658764 18.52324403 82.91210938 20.72851562 C82.91786104 22.26067609 82.92361878 23.79283653 82.92938232 25.32499695 C82.93989471 28.5404799 82.94573556 31.75593783 82.94921875 34.97143555 C82.95469879 39.08735328 82.97871504 43.20293941 83.0071907 47.31875324 C83.02583689 50.48523414 83.03102377 53.65163557 83.03255463 56.81816673 C83.0355781 58.33519488 83.04359636 59.85222172 83.05673981 61.36919594 C83.07383957 63.49483887 83.07191082 65.61967708 83.06542969 67.74536133 C83.07089813 69.55832451 83.07089813 69.55832451 83.07647705 71.40791321 C82.67150309 74.94235521 81.88839972 76.82342512 79.70898438 79.61523438 C76.14282024 80.80395575 72.91807096 80.74732134 69.20825195 80.72875977 C68.44703537 80.72890579 67.68581879 80.72905182 66.90153503 80.72920227 C64.38549958 80.72850561 61.86953815 80.72072476 59.35351562 80.71289062 C57.60902446 80.71102557 55.86453277 80.70960208 54.12004089 80.70860291 C49.52839716 80.70478464 44.93678505 80.69496022 40.34515381 80.68389893 C35.65979439 80.67366999 30.97442986 80.6691021 26.2890625 80.6640625 C17.09568923 80.65333735 7.90233943 80.63626918 -1.29101562 80.61523438 C3.58402427 90.44146807 3.58402427 90.44146807 11.85430908 96.99484253 C15.43502211 97.44329718 18.76828267 97.4633454 22.37304688 97.29882812 C24.28287857 97.30028587 24.28287857 97.30028587 26.23129272 97.30177307 C29.58729293 97.29103855 32.92884862 97.21619322 36.28222656 97.10876465 C39.71443529 97.01503644 43.14678256 97.00746754 46.58007812 96.9921875 C53.293138 96.94507622 59.9985095 96.80521332 66.70898438 96.61523438 C66.70898438 101.89523437 66.70898438 107.17523438 66.70898438 112.61523438 C52.18898438 112.94523437 37.66898437 113.27523437 22.70898438 113.61523438 C29.4820651 122.60649542 29.4820651 122.60649542 39.00878906 128.16113281 C40.28657227 128.18208008 41.56435547 128.20302734 42.88085938 128.22460938 C43.56327698 128.24114563 44.24569458 128.25768188 44.9487915 128.27471924 C47.11894791 128.32313276 49.28840409 128.34455302 51.45898438 128.36523438 C52.9342799 128.39339999 54.40954289 128.42332827 55.88476562 128.45507812 C59.49315833 128.53219788 63.09935333 128.57276813 66.70898438 128.61523438 C66.70898438 133.89523437 66.70898438 139.17523438 66.70898438 144.61523438 C63.07898438 144.94523438 59.44898438 145.27523437 55.70898438 145.61523438 C81.94346816 167.17715704 113.10178709 182.41988375 145.70898438 191.61523438 C145.70898438 191.94523438 145.70898438 192.27523437 145.70898438 192.61523438 C87.95898438 192.61523438 30.20898438 192.61523438 -29.29101562 192.61523438 C-29.29101562 134.53523437 -29.29101562 76.45523437 -29.29101562 16.61523438 C-27.15466866 19.81975483 -26.19826326 22.60010619 -25.01367188 26.25976562 C-24.80165634 26.90717209 -24.58964081 27.55457855 -24.37120056 28.22160339 C-23.46728243 30.98220139 -22.57398058 33.74620281 -21.67993164 36.51000977 C-21.02413817 38.53201967 -20.36277973 40.55215215 -19.70117188 42.57226562 C-19.3106665 43.77858643 -18.92016113 44.98490723 -18.51782227 46.2277832 C-17.32923941 49.50969109 -15.91726765 52.53015161 -14.29101562 55.61523438 C-14.28959061 54.99993362 -14.28816559 54.38463287 -14.28669739 53.75068665 C-14.26700046 47.34253444 -14.21272682 40.9353348 -14.13842773 34.52758789 C-14.11524049 32.1367069 -14.10085035 29.74572367 -14.09545898 27.35473633 C-14.08617524 23.91618067 -14.04519394 20.47923494 -13.99804688 17.04101562 C-14.00394585 15.43919182 -14.00394585 15.43919182 -14.00996399 13.80500793 C-13.99032089 12.80434799 -13.9706778 11.80368805 -13.95043945 10.77270508 C-13.94377762 9.89556351 -13.93711578 9.01842194 -13.93025208 8.11470032 C-12.06878486 0.83621377 -6.63319272 -0.11440808 0 0 Z " fill="#FEC477" transform="translate(109.291015625,191.384765625)"/>
<path d="M0 0 C0.97615759 -0.00170885 1.95231517 -0.0034177 2.95805329 -0.00517833 C6.23164675 -0.00847472 9.50503562 0.00253306 12.77861023 0.01345825 C15.12414546 0.01402233 17.46968104 0.01370587 19.81521606 0.01257324 C26.18664846 0.01199861 32.55800579 0.02377089 38.92942071 0.03772116 C44.91220999 0.04894502 50.89499934 0.05096688 56.87779715 0.0530249 C68.72691047 0.05740079 80.57599624 0.07070702 92.4250946 0.08963013 C103.93453331 0.10799167 115.44396452 0.12214683 126.95341492 0.13064575 C127.66300625 0.1311712 128.37259758 0.13169665 129.10369167 0.13223802 C132.66354741 0.13484811 136.22340321 0.13737552 139.78325903 0.13986182 C169.30996615 0.16059102 198.8366461 0.19596247 228.36332703 0.24050903 C228.69332703 5.52050903 229.02332703 10.80050903 229.36332703 16.24050903 C228.15073338 16.24197559 226.93813972 16.24344215 225.68880081 16.24495316 C196.91666326 16.28064037 168.14461496 16.33686011 139.37257256 16.41842999 C135.83270727 16.42844767 132.29284153 16.43829176 128.75297546 16.44802856 C128.04823962 16.44996994 127.34350378 16.45191131 126.6174123 16.45391151 C115.20023355 16.48494885 103.78307492 16.50191699 92.36586192 16.51370326 C80.65433662 16.52610586 68.94291701 16.55358703 57.23145843 16.5951221 C50.65176448 16.61780018 44.07222155 16.63341591 37.49248505 16.63239288 C31.30368245 16.63165002 25.11521448 16.6494501 18.92649841 16.68167686 C16.65126317 16.69021887 14.37599058 16.69189687 12.10074615 16.68631172 C9.00137437 16.67971505 5.90308088 16.69748875 2.80381775 16.7215271 C1.89720532 16.71376668 0.99059289 16.70600626 0.05650735 16.69801068 C-3.55907466 16.74787505 -5.98665628 16.88877829 -9.19579887 18.62527847 C-11.50444733 22.81554604 -11.17951575 26.896088 -11.13114929 31.60317993 C-11.13597812 32.66958253 -11.14080695 33.73598514 -11.14578211 34.83470297 C-11.15708403 38.4200881 -11.13970973 42.00476493 -11.12251282 45.59011841 C-11.1246579 48.15561619 -11.12853443 50.72111302 -11.13401794 53.28660583 C-11.14272055 59.53865176 -11.13281623 65.79043328 -11.11431734 72.04245055 C-11.09355506 79.32089694 -11.09368957 86.59929754 -11.0946625 93.87776798 C-11.09566394 106.86314691 -11.07733555 119.84842736 -11.04829407 132.83377075 C-11.02011884 145.43828119 -11.00595251 158.04270495 -11.00727844 170.64724731 C-11.00735835 171.42354065 -11.00743827 172.19983399 -11.0075206 172.99965137 C-11.00760131 173.77459353 -11.00768202 174.54953569 -11.00776517 175.34796095 C-11.00914458 189.69136661 -10.99736634 204.03473539 -10.97945874 218.37812909 C-10.97342352 223.45332525 -10.97129932 228.52851464 -10.97039413 233.60371399 C-10.96888808 240.43267765 -10.95620775 247.2615373 -10.93606186 254.09047508 C-10.93020764 256.6011569 -10.92776197 259.11184924 -10.92891693 261.62253761 C-10.92989462 265.04106918 -10.9186236 268.45934246 -10.90409851 271.87783813 C-10.90719571 272.8789958 -10.91029292 273.88015346 -10.91348398 274.91164923 C-10.90703508 275.82631287 -10.90058619 276.74097651 -10.89394188 277.68335724 C-10.89253303 278.47252612 -10.89112418 279.26169499 -10.88967264 280.07477808 C-10.60177599 282.53923465 -9.9463301 284.14103637 -8.63667297 286.24050903 C-5.87799631 287.61984736 -3.66562119 287.36721803 -0.57647133 287.36914349 C1.37476145 287.37398016 1.37476145 287.37398016 3.36541307 287.37891454 C4.82275615 287.37744316 6.28009913 287.37587542 7.73744202 287.3742218 C9.27486846 287.37608842 10.81229443 287.37838852 12.34971964 287.38108712 C16.59027091 287.38723008 20.83080254 287.38706861 25.07135725 287.38589275 C29.63858822 287.38568937 34.20581277 287.39120149 38.77304077 287.39595032 C47.72705688 287.40427113 56.6810664 287.4070058 65.63508604 287.4075627 C72.91046364 287.40803719 80.18583906 287.41008858 87.46121597 287.41326332 C108.07003622 287.42207386 128.67885125 287.42668208 149.2876734 287.42593285 C150.39964105 287.42589289 151.5116087 287.42585293 152.65727234 287.42581177 C153.7705914 287.42577089 154.88391047 287.42573001 156.03096648 287.42568789 C174.07945463 287.42528132 192.12792193 287.4348525 210.17640404 287.44895013 C228.69061133 287.46329789 247.20480844 287.4702212 265.71902144 287.46935636 C276.12050928 287.46902383 286.52197526 287.47179526 296.9234581 287.48253441 C305.77887512 287.4916184 314.63426038 287.49383203 323.48968004 287.48702499 C328.01060659 287.48374909 332.53147213 287.48374142 337.05239296 287.49237823 C341.1876384 287.50019722 345.32277398 287.49885932 349.45801659 287.4900941 C350.95734559 287.48854889 352.4566826 287.49041332 353.95600216 287.49595418 C355.98780488 287.50296801 358.01964087 287.49655235 360.0514431 287.489398 C361.74716676 287.48972405 361.74716676 287.48972405 363.47714746 287.49005669 C366.35184684 287.24150164 368.01199764 286.89255664 370.36332703 285.24050903 C371.58790959 281.56676133 371.47707552 278.20820493 371.4407959 274.38549805 C371.43726709 273.57665794 371.43373827 272.76781784 371.43010253 271.93446743 C371.42175953 270.1584031 371.4110843 268.38234859 371.39840889 266.60630989 C371.37779903 263.71619997 371.36301477 260.82611162 371.34980774 257.93595886 C371.33552658 254.82288455 371.32086221 251.70981676 371.30444777 248.59675288 C371.26412779 240.87294373 371.24335682 233.14926058 371.23458862 225.425354 C371.23330501 224.30510358 371.23202139 223.18485315 371.23069888 222.03065574 C371.22581828 217.40794084 371.22164229 212.78522565 371.21791232 208.16250968 C371.20660995 195.03355087 371.17581699 181.90531805 371.08573914 168.77664185 C371.01433794 158.35183971 370.98526526 147.92789274 371.00590247 137.50285256 C371.0152389 131.98595103 371.00321368 126.47095839 370.93993568 120.95437241 C370.88086507 115.7611357 370.87808202 110.57087592 370.91792679 105.37748528 C370.92263637 103.47515612 370.90692922 101.57264625 370.86894417 99.67069054 C370.60638539 85.69697743 370.60638539 85.69697743 373.54509139 81.58822489 C377.77542068 77.31147508 383.03643409 74.9039555 388.36332703 72.24050903 C388.36332703 148.80050903 388.36332703 225.36050903 388.36332703 304.24050903 C251.08332703 304.24050903 113.80332703 304.24050903 -27.63667297 304.24050903 C-27.71917297 257.21550903 -27.80167297 210.19050903 -27.88667297 161.74050903 C-27.92308899 146.88213013 -27.959505 132.02375122 -27.99702454 116.71511841 C-28.01509094 98.59695435 -28.01509094 98.59695435 -28.01844788 90.12002563 C-28.02218046 84.18864616 -28.03686333 78.25741712 -28.05897522 72.32608032 C-28.08443967 65.48532907 -28.09601606 58.64472228 -28.09045278 51.80392328 C-28.08804338 48.30462636 -28.09185925 44.80565228 -28.1135335 41.3064146 C-28.13339809 37.55741619 -28.12864488 33.80922779 -28.11769104 30.06021118 C-28.13516703 28.42641888 -28.13516703 28.42641888 -28.15299606 26.75962067 C-28.09218473 19.02794939 -26.62896281 13.61285715 -21.45307922 7.77957153 C-20.33739563 6.8321106 -20.33739563 6.8321106 -19.19917297 5.86550903 C-18.45796204 5.21839966 -17.7167511 4.57129028 -16.95307922 3.90457153 C-11.45369324 -0.04608349 -6.54422135 -0.04182702 0 0 Z " fill="#3C99E1" transform="translate(75.63667297363281,111.75949096679688)"/>
<path d="M0 0 C55.44 0 110.88 0 168 0 C168.33 4.29 168.66 8.58 169 13 C171.33123208 20.27344408 174.63134416 24.71865036 181 29 C185.16262133 31.04590872 188.62037357 31.25804444 193.23364258 31.2746582 C194.2981086 31.2823246 194.2981086 31.2823246 195.38407898 31.29014587 C197.72098316 31.30400097 200.05759096 31.30308783 202.39453125 31.30078125 C204.02731942 31.30467121 205.66010659 31.3090065 207.29289246 31.31376648 C210.71328004 31.32122049 214.13356439 31.32094394 217.55395508 31.31567383 C221.92173662 31.30988869 226.2890928 31.32679084 230.65680408 31.3500185 C234.02929628 31.3648048 237.40168729 31.36562076 240.77420616 31.36250877 C242.38364184 31.36301981 243.99308352 31.36821634 245.60248756 31.37832069 C256.16260363 31.43647283 265.29116061 31.40619934 273.4609375 23.77734375 C279.58578081 16.70423789 279.27599751 9.41203231 280 0 C335.44 0 390.88 0 448 0 C448 32.38095238 448 32.38095238 442.359375 40.3046875 C441.82828125 40.82289063 441.2971875 41.34109375 440.75 41.875 C440.22921875 42.40867187 439.7084375 42.94234375 439.171875 43.4921875 C431.01316654 49.15632683 421.99099824 48.42564037 412.48864746 48.38768005 C410.79214803 48.3918551 409.09565138 48.39733356 407.39915991 48.40399987 C402.74657697 48.41845051 398.09417125 48.41421094 393.44157863 48.40683305 C388.42037084 48.40210282 383.39920146 48.41460989 378.37800598 48.42485046 C368.54513687 48.44204599 358.71233164 48.44287699 348.87945139 48.43763756 C340.88818948 48.43359642 332.89694644 48.43503875 324.90568542 48.44038582 C323.76840566 48.44113424 322.63112589 48.44188266 321.4593831 48.44265376 C319.14903422 48.44418523 316.83868534 48.44572358 314.52833647 48.44726873 C292.86327412 48.46099623 271.19824789 48.45555408 249.53318638 48.44408352 C229.70946022 48.4341485 209.88582737 48.44709603 190.06211561 48.47101771 C169.70803063 48.49539444 149.35398914 48.50502024 128.99988985 48.49836498 C117.57217985 48.4948699 106.14454163 48.49712404 94.71684265 48.51461601 C84.98989392 48.52932004 75.26306754 48.52999684 65.53612125 48.5125451 C60.57309487 48.50401837 55.61028722 48.50192644 50.64727211 48.51719666 C46.10362407 48.5310036 41.56038299 48.52633214 37.01675874 48.50695742 C35.37352979 48.50318485 33.73026855 48.50615548 32.08706826 48.51656907 C22.41975323 48.57347589 15.13370443 48.48180546 7.5390625 41.8515625 C6.59160156 40.74941406 6.59160156 40.74941406 5.625 39.625 C4.97789063 38.89539063 4.33078125 38.16578125 3.6640625 37.4140625 C-3.81388767 26.56576859 0 12.31001736 0 0 Z " fill="#57585A" transform="translate(32,432)"/>
<path d="M0 0 C0.82175217 -0.00554901 1.64350433 -0.01109802 2.49015808 -0.01681519 C5.19911515 -0.02859978 7.90639499 -0.00434938 10.61523438 0.02148438 C12.50183028 0.02319588 14.38842856 0.02312939 16.27502441 0.0213623 C20.22606199 0.02301487 24.17653173 0.04170121 28.12744141 0.07324219 C33.1883391 0.11291954 38.24849319 0.11728702 43.30951691 0.10977936 C47.20435379 0.10670774 51.09902394 0.11883701 54.99382019 0.13591003 C56.85970514 0.14293428 58.72560898 0.14606527 60.59150696 0.1452179 C63.20067401 0.14701848 65.80895517 0.16842221 68.41796875 0.1953125 C69.18694992 0.1923819 69.95593109 0.18945129 70.74821472 0.18643188 C75.22812538 0.25756011 78.15074365 0.83251037 81.70898438 3.61523438 C83.13564454 6.4685547 82.8520613 8.90711711 82.87011719 12.09692383 C82.87756454 13.09480927 82.87756454 13.09480927 82.88516235 14.112854 C82.89979059 16.31808501 82.90658764 18.52324403 82.91210938 20.72851562 C82.91786104 22.26067609 82.92361878 23.79283653 82.92938232 25.32499695 C82.93989471 28.5404799 82.94573556 31.75593783 82.94921875 34.97143555 C82.95469879 39.08735328 82.97871504 43.20293941 83.0071907 47.31875324 C83.02583689 50.48523414 83.03102377 53.65163557 83.03255463 56.81816673 C83.0355781 58.33519488 83.04359636 59.85222172 83.05673981 61.36919594 C83.07383957 63.49483887 83.07191082 65.61967708 83.06542969 67.74536133 C83.07089813 69.55832451 83.07089813 69.55832451 83.07647705 71.40791321 C82.67150309 74.94235521 81.88839972 76.82342512 79.70898438 79.61523438 C75.98138797 80.85776651 72.51219557 80.77078604 68.62915039 80.77636719 C67.39455078 80.78381454 67.39455078 80.78381454 66.13500977 80.79141235 C63.41096157 80.80602344 60.68697157 80.81283351 57.96289062 80.81835938 C56.07103982 80.82411081 54.17918903 80.82986855 52.28733826 80.83563232 C48.32038094 80.8461387 44.35344388 80.85198404 40.38647461 80.85546875 C35.30084772 80.86095881 30.21548785 80.88499928 25.1299448 80.9134407 C21.22233799 80.93205228 17.31479576 80.93727185 13.40714836 80.93880463 C11.53203811 80.94183403 9.65692907 80.9498722 7.78186226 80.96298981 C5.16043802 80.98002266 2.53966984 80.97817716 -0.08178711 80.97167969 C-0.85750565 80.98089447 -1.63322418 80.99010925 -2.43244934 80.99960327 C-5.62252211 80.9748031 -7.91360191 80.82080372 -10.74159241 79.28045654 C-13.82815363 75.96321558 -13.4379007 72.32538438 -13.48388672 68.02001953 C-13.49206421 67.35461655 -13.5002417 66.68921356 -13.50866699 66.00364685 C-13.53345916 63.80387258 -13.55001939 61.60416249 -13.56445312 59.40429688 C-13.5697768 58.65204205 -13.57510048 57.89978722 -13.58058548 57.12473679 C-13.60728792 53.14436615 -13.6266736 49.16402659 -13.64111328 45.18359375 C-13.65446243 41.89131955 -13.68233572 38.59966371 -13.72314453 35.30761719 C-13.77245527 31.32944295 -13.79723171 27.3518303 -13.80434036 23.37336349 C-13.81105223 21.85908246 -13.82627291 20.34481392 -13.85023117 18.83070755 C-13.88188503 16.70955411 -13.8819213 14.59056628 -13.87451172 12.46923828 C-13.88259857 11.26361237 -13.89068542 10.05798645 -13.89901733 8.81582642 C-12.41450363 1.00117282 -7.07552626 -0.12203736 0 0 Z " fill="#000000" transform="translate(221.291015625,191.384765625)"/>
<path d="M0 0 C0.82175217 -0.00554901 1.64350433 -0.01109802 2.49015808 -0.01681519 C5.19911515 -0.02859978 7.90639499 -0.00434938 10.61523438 0.02148438 C12.50183028 0.02319588 14.38842856 0.02312939 16.27502441 0.0213623 C20.22606199 0.02301487 24.17653173 0.04170121 28.12744141 0.07324219 C33.1883391 0.11291954 38.24849319 0.11728702 43.30951691 0.10977936 C47.20435379 0.10670774 51.09902394 0.11883701 54.99382019 0.13591003 C56.85970514 0.14293428 58.72560898 0.14606527 60.59150696 0.1452179 C63.20067401 0.14701848 65.80895517 0.16842221 68.41796875 0.1953125 C69.18694992 0.1923819 69.95593109 0.18945129 70.74821472 0.18643188 C75.22812538 0.25756011 78.15074365 0.83251037 81.70898438 3.61523438 C83.13564454 6.4685547 82.8520613 8.90711711 82.87011719 12.09692383 C82.87756454 13.09480927 82.87756454 13.09480927 82.88516235 14.112854 C82.89979059 16.31808501 82.90658764 18.52324403 82.91210938 20.72851562 C82.91786104 22.26067609 82.92361878 23.79283653 82.92938232 25.32499695 C82.93989471 28.5404799 82.94573556 31.75593783 82.94921875 34.97143555 C82.95469879 39.08735328 82.97871504 43.20293941 83.0071907 47.31875324 C83.02583689 50.48523414 83.03102377 53.65163557 83.03255463 56.81816673 C83.0355781 58.33519488 83.04359636 59.85222172 83.05673981 61.36919594 C83.07383957 63.49483887 83.07191082 65.61967708 83.06542969 67.74536133 C83.07089813 69.55832451 83.07089813 69.55832451 83.07647705 71.40791321 C82.67150309 74.94235521 81.88839972 76.82342512 79.70898438 79.61523438 C75.98138797 80.85776651 72.51219557 80.77078604 68.62915039 80.77636719 C67.39455078 80.78381454 67.39455078 80.78381454 66.13500977 80.79141235 C63.41096157 80.80602344 60.68697157 80.81283351 57.96289062 80.81835938 C56.07103982 80.82411081 54.17918903 80.82986855 52.28733826 80.83563232 C48.32038094 80.8461387 44.35344388 80.85198404 40.38647461 80.85546875 C35.30084772 80.86095881 30.21548785 80.88499928 25.1299448 80.9134407 C21.22233799 80.93205228 17.31479576 80.93727185 13.40714836 80.93880463 C11.53203811 80.94183403 9.65692907 80.9498722 7.78186226 80.96298981 C5.16043802 80.98002266 2.53966984 80.97817716 -0.08178711 80.97167969 C-0.85750565 80.98089447 -1.63322418 80.99010925 -2.43244934 80.99960327 C-5.62252211 80.9748031 -7.91360191 80.82080372 -10.74159241 79.28045654 C-13.82815363 75.96321558 -13.4379007 72.32538438 -13.48388672 68.02001953 C-13.49206421 67.35461655 -13.5002417 66.68921356 -13.50866699 66.00364685 C-13.53345916 63.80387258 -13.55001939 61.60416249 -13.56445312 59.40429688 C-13.5697768 58.65204205 -13.57510048 57.89978722 -13.58058548 57.12473679 C-13.60728792 53.14436615 -13.6266736 49.16402659 -13.64111328 45.18359375 C-13.65446243 41.89131955 -13.68233572 38.59966371 -13.72314453 35.30761719 C-13.77245527 31.32944295 -13.79723171 27.3518303 -13.80434036 23.37336349 C-13.81105223 21.85908246 -13.82627291 20.34481392 -13.85023117 18.83070755 C-13.88188503 16.70955411 -13.8819213 14.59056628 -13.87451172 12.46923828 C-13.88259857 11.26361237 -13.89068542 10.05798645 -13.89901733 8.81582642 C-12.41450363 1.00117282 -7.07552626 -0.12203736 0 0 Z " fill="#000000" transform="translate(109.291015625,191.384765625)"/>
<path d="M0 0 C21.12 0 42.24 0 64 0 C64 15.84 64 31.68 64 48 C42.88 48 21.76 48 0 48 C0 32.16 0 16.32 0 0 Z " fill="#7ED63E" transform="translate(336,208)"/>
<path d="M0 0 C21.12 0 42.24 0 64 0 C64 15.84 64 31.68 64 48 C42.88 48 21.76 48 0 48 C0 32.16 0 16.32 0 0 Z " fill="#FFCD00" transform="translate(224,208)"/>
<path d="M0 0 C21.12 0 42.24 0 64 0 C64 15.84 64 31.68 64 48 C42.88 48 21.76 48 0 48 C0 32.16 0 16.32 0 0 Z " fill="#D80027" transform="translate(112,208)"/>
<path d="M0 0 C36.96 0 73.92 0 112 0 C112 5.28 112 10.56 112 16 C75.04 16 38.08 16 0 16 C0 10.72 0 5.44 0 0 Z " fill="#000000" transform="translate(192,160)"/>
<path d="M0 0 C4.22470909 0.88014773 5.61773055 2.01550083 8 5.625 C8.46099954 14.5279906 5.46589755 24.11533915 3.7265625 32.83203125 C3.3987374 34.48725203 3.07105224 36.14250052 2.74349976 37.79777527 C2.05929006 41.24860154 1.37117362 44.69862248 0.68066406 48.14819336 C-0.20224601 52.56223331 -1.07184051 56.97878332 -1.93814659 61.39610767 C-2.60930731 64.80752499 -3.28920942 68.21715683 -3.97157669 71.6263485 C-4.29600547 73.25437868 -4.61732849 74.88303106 -4.93543625 76.51230812 C-5.38060583 78.78724122 -5.83793938 81.05940631 -6.29833984 83.33129883 C-6.55513519 84.62240067 -6.81193054 85.9135025 -7.07650757 87.24372864 C-7.97571205 90.5360722 -9.01149381 92.86657352 -11 95.625 C-13.88861709 97.06930855 -15.79647701 97.00188506 -19 96.625 C-21.9375 94.8125 -21.9375 94.8125 -24 91.625 C-24.42186387 82.28602577 -21.59220626 72.46186156 -19.796875 63.3203125 C-19.63854439 62.50919888 -19.48021378 61.69808525 -19.31708527 60.86239243 C-18.48128115 56.58243913 -17.63876155 52.30387366 -16.79052734 48.02636719 C-15.91842076 43.62150893 -15.0697202 39.21247224 -14.22611618 34.80208015 C-13.56979918 31.39367899 -12.8963383 27.98882859 -12.2181778 24.58471298 C-11.89761755 22.96012165 -11.58348051 21.3342487 -11.27602386 19.70712662 C-10.84503133 17.43500502 -10.38990733 15.16898767 -9.92871094 12.90283203 C-9.67635681 11.6147464 -9.42400269 10.32666077 -9.16400146 8.99954224 C-7.49377319 4.15740412 -5.12177865 1.06703722 0 0 Z " fill="#020100" transform="translate(408,63.375)"/>
<path d="M0 0 C8.47892333 1.99504078 15.67574543 12.08717127 21.625 18.0625 C22.53443359 18.96806641 23.44386719 19.87363281 24.38085938 20.80664062 C25.24388672 21.67095703 26.10691406 22.53527344 26.99609375 23.42578125 C27.77782959 24.20864502 28.55956543 24.99150879 29.36499023 25.7980957 C31.50412851 28.0891085 32.10117717 29.29680513 32.6875 32.375 C31.42711347 40.88260908 20.72705912 48.36097713 14.875 54.1875 C13.96943359 55.09693359 13.06386719 56.00636719 12.13085938 56.94335938 C11.26654297 57.80638672 10.40222656 58.66941406 9.51171875 59.55859375 C8.72885498 60.34032959 7.94599121 61.12206543 7.1394043 61.92749023 C4.73671424 64.17090253 3.64842093 64.68854388 0.375 65.125 C-2.8125 64.75 -2.8125 64.75 -5.6875 62.625 C-7.8125 59.75 -7.8125 59.75 -8.5625 56.9375 C-7.39569617 51.97858374 -4.34648321 49.30156521 -0.8125 45.75 C-0.06540771 44.99251465 -0.06540771 44.99251465 0.69677734 44.21972656 C4.16711499 40.70253467 7.66776469 37.21771952 11.1875 33.75 C9.76829247 30.50904935 8.05441752 28.39164495 5.52734375 25.9296875 C4.81642578 25.22972656 4.10550781 24.52976562 3.37304688 23.80859375 C2.63119141 23.08800781 1.88933594 22.36742188 1.125 21.625 C-0.34723193 20.18712439 -1.81739156 18.74712292 -3.28515625 17.3046875 C-3.93750244 16.67030762 -4.58984863 16.03592773 -5.26196289 15.38232422 C-7.35773786 13.17600215 -7.78133347 11.98374896 -8.1875 8.9375 C-7.8125 5.75 -7.8125 5.75 -5.6875 2.875 C-2.8125 0.75 -2.8125 0.75 0 0 Z " fill="#060300" transform="translate(431.8125,79.25)"/>
<path d="M0 0 C3.21142855 2.37366458 4.71584605 3.93442268 5.75 7.8125 C4.58319617 12.77141626 1.53398321 15.44843479 -2 19 C-2.49806152 19.50499023 -2.99612305 20.00998047 -3.50927734 20.53027344 C-6.97961499 24.04746533 -10.48026469 27.53228048 -14 31 C-12.59078189 34.23821281 -10.92309836 36.25364328 -8.33984375 38.64453125 C-7.62892578 39.32193359 -6.91800781 39.99933594 -6.18554688 40.69726562 C-4.69060327 42.10388936 -3.18799228 43.50240987 -1.67773438 44.89257812 C4.38200471 50.7101478 4.38200471 50.7101478 5.0390625 54.8671875 C4.99978184 58.01749653 4.92301009 59.52755846 3 62 C0.44274038 63.98897971 -0.98046244 64.00060055 -4.24853516 63.90014648 C-9.02065173 62.75509938 -11.03256692 60.76216852 -14.3359375 57.28515625 C-14.90075836 56.71421738 -15.46557922 56.1432785 -16.04751587 55.55503845 C-17.83790322 53.73782957 -19.60605176 51.90055906 -21.375 50.0625 C-22.58590047 48.83006306 -23.79812767 47.59892819 -25.01171875 46.36914062 C-34.71859973 36.4773514 -34.71859973 36.4773514 -35.5 32.375 C-34.23961347 23.86739092 -23.53955912 16.38902287 -17.6875 10.5625 C-16.78193359 9.65306641 -15.87636719 8.74363281 -14.94335938 7.80664062 C-14.07904297 6.94361328 -13.21472656 6.08058594 -12.32421875 5.19140625 C-11.54135498 4.40967041 -10.75849121 3.62793457 -9.9519043 2.82250977 C-6.69179027 -0.22148663 -4.41835399 -0.51980635 0 0 Z " fill="#060300" transform="translate(371,80)"/>
<path d="M0 0 C26.4 0 52.8 0 80 0 C80 11.55555556 80 11.55555556 77 15 C73.59866333 16.13377889 70.97595778 16.14084176 67.38891602 16.16113281 C66.72190674 16.16609772 66.05489746 16.17106262 65.36767578 16.17617798 C63.16307542 16.19077284 60.95854697 16.19759638 58.75390625 16.203125 C57.2207794 16.20887777 55.68765257 16.21463549 54.15452576 16.22039795 C50.94082301 16.2308997 47.72714522 16.23674806 44.51342773 16.24023438 C40.39631983 16.24572358 36.2795419 16.26976389 32.16253757 16.29820633 C28.99609919 16.31683097 25.82974041 16.32203816 22.66325188 16.32357025 C21.14539723 16.3265967 19.62754399 16.334625 18.10974312 16.34775543 C15.98639915 16.36481624 13.86386327 16.3629364 11.74047852 16.35644531 C10.53263199 16.36009094 9.32478546 16.36373657 8.08033752 16.36749268 C4.7216871 15.96679651 3.35437859 15.38881028 1 13 C0 10 0 10 0 0 Z " fill="#D0D2D3" transform="translate(216,432)"/>
<path d="M0 0 C21.12 0 42.24 0 64 0 C64 5.28 64 10.56 64 16 C42.88 16 21.76 16 0 16 C0 10.72 0 5.44 0 0 Z " fill="#000000" transform="translate(336,352)"/>
<path d="M0 0 C21.12 0 42.24 0 64 0 C64 5.28 64 10.56 64 16 C42.88 16 21.76 16 0 16 C0 10.72 0 5.44 0 0 Z " fill="#000000" transform="translate(112,352)"/>
<path d="M0 0 C21.12 0 42.24 0 64 0 C64 5.28 64 10.56 64 16 C42.88 16 21.76 16 0 16 C0 10.72 0 5.44 0 0 Z " fill="#000000" transform="translate(336,320)"/>
<path d="M0 0 C21.12 0 42.24 0 64 0 C64 5.28 64 10.56 64 16 C42.88 16 21.76 16 0 16 C0 10.72 0 5.44 0 0 Z " fill="#000000" transform="translate(112,320)"/>
<path d="M0 0 C21.12 0 42.24 0 64 0 C64 5.28 64 10.56 64 16 C42.88 16 21.76 16 0 16 C0 10.72 0 5.44 0 0 Z " fill="#000000" transform="translate(336,288)"/>
<path d="M0 0 C21.12 0 42.24 0 64 0 C64 5.28 64 10.56 64 16 C42.88 16 21.76 16 0 16 C0 10.72 0 5.44 0 0 Z " fill="#000000" transform="translate(112,288)"/>
<path d="M0 0 C10.56 0 21.12 0 32 0 C32 5.28 32 10.56 32 16 C21.44 16 10.88 16 0 16 C0 10.72 0 5.44 0 0 Z " fill="#000000" transform="translate(256,352)"/>
<path d="M0 0 C10.56 0 21.12 0 32 0 C32 5.28 32 10.56 32 16 C21.44 16 10.88 16 0 16 C0 10.72 0 5.44 0 0 Z " fill="#000000" transform="translate(256,320)"/>
<path d="M0 0 C10.56 0 21.12 0 32 0 C32 5.28 32 10.56 32 16 C21.44 16 10.88 16 0 16 C0 10.72 0 5.44 0 0 Z " fill="#000000" transform="translate(256,288)"/>
<path d="M0 0 C5.28 0 10.56 0 16 0 C16 5.28 16 10.56 16 16 C10.72 16 5.44 16 0 16 C0 10.72 0 5.44 0 0 Z " fill="#000000" transform="translate(224,352)"/>
<path d="M0 0 C5.28 0 10.56 0 16 0 C16 5.28 16 10.56 16 16 C10.72 16 5.44 16 0 16 C0 10.72 0 5.44 0 0 Z " fill="#000000" transform="translate(224,320)"/>
<path d="M0 0 C5.28 0 10.56 0 16 0 C16 5.28 16 10.56 16 16 C10.72 16 5.44 16 0 16 C0 10.72 0 5.44 0 0 Z " fill="#000000" transform="translate(224,288)"/>
<path d="M0 0 C5.28 0 10.56 0 16 0 C16 5.28 16 10.56 16 16 C10.72 16 5.44 16 0 16 C0 10.72 0 5.44 0 0 Z " fill="#000000" transform="translate(160,160)"/>
<path d="M0 0 C5.28 0 10.56 0 16 0 C16 5.28 16 10.56 16 16 C10.72 16 5.44 16 0 16 C0 10.72 0 5.44 0 0 Z " fill="#000000" transform="translate(128,160)"/>
<path d="M0 0 C5.28 0 10.56 0 16 0 C16 5.28 16 10.56 16 16 C10.72 16 5.44 16 0 16 C0 10.72 0 5.44 0 0 Z " fill="#000000" transform="translate(96,160)"/>
</svg>
