<?xml version="1.0" encoding="UTF-8"?>
<svg version="1.1" xmlns="http://www.w3.org/2000/svg" width="512" height="512">
<path d="M0 0 C0.65923965 -0.00817749 1.31847931 -0.01635498 1.99769592 -0.02478027 C4.17643357 -0.04955376 6.3551058 -0.06614076 8.53393555 -0.08056641 C9.28382437 -0.08589008 10.03371319 -0.09121376 10.80632591 -0.09669876 C14.78526154 -0.12341151 18.76416618 -0.14278154 22.74316406 -0.15722656 C26.00875336 -0.17048915 29.27370637 -0.19819964 32.5390625 -0.23925781 C36.5054683 -0.28911407 40.47130364 -0.31341262 44.43800926 -0.32045364 C45.93565291 -0.32708636 47.4332879 -0.34209428 48.93074989 -0.36634445 C63.92425746 -0.59505307 76.43974094 2.50645151 88.3581543 12.19287109 C89.18057617 12.81162109 90.00299805 13.43037109 90.8503418 14.06787109 C100.33044917 22.10085927 107.47351254 34.93886531 108.55102539 47.4284668 C109.12085337 64.68734755 107.65089797 78.29799633 96.3581543 92.19287109 C95.73553711 93.02431641 95.11291992 93.85576172 94.47143555 94.71240234 C86.20153017 104.41922288 72.55831575 111.43600706 59.8447876 112.48190308 C55.72390853 112.60478544 51.61318968 112.63737595 47.4909668 112.62646484 C45.9645871 112.63103784 44.43820946 112.6363467 42.91183472 112.64234924 C39.72637523 112.6512369 36.54116701 112.6489078 33.35571289 112.63891602 C29.30554888 112.62743987 25.25625858 112.64763859 21.20620918 112.67683315 C18.05743037 112.69532127 14.90885603 112.69487772 11.76003647 112.68919563 C10.26833751 112.68904391 8.77662334 112.69496272 7.28497696 112.70748711 C-8.17533313 112.81902962 -23.24242766 108.84527721 -34.8918457 98.06396484 C-43.80019164 88.53919319 -50.71494525 77.47844423 -51.6418457 64.19287109 C-53.41490235 64.44874514 -55.18529178 64.72314848 -56.9543457 65.00537109 C-57.94047852 65.15619141 -58.92661133 65.30701172 -59.94262695 65.46240234 C-62.90039258 66.26283964 -63.93542644 66.67644269 -65.6418457 69.19287109 C-66.51100314 72.1746048 -66.51100314 72.1746048 -67.0793457 75.50537109 C-68.90634175 83.95639895 -72.54261455 89.29277808 -79.6418457 94.19287109 C-86.08799693 97.41594671 -94.1777597 97.31958929 -101.0871582 95.57568359 C-107.04870183 92.93390151 -111.99379459 87.76624361 -114.7142334 81.86767578 C-115.65316923 79.16021929 -115.90380865 77.14891663 -115.92895508 74.29833984 C-115.94236938 73.35385986 -115.95578369 72.40937988 -115.96960449 71.4362793 C-115.97752014 69.92360474 -115.97752014 69.92360474 -115.9855957 68.38037109 C-116.00021851 67.33389404 -116.01484131 66.28741699 -116.02990723 65.20922852 C-116.09204905 60.74068172 -116.13174152 56.27199811 -116.17358398 51.80322266 C-116.20735806 48.53712654 -116.25245942 45.27131952 -116.2980957 42.00537109 C-116.30601135 40.49269653 -116.30601135 40.49269653 -116.31408691 38.94946289 C-116.32750122 38.00498291 -116.34091553 37.06050293 -116.35473633 36.08740234 C-116.36567322 34.8476062 -116.36567322 34.8476062 -116.37683105 33.58276367 C-116.68384353 30.8141362 -117.41685239 28.68986374 -118.6418457 26.19287109 C-121.44054597 24.79352096 -123.54683362 24.94021705 -126.6418457 25.19287109 C-129.45007111 27.12957827 -129.99932876 28.93898429 -130.6418457 32.19287109 C-130.74141203 33.90452083 -130.79609617 35.61908812 -130.81762695 37.33349609 C-130.84147461 38.32220703 -130.86532227 39.31091797 -130.88989258 40.32958984 C-130.93253362 42.38928136 -130.96396068 44.4492385 -130.98364258 46.50927734 C-131.19688705 54.15632336 -132.50896325 59.61777263 -137.60668945 65.43505859 C-146.94447464 73.16415604 -155.82477925 73.34530384 -167.56176758 73.79833984 C-168.42737305 73.83572266 -169.29297852 73.87310547 -170.18481445 73.91162109 C-170.96880615 73.94191406 -171.75279785 73.97220703 -172.56054688 74.00341797 C-174.83627917 74.13050109 -174.83627917 74.13050109 -177.6418457 75.19287109 C-177.77721345 76.62776918 -177.87401713 78.06634216 -177.9543457 79.50537109 C-178.01235352 80.30587891 -178.07036133 81.10638672 -178.13012695 81.93115234 C-177.85020043 84.36356545 -177.85020043 84.36356545 -175.67114258 85.81103516 C-171.58578035 87.67460303 -168.12213072 87.59712589 -163.68481445 87.56396484 C-161.91463027 87.58135153 -160.14444802 87.59893587 -158.37426758 87.61669922 C-155.60299023 87.62674985 -152.83184166 87.63037263 -150.06054688 87.62866211 C-147.37241983 87.63225362 -144.68526665 87.65967736 -141.99731445 87.68896484 C-141.17933884 87.68078232 -140.36136322 87.67259979 -139.51860046 87.66416931 C-132.73457449 87.75099822 -127.5291276 89.66272685 -122.3996582 94.15771484 C-121.86083008 94.80869141 -121.32200195 95.45966797 -120.7668457 96.13037109 C-119.93540039 97.10296875 -119.93540039 97.10296875 -119.0871582 98.09521484 C-116.26016443 102.19817607 -115.3912416 105.76380371 -115.4465332 110.71240234 C-115.45620117 112.24477539 -115.45620117 112.24477539 -115.46606445 113.80810547 C-115.49120117 115.39075195 -115.49120117 115.39075195 -115.5168457 117.00537109 C-115.52586914 118.07980469 -115.53489258 119.15423828 -115.54418945 120.26123047 C-115.56769265 122.90533963 -115.60054995 125.54898982 -115.6418457 128.19287109 C-114.76447754 128.17192383 -113.88710938 128.15097656 -112.9831543 128.12939453 C-109.70667887 128.06094509 -106.43097058 128.01094058 -103.15405273 127.97314453 C-101.73986775 127.95311267 -100.32576474 127.92587861 -98.91186523 127.89111328 C-96.87113152 127.84221621 -94.83149881 127.81981987 -92.7902832 127.80224609 C-90.95216064 127.7708252 -90.95216064 127.7708252 -89.0769043 127.73876953 C-83.80338887 128.43590803 -80.95767286 130.70863516 -77.48226929 134.62884521 C-74.54358638 139.18141899 -75.21675532 144.34883092 -75.3918457 149.56787109 C-75.40989258 150.59009766 -75.42793945 151.61232422 -75.4465332 152.66552734 C-75.4934508 155.17561858 -75.55907841 157.68374874 -75.6418457 160.19287109 C-74.49751572 160.18620926 -73.35318573 160.17954742 -72.17417908 160.17268372 C-61.33308352 160.11158373 -50.49202339 160.06676071 -39.65079403 160.03743458 C-34.07864584 160.02185037 -28.50663785 160.00074602 -22.93457031 159.96655273 C-17.54640406 159.93369895 -12.15837176 159.91596376 -6.77011299 159.90823936 C-4.72545835 159.90274219 -2.68081014 159.89200912 -0.6362133 159.87568092 C27.41379433 159.66080122 50.17543277 166.57166695 72.3581543 184.19287109 C73.06713867 184.73427734 73.77612305 185.27568359 74.5065918 185.83349609 C94.27291792 201.80791475 106.10485399 228.36838411 108.8269043 253.17724609 C111.50821995 282.53386143 102.7920993 309.43741517 84.3581543 332.19287109 C83.81932617 332.89669922 83.28049805 333.60052734 82.7253418 334.32568359 C67.50022051 353.22319594 42.81725643 364.38707155 19.3581543 368.19287109 C14.59803514 368.59685317 9.88363432 368.67093402 5.1081543 368.63037109 C3.84471191 368.62279785 2.58126953 368.61522461 1.27954102 368.60742188 C-13.8988139 368.34161149 -31.53123311 365.70438103 -44.46334743 356.96141529 C-51.31894472 352.46202323 -57.60377205 352.4646238 -65.62841797 352.49829102 C-67.02250469 352.48658266 -68.41657534 352.47280698 -69.81062317 352.45713806 C-73.57566638 352.42171141 -77.34009159 352.41800986 -81.10527539 352.42244887 C-84.26312364 352.42364461 -87.42084622 352.41015119 -90.57866234 352.39706594 C-98.04097619 352.36679465 -105.50297779 352.36338696 -112.96533203 352.3762207 C-120.62454944 352.38887153 -128.28250188 352.35381369 -135.94147831 352.2953369 C-142.5483006 352.24676107 -149.1547213 352.22969606 -155.76171726 352.23681146 C-159.69386458 352.24066286 -163.62506087 352.23296186 -167.55703926 352.19420433 C-184.00177072 352.04504101 -197.39647108 352.05009411 -211.6418457 361.19287109 C-236.76114747 371.9283904 -266.27614595 371.1547033 -291.5168457 361.38037109 C-302.4061996 356.74338902 -311.61120773 350.79162413 -320.6418457 343.19287109 C-321.6524707 342.42974609 -322.6630957 341.66662109 -323.7043457 340.88037109 C-341.1484008 324.92091643 -354.49383556 299.72245938 -355.81884766 276.02758789 C-356.36233725 246.00141179 -356.36233725 246.00141179 -351.6418457 232.19287109 C-351.43285645 231.56461426 -351.22386719 230.93635742 -351.00854492 230.2890625 C-345.69121191 214.62384099 -337.20608361 201.89581051 -325.6418457 190.19287109 C-324.99860352 189.47744141 -324.35536133 188.76201172 -323.69262695 188.02490234 C-309.35517233 172.44341695 -284.79287211 161.03122997 -263.59956741 160.10346794 C-261.17638993 160.07021027 -258.75517437 160.06918386 -256.33178711 160.0793457 C-255.41407532 160.07919968 -254.49636353 160.07905365 -253.55084229 160.0789032 C-250.53167315 160.07959725 -247.51256649 160.08736587 -244.4934082 160.09521484 C-242.39448073 160.09708082 -240.29555282 160.09850388 -238.19662476 160.09950256 C-232.68274729 160.10331355 -227.16889632 160.11313172 -221.6550293 160.12420654 C-216.02433633 160.13445117 -210.39363906 160.13900672 -204.76293945 160.14404297 C-193.72256325 160.15475527 -182.68220668 160.17181464 -171.6418457 160.19287109 C-171.66279297 159.55784668 -171.68374023 158.92282227 -171.70532227 158.26855469 C-171.78889151 155.36849033 -171.84063344 152.46867994 -171.8918457 149.56787109 C-171.92536133 148.56884766 -171.95887695 147.56982422 -171.9934082 146.54052734 C-172.07487543 140.38975153 -171.77548852 136.85556645 -167.6418457 132.19287109 C-163.21515996 128.48096286 -160.21870045 127.70437785 -154.4934082 127.80224609 C-153.83601654 127.80790588 -153.17862488 127.81356567 -152.50131226 127.81939697 C-150.42238379 127.84160834 -148.34524407 127.89176689 -146.2668457 127.94287109 C-144.84890203 127.9629562 -143.43093106 127.98120344 -142.01293945 127.99755859 C-138.55533693 128.04142043 -135.0987662 128.11033672 -131.6418457 128.19287109 C-131.75630843 125.62950856 -131.88304071 123.06773665 -132.0168457 120.50537109 C-132.06325195 119.42352539 -132.06325195 119.42352539 -132.1105957 118.31982422 C-132.42298097 112.50748853 -132.42298097 112.50748853 -134.6418457 107.19287109 C-138.79728937 104.98771693 -142.38558767 104.98487045 -147.0324707 105.06787109 C-147.73652039 105.07544434 -148.44057007 105.08301758 -149.16595459 105.09082031 C-152.15707839 105.12325608 -155.14763923 105.17928419 -158.13842773 105.23388672 C-179.85437977 105.59589864 -179.85437977 105.59589864 -187.6418457 99.19287109 C-193.3998566 93.39343566 -195.92477134 88.7315159 -196.0168457 80.38037109 C-195.89110178 73.30172763 -194.88791515 68.70408978 -190.0637207 63.48583984 C-182.66325013 56.63540424 -175.71675107 55.75987868 -165.9543457 55.63037109 C-163.90861243 55.59587091 -161.86299618 55.55322954 -159.81762695 55.50146484 C-158.47051636 55.48297485 -158.47051636 55.48297485 -157.09619141 55.46411133 C-154.39271939 55.16533908 -152.85429886 54.78107605 -150.6418457 53.19287109 C-148.74760881 49.68384413 -148.39375404 46.68259836 -148.3684082 42.73583984 C-148.3477832 41.70523438 -148.3271582 40.67462891 -148.3059082 39.61279297 C-148.28000911 37.46964276 -148.26169489 35.32638656 -148.2512207 33.18310547 C-148.07616521 25.37854792 -146.88158316 19.88990748 -141.67700195 13.95068359 C-140.70053711 13.14244141 -140.70053711 13.14244141 -139.7043457 12.31787109 C-139.05594727 11.76357422 -138.40754883 11.20927734 -137.73950195 10.63818359 C-131.23827013 6.15875012 -124.27043654 6.51823381 -116.6418457 7.19287109 C-109.98225237 8.87372692 -105.45637123 13.65665431 -101.6418457 19.19287109 C-100.06396449 22.61409833 -99.38789561 25.32849508 -99.35473633 29.08740234 C-99.34132202 30.03188232 -99.32790771 30.9763623 -99.31408691 31.94946289 C-99.30617126 33.46213745 -99.30617126 33.46213745 -99.2980957 35.00537109 C-99.2834729 36.05184814 -99.2688501 37.0983252 -99.25378418 38.17651367 C-99.19164236 42.64506047 -99.15194989 47.11374408 -99.11010742 51.58251953 C-99.07633334 54.84861565 -99.03123198 58.11442267 -98.9855957 61.38037109 C-98.97768005 62.89304565 -98.97768005 62.89304565 -98.96960449 64.4362793 C-98.95619019 65.38075928 -98.94277588 66.32523926 -98.92895508 67.29833984 C-98.91801819 68.53813599 -98.91801819 68.53813599 -98.90686035 69.80297852 C-98.59984788 72.57160598 -97.86683901 74.69587845 -96.6418457 77.19287109 C-93.84314544 78.59222123 -91.73685778 78.44552514 -88.6418457 78.19287109 C-85.20804791 75.78921264 -84.9408404 72.84646367 -84.2043457 68.88037109 C-82.37734966 60.42934324 -78.74107685 55.09296411 -71.6418457 50.19287109 C-67.41778417 47.99222365 -63.48999806 47.95191228 -58.8293457 48.06787109 C-57.79003906 48.08140625 -57.79003906 48.08140625 -56.72973633 48.09521484 C-55.03362175 48.11860953 -53.337687 48.15447469 -51.6418457 48.19287109 C-51.49489258 47.28408203 -51.49489258 47.28408203 -51.3449707 46.35693359 C-48.43602157 30.05678761 -40.36718691 17.60889388 -26.80981445 8.06787109 C-18.44599354 3.11764416 -9.69235909 0.10479734 0 0 Z " fill="#444444" transform="translate(379.641845703125,71.80712890625)"/>
<path d="M0 0 C0.65923965 -0.00817749 1.31847931 -0.01635498 1.99769592 -0.02478027 C4.17643357 -0.04955376 6.3551058 -0.06614076 8.53393555 -0.08056641 C9.28382437 -0.08589008 10.03371319 -0.09121376 10.80632591 -0.09669876 C14.78526154 -0.12341151 18.76416618 -0.14278154 22.74316406 -0.15722656 C26.00875336 -0.17048915 29.27370637 -0.19819964 32.5390625 -0.23925781 C36.5054683 -0.28911407 40.47130364 -0.31341262 44.43800926 -0.32045364 C45.93565291 -0.32708636 47.4332879 -0.34209428 48.93074989 -0.36634445 C63.92425746 -0.59505307 76.43974094 2.50645151 88.3581543 12.19287109 C89.18057617 12.81162109 90.00299805 13.43037109 90.8503418 14.06787109 C100.33044917 22.10085927 107.47351254 34.93886531 108.55102539 47.4284668 C109.12085337 64.68734755 107.65089797 78.29799633 96.3581543 92.19287109 C95.73553711 93.02431641 95.11291992 93.85576172 94.47143555 94.71240234 C86.20153017 104.41922288 72.55831575 111.43600706 59.8447876 112.48190308 C55.72390853 112.60478544 51.61318968 112.63737595 47.4909668 112.62646484 C45.9645871 112.63103784 44.43820946 112.6363467 42.91183472 112.64234924 C39.72637523 112.6512369 36.54116701 112.6489078 33.35571289 112.63891602 C29.30554888 112.62743987 25.25625858 112.64763859 21.20620918 112.67683315 C18.05743037 112.69532127 14.90885603 112.69487772 11.76003647 112.68919563 C10.26833751 112.68904391 8.77662334 112.69496272 7.28497696 112.70748711 C-8.17533313 112.81902962 -23.24242766 108.84527721 -34.8918457 98.06396484 C-48.09307846 83.94925393 -52.26515112 69.68053813 -51.98168945 50.90771484 C-51.51011731 39.07144982 -47.073727 29.33724405 -39.6418457 20.19287109 C-39.0230957 19.37044922 -38.4043457 18.54802734 -37.7668457 17.70068359 C-28.47560535 6.73565361 -14.28216211 0.15442398 0 0 Z " fill="#F5657E" transform="translate(379.641845703125,71.80712890625)"/>
<path d="M0 0 C5.54223722 2.04703457 9.3685027 5.7370054 12 11 C12.08559118 13.17824961 12.10713412 15.35915255 12.09765625 17.5390625 C12.09282227 19.49199219 12.09282227 19.49199219 12.08789062 21.484375 C12.07953466 22.86458399 12.07106971 24.24479232 12.0625 25.625 C12.05748501 27.01301926 12.0529221 28.40104022 12.04882812 29.7890625 C12.03700976 33.19275132 12.02053434 36.59635439 12 40 C12.8470752 39.97905273 13.69415039 39.95810547 14.56689453 39.93652344 C17.73140393 39.86805945 20.89553391 39.81806013 24.06054688 39.78027344 C25.42623368 39.76024681 26.79183569 39.73301668 28.15722656 39.69824219 C30.12787102 39.64933568 32.09915983 39.62908653 34.0703125 39.609375 C35.84559326 39.5779541 35.84559326 39.5779541 37.65673828 39.54589844 C42.85481858 40.25193242 45.90727657 42.75961124 49.3125 46.625 C52.47565762 51.07685146 52.48837416 54.6459722 52 60 C50.17465409 65.27322153 47.39280797 67.79691086 43 71 C39.64264863 72.11911712 37.11794614 72.11365586 33.58203125 72.09765625 C31.70161133 72.09282227 31.70161133 72.09282227 29.78320312 72.08789062 C28.47287109 72.07951172 27.16253906 72.07113281 25.8125 72.0625 C24.47721519 72.05748317 23.14192859 72.05292059 21.80664062 72.04882812 C18.53771527 72.03702695 15.26888009 72.02056297 12 72 C12.0314209 73.21731812 12.0314209 73.21731812 12.06347656 74.45922852 C12.14697084 78.16019142 12.19876755 81.86095566 12.25 85.5625 C12.28351563 86.83931641 12.31703125 88.11613281 12.3515625 89.43164062 C12.42503577 96.50344314 12.424974 101.33377647 8 107 C3.30098915 111.35518079 -0.47091849 112.36239067 -6.71875 112.28125 C-11.47521811 111.69483612 -14.22375322 108.86016535 -17.3125 105.4375 C-20.0875486 101.42909647 -20.11920156 98.34354491 -20.09765625 93.58203125 C-20.09443359 92.32841797 -20.09121094 91.07480469 -20.08789062 89.78320312 C-20.07532227 87.81770508 -20.07532227 87.81770508 -20.0625 85.8125 C-20.05748317 84.47721519 -20.05292059 83.14192859 -20.04882812 81.80664062 C-20.03702695 78.53771527 -20.02056297 75.26888009 -20 72 C-20.83660156 72.0314209 -21.67320313 72.0628418 -22.53515625 72.09521484 C-25.67357015 72.19817776 -28.81111671 72.27302787 -31.95068359 72.32958984 C-33.96380122 72.37419788 -35.97613686 72.45048417 -37.98828125 72.52734375 C-45.19563515 72.63599733 -50.07158609 72.48912747 -55.58203125 67.57397461 C-59.56923227 63.1480991 -60.56641493 58.9865628 -60.3515625 53.17578125 C-59.59131311 48.47068227 -56.82928207 45.73055802 -53.375 42.6875 C-49.46224301 39.90738319 -47.26362309 39.88146251 -42.4609375 39.90234375 C-41.15898438 39.90556641 -39.85703125 39.90878906 -38.515625 39.91210938 C-37.13541601 39.92046534 -35.75520768 39.92893029 -34.375 39.9375 C-32.98698074 39.94251499 -31.59895978 39.9470779 -30.2109375 39.95117188 C-26.80724868 39.96299024 -23.40364561 39.97946566 -20 40 C-20.02094727 39.1529248 -20.04189453 38.30584961 -20.06347656 37.43310547 C-20.13194055 34.26859607 -20.18193987 31.10446609 -20.21972656 27.93945312 C-20.23975319 26.57376632 -20.26698332 25.20816431 -20.30175781 23.84277344 C-20.35066432 21.87212898 -20.37091347 19.90084017 -20.390625 17.9296875 C-20.41157227 16.74616699 -20.43251953 15.56264648 -20.45410156 14.34326172 C-19.81742054 9.65578327 -17.61745055 6.6922232 -14.39453125 3.3203125 C-9.74252884 -0.19453377 -5.76029824 -1.10108356 0 0 Z " fill="#C2C2C2" transform="translate(132,272)"/>
<path d="M0 0 C8.47892333 1.99504078 15.67574543 12.08717127 21.625 18.0625 C22.53443359 18.96806641 23.44386719 19.87363281 24.38085938 20.80664062 C25.24388672 21.67095703 26.10691406 22.53527344 26.99609375 23.42578125 C27.77782959 24.20864502 28.55956543 24.99150879 29.36499023 25.7980957 C31.50412851 28.0891085 32.10117717 29.29680513 32.6875 32.375 C31.42711347 40.88260908 20.72705912 48.36097713 14.875 54.1875 C13.96943359 55.09693359 13.06386719 56.00636719 12.13085938 56.94335938 C11.26654297 57.80638672 10.40222656 58.66941406 9.51171875 59.55859375 C8.72885498 60.34032959 7.94599121 61.12206543 7.1394043 61.92749023 C4.73671424 64.17090253 3.64842093 64.68854388 0.375 65.125 C-2.8125 64.75 -2.8125 64.75 -5.6875 62.625 C-7.8125 59.75 -7.8125 59.75 -8.5625 56.9375 C-7.39569617 51.97858374 -4.34648321 49.30156521 -0.8125 45.75 C-0.06540771 44.99251465 -0.06540771 44.99251465 0.69677734 44.21972656 C4.16711499 40.70253467 7.66776469 37.21771952 11.1875 33.75 C9.76829247 30.50904935 8.05441752 28.39164495 5.52734375 25.9296875 C4.81642578 25.22972656 4.10550781 24.52976562 3.37304688 23.80859375 C2.63119141 23.08800781 1.88933594 22.36742188 1.125 21.625 C-0.34723193 20.18712439 -1.81739156 18.74712292 -3.28515625 17.3046875 C-3.93750244 16.67030762 -4.58984863 16.03592773 -5.26196289 15.38232422 C-7.35773786 13.17600215 -7.78133347 11.98374896 -8.1875 8.9375 C-7.8125 5.75 -7.8125 5.75 -5.6875 2.875 C-2.8125 0.75 -2.8125 0.75 0 0 Z " fill="#484445" transform="translate(439.8125,95.25)"/>
<path d="M0 0 C3.21142855 2.37366458 4.71584605 3.93442268 5.75 7.8125 C4.58319617 12.77141626 1.53398321 15.44843479 -2 19 C-2.49806152 19.50499023 -2.99612305 20.00998047 -3.50927734 20.53027344 C-6.97961499 24.04746533 -10.48026469 27.53228048 -14 31 C-12.58079247 34.24095065 -10.86691752 36.35835505 -8.33984375 38.8203125 C-7.62892578 39.52027344 -6.91800781 40.22023437 -6.18554688 40.94140625 C-5.44369141 41.66199219 -4.70183594 42.38257813 -3.9375 43.125 C-2.46526807 44.56287561 -0.99510844 46.00287708 0.47265625 47.4453125 C1.45117554 48.39688232 1.45117554 48.39688232 2.44946289 49.36767578 C4.59832741 51.62988774 4.9762612 52.72700379 5.25 55.875 C5 59 5 59 4 61.3125 C1.55127627 63.37861065 -0.6544338 64.11115816 -3.84814453 64.34716797 C-6.56972268 63.90808422 -7.60317478 62.99928644 -9.6171875 61.1328125 C-10.3093335 60.494646 -11.00147949 59.85647949 -11.71459961 59.19897461 C-16.00210519 55.07360737 -20.23947668 50.90392226 -24.4375 46.6875 C-25.34693359 45.78193359 -26.25636719 44.87636719 -27.19335938 43.94335938 C-28.05638672 43.07904297 -28.91941406 42.21472656 -29.80859375 41.32421875 C-30.59032959 40.54135498 -31.37206543 39.75849121 -32.17749023 38.9519043 C-34.31662851 36.6608915 -34.91367717 35.45319487 -35.5 32.375 C-34.23961347 23.86739092 -23.53955912 16.38902287 -17.6875 10.5625 C-16.78193359 9.65306641 -15.87636719 8.74363281 -14.94335938 7.80664062 C-14.07904297 6.94361328 -13.21472656 6.08058594 -12.32421875 5.19140625 C-11.54135498 4.40967041 -10.75849121 3.62793457 -9.9519043 2.82250977 C-6.69179027 -0.22148663 -4.41835399 -0.51980635 0 0 Z " fill="#484445" transform="translate(379,96)"/>
<path d="M0 0 C3.24262891 0.56587054 5.3079142 0.9382694 7.8671875 3.09765625 C10.2443909 8.59493912 8.40739445 13.26552617 6.37792969 18.54418945 C6.00313477 19.4899585 5.62833984 20.43572754 5.2421875 21.41015625 C4.41942638 23.52769606 3.59930918 25.64626427 2.78125 27.765625 C2.32266602 28.95333496 1.86408203 30.14104492 1.39160156 31.36474609 C-0.37099871 35.99523483 -2.01762904 40.66590477 -3.671875 45.3359375 C-4.6001373 47.93441749 -5.52990352 50.53235455 -6.46014404 53.13012695 C-7.07401023 54.85497845 -7.68215397 56.58187752 -8.28448486 58.31079102 C-9.14005161 60.76261014 -10.01694616 63.20584032 -10.8984375 65.6484375 C-11.15033844 66.38806229 -11.40223938 67.12768707 -11.66177368 67.88972473 C-12.86959647 71.1786554 -13.85143187 73.18408051 -16.60839844 75.39916992 C-20.17800938 76.82874042 -22.46496252 76.42900347 -26.1328125 75.41015625 C-28.1328125 73.91015625 -28.1328125 73.91015625 -29.1328125 71.41015625 C-28.81081343 63.46143706 -26.36227033 56.65445584 -23.6171875 49.23828125 C-23.15928658 47.98534491 -22.70187772 46.73222865 -22.24493408 45.47894287 C-21.29005935 42.86767399 -20.32759123 40.25936352 -19.35986328 37.65283203 C-18.12514885 34.32453788 -16.91255681 30.98866434 -15.70583725 27.65013504 C-14.54346044 24.44552997 -13.36049432 21.24864132 -12.1796875 18.05078125 C-11.53407867 16.261633 -11.53407867 16.261633 -10.87542725 14.43634033 C-5.8872984 1.13217277 -5.8872984 1.13217277 0 0 Z " fill="#474445" transform="translate(418.1328125,91.58984375)"/>
<path d="M0 0 C5.67476113 1.96434039 9.31400331 5.62800662 12 11 C12.59057744 16.67862925 12.29370905 21.16922672 9 26 C4.99653611 30.03627917 1.41408246 32.12458106 -4.3125 32.3125 C-8.94226662 32.25237316 -11.4369151 31.06591027 -15 28 C-19.3022759 23.23261319 -20.36282503 19.56252705 -20.28125 13.28125 C-19.69180611 8.50020514 -16.85179203 5.75038822 -13.375 2.6875 C-8.92314854 -0.47565762 -5.3540278 -0.48837416 0 0 Z " fill="#E7626E" transform="translate(380,360)"/>
<path d="M0 0 C5.67476113 1.96434039 9.31400331 5.62800662 12 11 C12.59057744 16.67862925 12.29370905 21.16922672 9 26 C4.99653611 30.03627917 1.41408246 32.12458106 -4.3125 32.3125 C-8.94226662 32.25237316 -11.4369151 31.06591027 -15 28 C-19.3022759 23.23261319 -20.36282503 19.56252705 -20.28125 13.28125 C-19.69180611 8.50020514 -16.85179203 5.75038822 -13.375 2.6875 C-8.92314854 -0.47565762 -5.3540278 -0.48837416 0 0 Z " fill="#F2B95E" transform="translate(428,312)"/>
<path d="M0 0 C5.67476113 1.96434039 9.31400331 5.62800662 12 11 C12.59057744 16.67862925 12.29370905 21.16922672 9 26 C4.99653611 30.03627917 1.41408246 32.12458106 -4.3125 32.3125 C-8.94226662 32.25237316 -11.4369151 31.06591027 -15 28 C-19.3022759 23.23261319 -20.36282503 19.56252705 -20.28125 13.28125 C-19.69180611 8.50020514 -16.85179203 5.75038822 -13.375 2.6875 C-8.92314854 -0.47565762 -5.3540278 -0.48837416 0 0 Z " fill="#E7626E" transform="translate(332,312)"/>
<path d="M0 0 C5.67476113 1.96434039 9.31400331 5.62800662 12 11 C12.59057744 16.67862925 12.29370905 21.16922672 9 26 C4.99653611 30.03627917 1.41408246 32.12458106 -4.3125 32.3125 C-8.94226662 32.25237316 -11.4369151 31.06591027 -15 28 C-19.3022759 23.23261319 -20.36282503 19.56252705 -20.28125 13.28125 C-19.69180611 8.50020514 -16.85179203 5.75038822 -13.375 2.6875 C-8.92314854 -0.47565762 -5.3540278 -0.48837416 0 0 Z " fill="#F2B95E" transform="translate(380,264)"/>
<path d="M0 0 C0.93714844 -0.00257813 1.87429688 -0.00515625 2.83984375 -0.0078125 C7.80437377 0.06260637 11.52949427 0.18039685 15.5 3.5 C16.90457737 6.30915474 16.74895157 8.38810534 16.5 11.5 C14.72015595 14.6359157 13.97691793 15.34102736 10.5 16.5 C7.04690178 16.8042547 3.58992872 16.8234943 0.125 16.875 C-0.82117188 16.91238281 -1.76734375 16.94976562 -2.7421875 16.98828125 C-7.46883931 17.04802825 -9.74297641 17.06587514 -13.625 14.1640625 C-15.5 11.5 -15.5 11.5 -16.125 8.5 C-14.28929376 -0.31138993 -7.47902301 -0.22632532 0 0 Z " fill="#F2B95E" transform="translate(287.5,383.5)"/>
<path d="M0 0 C0.93714844 -0.00257813 1.87429687 -0.00515625 2.83984375 -0.0078125 C7.80437377 0.06260637 11.52949427 0.18039685 15.5 3.5 C16.90457737 6.30915474 16.74895157 8.38810534 16.5 11.5 C14.72015595 14.6359157 13.97691793 15.34102736 10.5 16.5 C7.04690178 16.8042547 3.58992872 16.8234943 0.125 16.875 C-0.82117188 16.91238281 -1.76734375 16.94976562 -2.7421875 16.98828125 C-7.46883931 17.04802825 -9.74297641 17.06587514 -13.625 14.1640625 C-15.5 11.5 -15.5 11.5 -16.125 8.5 C-14.28929376 -0.31138993 -7.47902301 -0.22632532 0 0 Z " fill="#E7626E" transform="translate(223.5,383.5)"/>
<path d="M0 0 C4.0743356 0.84881992 5.54405875 2.30225596 8 5.625 C8.625 8.625 8.625 8.625 8 11.625 C5.54405875 14.94774404 4.0743356 16.40118008 0 17.25 C-4.0743356 16.40118008 -5.54405875 14.94774404 -8 11.625 C-8.625 8.625 -8.625 8.625 -8 5.625 C-5.54405875 2.30225596 -4.0743356 0.84881992 0 0 Z " fill="#EDB65D" transform="translate(288,255.375)"/>
<path d="M0 0 C2.66589042 0.54323805 3.75768995 0.96351964 5.875 2.75 C7.21538506 5.84964046 7.42167869 7.71409302 6.875 11.0625 C4.41905875 14.38524404 2.9493356 15.83868008 -1.125 16.6875 C-5.1993356 15.83868008 -6.66905875 14.38524404 -9.125 11.0625 C-9.75 8.0625 -9.75 8.0625 -9.125 5.0625 C-6.50620524 1.2161452 -4.62486834 -0.35838463 0 0 Z " fill="#E3616D" transform="translate(225.125,255.9375)"/>
<path d="M0 0 C2.0625 1.5625 2.0625 1.5625 3 4 C3.17821261 6.85140177 2.92914963 9.292848 2 12 C-0.93837168 14.85194898 -2.53597436 15 -6.625 15 C-10 14 -10 14 -12 11.875 C-13.30782688 8.11499772 -13.06090617 5.81926223 -12 2 C-8.81688665 -2.07438508 -4.54417813 -1.38635943 0 0 Z " fill="#BEBEBE" transform="translate(261,257)"/>
</svg>
