<?xml version="1.0" encoding="UTF-8"?>
<svg version="1.1" xmlns="http://www.w3.org/2000/svg" width="512" height="512">
<path d="M0 0 C0.83015625 0.70898438 1.6603125 1.41796875 2.515625 2.1484375 C27.7286216 24.19047441 43.94019311 55.39415253 46.859375 88.85693359 C49.14119274 123.63088516 38.74201598 150.73575281 21.5703125 180.16796875 C16.52742908 188.86208868 12.29918455 197.47204573 9 207 C8.74621582 207.72606445 8.49243164 208.45212891 8.23095703 209.20019531 C1.53013775 228.78465538 -1.78896276 249.60174382 -2.17578125 270.28515625 C-2.19962891 271.55810547 -2.22347656 272.83105469 -2.24804688 274.14257812 C-2.2910771 276.75959845 -2.32229388 279.37683923 -2.34179688 281.99414062 C-2.53713257 290.95686903 -3.52508647 298.28002636 -8.9296875 305.62109375 C-17.90322581 314 -17.90322581 314 -23 314 C-22.95359375 315.25554687 -22.9071875 316.51109375 -22.859375 317.8046875 C-22.55156789 329.47687285 -22.49091312 338.50732317 -30.875 347.4375 C-34.3283249 350.62667131 -38.06634781 354 -43 354 C-42.97679687 354.89460938 -42.95359375 355.78921875 -42.9296875 356.7109375 C-42.75495719 368.41786846 -43.03673089 377.84661595 -51 387 C-58.00285298 393.39986759 -63.98303094 395.3129478 -73.32421875 395.37109375 C-74.22566116 395.38012222 -75.12710358 395.3891507 -76.05586243 395.39845276 C-77.96128025 395.41293335 -79.86674755 395.42183654 -81.7722168 395.42553711 C-84.66086704 395.43739071 -87.54734969 395.48656038 -90.43554688 395.53710938 C-101.07684837 395.63171564 -109.93087629 395.68844264 -118.10961914 388.02270508 C-125.62831009 380.21680355 -127.19616233 371.73573233 -127.0625 361.125 C-127.05798828 360.43664062 -127.05347656 359.74828125 -127.04882812 359.0390625 C-127.03716336 357.35933665 -127.01923271 355.67965625 -127 354 C-127.90621094 353.73445313 -128.81242187 353.46890625 -129.74609375 353.1953125 C-137.25334668 350.43754612 -142.58768874 344.10287966 -146 337 C-146.87582184 334.0833114 -147.11819311 331.49258088 -147.09765625 328.453125 C-147.09282227 327.18662109 -147.09282227 327.18662109 -147.08789062 325.89453125 C-147.07532227 324.58548828 -147.07532227 324.58548828 -147.0625 323.25 C-147.05798828 322.36183594 -147.05347656 321.47367187 -147.04882812 320.55859375 C-147.037074 318.37232671 -147.02064249 316.18619821 -147 314 C-147.90621094 313.73445313 -148.81242187 313.46890625 -149.74609375 313.1953125 C-157.25334668 310.43754612 -162.58768874 304.10287966 -166 297 C-167.05616382 293.6223625 -167.15339282 290.4536925 -167.2109375 286.92578125 C-167.25021362 285.10687378 -167.25021362 285.10687378 -167.2902832 283.2512207 C-167.31823975 281.95144287 -167.34619629 280.65166504 -167.375 279.3125 C-168.39888756 240.71106406 -176.17699818 207.37546798 -195.20141602 173.78710938 C-214.39355342 139.88930824 -223.07129467 105.33362173 -212.93359375 66.7578125 C-203.01931376 31.91512061 -180.40423385 3.01526934 -148.9375 -14.90234375 C-101.83053977 -40.61096729 -40.72384141 -35.39421115 0 0 Z " fill="#A599A5" transform="translate(341,109)"/>
<path d="M0 0 C0.83015625 0.70898438 1.6603125 1.41796875 2.515625 2.1484375 C27.7286216 24.19047441 43.94019311 55.39415253 46.859375 88.85693359 C49.14119274 123.63088516 38.74201598 150.73575281 21.5703125 180.16796875 C16.52742908 188.86208868 12.29918455 197.47204573 9 207 C8.74621582 207.72606445 8.49243164 208.45212891 8.23095703 209.20019531 C1.53013775 228.78465538 -1.78896276 249.60174382 -2.17578125 270.28515625 C-2.19962891 271.55810547 -2.22347656 272.83105469 -2.24804688 274.14257812 C-2.2910771 276.75959845 -2.32229388 279.37683923 -2.34179688 281.99414062 C-2.53713257 290.95686903 -3.52508647 298.28002636 -8.9296875 305.62109375 C-17.90322581 314 -17.90322581 314 -23 314 C-22.95359375 315.25554687 -22.9071875 316.51109375 -22.859375 317.8046875 C-22.55156789 329.47687285 -22.49091312 338.50732317 -30.875 347.4375 C-34.3283249 350.62667131 -38.06634781 354 -43 354 C-42.97679687 354.89460938 -42.95359375 355.78921875 -42.9296875 356.7109375 C-42.75495719 368.41786846 -43.03673089 377.84661595 -51 387 C-58.00285298 393.39986759 -63.98303094 395.3129478 -73.32421875 395.37109375 C-74.22566116 395.38012222 -75.12710358 395.3891507 -76.05586243 395.39845276 C-77.96128025 395.41293335 -79.86674755 395.42183654 -81.7722168 395.42553711 C-84.66086704 395.43739071 -87.54734969 395.48656038 -90.43554688 395.53710938 C-101.07684837 395.63171564 -109.93087629 395.68844264 -118.10961914 388.02270508 C-125.62831009 380.21680355 -127.19616233 371.73573233 -127.0625 361.125 C-127.05798828 360.43664062 -127.05347656 359.74828125 -127.04882812 359.0390625 C-127.03716336 357.35933665 -127.01923271 355.67965625 -127 354 C-127.90621094 353.73445313 -128.81242187 353.46890625 -129.74609375 353.1953125 C-137.25334668 350.43754612 -142.58768874 344.10287966 -146 337 C-146.87582184 334.0833114 -147.11819311 331.49258088 -147.09765625 328.453125 C-147.09282227 327.18662109 -147.09282227 327.18662109 -147.08789062 325.89453125 C-147.07532227 324.58548828 -147.07532227 324.58548828 -147.0625 323.25 C-147.05798828 322.36183594 -147.05347656 321.47367187 -147.04882812 320.55859375 C-147.037074 318.37232671 -147.02064249 316.18619821 -147 314 C-147.90621094 313.73445313 -148.81242187 313.46890625 -149.74609375 313.1953125 C-157.25334668 310.43754612 -162.58768874 304.10287966 -166 297 C-167.05616382 293.6223625 -167.15339282 290.4536925 -167.2109375 286.92578125 C-167.25021362 285.10687378 -167.25021362 285.10687378 -167.2902832 283.2512207 C-167.31823975 281.95144287 -167.34619629 280.65166504 -167.375 279.3125 C-168.39888756 240.71106406 -176.17699818 207.37546798 -195.20141602 173.78710938 C-214.39355342 139.88930824 -223.07129467 105.33362173 -212.93359375 66.7578125 C-203.01931376 31.91512061 -180.40423385 3.01526934 -148.9375 -14.90234375 C-101.83053977 -40.61096729 -40.72384141 -35.39421115 0 0 Z M-175 28 C-177.64567204 31.18650002 -179.873354 34.44885478 -182 38 C-182.35400879 38.58507324 -182.70801758 39.17014648 -183.07275391 39.77294922 C-198.90480163 66.15085194 -205.16019015 97.08628601 -198.0078125 127.5 C-197.50894531 129.2325 -197.50894531 129.2325 -197 131 C-196.66742188 132.175625 -196.33484375 133.35125 -195.9921875 134.5625 C-191.34701886 148.58565061 -183.28493249 161.22144419 -176 174 C-162.57176038 197.66618473 -156.50337452 221.4519411 -153.25512695 248.31152344 C-153.10390381 249.55450195 -152.95268066 250.79748047 -152.796875 252.078125 C-152.66635742 253.19606445 -152.53583984 254.31400391 -152.40136719 255.46582031 C-152.2655073 257.93042189 -152.2655073 257.93042189 -151 259 C-149.29405909 259.09839707 -147.58402029 259.12632028 -145.87524414 259.12698364 C-144.20934738 259.13121338 -144.20934738 259.13121338 -142.50979614 259.13552856 C-141.28066498 259.13350433 -140.05153381 259.1314801 -138.78515625 259.12939453 C-137.4991452 259.13114685 -136.21313416 259.13289917 -134.88815308 259.13470459 C-131.35105836 259.13927853 -127.81399268 259.13748953 -124.27689743 259.1343255 C-120.58311634 259.1318017 -116.88933782 259.1341395 -113.19555664 259.13571167 C-106.99136913 259.13753331 -100.78719352 259.13512721 -94.58300781 259.13037109 C-87.40016636 259.12492848 -80.21735329 259.12669114 -73.03451252 259.1321975 C-66.87826195 259.1367288 -60.72201994 259.1373791 -54.56576824 259.13475883 C-50.88418296 259.13319615 -47.20261104 259.13300205 -43.52102661 259.13629532 C-39.41894843 259.13970812 -35.31691953 259.13498402 -31.21484375 259.12939453 C-29.371147 259.13243088 -29.371147 259.13243088 -27.49020386 259.13552856 C-26.37960602 259.13270874 -25.26900818 259.12988892 -24.12475586 259.12698364 C-23.15356308 259.12660662 -22.1823703 259.12622959 -21.18174744 259.12584114 C-19.02223759 259.24397622 -19.02223759 259.24397622 -18 258 C-17.80312403 255.87288353 -17.61317099 253.74492424 -17.45605469 251.61450195 C-14.89633958 217.5830289 -3.18263691 188.56068388 14.08544922 159.47045898 C21.17433807 147.45344987 25.84489689 135.57503338 29 122 C29.26478149 120.8696936 29.26478149 120.8696936 29.53491211 119.71655273 C30.41242208 114.59106539 30.22555801 109.39024391 30.24023438 104.20214844 C30.24980922 102.1655786 30.28080618 100.13007781 30.3125 98.09375 C30.55850187 67.70202887 17.34198681 40.20219007 -3.6875 18.75 C-26.95112301 -4.27237874 -56.97361526 -14.57374638 -89.31103516 -14.42163086 C-123.57023236 -13.66137476 -152.43345456 2.95968306 -175 28 Z " fill="#252323" transform="translate(341,109)"/>
<path d="M0 0 C9.79271551 8.204265 19.34352059 17.30165077 25.9375 28.3125 C26.29150879 28.89757324 26.64551758 29.48264648 27.01025391 30.08544922 C42.26606751 55.50328361 49.58621465 87.39752683 42.3125 116.8125 C41.60746511 119.35636319 40.79667402 121.81110729 39.9375 124.3125 C39.38835937 126.02953125 39.38835937 126.02953125 38.828125 127.78125 C34.55463741 139.70480796 27.82713322 150.51255467 21.56298828 161.46923828 C6.6441958 187.5648011 -2.28349408 215.80210031 -3.8515625 245.96875 C-4.0625 248.3125 -4.0625 248.3125 -5.0625 249.3125 C-6.76844091 249.41089707 -8.47847971 249.43882028 -10.18725586 249.43948364 C-11.2978537 249.44230347 -12.40845154 249.44512329 -13.55270386 249.44802856 C-14.78183502 249.44600433 -16.01096619 249.4439801 -17.27734375 249.44189453 C-18.5633548 249.44364685 -19.84936584 249.44539917 -21.17434692 249.44720459 C-24.71144164 249.45177853 -28.24850732 249.44998953 -31.78560257 249.4468255 C-35.47938366 249.4443017 -39.17316218 249.4466395 -42.86694336 249.44821167 C-49.07113087 249.45003331 -55.27530648 249.44762721 -61.47949219 249.44287109 C-68.66233364 249.43742848 -75.84514671 249.43919114 -83.02798748 249.4446975 C-89.18423805 249.4492288 -95.34048006 249.4498791 -101.49673176 249.44725883 C-105.17831704 249.44569615 -108.85988896 249.44550205 -112.54147339 249.44879532 C-116.64355157 249.45220812 -120.74558047 249.44748402 -124.84765625 249.44189453 C-126.691353 249.44493088 -126.691353 249.44493088 -128.57229614 249.44802856 C-130.2381929 249.44379883 -130.2381929 249.44379883 -131.93774414 249.43948364 C-132.90893692 249.43910662 -133.8801297 249.43872959 -134.88075256 249.43834114 C-137.0625 249.3125 -137.0625 249.3125 -138.0625 248.3125 C-138.37407271 246.34527083 -138.6284102 244.36893827 -138.859375 242.390625 C-139.01051758 241.14780762 -139.16166016 239.90499023 -139.31738281 238.62451172 C-139.3975061 237.96191345 -139.47762939 237.29931519 -139.56018066 236.61663818 C-143.34423179 205.81058097 -152.44128969 179.78565043 -168.15625 153.015625 C-184.07926164 125.87988276 -191.85089889 95.83872551 -183.96484375 64.3671875 C-183.66707031 63.35914063 -183.36929688 62.35109375 -183.0625 61.3125 C-182.79566406 60.32507813 -182.52882812 59.33765625 -182.25390625 58.3203125 C-176.75825885 39.90378744 -166.28105211 24.01277777 -153.0625 10.3125 C-152.40507812 9.59191406 -151.74765625 8.87132812 -151.0703125 8.12890625 C-111.91861373 -33.62730467 -43.85275167 -33.27983905 0 0 Z M-90.47875977 -4.3203125 C-92.13395678 -1.56871012 -92.79531519 0.69612989 -93.5 3.8125 C-94.77819695 7.62655758 -95.4987757 8.97546643 -98.99609375 11.06640625 C-102.32564117 12.33246571 -105.62840742 13.37036771 -109.0625 14.3125 C-110.07699219 14.73273438 -111.09148437 15.15296875 -112.13671875 15.5859375 C-115.88619827 16.5170499 -117.17750089 15.73154885 -120.5 13.875 C-125.19753085 11.25614364 -127.80818193 11.09680193 -133.0625 12.3125 C-136.60162206 14.82171882 -139.53208931 17.87668015 -142.56274414 20.97558594 C-143.99867264 22.43614987 -145.46601267 23.85865172 -146.93945312 25.28125 C-147.85533203 26.20164063 -148.77121094 27.12203125 -149.71484375 28.0703125 C-150.55007568 28.9070752 -151.38530762 29.74383789 -152.24584961 30.60595703 C-154.56763213 34.06507288 -154.46682988 36.22414215 -154.0625 40.3125 C-153.21816543 42.71567109 -153.21816543 42.71567109 -152 44.8125 C-149.94658162 49.17601406 -149.68933058 51.54679438 -151.0625 56.3125 C-152.31378559 59.48569483 -153.62254287 62.61945232 -155.00390625 65.73828125 C-156.18927542 68.1568869 -156.18927542 68.1568869 -156.0625 70.3125 C-156.71476562 70.48265625 -157.36703125 70.6528125 -158.0390625 70.828125 C-163.41635265 72.31917301 -167.6784348 73.82773022 -172.0625 77.3125 C-174.20303349 81.59356698 -173.24835451 87.30581955 -173.24780273 92.06103516 C-173.2499844 94.172407 -173.26813103 96.28325221 -173.28710938 98.39453125 C-173.29004442 99.73958155 -173.29202847 101.08463433 -173.29296875 102.4296875 C-173.29707764 103.65284668 -173.30118652 104.87600586 -173.30541992 106.13623047 C-173.07431534 109.15800992 -172.72137394 110.8171411 -171.0625 113.3125 C-169.37500467 114.53613779 -169.37500467 114.53613779 -167.375 115.375 C-166.73175781 115.67535156 -166.08851563 115.97570312 -165.42578125 116.28515625 C-162.89946152 117.42699316 -162.89946152 117.42699316 -159.51171875 118.4765625 C-155.22895872 120.75617429 -154.09457231 123.24582666 -152.5625 127.625 C-152.29953125 128.27662109 -152.0365625 128.92824219 -151.765625 129.59960938 C-150.15019934 133.89165787 -149.84652526 136.90222893 -151.0625 141.3125 C-151.578125 142.446875 -152.09375 143.58125 -152.625 144.75 C-154.26479914 148.81385005 -154.82186011 150.98414739 -154.0625 155.3125 C-152.13110744 158.36884401 -149.62108803 160.77461252 -147.0625 163.3125 C-145.96516078 164.43262959 -144.86888713 165.55380364 -143.7734375 166.67578125 C-137.26641812 174.19605162 -137.26641812 174.19605162 -128.5 177.625 C-124.137757 177.6091373 -121.02737566 176.14717655 -117.23828125 174.08984375 C-114.38975542 173.07214781 -112.96249528 173.48757466 -110.0625 174.3125 C-108.96035156 174.61542969 -107.85820312 174.91835938 -106.72265625 175.23046875 C-96.51533873 178.83239947 -96.51533873 178.83239947 -93.921875 183.75390625 C-92.82908698 186.23279442 -92.01421076 188.67659838 -91.17578125 191.265625 C-90.30611374 194.57702995 -90.30611374 194.57702995 -87.0625 196.3125 C-83.82898454 196.62280637 -83.82898454 196.62280637 -80.12890625 196.578125 C-79.11738747 196.58099518 -79.11738747 196.58099518 -78.08543396 196.58392334 C-76.66071194 196.58528282 -75.23597743 196.5816029 -73.8112793 196.57324219 C-71.636271 196.56255538 -69.46209174 196.57313625 -67.28710938 196.5859375 C-65.90103985 196.58461554 -64.51497084 196.58205238 -63.12890625 196.578125 C-61.87021729 196.57586914 -60.61152832 196.57361328 -59.31469727 196.57128906 C-56.25552808 196.32785994 -54.53418613 196.08952198 -52.0625 194.3125 C-51.22948792 192.11300576 -50.49205978 189.87663997 -49.8125 187.625 C-47.82540734 182.09129737 -45.50440234 179.33571772 -40.17089844 176.7800293 C-30.10567272 172.58392136 -30.10567272 172.58392136 -25.0625 174.3125 C-23.969375 174.828125 -22.87625 175.34375 -21.75 175.875 C-17.67579409 177.46324976 -14.32917106 178.41224273 -10.0625 177.3125 C-6.95854235 175.42226938 -4.59284441 172.90149477 -2.0625 170.3125 C-0.9445367 169.21428149 0.1754111 168.11808107 1.296875 167.0234375 C8.66555759 160.69884874 8.66555759 160.69884874 12.25 152.25 C11.90907998 147.95440771 10.74671622 145.34961394 8.71484375 141.62109375 C6.74062851 135.75797211 10.13443374 128.7359009 12.28515625 123.25 C14.48968759 119.33083317 16.54104069 118.28048018 20.71875 116.9296875 C21.4509375 116.72601563 22.183125 116.52234375 22.9375 116.3125 C27.06331795 114.67272183 27.06331795 114.67272183 30.07446289 111.64233398 C31.8538042 106.83886747 31.34931613 101.53344539 31.36303711 96.46801758 C31.37494635 94.38438713 31.42416443 92.30371014 31.47460938 90.22070312 C31.48169922 88.90134766 31.48878906 87.58199219 31.49609375 86.22265625 C31.50954834 85.01746338 31.52300293 83.81227051 31.53686523 82.57055664 C30.76884321 78.39570781 29.17407539 76.96454338 25.9375 74.3125 C23.38578216 72.90576146 23.38578216 72.90576146 20.75 72 C19.89019531 71.67386719 19.03039062 71.34773438 18.14453125 71.01171875 C16.00559016 70.21182684 16.00559016 70.21182684 13.9375 70.3125 C13.66486328 69.33410156 13.66486328 69.33410156 13.38671875 68.3359375 C12.2418536 64.35532943 11.18917884 60.77091504 9.1875 57.125 C7.51823372 53.36915087 7.96477425 51.27288342 8.9375 47.3125 C9.453125 46.1575 9.96875 45.0025 10.5 43.8125 C12.12102297 39.86566147 12.37432787 37.54394791 11.9375 33.3125 C10.08864468 30.48998081 10.08864468 30.48998081 7.4140625 28.0703125 C6.475625 27.14992187 5.5371875 26.22953125 4.5703125 25.28125 C3.56787475 24.33315734 2.56526868 23.38524264 1.5625 22.4375 C0.56616681 21.46772706 -0.42864285 20.49638625 -1.421875 19.5234375 C-6.69053774 13.8129197 -6.69053774 13.8129197 -13.5625 10.9375 C-17.93457858 11.40593699 -20.77476113 13.15742741 -24.5 15.4140625 C-28.02014407 16.64825935 -29.6543939 15.70066932 -33.0625 14.3125 C-34.13628906 14.03792969 -35.21007812 13.76335937 -36.31640625 13.48046875 C-45.16206946 10.85914471 -45.16206946 10.85914471 -47.875 6.19921875 C-49.125 2.6875 -49.125 2.6875 -50.03515625 -0.7265625 C-51.23984654 -4.19863564 -51.89639166 -4.91607509 -55.0625 -6.6875 C-57.63432717 -7.00328689 -59.95953244 -7.15549782 -62.53125 -7.15625 C-63.6072345 -7.16767029 -63.6072345 -7.16767029 -64.70495605 -7.17932129 C-66.21781949 -7.19010101 -67.73075722 -7.19298402 -69.24365234 -7.18847656 C-71.55562367 -7.1875029 -73.86428789 -7.22916544 -76.17578125 -7.2734375 C-77.6484306 -7.27864404 -79.12109145 -7.2813327 -80.59375 -7.28125 C-81.28239136 -7.29764526 -81.97103271 -7.31404053 -82.68054199 -7.33093262 C-86.3788778 -7.2777804 -87.79669334 -6.94790834 -90.47875977 -4.3203125 Z " fill="#FDDF76" transform="translate(327.0625,118.6875)"/>
<path d="M0 0 C0.71636627 -0.00761353 1.43273254 -0.01522705 2.17080688 -0.02307129 C3.68545043 -0.03386854 5.20016841 -0.03672687 6.71484375 -0.03222656 C9.02471257 -0.03125603 11.33123758 -0.07283307 13.640625 -0.1171875 C15.11457643 -0.1223963 16.58853937 -0.12508266 18.0625 -0.125 C19.09242569 -0.1495929 19.09242569 -0.1495929 20.14315796 -0.17468262 C23.98914029 -0.11967623 25.56136716 0.3855009 28.58691406 2.83813477 C30.8155204 5.66056463 31.35757361 7.4247307 32.0390625 10.90625 C33.38122621 15.08500339 34.24906736 16.22643424 38.109375 18.48046875 C41.88418417 20.08510917 45.72626395 21.32748538 49.6640625 22.46875 C50.37820313 22.73300781 51.09234375 22.99726563 51.828125 23.26953125 C54.5951706 23.56978513 56.16094699 22.39811079 58.5390625 21.03125 C65.54617392 17.3945182 65.54617392 17.3945182 69.6640625 18.46875 C72.68258185 20.4348074 75.10442968 22.94807658 77.6640625 25.46875 C78.94546036 26.65619468 80.22812481 27.84227331 81.51171875 29.02734375 C82.89746553 30.33942414 84.28156353 31.65324793 85.6640625 32.96875 C86.34782959 33.59724854 87.03159668 34.22574707 87.73608398 34.87329102 C90.97500707 38.02608344 92.52772748 39.581162 93.23046875 44.15625 C92.70860854 47.20823249 92.08076808 49.28110868 90.6015625 51.96875 C88.54814412 56.33226406 88.29089308 58.70304438 89.6640625 63.46875 C90.91534809 66.64194483 92.22410537 69.77570232 93.60546875 72.89453125 C94.6640625 75.46875 94.6640625 75.46875 94.6640625 77.46875 C95.31632813 77.63890625 95.96859375 77.8090625 96.640625 77.984375 C102.01791515 79.47542301 106.2799973 80.98398022 110.6640625 84.46875 C112.80459599 88.74981698 111.84991701 94.46206955 111.84936523 99.21728516 C111.8515469 101.328657 111.86969353 103.43950221 111.88867188 105.55078125 C111.89160692 106.89583155 111.89359097 108.24088433 111.89453125 109.5859375 C111.89864014 110.80909668 111.90274902 112.03225586 111.90698242 113.29248047 C111.6749369 116.32656313 111.41867518 118.01171053 109.6640625 120.46875 C106.58203125 121.75 106.58203125 121.75 102.8515625 122.96875 C98.86947963 124.4421408 96.14635397 125.75346285 93.69921875 129.3828125 C92.49730783 132.38576319 91.54738758 135.35979213 90.6640625 138.46875 C90.29410156 139.19191406 89.92414063 139.91507813 89.54296875 140.66015625 C88.16137492 143.50316933 88.89690847 145.45914575 89.6640625 148.46875 C90.4375 150.1703125 90.4375 150.1703125 91.2265625 151.90625 C92.86636164 155.97010005 93.42342261 158.14039739 92.6640625 162.46875 C90.73266994 165.52509401 88.22265053 167.93086252 85.6640625 170.46875 C84.56672328 171.58887959 83.47044963 172.71005364 82.375 173.83203125 C72.03238918 184.34872134 72.03238918 184.34872134 67.1015625 184.78125 C62.7393195 184.7653873 59.62893816 183.30342655 55.83984375 181.24609375 C52.99131792 180.22839781 51.56405778 180.64382466 48.6640625 181.46875 C47.56191406 181.77167969 46.45976562 182.07460938 45.32421875 182.38671875 C37.66937921 184.96054906 37.66937921 184.96054906 32.55859375 190.91015625 C31.48272928 193.3914148 30.68993331 195.8294026 29.875 198.421875 C28.6640625 201.46875 28.6640625 201.46875 27.02783203 202.63818359 C22.06367703 204.38245702 16.55436736 203.8405398 11.33740234 203.83935547 C9.17075433 203.84373647 7.00613269 203.88010172 4.83984375 203.91796875 C3.45834027 203.92383615 2.07682716 203.92780606 0.6953125 203.9296875 C-0.55701172 203.93790527 -1.80933594 203.94612305 -3.09960938 203.95458984 C-6.90617838 203.38314504 -8.04731319 202.50148797 -10.3359375 199.46875 C-10.97498321 197.54890506 -11.5546038 195.60865071 -12.0859375 193.65625 C-14.09649038 188.46444256 -16.28997703 186.4077723 -21.15722656 184.08129883 C-28.51779742 180.72774047 -28.51779742 180.72774047 -36.3359375 181.46875 C-37.975625 182.2421875 -37.975625 182.2421875 -39.6484375 183.03125 C-43.72264341 184.61949976 -47.06926644 185.56849273 -51.3359375 184.46875 C-54.43989515 182.57851938 -56.80559309 180.05774477 -59.3359375 177.46875 C-60.4539008 176.37053149 -61.5738486 175.27433107 -62.6953125 174.1796875 C-73.19344186 163.86520725 -73.19344186 163.86520725 -73.6484375 159.40625 C-73.30751748 155.11065771 -72.14515372 152.50586394 -70.11328125 148.77734375 C-69.06163535 145.65411398 -69.59077682 143.66058801 -70.3359375 140.46875 C-70.57828125 139.4065625 -70.820625 138.344375 -71.0703125 137.25 C-72.67746477 132.05766188 -73.8060059 128.48486998 -78.453125 125.3984375 C-81.91187608 123.81497779 -81.91187608 123.81497779 -85.375 122.6171875 C-88.98779263 121.21591965 -90.62154131 119.89754237 -92.3359375 116.46875 C-92.61692766 112.2414487 -92.64956158 108.01051693 -92.68603516 103.77514648 C-92.70257557 102.36775148 -92.72984143 100.96043984 -92.76806641 99.5534668 C-92.82303924 97.51827705 -92.84473627 95.48505241 -92.859375 93.44921875 C-92.87919434 92.23129639 -92.89901367 91.01337402 -92.91943359 89.75854492 C-92.17316889 85.55104834 -90.59712206 84.13327673 -87.3359375 81.46875 C-84.73046875 80.10546875 -84.73046875 80.10546875 -82.1484375 79.15625 C-81.28863281 78.83011719 -80.42882812 78.50398438 -79.54296875 78.16796875 C-77.3359375 77.46875 -77.3359375 77.46875 -75.3359375 77.46875 C-75.15417969 76.81648438 -74.97242188 76.16421875 -74.78515625 75.4921875 C-73.6402911 71.51157943 -72.58761634 67.92716504 -70.5859375 64.28125 C-68.91667122 60.52540087 -69.36321175 58.42913342 -70.3359375 54.46875 C-71.109375 52.73625 -71.109375 52.73625 -71.8984375 50.96875 C-73.5178438 47.02584771 -73.7594851 44.69621831 -73.3359375 40.46875 C-71.51928711 37.76220703 -71.51928711 37.76220703 -68.98828125 35.2265625 C-68.07240234 34.30617187 -67.15652344 33.38578125 -66.21289062 32.4375 C-65.72957275 31.97085938 -65.24625488 31.50421875 -64.74829102 31.0234375 C-63.2787204 29.59887112 -61.84699942 28.14289733 -60.41601562 26.6796875 C-52.42857405 18.79800299 -52.42857405 18.79800299 -45.3359375 18.46875 C-42.37634028 19.56504585 -39.83315269 20.9978823 -37.08203125 22.53515625 C-33.42861643 23.77721335 -31.85698085 22.92017245 -28.3359375 21.46875 C-27.26214844 21.19417969 -26.18835938 20.91960937 -25.08203125 20.63671875 C-18.12276508 18.61959808 -18.12276508 18.61959808 -13.48828125 13.35546875 C-12.17530935 9.88911407 -12.17530935 9.88911407 -11.265625 6.4296875 C-9.31455824 0.2157858 -6.05273395 0.00176513 0 0 Z M1.6640625 16.46875 C0.9834375 18.386875 0.3028125 20.305 -0.3984375 22.28125 C-2.88703165 28.18474834 -2.88703165 28.18474834 -6.3984375 30.40625 C-7.70771195 30.77216076 -9.02082042 31.12442844 -10.3359375 31.46875 C-12.32462814 32.25765207 -14.30314033 33.07247185 -16.2734375 33.90625 C-17.30726563 34.33035156 -18.34109375 34.75445312 -19.40625 35.19140625 C-21.92325904 36.28882219 -24.25886836 37.50019848 -26.6484375 38.84375 C-32.10958916 41.61927358 -36.74759509 39.70214878 -42.2734375 37.90625 C-43.62969434 37.43303184 -44.98464103 36.95595213 -46.3359375 36.46875 C-47.87723785 37.82076785 -49.39348722 39.20138378 -50.8984375 40.59375 C-51.74535156 41.35945313 -52.59226562 42.12515625 -53.46484375 42.9140625 C-55.67606059 45.3707193 -55.67606059 45.3707193 -55.1796875 48.65625 C-54.4740012 51.38700842 -54.4740012 51.38700842 -53.2734375 53.34375 C-51.75152179 56.79342561 -51.64631425 59.83039283 -52.3359375 63.46875 C-53.6576677 66.50701292 -55.17397179 69.38100524 -56.75390625 72.29296875 C-58.79322967 76.38672169 -60.00680016 80.56407132 -61.18359375 84.97265625 C-63.71046135 90.44610845 -71.09514545 92.20034747 -76.3359375 94.46875 C-76.3359375 99.41875 -76.3359375 104.36875 -76.3359375 109.46875 C-73.4278125 110.70625 -73.4278125 110.70625 -70.4609375 111.96875 C-69.37039062 112.4328125 -68.27984375 112.896875 -67.15625 113.375 C-64.52931821 114.58927456 -64.52931821 114.58927456 -62.3359375 114.46875 C-62.17738281 115.05140625 -62.01882812 115.6340625 -61.85546875 116.234375 C-59.66532334 123.93013456 -56.94802928 131.52379004 -53.203125 138.61328125 C-51.78706801 141.64313292 -52.05661746 144.17277355 -52.3359375 147.46875 C-52.8515625 148.665 -53.3671875 149.86125 -53.8984375 151.09375 C-55.47932338 154.80539511 -55.56281155 155.74836806 -54.3359375 159.46875 C-52.51939622 161.76640064 -52.51939622 161.76640064 -50.2734375 163.78125 C-49.53996094 164.47863281 -48.80648437 165.17601562 -48.05078125 165.89453125 C-47.48488281 166.41402344 -46.91898438 166.93351563 -46.3359375 167.46875 C-42.24267543 166.19779849 -42.24267543 166.19779849 -38.3984375 164.34375 C-34.74442316 162.7935621 -31.06011657 162.85265892 -27.31762695 164.18994141 C-25.16650953 165.18714143 -23.06146108 166.24401936 -20.9609375 167.34375 C-15.7094311 170.06568463 -10.99204224 171.99174123 -5.12963867 172.97485352 C-3.3359375 173.46875 -3.3359375 173.46875 -2.0234375 175.53125 C-1.7965625 176.500625 -1.5696875 177.47 -1.3359375 178.46875 C-0.65072445 180.08292777 0.05945605 181.68664621 0.7890625 183.28125 C1.4078125 184.663125 2.0265625 186.045 2.6640625 187.46875 C7.2840625 187.46875 11.9040625 187.46875 16.6640625 187.46875 C17.80875 184.375 17.80875 184.375 18.9765625 181.21875 C21.87200115 174.98345653 21.87200115 174.98345653 24.984375 172.9609375 C26.78676061 172.36372913 28.6131613 171.83600017 30.453125 171.3671875 C35.04538028 170.08224989 39.12893815 167.92251955 43.36108398 165.75244141 C47.31780746 163.8135674 50.26972055 162.94892413 54.6640625 163.46875 C57.07088458 164.41122725 59.24049616 165.56767755 61.515625 166.7890625 C63.64879263 167.69558443 63.64879263 167.69558443 65.69921875 166.7890625 C69.18028833 164.44989447 72.18562927 161.87303472 74.6640625 158.46875 C74.73202252 155.0707492 73.9431451 153.10899831 72.6015625 150.03125 C70.96892078 145.56869596 71.19094288 141.71355987 72.87109375 137.29296875 C73.40089844 136.25785156 73.93070313 135.22273438 74.4765625 134.15625 C77.15728354 128.67468126 79.08672379 123.34688992 80.6640625 117.46875 C80.9940625 116.47875 81.3240625 115.48875 81.6640625 114.46875 C84.2265625 113.46875 84.2265625 113.46875 87.6640625 112.46875 C89.12653934 111.9383724 90.58489026 111.39649043 92.0390625 110.84375 C93.2353125 110.39 94.4315625 109.93625 95.6640625 109.46875 C95.6640625 104.51875 95.6640625 99.56875 95.6640625 94.46875 C93.7459375 93.746875 91.8278125 93.025 89.8515625 92.28125 C85.00878651 90.4586999 82.84493317 89.20379352 80.6640625 84.46875 C79.31251166 81.13170341 78.11603364 77.74462686 76.9140625 74.3515625 C75.79378053 71.25911749 74.70717116 68.54019299 73 65.7109375 C71.02321055 62.39316808 71.10602464 59.18429325 71.6640625 55.46875 C72.37890625 53.5390625 72.37890625 53.5390625 73.2265625 51.71875 C74.84858152 48.76266515 74.84858152 48.76266515 74.48828125 46.53515625 C73.41547407 43.8455117 71.92976111 42.22878222 69.9140625 40.15625 C69.23859375 39.43824219 68.563125 38.72023438 67.8671875 37.98046875 C65.75756685 36.19805636 65.75756685 36.19805636 63.1171875 36.640625 C60.45283674 37.49716474 60.45283674 37.49716474 57.1640625 39.03125 C53.70339863 40.45259409 52.28812332 40.86734424 48.6640625 40.46875 C45.46484375 39.04296875 45.46484375 39.04296875 41.9765625 37.15625 C37.74708062 34.90791132 33.71416898 33.04550329 29.0390625 31.90625 C25.54116065 30.95591987 24.78331502 30.60023355 22.2265625 27.78125 C20.46941993 24.05610776 19.00679962 20.36268764 17.6640625 16.46875 C12.3840625 16.46875 7.1040625 16.46875 1.6640625 16.46875 Z " fill="#262423" transform="translate(246.3359375,111.53125)"/>
<path d="M0 0 C43.23 0 86.46 0 131 0 C131 17 131 17 127 22 C124.0500187 23.95830345 121.73691552 24.2532562 118.23147583 24.26742554 C117.27543457 24.27595551 116.31939331 24.28448547 115.3343811 24.29327393 C114.29220428 24.29236755 113.25002747 24.29146118 112.17626953 24.29052734 C111.07341614 24.29724457 109.97056274 24.30396179 108.83428955 24.31088257 C105.18375154 24.3299009 101.53339699 24.3337887 97.8828125 24.3359375 C95.34699426 24.34236262 92.81117677 24.34909077 90.27536011 24.35610962 C84.95747866 24.36809191 79.63966568 24.37187505 74.32177734 24.37060547 C68.18231998 24.3694043 62.0432143 24.39050268 55.90384591 24.4220928 C49.98997345 24.45143423 44.07620805 24.45858057 38.16225815 24.45738602 C35.64964232 24.45974708 33.13702392 24.46859888 30.6244545 24.48405075 C27.11017907 24.50363941 23.59680945 24.49789984 20.08251953 24.48583984 C18.525327 24.50269836 18.525327 24.50269836 16.93667603 24.51989746 C11.16842446 24.4695796 7.39848772 24.13366702 3 20 C0 14 0 14 0 0 Z " fill="#EBEEF0" transform="translate(190,384)"/>
<path d="M0 0 C30.03 0 60.06 0 91 0 C91 17 91 17 87 22 C83.50300504 24.5104187 80.06078122 24.26558568 75.84814453 24.29052734 C75.13543396 24.29724457 74.42272339 24.30396179 73.68841553 24.31088257 C71.33647658 24.32985262 68.98482315 24.33378624 66.6328125 24.3359375 C64.99380375 24.34236621 63.35479614 24.34909463 61.71578979 24.35610962 C58.28103984 24.36807994 54.84639044 24.37179071 51.41162109 24.37060547 C47.01772907 24.37040231 42.62448406 24.39770175 38.23074532 24.43214989 C34.84545958 24.45442529 31.46032939 24.45844282 28.07497787 24.45738602 C26.45550177 24.45974112 24.83602131 24.46855958 23.21661758 24.48405075 C20.94750362 24.50372437 18.6797826 24.49786866 16.41064453 24.48583984 C14.47682419 24.4901149 14.47682419 24.4901149 12.50393677 24.49447632 C8.28091937 23.89852319 6.2237468 22.77444235 3 20 C0 14 0 14 0 0 Z " fill="#D0D0D5" transform="translate(210,424)"/>
<path d="M0 0 C22.40196999 18.58886871 37.28419509 43.88749278 41 73 C41.84727514 89.13445604 42.2979349 105.57563258 37 121 C36.45085937 122.71703125 36.45085937 122.71703125 35.890625 124.46875 C31.61713741 136.39230796 24.88963322 147.20005467 18.62548828 158.15673828 C3.7066958 184.2523011 -5.22099408 212.48960031 -6.7890625 242.65625 C-7 245 -7 245 -8 246 C-9.70825688 246.09622036 -11.42052114 246.12187628 -13.13148499 246.12025452 C-14.24352798 246.12162918 -15.35557098 246.12300385 -16.50131226 246.12442017 C-17.73201447 246.12082489 -18.96271667 246.11722961 -20.23071289 246.11352539 C-21.51833023 246.11367142 -22.80594757 246.11381744 -24.13258362 246.1139679 C-27.6737476 246.11425586 -31.21487799 246.10835936 -34.75603414 246.10139394 C-38.45294988 246.09516017 -42.14986631 246.09455658 -45.8467865 246.09336853 C-52.85203899 246.09025528 -59.85727595 246.08204199 -66.86252159 246.07201904 C-74.83578876 246.0608577 -82.80905665 246.0553474 -90.78232968 246.05032361 C-107.18822889 246.03985937 -123.59411247 246.02226005 -140 246 C-140 245.67 -140 245.34 -140 245 C-98.75 245 -57.5 245 -15 245 C-14.67 240.38 -14.34 235.76 -14 231 C-9.52204187 201.07909798 0.58293101 175.51719897 15.73120117 149.47070312 C32.12989973 121.1648564 38.22665089 89.68539309 30.26171875 57.44140625 C25.40881928 39.71158242 17.5219124 20.34657895 4.203125 7.23046875 C3 6 3 6 3 4 C2.34 4 1.68 4 1 4 C0.67 2.68 0.34 1.36 0 0 Z " fill="#F5C962" transform="translate(330,122)"/>
<path d="M0 0 C2.62744302 1.45130842 4.65871518 3.36302422 6.8125 5.4375 C8.03278685 6.54934962 9.25415246 7.66001637 10.4765625 8.76953125 C11.07243164 9.3207666 11.66830078 9.87200195 12.28222656 10.43994141 C14.66820272 12.60685267 17.16876503 14.61506393 19.6875 16.625 C21.4614535 18.07953628 23.23221149 19.53797723 25 21 C25.50789063 21.41523926 26.01578125 21.83047852 26.5390625 22.25830078 C28.10494165 23.54986182 29.64772406 24.86499001 31.1875 26.1875 C32.10917969 26.96480469 33.03085937 27.74210937 33.98046875 28.54296875 C36 31 36 31 36.4140625 34.125 C35.40259127 41.14804553 28.36743794 45.28479244 23.17578125 49.4296875 C19.02883833 52.75196172 15.03353593 56.25162156 11.03540039 59.75048828 C0.69494096 68.71272187 0.69494096 68.71272187 -4.6875 69.625 C-8 69 -8 69 -10.4375 66.875 C-12.29055839 63.46537255 -12.71588388 61.81804737 -12 58 C-10.39088449 56.01542421 -8.93270025 54.63234818 -7 53 C-6.28328125 52.34128906 -5.5665625 51.68257812 -4.828125 51.00390625 C0.55584443 46.05717001 6.12569245 41.39794163 11.84765625 36.84765625 C14.07134779 35.18011158 14.07134779 35.18011158 15 33 C14.47921875 32.78730469 13.9584375 32.57460937 13.421875 32.35546875 C9.98660291 30.43282453 7.20275938 27.89986776 4.25 25.3125 C3.63036377 24.77447754 3.01072754 24.23645508 2.37231445 23.68212891 C1.14141492 22.61255071 -0.08803436 21.54130087 -1.31591797 20.46826172 C-2.7571002 19.21177144 -4.20769916 17.96609602 -5.66015625 16.72265625 C-6.37042969 16.11292969 -7.08070313 15.50320312 -7.8125 14.875 C-8.41707031 14.35679687 -9.02164062 13.83859375 -9.64453125 13.3046875 C-11.73824359 11.28941395 -11.99573678 10.03922166 -12.3125 7.125 C-12 4 -12 4 -10.5 1.625 C-7.05901858 -0.61163792 -3.94487024 -0.73130636 0 0 Z " fill="#262424" transform="translate(289,179)"/>
<path d="M0 0 C3.10440538 2.0178635 3.82508907 3.21290083 4.625 6.8125 C3.10905622 14.54381326 -4.39480734 19.12966941 -10.23828125 23.77734375 C-13.41486918 26.33389047 -16.43670141 29.03032292 -19.44140625 31.78515625 C-21 33 -21 33 -23 33 C-20.2626466 36.63495068 -17.42933034 39.47836196 -13.875 42.3125 C-12.91464844 43.08464844 -11.95429688 43.85679687 -10.96484375 44.65234375 C-9.02269314 46.19019951 -7.07748599 47.72420487 -5.12890625 49.25390625 C-3.79666016 50.30384766 -3.79666016 50.30384766 -2.4375 51.375 C-1.63183594 52.00148437 -0.82617188 52.62796875 0.00390625 53.2734375 C2.70458659 55.60944672 3.89716857 57.32425061 4.4375 60.875 C4 64 4 64 1.875 66.875 C-1 69 -1 69 -3.75 69.75 C-8.88735834 68.56445577 -12.0676483 65.40498092 -16 62 C-17.10101519 61.05925491 -18.20261321 60.11919165 -19.3046875 59.1796875 C-21.10077933 57.64549987 -22.89410664 56.10847897 -24.6809082 54.56347656 C-29.29752958 50.57255112 -34.00772403 46.7255198 -38.79296875 42.9375 C-41.85437562 40.24996406 -43.7343142 38.19558612 -44.625 34.1875 C-43.17114583 26.77284374 -34.70366126 22.03845525 -29.1171875 17.54296875 C-24.92094788 14.14867109 -20.85047228 10.60674511 -16.77124023 7.07348633 C-7.08242062 -1.29167097 -7.08242062 -1.29167097 0 0 Z " fill="#262324" transform="translate(231,179)"/>
<path d="M0 0 C3.5625 0.5625 3.5625 0.5625 6.5625 2.5625 C9.19463072 6.51069608 8.41891902 9.13812443 7.5625 13.5625 C6.74765096 17.31338106 5.82512666 21.03130231 4.875 24.75 C4.60953369 25.80155273 4.34406738 26.85310547 4.07055664 27.93652344 C2.1082671 35.62837456 -0.02098816 43.26292986 -2.25219727 50.88061523 C-4.25925857 57.77918859 -6.01653331 64.72452028 -7.61352539 71.72949219 C-10.98681139 85.9287076 -10.98681139 85.9287076 -16.4375 89.5625 C-19.3125 90.0625 -19.3125 90.0625 -22.4375 89.5625 C-24.99943135 87.43664207 -26.11119102 86.45736618 -27.4375 83.5625 C-27.65170095 77.02937098 -25.48460537 71.03319607 -23.58837891 64.83862305 C-21.64856215 58.46425686 -20.01909515 52.03409793 -18.4375 45.5625 C-16.51755967 37.73197412 -14.47683141 29.97061413 -12.12329102 22.2590332 C-10.59026187 17.21445013 -9.36475458 12.14473102 -8.30859375 6.98046875 C-6.71738184 2.563607 -4.58947589 0.75100515 0 0 Z " fill="#262424" transform="translate(265.4375,168.4375)"/>
<path d="M0 0 C16.5 0 33 0 50 0 C50 16.5 50 16.5 45.5 21.75 C40.88071292 25.5994059 32.80181286 24.34437959 27.05908203 24.4050293 C25.5266258 24.42657896 23.99429166 24.4606471 22.46240234 24.50756836 C8.09763446 24.94300523 8.09763446 24.94300523 3.515625 21.16015625 C-2.22853717 15.04819283 0 8.91896674 0 0 Z " fill="#B0B0B4" transform="translate(231,464)"/>
<path d="M0 0 C4.44440098 2.18331797 8.61368877 4.75591543 12.8125 7.375 C13.95435475 8.06890009 15.09692845 8.76161855 16.24023438 9.453125 C26.00415973 15.43127584 26.00415973 15.43127584 28 18 C28.76190476 24.85714286 28.76190476 24.85714286 26.375 28.4375 C23.47513913 30.34530321 21.45148791 30.71737196 18 31 C15.640625 30.13671875 15.640625 30.13671875 13.25 28.6875 C9.66225631 26.56656865 6.0769631 24.49068979 2.390625 22.546875 C1.58463867 22.11673096 0.77865234 21.68658691 -0.05175781 21.2434082 C-1.66136764 20.38483192 -3.27522028 19.53415457 -4.89355469 18.69213867 C-9.13715182 16.39039474 -12.1222299 14.67928195 -14 10 C-14 5.80236511 -13.6225688 3.75462885 -10.9375 0.5 C-6.97341195 -1.52421517 -4.14693762 -1.22902451 0 0 Z " fill="#232121" transform="translate(75,116)"/>
<path d="M0 0 C2.5 2.125 2.5 2.125 4 5 C4 8.8322149 3.80923433 11.06017373 1.27685547 14.0012207 C-2.98522149 17.74276306 -7.98714541 20.34835973 -12.875 23.1875 C-13.95136719 23.82880859 -15.02773438 24.47011719 -16.13671875 25.13085938 C-17.18214844 25.74123047 -18.22757812 26.35160156 -19.3046875 26.98046875 C-20.25327637 27.53629639 -21.20186523 28.09212402 -22.17919922 28.66479492 C-26.16615576 30.55199116 -29.45256634 31.42202736 -33.75 30.25 C-36 29 -36 29 -38 26 C-38.72727273 20.36363636 -38.72727273 20.36363636 -38 18 C-33.03841471 13.03010384 -26.84565548 9.76177788 -20.8125 6.25 C-19.31686523 5.36634766 -19.31686523 5.36634766 -17.79101562 4.46484375 C-7.17589774 -1.7625012 -7.17589774 -1.7625012 0 0 Z " fill="#232121" transform="translate(447,116)"/>
<path d="M0 0 C2.375 1.625 2.375 1.625 4 4 C4.45219614 9.25173943 3.69531794 12.42002716 1.11328125 16.9765625 C0.1996582 18.60078125 0.1996582 18.60078125 -0.73242188 20.2578125 C-1.37759766 21.36898437 -2.02277344 22.48015625 -2.6875 23.625 C-3.31333984 24.74390625 -3.93917969 25.8628125 -4.58398438 27.015625 C-12.04811868 40.1149853 -12.04811868 40.1149853 -17.09765625 41.62890625 C-20.36493864 41.5184812 -22.68401619 41.18959029 -25.5 39.5 C-27.65696509 35.90505819 -27.80818197 33.01917202 -27 29 C-25.19635894 24.98006961 -23.0367315 21.22025733 -20.75610352 17.45288086 C-19.68507055 15.68348643 -18.63856407 13.90135115 -17.59570312 12.11523438 C-9.01150956 -2.39080866 -9.01150956 -2.39080866 0 0 Z " fill="#232121" transform="translate(368,37)"/>
<path d="M0 0 C5.0517132 5.35835827 8.69698936 12.1701891 12.375 18.5 C12.92027344 19.39847656 13.46554688 20.29695313 14.02734375 21.22265625 C17.26432014 26.79609681 18.82204556 30.53901033 18 37 C16.5 39.5 16.5 39.5 14 41 C8.58173077 41.77403846 8.58173077 41.77403846 6 41 C0.46442691 35.98556061 -2.70300651 30.07822421 -6.3125 23.625 C-6.95767578 22.51382813 -7.60285156 21.40265625 -8.26757812 20.2578125 C-8.87666016 19.175 -9.48574219 18.0921875 -10.11328125 16.9765625 C-10.66798096 15.99768066 -11.22268066 15.01879883 -11.79418945 14.01025391 C-13.22320756 10.44277197 -13.34181634 7.81140847 -13 4 C-9.37347952 -0.75199235 -5.66929802 -1.88976601 0 0 Z " fill="#232121" transform="translate(153,37)"/>
<path d="M0 0 C0.66 -0.0103125 1.32 -0.020625 2 -0.03125 C5.02570159 0.77245199 6.09388956 2.0144476 8 4.5 C8.3978143 7.41079972 8.56159 9.93548741 8.53125 12.84375 C8.5350769 13.64985718 8.53890381 14.45596436 8.54284668 15.28649902 C8.5455639 16.98772432 8.5382159 18.68899153 8.52148438 20.39013672 C8.5000699 22.99150896 8.52129019 25.59011972 8.546875 28.19140625 C8.54423169 29.84636025 8.53910663 31.50131254 8.53125 33.15625 C8.53934692 33.93238647 8.54744385 34.70852295 8.55578613 35.50817871 C8.49411273 39.06691138 8.30855645 41.09679826 6.11523438 43.96289062 C3.57170972 45.81123218 2.15413707 46.4249015 -1 46.5 C-6.63855422 44.22289157 -6.63855422 44.22289157 -8 41.5 C-8.13546191 38.7754406 -8.21267596 36.07766237 -8.23828125 33.3515625 C-8.246353 32.54262543 -8.25442474 31.73368835 -8.26274109 30.90023804 C-8.2765799 29.18709455 -8.28730297 27.47392352 -8.29516602 25.76074219 C-8.31238789 23.14204676 -8.35627479 20.52461106 -8.40039062 17.90625 C-8.41051689 16.24219679 -8.4190332 14.57813284 -8.42578125 12.9140625 C-8.44328934 12.13165192 -8.46079742 11.34924133 -8.47883606 10.54312134 C-8.46445976 6.93617847 -8.31860495 4.91763468 -6.09838867 2.00732422 C-3.82751614 0.3761006 -2.76370361 -0.04318287 0 0 Z " fill="#232222" transform="translate(256,7.5)"/>
<path d="M0 0 C2.31 0 4.62 0 7 0 C7.1083667 2.7302389 7.18746694 5.45614543 7.25 8.1875 C7.28351563 8.95642578 7.31703125 9.72535156 7.3515625 10.51757812 C7.41888589 14.43916576 7.30546928 16.49381307 5.234375 19.92578125 C1.68536918 23.22040028 -0.98225959 24.2511404 -5.80889893 24.24050903 C-6.77361115 24.24325836 -7.73832336 24.24600769 -8.73226929 24.24884033 C-10.30967392 24.2380545 -10.30967392 24.2380545 -11.91894531 24.22705078 C-13.03143646 24.22734283 -14.14392761 24.22763489 -15.29013062 24.22793579 C-18.96954125 24.22654177 -22.64874971 24.21097693 -26.328125 24.1953125 C-28.87831512 24.19158263 -31.42850667 24.18873554 -33.97869873 24.18673706 C-40.00640371 24.17987941 -46.03402183 24.16411435 -52.061692 24.14403808 C-58.92500548 24.12167527 -65.78832245 24.11068469 -72.6516633 24.10064721 C-86.76781574 24.07974798 -100.88390389 24.04457439 -115 24 C-115 23.67 -115 23.34 -115 23 C-78.04 22.67 -41.08 22.34 -3 22 C-1.25177734 18.50355468 -0.74144074 17.30028401 -0.5859375 13.671875 C-0.54726563 12.87265625 -0.50859375 12.0734375 -0.46875 11.25 C-0.4378125 10.425 -0.406875 9.6 -0.375 8.75 C-0.33632813 7.90953125 -0.29765625 7.0690625 -0.2578125 6.203125 C-0.16384164 4.13576618 -0.08084436 2.06791373 0 0 Z " fill="#C9CACD" transform="translate(314,384)"/>
<path d="M0 0 C1.98 0 3.96 0 6 0 C6.1083667 2.7302389 6.18746694 5.45614543 6.25 8.1875 C6.28351563 8.95642578 6.31703125 9.72535156 6.3515625 10.51757812 C6.41888589 14.43916576 6.30546928 16.49381307 4.234375 19.92578125 C-0.1265208 23.97409536 -3.31908558 24.24721399 -9.24707031 24.22705078 C-9.96941864 24.22734283 -10.69176697 24.22763489 -11.43600464 24.22793579 C-13.81683483 24.22654562 -16.19734967 24.21099934 -18.578125 24.1953125 C-20.23150461 24.19158125 -21.88488643 24.18873481 -23.53826904 24.18673706 C-27.88499074 24.17910938 -32.23157829 24.15946833 -36.57824707 24.1373291 C-41.01568792 24.11685204 -45.4531505 24.10773136 -49.890625 24.09765625 C-58.59381149 24.07622161 -67.29688904 24.04209612 -76 24 C-76 23.67 -76 23.34 -76 23 C-51.91 23 -27.82 23 -3 23 C-1.28686379 17.34011801 -1.28686379 17.34011801 -0.5859375 11.81640625 C-0.54726563 11.11708984 -0.50859375 10.41777344 -0.46875 9.69726562 C-0.4378125 8.99279297 -0.406875 8.28832031 -0.375 7.5625 C-0.33632813 6.83095703 -0.29765625 6.09941406 -0.2578125 5.34570312 C-0.16466016 3.56416468 -0.08129714 1.78211878 0 0 Z " fill="#B1B1B5" transform="translate(295,424)"/>
</svg>
