<?xml version="1.0" encoding="UTF-8"?>
<svg version="1.1" xmlns="http://www.w3.org/2000/svg" width="512" height="512">
<path d="M0 0 C21.233972 17.27541192 34.77920426 40.98332515 39.125 68.02734375 C39.53224711 72.97432447 39.6025909 77.87787267 39.5625 82.83984375 C39.55565186 84.15138428 39.54880371 85.4629248 39.54174805 86.81420898 C39.37758264 96.75574657 38.28864375 105.61966628 35.125 115.02734375 C34.774375 116.13078125 34.42375 117.23421875 34.0625 118.37109375 C24.95594881 144.42594855 5.8177812 165.73909097 -18.8359375 178.078125 C-31.17176858 183.89865917 -44.20802923 187.44823482 -57.875 188.02734375 C-57.82859375 189.06375 -57.7821875 190.10015625 -57.734375 191.16796875 C-57.69684725 192.53773154 -57.66044816 193.90752557 -57.625 195.27734375 C-57.59148437 195.95925781 -57.55796875 196.64117187 -57.5234375 197.34375 C-57.45658052 200.78688448 -57.61457814 202.67124516 -59.671875 205.484375 C-62.86301555 207.719305 -65.07039572 207.50291928 -68.875 207.02734375 C-72.0600357 205.26719244 -72.70796972 204.52843459 -73.875 201.02734375 C-73.94437062 198.79915934 -73.95957084 196.56899851 -73.9375 194.33984375 C-73.92396484 192.57060547 -73.92396484 192.57060547 -73.91015625 190.765625 C-73.89275391 189.41017578 -73.89275391 189.41017578 -73.875 188.02734375 C-74.7721875 187.94097656 -75.669375 187.85460937 -76.59375 187.765625 C-104.87270483 184.5813212 -129.21285342 171.13395154 -147.9140625 149.5703125 C-157.875 136.65284176 -157.875 136.65284176 -157.875 132.02734375 C-169.21858446 138.73663623 -180.44210005 145.60335234 -191.54003906 152.71191406 C-201.25069862 158.926598 -211.05565175 164.98630333 -220.875 171.02734375 C-219.65947764 174.19940209 -218.3075075 177.28737354 -216.88671875 180.37109375 C-201.84997027 213.46293975 -198.75138409 250.46587829 -211.11425781 285.01123047 C-214.09966909 292.9231452 -217.35455585 300.86312469 -221.875 308.02734375 C-210.23287604 315.63585139 -198.48343767 323.06136159 -186.67578125 330.41015625 C-183.05939832 332.66095779 -179.45149976 334.92385999 -175.85546875 337.20703125 C-175.11111572 337.67810303 -174.3667627 338.1491748 -173.59985352 338.63452148 C-172.23740986 339.49767176 -170.87708354 340.36417674 -169.51928711 341.23461914 C-166.43857524 343.34873885 -166.43857524 343.34873885 -162.875 344.02734375 C-162.4625 343.14433594 -162.05 342.26132812 -161.625 341.3515625 C-149.31480822 315.54569953 -128.67624266 295.96254098 -101.93359375 285.75439453 C-92.89228303 282.56119916 -83.46332757 280.48832104 -73.875 280.02734375 C-73.90980469 279.14691406 -73.94460938 278.26648438 -73.98046875 277.359375 C-74.00753906 276.19792969 -74.03460938 275.03648437 -74.0625 273.83984375 C-74.09730469 272.69128906 -74.13210938 271.54273438 -74.16796875 270.359375 C-73.84823533 266.72294025 -73.05658273 264.91675235 -70.875 262.02734375 C-67.78326248 260.48147499 -65.28070448 260.73374854 -61.875 261.02734375 C-59.6640625 262.5625 -59.6640625 262.5625 -57.875 265.02734375 C-57.5838479 267.76417346 -57.49177582 270.06674414 -57.625 272.77734375 C-57.64304687 273.47472656 -57.66109375 274.17210937 -57.6796875 274.890625 C-57.72661446 276.60345914 -57.79835395 278.31558199 -57.875 280.02734375 C-56.4209375 280.15689453 -56.4209375 280.15689453 -54.9375 280.2890625 C-33.45821702 282.43807342 -14.54603706 290.19443746 2.125 304.02734375 C2.97449219 304.713125 3.82398438 305.39890625 4.69921875 306.10546875 C23.69296234 322.20691543 35.62936954 345.47192541 39.125 370.02734375 C40.01049681 385.86246945 40.31386808 401.89448391 35.125 417.02734375 C34.90537598 417.67155273 34.68575195 418.31576172 34.45947266 418.97949219 C29.87034516 432.13304235 23.12788024 443.41551503 14.125 454.02734375 C13.34769531 455.02314453 13.34769531 455.02314453 12.5546875 456.0390625 C-2.86577977 475.14029457 -28.41046514 487.19155284 -52.54101562 489.83251953 C-80.72870036 492.1854246 -108.54667659 486.11185895 -130.7421875 467.84765625 C-131.44601562 467.24695313 -132.14984375 466.64625 -132.875 466.02734375 C-133.66132813 465.38539063 -134.44765625 464.7434375 -135.2578125 464.08203125 C-155.63866152 446.76789305 -167.67403525 422.03283975 -170.59765625 395.63671875 C-171.47572621 384.20944211 -170.51693802 373.31566767 -168.875 362.02734375 C-183.2367989 352.85008578 -197.65256261 343.76338015 -212.11621094 334.74755859 C-216.20455435 332.19831367 -220.28980967 329.64413722 -224.375 327.08984375 C-225.65623271 326.28903484 -226.93748059 325.4882502 -228.21875 324.6875 C-229.0953125 324.13964844 -229.971875 323.59179688 -230.875 323.02734375 C-233.64413185 325.77044992 -236.3701275 328.54160011 -239.046875 331.375 C-257.79012328 350.98291571 -279.78473683 363.76045335 -305.875 371.02734375 C-306.56432617 371.22086426 -307.25365234 371.41438477 -307.96386719 371.61376953 C-327.00159956 376.64468972 -351.95368763 376.32175792 -370.875 371.02734375 C-371.67486328 370.80691406 -372.47472656 370.58648437 -373.29882812 370.359375 C-408.621222 360.2976833 -438.95008292 337.2884264 -456.96191406 305.08398438 C-462.03407329 295.76739816 -466.07138801 286.28324945 -468.875 276.02734375 C-469.16914795 275.00205566 -469.16914795 275.00205566 -469.46923828 273.95605469 C-475.64461172 251.66815741 -475.2379654 225.20622563 -468.875 203.02734375 C-468.69308105 202.36186523 -468.51116211 201.69638672 -468.32373047 201.01074219 C-462.33566519 179.53076539 -450.34092913 160.8503506 -434.875 145.02734375 C-434.07449219 144.16496094 -433.27398437 143.30257812 -432.44921875 142.4140625 C-410.41579616 119.22667997 -377.63840847 105.77594119 -345.90234375 104.75 C-307.65295763 104.01964217 -272.59964288 115.40913122 -244.5 142.1875 C-239.6753549 146.9116166 -235.14786061 151.79637335 -230.875 157.02734375 C-211.71283497 145.29865815 -211.71283497 145.29865815 -192.69091797 133.34472656 C-188.64989177 130.76827477 -184.5873073 128.23868501 -180.484375 125.76171875 C-179.5987085 125.22063477 -178.71304199 124.67955078 -177.80053711 124.12207031 C-176.09487291 123.08110997 -174.38236736 122.05125449 -172.66235352 121.03417969 C-171.90365967 120.56786133 -171.14496582 120.10154297 -170.36328125 119.62109375 C-169.35068237 119.01297852 -169.35068237 119.01297852 -168.31762695 118.39257812 C-167.84156006 117.94205078 -167.36549316 117.49152344 -166.875 117.02734375 C-166.875 113.15080176 -167.44743032 110.10227598 -168.3125 106.33984375 C-174.50222928 77.98971579 -169.40700177 49.48998591 -153.96875 25.00390625 C-136.16911313 -0.45541042 -110.99898633 -16.13930816 -80.54296875 -21.56640625 C-51.53465315 -24.77925484 -23.13449293 -18.08538985 0 0 Z " fill="#010101" transform="translate(472.875,21.97265625)"/>
<path d="M0 0 C20.94627655 18.3038232 33.4182134 40.80513552 39.3515625 67.78125 C39.72087891 69.36486328 39.72087891 69.36486328 40.09765625 70.98046875 C46.16981103 101.00622721 36.7635224 133.15157983 20.1875 158.203125 C12.50580736 168.99018275 3.59984458 179.60149548 -7.6484375 186.78125 C-7.9784375 186.78125 -8.3084375 186.78125 -8.6484375 186.78125 C-9.86781669 169.98091443 -9.86781669 169.98091443 -7.25390625 165.265625 C-5.3359375 163.53125 -5.3359375 163.53125 -3.12890625 161.82421875 C7.25544034 153.27144196 13.26263418 139.90785565 18.3515625 127.78125 C18.98191406 126.35232422 18.98191406 126.35232422 19.625 124.89453125 C24.58865397 112.70932057 27.66200102 95.83826769 25.3515625 82.78125 C22.24223351 78.8948691 22.24223351 78.8948691 17.7265625 77.28125 C14.91066298 77.87407095 14.13212106 78.56502285 12.3515625 80.78125 C12.04414307 83.74902992 11.8925934 86.55956518 11.8515625 89.53125 C10.98557759 114.05742841 2.42636144 134.26424805 -13.6484375 152.78125 C-14.5353125 152.018125 -15.4221875 151.255 -16.3359375 150.46875 C-23.9939564 143.90915401 -31.67653833 137.37815794 -39.4609375 130.96875 C-40.34007812 130.24042969 -41.21921875 129.51210938 -42.125 128.76171875 C-44.58108441 126.76874055 -44.58108441 126.76874055 -47.109375 125.20703125 C-49.98688851 123.36441295 -52.11012534 121.95259878 -53.55859375 118.80078125 C-54.00087103 115.92852078 -53.79097276 114.47678688 -52.6484375 111.78125 C-49.85121344 108.74288593 -46.85420196 106.13452845 -43.703125 103.4765625 C-35.88260819 96.8037504 -31.08307191 86.85399739 -29.6484375 76.78125 C-29.54206981 74.64515348 -29.48064952 72.50651602 -29.45556641 70.36791992 C-29.43950348 69.11609421 -29.42344055 67.86426849 -29.40689087 66.57450867 C-29.39540234 65.22025237 -29.38479398 63.86598836 -29.375 62.51171875 C-29.36701448 61.47769645 -29.36701448 61.47769645 -29.35886765 60.42278481 C-29.33223956 56.77495059 -29.3128307 53.12714939 -29.29833984 49.47924805 C-29.28500476 46.47731024 -29.25714677 43.47605283 -29.21630859 40.47436523 C-29.16674825 36.82986643 -29.14219183 33.18598379 -29.13511276 29.54116249 C-29.12844261 28.16136232 -29.11333214 26.78157363 -29.08922195 25.401968 C-28.93719197 16.17802573 -29.6678502 9.22976955 -36.05606079 2.24137878 C-43.30888765 -4.35778409 -50.43624508 -4.64153443 -59.7578125 -4.58984375 C-62.14583474 -4.60723025 -64.53385554 -4.62481459 -66.921875 -4.64257812 C-70.65855618 -4.65262824 -74.39514183 -4.65625151 -78.13183594 -4.65454102 C-81.75744516 -4.6581331 -85.38233285 -4.68556057 -89.0078125 -4.71484375 C-90.11026306 -4.70666122 -91.21271362 -4.6984787 -92.34857178 -4.69004822 C-98.93238613 -4.75251628 -104.1344348 -5.73283364 -110.21051025 -8.30653381 C-113.90063084 -9.68729189 -117.83333699 -10.37767676 -121.6484375 -9.21875 C-125.14935613 -6.4618449 -126.51488391 -4.99931948 -127.27662659 -0.54722595 C-127.30314027 0.89413515 -127.30233802 2.33616321 -127.27954102 3.77758789 C-127.28669632 4.56858887 -127.29385162 5.35958984 -127.30122375 6.17456055 C-127.31810434 8.78493381 -127.29870077 11.39358661 -127.27734375 14.00390625 C-127.27817309 15.82889446 -127.28063493 17.6538826 -127.28465271 19.47886658 C-127.28751103 23.30637064 -127.27281663 27.13328972 -127.24536133 30.96069336 C-127.21144758 35.83718691 -127.21723987 40.7126231 -127.2360239 45.58916569 C-127.24666463 49.36163429 -127.23758955 53.13386275 -127.22263908 56.90630913 C-127.21749705 58.70221681 -127.2178901 60.49815002 -127.22418404 62.29405403 C-127.25852551 77.99455624 -125.06887502 92.14951295 -113.55859375 103.91796875 C-110.96454695 106.22217792 -108.48208785 108.3389643 -105.41015625 109.96875 C-103.6484375 111.78125 -103.6484375 111.78125 -102.97265625 115.56640625 C-103.16044428 119.06405826 -104.03115304 120.67466493 -106.54296875 123.08984375 C-107.82926929 124.1570005 -109.13666759 125.19909231 -110.4609375 126.21875 C-111.14438232 126.7758667 -111.82782715 127.3329834 -112.53198242 127.90698242 C-113.91287592 129.0291908 -115.30192091 130.14144846 -116.69921875 131.24316406 C-118.40033277 132.58547598 -120.07707457 133.94945346 -121.7421875 135.3359375 C-126.94668138 139.65806029 -132.24367262 143.86450368 -137.5546875 148.0546875 C-139.3678664 149.54988353 -141.02509813 151.08506848 -142.6484375 152.78125 C-154.27892282 141.08738328 -160.99711847 127.4346464 -165.6484375 111.78125 C-165.91527344 110.9253125 -166.18210937 110.069375 -166.45703125 109.1875 C-171.84738404 88.07218699 -166.21889523 63.08153382 -155.74023438 44.55712891 C-152.34661581 39.03718673 -148.23726546 33.37007796 -143.6484375 28.78125 C-143.22451593 24.12072596 -143.22451593 24.12072596 -144.7734375 19.84375 C-147.59738468 18.24351327 -149.45314511 18.33390906 -152.6484375 18.78125 C-168.20810953 29.48009051 -177.21082972 54.5027236 -180.9609375 72.21875 C-184.91746869 100.29490404 -179.07365108 128.89045989 -162.01831055 151.80786133 C-158.82303583 156.01989573 -155.82105777 159.75059374 -151.5234375 162.90625 C-148.99673687 165.77013947 -148.2761962 167.62213381 -148.22265625 171.42578125 C-148.20799316 172.28864746 -148.19333008 173.15151367 -148.17822266 174.04052734 C-148.22616515 177.96537174 -148.4018762 181.86366489 -148.6484375 185.78125 C-153.37918259 183.49111428 -156.80474114 180.33998267 -160.6484375 176.78125 C-161.43734375 176.05808594 -162.22625 175.33492187 -163.0390625 174.58984375 C-183.77352826 154.80081746 -196.92733187 125.80414586 -197.89453125 97.125 C-198.49250631 64.52597397 -189.39785468 33.84255632 -166.60327148 9.84887695 C-165.28821075 8.48988066 -163.9684595 7.13542782 -162.6484375 5.78125 C-162.01808594 5.07742187 -161.38773438 4.37359375 -160.73828125 3.6484375 C-145.78405322 -12.5875815 -123.72118213 -22.10630023 -102.6484375 -27.21875 C-101.16923828 -27.58613281 -101.16923828 -27.58613281 -99.66015625 -27.9609375 C-64.10027501 -35.30427931 -27.18339539 -22.77311 0 0 Z " fill="#95B9E1" transform="translate(212.6484375,171.21875)"/>
<path d="M0 0 C21.94699674 -0.67475455 42.21384291 6.49537172 59.3671875 20.15234375 C60.70330078 21.21582031 60.70330078 21.21582031 62.06640625 22.30078125 C78.18618328 35.97667171 89.76590275 57.05875751 92.3671875 78.15234375 C94.08344887 103.61517581 88.50780504 125.33222228 73.32421875 145.91796875 C71.20688554 148.33536315 68.93016171 150.22236663 66.3671875 152.15234375 C65.49956436 149.90673093 64.6479772 147.6570812 63.8046875 145.40234375 C63.4344043 144.45101562 63.4344043 144.45101562 63.05664062 143.48046875 C60.85118617 137.5164229 60.85118617 137.5164229 62.3671875 134.15234375 C63.22021951 132.66856821 64.12176443 131.2122333 65.0546875 129.77734375 C70.33402962 121.1233132 76.07310036 111.55841219 74.3671875 101.15234375 C72.96274474 98.82812515 72.96274474 98.82812515 70.3671875 98.15234375 C68.0274914 98.43761151 65.6925059 98.76705179 63.3671875 99.15234375 C63.13531738 99.74249268 62.90344727 100.3326416 62.66455078 100.94067383 C61.61072534 103.61684273 60.55152126 106.29085075 59.4921875 108.96484375 C59.12738281 109.89361328 58.76257813 110.82238281 58.38671875 111.77929688 C58.03222656 112.67197266 57.67773438 113.56464844 57.3125 114.484375 C56.82547607 115.71764526 56.82547607 115.71764526 56.32861328 116.97583008 C55.3671875 119.15234375 55.3671875 119.15234375 53.3671875 122.15234375 C49.59694101 120.89559492 48.14538554 118.99368265 45.3671875 116.15234375 C41.0062735 112.08354839 36.63705612 108.94860057 31.3671875 106.15234375 C31.3671875 105.49234375 31.3671875 104.83234375 31.3671875 104.15234375 C32.53348202 103.0837338 33.75224682 102.07204395 34.9921875 101.08984375 C39.45304842 97.29101873 42.42843368 93.19020744 45.3671875 88.15234375 C45.955 87.16234375 45.955 87.16234375 46.5546875 86.15234375 C51.76377517 76.65341918 51.64224582 66.75737008 51.3671875 56.15234375 C54.21297964 59.4946358 56.2413367 62.63103482 57.9921875 66.65234375 C58.39695312 67.57015625 58.80171875 68.48796875 59.21875 69.43359375 C59.97821288 71.23150589 60.70302455 73.04449102 61.390625 74.87109375 C62.2602577 77.2932636 62.2602577 77.2932636 64.3671875 79.15234375 C67.90804776 79.61419509 69.73940075 79.53867406 72.8046875 77.65234375 C74.61550425 74.75503694 74.72484988 73.01437044 74.09765625 69.6796875 C68.88656162 51.64985742 57.29907261 36.32016492 41.1484375 26.6796875 C28.56456371 19.7691613 16.74720421 16.62363811 2.3671875 16.77734375 C0.73910156 16.75994141 0.73910156 16.75994141 -0.921875 16.7421875 C-19.86800309 16.81001373 -35.72386189 24.72579445 -49.6328125 37.15234375 C-64.68836449 52.37053287 -70.90967277 71.12097059 -70.87939453 92.15136719 C-70.6744617 105.94643479 -67.24215184 120.90948031 -57.9453125 131.46484375 C-56.2080897 133.80495878 -55.53082865 135.26206968 -55.86572266 138.18554688 C-56.99943926 143.33382516 -58.7479659 148.23707014 -60.6328125 153.15234375 C-77.41760849 136.62890271 -86.43219084 116.37653281 -86.86767578 92.76831055 C-87.01171641 67.87483701 -79.55983333 45.85760297 -62.2800293 27.65478516 C-45.35864192 10.56585929 -23.92603111 1.00334969 0 0 Z " fill="#95B8E1" transform="translate(404.6328125,316.84765625)"/>
<path d="M0 0 C2.42636759 1.15175677 4.27319764 2.22287176 6.375 3.9375 C13.55669599 9.58026114 20.12979706 9.91236373 29 9 C34.52495038 7.40180284 38.23468064 4.23598428 42 0 C47.05190594 1.52709704 50.28905853 4.60519896 54.125 8.0625 C55.45573386 9.24365082 56.78777525 10.42333008 58.12109375 11.6015625 C58.77577637 12.18067383 59.43045898 12.75978516 60.10498047 13.35644531 C63.54160941 16.3370413 67.1311235 19.12128283 70.73046875 21.90234375 C74.47102185 25.35961916 76.79330405 28.39466144 77.45410156 33.52685547 C77.4331543 34.79416504 77.41220703 36.06147461 77.390625 37.3671875 C77.38496521 38.04677521 77.37930542 38.72636292 77.37347412 39.42654419 C77.35125351 41.57677549 77.30109198 43.72528074 77.25 45.875 C77.22991614 47.3411216 77.21166868 48.80726958 77.1953125 50.2734375 C77.15143811 53.84951008 77.08251443 57.42458631 77 61 C45.61348958 74.70974668 13.13647951 79.54828868 -19.73828125 66.88671875 C-24.22431221 65.05737666 -28.62469959 63.0792996 -33 61 C-33.07455949 56.97990543 -33.12879358 52.96008267 -33.16479492 48.93945312 C-33.17981428 47.57382184 -33.20023608 46.20823824 -33.22631836 44.84277344 C-33.26300137 42.87196095 -33.27818551 40.90078592 -33.29296875 38.9296875 C-33.3086792 37.74616699 -33.32438965 36.56264648 -33.34057617 35.34326172 C-32.36495559 25.76609456 -24.76339572 20.38462665 -17.8125 14.6875 C-16.884375 13.93984375 -15.95625 13.1921875 -15 12.421875 C-11.74312989 9.7926309 -8.52421511 7.12151121 -5.3125 4.4375 C-4.78309814 3.99559326 -4.25369629 3.55368652 -3.70825195 3.09838867 C-2.47178615 2.06604959 -1.23583326 1.03309622 0 0 Z " fill="#ACE093" transform="translate(112,307)"/>
<path d="M0 0 C4.20381497 0.59019077 7.25857498 3.03666787 10.625 5.4375 C11.21023437 5.84548828 11.79546875 6.25347656 12.3984375 6.67382812 C14.7617337 8.33518199 16.9536227 9.9536227 19 12 C21.27593061 12.05252394 21.27593061 12.05252394 23.8125 11.8125 C28.65029511 11.75021079 28.65029511 11.75021079 31.625 13.875 C32.40875 14.90625 33.1925 15.9375 34 17 C34.58007812 17.64710938 35.16015625 18.29421875 35.7578125 18.9609375 C40.25847685 24.13228908 43.76660789 29.70414834 47.0625 35.6875 C47.46887695 36.4000293 47.87525391 37.11255859 48.29394531 37.84667969 C50.8090863 42.58429871 51.50784625 45.6244943 50 51 C49.01 51.99 49.01 51.99 48 53 C47.69330593 56.37363477 47.9257393 58.77721789 49 62 C50.10611395 65.31834184 50.52738218 67.53434571 50 71 C49.17886719 71.53753906 48.35773438 72.07507813 47.51171875 72.62890625 C44.78637716 75.20166262 44.63359564 75.52101045 44.3984375 79.01953125 C44.37109784 80.61697266 44.36441018 82.21485975 44.375 83.8125 C43.76673713 108.30148943 35.01962019 128.54655997 19 147 C18.113125 146.236875 17.22625 145.47375 16.3125 144.6875 C8.6544811 138.12790401 0.97189917 131.59690794 -6.8125 125.1875 C-8.13121094 124.09501953 -8.13121094 124.09501953 -9.4765625 122.98046875 C-11.93264691 120.98749055 -11.93264691 120.98749055 -14.4609375 119.42578125 C-17.33845101 117.58316295 -19.46168784 116.17134878 -20.91015625 113.01953125 C-21.35243353 110.14727078 -21.14253526 108.69553688 -20 106 C-17.20277594 102.96163593 -14.20576446 100.35327845 -11.0546875 97.6953125 C-3.23795599 91.02573019 1.572625 81.07088695 3 71 C3.09713089 68.85316874 3.1478239 66.70391786 3.16113281 64.55493164 C3.17074036 63.29665054 3.1803479 62.03836945 3.19024658 60.74195862 C3.19509446 59.38135969 3.19937331 58.02075864 3.203125 56.66015625 C3.20595238 55.96831175 3.20877975 55.27646725 3.21169281 54.56365776 C3.22662974 50.90514628 3.23589492 47.2466737 3.24023438 43.58813477 C3.24572293 39.82451111 3.26977444 36.06124848 3.29820633 32.29773808 C3.31689144 29.3885343 3.32204133 26.4794167 3.32357025 23.570158 C3.32658211 22.18317114 3.3345607 20.79618526 3.34775543 19.40925789 C3.49949736 9.28748731 3.49949736 9.28748731 0 0 Z " fill="#5E97D4" transform="translate(180,177)"/>
<path d="M0 0 C0.68192413 0.00209473 1.36384827 0.00418945 2.06643677 0.00634766 C13.03348838 0.07571974 22.74304676 1.03716401 32.8125 5.5 C33.49828125 5.79471191 34.1840625 6.08942383 34.890625 6.39306641 C43.85105554 10.32347424 51.43922184 15.01260554 58.8125 21.5 C59.63621094 22.13292969 60.45992187 22.76585938 61.30859375 23.41796875 C76.56385551 36.1029212 87.33628581 57.97877748 89.8125 77.5 C91.23019429 103.91337662 85.75838049 126.77925025 68.8125 147.5 C68.29042969 148.24378906 67.76835937 148.98757812 67.23046875 149.75390625 C66.76253906 150.33011719 66.29460937 150.90632812 65.8125 151.5 C65.1525 151.5 64.4925 151.5 63.8125 151.5 C62.94487686 149.25438718 62.0932897 147.00473745 61.25 144.75 C60.8797168 143.79867187 60.8797168 143.79867187 60.50195312 142.828125 C58.29649867 136.86407915 58.29649867 136.86407915 59.8125 133.5 C60.66553201 132.01622446 61.56707693 130.55988955 62.5 129.125 C72.71625623 112.40972776 76.71169521 93.7695547 73.16015625 74.3671875 C69.94098367 61.13127619 63.93015209 49.60716472 54.8125 39.5 C54.20921875 38.80390625 53.6059375 38.1078125 52.984375 37.390625 C41.49121222 24.93165023 23.56111502 16.82828029 6.65234375 16.12890625 C-6.19109024 15.89992342 -17.41953197 15.85252204 -29.1875 21.5 C-30.29738281 22.00789063 -31.40726562 22.51578125 -32.55078125 23.0390625 C-53.23366513 33.2954397 -64.72229839 49.71322583 -72.05859375 71.03125 C-76.70706217 89.24042285 -73.20070867 110.28721612 -64.1875 126.5 C-62.96592701 128.00272867 -61.71991473 129.48634649 -60.4375 130.9375 C-58.71352673 133.2391397 -58.08728022 134.64503865 -58.42480469 137.52441406 C-59.55782875 142.67671496 -61.30128625 147.58116115 -63.1875 152.5 C-80.91641478 134.86062519 -89.25210271 114.43593508 -89.4375 89.5 C-89.2455315 63.68023643 -79.94619376 42.70668338 -61.8515625 24.09765625 C-44.71268466 7.87396121 -23.3381465 -0.1147331 0 0 Z " fill="#78A8DA" transform="translate(407.1875,15.5)"/>
<path d="M0 0 C10.51172566 8.71070512 16.75368031 19.5601551 19 33 C19.17273438 33.76570313 19.34546875 34.53140625 19.5234375 35.3203125 C19.8125 37.375 19.8125 37.375 19 41 C12.86392533 46.66510403 3.79805164 49.44593431 -4 52 C-4.97582031 52.32226562 -5.95164062 52.64453125 -6.95703125 52.9765625 C-31.37593112 59.54970033 -55.37411662 54.95114608 -77 43 C-80 41 -80 41 -80.46875 38.890625 C-80.62896706 25.35228346 -75.18211959 13.79236865 -66 4 C-46.86347536 -12.60495026 -21.0930952 -15.74059024 0 0 Z " fill="#FCE77C" transform="translate(438,441)"/>
<path d="M0 0 C0.80953125 0.25652344 1.6190625 0.51304687 2.453125 0.77734375 C14.82502006 5.19858846 24.35996795 14.49849164 30.375 26.0625 C32.54617056 30.72343681 34.16808724 34.92533217 35 40 C35.1753125 40.73992187 35.350625 41.47984375 35.53125 42.2421875 C35.92570536 44.90476119 35.93338597 46.46521654 35 49 C19.60933209 63.39203678 -6.20206945 63.69389145 -25.66113281 63.17041016 C-39.54900395 62.46159661 -52.51923724 56.65384184 -64 49 C-63.33904481 34.25386174 -59.78779163 23.31995054 -50 12 C-35.88436536 -0.2583143 -18.22350609 -5.8195503 0 0 Z " fill="#F17B7B" transform="translate(422,131)"/>
<path d="M0 0 C0.33 0 0.66 0 1 0 C1.00546844 1.48219025 1.00546844 1.48219025 1.01104736 2.99432373 C1.0481428 12.35024651 1.10607287 21.70584456 1.18390274 31.06151962 C1.22325081 35.87029039 1.25550102 40.6788815 1.27099609 45.48779297 C1.28624667 50.13701071 1.3208393 54.78573412 1.36830902 59.43473053 C1.38303676 61.19989959 1.39103602 62.96513927 1.39188385 64.73036957 C1.40691164 80.34386622 3.64856746 94.4388157 15.08984375 106.13671875 C17.68389055 108.44092792 20.16634965 110.5577143 23.23828125 112.1875 C25 114 25 114 25.67578125 117.78515625 C25.48799322 121.28280826 24.61728446 122.89341493 22.10546875 125.30859375 C20.81916821 126.3757505 19.51176991 127.41784231 18.1875 128.4375 C17.50405518 128.9946167 16.82061035 129.5517334 16.11645508 130.12573242 C14.73556158 131.2479408 13.34651659 132.36019846 11.94921875 133.46191406 C10.24810473 134.80422598 8.57136293 136.16820346 6.90625 137.5546875 C1.70175612 141.87681029 -3.59523512 146.08325368 -8.90625 150.2734375 C-10.7194289 151.76863353 -12.37666063 153.30381848 -14 155 C-25.63048532 143.30613328 -32.34868097 129.6533964 -37 114 C-37.26683594 113.1440625 -37.53367188 112.288125 -37.80859375 111.40625 C-43.19894654 90.29093699 -37.57045773 65.30028382 -27.09179688 46.77587891 C-23.69817831 41.25593673 -19.58882796 35.58882796 -15 31 C-14.66143172 25.67326964 -14.66143172 25.67326964 -17 21 C-15.94039062 20.36771484 -15.94039062 20.36771484 -14.859375 19.72265625 C-13.91578125 19.15417969 -12.9721875 18.58570313 -12 18 C-11.05640625 17.44183594 -10.1128125 16.88367188 -9.140625 16.30859375 C-3.40678251 12.80550437 -3.40678251 12.80550437 -0.06640625 7.25390625 C0.16188784 4.77779342 0.21805343 2.47465287 0 0 Z " fill="#3B84CB" transform="translate(84,169)"/>
<path d="M0 0 C-2.6902095 1.793473 -5.38373875 3.17423461 -8.29418945 4.56396484 C-16.82368656 8.65708266 -24.36763614 13.41760337 -32 19 C-32.99 19.66 -33.98 20.32 -35 21 C-25.43 21.33 -15.86 21.66 -6 22 C-6 22.33 -6 22.66 -6 23 C-10.64064472 23.09997246 -15.28064272 23.17197966 -19.92211914 23.21972656 C-21.49612365 23.23966084 -23.07005589 23.26681871 -24.64379883 23.30175781 C-33.26720199 23.48820977 -40.70992128 23.53762906 -48.73950195 19.92114258 C-52.4421011 18.41235042 -56.10542695 18.06936909 -60 19 C-62.75569447 21.18159145 -64.43588747 22.87177494 -66 26 C-65.94779297 27.02287109 -65.94779297 27.02287109 -65.89453125 28.06640625 C-65.795718 31.07315225 -65.98570463 33.14780143 -67 36 C-70.67449651 39.57212783 -74.70403985 42.20431205 -79 45 C-79.66 45.66 -80.32 46.32 -81 47 C-83.48868664 47.06166657 -85.91303705 46.86739508 -88.39453125 46.6796875 C-93.02075068 47.24842812 -95.33577603 50.1843282 -98.17578125 53.671875 C-115.83286212 79.108401 -124.36619788 107.81078437 -118.9375 138.875 C-114.54184288 157.32846621 -105.64329423 179.54665819 -89.875 191.125 C-87.34829937 193.98888947 -86.6277587 195.84088381 -86.57421875 199.64453125 C-86.55955566 200.50739746 -86.54489258 201.37026367 -86.52978516 202.25927734 C-86.57772765 206.18412174 -86.7534387 210.08241489 -87 214 C-91.73074509 211.70986428 -95.15630364 208.55873267 -99 205 C-99.78890625 204.27683594 -100.5778125 203.55367187 -101.390625 202.80859375 C-122.12509076 183.01956746 -135.27889437 154.02289586 -136.24609375 125.34375 C-136.84406881 92.74472397 -127.74941718 62.06130632 -104.95483398 38.06762695 C-103.63977325 36.70863066 -102.320022 35.35417782 -101 34 C-100.36964844 33.29617187 -99.73929688 32.59234375 -99.08984375 31.8671875 C-84.13561572 15.6311685 -62.07274463 6.11244977 -41 1 C-39.52080078 0.63261719 -39.52080078 0.63261719 -38.01171875 0.2578125 C-25.80456635 -2.26304217 -12.29285655 -1.78675241 0 0 Z " fill="#78A9DB" transform="translate(151,143)"/>
<path d="M0 0 C7.59133713 5.66963072 13.00701145 13.57152816 14.8125 22.9375 C16.04818249 32.2823488 13.44897598 41.60071472 8.0625 49.3125 C2.39108209 56.20126771 -5.31863248 61.48065433 -14.1875 62.9375 C-25.54586756 63.84557395 -33.56856204 62.22033878 -42.4375 54.9375 C-48.44796783 49.2393872 -53.73072726 40.78770472 -54.390625 32.3359375 C-54.57275594 20.58849214 -51.55767476 11.96342804 -43.59375 3.1796875 C-31.3734675 -8.29123805 -13.71733918 -8.81235123 0 0 Z " fill="#FDE3C0" transform="translate(427.1875,353.0625)"/>
<path d="M0 0 C1.12039673 0.01135986 1.12039673 0.01135986 2.26342773 0.02294922 C8.38541426 0.20478383 13.34987816 1.31899933 18.6875 4.4375 C19.74324219 5.03884766 19.74324219 5.03884766 20.8203125 5.65234375 C27.84720281 10.26123568 32.02759649 17.32382609 35.125 25 C36.88637235 35.76394215 35.28105583 45.83604435 28.8125 54.875 C22.98839077 61.89007421 15.70759878 66.6835919 6.6875 68.4375 C-3.1506841 69.25068324 -11.03623194 68.46151341 -19.01171875 62.37890625 C-27.14234382 55.34027754 -32.50600628 48.19149984 -33.63671875 37.3203125 C-33.98520764 27.10598307 -31.4067678 19.22758201 -25.01171875 11.25390625 C-18.04211995 3.80364546 -10.17331816 -0.14488958 0 0 Z " fill="#FDE3C0" transform="translate(406.3125,45.5625)"/>
<path d="M0 0 C22.77 0 45.54 0 69 0 C69 33.96698505 69 33.96698505 58.6484375 44.765625 C49.17542185 52.7576087 39.07921543 54.91921146 27 54 C17.13001943 51.64359263 9.80396964 45.9235524 4.32421875 37.5390625 C-2.74798167 23.9787962 0 18.43813265 0 0 Z " fill="#FDD1A3" transform="translate(100,221)"/>
<path d="M0 0 C11.98128089 -0.14490755 11.98128089 -0.14490755 17.015625 1.08203125 C16.2421875 1.45521484 16.2421875 1.45521484 15.453125 1.8359375 C12.25421841 3.47127597 9.13599639 5.24065844 6.015625 7.01953125 C5.39945312 7.36693359 4.78328125 7.71433594 4.1484375 8.07226562 C0.90931228 9.91773289 -1.98889925 11.83542444 -4.984375 14.08203125 C0.295625 14.41203125 5.575625 14.74203125 11.015625 15.08203125 C11.015625 15.41203125 11.015625 15.74203125 11.015625 16.08203125 C10.41202148 16.09661377 9.80841797 16.11119629 9.18652344 16.1262207 C-15.11955532 16.78182691 -34.98569512 21.9213286 -52.515625 39.640625 C-67.49724172 56.90539906 -72.30335721 76.67887423 -70.984375 99.08203125 C-69.58872918 110.55471297 -66.02904866 122.61564412 -58.296875 131.39453125 C-56.5596522 133.73464628 -55.88239115 135.19175718 -56.21728516 138.11523438 C-57.35100176 143.26351266 -59.0995284 148.16675764 -60.984375 153.08203125 C-77.76917099 136.55859021 -86.78375334 116.30622031 -87.21923828 92.69799805 C-87.36327891 67.80452451 -79.91139583 45.78729047 -62.6315918 27.58447266 C-45.79101156 10.577154 -23.94529142 0.49299129 0 0 Z " fill="#78A8D9" transform="translate(404.984375,316.91796875)"/>
<path d="M0 0 C9.02582398 3.9381779 16.57518704 8.5580782 24 15 C24.82628906 15.63421875 25.65257812 16.2684375 26.50390625 16.921875 C41.75189672 29.61660259 52.52345634 51.47618005 55 71 C56.41769429 97.41337662 50.94588049 120.27925025 34 141 C33.47792969 141.74378906 32.95585937 142.48757812 32.41796875 143.25390625 C31.95003906 143.83011719 31.48210937 144.40632812 31 145 C30.34 145 29.68 145 29 145 C28.13237686 142.75438718 27.2807897 140.50473745 26.4375 138.25 C26.0672168 137.29867187 26.0672168 137.29867187 25.68945312 136.328125 C23.48399867 130.36407915 23.48399867 130.36407915 25 127 C25.85303201 125.51622446 26.75457693 124.05988955 27.6875 122.625 C37.90375623 105.90972776 41.89919521 87.2695547 38.34765625 67.8671875 C35.12848367 54.63127619 29.11765209 43.10716472 20 33 C19.09507812 31.95585938 19.09507812 31.95585938 18.171875 30.890625 C3.35037461 14.82362037 -18.89252204 8.90549832 -40 8 C-35.70453259 3.13180361 -30.64934204 0.13239941 -25 -3 C-24.32066406 -3.39058594 -23.64132812 -3.78117187 -22.94140625 -4.18359375 C-16.0543945 -7.07974155 -6.42409542 -2.55108483 0 0 Z " fill="#95B8E1" transform="translate(442,22)"/>
<path d="M0 0 C0.33 0 0.66 0 1 0 C1.00410889 1.15822266 1.00821777 2.31644531 1.01245117 3.50976562 C1.03454029 7.88633248 1.08912739 12.26203764 1.15258789 16.63818359 C1.17551213 18.51733012 1.19010227 20.39660047 1.19555664 22.27587891 C1.25602971 39.70142768 3.19770617 57.01564504 16.0859375 70.12109375 C18.67712095 72.43774661 21.16101653 74.55488486 24.23828125 76.1875 C26 78 26 78 26.67578125 81.78515625 C26.48799322 85.28280826 25.61728446 86.89341493 23.10546875 89.30859375 C21.81943 90.37606597 20.51204702 91.4182023 19.1875 92.4375 C18.50913086 92.98809082 17.83076172 93.53868164 17.13183594 94.10595703 C15.75540776 95.22077957 14.37145417 96.32637754 12.97998047 97.42236328 C11.16783171 98.86627269 9.40760918 100.35001419 7.66015625 101.87109375 C2.20669273 106.5632684 2.20669273 106.5632684 0 108 C-3 107 -3 107 -3.93554688 105.24438477 C-4.32323242 104.1044104 -4.32323242 104.1044104 -4.71875 102.94140625 C-5.15562134 101.66463013 -5.15562134 101.66463013 -5.60131836 100.36206055 C-5.8978833 99.43820557 -6.19444824 98.51435059 -6.5 97.5625 C-6.80752197 96.60964111 -7.11504395 95.65678223 -7.43188477 94.67504883 C-17.16611006 63.5000959 -15.20063595 29.1834168 0 0 Z " fill="#5D97D5" transform="translate(83,205)"/>
<path d="M0 0 C4.455 0.99 4.455 0.99 9 2 C12.04563798 2.29466247 12.04563798 2.29466247 14.89941406 2.27124023 C15.96371643 2.28142685 17.0280188 2.29161346 18.12457275 2.30210876 C19.24362 2.30424881 20.36266724 2.30638885 21.515625 2.30859375 C23.92448182 2.33373121 26.33333593 2.35912953 28.7421875 2.38476562 C32.51008527 2.41359403 36.27793637 2.43763835 40.04589844 2.45629883 C43.70270382 2.47791284 47.35899648 2.51732081 51.015625 2.55859375 C52.14276917 2.55870956 53.26991333 2.55882538 54.43121338 2.5589447 C55.4829071 2.57228348 56.53460083 2.58562225 57.61816406 2.59936523 C58.53921936 2.60443588 59.46027466 2.60950653 60.40924072 2.61473083 C63.56577632 3.08413602 65.42876624 4.13226065 68 6 C70 9 70 9 70 28 C46.9 28 23.8 28 0 28 C0 18.76 0 9.52 0 0 Z " fill="#8C7E8C" transform="translate(99,178)"/>
<path d="M0 0 C2.42636759 1.15175677 4.27319764 2.22287176 6.375 3.9375 C13.55669599 9.58026114 20.12979706 9.91236373 29 9 C34.52495038 7.40180284 38.23468064 4.23598428 42 0 C45.65316671 1.24976756 46.78065836 1.67098753 49 5 C43.31673879 11.53010477 36.60983973 16.24826137 28 18 C26.51650039 18.01265065 25.03191679 17.97138648 23.55078125 17.88671875 C11.44522028 16.98836673 11.44522028 16.98836673 0.94921875 22.09765625 C0.30597656 22.72542969 -0.33726563 23.35320312 -1 24 C-2.28970703 25.04994141 -2.28970703 25.04994141 -3.60546875 26.12109375 C-9.80196336 31.28036848 -14.32145984 35.84701653 -15.40551758 44.07958984 C-15.61469552 47.55720449 -15.70789127 51.01645961 -15.75 54.5 C-15.77964844 55.70398438 -15.80929688 56.90796875 -15.83984375 58.1484375 C-15.91009581 61.09902393 -15.96301486 64.04884056 -16 67 C-20.38237918 66.43432198 -23.88987351 65.33286504 -27.875 63.4375 C-28.84179688 62.98246094 -29.80859375 62.52742188 -30.8046875 62.05859375 C-31.89136719 61.53458984 -31.89136719 61.53458984 -33 61 C-33.07455949 56.97990543 -33.12879358 52.96008267 -33.16479492 48.93945312 C-33.17981428 47.57382184 -33.20023608 46.20823824 -33.22631836 44.84277344 C-33.26300137 42.87196095 -33.27818551 40.90078592 -33.29296875 38.9296875 C-33.3086792 37.74616699 -33.32438965 36.56264648 -33.34057617 35.34326172 C-32.36495559 25.76609456 -24.76339572 20.38462665 -17.8125 14.6875 C-16.884375 13.93984375 -15.95625 13.1921875 -15 12.421875 C-11.74312989 9.7926309 -8.52421511 7.12151121 -5.3125 4.4375 C-4.78309814 3.99559326 -4.25369629 3.55368652 -3.70825195 3.09838867 C-2.47178615 2.06604959 -1.23583326 1.03309622 0 0 Z " fill="#94D679" transform="translate(112,307)"/>
<path d="M0 0 C0 0.33 0 0.66 0 1 C-1.43279297 1.14695313 -1.43279297 1.14695313 -2.89453125 1.296875 C-19.40355558 3.20619387 -35.17196153 8.62830594 -46 22 C-53.04942404 31.84929608 -56.50111419 41.21447473 -59 53 C-61.31371943 51.85657478 -63.62599677 50.71038936 -65.9375 49.5625 C-66.59685547 49.23701172 -67.25621094 48.91152344 -67.93554688 48.57617188 C-72.88671875 46.11328125 -72.88671875 46.11328125 -74 45 C-73.91337414 30.44685545 -69.53355855 19.02592038 -60 8 C-41.74589949 -7.85224518 -21.5981175 -9.28854323 0 0 Z " fill="#EB5F5F" transform="translate(432,135)"/>
<path d="M0 0 C-1.299375 1.423125 -1.299375 1.423125 -2.625 2.875 C-12.35772166 14.29134413 -14.98996611 25.38487444 -14.1953125 40.02636719 C-13.75320363 44.49387737 -12.20951604 48.14189769 -10 52 C-9.55269531 52.78890625 -9.10539062 53.5778125 -8.64453125 54.390625 C-5.77281078 59.04081043 -2.62947393 62.54846187 1.6796875 65.90625 C2.11539063 66.2671875 2.55109375 66.628125 3 67 C3 67.33 3 67.66 3 68 C-8.69108356 68.65968497 -16.40454125 67.39066721 -25.375 59.625 C-33.29125223 52.01846029 -37.06263515 44.54991796 -37.4375 33.5625 C-37.17903173 23.92050961 -33.57180743 16.02503553 -27 9 C-18.59422273 1.45020819 -11.16982289 -0.49521382 0 0 Z " fill="#FACFA2" transform="translate(410,46)"/>
<path d="M0 0 C0.81017578 0.67482422 0.81017578 0.67482422 1.63671875 1.36328125 C0.70472656 1.37746094 -0.22726562 1.39164062 -1.1875 1.40625 C-18.09027303 2.03860855 -32.5263312 8.4655847 -44.29296875 20.84375 C-51.96876383 30.18504778 -56.27690237 40.41311354 -57.36328125 52.36328125 C-63.16581983 51.42232905 -68.06809891 49.46396477 -72.36328125 45.36328125 C-75.16088734 37.34347714 -70.80498953 27.57716628 -67.36328125 20.36328125 C-60.19798915 8.3158262 -48.98076893 -1.16739249 -35.30078125 -4.88671875 C-23.77124972 -7.06959047 -9.97442886 -6.90791023 0 0 Z " fill="#FAE159" transform="translate(430.36328125,436.63671875)"/>
<path d="M0 0 C0.79921875 0.00902344 1.5984375 0.01804687 2.421875 0.02734375 C3.02515625 0.03894531 3.6284375 0.05054688 4.25 0.0625 C3.65832031 0.34351563 3.06664062 0.62453125 2.45703125 0.9140625 C-6.18428672 5.41060672 -10.98121477 13.3733109 -14.6328125 22.1953125 C-18.28697613 34.49594781 -15.16383486 46.24165562 -9.45703125 57.2109375 C-6.34177342 62.41491512 -3.28063267 66.37232745 2.6875 68 C3.9559375 68.0309375 3.9559375 68.0309375 5.25 68.0625 C5.25 68.3925 5.25 68.7225 5.25 69.0625 C-6.22419962 69.709947 -14.00717916 68.44706674 -23 61.0625 C-29.01046783 55.3643872 -34.29322726 46.91270472 -34.953125 38.4609375 C-35.13525594 26.71349214 -32.12017476 18.08842804 -24.15625 9.3046875 C-17.75588236 3.29679523 -8.75741532 -0.12878552 0 0 Z " fill="#F9CEA1" transform="translate(407.75,346.9375)"/>
<path d="M0 0 C2.84579214 3.34229205 4.8741492 6.47869107 6.625 10.5 C7.23214844 11.87671875 7.23214844 11.87671875 7.8515625 13.28125 C8.61102538 15.07916214 9.33583705 16.89214727 10.0234375 18.71875 C10.8930702 21.14091985 10.8930702 21.14091985 13 23 C14.65 23.33 16.3 23.66 18 24 C18 29.61 18 35.22 18 41 C16.02 41.66 14.04 42.32 12 43 C10.50862886 44.98971004 10.50862886 44.98971004 9.734375 47.46484375 C9.40179688 48.34720703 9.06921875 49.22957031 8.7265625 50.13867188 C8.24316406 51.5240918 8.24316406 51.5240918 7.75 52.9375 C7.08074228 54.76007779 6.40896978 56.58173462 5.734375 58.40234375 C5.44788086 59.21179443 5.16138672 60.02124512 4.86621094 60.85522461 C4 63 4 63 2 66 C-1.77024649 64.74325117 -3.22180196 62.8413389 -6 60 C-10.360914 55.93120464 -14.73013138 52.79625682 -20 50 C-20 49.34 -20 48.68 -20 48 C-18.83370548 46.93139005 -17.61494068 45.9197002 -16.375 44.9375 C-11.91413908 41.13867498 -8.93875382 37.03786369 -6 32 C-5.608125 31.34 -5.21625 30.68 -4.8125 30 C0.39658767 20.50107543 0.27505832 10.60502633 0 0 Z " fill="#5D96D3" transform="translate(456,373)"/>
<path d="M0 0 C2.7824794 3.28569375 4.8633245 6.38566848 6.625 10.3125 C7.23214844 11.63701172 7.23214844 11.63701172 7.8515625 12.98828125 C10.34040991 19.51515659 11.34473131 25.38596942 11.25 32.3125 C11.24105713 33.05669189 11.23211426 33.80088379 11.22290039 34.56762695 C10.9688648 46.71263424 7.75260847 55.46380535 2 66 C-1.01033512 64.66713024 -2.87638334 63.25580686 -5.0625 60.8125 C-8.84337227 56.86652414 -13.14970585 54.23900208 -17.83984375 51.48046875 C-18.55269531 50.99191406 -19.26554687 50.50335938 -20 50 C-20 49.34 -20 48.68 -20 48 C-18.85423404 46.95244255 -17.6560644 45.96190283 -16.4375 45 C-6.98369094 36.90151578 -1.58192399 26.31750523 0 14 C0.06578002 11.54245859 0.08569162 9.08331222 0.0625 6.625 C0.05347656 5.37976563 0.04445313 4.13453125 0.03515625 2.8515625 C0.02355469 1.91054687 0.01195312 0.96953125 0 0 Z " fill="#5C95D1" transform="translate(456,71)"/>
<path d="M0 0 C0.33 0 0.66 0 1 0 C1.08636719 1.23234375 1.17273438 2.4646875 1.26171875 3.734375 C2.53216883 19.50806608 5.99212013 32.23926367 18.375 42.875 C19.06335938 43.42929687 19.75171875 43.98359375 20.4609375 44.5546875 C20.96882813 45.03164063 21.47671875 45.50859375 22 46 C22 46.66 22 47.32 22 48 C20.41775101 49.08591613 18.78079588 50.0924146 17.125 51.0625 C11.11629897 54.75656523 6.0845253 59.13606148 1 64 C-2.26034757 61.33510513 -3.56686164 57.85605798 -5.125 54.0625 C-5.52138672 53.13147461 -5.52138672 53.13147461 -5.92578125 52.18164062 C-11.59077448 38.68055271 -10.51627522 22.63639503 -5.484375 9.09375 C-3.8932339 5.77747697 -2.16427566 2.96917157 0 0 Z " fill="#3B84CC" transform="translate(357,375)"/>
<path d="M0 0 C0.33 0 0.66 0 1 0 C1.08636719 1.23234375 1.17273438 2.4646875 1.26171875 3.734375 C2.60514507 20.4141267 6.84955248 32.17794296 19 44 C20.01536852 45.32166734 21.01820035 46.65320855 22 48 C21.29875 48.42410156 20.5975 48.84820312 19.875 49.28515625 C9.55836329 55.19178381 9.55836329 55.19178381 2 64 C-1 63 -1 63 -2.28125 61.13671875 C-9.38089687 46.86915918 -12.07915166 30.07526973 -7.40039062 14.5480957 C-5.5695871 9.13471756 -3.35712168 4.59176561 0 0 Z " fill="#3B84CC" transform="translate(357,73)"/>
<path d="M0 0 C5.28 0 10.56 0 16 0 C16.03738281 1.76085937 16.07476562 3.52171875 16.11328125 5.3359375 C16.17897972 7.68231159 16.24542569 10.02866484 16.3125 12.375 C16.33505859 13.53128906 16.35761719 14.68757812 16.38085938 15.87890625 C16.79647964 29.25432202 20.183161 40.44913743 29.875 50.0625 C30.47054687 50.61035156 31.06609375 51.15820312 31.6796875 51.72265625 C32.11539063 52.14417969 32.55109375 52.56570313 33 53 C33 53.33 33 53.66 33 54 C23.92213061 53.56074826 15.5488242 50.5488242 9 44 C1.13986012 33.84228077 -0.44815423 25.65843879 -0.1875 13 C-0.17396484 11.74832031 -0.16042969 10.49664062 -0.14648438 9.20703125 C-0.11134089 6.13783363 -0.05754111 3.06885942 0 0 Z " fill="#FDBB85" transform="translate(100,221)"/>
<path d="M0 0 C1.78515625 0.015625 1.78515625 0.015625 4.0625 0.25 C5.16271484 0.35054687 5.16271484 0.35054687 6.28515625 0.453125 C9 1 9 1 12.64233398 2.50219727 C16.97030771 4.14517453 20.84114201 4.47116829 25.4375 4.51171875 C26.20304199 4.52966995 26.96858398 4.54762115 27.75732422 4.56611633 C30.17149556 4.61973955 32.58547485 4.65395823 35 4.6875 C36.64976605 4.72071568 38.2995069 4.75520919 39.94921875 4.79101562 C43.96600605 4.8754372 47.98274117 4.94247438 52 5 C52 8.96 52 12.92 52 17 C34.51 17 17.02 17 -1 17 C-1 1 -1 1 0 0 Z " fill="#A69AA6" transform="translate(117,188)"/>
<path d="M0 0 C2.04744543 1.61640429 3.3714094 3.00747854 5 5 C5.58523437 5.64710938 6.17046875 6.29421875 6.7734375 6.9609375 C11.25157446 12.14708031 14.76766612 17.70606944 18.0625 23.6875 C18.46887695 24.4000293 18.87525391 25.11255859 19.29394531 25.84667969 C21.82213246 30.60887297 22.42434368 33.58885703 21 39 C19.875 40.9375 19.875 40.9375 18 42 C14.5625 42.5 14.5625 42.5 11 42 C7.82041181 38.62360944 5.81935542 34.93614271 3.75 30.8125 C0.91843501 25.423983 -2.24984891 20.83617647 -6.203125 16.21875 C-11.02528853 10.26442634 -11.02528853 10.26442634 -10.9375 5.875 C-10 3 -10 3 -8.3125 1.125 C-5.21507874 -0.38185358 -3.40864082 -0.55651279 0 0 Z " fill="#020304" transform="translate(209,189)"/>
<path d="M0 0 C2.66796875 1.42578125 2.66796875 1.42578125 5 4 C5.69757519 7.18180866 5.60762008 10.25672205 5.5 13.5 C5.50386719 14.78197266 5.50386719 14.78197266 5.5078125 16.08984375 C5.45084852 19.74123496 5.38217575 22.29826486 3.6171875 25.5390625 C1.41336595 27.52995443 -0.0434842 27.85921353 -3 28 C-6.21802935 27.23380253 -7.60292632 26.51734119 -9.625 23.8828125 C-11.35867504 20.24800518 -11.39909264 17.51544074 -11.375 13.5 C-11.38273437 12.2109375 -11.39046875 10.921875 -11.3984375 9.59375 C-10.98442084 5.85948212 -10.26265764 3.95801097 -8 1 C-5.14675563 -0.42662219 -3.16545451 -0.31033868 0 0 Z " fill="#000000" transform="translate(410,242)"/>
<path d="M0 0 C6.93 0 13.86 0 21 0 C20 8 20 8 17.4375 11 C12.96110202 13.60444974 11.10576877 13.72939554 6 13 C3.1899654 11.20636089 1.49059532 9.98119065 0 7 C0 4.69 0 2.38 0 0 Z " fill="#F8CDA0" transform="translate(124,289)"/>
<path d="M0 0 C2.6461764 2.54032934 5.05715513 5.21426889 7.4375 8 C10.07150871 11.05408769 12.82876464 13.50145093 16 16 C16 16.66 16 17.32 16 18 C13.69921875 19.76171875 13.69921875 19.76171875 10.6875 21.6875 C9.70136719 22.33074219 8.71523438 22.97398437 7.69921875 23.63671875 C6.80847656 24.08660156 5.91773438 24.53648437 5 25 C4.01 24.67 3.02 24.34 2 24 C0.56205146 15.92437827 -0.29599372 8.2056037 0 0 Z " fill="#5A93D0" transform="translate(363,405)"/>
<path d="M0 0 C4.83628658 3.93651233 9.51165799 7.76748698 13 13 C9.37 14.98 5.74 16.96 2 19 C0.27706865 14.53665816 -0.22240791 10.89798769 -0.125 6.125 C-0.10695313 4.97257812 -0.08890625 3.82015625 -0.0703125 2.6328125 C-0.04710937 1.76398438 -0.02390625 0.89515625 0 0 Z " fill="#5B93D0" transform="translate(366,108)"/>
</svg>
