<?xml version="1.0" encoding="UTF-8"?>
<svg version="1.1" xmlns="http://www.w3.org/2000/svg" width="512" height="512">
<path d="M0 0 C2.57018937 -0.00542635 5.14037562 -0.01255188 7.71055603 -0.02124023 C13.94061689 -0.03893859 20.17048397 -0.03522545 26.40055213 -0.02358967 C31.46502534 -0.01452522 36.52944456 -0.01334429 41.59392357 -0.01768494 C42.31699706 -0.01829787 43.04007055 -0.0189108 43.78505537 -0.01954231 C45.25428359 -0.0208213 46.72351179 -0.02211815 48.19273999 -0.02343267 C61.93713776 -0.03481194 75.68142843 -0.02176445 89.42580863 -0.00023121 C101.20807953 0.01765641 112.99019284 0.01451689 124.77246094 -0.00390625 C138.47823829 -0.02532722 152.18392219 -0.0337335 165.88971394 -0.0214572 C167.35175556 -0.02018307 168.8137972 -0.01892559 170.27583885 -0.01768494 C170.99507521 -0.01706783 171.71431156 -0.01645073 172.45534295 -0.01581493 C177.51375754 -0.01236712 182.57211259 -0.01817767 187.63051796 -0.02760315 C194.43916967 -0.04001212 201.24747801 -0.03114003 208.0561161 -0.00802612 C210.55383815 -0.00273882 213.05158527 -0.00425312 215.54929733 -0.01307678 C218.95961988 -0.02401369 222.36898922 -0.01028978 225.7792511 0.00964355 C226.76650926 0.00072067 227.75376743 -0.00820222 228.77094251 -0.0173955 C237.13868479 0.07742042 243.02222613 2.44519582 248.99017334 8.3994751 C249.76107803 9.15910049 250.53198273 9.91872589 251.32624817 10.70137024 C252.5500544 11.93732185 252.5500544 11.93732185 253.79858398 13.19824219 C255.12206093 14.51120522 255.12206093 14.51120522 256.47227478 15.85069275 C258.87425867 18.23815311 261.26697604 20.63418292 263.65531445 23.03524876 C266.16582962 25.55594803 268.68615513 28.06680883 271.20489502 30.57928467 C275.43165616 34.79878508 279.64995151 39.02661101 283.86352539 43.25927734 C288.72305678 48.1405744 293.59682974 53.00729488 298.47824931 57.86669564 C302.68202317 62.05227052 306.87789305 66.245649 311.06735158 70.44555259 C313.56383772 72.94824898 316.06288614 75.44822607 318.56911469 77.94116974 C321.36419446 80.72246372 324.14262089 83.52004103 326.91967773 86.31933594 C327.74364548 87.13520676 328.56761322 87.95107758 329.41654968 88.79167175 C330.17617508 89.56257645 330.93580048 90.33348114 331.71844482 91.12774658 C332.3754324 91.78624226 333.03241997 92.44473793 333.70931625 93.12318802 C339.9988344 101.08688796 340.17499642 108.25138148 340.10827637 118.21098328 C340.11288903 119.7100562 340.1192444 121.2091246 340.12718534 122.70818359 C340.14385278 126.81530749 340.13564409 130.92205866 340.12324047 135.02918375 C340.11418128 139.46357814 340.12816429 143.89790893 340.13916016 148.33229065 C340.15694288 157.01582846 340.15310585 165.69922793 340.14150959 174.38277116 C340.13247167 181.44340756 340.13125284 188.50400523 340.13560486 195.56464577 C340.13621779 196.57003994 340.13683072 197.57543412 340.13746223 198.61129478 C340.13874116 200.65387601 340.14003801 202.69645723 340.14135259 204.73903845 C340.15275842 223.89247424 340.13964615 243.04583346 340.11815113 262.1992567 C340.10029378 278.61912295 340.10337301 295.03887604 340.12182617 311.45874023 C340.14325633 330.536444 340.15164545 349.61408057 340.13937712 368.69179469 C340.13810296 370.72834034 340.13684548 372.76488599 340.13560486 374.80143166 C340.13467921 376.30435212 340.13467921 376.30435212 340.13373485 377.83763462 C340.13028737 384.88387073 340.1360976 391.93006408 340.14552307 398.97629356 C340.15676888 407.57223985 340.15364943 416.16804013 340.1324001 424.7639698 C340.12192224 429.14636922 340.11771161 433.52852565 340.1309967 437.910923 C340.14299542 441.92995513 340.13623621 445.94852113 340.1150865 449.96751151 C340.11065169 451.41432661 340.11281566 452.86118184 340.12258965 454.30797072 C340.21192484 468.64168671 337.11872134 479.92311708 328.6003418 491.51757812 C328.10018555 492.22527344 327.6000293 492.93296875 327.0847168 493.66210938 C319.02419151 503.98202432 307.05976675 509.56039213 294.6003418 512.51757812 C290.05200771 513.03262946 285.5636067 513.06373199 280.98953247 513.03224182 C279.68227168 513.03918735 278.37501089 513.04613288 277.02813613 513.05328888 C273.43782973 513.07175477 269.8479403 513.06566752 266.25761771 513.05513585 C262.37064359 513.04809763 258.48375122 513.0641766 254.59680176 513.07713318 C246.99680375 513.09870203 239.39695588 513.09866456 231.79693736 513.09050763 C225.61553467 513.08419063 219.43417554 513.08536021 213.25277328 513.09177971 C212.3707499 513.09268136 211.48872652 513.09358302 210.57997515 513.094512 C208.78776105 513.09636333 206.99554696 513.09822589 205.20333289 513.10009956 C188.42188014 513.11665343 171.64051163 513.1079796 154.85906397 513.09111398 C139.53134938 513.07642134 124.2038309 513.09104355 108.87614156 513.11988414 C93.10857319 513.14932972 77.34109516 513.16023526 61.57350051 513.15070194 C59.78751431 513.14967947 58.00152808 513.14868485 56.21554184 513.14771843 C54.89768719 513.14700384 54.89768719 513.14700384 53.55320922 513.14627482 C47.38598424 513.14411739 41.21884545 513.153879 35.05163956 513.16848946 C27.52595915 513.18607066 20.00052854 513.18581296 12.4748577 513.1631378 C8.64095167 513.15204747 4.80748477 513.14871331 0.97359848 513.16743851 C-21.21289386 513.26791429 -38.5894691 512.33325362 -55.55200195 496.50976562 C-68.02149274 483.03070994 -71.01089509 467.78974746 -70.90759277 450.02099609 C-70.91220962 448.27837034 -70.91856777 446.53574849 -70.92650175 444.79313469 C-70.94311062 440.03603259 -70.93498734 435.27925385 -70.92255688 430.52215099 C-70.91347397 425.37959351 -70.92749214 420.23709006 -70.93847656 415.09454346 C-70.95623184 405.03272659 -70.95243512 394.97102931 -70.940826 384.90920782 C-70.93178018 376.72931788 -70.93057265 368.54946138 -70.93492126 360.36956787 C-70.9355342 359.20388019 -70.93614713 358.03819252 -70.93677863 356.83718097 C-70.93805758 354.46886141 -70.93935443 352.10054186 -70.940669 349.73222232 C-70.95206604 327.54191382 -70.93897483 305.3516715 -70.91746753 283.16137385 C-70.89959737 264.13489319 -70.90270172 245.10851015 -70.92114258 226.08203125 C-70.94256475 203.96931159 -70.95096748 181.85664987 -70.93869352 159.74392128 C-70.93741937 157.38447699 -70.93616189 155.02503269 -70.93492126 152.66558838 C-70.93430416 151.50479794 -70.93368706 150.34400751 -70.93305126 149.14804161 C-70.92960241 140.98114685 -70.93541669 132.81428895 -70.94483948 124.6473999 C-70.95607579 114.69014397 -70.95298505 104.73301412 -70.9317165 94.77577257 C-70.92122812 89.69868312 -70.91704652 84.62180363 -70.93031311 79.54471588 C-70.94228866 74.89121098 -70.93558978 70.23810939 -70.9144029 65.58464074 C-70.90995864 63.90715501 -70.91215377 62.22963474 -70.92190605 60.55217147 C-71.00187504 45.64591728 -68.37182302 33.72969134 -59.3996582 21.51757812 C-58.89950195 20.80988281 -58.3993457 20.1021875 -57.8840332 19.37304688 C-43.20445684 0.57874077 -21.7880535 -0.07731203 0 0 Z " fill="#E8DED9" transform="translate(121.399658203125,-0.517578125)"/>
<path d="M0 0 C1.57825186 0.00113113 3.15650582 0.00048945 4.73475647 -0.00177002 C8.97784218 -0.00290776 13.22046649 0.02044721 17.4634459 0.04852581 C21.91299937 0.07369809 26.36256588 0.07589384 30.81217957 0.08062744 C39.21959819 0.09301106 47.62680631 0.12576953 56.03413266 0.1660254 C65.61342399 0.21088757 75.19272588 0.23276632 84.77209628 0.25280714 C104.46043072 0.29450683 124.14847698 0.36780079 143.83666992 0.45410156 C143.83666992 17.28410156 143.83666992 34.11410156 143.83666992 51.45410156 C137.58342773 51.46812012 137.58342773 51.46812012 131.20385742 51.48242188 C117.429518 51.51619013 103.65533619 51.57153764 89.88111877 51.6380043 C81.52987353 51.677776 73.17872226 51.71017795 64.82739258 51.72509766 C57.54647344 51.73812391 50.26576123 51.76511328 42.98495865 51.80871463 C39.13149268 51.83130775 35.27828173 51.84701355 31.42474365 51.84598541 C27.79337007 51.84523751 24.16255978 51.86323957 20.53133202 51.89526939 C18.57197858 51.90777338 16.61253045 51.90071448 14.65315247 51.89295959 C7.57977582 51.97631848 2.82671798 52.59024376 -3.16333008 56.45410156 C-6.5446665 60.00450481 -7.42332714 62.73822237 -7.60083008 67.51660156 C-7.40394178 71.62049201 -7.01385393 74.32772056 -4.16333008 77.45410156 C2.35977915 82.40982122 8.60089614 82.0310149 16.57470703 82 C17.96489616 82.00874394 19.35507524 82.01923258 20.74523926 82.03132629 C24.50304998 82.05910702 28.26053103 82.06259275 32.01842952 82.06160641 C35.95161559 82.06474237 39.88465468 82.09037475 43.81776428 82.11358643 C51.25842398 82.15409777 58.69899614 82.17447565 66.13974911 82.18756032 C76.19952819 82.20641964 86.25914918 82.25650149 96.31882191 82.30480385 C112.15809635 82.3800369 127.99717996 82.41365859 143.83666992 82.45410156 C143.83666992 126.01410156 143.83666992 169.57410156 143.83666992 214.45410156 C117.88213037 229.1240587 117.88213037 229.1240587 108.83666992 233.95410156 C100.98987254 238.17331461 93.20284404 242.4817087 85.46166992 246.89160156 C77.27440898 251.55482966 69.02007957 256.07299446 60.71166992 260.51660156 C52.42999824 264.95991348 44.16062393 269.42204993 35.96166992 274.01660156 C35.09396973 274.49299072 34.22626953 274.96937988 33.33227539 275.46020508 C28.21389211 278.35739344 24.53777301 281.05189539 21.83666992 286.45410156 C21.26241907 291.16107573 21.3811244 294.57554948 23.58666992 298.82910156 C26.17288327 301.84635047 28.19261267 304.06336699 32.13256836 304.99975586 C41.04965739 305.31652483 47.58076859 301.55189584 55.08666992 297.26660156 C56.41792924 296.52910275 57.75030404 295.79361418 59.08374023 295.06005859 C62.40617873 293.22477528 65.71282595 291.36317795 69.01342773 289.48895264 C71.66908274 287.98163372 74.33147368 286.48632132 76.99291992 284.98925781 C79.77945705 283.417648 82.56358884 281.84227089 85.34228516 280.25683594 C93.63537964 275.52919501 102.03332766 271.00762357 110.44726562 266.49951172 C117.08037281 262.94371238 123.69445524 259.35784066 130.27416992 255.70410156 C131.00740479 255.29780518 131.74063965 254.89150879 132.49609375 254.47290039 C135.34798712 252.88339379 138.11851162 251.2662071 140.83666992 249.45410156 C141.82666992 249.45410156 142.81666992 249.45410156 143.83666992 249.45410156 C143.83666992 268.92410156 143.83666992 288.39410156 143.83666992 308.45410156 C128.83666992 308.70410156 128.83666992 308.70410156 124.15307617 308.75195312 C115.94183131 308.95488451 108.97428663 309.18301335 102.89916992 315.45410156 C100.94882063 319.12534729 100.70887692 322.51075362 100.6894989 326.62677002 C100.6823436 327.67247665 100.67518829 328.71818329 100.66781616 329.795578 C100.66512726 330.93747086 100.66243835 332.07936371 100.65966797 333.25585938 C100.64981117 335.0662545 100.64981117 335.0662545 100.63975525 336.91322327 C100.6200287 340.9112269 100.60835746 344.90919046 100.59838867 348.90722656 C100.59433922 350.28643564 100.59022224 351.66564453 100.58603859 353.04485321 C100.56699777 359.52576715 100.55276452 366.00666977 100.54442662 372.48760629 C100.53465852 379.95580688 100.50834585 387.42371076 100.46792573 394.89180684 C100.43771576 400.6728589 100.42295314 406.45382612 100.41964561 412.23495555 C100.41730065 415.68378178 100.40841327 419.13229061 100.38318443 422.5810318 C100.35546446 426.43237186 100.35974978 430.28332474 100.36669922 434.13476562 C100.35388916 435.26856155 100.3410791 436.40235748 100.32788086 437.57051086 C100.36976054 443.94542383 100.89276373 449.23932281 104.83666992 454.45410156 C109.38755547 458.26533252 113.58661614 458.96815692 119.52026367 459.06347656 C120.80215576 459.0940918 122.08404785 459.12470703 123.40478516 459.15625 C125.01168213 459.17204102 126.6185791 459.18783203 128.27416992 459.20410156 C133.40979492 459.28660156 138.54541992 459.36910156 143.83666992 459.45410156 C143.83666992 476.94410156 143.83666992 494.43410156 143.83666992 512.45410156 C123.23431412 512.56723438 102.6322122 512.65922814 82.02962399 512.71316242 C72.46218128 512.73887743 62.89494614 512.7738988 53.32763672 512.83129883 C44.98284636 512.8813401 36.63820642 512.91344122 28.29327017 512.92454404 C23.87997999 512.93102794 19.46711992 512.94612473 15.05396843 512.98275185 C10.88832637 513.01704011 6.72328589 513.02708943 2.5575161 513.01963997 C1.03991663 513.02100003 -0.47770588 513.0307354 -1.99518204 513.05012894 C-19.31277882 513.26033463 -33.5096088 508.39241869 -46.31567383 496.44628906 C-58.78516462 482.96723337 -61.77456696 467.7262709 -61.67126465 449.95751953 C-61.67588149 448.21489378 -61.68223964 446.47227193 -61.69017363 444.72965813 C-61.7067825 439.97255602 -61.69865921 435.21577729 -61.68622875 430.45867443 C-61.67714584 425.31611695 -61.69116402 420.1736135 -61.70214844 415.03106689 C-61.71990372 404.96925003 -61.716107 394.90755274 -61.70449787 384.84573126 C-61.69545205 376.66584132 -61.69424453 368.48598482 -61.69859314 360.30609131 C-61.69920607 359.14040363 -61.699819 357.97471596 -61.70045051 356.77370441 C-61.70172945 354.40538485 -61.70302631 352.0370653 -61.70434088 349.66874576 C-61.71573791 327.47843726 -61.7026467 305.28819494 -61.68113941 283.09789729 C-61.66326924 264.07141663 -61.6663736 245.04503359 -61.68481445 226.01855469 C-61.70623663 203.90583502 -61.71463936 181.79317331 -61.7023654 159.68044472 C-61.70109125 157.32100043 -61.69983376 154.96155613 -61.69859314 152.60211182 C-61.69797604 151.44132138 -61.69735894 150.28053095 -61.69672313 149.08456504 C-61.69327428 140.91767029 -61.69908856 132.75081239 -61.70851135 124.58392334 C-61.71974766 114.62666741 -61.71665693 104.66953756 -61.69538838 94.71229601 C-61.6849 89.63520655 -61.6807184 84.55832706 -61.69398499 79.48123932 C-61.70596054 74.82773441 -61.69926166 70.17463283 -61.67807478 65.52116418 C-61.67363051 63.84367844 -61.67582565 62.16615818 -61.68557793 60.48869491 C-61.76554692 45.58244071 -59.13549489 33.66621478 -50.16333008 21.45410156 C-49.66317383 20.74640625 -49.16301758 20.03871094 -48.64770508 19.30957031 C-36.65498188 3.95525046 -18.49958422 -0.18817967 0 0 Z " fill="#F2EDE8" transform="translate(112.163330078125,-0.4541015625)"/>
<path d="M0 0 C1.95277863 -0.01925285 1.95277863 -0.01925285 3.94500732 -0.03889465 C5.37381612 -0.04706304 6.80262922 -0.05450658 8.23144531 -0.0612793 C9.30968441 -0.06739259 9.30968441 -0.06739259 10.40970612 -0.07362938 C14.21616834 -0.09449406 18.02259451 -0.10879264 21.82910156 -0.11816406 C25.75446168 -0.12921485 29.67925277 -0.16359738 33.60441208 -0.20333576 C36.62767565 -0.22952905 39.65080439 -0.23785837 42.67417145 -0.24144554 C44.12061648 -0.24630647 45.56705569 -0.25790652 47.01338959 -0.27648354 C49.04264084 -0.30092235 51.07216912 -0.29748553 53.1015625 -0.29296875 C54.83125275 -0.30176811 54.83125275 -0.30176811 56.59588623 -0.31074524 C61.69221351 0.46273444 64.77452374 3.00208422 68.12207031 6.80200195 C70.92927064 10.75287649 70.96230303 13.63301046 70.97019958 18.34902954 C70.9752874 19.0964675 70.98037522 19.84390546 70.98561722 20.61399305 C71.00137987 23.13190167 71.00987685 25.64978151 71.01831055 28.16772461 C71.02784607 29.96782617 71.0377371 31.76792588 71.04795837 33.56802368 C71.07938299 39.49234838 71.09961686 45.41668728 71.11816406 51.34106445 C71.12146138 52.34864162 71.12475871 53.35621879 71.12815595 54.39432859 C71.15894222 63.89574957 71.18565272 73.39717367 71.20257473 82.89863014 C71.22447811 95.05516569 71.266435 107.21125934 71.3360123 119.3676182 C71.38326127 127.91293332 71.40750965 136.45812926 71.41477162 145.00357091 C71.41972721 150.10800796 71.43479906 155.21194731 71.47451591 160.31624222 C71.51141054 165.12133741 71.51978267 169.92565129 71.50650978 174.73086166 C71.50656369 176.49167253 71.51684231 178.25251826 71.53826141 180.01319885 C71.72631143 196.34851333 71.72631143 196.34851333 66.49438858 201.82285976 C61.92536426 205.49513037 58.20102325 206.552254 52.39624023 206.61279297 C51.14441452 206.63193253 49.89258881 206.65107208 48.60282898 206.67079163 C47.24856925 206.67537906 45.8943048 206.67872019 44.54003906 206.6809082 C43.13527631 206.69056271 41.7305165 206.70065617 40.32575989 206.71116638 C37.38629167 206.72908397 34.44708729 206.73469208 31.50756836 206.73291016 C27.76153027 206.73260576 24.01720422 206.77353065 20.27157116 206.82522678 C17.37079781 206.85877281 14.47043017 206.86466222 11.5694828 206.86308098 C10.18969137 206.86659468 8.80988641 206.8797148 7.43028831 206.90307808 C-0.31408071 207.0219423 -6.05326419 206.65232645 -12.44438171 202.0511322 C-16.7500362 197.42963415 -17.63132306 192.66196006 -17.57810974 186.54846191 C-17.58618805 185.42618706 -17.58618805 185.42618706 -17.59442955 184.28123999 C-17.60868912 181.78473607 -17.60161057 179.28876388 -17.59448242 176.79223633 C-17.60018699 174.99814936 -17.60715159 173.20406602 -17.61528015 171.4099884 C-17.63321566 166.54434115 -17.6320426 161.67887419 -17.62633777 156.81320381 C-17.62324693 152.7499434 -17.6293371 148.68671767 -17.63537651 144.6234622 C-17.649421 135.03825208 -17.64786066 125.45313108 -17.63647461 115.86791992 C-17.62498916 105.98055578 -17.63907643 96.09346274 -17.66587108 86.20613432 C-17.68802212 77.71425068 -17.69466693 69.22245219 -17.68879467 60.73054171 C-17.68542299 55.65990995 -17.68785444 50.58945205 -17.7050457 45.5188446 C-17.72050356 40.75154104 -17.71657217 35.98463953 -17.69774055 31.21735191 C-17.69405167 29.46863062 -17.69717186 27.71987961 -17.70762634 25.97118568 C-17.72081776 23.58217378 -17.7093065 21.19449662 -17.69163513 18.80554199 C-17.70124014 18.11506822 -17.71084514 17.42459445 -17.72074121 16.71319723 C-17.6456268 11.77122642 -16.24737448 9.0008003 -13.19042969 5.17700195 C-8.53281948 1.07386915 -6.16434548 0.05277046 0 0 Z " fill="#CF0050" transform="translate(337.1904296875,252.822998046875)"/>
<path d="M0 0 C1.21523849 -0.01283524 2.43047699 -0.02567047 3.68254089 -0.03889465 C4.99813492 -0.04628159 6.31372894 -0.05366852 7.66918945 -0.0612793 C8.3404719 -0.06535482 9.01175434 -0.06943035 9.70337868 -0.07362938 C13.25928055 -0.09447597 16.81514403 -0.10878146 20.37109375 -0.11816406 C24.02832799 -0.12920148 27.68494926 -0.16357341 31.34196758 -0.20333576 C34.16715048 -0.22959689 36.99218971 -0.23786442 39.8174839 -0.24144554 C41.815967 -0.24863284 43.81435152 -0.27503409 45.81266785 -0.30183411 C53.05768179 -0.28461576 57.98004401 0.17070223 64.0949707 4.17700195 C67.89702026 8.27151686 69.21786281 10.72448955 69.2354126 16.23651123 C69.24112274 17.30760132 69.24683289 18.37869141 69.25271606 19.48223877 C69.25439285 21.25265533 69.25439285 21.25265533 69.25610352 23.05883789 C69.26355087 24.91750488 69.26355087 24.91750488 69.27114868 26.8137207 C69.2832718 30.21887097 69.29071957 33.62395971 69.29515934 37.02912426 C69.29808953 39.15689294 69.3021943 41.28465622 69.30666351 43.41242218 C69.3203424 50.07060908 69.33000639 56.72878365 69.3338654 63.38698363 C69.3383433 71.07080995 69.35587694 78.75445812 69.384866 86.43823028 C69.40649656 92.37802168 69.41657046 98.31776303 69.41790652 104.25759339 C69.41895384 107.80468989 69.42484541 111.35161902 69.44272614 114.89867401 C69.46229778 118.85837013 69.45791233 122.81784458 69.45141602 126.77758789 C69.4606308 127.94976868 69.46984558 129.12194946 69.4793396 130.32965088 C69.45017676 135.99747231 69.41881518 140.34162726 66.0949707 145.17700195 C61.12429169 149.88606628 56.64927602 151.41686572 49.87109375 151.48339844 C48.01843147 151.50737953 48.01843147 151.50737953 46.12834167 151.53184509 C44.78779516 151.53822301 43.44724365 151.54361537 42.10668945 151.5480957 C40.72052417 151.55707212 39.33435982 151.56619414 37.94819641 151.57545471 C35.04568129 151.59191492 32.14328109 151.59963922 29.24072266 151.60253906 C25.53851441 151.60791634 21.83740065 151.64557977 18.13550091 151.69128323 C15.27254893 151.72116678 12.40985679 151.72826505 9.54676247 151.72926521 C8.18290005 151.73344614 6.81903531 151.74579439 5.45532799 151.76678276 C-1.47871162 151.86500048 -7.32937625 151.87427402 -13.27018738 148.03236389 C-19.17214217 141.33430816 -19.48066472 134.53884241 -19.40673828 125.90527344 C-19.41214127 124.69615295 -19.41754425 123.48703247 -19.42311096 122.24127197 C-19.43343133 118.94569191 -19.42594784 115.65077145 -19.40939975 112.35523486 C-19.39547859 108.89519074 -19.40201721 105.43517499 -19.40553284 101.97511292 C-19.40822905 96.16740506 -19.3948091 90.35990459 -19.37158203 84.55224609 C-19.34496332 77.85041136 -19.3432313 71.14892288 -19.3549704 64.44705337 C-19.36577129 57.98211924 -19.35954385 51.5173096 -19.34541512 45.05238533 C-19.33967655 42.30892026 -19.33972109 39.56554695 -19.34448051 36.82208061 C-19.34739392 32.98762071 -19.33087851 29.15372457 -19.30908203 25.31933594 C-19.31358368 24.18822891 -19.31808533 23.05712189 -19.32272339 21.89173889 C-19.26042914 15.28892829 -19.07981423 9.39507941 -14.1862793 4.43481445 C-13.5984668 4.06098633 -13.0106543 3.6871582 -12.4050293 3.30200195 C-11.52331055 2.71805664 -11.52331055 2.71805664 -10.6237793 2.12231445 C-7.03673847 0.149442 -4.01367386 0.03690479 0 0 Z " fill="#FEDA01" transform="translate(230.905029296875,307.822998046875)"/>
<path d="M0 0 C0.83726624 0.21247375 1.67453247 0.42494751 2.53717041 0.64385986 C4.28980611 1.09196881 6.04092875 1.5460352 7.79052734 2.00585938 C10.45638684 2.70397919 13.12781392 3.37655065 15.80078125 4.046875 C17.51341065 4.48807293 19.22566465 4.93073117 20.9375 5.375 C21.72823914 5.57309265 22.51897827 5.7711853 23.3336792 5.97528076 C29.55344199 7.63735625 34.12948711 9.84113731 38.078125 15.140625 C41.56788254 21.93813381 39.65063575 29.49358588 37.47265625 36.42578125 C37.24035812 37.19313095 37.00806 37.96048065 36.76872253 38.75108337 C36.27798708 40.36043815 35.78102322 41.96790595 35.27807617 43.57348633 C34.51800795 46.0079924 33.78416066 48.44933444 33.05273438 50.89257812 C27.46603927 69.21646008 27.46603927 69.21646008 20.953125 73.953125 C15.3032238 75.69155614 10.76219228 75.96323348 5.390625 73.328125 C0.94829399 69.40234411 -1.35800429 66.16915386 -1.90234375 60.24609375 C-1.9799292 59.44067139 -2.05751465 58.63524902 -2.13745117 57.80541992 C-2.21636597 56.88853394 -2.21636597 56.88853394 -2.296875 55.953125 C-3.02350342 56.35402344 -3.75013184 56.75492188 -4.4987793 57.16796875 C-5.52914307 57.73644531 -6.55950684 58.30492187 -7.62109375 58.890625 C-8.1857132 59.20215012 -8.75033264 59.51367523 -9.33206177 59.8346405 C-12.53401986 61.60128389 -15.7360595 63.36777924 -18.93823242 65.1340332 C-25.57239926 68.79350148 -32.20558391 72.45472052 -38.8359375 76.12109375 C-50.92949643 82.80657887 -63.03997062 89.45690292 -75.20043945 96.02026367 C-83.71408612 100.62171897 -92.18661768 105.29616742 -100.65460205 109.98086548 C-108.96925331 114.5799729 -117.30672672 119.13383096 -125.671875 123.640625 C-133.39115904 127.80143267 -141.04951406 132.0550062 -148.671875 136.390625 C-151.52805261 138.00326301 -154.38540313 139.61380242 -157.24316406 141.22363281 C-159.96429185 142.76476403 -162.67584172 144.32166863 -165.38577271 145.88237 C-167.12672485 146.87932641 -168.87364314 147.86477719 -170.62353516 148.84594727 C-172.84441009 150.09132878 -175.05576521 151.35390119 -177.25537109 152.63647461 C-183.86403576 156.29814501 -189.68054785 158.51370001 -197.296875 156.953125 C-201.55401457 154.46083574 -204.42976569 151.55576655 -206.296875 146.953125 C-207.02114831 142.32114452 -206.74664585 138.83600853 -204.609375 134.640625 C-200.89717788 130.32644996 -196.76010154 127.50072556 -191.75390625 124.8515625 C-190.69002686 124.28453613 -189.62614746 123.71750977 -188.5300293 123.13330078 C-187.40121338 122.53759277 -186.27239746 121.94188477 -185.109375 121.328125 C-182.73575213 120.06479726 -180.36409674 118.79779142 -177.9921875 117.53125 C-176.83750977 116.91572266 -175.68283203 116.30019531 -174.49316406 115.66601562 C-170.46804047 113.50895275 -166.47008167 111.30698042 -162.484375 109.078125 C-154.83104202 104.8038377 -147.16078231 100.56079864 -139.484375 96.328125 C-138.23623585 95.63966819 -136.98810766 94.95119151 -135.73999023 94.26269531 C-130.0632992 91.13154336 -124.38586403 88.00174881 -118.7069397 84.87464905 C-115.65327207 83.19304176 -112.59998597 81.5107427 -109.546875 79.828125 C-108.94496338 79.49644318 -108.34305176 79.16476135 -107.72290039 78.82302856 C-99.28921439 74.17411342 -90.87923322 69.4843594 -82.484375 64.765625 C-73.44312205 59.68359014 -64.34671256 54.71428292 -55.21411133 49.79858398 C-47.006555 45.36825694 -38.88041094 40.80185507 -30.78076172 36.17749023 C-26.33800222 33.64557352 -21.90441626 31.17270467 -17.296875 28.953125 C-17.91175781 28.58960938 -18.52664063 28.22609375 -19.16015625 27.8515625 C-27.64341306 22.57489558 -27.64341306 22.57489558 -29.296875 16.953125 C-29.95902249 12.24169093 -29.78664147 8.95149511 -27.671875 4.640625 C-19.68152279 -4.40108934 -10.76734109 -2.83669019 0 0 Z " fill="#01357B" transform="translate(339.296875,148.046875)"/>
<path d="M0 0 C1.27537628 -0.01606293 2.55075256 -0.03212585 3.86477661 -0.04867554 C5.26515027 -0.06016611 6.66553141 -0.07077413 8.06591797 -0.08056641 C8.77121517 -0.08589008 9.47651237 -0.09121376 10.20318222 -0.09669876 C13.94061954 -0.12343658 17.67802347 -0.14280425 21.41552734 -0.15722656 C24.50014102 -0.17053455 27.58408823 -0.19832609 30.66845703 -0.23925781 C34.39911187 -0.28876352 38.12916487 -0.31336999 41.86013412 -0.32045364 C43.27704307 -0.32713912 44.69394002 -0.34229051 46.11066055 -0.36634445 C59.39644945 -0.57893974 59.39644945 -0.57893974 65.31735229 3.53158569 C69.72821252 8.06674478 71.43309954 11.67184892 71.46655273 17.98925781 C71.47947609 18.96616074 71.47947609 18.96616074 71.49266052 19.96279907 C71.51522449 22.09979865 71.50859931 24.2354762 71.49951172 26.37255859 C71.50475253 27.86939886 71.51103068 29.36623582 71.51829529 30.86306763 C71.52868245 33.99513321 71.52416415 37.12674401 71.50952148 40.25878906 C71.49235665 44.2558585 71.51580715 48.25148724 71.55101109 52.24839592 C71.5730658 55.33872856 71.57152399 58.42872094 71.56324577 61.51910782 C71.56243024 62.99178775 71.56921698 64.46449367 71.5840168 65.93709946 C71.70574342 80.24329255 71.70574342 80.24329255 67.43286133 85.69120789 C61.63129862 91.50014887 56.56419343 91.67364979 48.5874176 91.77430725 C47.23519515 91.77046512 45.88297565 91.76542571 44.53076172 91.75927734 C43.12503144 91.76452063 41.71930468 91.77079968 40.31358337 91.77806091 C37.37579728 91.78843459 34.43849647 91.78394849 31.50073242 91.76928711 C27.75364052 91.75210841 24.00808349 91.77559635 20.26116276 91.81077671 C17.36040776 91.83283929 14.46001502 91.83128807 11.55920219 91.8230114 C10.17862706 91.8221966 8.79802405 91.82896923 7.41752815 91.84378242 C0.37789548 91.90774887 -5.50469383 91.93313077 -11.43727112 87.85044861 C-15.92298379 83.28778928 -17.5674729 79.65302224 -17.58447266 73.27294922 C-17.59148193 72.60871445 -17.59849121 71.94447968 -17.60571289 71.26011658 C-17.62320926 69.08101653 -17.6117017 66.90323259 -17.59814453 64.72412109 C-17.60084189 63.20007073 -17.60472635 61.67602204 -17.60974121 60.15197754 C-17.61562488 56.96443224 -17.60711045 53.7773366 -17.58837891 50.58984375 C-17.56558935 46.51427668 -17.57871861 42.43976338 -17.60266876 38.36423492 C-17.6171578 35.21909721 -17.61250669 32.07420727 -17.60215759 28.92906189 C-17.59949885 27.42683282 -17.60272997 25.92458089 -17.61207581 24.42237854 C-17.62229362 22.31858168 -17.60667147 20.21646539 -17.58447266 18.11279297 C-17.58129028 16.91843628 -17.57810791 15.72407959 -17.5748291 14.49353027 C-16.78271047 9.34618693 -14.28452139 6.26554238 -10.44189453 2.88037109 C-6.68308937 0.20964111 -4.60244922 0.0525592 0 0 Z " fill="#01E1DC" transform="translate(121.06689453125,367.80712890625)"/>
<path d="M0 0 C10.92713802 0 15.11547401 2.68470986 22.72590637 10.18379211 C23.54177719 11.00775986 24.35764801 11.8317276 25.19824219 12.68066406 C26.08056015 13.55597275 26.96287811 14.43128143 27.87193298 15.33311462 C30.27391687 17.72057499 32.66663425 20.11660479 35.05497265 22.51767063 C37.56548783 25.03836991 40.08581334 27.5492307 42.60455322 30.06170654 C46.83131436 34.28120696 51.04960971 38.50903289 55.26318359 42.74169922 C60.12271498 47.62299627 64.99648795 52.48971675 69.87790751 57.34911752 C74.08168138 61.53469239 78.27755126 65.72807088 82.46700978 69.92797446 C84.96349593 72.43067086 87.46254434 74.93064794 89.96877289 77.42359161 C92.76385266 80.2048856 95.54227909 83.00246291 98.31933594 85.80175781 C99.55528755 87.02556404 99.55528755 87.02556404 100.81620789 88.27409363 C108.31529014 95.88452599 111 100.07286198 111 111 C74.37 111 37.74 111 0 111 C0 74.37 0 37.74 0 0 Z " fill="#DAD0CB" transform="translate(350,0)"/>
<path d="M0 0 C34 0 34 0 40 4 C45.15265043 9.45024969 44.56044052 15.25328096 44.50170898 22.3359375 C44.50711197 23.57563293 44.51251495 24.81532837 44.51808167 26.09259033 C44.52842608 29.48131533 44.52089024 32.86905955 44.50437045 36.25769806 C44.490483 39.81031152 44.49698423 43.36289651 44.50050354 46.91552734 C44.50320276 52.88061703 44.48975506 58.84550516 44.46655273 64.81054688 C44.43994467 71.6986732 44.4381969 78.58646262 44.4499411 85.47462273 C44.46073509 92.11148242 44.45451914 98.74822072 44.44038582 105.3850708 C44.43464003 108.2047209 44.43469757 111.02428175 44.43945122 113.84393311 C44.44512688 117.78410504 44.42586618 121.72394239 44.40405273 125.6640625 C44.40855438 126.82995911 44.41305603 127.99585571 44.41769409 129.19708252 C44.3657171 134.84674666 44.30323681 139.17772203 41 144 C29.4919416 154.90237111 16.68981938 150 0 150 C0 100.5 0 51 0 0 Z " fill="#FEBF00" transform="translate(256,309)"/>
<path d="M0 0 C0.71959837 -0.00623996 1.43919674 -0.01247993 2.18060112 -0.01890898 C4.5805369 -0.03480405 6.97945206 -0.02224924 9.37939453 -0.00964355 C11.10451854 -0.01506625 12.82963791 -0.02218974 14.55474854 -0.03088379 C19.23244861 -0.04910256 23.90979536 -0.0420556 28.58750153 -0.02936745 C33.48542729 -0.0192323 38.38332303 -0.02863456 43.28125 -0.03491211 C51.50607732 -0.04218701 59.73076091 -0.03260493 67.95556641 -0.0135498 C77.46122442 0.00821863 86.96653925 0.00116714 96.47218895 -0.02085543 C104.63712181 -0.0390139 112.80195143 -0.04156556 120.96689796 -0.03110075 C125.84190114 -0.02486829 130.71674306 -0.02402341 135.59173584 -0.0372467 C140.17520951 -0.04881108 144.75824119 -0.04076879 149.34166718 -0.01766968 C151.02265438 -0.01238572 152.70367886 -0.01389104 154.38465118 -0.02272034 C156.681739 -0.03367236 158.97741585 -0.01991831 161.27441406 0 C163.20125534 0.00226215 163.20125534 0.00226215 165.16702271 0.00457001 C170.47582435 0.7746336 173.52083698 3.24467372 177.01220703 7.19543457 C179.38980322 12.04207296 179.68619186 16.34235906 177.97705078 21.50012207 C175.70435512 26.08486743 172.32076756 28.53353511 167.63720703 30.50793457 C164.08079624 31.01409245 164.08079624 31.01409245 160.24354553 31.02259827 C159.53267097 31.02954379 158.82179642 31.03648932 158.0893802 31.04364532 C155.72486944 31.06183413 153.36137128 31.0516745 150.99682617 31.04138184 C149.29450229 31.04844447 147.5921847 31.05719093 145.88987732 31.06748962 C141.27822824 31.08995501 136.66692282 31.08705055 132.05523992 31.07816815 C128.20087503 31.07305106 124.34657432 31.08035669 120.49221605 31.08764023 C111.39734132 31.10463023 102.30263441 31.1010825 93.20776367 31.08435059 C83.83442224 31.06742903 74.46154651 31.08326629 65.08825594 31.11557347 C57.03112126 31.14228904 48.97413136 31.14954008 40.91695684 31.14105839 C36.10892649 31.13613504 31.30117629 31.13831271 26.49318123 31.1588459 C21.9711747 31.17723401 17.44983682 31.17120631 12.92786598 31.1466465 C11.27190228 31.14164855 9.61588735 31.14510198 7.95996475 31.15779495 C-8.28181675 31.27240728 -8.28181675 31.27240728 -14.36279297 25.50793457 C-17.8082628 21.73945195 -17.87851739 17.85934911 -17.71044922 12.94152832 C-17.0036908 7.9942194 -14.46768584 5.38433002 -10.67453003 2.37561798 C-6.78062469 0.17961562 -4.44733645 0.00522127 0 0 Z " fill="#0151BD" transform="translate(121.36279296875,51.4920654296875)"/>
<path d="M0 0 C0.2481617 4.73187094 0.42904293 9.45992671 0.54931641 14.19677734 C0.59945824 15.80552136 0.66759943 17.41381281 0.75439453 19.02099609 C1.45074782 32.25170851 1.45074782 32.25170851 -1.79150391 36.15893555 C-4.45006205 37.77265379 -7.10491356 38.86607183 -10 40 C-12.17335369 41.1833862 -14.33158696 42.39482801 -16.4765625 43.62890625 C-18.8582351 44.94223808 -21.24098131 46.25344886 -23.625 47.5625 C-24.90971429 48.26985403 -26.1943815 48.97729358 -27.47900391 49.68481445 C-36.39643051 54.59150945 -45.34561762 59.43797283 -54.30541992 64.2668457 C-61.2311957 68.01130935 -68.09266257 71.85988285 -74.9375 75.75 C-76.83698893 76.82205882 -78.7367222 77.89368484 -80.63671875 78.96484375 C-84.05079212 80.88971574 -87.44642503 82.84199533 -90.83203125 84.81640625 C-104.08890774 92.40508239 -104.08890774 92.40508239 -111.69140625 91.69921875 C-116.45770952 90.25561759 -119.62707006 87.28359391 -122.16015625 83.0703125 C-123.64167118 79.41820594 -123.54463176 75.86621312 -123 72 C-119.73980487 65.6003577 -114.67762551 62.19023248 -108.45703125 58.8984375 C-107.39315186 58.33141113 -106.32927246 57.76438477 -105.2331543 57.18017578 C-104.10433838 56.58446777 -102.97552246 55.98875977 -101.8125 55.375 C-99.43887713 54.11167226 -97.06722174 52.84466642 -94.6953125 51.578125 C-93.54063477 50.96259766 -92.38595703 50.34707031 -91.19628906 49.71289062 C-87.17116547 47.55582775 -83.17320667 45.35385542 -79.1875 43.125 C-71.53416828 38.85071341 -63.86404142 34.60742924 -56.1875 30.375 C-54.94962175 29.69238988 -53.71174742 29.00977267 -52.47387695 28.32714844 C-50.58305878 27.28447922 -48.69222583 26.24183687 -46.80134583 25.19927979 C-42.22487854 22.67589249 -37.64935165 20.15080572 -33.07421875 17.625 C-31.13246424 16.55314753 -29.19069907 15.48131437 -27.24893188 14.40948486 C-26.02132445 13.73179678 -24.79376331 13.05402484 -23.56625366 12.37615967 C-19.71235987 10.24799863 -15.85651319 8.12340977 -12 6 C-10.93040039 5.40864258 -9.86080078 4.81728516 -8.75878906 4.20800781 C-7.7581543 3.65725586 -6.75751953 3.10650391 -5.7265625 2.5390625 C-4.83791504 2.04873535 -3.94926758 1.5584082 -3.03369141 1.05322266 C-1 0 -1 0 0 0 Z " fill="#0252BD" transform="translate(256,214)"/>
<path d="M0 0 C0.92758118 -0.00540298 1.85516235 -0.01080597 2.81085205 -0.01637268 C5.8664169 -0.0288445 8.92103669 -0.01237892 11.9765625 0.00561523 C14.10595753 0.00546021 16.23535285 0.00397068 18.36474609 0.00120544 C22.82336937 -0.00017786 27.2816707 0.01236835 31.74023438 0.03515625 C37.4500247 0.06354039 43.15928021 0.0608025 48.86911011 0.04806614 C53.26493889 0.041105 57.66064447 0.04890327 62.05645752 0.06132317 C64.16155525 0.06583342 66.26666623 0.0661782 68.37176514 0.06225777 C71.3158267 0.05934134 74.25915605 0.07587358 77.203125 0.09765625 C78.06979797 0.0931546 78.93647095 0.08865295 79.82940674 0.08401489 C86.36205507 0.16415934 90.45217039 1.63267236 95.4765625 6.00170898 C98.30400688 9.66183116 98.24070798 13.38996402 98.02734375 17.87670898 C97.26995236 22.54613111 95.01654965 25.21937688 91.6015625 28.31420898 C86.96277006 31.068492 81.8929854 30.66834362 76.64550781 30.69458008 C75.74093842 30.70275757 74.83636902 30.71093506 73.90438843 30.71936035 C70.91282811 30.74415885 67.92131506 30.76071603 64.9296875 30.77514648 C63.90628014 30.78047016 62.88287277 30.78579384 61.82845306 30.79127884 C56.41168467 30.81798607 50.99493913 30.83736892 45.578125 30.85180664 C41.10070367 30.86514634 36.62373802 30.89300343 32.14648438 30.93383789 C26.73423529 30.98319598 21.32239954 31.00793151 15.909935 31.01503372 C13.85109697 31.02173868 11.7922679 31.03694097 9.73355865 31.06092453 C6.8469513 31.09263503 3.96193197 31.09260394 1.07519531 31.08520508 C0.23127228 31.10161041 -0.61265076 31.11801575 -1.48214722 31.13491821 C-7.5578327 31.07143689 -11.70998622 29.40364886 -16.3984375 25.50170898 C-19.38067848 21.40112764 -19.93772983 17.63503218 -19.74609375 12.67749023 C-18.99380292 7.96933301 -16.37931268 5.32003029 -12.83740234 2.36509705 C-8.37095486 -0.05502799 -4.995024 -0.05572083 0 0 Z " fill="#0152BD" transform="translate(123.3984375,97.498291015625)"/>
<path d="M0 0 C4.73324406 -0.09210637 9.46334929 -0.17165193 14.19677734 -0.21972656 C15.80495774 -0.23977627 17.41306583 -0.26702364 19.02099609 -0.30175781 C21.3397002 -0.35057264 23.65743625 -0.37303428 25.9765625 -0.390625 C27.04567368 -0.42159271 27.04567368 -0.42159271 28.13638306 -0.45318604 C33.24926201 -0.45545684 36.05775962 0.80751978 40 4 C43.65421278 8.13503025 44.65970869 11.37727544 44.37890625 16.7578125 C43.74622204 20.50173761 42.43234475 23.10945306 40 26 C34.95987723 29.47046561 31.25393273 30.5759774 25.09765625 30.390625 C24.01380898 30.38213531 24.01380898 30.38213531 22.9080658 30.37347412 C20.62550414 30.35128257 18.34457802 30.30112549 16.0625 30.25 C14.50458014 30.22991244 12.9466354 30.21166564 11.38867188 30.1953125 C7.5913282 30.15489373 3.79746993 30.07658763 0 30 C0 20.1 0 10.2 0 0 Z " fill="#00347B" transform="translate(256,52)"/>
</svg>
