<?xml version="1.0" encoding="UTF-8"?>
<svg version="1.1" xmlns="http://www.w3.org/2000/svg" width="512" height="512">
<path d="M0 0 C2.45703125 1.65234375 2.45703125 1.65234375 4.8125 3.9375 C6.09253906 5.16339844 6.09253906 5.16339844 7.3984375 6.4140625 C8.68621094 7.69410156 8.68621094 7.69410156 10 9 C11.25683594 10.21816406 11.25683594 10.21816406 12.5390625 11.4609375 C18.65568525 17.45801713 18.65568525 17.45801713 20.30981445 20.06176758 C22.4755241 22.54531068 23.71864122 22.65847207 26.953125 23.0546875 C27.95303467 23.19100586 28.95294434 23.32732422 29.9831543 23.46777344 C31.60024292 23.66935059 31.60024292 23.66935059 33.25 23.875 C59.49185447 27.63654061 83.98385682 35.64986878 107.67773438 47.49487305 C108.59232422 47.95031494 109.50691406 48.40575684 110.44921875 48.875 C111.25705811 49.28492188 112.06489746 49.69484375 112.8972168 50.1171875 C115.08092192 51.19354981 115.08092192 51.19354981 118 51 C118.38671875 50.21753906 118.7734375 49.43507812 119.171875 48.62890625 C119.69265625 47.61699219 120.2134375 46.60507812 120.75 45.5625 C121.26046875 44.55316406 121.7709375 43.54382812 122.296875 42.50390625 C124 40 124 40 126.203125 39.15234375 C126.79609375 39.10207031 127.3890625 39.05179688 128 39 C128.43699219 39.70962891 128.43699219 39.70962891 128.8828125 40.43359375 C129.75609216 41.84237509 130.63843801 43.24555704 131.52734375 44.64453125 C132.49001309 46.18429149 133.42146605 47.74413145 134.31640625 49.32421875 C138.12271311 55.71144023 142.52589629 58.55343023 149 62 C151.03367463 63.29013747 153.01212029 64.63987177 155 66 C154.8125 68.3125 154.8125 68.3125 154 71 C151.44921875 72.66796875 151.44921875 72.66796875 149 74 C149.57105469 74.43828125 150.14210938 74.8765625 150.73046875 75.328125 C196.53062213 111.15272828 225.80716921 162.0963953 238.1875 218.5625 C238.34259033 219.25706299 238.49768066 219.95162598 238.6574707 220.66723633 C241.83739464 235.92220658 242.37451585 251.15800254 242.3125 266.6875 C242.31034485 267.65999695 242.3081897 268.6324939 242.30596924 269.63446045 C242.25615559 283.63900669 241.88170311 297.25187475 239 311 C238.70996094 312.4837915 238.70996094 312.4837915 238.4140625 313.99755859 C229.70233395 358.07379635 209.67774729 399.06303877 179 432 C177.80759878 433.37075183 176.61986117 434.74557863 175.4375 436.125 C168.60126087 443.93114033 161.11527477 450.54751993 153 457 C151.92646889 457.87554924 150.85357003 458.75187417 149.78125 459.62890625 C119.31202026 484.34554542 83.58809312 499.82288967 45.4375 508.1875 C44.74293701 508.34259033 44.04837402 508.49768066 43.33276367 508.6574707 C28.07779342 511.83739464 12.84199746 512.37451585 -2.6875 512.3125 C-3.65999695 512.31034485 -4.6324939 512.3081897 -5.63446045 512.30596924 C-19.63900669 512.25615559 -33.25187475 511.88170311 -47 509 C-47.98919434 508.80664062 -48.97838867 508.61328125 -49.99755859 508.4140625 C-87.95941502 500.91084976 -123.65379045 485.1179482 -154 461 C-154.89589844 460.29617188 -155.79179687 459.59234375 -156.71484375 458.8671875 C-202.27676812 422.39150056 -231.72347617 372.28532471 -244.1875 315.4375 C-244.34259033 314.74293701 -244.49768066 314.04837402 -244.6574707 313.33276367 C-247.83739464 298.07779342 -248.37451585 282.84199746 -248.3125 267.3125 C-248.30926727 265.85375458 -248.30926727 265.85375458 -248.30596924 264.36553955 C-248.25615559 250.36099331 -247.88170311 236.74812525 -245 223 C-244.80664062 222.01080566 -244.61328125 221.02161133 -244.4140625 220.00244141 C-236.91084976 182.04058498 -221.1179482 146.34620955 -197 116 C-196.29617187 115.10410156 -195.59234375 114.20820312 -194.8671875 113.28515625 C-158.39212312 67.72400952 -108.16581013 38.08934855 -51.25 25.8125 C-50.05733521 25.55376099 -50.05733521 25.55376099 -48.84057617 25.28979492 C-44.03908813 24.29327844 -39.40149367 23.81570756 -34.5 23.5 C-25.93327326 22.41041632 -22.00260372 16.35070798 -17 10 C-7.0179567 -0.68972547 -7.0179567 -0.68972547 0 0 Z " fill="#1A2B62" transform="translate(259,0)"/>
<path d="M0 0 C31.75445968 0.61496313 63.00785664 12.52063428 90.84057617 27.05712891 C93.06550927 28.20007509 93.06550927 28.20007509 96 28 C96.38671875 27.21753906 96.7734375 26.43507813 97.171875 25.62890625 C97.69265625 24.61699219 98.2134375 23.60507812 98.75 22.5625 C99.26046875 21.55316406 99.7709375 20.54382813 100.296875 19.50390625 C102 17 102 17 104.203125 16.15234375 C104.79609375 16.10207031 105.3890625 16.05179688 106 16 C106.29132813 16.47308594 106.58265625 16.94617188 106.8828125 17.43359375 C107.75609216 18.84237509 108.63843801 20.24555704 109.52734375 21.64453125 C110.49001309 23.18429149 111.42146605 24.74413145 112.31640625 26.32421875 C116.12271311 32.71144023 120.52589629 35.55343023 127 39 C129.03367463 40.29013747 131.01212029 41.63987177 133 43 C132.8125 45.3125 132.8125 45.3125 132 48 C129.44921875 49.66796875 129.44921875 49.66796875 127 51 C127.57105469 51.43828125 128.14210938 51.8765625 128.73046875 52.328125 C174.53062213 88.15272828 203.80716921 139.0963953 216.1875 195.5625 C216.34259033 196.25706299 216.49768066 196.95162598 216.6574707 197.66723633 C219.83739464 212.92220658 220.37451585 228.15800254 220.3125 243.6875 C220.30926727 245.14624542 220.30926727 245.14624542 220.30596924 246.63446045 C220.25615559 260.63900669 219.88170311 274.25187475 217 288 C216.70996094 289.4837915 216.70996094 289.4837915 216.4140625 290.99755859 C211.02360317 318.27012174 201.58098474 345.20408842 187 369 C183.48279764 367.82759921 182.93593435 366.87802786 180.8125 363.9375 C170.07507241 349.83627248 155.22083463 339.8929653 138.0625 335.3125 C136.94198242 334.99442383 136.94198242 334.99442383 135.79882812 334.66992188 C115.37838534 329.08469292 93.68328612 331.86919446 75.12646484 342.02539062 C63.83695729 348.5880266 54.64972143 356.37402039 47 367 C42.69738704 366.18279891 39.57462996 363.99104919 35.92578125 361.66796875 C33.21444984 359.97686709 33.21444984 359.97686709 30.86157227 359.35913086 C26.89935195 358.07534996 24.62150886 356.9782009 22.34350586 353.39282227 C20.83759416 350.03376007 19.54707776 346.65540717 18.3125 343.1875 C17.85190186 341.97457275 17.39130371 340.76164551 16.91674805 339.51196289 C16.00500972 337.10834754 15.10532365 334.70012009 14.21875 332.28710938 C12.67745499 328.13005889 11.00624302 324.03408019 9.3125 319.9375 C7 314.25070423 7 314.25070423 7 312 C8.65 311.34 10.3 310.68 12 310 C12.33 301.75 12.66 293.5 13 285 C22.3125 284.8125 22.3125 284.8125 25.2355957 284.79223633 C27.57427882 284.70616648 29.72135923 284.54238923 32 284 C34.13366812 281.93911255 34.13366812 281.93911255 35 279 C35.39960938 277.98808594 35.79921875 276.97617187 36.2109375 275.93359375 C38.62480469 268.68389196 40.75957038 261.41105073 42.625 254 C42.81884277 253.23099365 43.01268555 252.4619873 43.21240234 251.66967773 C60.09669838 182.65279447 55.66977804 104.23943062 24 40 C23.62262695 39.2275293 23.24525391 38.45505859 22.85644531 37.65917969 C17.43445811 26.66866508 11.25873576 16.5568703 4.11767578 6.60644531 C2.63099157 4.46962091 1.29889821 2.254853 0 0 Z " fill="#1A2B63" transform="translate(281,23)"/>
<path d="M0 0 C21.12 0 42.24 0 64 0 C68.09522464 9.55552415 72.08163504 19.08104258 75.875 28.75 C76.37749803 30.01827122 76.88010188 31.28650053 77.3828125 32.5546875 C77.85203125 33.74835938 78.32125 34.94203125 78.8046875 36.171875 C79.22733887 37.2453418 79.64999023 38.31880859 80.08544922 39.42480469 C81 42 81 42 81 44 C81.80050781 44.22042969 81.80050781 44.22042969 82.6171875 44.4453125 C88.22239824 46.13269428 92.82821654 48.51681651 97.73828125 51.6953125 C99.86904308 52.92445663 101.59806554 53.54929376 104 54 C104.52207031 53.31035156 105.04414063 52.62070312 105.58203125 51.91015625 C119.55738681 34.06771456 138.8234391 22.76774281 161.26171875 19.27734375 C183.32861116 17.04232326 206.67719609 23.29724214 224.25 36.875 C231.18224046 42.70259076 238.54837046 49.01776773 243 57 C241.78492756 61.76811185 238.65880249 65.70526607 235.875 69.6875 C235.3792749 70.40083496 234.8835498 71.11416992 234.37280273 71.84912109 C230.46712065 77.42433541 226.38630199 82.79226327 222 88 C221.56075195 88.52803223 221.12150391 89.05606445 220.66894531 89.60009766 C210.70956546 101.55877076 200.26057172 112.34213977 188 122 C186.92991843 122.87108162 185.86094884 123.74353065 184.79296875 124.6171875 C154.32993139 149.34631789 118.58939208 164.82260487 80.4375 173.1875 C79.74293701 173.34259033 79.04837402 173.49768066 78.33276367 173.6574707 C63.07779342 176.83739464 47.84199746 177.37451585 32.3125 177.3125 C31.34000305 177.31034485 30.3675061 177.3081897 29.36553955 177.30596924 C15.36099331 177.25615559 1.74812525 176.88170311 -12 174 C-12.98919434 173.80664062 -13.97838867 173.61328125 -14.99755859 173.4140625 C-52.95941502 165.91084976 -88.65379045 150.1179482 -119 126 C-119.89589844 125.29617188 -120.79179688 124.59234375 -121.71484375 123.8671875 C-139.33470102 109.76118986 -154.35127878 93.83535141 -167.74316406 75.68920898 C-168.75884567 74.32411554 -169.80805856 72.98401005 -170.8671875 71.65234375 C-172 70 -172 70 -172 67.6875 C-169.2853584 60.39190071 -163.88160307 55.77547881 -158 51 C-157.29746094 50.41089844 -156.59492188 49.82179688 -155.87109375 49.21484375 C-150.29391299 44.67527801 -144.44487752 41.1740802 -138 38 C-137.08605469 37.54496094 -136.17210937 37.08992188 -135.23046875 36.62109375 C-115.26108066 27.46959579 -90.39015694 27.24981831 -69.9375 34.75 C-57.38286432 39.57631305 -45.41182524 45.41902307 -38 57 C-37.5875 56.62488281 -37.175 56.24976563 -36.75 55.86328125 C-26.53308913 46.80945621 -26.53308913 46.80945621 -20.60449219 45.45117188 C-16.59665213 43.21808214 -15.86251719 39.88356923 -14.3359375 35.703125 C-14.01718658 34.87673523 -13.69843567 34.05034546 -13.37002563 33.19891357 C-12.35430999 30.55552958 -11.36403711 27.90346728 -10.375 25.25 C-9.37361754 22.61305831 -8.3671201 19.97813365 -7.35855103 17.34393311 C-6.73322648 15.70538045 -6.11298619 14.06487553 -5.49862671 12.42218018 C-5.21468048 11.66830017 -4.93073425 10.91442017 -4.63818359 10.13769531 C-4.2710878 9.15413055 -4.2710878 9.15413055 -3.89657593 8.1506958 C-2.73784401 5.3711433 -1.34674213 2.69348425 0 0 Z " fill="#293D7C" transform="translate(224,335)"/>
<path d="M0 0 C10.89 0 21.78 0 33 0 C33.375 8.875 33.375 8.875 33.47802734 11.66748047 C33.5136377 12.39338379 33.54924805 13.11928711 33.5859375 13.8671875 C33.6173584 14.61081543 33.6487793 15.35444336 33.68115234 16.12060547 C33.85419551 18.24010974 33.85419551 18.24010974 36 20 C38.29010051 20.30619293 38.29010051 20.30619293 40.96875 20.25878906 C42.00322266 20.26509338 43.03769531 20.27139771 44.10351562 20.27789307 C45.22435547 20.2738446 46.34519531 20.26979614 47.5 20.265625 C48.64662109 20.26753845 49.79324219 20.2694519 50.97460938 20.27142334 C53.40234598 20.27278622 55.83008984 20.26908267 58.2578125 20.26074219 C61.98454073 20.25004438 65.71078686 20.26063431 69.4375 20.2734375 C71.79166774 20.27211592 74.14583517 20.26955357 76.5 20.265625 C78.18125977 20.27169769 78.18125977 20.27169769 79.89648438 20.27789307 C81.44819336 20.26843658 81.44819336 20.26843658 83.03125 20.25878906 C83.94455078 20.25719788 84.85785156 20.25560669 85.79882812 20.25396729 C88.20716627 20.20710017 88.20716627 20.20710017 90 18 C90.36831081 16.06742145 90.36831081 16.06742145 90.4140625 13.8671875 C90.44967285 13.14128418 90.4852832 12.41538086 90.52197266 11.66748047 C90.57297119 10.28520264 90.57297119 10.28520264 90.625 8.875 C90.74875 5.94625 90.8725 3.0175 91 0 C101.56 0 112.12 0 123 0 C125.56228477 6.40571192 127.83161534 12.32924907 129.5 18.9375 C129.70939209 19.76121094 129.91878418 20.58492187 130.13452148 21.43359375 C130.76661088 23.95330903 131.383803 26.47635891 132 29 C132.27094482 30.06758545 132.27094482 30.06758545 132.54736328 31.15673828 C147.04603031 88.86497929 142.32548054 153.11037143 123.83203125 209.22265625 C123.55077393 210.07609619 123.2695166 210.92953613 122.97973633 211.80883789 C121.90559516 214.21113467 121.04975001 215.36226077 119 217 C116.83485889 217.36914349 116.83485889 217.36914349 114.27339172 217.36076355 C112.81576416 217.36694954 112.81576416 217.36694954 111.32868958 217.3732605 C110.26414047 217.36247467 109.19959137 217.35168884 108.1027832 217.34057617 C106.98068451 217.34101425 105.85858582 217.34145233 104.70248413 217.34190369 C100.98507424 217.33980984 97.26811258 217.31645007 93.55078125 217.29296875 C90.97674303 217.28737493 88.40270161 217.28310382 85.82865906 217.28010559 C79.74066898 217.26981259 73.65286452 217.24615662 67.56494445 217.21605712 C60.63395338 217.18253273 53.70295463 217.16603206 46.77190268 217.15097082 C32.51451504 217.11960747 18.25726325 217.06683474 4 217 C3.35268031 215.72888497 2.70805983 214.45639512 2.0645752 213.18333435 C1.70531197 212.47486579 1.34604874 211.76639723 0.97589874 211.03645992 C-0.22585059 208.52870553 -1.04405642 206.02720094 -1.78125 203.34765625 C-2.06387695 202.33268066 -2.34650391 201.31770508 -2.63769531 200.27197266 C-2.92225586 199.21284668 -3.20681641 198.1537207 -3.5 197.0625 C-3.80260742 195.95438965 -4.10521484 194.8462793 -4.41699219 193.70458984 C-8.51667564 178.56476203 -11.93993621 163.56045174 -14 148 C-14.10586426 147.23316895 -14.21172852 146.46633789 -14.32080078 145.67626953 C-20.80019077 96.70604631 -14.43355675 46.90905944 0 0 Z " fill="#EDF5FE" transform="translate(194,91)"/>
<path d="M0 0 C21.12 0 42.24 0 64 0 C68.09522464 9.55552415 72.08163504 19.08104258 75.875 28.75 C76.37749803 30.01827122 76.88010188 31.28650053 77.3828125 32.5546875 C77.85203125 33.74835938 78.32125 34.94203125 78.8046875 36.171875 C79.22733887 37.2453418 79.64999023 38.31880859 80.08544922 39.42480469 C81 42 81 42 81 44 C81.80050781 44.22042969 81.80050781 44.22042969 82.6171875 44.4453125 C90.39004771 46.78523927 98.35474693 50.06208976 103 57 C102.55269531 57.69222656 102.10539062 58.38445312 101.64453125 59.09765625 C95.39247214 69.21559413 92.22569217 79.60060823 89 91 C87.86304688 90.96519531 86.72609375 90.93039062 85.5546875 90.89453125 C67.34828404 90.49813666 50.71213093 93.82869218 36.3125 105.625 C33.29679534 108.02967953 33.29679534 108.02967953 30.5 107.75 C29.10211885 106.7714832 27.71492943 105.77523282 26.375 104.71875 C11.85160217 93.34208836 -5.80487146 89.19917495 -24 91 C-37.65107236 93.28424318 -50.42624989 98.68728138 -60.328125 108.49609375 C-62 110 -62 110 -64 110 C-64.41185547 110.88558594 -64.41185547 110.88558594 -64.83203125 111.7890625 C-65.95208168 113.90929174 -67.16560836 115.53205177 -68.6875 117.375 C-75.62279348 126.52006836 -79.84197539 136.77827203 -82 148 C-88.07980312 147.60901588 -92.16856685 144.74093462 -97.125 141.5 C-97.96740234 140.95754639 -98.80980469 140.41509277 -99.67773438 139.85620117 C-106.35101664 135.5179285 -112.76643146 130.95418984 -119 126 C-119.89589844 125.29617188 -120.79179688 124.59234375 -121.71484375 123.8671875 C-139.33470102 109.76118986 -154.35127878 93.83535141 -167.74316406 75.68920898 C-168.75884567 74.32411554 -169.80805856 72.98401005 -170.8671875 71.65234375 C-172 70 -172 70 -172 67.6875 C-169.2853584 60.39190071 -163.88160307 55.77547881 -158 51 C-157.29746094 50.41089844 -156.59492188 49.82179688 -155.87109375 49.21484375 C-150.29391299 44.67527801 -144.44487752 41.1740802 -138 38 C-137.08605469 37.54496094 -136.17210937 37.08992188 -135.23046875 36.62109375 C-115.26108066 27.46959579 -90.39015694 27.24981831 -69.9375 34.75 C-57.38286432 39.57631305 -45.41182524 45.41902307 -38 57 C-37.5875 56.62488281 -37.175 56.24976563 -36.75 55.86328125 C-26.53308913 46.80945621 -26.53308913 46.80945621 -20.60449219 45.45117188 C-16.59665213 43.21808214 -15.86251719 39.88356923 -14.3359375 35.703125 C-14.01718658 34.87673523 -13.69843567 34.05034546 -13.37002563 33.19891357 C-12.35430999 30.55552958 -11.36403711 27.90346728 -10.375 25.25 C-9.37361754 22.61305831 -8.3671201 19.97813365 -7.35855103 17.34393311 C-6.73322648 15.70538045 -6.11298619 14.06487553 -5.49862671 12.42218018 C-5.21468048 11.66830017 -4.93073425 10.91442017 -4.63818359 10.13769531 C-4.2710878 9.15413055 -4.2710878 9.15413055 -3.89657593 8.1506958 C-2.73784401 5.3711433 -1.34674213 2.69348425 0 0 Z " fill="#435D9F" transform="translate(224,335)"/>
<path d="M0 0 C10.04178447 6.56471228 20.89695789 15.22256242 26.8203125 25.84375 C25.60524006 30.61186185 22.47911499 34.54901607 19.6953125 38.53125 C19.1995874 39.24458496 18.7038623 39.95791992 18.19311523 40.69287109 C14.28743315 46.26808541 10.20661449 51.63601327 5.8203125 56.84375 C5.38106445 57.37178223 4.94181641 57.89981445 4.48925781 58.44384766 C-5.47012204 70.40252076 -15.91911578 81.18588977 -28.1796875 90.84375 C-29.24976907 91.71483162 -30.31873866 92.58728065 -31.38671875 93.4609375 C-40.21179989 100.61775409 -49.49716984 106.90393079 -59.1796875 112.84375 C-59.81277832 113.24094238 -60.44586914 113.63813477 -61.09814453 114.04736328 C-64.4972102 116.10814292 -66.09772387 116.84375 -70.1796875 116.84375 C-70.38722656 115.99554688 -70.59476562 115.14734375 -70.80859375 114.2734375 C-73.92360976 102.41291628 -78.09214565 91.19599011 -86.89453125 82.296875 C-88.1796875 80.84375 -88.1796875 80.84375 -88.1796875 78.84375 C-88.7571875 78.58078125 -89.3346875 78.3178125 -89.9296875 78.046875 C-92.29814694 76.7804071 -94.1262169 75.3205321 -96.1796875 73.59375 C-101.42312903 69.42856179 -107.13902493 66.66738822 -113.1796875 63.84375 C-114.5152283 63.18151667 -115.84952866 62.51672822 -117.1796875 61.84375 C-116.68039199 55.62716926 -115.21557567 50.74284516 -112.6171875 45.09375 C-112.07928589 43.91304932 -112.07928589 43.91304932 -111.53051758 42.70849609 C-100.950681 20.07740897 -83.17341341 3.34041097 -60.1796875 -6.15625 C-55.88984597 -7.69151486 -51.58972134 -9.01505703 -47.1796875 -10.15625 C-46.51453125 -10.34445312 -45.849375 -10.53265625 -45.1640625 -10.7265625 C-30.00693421 -14.00861784 -12.97032818 -7.56326042 0 0 Z " fill="#435D9F" transform="translate(440.1796875,366.15625)"/>
<path d="M0 0 C21.12 0 42.24 0 64 0 C68.09522464 9.55552415 72.08163504 19.08104258 75.875 28.75 C76.37749803 30.01827122 76.88010188 31.28650053 77.3828125 32.5546875 C77.85203125 33.74835938 78.32125 34.94203125 78.8046875 36.171875 C79.22733887 37.2453418 79.64999023 38.31880859 80.08544922 39.42480469 C81 42 81 42 81 44 C81.53367187 44.14695312 82.06734375 44.29390625 82.6171875 44.4453125 C90.39004771 46.78523927 98.35474693 50.06208976 103 57 C102.55269531 57.69222656 102.10539063 58.38445312 101.64453125 59.09765625 C95.39247214 69.21559413 92.22569217 79.60060823 89 91 C87.86304688 90.96519531 86.72609375 90.93039062 85.5546875 90.89453125 C67.34828404 90.49813666 50.71213093 93.82869218 36.3125 105.625 C33.29679534 108.02967953 33.29679534 108.02967953 30.5 107.75 C29.10211885 106.7714832 27.71492943 105.77523282 26.375 104.71875 C10.54069826 92.31521364 -6.58857054 90.44124883 -26 91 C-26.10207764 90.36586182 -26.20415527 89.73172363 -26.30932617 89.07836914 C-27.8190909 80.03245151 -31.04645643 71.5084302 -35.375 63.4375 C-37 60 -37 60 -36.78125 58 C-35.25070592 54.08180715 -32.27518931 51.53498815 -29 49 C-27.2542359 48.46416474 -25.50090346 47.95259786 -23.7421875 47.4609375 C-17.78358027 44.84158969 -16.06466405 41.17624319 -13.75 35.41015625 C-12.43174978 31.98342173 -11.20953227 28.52882692 -10 25.0625 C-9.35661291 23.30396263 -8.70950693 21.54678118 -8.05859375 19.79101562 C-7.14030032 17.31351199 -6.22754098 14.83561005 -5.34472656 12.3452301 C-5.08014648 11.60103317 -4.81556641 10.85683624 -4.54296875 10.09008789 C-4.31633545 9.44342667 -4.08970215 8.79676544 -3.85620117 8.13050842 C-2.73769722 5.34730493 -1.34143749 2.68287499 0 0 Z " fill="#ADC0EC" transform="translate(224,335)"/>
<path d="M0 0 C8.94137517 8.53494902 16.10753739 20.80058703 17.015625 33.2734375 C16.94512531 50.08761302 12.7349213 63.36780523 1 75.8125 C-8.66950524 85.00675546 -20.48249504 89.74901318 -33.8125 90.0625 C-49.69275309 89.52501451 -62.36942021 83.65055846 -73.31640625 71.98046875 C-83.62920156 59.41760901 -86.40416293 45.65323448 -85.25 29.625 C-82.58615919 16.8081202 -75.27984285 4.79719335 -64.62109375 -2.859375 C-43.13653006 -16.59250632 -20.30500493 -15.58291076 0 0 Z " fill="#455FA1" transform="translate(290.25,142.375)"/>
<path d="M0 0 C2.45703125 1.65234375 2.45703125 1.65234375 4.8125 3.9375 C5.67746094 4.77152344 6.54242188 5.60554687 7.43359375 6.46484375 C8.28050781 7.30144531 9.12742187 8.13804688 10 9 C10.73347656 9.66128906 11.46695313 10.32257812 12.22265625 11.00390625 C19.76480828 17.99853364 25.35398261 26.46779273 31 35 C31.47228027 35.71333496 31.94456055 36.42666992 32.43115234 37.16162109 C58 76.28115142 58 76.28115142 58 91 C47.44 91 36.88 91 26 91 C26.11843927 96.7891237 26.11843927 96.7891237 26.27026367 102.57739258 C26.27775635 103.30079834 26.28524902 104.0242041 26.29296875 104.76953125 C26.3086792 105.50792236 26.32438965 106.24631348 26.34057617 107.00708008 C25.89098327 109.63792373 25.0932796 110.36803502 23 112 C20.68530273 112.38095093 20.68530273 112.38095093 17.93359375 112.38818359 C16.90242432 112.39764008 15.87125488 112.40709656 14.80883789 112.4168396 C13.69629639 112.41076691 12.58375488 112.40469421 11.4375 112.3984375 C10.29466553 112.40130768 9.15183105 112.40417786 7.97436523 112.40713501 C5.55679835 112.40917757 3.13921501 112.40363438 0.72167969 112.39111328 C-2.98540085 112.37506321 -6.691391 112.39095641 -10.3984375 112.41015625 C-12.74479408 112.40817385 -15.09114998 112.40433025 -17.4375 112.3984375 C-19.10631226 112.40754654 -19.10631226 112.40754654 -20.80883789 112.4168396 C-22.35559204 112.40265488 -22.35559204 112.40265488 -23.93359375 112.38818359 C-25.2956897 112.38460342 -25.2956897 112.38460342 -26.68530273 112.38095093 C-29.44573433 111.92664142 -30.3361878 111.21028833 -32 109 C-32.34057617 107.00708008 -32.34057617 107.00708008 -32.29296875 104.76953125 C-32.28172974 103.68442261 -32.28172974 103.68442261 -32.27026367 102.57739258 C-32.24295166 101.66497803 -32.21563965 100.75256348 -32.1875 99.8125 C-32.125625 96.904375 -32.06375 93.99625 -32 91 C-42.56 91 -53.12 91 -64 91 C-56.71576392 66.71921306 -45.11774669 45.25778057 -30 25 C-28.95199219 23.58267578 -28.95199219 23.58267578 -27.8828125 22.13671875 C-9.79522804 -1.39215149 -9.79522804 -1.39215149 0 0 Z " fill="#FD3645" transform="translate(259,0)"/>
<path d="M0 0 C1.16421159 4.14183911 1.07197043 8.10584866 0.9921875 12.375 C0.97195346 14.08616979 0.95279133 15.79735251 0.93457031 17.50854492 C0.92413696 18.40479584 0.91370361 19.30104675 0.9029541 20.22445679 C0.72357877 38.03450828 1.34424502 55.35411078 4 73 C4.13921875 73.94713867 4.2784375 74.89427734 4.421875 75.87011719 C6.67729952 90.72354948 10.46653857 105.1632694 14.42089844 119.64355469 C15 122 15 122 15 124 C13.88625 124.08636719 12.7725 124.17273438 11.625 124.26171875 C2.76677488 125.04507927 -5.38016734 126.34674937 -13.78320312 129.32299805 C-17.28577557 130.55284936 -20.28295769 131.59209524 -24 131 C-35.04109823 120.57229612 -38.56062142 97.33880195 -39.12109375 82.875 C-39.63274376 55.90803475 -31.76896304 29.86407272 -13 10 C-8.88036059 6.33477655 -4.58551547 3.05701031 0 0 Z " fill="#FD3745" transform="translate(178,172)"/>
<path d="M0 0 C1.42899408 0.94699885 2.85723236 1.89513824 4.28515625 2.84375 C5.08058838 3.37162109 5.87602051 3.89949219 6.69555664 4.44335938 C23.43407482 15.75014949 33.79659937 36.64535867 38 56 C40.76659425 73.11095076 41.06192089 93.59934286 35 110 C34.76442383 110.6590332 34.52884766 111.31806641 34.28613281 111.99707031 C31.83332727 118.80400647 29.18126129 125.07053894 25 131 C20.7130574 130.61027795 16.96931905 130.08018093 12.9375 128.5625 C7.52667755 126.70680277 2.09805465 125.99806023 -3.5625 125.3125 C-5.07553711 125.11817383 -5.07553711 125.11817383 -6.61914062 124.91992188 C-9.07852642 124.60521374 -11.5386332 124.29874531 -14 124 C-12.46765954 116.95264617 -10.75416291 109.96872895 -8.94335938 102.98828125 C-5.60553131 89.86572979 -3.30827484 76.69288554 -1.8125 63.25 C-1.72528687 62.48072174 -1.63807373 61.71144348 -1.54821777 60.91885376 C0.68644452 40.65579774 0.38451209 20.35399957 0 0 Z " fill="#FC3745" transform="translate(333,172)"/>
<path d="M0 0 C8.51526673 4.30329163 13.89207662 11.40669861 16.9140625 20.47265625 C17.65978831 31.9274937 17.30560644 40.94807669 10.7265625 50.72265625 C3.70301811 57.59012187 -4.54407182 62.42673397 -14.5234375 62.84765625 C-24.21247614 62.4432442 -33.22699541 58.69230583 -39.875 51.55078125 C-46.44395306 43.20206258 -49.06270565 34.07239948 -48.0859375 23.47265625 C-46.08507434 14.62138022 -40.45054744 6.62788321 -33.0859375 1.47265625 C-21.80739895 -4.86480827 -12.0196268 -5.1492196 0 0 Z " fill="#68CCFE" transform="translate(271.0859375,151.52734375)"/>
<path d="M0 0 C10.89 0 21.78 0 33 0 C33 0.33 33 0.66 33 1 C27.06 1.33 21.12 1.66 15 2 C-7.55568845 68.05594475 -8.26082197 148.40890197 17 214 C17.66 214.99 18.32 215.98 19 217 C14.05 217 9.1 217 4 217 C0.47065205 210.55274815 -1.59684937 204.14597062 -3.5 197.0625 C-3.80260742 195.95438965 -4.10521484 194.8462793 -4.41699219 193.70458984 C-8.51667564 178.56476203 -11.93993621 163.56045174 -14 148 C-14.10586426 147.23316895 -14.21172852 146.46633789 -14.32080078 145.67626953 C-20.80019077 96.70604631 -14.43355675 46.90905944 0 0 Z " fill="#D8E7F9" transform="translate(194,91)"/>
<path d="M0 0 C2.97 0 5.94 0 9 0 C13.07786229 9.11717178 16.76498206 18.37624052 20.375 27.6875 C20.82794434 28.84620605 21.28088867 30.00491211 21.74755859 31.19873047 C22.16859863 32.2920166 22.58963867 33.38530273 23.0234375 34.51171875 C23.40419434 35.49615967 23.78495117 36.48060059 24.17724609 37.49487305 C25 40 25 40 25 43 C24.37134033 42.97905273 23.74268066 42.95810547 23.0949707 42.93652344 C5.76607559 42.43566083 -10.38741922 42.92765681 -24.23828125 54.94140625 C-25.89138263 56.58125632 -27.4752433 58.24106565 -29 60 C-32.41466279 58.86177907 -32.93806519 58.02690251 -35.0625 55.25 C-42.42124873 46.68012388 -52.26213963 44.90310782 -63 43 C-62.2710682 38.29818692 -60.62427618 34.08229723 -58.91015625 29.671875 C-58.60556992 28.88226379 -58.30098358 28.09265259 -57.98716736 27.27911377 C-57.34455547 25.61754693 -56.69978155 23.95681483 -56.05297852 22.296875 C-55.06166871 19.74786245 -54.08230807 17.19446601 -53.10351562 14.640625 C-52.47728426 13.02576159 -51.85035542 11.41116844 -51.22265625 9.796875 C-50.92988297 9.0302655 -50.63710968 8.26365601 -50.33546448 7.47381592 C-48.22902867 2.11451434 -48.22902867 2.11451434 -46 1 C-46.90639516 13.65096218 -46.90639516 13.65096218 -47.5625 18 C-48.03271 21.59980446 -48.16598584 25.18388844 -48.25 28.8125 C-48.27578125 29.91207031 -48.3015625 31.01164062 -48.328125 32.14453125 C-48.23590884 34.98904492 -48.23590884 34.98904492 -46.66796875 36.85546875 C-43.99193151 38.69171913 -42.14803927 38.5139656 -39 38 C-35.14346774 34.23306124 -34.24930234 30.70454922 -33.734375 25.51171875 C-33.65125061 24.80852005 -33.56812622 24.10532135 -33.48248291 23.3808136 C-33.22255586 21.15117823 -32.98596587 18.91978524 -32.75 16.6875 C-32.5770598 15.1684438 -32.40259633 13.64956019 -32.2265625 12.13085938 C-31.7971765 8.42234163 -31.39949658 4.71234323 -31 1 C-25.72 1 -20.44 1 -15 1 C-14.54427083 4.515625 -14.08854167 8.03125 -13.6328125 11.546875 C-12.90879192 15.53484756 -12.90879192 15.53484756 -11 19 C-7.63239813 20.1716367 -7.63239813 20.1716367 -4 20 C-1.61914332 18.59054051 -1.61914332 18.59054051 0 16 C0.2906124 13.10550051 0.38186045 10.62050065 0.25 7.75 C0.23195313 7.00492187 0.21390625 6.25984375 0.1953125 5.4921875 C0.14835649 3.66090299 0.07661652 1.83028351 0 0 Z " fill="#D7E8FB" transform="translate(279,335)"/>
<path d="M0 0 C25.41 0 50.82 0 77 0 C77 8.25 77 16.5 77 25 C74.14873538 27.85126462 72.20565507 27.2664655 68.21118164 27.29052734 C67.51345139 27.29724457 66.81572113 27.30396179 66.09684753 27.31088257 C63.78454518 27.32991987 61.47253215 27.33378953 59.16015625 27.3359375 C57.55594258 27.34236125 55.95173009 27.34908929 54.34751892 27.35610962 C50.98238406 27.36809657 47.61735197 27.37178897 44.25219727 27.37060547 C39.93641789 27.37040215 35.62129608 27.39771082 31.30567265 27.43214989 C27.99170393 27.45436817 24.67789476 27.45844459 21.36385918 27.45738602 C19.77260508 27.45974939 18.18134707 27.46861423 16.59016609 27.48405075 C14.3657109 27.50361045 12.14269034 27.49791399 9.91821289 27.48583984 C8.65183487 27.48868988 7.38545685 27.49153992 6.08070374 27.49447632 C3 27 3 27 0 23 C0 15.41 0 7.82 0 0 Z " fill="#FD3745" transform="translate(217,308)"/>
<path d="M0 0 C0 0.66 0 1.32 0 2 C-0.66902344 1.9278125 -1.33804688 1.855625 -2.02734375 1.78125 C-24.32822932 -0.37400337 -44.90783315 0.47232069 -63.40625 14.80859375 C-76.96575491 26.26474172 -84.7628638 39.217359 -90 56 C-94.9723422 54.50829734 -99.41845739 52.39542583 -104 50 C-103.01 49.505 -103.01 49.505 -102 49 C-101.9175 47.783125 -101.835 46.56625 -101.75 45.3125 C-100.48711607 31.84887305 -91.85469341 18.89325991 -82 10 C-81.401875 9.39800781 -80.80375 8.79601562 -80.1875 8.17578125 C-59.13779617 -12.13873072 -24.83908198 -14.89124325 0 0 Z " fill="#1B2C64" transform="translate(244,434)"/>
<path d="M0 0 C1.26844368 3.17110921 0.99647181 5.80694539 -0.01953125 9.0390625 C-1.22902628 11.45805257 -2.76656067 13.09817709 -4.625 15.0625 C-23.53282138 35.2399936 -26.9113503 62.35342076 -26.18359375 88.73095703 C-25.52734882 100.41595659 -21.54125837 111.29776777 -17 122 C-16.67515625 122.77730469 -16.3503125 123.55460937 -16.015625 124.35546875 C-15.35793566 125.90972517 -14.68209978 127.45630049 -14 129 C-20.36363636 131.90909091 -20.36363636 131.90909091 -24 131 C-37.25392696 116.50351739 -39.77427893 90.58269427 -39 72 C-36.83876281 48.0299148 -28.78082796 24.04012705 -10.30859375 7.60546875 C-6.9645775 4.90397091 -3.57670689 2.38447126 0 0 Z " fill="#B60A2C" transform="translate(178,172)"/>
<path d="M0 0 C2.90208927 2.47391216 5.69097334 5.05558752 8.42138672 7.71679688 C8.09138672 8.37679688 7.76138672 9.03679687 7.42138672 9.71679688 C6.75494141 9.26949219 6.08849609 8.8221875 5.40185547 8.36132812 C-16.16859648 -5.78768162 -39.64221025 -10.57329635 -64.95361328 -5.65820312 C-73.13505845 -3.93782047 -80.23420755 -1.33845914 -87.57861328 2.71679688 C-88.43326172 3.15636719 -89.28791016 3.5959375 -90.16845703 4.04882812 C-96.08749251 7.29354426 -100.82623794 11.43977534 -105.64526367 16.11010742 C-109.38796044 19.71679688 -109.38796044 19.71679688 -111.57861328 19.71679688 C-111.82611328 20.25304687 -112.07361328 20.78929687 -112.32861328 21.34179688 C-113.87558303 24.2810394 -115.70875697 26.97434095 -117.57861328 29.71679688 C-118.9175696 28.0546442 -120.2499147 26.3871608 -121.57861328 24.71679688 C-122.17673828 24.03617187 -122.77486328 23.35554688 -123.39111328 22.65429688 C-124.57861328 20.71679688 -124.57861328 20.71679688 -124.39111328 18.91601562 C-119.15968709 4.75595338 -101.73563473 -6.18519451 -88.57861328 -12.28320312 C-58.66960626 -24.84514068 -25.2442788 -20.5202489 0 0 Z " fill="#293D7C" transform="translate(169.57861328125,373.283203125)"/>
<path d="M0 0 C3.26864555 1.61616363 4.29550934 4.59757354 5.859375 7.73046875 C9.63471156 14.77569822 13.43537255 18.61722064 20.578125 22.32421875 C21.3928125 22.74703125 22.2075 23.16984375 23.046875 23.60546875 C23.79839844 23.95738281 24.54992187 24.30929688 25.32421875 24.671875 C27.109375 26.04296875 27.109375 26.04296875 27.86328125 28.6953125 C27.94449219 29.47003906 28.02570313 30.24476562 28.109375 31.04296875 C25.3586005 32.79346161 22.7831219 34.16984495 19.734375 35.35546875 C11.17624678 39.33942499 7.73172055 44.97667803 3.78515625 53.3125 C2.109375 56.04296875 2.109375 56.04296875 -0.09765625 56.9296875 C-0.98517578 56.98576172 -0.98517578 56.98576172 -1.890625 57.04296875 C-2.18195313 56.56988281 -2.47328125 56.09679687 -2.7734375 55.609375 C-3.64671716 54.20059366 -4.52906301 52.79741171 -5.41796875 51.3984375 C-6.38063809 49.85867726 -7.31209105 48.2988373 -8.20703125 46.71875 C-12.01333811 40.33152852 -16.41652129 37.48953852 -22.890625 34.04296875 C-24.92429963 32.75283128 -26.90274529 31.40309698 -28.890625 30.04296875 C-28.75 28.23046875 -28.75 28.23046875 -27.890625 26.04296875 C-25.34375 24.48046875 -25.34375 24.48046875 -22.140625 23.04296875 C-14.62419278 19.63650686 -10.63308571 16.49669742 -7.203125 8.91796875 C-3.08554442 0.07012601 -3.08554442 0.07012601 0 0 Z " fill="#FE9418" transform="translate(385.890625,38.95703125)"/>
<path d="M0 0 C2.375 1.5 2.375 1.5 4 3 C2.42873548 6.9558895 -0.33855343 9.40294078 -3.375 12.25 C-14.68168199 23.23711918 -23.3567354 36.28063886 -31 50 C-31.39928711 50.70962891 -31.79857422 51.41925781 -32.20996094 52.15039062 C-39.2118094 64.68921995 -44.78318612 77.63033931 -50 91 C-54.62 91 -59.24 91 -64 91 C-57.09485836 66.75624253 -45.00631908 45.10846757 -30 25 C-28.95199219 23.58267578 -28.95199219 23.58267578 -27.8828125 22.13671875 C-9.91287741 -1.23910968 -9.91287741 -1.23910968 0 0 Z " fill="#B70A2C" transform="translate(259,0)"/>
<path d="M0 0 C2.2890625 0.11328125 2.2890625 0.11328125 5 1 C6.7734375 3.73046875 6.7734375 3.73046875 8.375 7.1875 C13.20141479 16.89560894 19.29277245 20.58584824 29 25 C29 26.32 29 27.64 29 29 C26.55078125 30.74609375 26.55078125 30.74609375 23.3125 32.4375 C13.44633764 37.88649684 8.75455979 45.03565661 4 55 C2.21484375 54.859375 2.21484375 54.859375 0 54 C-1.74609375 51.453125 -1.74609375 51.453125 -3.4375 48.25 C-7.10759642 41.67343657 -10.60680363 37.53293993 -17.21875 33.98046875 C-19.93055819 32.48778486 -22.44488203 30.74495861 -25 29 C-24.8515625 26.67578125 -24.8515625 26.67578125 -24 24 C-21.5234375 22.48046875 -21.5234375 22.48046875 -18.375 21.1875 C-8.51029192 16.58865032 -4.32715285 9.73110871 0 0 Z " fill="#FCCD0E" transform="translate(108,124)"/>
<path d="M0 0 C18.81 0.33 37.62 0.66 57 1 C57 6.94 57 12.88 57 19 C54.46238319 21.53761681 53.56407197 21.2568572 50.04711914 21.2746582 C49.01587418 21.28419022 47.98462921 21.29372223 46.9221344 21.30354309 C45.24558022 21.30217598 45.24558022 21.30217598 43.53515625 21.30078125 C41.81878212 21.30720894 41.81878212 21.30720894 40.06773376 21.31376648 C37.6442023 21.31951784 35.22065356 21.32000415 32.79711914 21.31567383 C29.08124433 21.31251593 25.36616678 21.3359569 21.65039062 21.36132812 C19.29948018 21.36360116 16.94856758 21.36430459 14.59765625 21.36328125 C12.92413841 21.37709587 12.92413841 21.37709587 11.21681213 21.39118958 C10.18241501 21.38496078 9.14801788 21.37873199 8.08227539 21.37231445 C7.17119522 21.37294388 6.26011505 21.3735733 5.32142639 21.3742218 C3 21 3 21 0 18 C0 12.06 0 6.12 0 0 Z " fill="#E92A3D" transform="translate(227,91)"/>
<path d="M0 0 C1.82421875 0.17578125 1.82421875 0.17578125 4 1 C5.45703125 3.29296875 5.45703125 3.29296875 6.8125 6.1875 C11.29445576 14.8488795 17.48132636 18.63442122 26 23 C24.52377861 27.01669542 22.54864898 27.9856002 18.75 29.75 C11.93521149 33.28227258 8.57795326 37.52850282 5.4375 44.4375 C4.963125 45.283125 4.48875 46.12875 4 47 C1.41015625 47.66015625 1.41015625 47.66015625 -1 48 C-1.37511719 47.26394531 -1.75023437 46.52789062 -2.13671875 45.76953125 C-7.47961901 35.58168364 -12.82297255 31.18654113 -23 26 C-22.82421875 24.17578125 -22.82421875 24.17578125 -22 22 C-19.70703125 20.54296875 -19.70703125 20.54296875 -16.8125 19.1875 C-8.1511205 14.70554424 -4.36557878 8.51867364 0 0 Z " fill="#FBFBFC" transform="translate(410,153)"/>
<path d="M0 0 C1.63001953 0.01353516 1.63001953 0.01353516 3.29296875 0.02734375 C4.12441406 0.03894531 4.95585937 0.05054688 5.8125 0.0625 C3.42041279 2.45458721 1.14159456 3.35215235 -1.9375 4.75 C-7.38470936 7.44754148 -10.95067042 9.9178702 -14.1875 15.0625 C-14.59742188 15.660625 -15.00734375 16.25875 -15.4296875 16.875 C-19.62504629 24.28197827 -19.31434265 33.82743303 -18.1875 42.0625 C-17.02297269 45.84606305 -15.45887971 48.83753813 -13.1875 52.0625 C-12.630625 52.97 -12.07375 53.8775 -11.5 54.8125 C-6.63287083 59.54808514 -0.50252962 62.6788305 5.8125 65.0625 C5.8125 65.3925 5.8125 65.7225 5.8125 66.0625 C-4.9437619 66.58296429 -13.87228696 64.13520994 -22.1875 57.0625 C-29.59403772 49.10613197 -32.57926523 40.16506051 -32.3984375 29.3515625 C-31.63329312 21.04832904 -26.47180445 12.72120776 -20.3125 7.25 C-13.83322634 2.71450843 -7.99369242 -0.08595368 0 0 Z " fill="#52B9ED" transform="translate(255.1875,147.9375)"/>
<path d="M0 0 C5.94 0 11.88 0 18 0 C18.06058594 1.78148437 18.12117188 3.56296875 18.18359375 5.3984375 C18.26798797 7.7239671 18.35263653 10.04948748 18.4375 12.375 C18.47681641 13.550625 18.51613281 14.72625 18.55664062 15.9375 C18.59853516 17.05898438 18.64042969 18.18046875 18.68359375 19.3359375 C18.72025146 20.37282715 18.75690918 21.4097168 18.79467773 22.47802734 C18.84164223 24.99425166 18.84164223 24.99425166 20 27 C17.22813012 27.10787818 14.46044463 27.18723327 11.6875 27.25 C10.90181641 27.28351563 10.11613281 27.31703125 9.30664062 27.3515625 C8.1706543 27.37089844 8.1706543 27.37089844 7.01171875 27.390625 C6.31522217 27.41157227 5.61872559 27.43251953 4.90112305 27.45410156 C3 27 3 27 1.26757812 25.31445312 C-0.26634504 22.51368434 -0.345978 20.75868003 -0.29296875 17.578125 C-0.28330078 16.55332031 -0.27363281 15.52851563 -0.26367188 14.47265625 C-0.23853516 13.40917969 -0.21339844 12.34570312 -0.1875 11.25 C-0.17396484 10.17105469 -0.16042969 9.09210938 -0.14648438 7.98046875 C-0.11116973 5.32009879 -0.05736391 2.65998587 0 0 Z " fill="#B40C2E" transform="translate(217,308)"/>
<path d="M0 0 C0.79277344 0.36738281 1.58554687 0.73476562 2.40234375 1.11328125 C7.44698097 3.49957343 11.32744463 5.67934663 15 10 C15.66 10.721875 16.32 11.44375 17 12.1875 C19.82032635 16.15358393 22.58113709 20.31921514 24 25 C23.3828125 27.75 23.3828125 27.75 22 30 C19.875 30.8125 19.875 30.8125 18 31 C17.70867187 30.52691406 17.41734375 30.05382812 17.1171875 29.56640625 C16.24390784 28.15762491 15.36156199 26.75444296 14.47265625 25.35546875 C13.50998691 23.81570851 12.57853395 22.25586855 11.68359375 20.67578125 C7.87728689 14.28855977 3.47410371 11.44656977 -3 8 C-5.03367463 6.70986253 -7.01212029 5.36012823 -9 4 C-8.75 2.125 -8.75 2.125 -8 0 C-4.67847296 -2.51977913 -3.45277936 -1.88164055 0 0 Z " fill="#EC8219" transform="translate(366,65)"/>
<path d="M0 0 C10.5171681 5.95585486 18.46793306 11.40324048 23 23 C23 23.66 23 24.32 23 25 C23.66 25 24.32 25 25 25 C24.25 27.9375 24.25 27.9375 23 31 C20.921875 31.69140625 20.921875 31.69140625 19 32 C18.70867187 31.52691406 18.41734375 31.05382812 18.1171875 30.56640625 C17.24485362 29.15915066 16.36386168 27.75724298 15.4765625 26.359375 C14.50373345 24.80490741 13.55995116 23.23182225 12.6484375 21.640625 C9.00255519 15.57094383 5.27973165 13.04471838 -1 10 C-3.0488382 8.72628464 -5.01584891 7.37364306 -7 6 C-6.75 3.625 -6.75 3.625 -6 1 C-2.69333333 -1.34666667 -2.69333333 -1.34666667 0 0 Z " fill="#F9AD11" transform="translate(90,147)"/>
<path d="M0 0 C7.88730523 2.33505747 15.40795697 7.18151186 20 14 C21.08117075 16.3046008 22.03028981 18.64498955 23 21 C23.66 21.33 24.32 21.66 25 22 C24.3125 24.4375 24.3125 24.4375 23 27 C20.41796875 27.66015625 20.41796875 27.66015625 18 28 C17.62488281 27.26394531 17.24976563 26.52789062 16.86328125 25.76953125 C11.52038099 15.58168364 6.17702745 11.18654113 -4 6 C-3.6875 4.125 -3.6875 4.125 -3 2 C-2.01 1.34 -1.02 0.68 0 0 Z " fill="#D5E5F8" transform="translate(391,173)"/>
<path d="M0 0 C3.96 0 7.92 0 12 0 C12.06058594 1.34835938 12.12117187 2.69671875 12.18359375 4.0859375 C12.26799422 5.8489696 12.35264247 7.61198984 12.4375 9.375 C12.47681641 10.26445313 12.51613281 11.15390625 12.55664062 12.0703125 C12.61948242 13.34648438 12.61948242 13.34648438 12.68359375 14.6484375 C12.72025146 15.43395996 12.75690918 16.21948242 12.79467773 17.02880859 C12.890891 19.07523496 12.890891 19.07523496 14 21 C12.22992286 21.08114106 10.45877902 21.13925505 8.6875 21.1875 C7.70136719 21.22230469 6.71523437 21.25710937 5.69921875 21.29296875 C3 21 3 21 1.34960938 19.74609375 C-0.32765204 17.57609129 -0.35074426 16.48498029 -0.29296875 13.76953125 C-0.28330078 12.96708984 -0.27363281 12.16464844 -0.26367188 11.33789062 C-0.23853516 10.50451172 -0.21339844 9.67113281 -0.1875 8.8125 C-0.17396484 7.96751953 -0.16042969 7.12253906 -0.14648438 6.25195312 C-0.11115799 4.16769616 -0.05735139 2.08376723 0 0 Z " fill="#BA0C2D" transform="translate(227,91)"/>
</svg>
