<?xml version="1.0" encoding="UTF-8"?>
<svg version="1.1" xmlns="http://www.w3.org/2000/svg" width="512" height="512">
<path d="M0 0 C0.96307135 -0.00397774 0.96307135 -0.00397774 1.94559869 -0.00803584 C4.11172394 -0.01573694 6.27779259 -0.01628832 8.44393063 -0.01688576 C10.00681812 -0.02089986 11.56970457 -0.02533799 13.13258976 -0.03016531 C17.43910287 -0.0421427 21.74560478 -0.04778197 26.0521313 -0.05234647 C30.69240247 -0.05829821 35.33266021 -0.06990918 39.97292233 -0.08063698 C51.18575446 -0.10517169 62.39859104 -0.11979016 73.61144176 -0.13269705 C76.77799511 -0.13640834 79.94454801 -0.14038163 83.11110091 -0.14444971 C102.77073083 -0.16968672 122.43036143 -0.19174206 142.09000397 -0.20417786 C146.6449048 -0.20710761 151.19980561 -0.21006926 155.75470638 -0.21308327 C156.88682039 -0.21382932 158.01893439 -0.21457537 159.18535488 -0.21534403 C177.52399149 -0.22799701 195.86253113 -0.26121858 214.20112241 -0.3028851 C233.0250129 -0.34530393 251.84885374 -0.36887288 270.6727919 -0.37409842 C281.24330522 -0.3775127 291.81366704 -0.38926989 302.38413334 -0.42220116 C311.38688145 -0.45020215 320.38944701 -0.46120077 329.39223529 -0.4500057 C333.98492022 -0.4448191 338.57722286 -0.44770587 343.16985226 -0.47247124 C347.37771578 -0.49497213 351.58492258 -0.49421758 355.79279768 -0.47526737 C357.31172743 -0.47246851 358.83070179 -0.47805965 360.34955985 -0.4930803 C369.23493849 -0.5755499 376.11553952 0.20170108 383.7241888 5.13701439 C384.6316888 5.69388939 385.5391888 6.25076439 386.4741888 6.82451439 C391.88426401 12.38486946 395.83351186 19.23717671 395.87135983 27.05776024 C395.88209278 28.58027649 395.88209278 28.58027649 395.89304256 30.13355064 C395.89573147 31.24634895 395.89842037 32.35914726 395.90119076 33.50566673 C395.90776196 34.67825539 395.91433315 35.85084404 395.92110348 37.05896568 C395.94084679 40.94695446 395.95250168 44.83492975 395.96247005 48.72295189 C395.96651835 50.06229358 395.97063529 51.40163506 395.97482014 52.74097633 C395.99386388 59.03234012 396.00809788 65.32369222 396.01643211 71.61507928 C396.02620867 78.87504165 396.05254214 86.13469946 396.092933 93.3945545 C396.12309281 99.00823741 396.13790074 104.62183299 396.14121312 110.23559535 C396.14356336 113.58765219 396.15251997 116.93938336 396.17767429 120.29135323 C396.2019343 124.03100884 396.20112448 127.76986333 396.19415951 131.50957298 C396.2133746 133.17269775 396.2133746 133.17269775 396.23297787 134.86942101 C396.20274949 139.31259716 396.14992866 142.32272866 394.06981564 146.30122948 C391.7241888 148.13701439 391.7241888 148.13701439 385.7241888 149.13701439 C386.0541888 158.04701439 386.3841888 166.95701439 386.7241888 176.13701439 C388.31747005 173.29656517 388.31747005 173.29656517 389.9429388 170.39873314 C391.00056177 168.52435638 392.06050929 166.65131232 393.12067318 164.77837181 C393.84445473 163.49686213 394.56589272 162.21402541 395.28473568 160.929739 C403.88128383 145.57961775 412.38468668 130.61587053 430.30622005 125.38310814 C441.69360047 122.88173272 453.40254194 124.05577455 463.72809505 129.80888939 C473.89174186 136.57139412 479.38947754 144.62041149 483.39215755 156.04326439 C486.54662172 175.93494429 478.1734037 190.58627958 468.2866888 207.26201439 C467.04650644 209.37103725 465.80694443 211.480425 464.5679388 213.59013939 C463.61661068 215.20759056 463.61661068 215.20759056 462.6460638 216.85771751 C459.49934773 222.22696172 456.39260261 227.6190963 453.2866888 233.01201439 C452.35385067 234.63067406 452.35385067 234.63067406 451.40216732 236.28203392 C450.13969149 238.4728439 448.87740325 240.66376199 447.61530209 242.85478783 C444.48738732 248.28361381 441.35560433 253.7102072 438.2241888 259.13701439 C436.97417001 261.30367022 435.72417002 263.47033689 434.4741888 265.63701439 C431.9741888 269.97034772 429.4741888 274.30368106 426.9741888 278.63701439 C426.35535824 279.70967552 425.73652767 280.78233665 425.09894466 281.88750267 C423.84983362 284.0525851 422.60064751 286.21762421 421.35138607 288.38261986 C418.21216571 293.82317145 415.07428318 299.26448655 411.93903255 304.70732689 C411.31399837 305.7882058 410.6889642 306.8690847 410.04498959 307.98271751 C408.78639232 310.17424959 407.5412945 312.37358826 406.30963802 314.58037376 C403.38128148 319.78530884 400.4183121 324.66430623 396.70465755 329.34795189 C381.70730821 349.30336484 384.95280204 374.31819837 385.7241888 398.13701439 C386.6316888 398.19888939 387.5391888 398.26076439 388.4741888 398.32451439 C392.64205053 399.36647982 393.48601815 400.50722014 395.7241888 404.13701439 C396.1165793 407.03335624 396.28213604 409.54789654 396.25763607 412.44048119 C396.26625164 413.26395546 396.27486721 414.08742973 396.28374386 414.93585777 C396.30640833 417.65297132 396.2996611 420.36905318 396.29059505 423.08623314 C396.29583267 424.98327502 396.30210966 426.88031429 396.30937862 428.77734947 C396.31978544 432.75437731 396.3152207 436.73104747 396.30060482 440.70805931 C396.28346915 445.78437389 396.306846 450.85955102 396.34209442 455.93573856 C396.36415236 459.85566152 396.36260582 463.77531625 396.35432911 467.69528198 C396.35351316 469.56543088 396.36030786 471.43560019 396.37510014 473.30569077 C396.4994757 491.88571872 396.4994757 491.88571872 390.7241888 500.13701439 C390.1673138 501.04451439 389.6104388 501.95201439 389.0366888 502.88701439 C382.89691334 508.86084997 375.97346747 512.25671817 367.44837761 512.27402878 C366.80633004 512.2766806 366.16428247 512.27933243 365.50277892 512.28206462 C363.33665366 512.28976572 361.17058502 512.2903171 359.00444698 512.29091454 C357.44155949 512.29492864 355.87867304 512.29936677 354.31578785 512.30419409 C350.00927474 512.31617148 345.70277283 512.32181075 341.39624631 512.32637525 C336.75597514 512.33232699 332.1157174 512.34393796 327.47545528 512.35466576 C316.26262315 512.37920047 305.04978657 512.39381893 293.83693585 512.40672582 C290.6703825 512.41043712 287.5038296 512.41441041 284.3372767 512.41847849 C264.67764678 512.4437155 245.01801618 512.46577084 225.35837364 512.47820663 C220.80347281 512.48113639 216.248572 512.48409804 211.69367123 512.48711205 C210.56155722 512.4878581 209.42944322 512.48860415 208.26302273 512.4893728 C189.92438612 512.50202579 171.58584648 512.53524735 153.2472552 512.57691388 C134.42336471 512.61933271 115.59952387 512.64290166 96.77558571 512.6481272 C86.20507239 512.65154148 75.63471057 512.66329867 65.06424427 512.69622993 C56.06149616 512.72423093 47.0589306 512.73522955 38.05614232 512.72403447 C33.46345739 512.71884788 28.87115475 512.72173465 24.27852535 512.74650002 C20.07066183 512.76900091 15.86345503 512.76824636 11.65557993 512.74929614 C10.13665018 512.74649728 8.61767582 512.75208843 7.09881776 512.76710908 C-1.78656088 512.84957868 -8.66716191 512.07232769 -16.2758112 507.13701439 C-17.1833112 506.58013939 -18.0908112 506.02326439 -19.0258112 505.44951439 C-25.51374826 498.78135685 -28.42765083 491.64724519 -28.41282558 482.48687458 C-28.41547741 481.69625013 -28.41812924 480.90562568 -28.42086142 480.09104291 C-28.42857205 477.41950088 -28.42911427 474.74800468 -28.42971134 472.07645226 C-28.43372481 470.15058254 -28.43816284 468.22471367 -28.4429909 466.29884583 C-28.45497526 460.98899408 -28.46060917 455.67915143 -28.46517205 450.3692888 C-28.47112112 444.64925435 -28.48273272 438.92923082 -28.49346256 433.20920372 C-28.51800288 419.38603956 -28.53261629 405.56287178 -28.54552263 391.73969254 C-28.54923343 387.83666299 -28.55320676 383.93363379 -28.5572753 380.0306046 C-28.58251111 355.80369745 -28.60458473 331.57679074 -28.61700344 307.34987354 C-28.61992478 301.73619586 -28.6228923 296.1225182 -28.62590885 290.50884056 C-28.62627976 289.81141043 -28.62665067 289.1139803 -28.62703282 288.39541592 C-28.63918651 265.7864779 -28.67012724 243.17761776 -28.71183038 220.56871631 C-28.75583791 196.66691131 -28.78153836 172.76515793 -28.786924 148.86331135 C-28.79033998 135.83359094 -28.80211716 122.80399337 -28.83502674 109.77431107 C-28.86300637 98.67817764 -28.8740357 87.58219224 -28.86283128 76.48602628 C-28.85763932 70.82402826 -28.86056674 65.16234031 -28.88529682 59.50038719 C-28.90775406 54.31554066 -28.90707652 49.13122758 -28.88809295 43.94637192 C-28.88528802 42.07212995 -28.89091877 40.19785208 -28.90590589 38.32366794 C-29.03988238 20.47612694 -29.03988238 20.47612694 -23.2758112 12.13701439 C-22.7189362 11.22951439 -22.1620612 10.32201439 -21.5883112 9.38701439 C-15.44853573 3.4131788 -8.52508986 0.01731061 0 0 Z " fill="#FEFEFE" transform="translate(28.275811195373535,-0.13701438903808594)"/>
<path d="M0 0 C0.96307135 -0.00397774 0.96307135 -0.00397774 1.94559869 -0.00803584 C4.11172394 -0.01573694 6.27779259 -0.01628832 8.44393063 -0.01688576 C10.00681812 -0.02089986 11.56970457 -0.02533799 13.13258976 -0.03016531 C17.43910287 -0.0421427 21.74560478 -0.04778197 26.0521313 -0.05234647 C30.69240247 -0.05829821 35.33266021 -0.06990918 39.97292233 -0.08063698 C51.18575446 -0.10517169 62.39859104 -0.11979016 73.61144176 -0.13269705 C76.77799511 -0.13640834 79.94454801 -0.14038163 83.11110091 -0.14444971 C102.77073083 -0.16968672 122.43036143 -0.19174206 142.09000397 -0.20417786 C146.6449048 -0.20710761 151.19980561 -0.21006926 155.75470638 -0.21308327 C156.88682039 -0.21382932 158.01893439 -0.21457537 159.18535488 -0.21534403 C177.52399149 -0.22799701 195.86253113 -0.26121858 214.20112241 -0.3028851 C233.0250129 -0.34530393 251.84885374 -0.36887288 270.6727919 -0.37409842 C281.24330522 -0.3775127 291.81366704 -0.38926989 302.38413334 -0.42220116 C311.38688145 -0.45020215 320.38944701 -0.46120077 329.39223529 -0.4500057 C333.98492022 -0.4448191 338.57722286 -0.44770587 343.16985226 -0.47247124 C347.37771578 -0.49497213 351.58492258 -0.49421758 355.79279768 -0.47526737 C357.31172743 -0.47246851 358.83070179 -0.47805965 360.34955985 -0.4930803 C369.23493849 -0.5755499 376.11553952 0.20170108 383.7241888 5.13701439 C384.6316888 5.69388939 385.5391888 6.25076439 386.4741888 6.82451439 C391.88426401 12.38486946 395.83351186 19.23717671 395.87135983 27.05776024 C395.88209278 28.58027649 395.88209278 28.58027649 395.89304256 30.13355064 C395.89573147 31.24634895 395.89842037 32.35914726 395.90119076 33.50566673 C395.90776196 34.67825539 395.91433315 35.85084404 395.92110348 37.05896568 C395.94084679 40.94695446 395.95250168 44.83492975 395.96247005 48.72295189 C395.96651835 50.06229358 395.97063529 51.40163506 395.97482014 52.74097633 C395.99386388 59.03234012 396.00809788 65.32369222 396.01643211 71.61507928 C396.02620867 78.87504165 396.05254214 86.13469946 396.092933 93.3945545 C396.12309281 99.00823741 396.13790074 104.62183299 396.14121312 110.23559535 C396.14356336 113.58765219 396.15251997 116.93938336 396.17767429 120.29135323 C396.2019343 124.03100884 396.20112448 127.76986333 396.19415951 131.50957298 C396.2133746 133.17269775 396.2133746 133.17269775 396.23297787 134.86942101 C396.18206623 142.35276695 396.18206623 142.35276695 393.87450314 146.30513573 C391.08022084 148.68561845 389.38273446 149.06384348 385.7241888 149.13701439 C382.22477733 148.43713209 380.24863887 147.60112962 377.57564449 145.2356472 C374.82308251 140.62890509 375.17650446 136.45680004 375.22589779 131.18388939 C375.21761959 129.52698082 375.21761959 129.52698082 375.20917416 127.83659935 C375.19985512 125.44070271 375.19974814 123.04475654 375.20776844 120.64885521 C375.2203795 116.85787215 375.20912551 113.06761917 375.19173336 109.27666283 C375.16227469 101.91399496 375.15941095 94.55153896 375.16138363 87.18883324 C375.16287215 77.18094184 375.14621077 67.17327503 375.10524845 57.16545677 C375.09539322 53.4289706 375.10413626 49.69282952 375.11394405 45.95635033 C375.10780081 43.66761103 375.1008894 41.37887362 375.09308529 39.09013939 C375.10466419 37.52991051 375.10466419 37.52991051 375.11647701 35.93816185 C375.11612286 29.02260636 375.11612286 29.02260636 371.7241888 23.13701439 C368.20102756 20.78824023 366.77709114 20.8857751 362.60620213 20.8825388 C361.31793951 20.8767066 360.02967689 20.87087441 358.70237601 20.86486548 C357.26438483 20.86849904 355.82639412 20.87232344 354.38840389 20.87631798 C352.86732494 20.87329934 351.34624751 20.86941131 349.82517278 20.86472541 C345.63439718 20.85439948 341.44370669 20.85663886 337.25292397 20.860906 C332.73749196 20.86336495 328.22208089 20.85436943 323.70665646 20.84686852 C314.85604192 20.83409602 306.00545768 20.83233101 297.15483548 20.83466878 C289.9629166 20.83644934 282.77100694 20.83470794 275.57908916 20.83044434 C274.55683095 20.82984915 273.53457274 20.82925396 272.481337 20.82864073 C270.40483726 20.82742902 268.32833752 20.82621489 266.25183778 20.82499836 C246.76248119 20.81411289 227.27314188 20.81629001 207.78378431 20.8223832 C189.94295131 20.82755266 172.10217291 20.81629794 154.26135071 20.79728498 C135.95615553 20.77792624 117.65098621 20.76964717 99.34578073 20.77340823 C89.06331517 20.77532334 78.78089607 20.77280269 68.49843884 20.7586937 C59.74443558 20.74680388 50.99050738 20.74534792 42.23650314 20.75748386 C37.76807609 20.76338961 33.2997865 20.7644254 28.83136845 20.75248146 C24.74293707 20.74168002 20.6547589 20.74465709 16.56633966 20.75874314 C15.08519284 20.761406 13.60402655 20.75897406 12.12289877 20.75100728 C10.11324011 20.74094569 8.10351043 20.75108761 6.09385777 20.76228428 C4.97644817 20.76222926 3.85903857 20.76217425 2.70776808 20.76211756 C-0.72014924 21.19284697 -2.55388006 22.02661912 -5.2758112 24.13701439 C-7.90875676 27.61303969 -7.55691789 31.56982051 -7.5330801 35.75237751 C-7.53658618 36.52708168 -7.54009225 37.30178585 -7.54370457 38.0999659 C-7.55305247 40.71133927 -7.54808656 43.32249128 -7.54323673 45.93387413 C-7.54697128 47.81879851 -7.55157201 49.70372134 -7.55696738 51.5886417 C-7.56923682 56.78048813 -7.56893229 61.97227032 -7.56657863 67.16412795 C-7.56617146 72.75862607 -7.57719995 78.35310332 -7.58669376 83.94759178 C-7.60332584 94.91230805 -7.60880429 105.87700282 -7.60991852 116.84173065 C-7.61086785 125.75082618 -7.6149724 134.65991459 -7.62131977 143.56900787 C-7.63606931 164.70023242 -7.64836888 185.83145184 -7.64732265 206.96268177 C-7.64727592 207.97664724 -7.64727592 207.97664724 -7.64722824 209.01109687 C-7.64706202 212.43735677 -7.64686394 215.86361667 -7.64665882 219.28987657 C-7.64661893 219.97036465 -7.64657904 220.65085274 -7.64653794 221.35196167 C-7.64645707 222.72807423 -7.64637347 224.10418679 -7.64628716 225.48029936 C-7.64506131 246.89625299 -7.66008013 268.31214332 -7.68743229 289.72807884 C-7.71813719 313.77912594 -7.73534043 337.83012057 -7.73350585 361.88119274 C-7.73284084 374.61952053 -7.73838137 387.35777693 -7.75986195 400.09608841 C-7.77803006 410.93980896 -7.78245707 421.78342574 -7.7688431 432.62715488 C-7.7622916 438.16292817 -7.76227469 443.69850214 -7.7795496 449.23425674 C-7.79518905 454.29785534 -7.79251072 459.36109506 -7.77498133 464.42468441 C-7.77189123 466.26044403 -7.77561875 468.09622984 -7.78670149 469.93195861 C-7.80073431 472.42034873 -7.79030694 474.90746459 -7.77358913 477.39581013 C-7.78352549 478.11471754 -7.79346185 478.83362494 -7.80369931 479.57431743 C-7.75330223 483.10301298 -7.33271634 485.04684438 -5.43220007 488.05833966 C-1.91005983 491.45354541 1.15352192 491.26372844 5.84217548 491.27123547 C7.77456941 491.27792223 7.77456941 491.27792223 9.7460016 491.28474408 C11.18399232 491.28465478 12.62198303 491.28446492 14.05997372 491.28418541 C15.58105171 491.2874839 17.10212883 491.29120944 18.62320483 491.29532689 C22.81395577 491.30535634 27.0046924 491.30906519 31.19545364 491.3117162 C35.71088236 491.31561634 40.22629969 491.32519475 44.74172115 491.33392906 C55.65048531 491.35369963 66.55925041 491.36375954 77.46802801 491.37265685 C82.60178211 491.37703798 87.73553517 491.38240517 92.86928844 491.38764572 C109.92832316 491.40465709 126.98735722 491.41915281 144.04639912 491.42639446 C148.47415194 491.42830443 152.90190475 491.43022476 157.32965755 491.4321804 C158.43018635 491.43266414 159.53071514 491.43314789 160.66459329 491.43364628 C178.50543655 491.4419524 196.34621289 491.46729953 214.1870269 491.49976108 C232.49221826 491.53279689 250.79737555 491.55083999 269.10259688 491.5540387 C279.38508639 491.55620682 289.66747826 491.56499961 299.94993877 491.59049988 C308.70394988 491.61215924 317.45783961 491.62028078 326.21187447 491.6105331 C330.6803476 491.60597478 335.14857008 491.60796313 339.61700916 491.62729454 C343.70549586 491.64482995 347.79354725 491.64400749 351.88203795 491.62839725 C353.36319016 491.62600647 354.84437175 491.63042032 356.32547884 491.6422259 C358.33510586 491.65725546 360.34488084 491.6453309 362.35451984 491.63199902 C363.47192944 491.63297582 364.58933903 491.63395263 365.74060953 491.63495904 C369.41110601 491.0223713 371.07600555 489.69914469 373.7241888 487.13701439 C375.2386131 484.10816579 374.86843103 480.96810093 374.86603451 477.64555931 C374.86950893 476.87301308 374.87298336 476.10046684 374.87656307 475.30451012 C374.88392378 473.62391634 374.88926748 471.94331282 374.89285374 470.26270676 C374.90001143 467.6021019 374.91567295 464.94168231 374.93419552 462.28113365 C374.98669617 454.71546033 375.03464148 447.14988742 375.05011654 439.58403587 C375.06019874 434.95850273 375.08953027 430.33343384 375.13143635 425.70808411 C375.14374923 423.94549445 375.14886707 422.18283923 375.14663792 420.42020798 C375.14428459 417.9518527 375.16645251 415.48482843 375.19415951 413.01665306 C375.1875581 412.28971245 375.18095669 411.56277184 375.17415524 410.81380272 C375.26297105 405.99023581 376.2725138 403.50330352 379.7241888 400.13701439 C384.00917193 398.08767463 387.18299195 397.65618933 391.7241888 399.13701439 C394.78444653 402.04511097 395.66664386 403.71225939 396.2388525 407.93588829 C396.26553166 409.43719528 396.27035358 410.93899102 396.25763607 412.44048119 C396.26625164 413.26395546 396.27486721 414.08742973 396.28374386 414.93585777 C396.30640833 417.65297132 396.2996611 420.36905318 396.29059505 423.08623314 C396.29583267 424.98327502 396.30210966 426.88031429 396.30937862 428.77734947 C396.31978544 432.75437731 396.3152207 436.73104747 396.30060482 440.70805931 C396.28346915 445.78437389 396.306846 450.85955102 396.34209442 455.93573856 C396.36415236 459.85566152 396.36260582 463.77531625 396.35432911 467.69528198 C396.35351316 469.56543088 396.36030786 471.43560019 396.37510014 473.30569077 C396.4994757 491.88571872 396.4994757 491.88571872 390.7241888 500.13701439 C390.1673138 501.04451439 389.6104388 501.95201439 389.0366888 502.88701439 C382.89691334 508.86084997 375.97346747 512.25671817 367.44837761 512.27402878 C366.80633004 512.2766806 366.16428247 512.27933243 365.50277892 512.28206462 C363.33665366 512.28976572 361.17058502 512.2903171 359.00444698 512.29091454 C357.44155949 512.29492864 355.87867304 512.29936677 354.31578785 512.30419409 C350.00927474 512.31617148 345.70277283 512.32181075 341.39624631 512.32637525 C336.75597514 512.33232699 332.1157174 512.34393796 327.47545528 512.35466576 C316.26262315 512.37920047 305.04978657 512.39381893 293.83693585 512.40672582 C290.6703825 512.41043712 287.5038296 512.41441041 284.3372767 512.41847849 C264.67764678 512.4437155 245.01801618 512.46577084 225.35837364 512.47820663 C220.80347281 512.48113639 216.248572 512.48409804 211.69367123 512.48711205 C210.56155722 512.4878581 209.42944322 512.48860415 208.26302273 512.4893728 C189.92438612 512.50202579 171.58584648 512.53524735 153.2472552 512.57691388 C134.42336471 512.61933271 115.59952387 512.64290166 96.77558571 512.6481272 C86.20507239 512.65154148 75.63471057 512.66329867 65.06424427 512.69622993 C56.06149616 512.72423093 47.0589306 512.73522955 38.05614232 512.72403447 C33.46345739 512.71884788 28.87115475 512.72173465 24.27852535 512.74650002 C20.07066183 512.76900091 15.86345503 512.76824636 11.65557993 512.74929614 C10.13665018 512.74649728 8.61767582 512.75208843 7.09881776 512.76710908 C-1.78656088 512.84957868 -8.66716191 512.07232769 -16.2758112 507.13701439 C-17.1833112 506.58013939 -18.0908112 506.02326439 -19.0258112 505.44951439 C-25.51374826 498.78135685 -28.42765083 491.64724519 -28.41282558 482.48687458 C-28.41547741 481.69625013 -28.41812924 480.90562568 -28.42086142 480.09104291 C-28.42857205 477.41950088 -28.42911427 474.74800468 -28.42971134 472.07645226 C-28.43372481 470.15058254 -28.43816284 468.22471367 -28.4429909 466.29884583 C-28.45497526 460.98899408 -28.46060917 455.67915143 -28.46517205 450.3692888 C-28.47112112 444.64925435 -28.48273272 438.92923082 -28.49346256 433.20920372 C-28.51800288 419.38603956 -28.53261629 405.56287178 -28.54552263 391.73969254 C-28.54923343 387.83666299 -28.55320676 383.93363379 -28.5572753 380.0306046 C-28.58251111 355.80369745 -28.60458473 331.57679074 -28.61700344 307.34987354 C-28.61992478 301.73619586 -28.6228923 296.1225182 -28.62590885 290.50884056 C-28.62627976 289.81141043 -28.62665067 289.1139803 -28.62703282 288.39541592 C-28.63918651 265.7864779 -28.67012724 243.17761776 -28.71183038 220.56871631 C-28.75583791 196.66691131 -28.78153836 172.76515793 -28.786924 148.86331135 C-28.79033998 135.83359094 -28.80211716 122.80399337 -28.83502674 109.77431107 C-28.86300637 98.67817764 -28.8740357 87.58219224 -28.86283128 76.48602628 C-28.85763932 70.82402826 -28.86056674 65.16234031 -28.88529682 59.50038719 C-28.90775406 54.31554066 -28.90707652 49.13122758 -28.88809295 43.94637192 C-28.88528802 42.07212995 -28.89091877 40.19785208 -28.90590589 38.32366794 C-29.03988238 20.47612694 -29.03988238 20.47612694 -23.2758112 12.13701439 C-22.7189362 11.22951439 -22.1620612 10.32201439 -21.5883112 9.38701439 C-15.44853573 3.4131788 -8.52508986 0.01731061 0 0 Z " fill="#000000" transform="translate(28.275811195373535,-0.13701438903808594)"/>
<path d="M0 0 C7.60269288 6.17361527 13.96331592 15.32253482 15.53515625 25.234375 C16.58305758 44.80191721 10.01492474 57.63210601 0.09765625 74.359375 C-1.14252611 76.46839786 -2.38208813 78.57778561 -3.62109375 80.6875 C-4.2553125 81.76580078 -4.88953125 82.84410156 -5.54296875 83.95507812 C-8.68968483 89.32432233 -11.79642994 94.71645691 -14.90234375 100.109375 C-15.83518188 101.72803467 -15.83518188 101.72803467 -16.78686523 103.37939453 C-18.04934106 105.57020451 -19.31162931 107.7611226 -20.57373047 109.95214844 C-23.70164523 115.38097442 -26.83342823 120.80756781 -29.96484375 126.234375 C-31.21486254 128.40103083 -32.46486253 130.5676975 -33.71484375 132.734375 C-36.21484375 137.06770833 -38.71484375 141.40104167 -41.21484375 145.734375 C-41.83367432 146.80703613 -42.45250488 147.87969727 -43.09008789 148.98486328 C-44.33919893 151.14994571 -45.58838504 153.31498482 -46.83764648 155.47998047 C-49.97686684 160.92053206 -53.11474938 166.36184716 -56.25 171.8046875 C-59.98308394 178.28425806 -63.72229183 184.76026911 -67.46484375 191.234375 C-68.0990625 192.33249512 -68.73328125 193.43061523 -69.38671875 194.56201172 C-71.26361042 197.80890079 -73.14482949 201.05324328 -75.02734375 204.296875 C-75.58687744 205.2657666 -76.14641113 206.2346582 -76.72290039 207.23291016 C-79.16912915 211.43855183 -81.65330028 215.57324739 -84.39453125 219.59375 C-87.89712331 224.76822918 -90.94516715 230.18396816 -94.01211548 235.62460327 C-95.05094077 237.4636491 -96.09697815 239.29841182 -97.14526367 241.13208008 C-100.46987182 246.94918699 -103.76998807 252.77674357 -107.01171875 258.640625 C-112.730157 268.85404913 -117.48529567 276.78668344 -127.46484375 283.234375 C-129.06235282 284.38115117 -130.65962263 285.52829142 -132.25097656 286.68359375 C-134.00701855 287.95234659 -135.77550988 289.20196541 -137.546875 290.44921875 C-141.9584386 293.56931718 -146.30617922 296.77407434 -150.65234375 299.984375 C-151.84186646 300.86234741 -151.84186646 300.86234741 -153.05541992 301.75805664 C-156.39539333 304.22457589 -159.73369826 306.69334377 -163.07128906 309.16308594 C-164.80469119 310.44553216 -166.53849044 311.72744179 -168.27270508 313.00878906 C-169.89847056 314.21000773 -171.52336048 315.41241264 -173.1472168 316.61621094 C-175.24558552 318.16629549 -177.35104579 319.70541294 -179.46484375 321.234375 C-180.04145752 321.65235352 -180.61807129 322.07033203 -181.2121582 322.50097656 C-185.16377083 325.26581743 -187.61722163 325.93948367 -192.46484375 325.234375 C-195.21813396 323.43875095 -196.99111836 322.18182578 -198.46484375 319.234375 C-199.11642395 309.64921492 -197.92421838 300.03827426 -196.92578125 290.515625 C-196.84500965 289.73623062 -196.76423805 288.95683624 -196.68101883 288.15382385 C-196.25348947 284.03485238 -195.81818424 279.91678929 -195.37646484 275.79931641 C-194.92603983 271.58555482 -194.5033532 267.36948896 -194.08684349 263.15225983 C-193.75755755 259.87140066 -193.40728246 256.59301462 -193.05156326 253.31492615 C-192.88673911 251.76265428 -192.72958126 250.20954569 -192.58079147 248.65565491 C-191.62937802 238.81142072 -189.61646828 230.85369042 -184.46484375 222.234375 C-184.05460968 221.50801346 -183.64437561 220.78165192 -183.22171021 220.03327942 C-182.18870844 218.20463214 -181.1139516 216.40663056 -180.02734375 214.609375 C-179.15642435 213.14780682 -178.28671424 211.68551763 -177.41796875 210.22265625 C-176.94810547 209.43197754 -176.47824219 208.64129883 -175.99414062 207.82666016 C-173.05131867 202.83833265 -170.16750844 197.81583092 -167.27734375 192.796875 C-166.63998291 191.69069824 -166.00262207 190.58452148 -165.34594727 189.44482422 C-164.03721959 187.17313835 -162.72870891 184.90132745 -161.42041016 182.62939453 C-158.27152321 177.1626752 -155.11801111 171.69862613 -151.96484375 166.234375 C-150.71482025 164.06772189 -149.46482028 161.90105521 -148.21484375 159.734375 C-110.71484375 94.734375 -110.71484375 94.734375 -108.83837891 91.48217773 C-107.59286688 89.323063 -106.34774742 87.16372177 -105.10302734 85.00415039 C-101.9126001 79.46998299 -98.71471521 73.94033949 -95.50390625 68.41796875 C-87.36082347 54.41553154 -87.36082347 54.41553154 -79.65234375 40.171875 C-59.03679099 0.59097593 -59.03679099 0.59097593 -40.46484375 -6.765625 C-26.36919193 -10.88129944 -11.95696715 -8.56505412 0 0 Z " fill="#020101" transform="translate(496.46484375,132.765625)"/>
<path d="M0 0 C2.38965845 1.89829377 4.70833842 3.85080459 7.015625 5.84765625 C8.2221875 6.75257812 8.2221875 6.75257812 9.453125 7.67578125 C12.53973207 10.29186895 14.92010913 13.15859594 17.390625 16.34765625 C18.10907593 17.27143066 18.10907593 17.27143066 18.84204102 18.21386719 C35.34125633 39.81304187 40.07497348 62.94332913 37.390625 89.53515625 C34.76696106 106.5797982 26.47639857 123.08497037 15.015625 135.84765625 C14.15324219 136.81574219 13.29085937 137.78382813 12.40234375 138.78125 C-3.5094185 155.97728341 -25.47634691 166.03083895 -48.87890625 167.12890625 C-74.97725926 167.85413933 -98.36906915 159.8286019 -117.55371094 141.86401367 C-135.23592008 124.56672012 -145.64636801 101.37263697 -146.45483398 76.60986328 C-146.67589598 55.4719515 -140.59068109 36.95122127 -127.984375 19.84765625 C-127.31792969 18.92210937 -126.65148437 17.9965625 -125.96484375 17.04296875 C-112.19624057 -0.9916024 -90.66074137 -12.97235573 -68.45751953 -16.83154297 C-44.55286343 -19.93230488 -19.60768223 -14.14114255 0 0 Z " fill="#020202" transform="translate(265.984375,71.15234375)"/>
<path d="M0 0 C9.11182711 4.69784233 18.03274055 9.68691758 26.875 14.875 C28.34670654 15.73194458 28.34670654 15.73194458 29.84814453 16.60620117 C31.2188208 17.4160144 31.2188208 17.4160144 32.6171875 18.2421875 C33.43815918 18.7254248 34.25913086 19.20866211 35.10498047 19.70654297 C37 21 37 21 38 23 C36.98706055 25.25219727 36.98706055 25.25219727 35.38671875 28.06640625 C34.80349854 29.10015381 34.22027832 30.13390137 33.61938477 31.19897461 C32.98186279 32.30893799 32.34434082 33.41890137 31.6875 34.5625 C31.04031006 35.70275635 30.39312012 36.8430127 29.72631836 38.01782227 C25.44376977 45.54242425 21.08818686 53.02208708 16.671875 60.46875 C13.33998092 66.09867855 10.07852327 71.7691917 6.8125 77.4375 C6.17449463 78.54472412 5.53648926 79.65194824 4.87915039 80.79272461 C3.57110523 83.06337068 2.26324552 85.33412358 0.95556641 87.60498047 C-2.19332054 93.0716998 -5.34683264 98.53574887 -8.5 104 C-9.7500235 106.16665311 -11.00002347 108.33331979 -12.25 110.5 C-14.75 114.83333333 -17.25 119.16666667 -19.75 123.5 C-20.36883057 124.57266113 -20.98766113 125.64532227 -21.62524414 126.75048828 C-22.87435518 128.91557071 -24.12354129 131.08060982 -25.37280273 133.24560547 C-28.51202309 138.68615706 -31.64990563 144.12747216 -34.78515625 149.5703125 C-36.04416133 151.75527143 -37.3032753 153.94016763 -38.5625 156.125 C-39.48035278 157.71755615 -39.48035278 157.71755615 -40.41674805 159.34228516 C-45.44688756 168.06083939 -50.51594986 176.75639952 -55.60961914 185.43798828 C-56.15739014 186.37368652 -56.70516113 187.30938477 -57.26953125 188.2734375 C-57.99039917 189.50199463 -57.99039917 189.50199463 -58.72583008 190.75537109 C-59.89065152 192.80736732 -60.96791373 194.87870875 -62 197 C-66.04025743 195.50339959 -69.6649547 193.58383451 -73.40234375 191.4453125 C-74.00252823 191.10249237 -74.60271271 190.75967224 -75.22108459 190.40646362 C-76.48511088 189.68349698 -77.74823428 188.95894969 -79.01049805 188.23291016 C-80.92591639 187.13165988 -82.84453389 186.03615872 -84.76367188 184.94140625 C-90.2892834 181.77677494 -95.73260496 178.57974449 -101 175 C-94.71895064 162.82802857 -87.81992386 151.0418852 -80.88964844 139.23095703 C-77.75753357 133.87560715 -74.65949655 128.50071228 -71.5625 123.125 C-70.94044678 122.04565186 -70.31839355 120.96630371 -69.67749023 119.85424805 C-68.41519376 117.66367265 -67.1530683 115.47299869 -65.89111328 113.28222656 C-62.76319852 107.85340058 -59.63141552 102.42680719 -56.5 97 C-55.24998121 94.83334417 -53.99998122 92.6666775 -52.75 90.5 C-49 84 -49 84 -45.25 77.5 C-44.63116943 76.42733887 -44.01233887 75.35467773 -43.37475586 74.24951172 C-42.12564482 72.08442929 -40.87645871 69.91939018 -39.62719727 67.75439453 C-36.48797691 62.31384294 -33.35009437 56.87252784 -30.21484375 51.4296875 C-23.9556259 40.56606178 -17.68317015 29.71028867 -11.375 18.875 C-10.8070874 17.89772949 -10.2391748 16.92045898 -9.65405273 15.91357422 C-6.52570836 10.54869079 -3.32144394 5.24763448 0 0 Z " fill="#FDBA52" transform="translate(431,190)"/>
<path d="M0 0 C1.02351563 0.350625 2.04703125 0.70125 3.1015625 1.0625 C20.32259601 7.47032642 34.34381291 21.48721923 41.96386719 38.1015625 C49.64804519 56.37744531 50.33587857 76.29785898 43 95 C40.62215782 100.18280346 38.16582905 105.25125643 35 110 C31.74698204 108.6068597 29.96613784 107.05039845 27.75 104.3125 C21.93786251 97.48848295 15.86078776 92.61399601 7.90625 88.45703125 C7.2771875 87.97621094 6.648125 87.49539062 6 87 C6 82.78971978 6.65024428 81.45549113 8.5 77.8125 C12.77965087 67.90747235 12.80956518 54.12497769 9 44 C5.36864918 36.69706179 1.1277543 31.05994796 -6 27 C-6.70382813 26.58878906 -7.40765625 26.17757812 -8.1328125 25.75390625 C-16.70424591 21.55535667 -27.541265 21.19243208 -36.55078125 24.17578125 C-39.52890655 25.61106704 -42.24914749 27.17048565 -45 29 C-45.61230469 29.38285156 -46.22460938 29.76570313 -46.85546875 30.16015625 C-52.72014047 34.36643751 -56.69938458 41.64763638 -58.375 48.5625 C-60.06511911 59.85961192 -60.34447961 70.241011 -55.09375 80.58203125 C-54 83 -54 83 -54 87 C-56.10939094 88.56228666 -58.10681865 89.83716636 -60.375 91.125 C-67.96618992 95.69669259 -74.42453658 101.0147339 -79.64453125 108.29296875 C-80.09183594 108.85628906 -80.53914062 109.41960937 -81 110 C-81.66 110 -82.32 110 -83 110 C-94.08807072 95.39542685 -97.16596041 75.87099316 -96 58 C-92.86129043 38.5498864 -82.48956286 21.44370133 -66.8125 9.58984375 C-47.05673446 -4.19821215 -22.79835523 -8.55641974 0 0 Z " fill="#FB6462" transform="translate(236,78)"/>
<path d="M0 0 C1.23233368 -0.00860046 2.46466736 -0.01720093 3.73434448 -0.02606201 C5.10237079 -0.03049709 6.47039755 -0.03479546 7.83842468 -0.03897095 C9.27739153 -0.04687351 10.71635641 -0.05514256 12.15531921 -0.06375122 C16.88259493 -0.08995062 21.60987943 -0.10527545 26.33720398 -0.11953735 C27.96502882 -0.12489764 29.5928536 -0.13027515 31.22067833 -0.13566971 C37.99167902 -0.15729419 44.76267733 -0.17603119 51.5337038 -0.1872921 C61.23581131 -0.20353439 70.93751855 -0.23672356 80.63947517 -0.29369295 C87.46250296 -0.3323913 94.28542369 -0.35192457 101.10855836 -0.35721266 C105.18336673 -0.36086592 109.25774798 -0.37288411 113.33243752 -0.4053154 C117.16653746 -0.4353951 120.99995182 -0.4417087 124.83414459 -0.42993164 C126.23941542 -0.4297109 127.64471806 -0.43801657 129.04987907 -0.45558548 C140.98589416 -0.59667176 140.98589416 -0.59667176 144.92062378 2.56365967 C147.52476868 5.6602785 148.17378093 7.23281043 148.41142273 11.15390015 C147.83328662 14.85397125 145.76344643 16.61330778 143.09892273 19.15390015 C140.40773605 20.49949348 138.32591586 20.28600577 135.31137085 20.29434204 C133.46276459 20.30290726 133.46276459 20.30290726 131.57681274 20.31164551 C130.20356761 20.31289093 128.83032235 20.31401601 127.45707703 20.31503296 C126.01663587 20.31966025 124.57619594 20.32468479 123.13575745 20.33007812 C119.21624414 20.34321353 115.29674798 20.3496494 111.3772161 20.35408878 C108.929177 20.35701792 106.48114259 20.36112245 104.03310585 20.36559296 C96.37592677 20.37927145 88.71875842 20.38893614 81.06156796 20.39279485 C72.21860144 20.39727537 63.37578951 20.41482146 54.53286999 20.44379544 C47.70053308 20.4654055 40.86823967 20.47549878 34.03586894 20.47683597 C29.95393328 20.47788457 25.87214287 20.48380383 21.79024315 20.50165558 C17.94971366 20.51812446 14.10943877 20.52029764 10.26888657 20.51151657 C8.8599905 20.51074553 7.45108082 20.51509778 6.04221916 20.52497482 C4.11732949 20.53767705 2.19233773 20.53003207 0.26742554 20.52139282 C-0.80939641 20.52285938 -1.88621836 20.52432594 -2.99567127 20.52583694 C-7.13423597 19.99603681 -9.72045353 18.21646151 -12.77607727 15.46640015 C-14.49619788 11.93059667 -14.03491841 8.85981046 -12.90107727 5.15390015 C-9.2387212 0.39283726 -5.75494689 0.02987348 0 0 Z " fill="#000000" transform="translate(127.90107727050781,381.8460998535156)"/>
<path d="M0 0 C1.23233368 -0.00860046 2.46466736 -0.01720093 3.73434448 -0.02606201 C5.10237079 -0.03049709 6.47039755 -0.03479546 7.83842468 -0.03897095 C9.27739153 -0.04687351 10.71635641 -0.05514256 12.15531921 -0.06375122 C16.88259493 -0.08995062 21.60987943 -0.10527545 26.33720398 -0.11953735 C27.96502882 -0.12489764 29.5928536 -0.13027515 31.22067833 -0.13566971 C37.99167902 -0.15729419 44.76267733 -0.17603119 51.5337038 -0.1872921 C61.23581131 -0.20353439 70.93751855 -0.23672356 80.63947517 -0.29369295 C87.46250296 -0.3323913 94.28542369 -0.35192457 101.10855836 -0.35721266 C105.18336673 -0.36086592 109.25774798 -0.37288411 113.33243752 -0.4053154 C117.16653746 -0.4353951 120.99995182 -0.4417087 124.83414459 -0.42993164 C126.23941542 -0.4297109 127.64471806 -0.43801657 129.04987907 -0.45558548 C140.98589416 -0.59667176 140.98589416 -0.59667176 144.92062378 2.56365967 C147.52476868 5.6602785 148.17378093 7.23281043 148.41142273 11.15390015 C147.83328662 14.85397125 145.76344643 16.61330778 143.09892273 19.15390015 C140.40773605 20.49949348 138.32591586 20.28600577 135.31137085 20.29434204 C133.46276459 20.30290726 133.46276459 20.30290726 131.57681274 20.31164551 C130.20356761 20.31289093 128.83032235 20.31401601 127.45707703 20.31503296 C126.01663587 20.31966025 124.57619594 20.32468479 123.13575745 20.33007812 C119.21624414 20.34321353 115.29674798 20.3496494 111.3772161 20.35408878 C108.929177 20.35701792 106.48114259 20.36112245 104.03310585 20.36559296 C96.37592677 20.37927145 88.71875842 20.38893614 81.06156796 20.39279485 C72.21860144 20.39727537 63.37578951 20.41482146 54.53286999 20.44379544 C47.70053308 20.4654055 40.86823967 20.47549878 34.03586894 20.47683597 C29.95393328 20.47788457 25.87214287 20.48380383 21.79024315 20.50165558 C17.94971366 20.51812446 14.10943877 20.52029764 10.26888657 20.51151657 C8.8599905 20.51074553 7.45108082 20.51509778 6.04221916 20.52497482 C4.11732949 20.53767705 2.19233773 20.53003207 0.26742554 20.52139282 C-0.80939641 20.52285938 -1.88621836 20.52432594 -2.99567127 20.52583694 C-7.13423597 19.99603681 -9.72045353 18.21646151 -12.77607727 15.46640015 C-14.49619788 11.93059667 -14.03491841 8.85981046 -12.90107727 5.15390015 C-9.2387212 0.39283726 -5.75494689 0.02987348 0 0 Z " fill="#000000" transform="translate(127.90107727050781,325.8460998535156)"/>
<path d="M0 0 C1.23233368 -0.00860046 2.46466736 -0.01720093 3.73434448 -0.02606201 C5.10237079 -0.03049709 6.47039755 -0.03479546 7.83842468 -0.03897095 C9.27739153 -0.04687351 10.71635641 -0.05514256 12.15531921 -0.06375122 C16.88259493 -0.08995062 21.60987943 -0.10527545 26.33720398 -0.11953735 C27.96502882 -0.12489764 29.5928536 -0.13027515 31.22067833 -0.13566971 C37.99167902 -0.15729419 44.76267733 -0.17603119 51.5337038 -0.1872921 C61.23581131 -0.20353439 70.93751855 -0.23672356 80.63947517 -0.29369295 C87.46250296 -0.3323913 94.28542369 -0.35192457 101.10855836 -0.35721266 C105.18336673 -0.36086592 109.25774798 -0.37288411 113.33243752 -0.4053154 C117.16653746 -0.4353951 120.99995182 -0.4417087 124.83414459 -0.42993164 C126.23941542 -0.4297109 127.64471806 -0.43801657 129.04987907 -0.45558548 C140.98589416 -0.59667176 140.98589416 -0.59667176 144.92062378 2.56365967 C147.52476868 5.6602785 148.17378093 7.23281043 148.41142273 11.15390015 C147.83328662 14.85397125 145.76344643 16.61330778 143.09892273 19.15390015 C140.40773605 20.49949348 138.32591586 20.28600577 135.31137085 20.29434204 C133.46276459 20.30290726 133.46276459 20.30290726 131.57681274 20.31164551 C130.20356761 20.31289093 128.83032235 20.31401601 127.45707703 20.31503296 C126.01663587 20.31966025 124.57619594 20.32468479 123.13575745 20.33007812 C119.21624414 20.34321353 115.29674798 20.3496494 111.3772161 20.35408878 C108.929177 20.35701792 106.48114259 20.36112245 104.03310585 20.36559296 C96.37592677 20.37927145 88.71875842 20.38893614 81.06156796 20.39279485 C72.21860144 20.39727537 63.37578951 20.41482146 54.53286999 20.44379544 C47.70053308 20.4654055 40.86823967 20.47549878 34.03586894 20.47683597 C29.95393328 20.47788457 25.87214287 20.48380383 21.79024315 20.50165558 C17.94971366 20.51812446 14.10943877 20.52029764 10.26888657 20.51151657 C8.8599905 20.51074553 7.45108082 20.51509778 6.04221916 20.52497482 C4.11732949 20.53767705 2.19233773 20.53003207 0.26742554 20.52139282 C-0.80939641 20.52285938 -1.88621836 20.52432594 -2.99567127 20.52583694 C-7.13423597 19.99603681 -9.72045353 18.21646151 -12.77607727 15.46640015 C-14.49619788 11.93059667 -14.03491841 8.85981046 -12.90107727 5.15390015 C-9.2387212 0.39283726 -5.75494689 0.02987348 0 0 Z " fill="#000000" transform="translate(127.90107727050781,269.8460998535156)"/>
<path d="M0 0 C5.56629936 4.26039551 11.5942303 9.08701819 14.5 15.625 C12.98343482 20.17469554 9.6399158 21.0030193 5.5234375 23.140625 C-13.84419555 32.64928205 -33.10117329 34.3161815 -53.44042969 27.38671875 C-59.96142773 24.97496983 -66.02995491 21.92470986 -71.5 17.625 C-69.08090371 9.02376875 -60.78188259 2.23648497 -53.5 -2.375 C-35.83604594 -11.08321684 -16.65269166 -11.14371965 0 0 Z " fill="#A3DAFC" transform="translate(240.5,186.375)"/>
<path d="M0 0 C5.55611067 3.27372496 9.39284704 8.32281016 11.5625 14.375 C13.82394903 26.76110156 6.09959931 37.47030408 -0.4375 47.375 C-4.66197769 46.78083454 -7.66193666 45.31614741 -11.33203125 43.171875 C-12.45287109 42.52089844 -13.57371094 41.86992187 -14.72851562 41.19921875 C-15.90237607 40.50786737 -17.07620399 39.81646076 -18.25 39.125 C-19.41174751 38.44859686 -20.57385405 37.77280995 -21.73632812 37.09765625 C-27.6996045 33.61879359 -33.60858646 30.07453184 -39.4375 26.375 C-37.46380139 22.69356217 -35.45389909 19.03319193 -33.4375 15.375 C-32.71820313 14.01568359 -32.71820313 14.01568359 -31.984375 12.62890625 C-25.41803574 0.77702468 -13.47288088 -6.19649674 0 0 Z " fill="#FA6461" transform="translate(480.4375,146.625)"/>
<path d="M0 0 C1.16163162 -0.01606293 2.32326324 -0.03212585 3.52009583 -0.04867554 C8.82769233 -0.09313899 14.13514172 -0.1346191 19.44287109 -0.15722656 C22.24333392 -0.17056133 25.04306727 -0.19840769 27.84326172 -0.23925781 C31.87960048 -0.29813227 35.91515849 -0.31589436 39.9519043 -0.33056641 C41.2020784 -0.35323578 42.4522525 -0.37590515 43.74031067 -0.39926147 C53.42308256 -0.37569685 53.42308256 -0.37569685 57.11401367 2.59887695 C59.76901524 5.69472766 60.41187273 7.24524088 60.65112305 11.19287109 C60.07298694 14.8929422 58.00314675 16.65227873 55.33862305 19.19287109 C52.70612309 20.50912107 50.72300817 20.33443405 47.77490234 20.35400391 C46.6099675 20.36361145 45.44503265 20.37321899 44.24479675 20.38311768 C42.34797905 20.38949249 42.34797905 20.38949249 40.4128418 20.39599609 C38.47052422 20.4045462 38.47052422 20.4045462 36.4889679 20.41326904 C33.74426887 20.42377907 30.99959913 20.42962137 28.25488281 20.43310547 C24.74428147 20.43858318 21.23406936 20.46259509 17.7235899 20.49107742 C14.37001471 20.51422863 11.01649276 20.51615544 7.6628418 20.52099609 C6.40436935 20.5333429 5.14589691 20.5456897 3.84928894 20.55841064 C2.67489761 20.55540955 1.50050629 20.55240845 0.29052734 20.54931641 C-0.74046585 20.55296204 -1.77145905 20.55660767 -2.83369446 20.56036377 C-6.92137639 20.02911842 -9.51735765 18.22248847 -12.53637695 15.50537109 C-14.25649756 11.96956762 -13.7952181 8.8987814 -12.66137695 5.19287109 C-9.07014044 0.52426362 -5.65286367 0.07103803 0 0 Z " fill="#010101" transform="translate(215.661376953125,437.80712890625)"/>
<path d="M0 0 C3.59421934 1.78936351 6.40426957 4.35154204 8.21875 7.94921875 C10.02438226 14.52687912 10.11091081 22.30591691 7.53515625 28.62890625 C4.88496868 32.95650666 1.77417236 35.7067863 -3.125 37.33984375 C-8.74099916 37.70810599 -12.30165989 37.55540382 -17.125 34.33984375 C-22.24554346 29.27465752 -23.30308274 25.19273462 -23.4375 18.08984375 C-23.45050555 12.02853547 -23.10673348 8.05505445 -19.125 3.33984375 C-13.77598381 -1.74824483 -6.89593435 -2.14230313 0 0 Z " fill="#FBCAA9" transform="translate(219.125,120.66015625)"/>
<path d="M0 0 C6.15592494 2.30206747 11.64796793 5.70258683 17.3125 9 C18.43462891 9.64195312 19.55675781 10.28390625 20.71289062 10.9453125 C21.77314453 11.56148438 22.83339844 12.17765625 23.92578125 12.8125 C24.89942627 13.37582031 25.87307129 13.93914062 26.8762207 14.51953125 C27.57706787 15.00808594 28.27791504 15.49664062 29 16 C29 16.66 29 17.32 29 18 C27.07471611 19.52598868 25.14837008 20.92609152 23.125 22.3125 C21.8522744 23.20097809 20.58017143 24.09034855 19.30859375 24.98046875 C18.62007324 25.4604834 17.93155273 25.94049805 17.22216797 26.43505859 C12.36408967 29.85631567 7.57753103 33.37888627 2.77978516 36.8840332 C2.04163574 37.41988037 1.30348633 37.95572754 0.54296875 38.5078125 C-0.11678955 38.98879395 -0.77654785 39.46977539 -1.45629883 39.96533203 C-3 41 -3 41 -4 41 C-3.26443532 27.27791414 -1.56953744 13.64596893 0 0 Z " fill="#95D1F7" transform="translate(324,385)"/>
<path d="M0 0 C2.875 2.4375 2.875 2.4375 5 5 C5.33 5.33 5.66 5.66 6 6 C6.29322866 8.93228663 6.50004247 11.14491883 6 14 C3.5625 16.9375 3.5625 16.9375 1 19 C0.67 19.33 0.34 19.66 0 20 C-4.06218109 20.39059434 -6.30352594 20.43336164 -9.8125 18.25 C-13.18072289 14.78554217 -13.18072289 14.78554217 -14 12 C-13.79240625 7.12154698 -12.32268268 4.52405739 -9 1 C-5.86128812 -0.56935594 -3.46144178 -0.35201103 0 0 Z " fill="#090909" transform="translate(85,382)"/>
<path d="M0 0 C2.875 2.4375 2.875 2.4375 5 5 C5.33 5.33 5.66 5.66 6 6 C6.29322866 8.93228663 6.50004247 11.14491883 6 14 C3.5625 16.9375 3.5625 16.9375 1 19 C0.67 19.33 0.34 19.66 0 20 C-4.06218109 20.39059434 -6.30352594 20.43336164 -9.8125 18.25 C-13.18072289 14.78554217 -13.18072289 14.78554217 -14 12 C-13.79240625 7.12154698 -12.32268268 4.52405739 -9 1 C-5.86128812 -0.56935594 -3.46144178 -0.35201103 0 0 Z " fill="#090909" transform="translate(85,326)"/>
<path d="M0 0 C2.875 2.4375 2.875 2.4375 5 5 C5.33 5.33 5.66 5.66 6 6 C6.29322866 8.93228663 6.50004247 11.14491883 6 14 C3.5625 16.9375 3.5625 16.9375 1 19 C0.67 19.33 0.34 19.66 0 20 C-4.06218109 20.39059434 -6.30352594 20.43336164 -9.8125 18.25 C-13.18072289 14.78554217 -13.18072289 14.78554217 -14 12 C-13.79240625 7.12154698 -12.32268268 4.52405739 -9 1 C-5.86128812 -0.56935594 -3.46144178 -0.35201103 0 0 Z " fill="#090909" transform="translate(85,270)"/>
</svg>
