<?xml version="1.0" encoding="UTF-8"?>
<svg version="1.1" xmlns="http://www.w3.org/2000/svg" width="512" height="512">
<path d="M0 0 C1.06669418 -0.00570007 2.13338837 -0.01140015 3.23240662 -0.01727295 C5.48573831 -0.02669195 7.73908358 -0.03324456 9.99243164 -0.03710938 C13.39820149 -0.04677456 16.80335689 -0.07781173 20.20898438 -0.109375 C45.67315549 -0.2340643 68.32588221 5.10419998 87.11328125 23.375 C104.95757394 41.67424633 111.32001586 62.098822 111.23242188 87.18041992 C110.93904775 107.28792833 104.64694832 125.26025513 90.87109375 140.203125 C90.09894531 141.05519531 89.32679688 141.90726563 88.53125 142.78515625 C81.7015834 149.98166118 74.22196416 155.71123802 64.87109375 159.203125 C65.26941406 160.3890625 65.66773438 161.575 66.078125 162.796875 C72.16945824 181.27436709 75.06924428 198.83618689 74.93359375 218.328125 C74.92908203 219.57078125 74.92457031 220.8134375 74.91992188 222.09375 C74.90824299 225.13026002 74.89186515 228.16666588 74.87109375 231.203125 C75.64670654 231.34177979 76.42231934 231.48043457 77.22143555 231.62329102 C86.19830166 233.58773007 93.05327342 241.86885387 97.87109375 249.203125 C104.0938969 260.25508267 106.43231316 271.92962945 106.30859375 284.515625 C106.29723389 286.14975342 106.29723389 286.14975342 106.28564453 287.81689453 C105.94483165 304.57145497 100.92233276 318.66633319 89.30078125 330.97265625 C81.47957014 338.15257835 73.0414439 341.48669637 62.40625 341.3984375 C61.38899086 341.39419266 61.38899086 341.39419266 60.35118103 341.38986206 C58.21179609 341.37877916 56.07284945 341.3536986 53.93359375 341.328125 C52.47201131 341.31807976 51.01042222 341.30895663 49.54882812 341.30078125 C45.98944396 341.27887925 42.43031172 341.24443366 38.87109375 341.203125 C38.88487061 342.06035156 38.89864746 342.91757812 38.9128418 343.80078125 C39.14858141 368.9557934 28.78804171 389.77273134 11.74609375 407.765625 C-4.83701441 423.95988787 -27.13344328 432.30430095 -50.19775391 432.38012695 C-51.07831955 432.38669815 -51.95888519 432.39326935 -52.86613464 432.40003967 C-55.75841371 432.41963329 -58.65064142 432.43139852 -61.54296875 432.44140625 C-63.02992311 432.44751954 -63.02992311 432.44751954 -64.54691696 432.45375633 C-69.78518206 432.47454874 -75.02342142 432.48888479 -80.26171875 432.49829102 C-85.67004785 432.50939432 -91.07796995 432.54385864 -96.48615456 432.58346272 C-100.6502866 432.60957829 -104.81432033 432.61797791 -108.97852707 432.62157249 C-110.9728409 432.62644461 -112.96715016 432.63807634 -114.96138382 432.65661049 C-117.74753825 432.68091391 -120.53262007 432.68005411 -123.31884766 432.6730957 C-124.55176292 432.69231079 -124.55176292 432.69231079 -125.80958557 432.71191406 C-129.71497946 432.67634647 -131.73121484 432.43509077 -135.17953491 430.42375183 C-137.12890625 428.203125 -137.12890625 428.203125 -137.12890625 424.203125 C-143.39890625 424.203125 -149.66890625 424.203125 -156.12890625 424.203125 C-156.45890625 425.853125 -156.78890625 427.503125 -157.12890625 429.203125 C-159.59457701 432.11077059 -161.20418711 432.21047089 -165.03289795 432.58407593 C-166.64390556 432.60189317 -168.25514791 432.6030945 -169.86621094 432.59130859 C-171.18915916 432.59919403 -171.18915916 432.59919403 -172.53883362 432.60723877 C-175.45966242 432.62045627 -178.37994668 432.61168537 -181.30078125 432.6015625 C-183.34181828 432.60358489 -185.3828546 432.60649771 -187.42388916 432.61026001 C-191.71121062 432.61468753 -195.99834483 432.60824649 -200.28564453 432.59423828 C-205.73890773 432.57727603 -211.19172371 432.58690193 -216.64496994 432.60495567 C-220.86791229 432.61589345 -225.09075205 432.6122996 -229.31369781 432.6045723 C-231.32122095 432.60259096 -233.32875385 432.60495562 -235.33626556 432.61201096 C-262.17996183 432.68555291 -286.46003591 427.32145075 -306.3125 408.015625 C-307.24191406 407.0875 -308.17132813 406.159375 -309.12890625 405.203125 C-309.94488281 404.39875 -310.76085937 403.594375 -311.6015625 402.765625 C-327.73001383 385.94555912 -334.49956738 364.0909081 -334.12890625 341.203125 C-335.0103833 341.22407227 -335.89186035 341.24501953 -336.80004883 341.26660156 C-340.12323815 341.33545789 -343.44565141 341.38524962 -346.76928711 341.42285156 C-348.19779549 341.44276109 -349.62622463 341.46989929 -351.05444336 341.50488281 C-365.27927341 341.84416322 -375.65179392 339.14941246 -386.1875 329.2734375 C-397.75132887 317.3379922 -401.72572933 301.09858741 -401.56640625 284.890625 C-401.55883301 283.80120605 -401.55125977 282.71178711 -401.54345703 281.58935547 C-401.21434288 265.4099114 -396.54808334 251.21348138 -385.3515625 239.21875 C-381.12076926 235.38203767 -376.00643198 231.203125 -370.12890625 231.203125 C-370.14050781 230.17316406 -370.15210938 229.14320313 -370.1640625 228.08203125 C-370.20196088 223.4551336 -370.17860466 218.8298556 -370.12890625 214.203125 C-370.12310547 213.51976074 -370.11730469 212.83639648 -370.11132812 212.13232422 C-369.82726999 193.08622654 -365.96885859 173.58956114 -358.12890625 156.203125 C-357.84708496 155.56149414 -357.56526367 154.91986328 -357.27490234 154.25878906 C-350.00650777 137.94001913 -339.57468214 123.93218866 -327.12890625 111.203125 C-326.02482422 110.02363281 -326.02482422 110.02363281 -324.8984375 108.8203125 C-315.05431843 98.52791843 -303.26763058 90.53421837 -291.12890625 83.203125 C-290.47889648 82.80625488 -289.82888672 82.40938477 -289.15917969 82.00048828 C-257.6497619 62.96952464 -221.4067897 53.46081872 -185.12890625 49.203125 C-185.16242188 47.9965625 -185.1959375 46.79 -185.23046875 45.546875 C-185.21728411 35.56171003 -180.16948765 27.67131356 -173.609375 20.5546875 C-165.73576034 13.00674547 -156.06622781 10.43331437 -145.42407227 10.6159668 C-134.93802372 11.16823595 -126.86379297 15.35322183 -119.328125 22.59765625 C-112.60538355 30.56225402 -109.92774887 38.94409844 -110.12890625 49.203125 C-109.1999353 49.32373291 -109.1999353 49.32373291 -108.25219727 49.44677734 C-105.39804032 49.81974109 -102.54473727 50.19889634 -99.69140625 50.578125 C-98.71751953 50.70445313 -97.74363281 50.83078125 -96.74023438 50.9609375 C-90.77940333 51.75837309 -84.98013305 52.81141645 -79.12890625 54.203125 C-78.81953125 53.006875 -78.51015625 51.810625 -78.19140625 50.578125 C-71.97515303 31.98800923 -56.15476571 17.23817239 -39.19140625 8.328125 C-26.41197466 2.28071541 -13.97025404 0.05857287 0 0 Z M-115.9296875 66.8828125 C-116.42855469 67.60726562 -116.92742187 68.33171875 -117.44140625 69.078125 C-118.20904297 70.15707031 -118.20904297 70.15707031 -118.9921875 71.2578125 C-120.29707881 73.1154121 -120.29707881 73.1154121 -120.12890625 75.203125 C-120.68835938 75.47125 -121.2478125 75.739375 -121.82421875 76.015625 C-125.16815052 77.73860001 -128.31043882 79.76834918 -131.49609375 81.765625 C-134.12890625 83.203125 -134.12890625 83.203125 -140.12890625 85.203125 C-140.12890625 94.773125 -140.12890625 104.343125 -140.12890625 114.203125 C-119.99890625 114.203125 -99.86890625 114.203125 -79.12890625 114.203125 C-80.44890625 107.933125 -81.76890625 101.663125 -83.12890625 95.203125 C-83.37833146 90.52640227 -83.52943691 86.15602202 -83.37890625 81.515625 C-83.36085938 80.40896484 -83.3428125 79.30230469 -83.32421875 78.16210938 C-83.27826139 75.5080716 -83.21338759 72.85616411 -83.12890625 70.203125 C-100.11196915 64.70409775 -100.11196915 64.70409775 -115.9296875 66.8828125 Z M-318.52734375 125.44921875 C-344.14570127 151.26105274 -354.12001386 186.62291225 -354.19140625 222.140625 C-354.17078125 224.14125 -354.15015625 226.141875 -354.12890625 228.203125 C-347.52890625 228.203125 -340.92890625 228.203125 -334.12890625 228.203125 C-333.90976562 226.82382812 -333.690625 225.44453125 -333.46484375 224.0234375 C-328.65648694 194.99925021 -318.44886279 171.83043169 -298.12890625 150.203125 C-297.61328125 149.61144531 -297.09765625 149.01976562 -296.56640625 148.41015625 C-279.22126796 129.39374161 -249.2138758 117.31843106 -224.12890625 115.203125 C-218.91129097 115.00652418 -213.69318927 114.94671667 -208.47265625 114.88671875 C-206.95950803 114.86611477 -205.44636511 114.84511748 -203.93322754 114.82374573 C-199.97465346 114.7688803 -196.01603054 114.71931626 -192.05737305 114.67089844 C-188.00825722 114.62042188 -183.95921123 114.56487314 -179.91015625 114.50976562 C-171.98313068 114.40261946 -164.05604491 114.30154963 -156.12890625 114.203125 C-156.12890625 104.633125 -156.12890625 95.063125 -156.12890625 85.203125 C-160.50555487 83.11286046 -160.50555487 83.11286046 -164.89331055 81.04614258 C-172.08981794 77.52870751 -176.73549819 71.79323709 -181.12890625 65.203125 C-231.01364326 65.203125 -283.40287936 91.46531663 -318.52734375 125.44921875 Z M40.87109375 166.203125 C36.91613678 166.47308044 32.95724068 166.61683808 28.99609375 166.765625 C27.39121094 166.83040039 27.39121094 166.83040039 25.75390625 166.89648438 C23.12641621 167.00205317 20.49883953 167.10416291 17.87109375 167.203125 C18.26997803 167.913479 18.6688623 168.62383301 19.07983398 169.35571289 C29.71170397 188.38531229 35.38388039 206.83176716 38.87109375 228.203125 C45.47109375 228.203125 52.07109375 228.203125 58.87109375 228.203125 C59.230997 209.60812384 58.34885066 192.31765873 52.87109375 174.453125 C52.62214355 173.63626221 52.37319336 172.81939941 52.11669922 171.9777832 C51.32702433 169.47848291 51.32702433 169.47848291 49.87109375 166.203125 C46.24379535 164.99402553 44.65118345 165.56757146 40.87109375 166.203125 Z " fill="#FB4654" transform="translate(401.12890625,39.796875)"/>
<path d="M0 0 C1.06669418 -0.00570007 2.13338837 -0.01140015 3.23240662 -0.01727295 C5.48573831 -0.02669195 7.73908358 -0.03324456 9.99243164 -0.03710938 C13.39820149 -0.04677456 16.80335689 -0.07781173 20.20898438 -0.109375 C45.67315549 -0.2340643 68.32588221 5.10419998 87.11328125 23.375 C104.95757394 41.67424633 111.32001586 62.098822 111.23242188 87.18041992 C110.93904775 107.28792833 104.64694832 125.26025513 90.87109375 140.203125 C90.09894531 141.05519531 89.32679688 141.90726563 88.53125 142.78515625 C81.7015834 149.98166118 74.22196416 155.71123802 64.87109375 159.203125 C65.26941406 160.3890625 65.66773438 161.575 66.078125 162.796875 C72.16945824 181.27436709 75.06924428 198.83618689 74.93359375 218.328125 C74.92908203 219.57078125 74.92457031 220.8134375 74.91992188 222.09375 C74.90824299 225.13026002 74.89186515 228.16666588 74.87109375 231.203125 C75.64670654 231.34177979 76.42231934 231.48043457 77.22143555 231.62329102 C86.19830166 233.58773007 93.05327342 241.86885387 97.87109375 249.203125 C104.0938969 260.25508267 106.43231316 271.92962945 106.30859375 284.515625 C106.29723389 286.14975342 106.29723389 286.14975342 106.28564453 287.81689453 C105.94483165 304.57145497 100.92233276 318.66633319 89.30078125 330.97265625 C81.47957014 338.15257835 73.0414439 341.48669637 62.40625 341.3984375 C61.38899086 341.39419266 61.38899086 341.39419266 60.35118103 341.38986206 C58.21179609 341.37877916 56.07284945 341.3536986 53.93359375 341.328125 C52.47201131 341.31807976 51.01042222 341.30895663 49.54882812 341.30078125 C45.98944396 341.27887925 42.43031172 341.24443366 38.87109375 341.203125 C38.88487061 342.06035156 38.89864746 342.91757812 38.9128418 343.80078125 C39.14858141 368.9557934 28.78804171 389.77273134 11.74609375 407.765625 C-4.83701441 423.95988787 -27.13344328 432.30430095 -50.19775391 432.38012695 C-51.07831955 432.38669815 -51.95888519 432.39326935 -52.86613464 432.40003967 C-55.75841371 432.41963329 -58.65064142 432.43139852 -61.54296875 432.44140625 C-63.02992311 432.44751954 -63.02992311 432.44751954 -64.54691696 432.45375633 C-69.78518206 432.47454874 -75.02342142 432.48888479 -80.26171875 432.49829102 C-85.67004785 432.50939432 -91.07796995 432.54385864 -96.48615456 432.58346272 C-100.6502866 432.60957829 -104.81432033 432.61797791 -108.97852707 432.62157249 C-110.9728409 432.62644461 -112.96715016 432.63807634 -114.96138382 432.65661049 C-117.74753825 432.68091391 -120.53262007 432.68005411 -123.31884766 432.6730957 C-124.55176292 432.69231079 -124.55176292 432.69231079 -125.80958557 432.71191406 C-129.72831595 432.67622501 -131.7066963 432.45751502 -135.14047241 430.38859558 C-137.12890625 428.203125 -137.12890625 428.203125 -137.75390625 424.765625 C-136.95513811 420.21264659 -135.7761907 419.00301635 -132.12890625 416.203125 C-129.16673505 415.49931083 -126.29527971 415.55256616 -123.26220703 415.60717773 C-121.93663033 415.60108994 -121.93663033 415.60108994 -120.58427429 415.59487915 C-118.66802077 415.58936638 -116.7517072 415.59535791 -114.83551407 415.61153984 C-111.78931842 415.63701057 -108.74447328 415.63214185 -105.69821167 415.61964417 C-99.21662833 415.59889191 -92.73546198 415.61853193 -86.25390625 415.640625 C-78.77255456 415.66181666 -71.29164226 415.66606322 -63.81029892 415.64012337 C-60.83301861 415.63679838 -57.85660391 415.65787189 -54.87942505 415.68052673 C-34.64039189 415.71091813 -16.6295971 411.01830383 -1.12890625 397.203125 C-0.45472656 396.62175781 0.21945312 396.04039062 0.9140625 395.44140625 C14.11365847 383.26305561 21.95354225 365.09675813 23.04907227 347.31418991 C23.35941366 338.93494168 23.34251686 330.55182305 23.33984375 322.16796875 C23.34431401 320.13111632 23.35047804 318.09427328 23.35671091 316.05742556 C23.37583334 309.663003 23.3788712 303.26871087 23.37207031 296.87426758 C23.3654502 290.34344073 23.38823729 283.8131816 23.42538404 277.28246969 C23.45639328 271.61899298 23.46740746 265.95569582 23.46354723 260.29213625 C23.4615101 256.93455312 23.46881999 253.57775786 23.49143982 250.22019768 C23.6586067 222.33505147 19.03524652 198.88363845 3.87109375 175.203125 C3.47148437 174.44644531 3.071875 173.68976563 2.66015625 172.91015625 C0.55663315 169.55389806 -1.24972028 168.44300885 -5.078125 167.3984375 C-16.40355566 166.41152431 -26.25364238 170.89391492 -36.45556641 175.28857422 C-38.20039307 176.03518311 -38.20039307 176.03518311 -39.98046875 176.796875 C-41.54015381 177.48813477 -41.54015381 177.48813477 -43.13134766 178.19335938 C-46.3739961 179.28568662 -48.73181206 179.54885879 -52.12890625 179.203125 C-54.92667113 177.10766399 -55.83252487 176.31596791 -57.12890625 173.203125 C-57.62854254 168.63361378 -57.43769825 164.10475412 -57.31640625 159.515625 C-57.15407107 147.75672604 -57.15407107 147.75672604 -63.06640625 138.140625 C-64.72057029 136.78635257 -66.40257905 135.46411941 -68.12890625 134.203125 C-68.78890625 133.213125 -69.44890625 132.223125 -70.12890625 131.203125 C-73.36758932 129.94938895 -76.6363351 130.07235226 -80.07621765 130.06268311 C-81.29402924 130.05697296 -82.51184082 130.05126282 -83.76655579 130.04537964 C-85.11349477 130.0441343 -86.46043387 130.0430092 -87.80737305 130.04199219 C-89.228639 130.03736156 -90.64990371 130.03233657 -92.07116699 130.02694702 C-95.93351818 130.01383317 -99.79585199 130.00737851 -103.65822196 130.00293636 C-106.07788877 130.00000029 -108.4975509 129.99589418 -110.91721535 129.99143219 C-118.50606854 129.97775176 -126.09491094 129.96809124 -133.6837756 129.9642303 C-142.4077422 129.95976649 -151.1315508 129.94229941 -159.85546941 129.9132297 C-166.61839569 129.89148784 -173.38127797 129.88151919 -180.14423877 129.88018918 C-184.17287293 129.87914883 -188.20135871 129.87340903 -192.22995567 129.85536957 C-227.28621046 129.70745233 -256.97229431 134.49155402 -284.12890625 158.203125 C-284.94746094 158.90824219 -285.76601563 159.61335937 -286.609375 160.33984375 C-304.28119674 176.76056307 -317.29575249 203.54417494 -318.22797298 227.7784977 C-318.27292953 230.90017227 -318.28689711 234.02057792 -318.29003906 237.14257812 C-318.29500397 238.32894867 -318.29996887 239.51531921 -318.30508423 240.73764038 C-318.31714501 243.97780498 -318.3246391 247.2179336 -318.32909489 250.45811653 C-318.3320394 252.48999934 -318.33614684 254.52187669 -318.34059906 256.55375671 C-318.35425783 262.93269652 -318.36393089 269.31162362 -318.36780095 275.69057703 C-318.37226981 283.01316394 -318.38976973 290.33556309 -318.41880155 297.65809298 C-318.4405494 303.34420022 -318.45051225 309.03025517 -318.45184207 314.71640348 C-318.45288132 318.09995492 -318.4585975 321.48332952 -318.47666168 324.86683655 C-318.5956191 351.02491332 -316.32825705 373.86944422 -297.5234375 393.828125 C-291.36610902 399.93523057 -284.9455771 404.55875975 -277.25390625 408.515625 C-276.63056396 408.84127441 -276.00722168 409.16692383 -275.36499023 409.50244141 C-263.40692449 415.36337181 -251.4577337 415.62518818 -238.41935921 415.58325005 C-235.29575941 415.57405447 -232.17274888 415.58445619 -229.04917908 415.59986877 C-220.17789465 415.6397581 -211.30666203 415.64116152 -202.43530273 415.63891602 C-196.98783792 415.63886496 -191.54069692 415.65799523 -186.09332085 415.68824959 C-183.01928157 415.6990684 -179.94586073 415.68695525 -176.87184143 415.67442322 C-174.99015692 415.68332451 -173.10847746 415.69339779 -171.22680664 415.70483398 C-170.3753154 415.69509048 -169.52382416 415.68534698 -168.64653015 415.67530823 C-164.67231782 415.72355706 -162.60185893 415.91662202 -159.13059998 418.01942444 C-156.32229872 421.08307446 -155.9842109 423.07930742 -156.12890625 427.203125 C-158.09309067 429.90044199 -159.67898349 431.85539902 -163.02970314 432.65898132 C-165.36031093 432.84074084 -167.64225678 432.85586978 -169.97973633 432.81835938 C-170.86184784 432.82390839 -171.74395935 432.8294574 -172.65280151 432.83517456 C-175.56856722 432.84697973 -178.48278029 432.8226657 -181.3984375 432.796875 C-183.43804351 432.79516239 -185.47765172 432.7952311 -187.51725769 432.79699707 C-191.79874667 432.79534271 -196.07971286 432.77663958 -200.36108398 432.74511719 C-205.80650938 432.70571615 -211.25124147 432.70103933 -216.69678211 432.70858002 C-220.91546293 432.71167692 -225.13399265 432.69942895 -229.35263634 432.68244934 C-231.35735815 432.67548939 -233.36209711 432.67228615 -235.36683083 432.67314148 C-264.18256797 432.65448123 -288.29555042 426.00758574 -309.12890625 405.203125 C-309.94488281 404.39875 -310.76085937 403.594375 -311.6015625 402.765625 C-327.73001383 385.94555912 -334.49956738 364.0909081 -334.12890625 341.203125 C-335.0103833 341.22407227 -335.89186035 341.24501953 -336.80004883 341.26660156 C-340.12323815 341.33545789 -343.44565141 341.38524962 -346.76928711 341.42285156 C-348.19779549 341.44276109 -349.62622463 341.46989929 -351.05444336 341.50488281 C-365.27927341 341.84416322 -375.65179392 339.14941246 -386.1875 329.2734375 C-397.75132887 317.3379922 -401.72572933 301.09858741 -401.56640625 284.890625 C-401.55883301 283.80120605 -401.55125977 282.71178711 -401.54345703 281.58935547 C-401.21434288 265.4099114 -396.54808334 251.21348138 -385.3515625 239.21875 C-381.12076926 235.38203767 -376.00643198 231.203125 -370.12890625 231.203125 C-370.14050781 230.17316406 -370.15210938 229.14320313 -370.1640625 228.08203125 C-370.20196088 223.4551336 -370.17860466 218.8298556 -370.12890625 214.203125 C-370.12310547 213.51976074 -370.11730469 212.83639648 -370.11132812 212.13232422 C-369.82726999 193.08622654 -365.96885859 173.58956114 -358.12890625 156.203125 C-357.84708496 155.56149414 -357.56526367 154.91986328 -357.27490234 154.25878906 C-350.00650777 137.94001913 -339.57468214 123.93218866 -327.12890625 111.203125 C-326.02482422 110.02363281 -326.02482422 110.02363281 -324.8984375 108.8203125 C-315.05431843 98.52791843 -303.26763058 90.53421837 -291.12890625 83.203125 C-290.47889648 82.80625488 -289.82888672 82.40938477 -289.15917969 82.00048828 C-257.6497619 62.96952464 -221.4067897 53.46081872 -185.12890625 49.203125 C-185.16242188 47.9965625 -185.1959375 46.79 -185.23046875 45.546875 C-185.21728411 35.56171003 -180.16948765 27.67131356 -173.609375 20.5546875 C-165.73576034 13.00674547 -156.06622781 10.43331437 -145.42407227 10.6159668 C-134.93802372 11.16823595 -126.86379297 15.35322183 -119.328125 22.59765625 C-112.60538355 30.56225402 -109.92774887 38.94409844 -110.12890625 49.203125 C-109.1999353 49.32373291 -109.1999353 49.32373291 -108.25219727 49.44677734 C-105.39804032 49.81974109 -102.54473727 50.19889634 -99.69140625 50.578125 C-98.71751953 50.70445313 -97.74363281 50.83078125 -96.74023438 50.9609375 C-90.77940333 51.75837309 -84.98013305 52.81141645 -79.12890625 54.203125 C-78.81953125 53.006875 -78.51015625 51.810625 -78.19140625 50.578125 C-71.97515303 31.98800923 -56.15476571 17.23817239 -39.19140625 8.328125 C-26.41197466 2.28071541 -13.97025404 0.05857287 0 0 Z M-115.9296875 66.8828125 C-116.42855469 67.60726562 -116.92742187 68.33171875 -117.44140625 69.078125 C-118.20904297 70.15707031 -118.20904297 70.15707031 -118.9921875 71.2578125 C-120.29707881 73.1154121 -120.29707881 73.1154121 -120.12890625 75.203125 C-120.68835938 75.47125 -121.2478125 75.739375 -121.82421875 76.015625 C-125.16815052 77.73860001 -128.31043882 79.76834918 -131.49609375 81.765625 C-134.12890625 83.203125 -134.12890625 83.203125 -140.12890625 85.203125 C-140.12890625 94.773125 -140.12890625 104.343125 -140.12890625 114.203125 C-119.99890625 114.203125 -99.86890625 114.203125 -79.12890625 114.203125 C-80.44890625 107.933125 -81.76890625 101.663125 -83.12890625 95.203125 C-83.37833146 90.52640227 -83.52943691 86.15602202 -83.37890625 81.515625 C-83.36085938 80.40896484 -83.3428125 79.30230469 -83.32421875 78.16210938 C-83.27826139 75.5080716 -83.21338759 72.85616411 -83.12890625 70.203125 C-100.11196915 64.70409775 -100.11196915 64.70409775 -115.9296875 66.8828125 Z M-318.52734375 125.44921875 C-344.14570127 151.26105274 -354.12001386 186.62291225 -354.19140625 222.140625 C-354.17078125 224.14125 -354.15015625 226.141875 -354.12890625 228.203125 C-347.52890625 228.203125 -340.92890625 228.203125 -334.12890625 228.203125 C-333.90976562 226.82382812 -333.690625 225.44453125 -333.46484375 224.0234375 C-328.65648694 194.99925021 -318.44886279 171.83043169 -298.12890625 150.203125 C-297.61328125 149.61144531 -297.09765625 149.01976562 -296.56640625 148.41015625 C-279.22126796 129.39374161 -249.2138758 117.31843106 -224.12890625 115.203125 C-218.91129097 115.00652418 -213.69318927 114.94671667 -208.47265625 114.88671875 C-206.95950803 114.86611477 -205.44636511 114.84511748 -203.93322754 114.82374573 C-199.97465346 114.7688803 -196.01603054 114.71931626 -192.05737305 114.67089844 C-188.00825722 114.62042188 -183.95921123 114.56487314 -179.91015625 114.50976562 C-171.98313068 114.40261946 -164.05604491 114.30154963 -156.12890625 114.203125 C-156.12890625 104.633125 -156.12890625 95.063125 -156.12890625 85.203125 C-160.50555487 83.11286046 -160.50555487 83.11286046 -164.89331055 81.04614258 C-172.08981794 77.52870751 -176.73549819 71.79323709 -181.12890625 65.203125 C-231.01364326 65.203125 -283.40287936 91.46531663 -318.52734375 125.44921875 Z M40.87109375 166.203125 C36.91613678 166.47308044 32.95724068 166.61683808 28.99609375 166.765625 C27.39121094 166.83040039 27.39121094 166.83040039 25.75390625 166.89648438 C23.12641621 167.00205317 20.49883953 167.10416291 17.87109375 167.203125 C18.26997803 167.913479 18.6688623 168.62383301 19.07983398 169.35571289 C29.71170397 188.38531229 35.38388039 206.83176716 38.87109375 228.203125 C45.47109375 228.203125 52.07109375 228.203125 58.87109375 228.203125 C59.230997 209.60812384 58.34885066 192.31765873 52.87109375 174.453125 C52.62214355 173.63626221 52.37319336 172.81939941 52.11669922 171.9777832 C51.32702433 169.47848291 51.32702433 169.47848291 49.87109375 166.203125 C46.24379535 164.99402553 44.65118345 165.56757146 40.87109375 166.203125 Z " fill="#020102" transform="translate(401.12890625,39.796875)"/>
<path d="M0 0 C6.6 0 13.2 0 20 0 C20.99 1.98 21.98 3.96 23 6 C26.11823559 7.55911779 29.43227656 7.14419502 32.85522461 7.1418457 C33.66690094 7.14532013 34.47857727 7.14879456 35.31484985 7.15237427 C37.08219146 7.15973797 38.84954236 7.16508007 40.61689568 7.16866493 C43.42196498 7.17583138 46.22685944 7.19150279 49.03187561 7.21000671 C57.00926194 7.26244276 64.98655668 7.31037568 72.96411133 7.32592773 C77.84252856 7.33606181 82.72051174 7.36553111 87.59875679 7.40724754 C89.45128646 7.41949408 91.30387766 7.4246905 93.15644646 7.42244911 C107.35427053 7.40950821 118.15385697 8.30289507 128.8359375 18.62890625 C135.82877932 26.29073836 138.30169871 33.80071667 138.29052734 44.05957031 C138.29724457 44.95146561 138.30396179 45.8433609 138.31088257 46.76228333 C138.32982717 49.70095444 138.33378521 52.63939667 138.3359375 55.578125 C138.34236866 57.63067721 138.34909726 59.6832285 138.35610962 61.73577881 C138.36807411 66.03627649 138.37179137 70.33669389 138.37060547 74.63720703 C138.37040251 80.12917732 138.39768482 85.62062883 138.43214989 91.11247635 C138.45446548 95.35231864 138.45844155 99.59203708 138.45738602 103.83193207 C138.45973572 105.85559626 138.46852342 107.87926419 138.48405075 109.90287018 C138.6250194 130.17514657 138.6250194 130.17514657 134 138 C133.48179687 138.90234375 132.96359375 139.8046875 132.4296875 140.734375 C125.88007533 149.22583199 117.47149189 153.93469853 107 156 C100.6762066 156.57451066 94.29848181 156.4210663 87.95532227 156.40405273 C86.03082891 156.40976202 84.10633893 156.41672844 82.18185425 156.42485046 C76.97727919 156.44273464 71.77287316 156.44162248 66.56827664 156.43590808 C62.21450437 156.43280954 57.86076426 156.43891604 53.50699657 156.44494683 C43.23209465 156.45897472 32.95727591 156.45744505 22.68237305 156.44604492 C12.10089009 156.4345637 1.51966059 156.44864349 -9.06178898 156.4754414 C-18.16528999 156.49762864 -27.26871162 156.504229 -36.37223774 156.49836498 C-41.80122867 156.49500167 -47.23005714 156.49736902 -52.65902519 156.51461601 C-57.76536807 156.53013142 -62.87133661 156.52607863 -67.97766495 156.50731087 C-69.84523131 156.50363779 -71.71282569 156.50669584 -73.58036613 156.51719666 C-87.22928502 156.58804823 -97.96394967 155.48918597 -108.76953125 146.28125 C-116.38830528 138.48901876 -119.30669278 129.67840331 -119.2746582 119.01635742 C-119.27976913 118.13260941 -119.28488007 117.24886139 -119.29014587 116.33833313 C-119.30400444 113.42730873 -119.30308764 110.51652215 -119.30078125 107.60546875 C-119.30467077 105.57294121 -119.30900596 103.54041448 -119.31376648 101.50788879 C-119.32122107 97.25026819 -119.32094331 92.99273052 -119.31567383 88.73510742 C-119.30988604 83.29468604 -119.32679733 77.85460585 -119.3500185 72.41424084 C-119.36479414 68.21647679 -119.36562223 64.01879413 -119.36250877 59.82100868 C-119.36302025 57.81606687 -119.36822521 55.8111203 -119.37832069 53.80620384 C-119.3907395 50.99452328 -119.38386047 48.18349727 -119.37231445 45.37182617 C-119.37995819 44.55334198 -119.38760193 43.73485779 -119.39547729 42.89157104 C-119.29980078 32.28219305 -115.42849924 24.61173972 -108.1484375 17.0859375 C-101.01524005 10.40744586 -93.71804418 7.37684419 -83.96362305 7.51757812 C-83.11041977 7.51366562 -82.25721649 7.50975311 -81.37815857 7.50572205 C-79.54326294 7.49978631 -77.70831976 7.50284544 -75.87344933 7.5141449 C-72.96867706 7.53150727 -70.06489094 7.52384709 -67.16011047 7.5098877 C-61.00250501 7.48464335 -54.84513611 7.49004725 -48.6875 7.5 C-41.53184537 7.51152995 -34.37667249 7.51043512 -27.22107887 7.47593689 C-24.36022069 7.46883932 -21.50012587 7.48551769 -18.639328 7.50305176 C-16.88934922 7.4973461 -15.13937359 7.49052991 -13.3894043 7.48242188 C-12.59505981 7.49373642 -11.80071533 7.50505096 -10.9822998 7.51670837 C-7.44677043 7.47748058 -5.40847042 7.30573443 -2.53816223 5.15734863 C-0.83367299 2.9897915 -0.83367299 2.9897915 0 0 Z " fill="#F6F4F4" transform="translate(244,244)"/>
<path d="M0 0 C2.94240695 0.02145962 5.88237327 0.00007989 8.82470703 -0.02539062 C31.53731946 -0.06020654 50.89760093 5.37077633 67.59033203 21.60742188 C82.48088565 37.38058957 86.01387811 55.32216482 85.53027344 76.19580078 C84.88863565 93.86123882 75.52464804 109.39891921 62.97314453 121.39257812 C51.28222238 131.24041827 36.21181754 137.73883008 20.77368164 137.59985352 C19.68071274 137.5939772 18.58774384 137.58810089 17.46165466 137.58204651 C16.28982132 137.57366257 15.11798798 137.56527863 13.91064453 137.55664062 C11.38264568 137.56035877 8.85464931 137.56629308 6.32666016 137.57421875 C2.37736063 137.58468789 -1.57014403 137.58444163 -5.51928711 137.5456543 C-22.87456438 137.39327077 -36.832366 138.89848175 -52.55419922 146.52148438 C-52.58325195 144.86547852 -52.61230469 143.20947266 -52.64135742 141.5534668 C-52.65929352 140.5762265 -52.67722961 139.59898621 -52.69570923 138.59213257 C-52.72961454 136.55873614 -52.74963419 134.52509679 -52.76196289 132.49145508 C-52.91664522 126.62302717 -52.91664522 126.62302717 -55.80419922 121.64648438 C-56.71169922 120.94523437 -57.61919922 120.24398437 -58.55419922 119.52148438 C-64.38674363 113.30834979 -69.17530792 107.05261468 -73.05419922 99.45898438 C-73.38009033 98.83531982 -73.70598145 98.21165527 -74.04174805 97.5690918 C-80.78227071 83.66351714 -81.32480518 62.54925148 -77.06713867 47.85913086 C-73.1677926 36.62668621 -66.815085 27.93432625 -58.55419922 19.52148438 C-57.86583984 18.80863281 -57.17748047 18.09578125 -56.46826172 17.36132812 C-40.93832902 2.3798503 -20.55357871 -0.17792344 0 0 Z " fill="#FBD69E" transform="translate(411.55419921875,54.478515625)"/>
<path d="M0 0 C2.01494026 -0.0026984 4.02987924 -0.00658372 6.04481506 -0.01159668 C10.24655684 -0.01746584 14.44795645 -0.00900606 18.6496582 0.00976562 C24.0356408 0.03265687 29.42083046 0.0193516 34.80678463 -0.00452423 C38.95805363 -0.01896437 43.10913378 -0.01438618 47.2604084 -0.00401306 C49.2471482 -0.00134617 51.23390518 -0.0046142 53.22062492 -0.01393127 C55.9899145 -0.02407877 58.75790685 -0.00862596 61.52709961 0.01367188 C62.34635422 0.00557495 63.16560883 -0.00252197 64.00968933 -0.01086426 C67.60414625 0.0428144 69.73197547 0.21516702 72.66456604 2.38000488 C74.16015625 4.53125 74.16015625 4.53125 74.72265625 7.46875 C73.95306066 11.65877043 72.49699864 12.9183889 69.16015625 15.53125 C66.14644688 15.99865083 63.70849005 16.16444021 60.70483398 16.09545898 C59.44518074 16.09672791 59.44518074 16.09672791 58.16007996 16.09802246 C56.34036271 16.09684978 54.52062499 16.08431904 52.7010479 16.06170464 C49.81107782 16.02695085 46.92264183 16.02426384 44.03248596 16.03004456 C36.85014246 16.03833871 29.66829535 15.99701666 22.48614502 15.94714355 C16.42250559 15.90580572 10.35977711 15.88851555 4.29600716 15.90449715 C1.46610718 15.90238835 -1.36193554 15.86537204 -4.19154358 15.82725525 C-16.32435085 15.78273143 -25.39838742 17.4731575 -34.77734375 25.84375 C-42.11004387 33.92944133 -43.97791025 41.76014911 -44.03271484 52.35375977 C-44.04089233 53.23254288 -44.04906982 54.11132599 -44.05749512 55.01673889 C-44.08226013 57.91870459 -44.09884523 60.82062154 -44.11328125 63.72265625 C-44.11860493 64.71808882 -44.1239286 65.71352139 -44.1294136 66.73911858 C-44.1561107 72.01137394 -44.17549381 77.28360594 -44.18994141 82.5559082 C-44.20325825 86.90215199 -44.23107462 91.2479238 -44.27197266 95.59399414 C-44.32150108 100.85828766 -44.34608733 106.12215454 -44.35316849 111.38667107 C-44.35984766 113.38359171 -44.37498181 115.38050408 -44.3990593 117.37729073 C-44.54141051 129.90029623 -44.29829997 140.39687834 -36.58984375 150.90625 C-24.69086125 162.26436966 -12.53507497 162.97490139 3.10717773 162.91943359 C5.03314511 162.92350279 6.95911015 162.92884662 8.8850708 162.93536377 C14.09791154 162.94900264 19.3105735 162.94375262 24.52341723 162.93422651 C29.98933553 162.92661106 35.45523891 162.93368086 40.92115784 162.93838501 C50.09989153 162.94383753 59.27855272 162.93666463 68.45727539 162.92236328 C79.05405791 162.90604264 89.65066721 162.9113231 100.24744552 162.9278425 C109.36024943 162.94147751 118.47300133 162.94336702 127.58581215 162.93552649 C133.02201904 162.93086043 138.45814464 162.93019563 143.89434624 162.94013596 C149.00719137 162.94883249 154.11981425 162.94273468 159.2326355 162.92545319 C161.10384312 162.92150247 162.9750696 162.92259801 164.84626961 162.92924118 C178.28186479 162.9725252 190.20132396 162.30199329 201.16015625 153.53125 C208.40765002 145.39825417 211.62286119 136.99549998 211.56420898 126.24462891 C211.57107224 125.35244156 211.57793549 124.46025421 211.58500671 123.54103088 C211.60319842 120.61312615 211.59944774 117.68576123 211.59375 114.7578125 C211.5983158 112.70811796 211.60362255 110.65842494 211.6096344 108.60873413 C211.61855081 104.32014738 211.61615948 100.03174698 211.60620117 95.74316406 C211.59471972 90.26691568 211.61491819 84.79131292 211.64411831 79.31514931 C211.66252928 75.08387209 211.66217798 70.85274814 211.65648079 66.62144089 C211.65632814 64.60336782 211.66232545 62.58528399 211.67477226 60.5672493 C211.75171251 46.04728184 211.12053337 35.71841917 200.671875 24.734375 C193.23633435 18.21237667 185.61143288 16.37910371 175.98266602 16.40527344 C175.16105988 16.4034053 174.33945374 16.40153717 173.49295044 16.39961243 C171.71143977 16.39561379 169.929924 16.39353408 168.14840889 16.39315033 C164.36052225 16.38973017 160.57280656 16.36836516 156.78497982 16.34791946 C149.73447802 16.30990912 142.68416095 16.27863804 135.63354492 16.28076172 C130.72685191 16.2815483 125.82078779 16.25821154 120.91425896 16.2188797 C119.04560103 16.20841282 117.17687059 16.20690073 115.30819893 16.21453094 C112.69378576 16.22414334 110.08128172 16.2029913 107.46704102 16.17480469 C106.31121269 16.19009972 106.31121269 16.19009972 105.1320343 16.20570374 C101.15075197 16.12876601 99.34040451 15.6729434 96.17222595 13.18243408 C94.16015625 10.53125 94.16015625 10.53125 93.66015625 7.46875 C94.23698393 4.07988738 94.64551419 2.86887253 97.16015625 0.53125 C100.05820265 0.1289272 102.5796513 -0.015591 105.48022461 0.01367188 C106.32945496 0.0066626 107.1786853 -0.00034668 108.0536499 -0.00756836 C110.86943019 -0.02521111 113.6842089 -0.01349417 116.5 0 C118.4623687 -0.00269536 120.42473609 -0.00657815 122.38710022 -0.01159668 C126.50892802 -0.01750208 130.63040967 -0.00890357 134.75219727 0.00976562 C140.00759592 0.03242082 145.2621714 0.01952448 150.51753902 -0.00452423 C154.57650295 -0.01906976 158.6352762 -0.01433404 162.69424629 -0.00401306 C164.62971661 -0.00136283 166.5652048 -0.00455488 168.50065422 -0.01393127 C185.88613212 -0.07960349 199.61617296 2.83319787 213.16015625 14.53125 C222.14319955 25.02848053 227.31276447 35.68866252 227.30541992 49.47143555 C227.31045784 50.8258802 227.31045784 50.8258802 227.31559753 52.20768738 C227.32509987 55.19446182 227.32705053 58.18118013 227.328125 61.16796875 C227.33133893 63.24819461 227.33470311 65.32842024 227.33821106 67.40864563 C227.34420114 71.77235437 227.34605117 76.1360433 227.34545898 80.49975586 C227.34535756 86.07691727 227.35898946 91.6539508 227.37623119 97.23108196 C227.3873816 101.53006059 227.38937723 105.82900865 227.38884926 110.12800026 C227.39002557 112.18317924 227.39442768 114.2383591 227.40218163 116.29352379 C227.41203946 119.17713584 227.40908029 122.06047483 227.40307617 124.9440918 C227.40869568 125.78441956 227.41431519 126.62474731 227.42010498 127.49053955 C227.3472291 141.34684276 222.07515592 154.56925703 212.3671875 164.57421875 C198.10280736 177.2228107 182.42781095 179.28515832 164.21240234 179.16235352 C162.25100561 179.16750344 160.28961352 179.17479274 158.32823181 179.18403625 C153.04518058 179.20241933 147.76263943 179.1896959 142.47960997 179.16994596 C136.92704483 179.15345393 131.37450933 179.16238673 125.82192993 179.16746521 C116.50327489 179.17197367 107.18482139 179.15619196 97.86621094 179.12817383 C87.11934785 179.09610891 76.37284771 179.09614917 65.6259588 179.1133886 C55.2499486 179.12929434 44.87407043 179.12249531 34.49806595 179.10545158 C30.09885736 179.09861037 25.69975553 179.09958324 21.30054855 179.10699654 C16.1144879 179.11470128 10.92883658 179.1023973 5.74284554 179.07514763 C3.84871319 179.06830718 1.95454229 179.06811873 0.06041145 179.07536316 C-18.26609952 179.13733943 -32.90278418 175.68786211 -46.73828125 162.78125 C-59.82733745 148.76768798 -60.44635044 132.94227784 -60.3359375 114.8671875 C-60.33609281 112.78219553 -60.33758704 110.69720328 -60.34034729 108.61221313 C-60.34172452 104.26347944 -60.32928484 99.91507827 -60.30639648 95.56640625 C-60.27797872 90.01760868 -60.2807681 84.4693612 -60.2934866 78.92052269 C-60.3004699 74.62229791 -60.29262484 70.32419832 -60.28022957 66.02598953 C-60.27574333 63.98084622 -60.27535327 61.93568933 -60.27929497 59.89054489 C-60.30503757 34.79333411 -60.30503757 34.79333411 -53.46484375 24.71875 C-52.90023437 23.86667969 -52.335625 23.01460938 -51.75390625 22.13671875 C-47.87218325 16.85282234 -44.1207324 12.66513572 -38.71484375 8.90625 C-37.68101562 8.17148438 -36.6471875 7.43671875 -35.58203125 6.6796875 C-24.12724191 -0.24503805 -12.98142476 -0.06138246 0 0 Z " fill="#050303" transform="translate(169.83984375,236.46875)"/>
<path d="M0 0 C3.46823913 2.05435768 5.03630838 4.53166156 7 8 C7.65097656 9.0415625 8.30195313 10.083125 8.97265625 11.15625 C23.7130222 35.2203206 26.78110603 59.15476801 26.59375 86.96484375 C26.58954449 89.70000079 26.59200781 92.43514464 26.59387207 95.17030334 C26.59381901 100.86083215 26.57435942 106.55102327 26.54199219 112.24145508 C26.50499684 118.77643184 26.49633925 125.31096992 26.5032897 131.84603781 C26.509637 138.20099671 26.4987708 144.55580883 26.47932434 150.91073799 C26.47125007 153.58621334 26.46916342 156.26148332 26.47001648 158.93699455 C26.45337274 193.25289353 26.45337274 193.25289353 19.1875 206.375 C18.83276611 207.04362061 18.47803223 207.71224121 18.11254883 208.40112305 C17.09985538 210.28268872 16.05803993 212.14364982 15 214 C14.5153125 214.86496094 14.030625 215.72992188 13.53125 216.62109375 C4.15031665 231.91965076 -11.09089008 241.78163833 -28 247 C-28.5973999 247.18836426 -29.1947998 247.37672852 -29.81030273 247.57080078 C-37.5756135 249.67504519 -45.58970355 249.21829026 -53.5625 249.125 C-55.06314506 249.11494923 -56.56379665 249.10582709 -58.06445312 249.09765625 C-61.70977281 249.07581091 -65.35484376 249.0413969 -69 249 C-65.8033095 246.42225944 -62.58818346 243.98941659 -59.1875 241.6875 C-45.66165014 232.20339818 -36.32970933 220.28492509 -30 205 C-30 204.01 -30 203.02 -30 202 C-27.875 200.4921875 -27.875 200.4921875 -25 198.875 C-13.99952952 192.07727337 -8.3941193 182.89596355 -4 171 C-3.00919172 165.55478801 -2.84071617 160.2631035 -2.82299805 154.75097656 C-2.81642685 153.85078796 -2.80985565 152.95059937 -2.80308533 152.02313232 C-2.78347421 149.06229552 -2.77171785 146.10150911 -2.76171875 143.140625 C-2.75764322 142.1237133 -2.7535677 141.10680161 -2.74936867 140.0590744 C-2.72856118 134.6777314 -2.71423578 129.2964135 -2.70483398 123.91503906 C-2.69377267 118.37950936 -2.65936031 112.84438193 -2.61966228 107.30899429 C-2.59342978 103.03138519 -2.58513633 98.75387112 -2.58155251 94.47618866 C-2.57670481 92.43659494 -2.56514316 90.39700495 -2.54651451 88.35749054 C-2.28095617 73.22258624 -2.28095617 73.22258624 -7 59 C-7.515625 57.98164063 -8.03125 56.96328125 -8.5625 55.9140625 C-10.01966631 53.59368355 -11.48586652 51.28367933 -13 49 C-13.5775 48.113125 -14.155 47.22625 -14.75 46.3125 C-17.7103599 43.26990788 -21.04904145 41.01573732 -24.5625 38.6484375 C-25.7690625 37.83246094 -25.7690625 37.83246094 -27 37 C-27.7425 36.55914062 -28.485 36.11828125 -29.25 35.6640625 C-31.70575698 33.32890072 -31.5000253 31.32795662 -32 28 C-33.16457719 25.16240826 -34.57746894 22.46574111 -36 19.75 C-36.36867188 19.03070313 -36.73734375 18.31140625 -37.1171875 17.5703125 C-38.07162998 15.71019467 -39.03519102 13.8547621 -40 12 C-40.33 11.34 -40.66 10.68 -41 10 C-11.79745223 -3.13416024 -11.79745223 -3.13416024 0 0 Z " fill="#F62B3C" transform="translate(399,207)"/>
<path d="M0 0 C6.6 0 13.2 0 20 0 C20.99 1.98 21.98 3.96 23 6 C26.11823559 7.55911779 29.43227656 7.14419502 32.85522461 7.1418457 C33.66690094 7.14532013 34.47857727 7.14879456 35.31484985 7.15237427 C37.08219146 7.15973797 38.84954236 7.16508007 40.61689568 7.16866493 C43.42196498 7.17583138 46.22685944 7.19150279 49.03187561 7.21000671 C57.00926194 7.26244276 64.98655668 7.31037568 72.96411133 7.32592773 C77.84252856 7.33606181 82.72051174 7.36553111 87.59875679 7.40724754 C89.45128646 7.41949408 91.30387766 7.4246905 93.15644646 7.42244911 C107.35427053 7.40950821 118.15385697 8.30289507 128.8359375 18.62890625 C135.82877932 26.29073836 138.30169871 33.80071667 138.29052734 44.05957031 C138.29724457 44.95146561 138.30396179 45.8433609 138.31088257 46.76228333 C138.32982717 49.70095444 138.33378521 52.63939667 138.3359375 55.578125 C138.34236866 57.63067721 138.34909726 59.6832285 138.35610962 61.73577881 C138.36807411 66.03627649 138.37179137 70.33669389 138.37060547 74.63720703 C138.37040251 80.12917732 138.39768482 85.62062883 138.43214989 91.11247635 C138.45446548 95.35231864 138.45844155 99.59203708 138.45738602 103.83193207 C138.45973572 105.85559626 138.46852342 107.87926419 138.48405075 109.90287018 C138.57095201 122.39987779 138.64152525 132.96482139 130.375 143.125 C129.78460938 143.87007812 129.19421875 144.61515625 128.5859375 145.3828125 C127.80089844 146.18332031 127.80089844 146.18332031 127 147 C126.34 147 125.68 147 125 147 C124.99453156 145.40172615 124.99453156 145.40172615 124.98895264 143.77116394 C124.95189432 133.69385144 124.89400382 123.61684147 124.81609726 113.53975964 C124.77671074 108.35990888 124.74447908 103.1802259 124.72900391 98.00024414 C124.71377907 92.99443492 124.67923069 87.98908719 124.63169098 82.98348427 C124.61693707 81.08072246 124.60896245 79.17789474 124.60811615 77.27507591 C124.59392225 61.353261 122.36556546 49.72214365 111.6875 37.3125 C103.05967639 29.88855875 94.64235109 25.51116347 83.17944336 25.63923645 C82.32731262 25.63667318 81.47518188 25.6341099 80.597229 25.63146895 C77.76123724 25.62655423 74.92578591 25.64298559 72.08984375 25.65942383 C70.04928093 25.6602706 68.0087172 25.65979398 65.96815491 25.65809631 C60.44186489 25.6572369 54.9157709 25.67485413 49.38952637 25.69581819 C43.60930378 25.71459383 37.82907651 25.71633613 32.04882812 25.71989441 C21.10905899 25.72921225 10.16937998 25.75382257 -0.7703495 25.78394288 C-13.22735909 25.81749495 -25.68437301 25.83397494 -38.14141655 25.84902918 C-63.7609943 25.88037229 -89.38049209 25.93312779 -115 26 C-112.51397079 22.19882925 -110.19579143 18.91934602 -106.8125 15.875 C-106.11769531 15.23304688 -105.42289063 14.59109375 -104.70703125 13.9296875 C-98.13237997 9.24299524 -91.97172906 7.40203951 -83.96362305 7.51757812 C-83.11041977 7.51366562 -82.25721649 7.50975311 -81.37815857 7.50572205 C-79.54326294 7.49978631 -77.70831976 7.50284544 -75.87344933 7.5141449 C-72.96867706 7.53150727 -70.06489094 7.52384709 -67.16011047 7.5098877 C-61.00250501 7.48464335 -54.84513611 7.49004725 -48.6875 7.5 C-41.53184537 7.51152995 -34.37667249 7.51043512 -27.22107887 7.47593689 C-24.36022069 7.46883932 -21.50012587 7.48551769 -18.639328 7.50305176 C-16.88934922 7.4973461 -15.13937359 7.49052991 -13.3894043 7.48242188 C-12.59505981 7.49373642 -11.80071533 7.50505096 -10.9822998 7.51670837 C-7.44677043 7.47748058 -5.40847042 7.30573443 -2.53816223 5.15734863 C-0.83367299 2.9897915 -0.83367299 2.9897915 0 0 Z " fill="#E1E1E1" transform="translate(244,244)"/>
<path d="M0 0 C6.11567607 -0.10013072 12.23085759 -0.17205462 18.34716797 -0.21972656 C20.42049489 -0.23963461 22.49376724 -0.26677111 24.56689453 -0.30175781 C47.46220211 -0.67799776 67.5659672 2.75257676 85 19 C96.85502561 30.5311178 104.75404613 45.87481616 105.16796875 62.57421875 C105.3725775 84.91139936 100.42524127 101.93096816 84.8125 118.6875 C72.98745371 129.98698868 56.73159025 137.15145528 40.27001953 137.11352539 C39.16933136 137.11344986 38.06864319 137.11337433 36.93460083 137.11329651 C35.17646561 137.10555458 35.17646561 137.10555458 33.3828125 137.09765625 C32.17051971 137.0962413 30.95822693 137.09482635 29.709198 137.09336853 C25.84777327 137.08778345 21.98640712 137.07523361 18.125 137.0625 C15.50260501 137.05748308 12.8802091 137.0529205 10.2578125 137.04882812 C3.83852178 137.03781889 -2.58073493 137.02109555 -9 137 C-9 136.67 -9 136.34 -9 136 C-8.38549484 136.0030162 -7.77098969 136.00603241 -7.13786316 136.00914001 C-0.6962588 136.03385267 5.74387154 136.009353 12.18530273 135.95727539 C14.58370468 135.94419936 16.98220756 135.94334254 19.38061523 135.95532227 C22.84457932 135.97044246 26.30579164 135.9404779 29.76953125 135.90234375 C31.35771416 135.92372658 31.35771416 135.92372658 32.97798157 135.94554138 C41.30435264 135.78646126 46.43566522 132.98151454 53 128 C53.60548676 127.55240326 54.21097351 127.10480652 54.83480835 126.64364624 C66.33396191 117.63218434 74.33549255 102.91808119 78 89 C77.52224121 89.48666641 77.04448242 89.97333282 76.55224609 90.4747467 C72.87478149 92.67244426 69.32660596 92.4263708 65.1640625 92.40405273 C63.82683136 92.41434761 63.82683136 92.41434761 62.46258545 92.42485046 C59.51656151 92.44314796 56.57106855 92.43927712 53.625 92.43359375 C51.57763495 92.43815379 49.53027144 92.44345883 47.48291016 92.44947815 C43.19231954 92.4584148 38.90191502 92.45597938 34.61132812 92.44604492 C29.10971303 92.43454846 23.6087391 92.45477449 18.10720825 92.48396206 C13.8795971 92.50229586 9.65214044 92.50203733 5.42449951 92.49632454 C3.39588521 92.49617101 1.36726064 92.5022412 -0.66131592 92.51461601 C-3.49597586 92.52947268 -6.32944031 92.51888861 -9.1640625 92.50170898 C-10.00366516 92.51137695 -10.84326782 92.52104492 -11.70831299 92.53100586 C-15.32484004 92.48504502 -17.54360491 92.32814999 -20.52099609 90.18739319 C-22.69538692 86.97154794 -22.54127257 84.78890799 -22 81 C-20.52000427 78.81359863 -20.52000427 78.81359863 -18 77 C-14.93964463 76.60547176 -12.23982556 76.45285768 -9.17993164 76.48242188 C-8.29005051 76.4754126 -7.40016937 76.46840332 -6.48332214 76.46118164 C-3.54194931 76.44357792 -0.60153887 76.45523386 2.33984375 76.46875 C4.38481328 76.46605553 6.42978156 76.46217349 8.4747467 76.45715332 C12.76120193 76.45125485 17.04732376 76.45983172 21.33374023 76.47851562 C26.82631735 76.50129079 32.31811204 76.48819316 37.81066036 76.46422577 C42.03404118 76.44976503 46.25723682 76.45437534 50.48062325 76.46473694 C52.50561173 76.4674042 54.53061705 76.46413449 56.55558586 76.45481873 C59.38768848 76.44465036 62.21852844 76.46015899 65.05053711 76.48242188 C65.88654449 76.47432495 66.72255188 76.46622803 67.58389282 76.45788574 C72.65858672 76.53172392 75.27531044 77.22350339 79 81 C83.20239916 72.59520167 80.81987377 56.27326784 78.4375 47.375 C74.49674013 36.0090189 69.07315648 25.95943115 61 17 C60.44699219 16.36578125 59.89398438 15.7315625 59.32421875 15.078125 C53.70852527 9.0201454 45.43489049 2.22817465 37.00927734 1.79467773 C35.28494237 1.75277174 33.56047518 1.71610503 31.8359375 1.68359375 C30.92872955 1.66281265 30.02152161 1.64203156 29.08682251 1.62062073 C26.1829602 1.55512865 23.27900595 1.49624186 20.375 1.4375 C18.40884458 1.39431445 16.44269853 1.35070015 14.4765625 1.30664062 C9.65113638 1.19944761 4.8256176 1.09817919 0 1 C0 0.67 0 0.34 0 0 Z " fill="#F4C172" transform="translate(392,55)"/>
<path d="M0 0 C0 27.06 0 54.12 0 82 C-32.83050847 82 -32.83050847 82 -41.8125 73.3125 C-51.64242839 60.90917055 -53.21206517 46.37807691 -52 31 C-49.8506049 19.87443785 -45.42772834 9.71714568 -35.9296875 3.15625 C-23.53881338 -4.26824138 -22.06862977 0 0 0 Z " fill="#30A6FA" transform="translate(67,284)"/>
<path d="M0 0 C33.47080292 0 33.47080292 0 41.3671875 7.140625 C50.54981144 19.98678284 53.93464318 33.46369851 51.6953125 49.13183594 C49.50825528 61.18854676 45.34288155 71.81257384 35 79 C26 82 26 82 0 82 C0 54.94 0 27.88 0 0 Z " fill="#30A6FA" transform="translate(440,284)"/>
<path d="M0 0 C8.2658716 4.82175843 12.7974241 11.70867854 15.765625 20.61328125 C16.76421671 31.22127183 14.95824222 40.13877029 8.140625 48.48828125 C1.32877987 55.42465737 -5.10742817 58.07666021 -14.734375 58.23828125 C-23.83057074 58.10528723 -30.24678156 55.54441543 -37.046875 49.42578125 C-43.48990839 42.28042668 -46.01392304 35.26940427 -45.89648438 25.66088867 C-45.42733313 17.26089474 -42.07879635 9.86088443 -35.859375 4.11328125 C-24.74319454 -4.26090803 -12.77363221 -5.93539193 0 0 Z " fill="#040303" transform="translate(206.234375,280.38671875)"/>
<path d="M0 0 C5.86538591 4.72306356 10.40236028 10.96497359 11.7734375 18.4921875 C12.55946827 28.72347331 11.78987605 37.41403249 5.5234375 45.8046875 C-1.19173293 52.36724042 -8.50338361 55.76002484 -17.9765625 55.8671875 C-27.63024272 55.69443743 -34.5113923 52.98250938 -41.5390625 46.3515625 C-47.85703405 39.39009384 -49.82555806 31.14852849 -49.66796875 21.9453125 C-48.6168948 13.72275169 -44.18566511 6.42356376 -38.0859375 0.890625 C-26.63930295 -7.71839846 -11.84269178 -8.01978777 0 0 Z " fill="#040303" transform="translate(337.2265625,282.5078125)"/>
<path d="M0 0 C4.27784768 2.91015215 7.25819053 6.68133543 9.19921875 11.49609375 C10.06313973 18.88034468 10.32205122 25.77402379 5.69140625 31.8828125 C1.29198641 36.63925332 -3.04912721 40.05652666 -9.66796875 40.83203125 C-16.0490202 40.91490205 -20.89075572 40.82988157 -25.80078125 36.49609375 C-31.53191145 30.76496355 -33.94346632 27.07364415 -34.17578125 18.80859375 C-34.1136622 11.2766587 -32.50494303 7.26813284 -27.30859375 1.9765625 C-18.98071775 -5.50989597 -9.47242881 -5.24924234 0 0 Z " fill="#FB4654" transform="translate(265.80078125,69.50390625)"/>
<path d="M0 0 C0.88988113 -0.00700928 1.77976227 -0.01401855 2.6966095 -0.02124023 C5.63798234 -0.03884396 8.57839277 -0.02718801 11.51977539 -0.01367188 C13.56474492 -0.01636634 15.6097132 -0.02024839 17.65467834 -0.02526855 C21.94113357 -0.03116703 26.2272554 -0.02259016 30.51367188 -0.00390625 C36.00624899 0.01886892 41.49804368 0.00577128 46.990592 -0.01819611 C51.21397282 -0.03265684 55.43716846 -0.02804654 59.66055489 -0.01768494 C61.68554337 -0.01501767 63.71054869 -0.01828738 65.7355175 -0.02760315 C68.56762012 -0.03777151 71.39846008 -0.02226289 74.23046875 0 C75.48447983 -0.01214539 75.48447983 -0.01214539 76.76382446 -0.02453613 C80.73113792 0.03318936 82.7388708 0.24759863 86.20021057 2.36633301 C88.17993164 4.51757812 88.17993164 4.51757812 88.80493164 7.45507812 C87.95294798 11.62979808 86.53358423 12.91036768 83.17993164 15.51757812 C80.19299125 16.23530573 77.29107509 16.19148655 74.23046875 16.14868164 C73.3388353 16.15583694 72.44720184 16.16299225 71.52854919 16.17036438 C68.58760005 16.18724386 65.64817672 16.16785478 62.70727539 16.14648438 C60.66134007 16.14731307 58.61540481 16.14977246 56.56947327 16.15379333 C52.28471808 16.15665073 48.0004858 16.14195423 43.71582031 16.11450195 C38.2220265 16.08039798 32.7291664 16.08644523 27.23532772 16.10516453 C23.01197009 16.11572891 18.78883002 16.10680212 14.56549263 16.09177971 C12.53968514 16.08659477 10.51385497 16.08708346 8.48805046 16.09332466 C5.65820248 16.09877087 2.82969523 16.07842168 0 16.05102539 C-0.83803162 16.05755127 -1.67606323 16.06407715 -2.53948975 16.07080078 C-6.15010069 16.01131794 -8.36951592 15.84200938 -11.34007263 13.70298767 C-13.51678897 10.48877794 -13.36128886 8.30612164 -12.82006836 4.51757812 C-9.51902299 -0.3590644 -5.41268069 -0.05229643 0 0 Z " fill="#010101" transform="translate(382.820068359375,131.482421875)"/>
<path d="M0 0 C0.33 0 0.66 0 1 0 C1.20625 1.010625 1.4125 2.02125 1.625 3.0625 C3.66764121 9.90810839 8.0553547 13.77249489 14.2109375 17.16015625 C21.84721564 20.87302319 28.92237109 20.88833701 37.25 20.875 C42.1175 20.91625 46.985 20.9575 52 21 C52 30.9 52 40.8 52 51 C47.58625 51.103125 43.1725 51.20625 38.625 51.3125 C37.25424316 51.35802002 35.88348633 51.40354004 34.47119141 51.45043945 C25.54931234 51.55063444 18.66925516 50.24032817 11.92700195 44.11743164 C0.74171691 32.5114229 -0.3185029 18.37635732 -0.0703125 3.078125 C-0.03550781 1.55445313 -0.03550781 1.55445313 0 0 Z " fill="#1683F5" transform="translate(15,315)"/>
<path d="M0 0 C0.33 0 0.66 0 1 0 C1.75447658 15.76017735 0.31962183 31.49302251 -10.625 43.83203125 C-18.58465468 51.40475827 -28.11883901 51.41113724 -38.5625 51.1875 C-42.666875 51.125625 -46.77125 51.06375 -51 51 C-51 41.1 -51 31.2 -51 21 C-36.25 20.875 -36.25 20.875 -31.67675781 20.88232422 C-20.65250254 20.65247153 -11.69076946 18.13486712 -3.8125 10 C-1.2651043 6.78484038 -0.10482914 4.19316576 0 0 Z " fill="#1784F5" transform="translate(491,315)"/>
<path d="M0 0 C0.67530258 -0.00686325 1.35060516 -0.0137265 2.04637146 -0.02079773 C4.27339852 -0.03906345 6.49972091 -0.03522878 8.72680664 -0.02954102 C10.27853118 -0.03410311 11.83025369 -0.03940877 13.38197327 -0.04542542 C16.63266208 -0.05435615 19.88310521 -0.05193415 23.13378906 -0.04199219 C27.29466444 -0.03050508 31.45469083 -0.05070934 35.61545467 -0.07990932 C38.81972113 -0.09827745 42.02378438 -0.09797767 45.22809029 -0.0922718 C46.76185865 -0.09211865 48.29564085 -0.09815835 49.82935905 -0.11056328 C51.9766208 -0.12548336 54.12231765 -0.11479129 56.26953125 -0.09765625 C57.48990585 -0.09749008 58.71028046 -0.09732391 59.96763611 -0.09715271 C63.82309434 0.50076815 65.4915774 1.63663947 68.19946289 4.40405273 C68.82446289 7.34155273 68.82446289 7.34155273 68.19946289 10.40405273 C65.60470408 13.67157066 64.11492783 15.22610846 59.96763611 16.03224182 C58.74726151 16.03320358 57.5268869 16.03416534 56.26953125 16.03515625 C55.59247635 16.04231155 54.91542145 16.04946686 54.21784973 16.05683899 C51.99097188 16.07367989 49.76612039 16.05435641 47.53930664 16.03295898 C45.98661635 16.03378803 44.43392615 16.03624876 42.88124084 16.04026794 C39.63214604 16.04312262 36.38374188 16.02845656 33.13476562 16.00097656 C28.97262861 15.96686486 24.81172387 15.97292398 20.64952755 15.99163914 C17.44525398 16.0022123 14.24126669 15.99326912 11.03701973 15.97825432 C9.50244561 15.97307622 7.96784154 15.97354982 6.43327141 15.97979927 C4.28819438 15.98525689 2.14487646 15.96486452 0 15.9375 C-1.21957901 15.93130142 -2.43915802 15.92510284 -3.69569397 15.91871643 C-7.37725887 15.30845443 -8.55611936 14.32631263 -10.80053711 11.40405273 C-11.57298678 8.44488892 -11.19833853 6.53673895 -10.80053711 3.40405273 C-7.57425455 -0.05246622 -4.56653594 0.02023069 0 0 Z " fill="#030201" transform="translate(380.800537109375,96.595947265625)"/>
<path d="M0 0 C2.15914026 1.36717762 4.10561565 2.8588853 6.0703125 4.4921875 C11.25212997 8.54113799 15.90346281 8.52840853 22.3671875 8.4609375 C28.72137956 7.65470668 33.52813763 4.47186237 38 0 C42.03143083 -0.62711146 43.56402878 -0.30610745 46.9375 2.0625 C49 5 49 5 49.3125 8.375 C47.01309646 14.72573359 41.82498004 18.19815424 36 21.3125 C26.75008434 25.4974133 17.12832263 26.64884256 7.375 23.375 C0.70139213 20.67878593 -6.07372614 17.24361592 -10 11 C-10.49398209 7.0481433 -10.6085569 4.91283535 -8.375 1.5625 C-5.15577836 -0.55540897 -3.80569211 -0.73186387 0 0 Z " fill="#070707" transform="translate(235,353)"/>
<path d="M0 0 C3.88446678 2.58964452 6.69907021 5.64814041 8.8125 9.875 C9.35868388 16.210733 8.50693709 20.62378753 4.8125 25.875 C1.12146957 29.56603043 -2.06655367 30.20950246 -7.125 30.5 C-12.37170006 30.33054136 -15.16632324 29.23914427 -18.8828125 25.578125 C-22.87961768 20.3607386 -22.92016219 15.26492723 -22.1875 8.875 C-20.13518323 4.35990311 -17.46024213 1.79108216 -13.11328125 -0.43359375 C-8.55947121 -2.06853163 -4.55732376 -1.60846721 0 0 Z " fill="#F78326" transform="translate(198.1875,293.125)"/>
<path d="M0 0 C4.00704087 1.70734785 7.02484349 3.96389621 10 7.125 C12.03740031 12.9825259 12.02708606 18.82731794 9.375 24.4375 C5.04565669 29.10863357 1.92123974 31.23861982 -4.5 31.5 C-9.43370215 31.28578227 -12.36420505 30.54711702 -16 27 C-19.66178038 21.81152121 -20.80975839 17.2756275 -20 11 C-15.9931318 2.82598888 -9.16540586 -1.96513848 0 0 Z " fill="#F78426" transform="translate(323,292)"/>
<path d="M0 0 C7.81521708 -0.74826546 13.47118602 0.55855106 20 5 C24.01511985 8.67660858 26.73569738 12.74090812 27.37109375 18.171875 C27.51284093 25.80954673 27.31750954 31.25096482 22 37 C17.89882829 41.17632407 13.81604719 43.82333456 7.88671875 44.1953125 C6.30310547 44.16050781 6.30310547 44.16050781 4.6875 44.125 C3.61886719 44.10695312 2.55023438 44.08890625 1.44921875 44.0703125 C0.23685547 44.03550781 0.23685547 44.03550781 -1 44 C0.051875 43.319375 0.051875 43.319375 1.125 42.625 C7.05001336 37.21520519 10.51646489 30.61644629 11.203125 22.640625 C11.32325247 16.51412379 10.28615608 11.66520629 8 6 C7.608125 4.989375 7.21625 3.97875 6.8125 2.9375 C6.544375 2.298125 6.27625 1.65875 6 1 C4.02 1 2.04 1 0 1 C0 0.67 0 0.34 0 0 Z " fill="#F52B3C" transform="translate(248,66)"/>
<path d="M0 0 C19.08005512 -0.04671475 38.16009864 -0.08198627 57.24019909 -0.10362434 C66.09936115 -0.11393818 74.95848769 -0.12800059 83.81762695 -0.15087891 C91.53898925 -0.17080946 99.26032581 -0.18371565 106.98171312 -0.18817699 C111.07035749 -0.19078493 115.15892826 -0.196917 119.24754906 -0.21146011 C123.09620992 -0.22503873 126.94476686 -0.22922207 130.7934494 -0.22621536 C132.2055677 -0.2267654 133.61768949 -0.23074122 135.02978706 -0.23841095 C136.95917875 -0.24837597 138.88862624 -0.24477402 140.81803894 -0.24050903 C142.43716832 -0.24327441 142.43716832 -0.24327441 144.08900738 -0.24609566 C148.64494578 0.13906391 151.21147991 1.16301605 154.3515625 4.49609375 C155.10179687 5.46675781 155.85203125 6.43742188 156.625 7.4375 C159.43529556 11.18361099 159.43529556 11.18361099 162.76171875 14.4296875 C164.78325011 16.99326985 164.28185085 19.51102132 164.1875 22.6875 C164.14689453 24.45673828 164.14689453 24.45673828 164.10546875 26.26171875 C164.07066406 27.16535156 164.03585937 28.06898438 164 29 C163.01 28.154375 162.02 27.30875 161 26.4375 C160.34644531 25.88320312 159.69289063 25.32890625 159.01953125 24.7578125 C157.78077392 23.67959045 156.5635522 22.57517672 155.38671875 21.4296875 C150.69299991 16.96256198 145.4390104 13.6228606 139.9375 10.25 C139.16946045 9.77796143 138.4014209 9.30592285 137.61010742 8.81958008 C135.42152526 7.5022885 133.25346559 6.20368213 131 5 C130.04830933 4.488358 129.09661865 3.976716 128.11608887 3.4495697 C122.8638524 1.23709346 117.43570062 1.56052543 111.82250977 1.56762695 C110.61204483 1.5574353 109.4015799 1.54724365 108.1544342 1.53674316 C104.85317154 1.51181322 101.55235306 1.49990349 98.25103498 1.49388909 C94.7943173 1.48447733 91.33772687 1.4582718 87.88108826 1.43388367 C81.34355918 1.39029172 74.8060549 1.36170003 68.26842493 1.33856028 C60.82213971 1.3114693 53.37598297 1.2675603 45.92978966 1.22227156 C30.61992592 1.12953001 15.31003795 1.05780143 0 1 C0 0.67 0 0.34 0 0 Z " fill="#DE2B3A" transform="translate(180,169)"/>
<path d="M0 0 C6.14464207 -0.64006688 10.26174141 -0.05131744 15.3359375 3.59765625 C18.56813619 6.32150444 19.79600321 8.3137987 20.30859375 12.55078125 C20.51272529 17.12209057 20.3494606 20.26075642 18.375 24.4375 C15.77538547 27.24234726 13.37870458 29.20281671 10 31 C9.01 30.67 8.02 30.34 7 30 C7.66 29.13375 8.32 28.2675 9 27.375 C12.4977681 21.25390582 12.15130876 13.23054874 10.33984375 6.57421875 C9.41076831 4.40016404 9.41076831 4.40016404 7 2 C3.36852515 0.9434891 3.36852515 0.9434891 0 1 C0 0.67 0 0.34 0 0 Z " fill="#EB651E" transform="translate(314,292)"/>
<path d="M0 0 C6.43976569 1.15915782 9.26788616 3.6898783 13 9 C14.92430434 12.84860867 14.58388456 17.15158831 13.31640625 21.1640625 C11.1750777 25.90874899 8.82079458 28.69003593 4 31 C1.625 30.75 1.625 30.75 0 30 C0.639375 29.071875 1.27875 28.14375 1.9375 27.1875 C5.37814699 21.87013648 5.67754239 17.18703179 5 11 C3.94748088 7.83287429 2.57606081 4.93691653 1 2 C0.67 1.34 0.34 0.68 0 0 Z " fill="#EA631E" transform="translate(193,292)"/>
</svg>
