<?xml version="1.0" encoding="UTF-8"?>
<svg version="1.1" xmlns="http://www.w3.org/2000/svg" width="512" height="512">
<path d="M0 0 C18.15214297 15.06542911 31.00395361 35.15400166 33.74267578 58.96240234 C35.92698156 83.90947357 30.91848449 108.23502008 14.76953125 128.0078125 C14.16496094 128.72710937 13.56039063 129.44640625 12.9375 130.1875 C12.34324219 130.92742187 11.74898438 131.66734375 11.13671875 132.4296875 C-2.84808043 149.16512006 -24.45622906 159.89840319 -46.0625 162.1875 C-49.33474299 162.34195779 -52.59940149 162.37746935 -55.875 162.375 C-56.75704102 162.37564453 -57.63908203 162.37628906 -58.54785156 162.37695312 C-64.6230674 162.32757937 -70.16990312 161.75885917 -76.0625 160.1875 C-76.30484375 161.20328125 -76.5471875 162.2190625 -76.796875 163.265625 C-77.13485213 164.65638731 -77.47343801 166.04700177 -77.8125 167.4375 C-78.07450195 168.53034302 -78.07450195 168.53034302 -78.34179688 169.64526367 C-79.44063781 174.10172845 -80.83330403 178.23876708 -82.5625 182.5 C-84.49839565 188.07686863 -83.44664468 190.65040362 -81.109375 195.87890625 C-77.17938419 208.29943691 -79.64945509 222.51402269 -85.41796875 233.8515625 C-91.88919796 245.33669316 -100.53879505 253.96431072 -113.3125 258.125 C-117.34235099 259.18074371 -120.91436828 259.45803033 -125.0625 259.1875 C-125.01609375 260.31285156 -124.9696875 261.43820312 -124.921875 262.59765625 C-124.92620014 267.51209513 -126.01113348 271.91040025 -127.3125 276.625 C-127.51746094 277.41970703 -127.72242188 278.21441406 -127.93359375 279.03320312 C-129.64486396 285.40638822 -129.64486396 285.40638822 -131.02532959 287.98829651 C-134.67100862 295.02486056 -134.66442063 301.59654348 -134.671875 309.41015625 C-134.68688413 310.76494801 -134.70361694 312.11972166 -134.72198486 313.47447205 C-134.76536534 317.0105786 -134.78559144 320.54643849 -134.80072021 324.08276367 C-134.82039822 327.70310884 -134.86235547 331.32319166 -134.90234375 334.94335938 C-134.97732714 342.02463903 -135.02781046 349.1058988 -135.0625 356.1875 C-134.05819946 356.17861755 -133.05389893 356.16973511 -132.01916504 356.1605835 C-122.48815199 356.07899124 -112.95721111 356.01929401 -103.42592621 355.98025131 C-98.52745342 355.9595033 -93.62926578 355.93142366 -88.73095703 355.88574219 C-83.99115759 355.84182282 -79.25162991 355.81826716 -74.51164246 355.80799103 C-72.71619904 355.80068138 -70.92076807 355.78641134 -69.1254425 355.76457977 C-53.12460467 355.5779985 -35.23431549 357.02694027 -22.0625 367.1875 C-21.00193506 369.75268756 -20.82395394 371.80226882 -20.6640625 374.5625 C-19.60136472 379.19972666 -15.99677425 381.76923743 -12.5703125 384.86328125 C-10.0625 387.1875 -10.0625 387.1875 -7.92578125 389.98046875 C-7.31089844 390.70878906 -6.69601562 391.43710937 -6.0625 392.1875 C-5.093125 392.1875 -4.12375 392.1875 -3.125 392.1875 C-0.0625 392.1875 -0.0625 392.1875 2.5 393.875 C12.21545726 404.90674501 12.25967308 422.35406798 12.2734375 436.1171875 C12.27987683 437.64031088 12.28660601 439.16343306 12.29360962 440.68655396 C12.30550894 443.85844802 12.30929732 447.03023367 12.30810547 450.20214844 C12.30790096 454.26426596 12.3353705 458.32569424 12.36964989 462.38764763 C12.39187077 465.52407027 12.39594475 468.66032447 12.39488602 471.79681778 C12.39724278 473.29514093 12.40607068 474.79346868 12.42155075 476.29171371 C12.44114519 478.38101025 12.43540417 480.46878452 12.42333984 482.55810547 C12.42618988 483.74483856 12.42903992 484.93157166 12.43197632 486.15426636 C11.83850797 489.79474029 10.81843479 490.960932 7.9375 493.1875 C5.19606726 493.91569307 2.70787346 493.76087647 -0.0625 493.1875 C-2.5625 491.375 -2.5625 491.375 -4.0625 489.1875 C-4.0625 488.1975 -4.0625 487.2075 -4.0625 486.1875 C-116.2625 486.1875 -228.4625 486.1875 -344.0625 486.1875 C-344.7225 487.8375 -345.3825 489.4875 -346.0625 491.1875 C-348.0625 493.1875 -348.0625 493.1875 -351.9375 493.5625 C-355.08977367 493.48799171 -355.90638675 493.30068211 -358.5625 491.375 C-360.0625 489.1875 -360.0625 489.1875 -360.0625 486.1875 C-376.5625 486.1875 -393.0625 486.1875 -410.0625 486.1875 C-410.7225 487.8375 -411.3825 489.4875 -412.0625 491.1875 C-414.62327765 493.74827765 -416.49132603 493.50201364 -419.9921875 493.6484375 C-423.16277937 492.94253214 -424.1246274 491.80890369 -426.0625 489.1875 C-426.66817254 485.98467213 -426.59744169 482.81327591 -426.56370544 479.56201172 C-426.56923984 478.57475759 -426.57477424 477.58750345 -426.58047634 476.57033253 C-426.59412133 473.2523637 -426.57909195 469.9351421 -426.56420898 466.6171875 C-426.56799094 464.24200622 -426.57348996 461.86682714 -426.58058167 459.49165344 C-426.59312074 453.70216402 -426.58694748 447.91291515 -426.57190608 442.12343615 C-426.55504146 435.37473874 -426.55825725 428.62609556 -426.56200016 421.87738359 C-426.56788183 409.82625213 -426.55370012 397.77522504 -426.52905273 385.72412109 C-426.50517374 374.04732339 -426.49803145 362.37066539 -426.50854492 350.69384766 C-426.51997869 337.97217287 -426.5218506 325.25056275 -426.50744683 312.5288887 C-426.50592107 311.16942597 -426.50440071 309.80996323 -426.50288582 308.45050049 C-426.502128 307.78169019 -426.50137019 307.11287989 -426.50058941 306.42380261 C-426.49586219 301.72806155 -426.49768721 297.03234949 -426.50195122 292.33660889 C-426.50674039 286.00005278 -426.49653887 279.66368899 -426.47499657 273.32716942 C-426.46945304 271.00690548 -426.4689409 268.68662296 -426.47394943 266.3663578 C-426.50136823 251.8366653 -426.18723857 239.16323181 -419.375 226 C-418.86259766 224.97241577 -418.86259766 224.97241577 -418.33984375 223.92407227 C-416.20872533 219.82857211 -413.95305883 216.8168227 -410.5625 213.625 C-407.87843888 210.88360942 -407.11888751 209.67098104 -406.66796875 205.8046875 C-406.72338416 203.2344681 -406.82083311 200.66486265 -406.95703125 198.09765625 C-407.31537908 184.81224234 -402.02980313 172.66128054 -393.03125 163.03125 C-382.28867006 152.97073862 -370.21540553 148.97657832 -355.75 149.125 C-354.91404297 149.12951172 -354.07808594 149.13402344 -353.21679688 149.13867188 C-351.16533351 149.15039452 -349.11390727 149.16832797 -347.0625 149.1875 C-347.10890625 148.04152344 -347.1553125 146.89554688 -347.203125 145.71484375 C-347.24066909 144.18492209 -347.27706641 142.65497199 -347.3125 141.125 C-347.34601563 140.37283203 -347.37953125 139.62066406 -347.4140625 138.84570312 C-347.51373545 133.08959045 -346.44163952 129.88266494 -343.0625 125.1875 C-341.74958984 124.1975 -341.74958984 124.1975 -340.41015625 123.1875 C-337.19302641 120.44678373 -337.11490658 118.3155442 -336.5 114.1875 C-336.26996434 112.83366476 -336.03420908 111.48078989 -335.79296875 110.12890625 C-335.6748584 109.46004395 -335.55674805 108.79118164 -335.43505859 108.10205078 C-332.03769102 90.64323263 -322.29733155 73.4483266 -307.6875 63.0625 C-306.16237495 62.07805474 -304.62093964 61.11830866 -303.0625 60.1875 C-302.14210938 59.63320312 -301.22171875 59.07890625 -300.2734375 58.5078125 C-299.54382813 58.07210937 -298.81421875 57.63640625 -298.0625 57.1875 C-298.3925 56.1975 -298.7225 55.2075 -299.0625 54.1875 C-299.59635142 48.22273706 -299.61520149 43.23004405 -296.0625 38.1875 C-289.59707798 30.75575142 -280.90414758 29.88332702 -271.6875 28.0625 C-270.12848471 27.74031432 -268.56988551 27.41610839 -267.01171875 27.08984375 C-264.68352289 26.60282474 -262.35507633 26.11790424 -260.0244751 25.64251709 C-253.9089483 24.39134014 -247.83598073 22.99243944 -241.77481079 21.50045776 C-208.30464371 13.38258667 -169.65477079 20.0060409 -138.0625 32.1875 C-137.7221875 30.95 -137.7221875 30.95 -137.375 29.6875 C-135.60376181 24.96419815 -133.47859705 19.73726743 -129.1015625 16.9296875 C-127.0625 16.1875 -127.0625 16.1875 -123.8125 16.5625 C-118.087003 15.9899503 -115.78728172 12.28788996 -112.0625 8.1875 C-107.4625 4.1875 -107.4625 4.1875 -105.0625 4.1875 C-105.12050781 3.58421875 -105.17851562 2.9809375 -105.23828125 2.359375 C-105.28339844 1.56015625 -105.32851563 0.7609375 -105.375 -0.0625 C-105.43300781 -0.85140625 -105.49101562 -1.6403125 -105.55078125 -2.453125 C-104.8243753 -5.96311853 -102.98957482 -6.86380095 -100.0625 -8.8125 C-68.70576655 -26.7306334 -28.03450315 -21.77101632 0 0 Z M-344.0625 288.1875 C-344.0625 317.2275 -344.0625 346.2675 -344.0625 376.1875 C-341.4225 374.2075 -338.7825 372.2275 -336.0625 370.1875 C-323.23540602 361.87282086 -310.38575297 357.10294351 -294.94580078 356.98217773 C-294.15488541 356.97227814 -293.36397003 356.96237854 -292.54908752 356.95217896 C-289.95202561 356.92075812 -287.35494545 356.89588386 -284.7578125 356.87109375 C-282.95034325 356.85050743 -281.14287863 356.82951052 -279.3354187 356.80812073 C-274.59098068 356.75307335 -269.84650047 356.70358801 -265.10198975 356.65527344 C-260.25545521 356.60493143 -255.40898154 356.54931181 -250.5625 356.49414062 C-241.06255206 356.38677123 -231.56255115 356.28527961 -222.0625 356.1875 C-222.0625 352.5575 -222.0625 348.9275 -222.0625 345.1875 C-223.26003906 345.02894531 -224.45757812 344.87039063 -225.69140625 344.70703125 C-252.08710947 341.01136026 -276.49038122 330.86111057 -293.0625 309.1875 C-298.00763524 302.20841268 -302.48422859 294.96635089 -306.0625 287.1875 C-318.73355187 287.1875 -331.39763064 287.79172283 -344.0625 288.1875 Z " fill="#020201" transform="translate(452.0625,18.8125)"/>
<path d="M0 0 C1.48337608 0.00212242 1.48337608 0.00212242 2.99671936 0.00428772 C6.13456329 0.00985537 9.27233412 0.02240185 12.41015625 0.03515625 C14.54622292 0.04017543 16.68229072 0.04473761 18.81835938 0.04882812 C24.036483 0.05981419 29.2545644 0.07651989 34.47265625 0.09765625 C34.58730225 1.07532959 34.70194824 2.05300293 34.82006836 3.06030273 C35.69863074 10.26327173 36.6525052 17.27494133 39.03515625 24.16015625 C39.28837646 24.90620117 39.54159668 25.65224609 39.80249023 26.42089844 C46.58480808 45.21503179 60.65672806 59.41159873 78.47265625 68.09765625 C99.2428045 76.52635429 119.28471625 75.97706417 140.01269531 67.63989258 C146.20019064 64.97811124 151.29317525 61.34834502 156.47265625 57.09765625 C157.17777344 56.5665625 157.88289062 56.03546875 158.609375 55.48828125 C167.98005604 48.05064836 174.16963309 37.08482211 178.47265625 26.09765625 C178.76785156 25.40929687 179.06304687 24.7209375 179.3671875 24.01171875 C181.36225508 18.88154496 181.9592758 13.72528346 182.5546875 8.29296875 C182.64415649 7.50414307 182.73362549 6.71531738 182.82580566 5.90258789 C183.04474833 3.96798417 183.25915695 2.03286825 183.47265625 0.09765625 C190.33694538 -0.0047629 197.20103354 -0.0742314 204.06591797 -0.12207031 C206.39541995 -0.14203839 208.72487278 -0.16922254 211.05419922 -0.20410156 C227.12754588 -0.43854763 239.81264117 0.37793828 254.50390625 7.33984375 C257.57315661 8.52126155 260.24661684 8.49268148 263.47265625 8.09765625 C264.13265625 7.43765625 264.79265625 6.77765625 265.47265625 6.09765625 C269.41031435 6.33124614 271.33373672 8.61836276 273.97265625 11.34765625 C274.76285156 12.15589844 275.55304688 12.96414063 276.3671875 13.796875 C278.47265625 16.09765625 278.47265625 16.09765625 280.66015625 19.16015625 C281.25828125 19.79953125 281.85640625 20.43890625 282.47265625 21.09765625 C283.44203125 21.09765625 284.41140625 21.09765625 285.41015625 21.09765625 C288.47265625 21.09765625 288.47265625 21.09765625 291.03515625 22.78515625 C300.75061351 33.81690126 300.79482933 51.26422423 300.80859375 65.02734375 C300.81503308 66.55046713 300.82176226 68.07358931 300.82876587 69.59671021 C300.84066519 72.76860427 300.84445357 75.94038992 300.84326172 79.11230469 C300.84305721 83.17442221 300.87052675 87.23585049 300.90480614 91.29780388 C300.92702702 94.43422652 300.931101 97.57048072 300.93004227 100.70697403 C300.93239903 102.20529718 300.94122693 103.70362493 300.956707 105.20186996 C300.97630144 107.2911665 300.97056042 109.37894077 300.95849609 111.46826172 C300.96134613 112.65499481 300.96419617 113.84172791 300.96713257 115.06442261 C300.37366422 118.70489654 299.35359104 119.87108825 296.47265625 122.09765625 C293.73122351 122.82584932 291.24302971 122.67103272 288.47265625 122.09765625 C285.97265625 120.28515625 285.97265625 120.28515625 284.47265625 118.09765625 C284.47265625 117.10765625 284.47265625 116.11765625 284.47265625 115.09765625 C171.94265625 115.09765625 59.41265625 115.09765625 -56.52734375 115.09765625 C-56.52734375 29.33903556 -56.52734375 29.33903556 -44.90234375 15.91015625 C-32.36293435 3.89013067 -16.84012833 -0.09166582 0 0 Z " fill="#FAD030" transform="translate(163.52734375,389.90234375)"/>
<path d="M0 0 C14.31762957 13.56278856 24.88253516 29.75832717 25.66796875 49.9140625 C26.06197078 73.48586955 20.82808683 94.00032965 4.08984375 111.57421875 C-11.18257183 125.79999327 -31.13013282 133.93393254 -51.98657227 133.64404297 C-64.12163801 133.14575262 -74.67098632 129.89110999 -85.12548828 123.73046875 C-90.74431645 120.57790322 -95.03503149 121.15941681 -101.08300781 122.83520508 C-103.59718607 123.59404863 -106.087712 124.404921 -108.578125 125.23828125 C-110.26220949 125.79413089 -111.94706985 126.34763709 -113.6328125 126.8984375 C-114.36741699 127.14343994 -115.10202148 127.38844238 -115.85888672 127.64086914 C-117.703125 128.17578125 -117.703125 128.17578125 -119.703125 128.17578125 C-119.02603925 122.19096585 -117.4262392 116.8897089 -115.43164062 111.22460938 C-113.37813505 105.05211885 -112.36290034 99.44364996 -115.34765625 93.3515625 C-116.05991561 92.05802257 -116.78299073 90.77039122 -117.515625 89.48828125 C-125.8137746 73.75304222 -127.33761444 55.50645317 -123.140625 38.17578125 C-120.66541146 30.21089768 -117.19500301 21.56624638 -111.97265625 15 C-110.34267395 13.06523719 -110.34267395 13.06523719 -110.953125 9.67578125 C-111.56116511 6.3870952 -111.56116511 6.3870952 -112.46875 4.203125 C-112.703125 2.17578125 -112.703125 2.17578125 -111.296875 0.2109375 C-99.58431312 -10.82421875 -99.58431312 -10.82421875 -95.703125 -10.82421875 C-95.703125 -10.16421875 -95.703125 -9.50421875 -95.703125 -8.82421875 C-89.27347227 -7.53544007 -85.85429309 -8.0500245 -80.140625 -11.13671875 C-54.51083845 -24.41736619 -21.58740053 -18.65354241 0 0 Z " fill="#FABF6C" transform="translate(444.703125,32.82421875)"/>
<path d="M0 0 C-0.77397533 6.70778622 -1.85768588 13.34574301 -3 20 C-3.64324219 19.81824219 -4.28648437 19.63648438 -4.94921875 19.44921875 C-12.25118591 17.41800107 -19.5836565 15.56694868 -27 14 C-27.8154126 13.82645996 -28.6308252 13.65291992 -29.47094727 13.47412109 C-36.02010873 12.16905352 -42.26711335 11.68275119 -48.9375 11.75 C-49.9289502 11.75676758 -50.92040039 11.76353516 -51.94189453 11.77050781 C-64.98582801 11.94939129 -77.80849532 13.07487266 -90.5625 15.875 C-91.27132324 16.02420898 -91.98014648 16.17341797 -92.71044922 16.32714844 C-95.72890889 17.05479289 -97.71978817 17.72922104 -99.97265625 19.90625 C-101.57662463 23.17517415 -100.8912262 25.56241323 -100 29 C-96.06967126 31.62021916 -93.40496482 30.82835015 -89 30 C-87.60225964 29.6961434 -86.20642935 29.38338613 -84.8125 29.0625 C-74.46309833 26.6906892 -64.29850024 25.63464798 -53.6875 25.6875 C-52.50760498 25.69241455 -51.32770996 25.6973291 -50.11206055 25.70239258 C-34.73909746 25.90812505 -15.14861633 28.28566777 -2 37 C-0.75 40.046875 -0.75 40.046875 0 43.75 C1.24965557 49.44341687 2.96528585 54.54375168 5.3125 59.875 C8.94587143 68.55735645 7.96771704 73.0894688 5.07543945 81.86816406 C4.72872192 82.92342285 4.72872192 82.92342285 4.375 84 C4.14449951 84.69706055 3.91399902 85.39412109 3.67651367 86.11230469 C1.55410015 92.81833799 1.41262116 97.34902868 4.25 103.875 C6.80574982 106.9784105 8.87618613 108.55845865 12.87890625 109.390625 C20.07333031 109.94115484 26.55130045 107.44911474 33.22314453 105.04711914 C38.75592237 103.11738314 42.58258152 102.43000516 48.1171875 104.97265625 C49.74479167 105.98177083 51.37239583 106.99088542 53 108 C51.9706067 115.24638702 50.32399717 121.46495702 47 128 C45.87464844 127.566875 45.87464844 127.566875 44.7265625 127.125 C33.43639425 123.02982562 22.61446929 122.46471069 11.5 127.625 C10.675 128.07875 9.85 128.5325 9 129 C8.34 129 7.68 129 7 129 C5.7734375 127.09375 5.7734375 127.09375 4.375 124.5 C-0.92454275 115.44981468 -7.27737169 109.93172117 -17 106 C-17.84433594 105.65775391 -18.68867188 105.31550781 -19.55859375 104.96289062 C-23.9463936 103.73520315 -28.01943596 103.64644128 -32.5546875 103.5859375 C-33.45623566 103.56657135 -34.35778381 103.5472052 -35.28665161 103.5272522 C-38.14933996 103.46775704 -41.01206918 103.42119183 -43.875 103.375 C-45.82293363 103.33679253 -47.77085086 103.2977392 -49.71875 103.2578125 C-54.47903258 103.16208035 -59.2393942 103.07793884 -64 103 C-64.02578125 101.77023438 -64.0515625 100.54046875 -64.078125 99.2734375 C-64.13443006 97.64059068 -64.19177685 96.00777955 -64.25 94.375 C-64.26417969 93.56675781 -64.27835937 92.75851563 -64.29296875 91.92578125 C-64.56616364 85.20518693 -66.47465534 81.33594381 -71.5 76.6875 C-75.03893846 74.29871654 -78.02731827 73.87919895 -82.23944092 73.84178162 C-83.07794083 73.8319928 -83.91644073 73.82220398 -84.78034973 73.81211853 C-85.69169174 73.80636307 -86.60303375 73.8006076 -87.54199219 73.79467773 C-88.99127357 73.77982834 -88.99127357 73.77982834 -90.46983337 73.76467896 C-93.66215569 73.73310158 -96.85449288 73.70832131 -100.046875 73.68359375 C-102.26076646 73.66302098 -104.47465402 73.64202442 -106.6885376 73.62062073 C-112.51475872 73.56543344 -118.3410151 73.51600937 -124.16729736 73.46777344 C-130.11286557 73.41753405 -136.05838259 73.3618607 -142.00390625 73.30664062 C-153.66922711 73.19909992 -165.33459241 73.09764582 -177 73 C-176.84525759 71.55421741 -176.68885141 70.10861282 -176.53173828 68.66308594 C-176.4448172 67.85804626 -176.35789612 67.05300659 -176.26834106 66.22357178 C-174.53261781 51.8407368 -165.92801888 38.23807245 -154.8125 29.2265625 C-149.9234005 25.78673178 -144.66963282 23.33321742 -139.1875 20.98046875 C-137.067425 20.18610608 -137.067425 20.18610608 -136 19 C-135.60497518 13.17338395 -136.22084502 10.21091559 -139 5 C-139.1875 2.125 -139.1875 2.125 -139 0 C-134.90608638 -1.43890039 -130.88719661 -2.51985969 -126.6328125 -3.3671875 C-125.42439697 -3.61122314 -124.21598145 -3.85525879 -122.97094727 -4.10668945 C-121.70178467 -4.36023193 -120.43262207 -4.61377441 -119.125 -4.875 C-109.70844015 -6.77839548 -100.35383539 -8.77892851 -91.06640625 -11.23828125 C-63.66073893 -18.04605848 -25.08685758 -13.13615786 0 0 Z " fill="#3E5858" transform="translate(308,66)"/>
<path d="M0 0 C2.2560793 2.17252081 4.20507809 4.27965194 6.0625 6.8125 C12.86084193 15.0497548 24.62208226 20.25511749 35 22 C37.16069776 22.09782521 39.32394072 22.14533186 41.48681641 22.15771484 C42.77810455 22.16797699 44.0693927 22.17823914 45.39981079 22.18881226 C46.42687574 22.19396914 46.42687574 22.19396914 47.47468948 22.19923019 C49.62672174 22.21107599 51.7785584 22.2305392 53.93051147 22.25234985 C60.04605641 22.31380239 66.16157499 22.36811098 72.27734375 22.40136719 C76.02449854 22.42228753 79.77128555 22.45755698 83.51823044 22.50212479 C84.94474342 22.51629312 86.37132133 22.52500912 87.79790115 22.52817917 C89.78933767 22.53307644 91.7806956 22.55782384 93.77197266 22.58349609 C94.90494781 22.59158295 96.03792297 22.5996698 97.20523071 22.60800171 C100 23 100 23 101.86190796 24.32681274 C103.84261602 27.23878767 103.39290665 29.57609918 103 33 C100.76706261 39.64835031 97.12183723 43.73077989 90.97338867 47.11572266 C86.46166712 48.45749583 82.04544079 48.27813968 77.36328125 48.2734375 C75.23762503 48.29373515 73.11197403 48.31458609 70.98632812 48.3359375 C67.65335681 48.35847247 64.32059267 48.37498574 60.98754883 48.38085938 C57.75824989 48.390444 54.52987144 48.42430071 51.30078125 48.4609375 C50.31813797 48.45589203 49.33549469 48.45084656 48.32307434 48.44564819 C38.8514072 48.57871114 30.71869541 51.2864362 23.76171875 57.890625 C18.57288998 64.10341332 16.42716105 70.89140119 16.53125 78.90625 C17.11175566 81.49917528 17.87438422 82.4303902 20 84 C23.5 84.58333333 23.5 84.58333333 27 84 C29.90266977 81.6978826 30.25312519 79.04237192 30.9375 75.5625 C31.74791806 71.46313529 32.93417683 68.97291944 36 66 C36.99 65.67 37.98 65.34 39 65 C39 130.01 39 195.02 39 262 C22.17 262 5.34 262 -12 262 C-12.06617851 231.85042837 -12.1215548 201.700897 -12.15319599 171.55127297 C-12.15694796 167.98909721 -12.16083094 164.42692162 -12.16479492 160.86474609 C-12.16558185 160.15560288 -12.16636878 159.44645967 -12.16717956 158.71582727 C-12.18022143 147.24447444 -12.20386853 135.77316687 -12.23145839 124.30184086 C-12.25954656 112.52480615 -12.27618346 100.7477951 -12.28226548 88.97072828 C-12.2860068 82.3584238 -12.2953542 75.7462034 -12.31719017 69.13393021 C-12.33758509 62.90745548 -12.34382764 56.68112532 -12.33932304 50.45462036 C-12.34014689 48.17220651 -12.34609448 45.88978772 -12.35761642 43.6074028 C-12.37260735 40.48407438 -12.36892934 37.36128729 -12.36076355 34.23794556 C-12.37387134 32.89256964 -12.37387134 32.89256964 -12.38724393 31.52001441 C-12.32752941 23.03283572 -10.17496169 15.46653362 -6 8.0625 C-5.505 7.16660156 -5.01 6.27070313 -4.5 5.34765625 C-3.15631498 3.24464922 -1.84463905 1.66346914 0 0 Z " fill="#FCD8CB" transform="translate(53,243)"/>
<path d="M0 0 C4.75907941 4.26845267 8.63213231 10.05591037 9.09765625 16.51953125 C9.25865921 27.87024024 6.85430096 36.56546458 -0.10546875 45.69921875 C-5.97638908 51.39903758 -12.37196564 55.76344638 -20.73046875 56.01171875 C-24.26904306 55.89776466 -26.85841827 55.1423523 -30.10546875 53.69921875 C-32.91126602 53.36519527 -34.43782817 53.33086533 -36.91796875 54.69921875 C-38.89133924 58.0227901 -38.40859713 60.8798012 -38.10546875 64.69921875 C-37.44546875 65.35921875 -36.78546875 66.01921875 -36.10546875 66.69921875 C-35.69924694 72.48631714 -36.47450498 77.30917603 -38.16796875 82.82421875 C-38.38984863 83.55705078 -38.61172852 84.28988281 -38.84033203 85.04492188 C-45.595057 106.3756323 -59.05600614 122.29912009 -78.578125 133.0625 C-97.23545046 142.3767444 -117.91480191 144.60296281 -137.91015625 138.546875 C-160.2857473 131.04230434 -176.33133464 116.31845903 -187.171875 95.42578125 C-188.25231073 92.27036645 -188.19725508 90.82593077 -187.10546875 87.69921875 C-185.80078125 85.77734375 -185.80078125 85.77734375 -184.23046875 83.94921875 C-179.49112902 77.85740557 -178.10105746 72.03462711 -177.53125 64.40234375 C-177.44915283 63.33145508 -177.36705566 62.26056641 -177.2824707 61.15722656 C-177.22406006 60.34608398 -177.16564941 59.53494141 -177.10546875 58.69921875 C-176.55238509 58.69867398 -175.99930143 58.69812922 -175.42945766 58.69756794 C-161.90479908 58.68253048 -148.38047155 58.6394934 -134.85599422 58.56712818 C-128.31532722 58.5329592 -121.77489131 58.50776386 -115.23413086 58.50366211 C-108.91207553 58.49935759 -102.59054063 58.47071618 -96.26864815 58.42578697 C-93.86678674 58.4128807 -91.46486283 58.40847966 -89.06297112 58.41306496 C-71.05832721 58.43941065 -55.50210666 57.84306617 -41.9921875 44.6328125 C-33.48463267 35.68977041 -30.08109433 25.89822966 -30.12475586 13.66455078 C-30.04476475 4.73592323 -30.04476475 4.73592323 -26.99609375 1.37109375 C-18.5482585 -3.77758691 -8.48794302 -5.84278523 0 0 Z " fill="#FDD9CC" transform="translate(348.10546875,207.30078125)"/>
<path d="M0 0 C0.0154612 1.19270256 0.0154612 1.19270256 0.03123474 2.40950012 C0.12917088 9.89915744 0.23167981 17.38873153 0.33933926 24.87825489 C0.39452767 28.72878482 0.44794113 32.57932241 0.49731445 36.42993164 C0.54501824 40.14526156 0.59736321 43.86049964 0.65294075 47.57571983 C0.67333705 48.99388024 0.69205463 50.41206581 0.70907402 51.83027077 C0.73317806 53.81504721 0.7637786 55.79974155 0.79467773 57.78442383 C0.81799416 59.47986076 0.81799416 59.47986076 0.84178162 61.20954895 C0.88252967 64.08428342 0.88252967 64.08428342 2 67 C4.89461901 69.36139302 4.89461901 69.36139302 8.5625 68.8125 C12.25825752 68.35160238 12.25825752 68.35160238 14 65 C14.45601261 62.49103314 14.45601261 62.49103314 14.625 59.8125 C14.810625 57.4303125 14.810625 57.4303125 15 55 C20.28 55 25.56 55 31 55 C32.1265573 68.51868756 26.71086688 81.0370699 19 92 C18.58621094 92.6084375 18.17242187 93.216875 17.74609375 93.84375 C10.30096168 103.62243093 -1.56333862 109.42791941 -13 113 C-14.13308594 113.36738281 -14.13308594 113.36738281 -15.2890625 113.7421875 C-29.35551804 117.58807235 -43.95602434 114.76339503 -56.75 108.3125 C-62.52325433 104.94547686 -67.27730415 100.69761959 -72 96 C-72.55300781 95.48179687 -73.10601562 94.96359375 -73.67578125 94.4296875 C-83.89270359 83.90983754 -88 69.15416758 -88 55 C-82.06 55 -76.12 55 -70 55 C-69.87625 57.35125 -69.87625 57.35125 -69.75 59.75 C-69.40326787 63.14990119 -69.17368135 64.73947798 -67.25 67.625 C-64.53628571 69.28338096 -63.12833346 69.48128207 -60 69 C-56.75150023 67.27773504 -56.75150023 67.27773504 -56 64 C-55.8460737 61.19839498 -55.74261955 58.41701575 -55.68359375 55.61328125 C-55.66281265 54.79627243 -55.64203156 53.97926361 -55.62062073 53.13749695 C-55.55526921 50.52924966 -55.49630727 47.92090225 -55.4375 45.3125 C-55.39430108 43.54360946 -55.35068635 41.77472903 -55.30664062 40.00585938 C-55.19960257 35.67067537 -55.09829456 31.33539071 -55 27 C-53.97096558 26.83673218 -53.97096558 26.83673218 -52.92114258 26.67016602 C-33.43413584 23.38406917 -17.09029761 15.29661354 -2.79296875 1.65234375 C-1 0 -1 0 0 0 Z " fill="#FDC2AD" transform="translate(301,335)"/>
<path d="M0 0 C12.54 0 25.08 0 38 0 C34.535 5.445 34.535 5.445 31 11 C24.90026407 22.16121893 23.53580468 35.52217425 26.921875 47.92578125 C29.33351108 54.58910042 32.86637142 60.28355795 37 66 C37.33 66.66 37.66 67.32 38 68 C25.46 68 12.92 68 0 68 C1.44699734 65.10600533 2.80771334 62.79652852 4.625 60.1875 C7.04404321 56.34000101 7.81184797 53.60047182 7 49 C4.96264422 46.66081374 3.66971782 46.1092291 0.62890625 45.61328125 C-2.19949369 45.76353348 -2.19949369 45.76353348 -4.2109375 48.1953125 C-4.92507812 49.16210938 -5.63921875 50.12890625 -6.375 51.125 C-12.44719062 58.91781135 -18.10074411 64.67308328 -28 67 C-39.4317742 68.08583554 -49.06801158 67.10462813 -58.1484375 59.796875 C-61.44534097 56.59734843 -63.78408281 53.00383792 -66 49 C-66.34160156 48.39671875 -66.68320313 47.7934375 -67.03515625 47.171875 C-70.52135108 39.71303956 -70.42461518 30.20736349 -67.828125 22.5390625 C-65.29255111 17.24572527 -62.60794559 12.73024167 -58 9 C-57.3915625 8.48824219 -56.783125 7.97648438 -56.15625 7.44921875 C-47.62171775 0.57235527 -38.6983871 0.11407486 -28 1 C-18.52359393 3.12139385 -11.87183711 8.90335618 -6.625 16.875 C-6.16351563 17.63554687 -5.70203125 18.39609375 -5.2265625 19.1796875 C-4.11895764 21.14545761 -4.11895764 21.14545761 -2 22 C2.11082609 22.36275952 2.11082609 22.36275952 5.875 20.9375 C7.75030531 17.70780753 7.53573573 15.69062389 7 12 C5.62129546 9.52982102 4.09162872 7.28938918 2.41015625 5.015625 C1 3 1 3 0 0 Z " fill="#8BC6F5" transform="translate(130,183)"/>
<path d="M0 0 C4.75907941 4.26845267 8.63213231 10.05591037 9.09765625 16.51953125 C9.25865921 27.87024024 6.85430096 36.56546458 -0.10546875 45.69921875 C-5.97638908 51.39903758 -12.37196564 55.76344638 -20.73046875 56.01171875 C-24.26904306 55.89776466 -26.85841827 55.1423523 -30.10546875 53.69921875 C-32.9569645 53.35975497 -34.42480478 53.26164906 -36.85546875 54.82421875 C-38.54532116 57.35899736 -38.77277484 59.70497358 -39.10546875 62.69921875 C-39.76546875 61.70921875 -40.42546875 60.71921875 -41.10546875 59.69921875 C-41.88857422 60.47845703 -41.88857422 60.47845703 -42.6875 61.2734375 C-43.42355469 61.97082031 -44.15960938 62.66820312 -44.91796875 63.38671875 C-45.62566406 64.07121094 -46.33335937 64.75570312 -47.0625 65.4609375 C-55.29916585 71.51948632 -63.00125359 73.43890991 -73.09448242 73.2668457 C-74.23725647 73.26757584 -75.38003052 73.26830597 -76.55743408 73.26905823 C-80.29660194 73.265603 -84.03448999 73.22683727 -87.7734375 73.1875 C-90.38087789 73.1781646 -92.9883271 73.17105193 -95.59577942 73.1660614 C-101.73321679 73.15059665 -107.87020232 73.10967001 -114.00744182 73.05931395 C-121.00145375 73.00318882 -127.99548865 72.97587617 -134.98967016 72.95083678 C-149.36185117 72.89874602 -163.73362756 72.80992779 -178.10546875 72.69921875 C-177.77546875 68.07921875 -177.44546875 63.45921875 -177.10546875 58.69921875 C-175.76068954 58.69779373 -174.41591034 58.69636871 -173.03038025 58.69490051 C-160.30542305 58.67817067 -147.58078319 58.63521452 -134.85599422 58.56712818 C-128.31532722 58.5329592 -121.77489131 58.50776386 -115.23413086 58.50366211 C-108.91207553 58.49935759 -102.59054063 58.47071618 -96.26864815 58.42578697 C-93.86678674 58.4128807 -91.46486283 58.40847966 -89.06297112 58.41306496 C-71.05832721 58.43941065 -55.50210666 57.84306617 -41.9921875 44.6328125 C-33.48463267 35.68977041 -30.08109433 25.89822966 -30.12475586 13.66455078 C-30.04476475 4.73592323 -30.04476475 4.73592323 -26.99609375 1.37109375 C-18.5482585 -3.77758691 -8.48794302 -5.84278523 0 0 Z " fill="#FDC3AE" transform="translate(348.10546875,207.30078125)"/>
<path d="M0 0 C18.28280859 -1.22566315 36.86603828 5.8676757 50.703125 17.82421875 C65.02075457 31.38700731 75.58566016 47.58254592 76.37109375 67.73828125 C76.76509578 91.3100883 71.53121183 111.8245484 54.79296875 129.3984375 C38.103631 144.94403043 17.77399811 151.78829496 -4.625 151.140625 C-5.73875 151.09421875 -6.8525 151.0478125 -8 151 C-8 150.67 -8 150.34 -8 150 C-7.39414062 149.99742187 -6.78828125 149.99484375 -6.1640625 149.9921875 C7.10157936 149.37992711 17.83986657 139.60997397 26.625 130.3125 C42.36958931 112.06876953 48.41053879 90.51043205 47.23388672 66.71777344 C45.33611422 44.66557778 33.37495759 25.39949033 17 11 C11.64577466 7.12255149 6.00760508 3.76025098 0 1 C0 0.67 0 0.34 0 0 Z " fill="#F9A42E" transform="translate(394,15)"/>
<path d="M0 0 C9.64176297 5.72104608 15.33284533 13.81637031 18.375 24.5625 C19.88990484 34.39481507 16.7512982 43.57815912 11.03125 51.52734375 C5.63937247 58.15274043 -0.93078157 62.72614171 -9.57519531 63.80615234 C-18.90007815 64.57284584 -26.78262044 64.15997995 -34.625 58.5625 C-35.27855469 58.10488281 -35.93210938 57.64726562 -36.60546875 57.17578125 C-42.98367908 52.21192886 -47.2101798 45.53694115 -48.625 37.5625 C-49.4316166 25.63609744 -48.35892465 16.97522225 -40.65625 7.640625 C-30.06625301 -3.19375653 -13.9064846 -6.41154654 0 0 Z " fill="#030404" transform="translate(218.625,186.4375)"/>
<path d="M0 0 C6.24180468 4.24927091 9.79096865 9.23762063 13 16 C13.495 16.99 13.495 16.99 14 18 C14.12494039 20.96951349 14.18517631 23.90532395 14.1875 26.875 C14.19974609 27.69097656 14.21199219 28.50695312 14.22460938 29.34765625 C14.22654297 30.13785156 14.22847656 30.92804688 14.23046875 31.7421875 C14.23457764 32.4626123 14.23868652 33.18303711 14.24291992 33.92529297 C14 36 14 36 12.9230957 37.95361328 C11.67005251 40.73145195 12.0406703 42.14087649 13 45 C14.43025661 46.95947415 14.43025661 46.95947415 16.30859375 48.6640625 C16.97310547 49.31117187 17.63761719 49.95828125 18.32226562 50.625 C19.02029297 51.285 19.71832031 51.945 20.4375 52.625 C21.81325694 53.94838365 23.18703952 55.27382365 24.55859375 56.6015625 C25.17017334 57.18244629 25.78175293 57.76333008 26.41186523 58.36181641 C28.75276933 60.77649227 29.92816622 62.52794942 30.4375 65.875 C29.84664231 70.09541211 28.35694833 71.46363904 25 74 C21.72459346 74.51547382 20.42045224 74.29254996 17.67578125 72.3828125 C16.89589844 71.63773437 16.11601562 70.89265625 15.3125 70.125 C14.45527344 69.31417969 13.59804688 68.50335938 12.71484375 67.66796875 C11.81894531 66.78753906 10.92304688 65.90710938 10 65 C9.5270752 64.5354541 9.05415039 64.0709082 8.56689453 63.59228516 C5.68517395 60.75361914 2.83298939 57.88723812 0 55 C-0.55945313 55.2165625 -1.11890625 55.433125 -1.6953125 55.65625 C-11.30423966 58.99311216 -20.94135442 59.85052072 -30.375 55.5625 C-39.3820709 50.46370419 -44.90130825 43.44081621 -47.6875 33.5625 C-48.79020153 24.52034745 -47.63025285 16.34264984 -42.3125 8.75 C-31.69845038 -4.25483802 -15.02523734 -8.83222647 0 0 Z " fill="#050302" transform="translate(404,50)"/>
<path d="M0 0 C5.53179027 -0.07462464 11.06328205 -0.12882498 16.59545898 -0.16479492 C18.4740917 -0.17980333 20.35268984 -0.20021652 22.23120117 -0.22631836 C24.94458593 -0.26305386 27.6575041 -0.27980607 30.37109375 -0.29296875 C31.61384315 -0.31619453 31.61384315 -0.31619453 32.88169861 -0.33988953 C42.07464031 -0.34249286 50.10435157 2.27280399 56.81640625 8.75390625 C64.03688442 16.45675457 65.51491926 23.65481451 65.4375 33.9375 C65.45748047 34.87529297 65.47746094 35.81308594 65.49804688 36.77929688 C65.49146509 46.25048565 62.41744401 53.2885442 55.99609375 60.20703125 C48.25388668 67.16138163 40.541759 68.15690483 30.54296875 68.09765625 C29.64000565 68.0962413 28.73704254 68.09482635 27.80671692 68.09336853 C24.93361037 68.08778823 22.06058284 68.07523934 19.1875 68.0625 C17.23502717 68.05748245 15.28255311 68.05291999 13.33007812 68.04882812 C8.55335515 68.03782525 3.77669096 68.02057418 -1 68 C-0.59297852 67.39816895 -0.18595703 66.79633789 0.23339844 66.17626953 C0.7699707 65.37817871 1.30654297 64.58008789 1.859375 63.7578125 C2.39014648 62.97035645 2.92091797 62.18290039 3.46777344 61.37158203 C11.55788038 48.84970523 12.56093259 35.4089982 10.5703125 20.859375 C9.05082752 15.0440621 5.88702798 10.27950306 2.5234375 5.34765625 C1 3 1 3 0 0 Z " fill="#F2A02F" transform="translate(239,183)"/>
<path d="M0 0 C0 65.01 0 130.02 0 197 C-5.28 197 -10.56 197 -16 197 C-16 138.92 -16 80.84 -16 21 C-16.66 20.67 -17.32 20.34 -18 20 C-16.88625 19.731875 -15.7725 19.46375 -14.625 19.1875 C-10.78159049 18.34190981 -10.78159049 18.34190981 -9 15 C-8.65846306 13.55253391 -8.37030827 12.09184335 -8.125 10.625 C-7.28199829 6.51703929 -6.02099073 4.02099073 -3 1 C-1 0 -1 0 0 0 Z " fill="#FEC4AF" transform="translate(92,308)"/>
<path d="M0 0 C5.85811693 3.00438977 10.23971058 7.95622978 12.91796875 13.96484375 C14.88067312 20.93821694 14.55339301 28.09171598 11.58203125 34.69921875 C7.46531375 41.81096387 1.84646592 46.70930845 -6.13671875 48.8828125 C-14.49390716 50.49987122 -20.23401712 48.92899335 -27.41796875 44.32421875 C-30.35546875 41.76171875 -30.35546875 41.76171875 -32.41796875 39.32421875 C-33.25328125 38.36515625 -33.25328125 38.36515625 -34.10546875 37.38671875 C-38.06971251 31.15719283 -38.0300179 24.48990185 -37.41796875 17.32421875 C-36.03122511 11.15978899 -33.32654198 6.28559215 -28.04296875 2.72265625 C-18.20613605 -3.31098241 -10.89083229 -4.34110098 0 0 Z " fill="#030304" transform="translate(106.41796875,193.67578125)"/>
<path d="M0 0 C4.75907941 4.26845267 8.63213231 10.05591037 9.09765625 16.51953125 C9.25865921 27.87024024 6.85430096 36.56546458 -0.10546875 45.69921875 C-5.97638908 51.39903758 -12.37196564 55.76344638 -20.73046875 56.01171875 C-24.28655781 55.89758751 -26.82343715 55.08112679 -30.10546875 53.69921875 C-32.43754895 53.6227571 -34.77392753 53.60778576 -37.10546875 53.69921875 C-36.03965497 46.9490648 -34.73482232 40.25392656 -33.12109375 33.61328125 C-32.76029339 32.10059968 -32.40096334 30.5875668 -32.04296875 29.07421875 C-31.85839111 28.30529297 -31.67381348 27.53636719 -31.48364258 26.74414062 C-30.43418392 22.09619303 -29.97273456 17.79352215 -29.97973633 13.03393555 C-29.98267963 4.6563243 -29.98267963 4.6563243 -27.00390625 1.40625 C-18.59892306 -3.81277349 -8.47300703 -5.83250385 0 0 Z " fill="#FBD8CB" transform="translate(348.10546875,207.30078125)"/>
<path d="M0 0 C12.54 0 25.08 0 38 0 C35.69 3.63 33.38 7.26 31 11 C24.90026407 22.16121893 23.53580468 35.52217425 26.921875 47.92578125 C29.33351108 54.58910042 32.86637142 60.28355795 37 66 C37.33 66.66 37.66 67.32 38 68 C25.46 68 12.92 68 0 68 C1.44699734 65.10600533 2.80771334 62.79652852 4.625 60.1875 C7.05117095 56.34008098 7.72204579 53.60304191 7 49 C6.484375 48.505 5.96875 48.01 5.4375 47.5 C4.963125 47.005 4.48875 46.51 4 46 C4.23927006 43.65515344 4.5945897 41.32189536 5 39 C5.22146791 34.24225825 5.13291543 29.76124293 4.3125 25.0625 C4.209375 24.051875 4.10625 23.04125 4 22 C4.97850195 20.97895449 5.97980427 19.9793879 7 19 C7.90022365 13.99875748 6.81535036 11.31310126 4.0625 7.25 C3.51722656 6.51265625 2.97195312 5.7753125 2.41015625 5.015625 C1 3 1 3 0 0 Z " fill="#F3A02D" transform="translate(130,183)"/>
<path d="M0 0 C7.04891397 4.64196774 9.25582274 14.39136775 11.04858398 22.23217773 C12.4468135 29.41078376 12.32865412 36.64699859 12.3359375 43.9296875 C12.34237683 45.45281088 12.34910601 46.97593306 12.35610962 48.49905396 C12.36800894 51.67094802 12.37179732 54.84273367 12.37060547 58.01464844 C12.37040096 62.07676596 12.3978705 66.13819424 12.43214989 70.20014763 C12.45437077 73.33657027 12.45844475 76.47282447 12.45738602 79.60931778 C12.45974278 81.10764093 12.46857068 82.60596868 12.48405075 84.10421371 C12.50364519 86.19351025 12.49790417 88.28128452 12.48583984 90.37060547 C12.48868988 91.55733856 12.49153992 92.74407166 12.49447632 93.96676636 C11.90100797 97.60724029 10.88093479 98.773432 8 101 C6 101.53125 6 101.53125 4 101.5 C3.34 101.5103125 2.68 101.520625 2 101.53125 C-0.96045526 100.74487907 -2.09740804 99.38069331 -4 97 C-4.49206543 93.94898987 -4.49206543 93.94898987 -4.48242188 90.32641602 C-4.48633438 89.66396378 -4.49024689 89.00151154 -4.49427795 88.31898499 C-4.50024571 86.88290417 -4.49709583 85.4467628 -4.4858551 84.01071358 C-4.46853448 81.72547081 -4.47613544 79.44148725 -4.4901123 77.15623474 C-4.51971564 71.47369718 -4.50666647 65.79140065 -4.49493408 60.10882568 C-4.48666343 55.31580503 -4.49496316 50.52333421 -4.52406311 45.73039055 C-4.53106337 43.50084788 -4.51459106 41.27232415 -4.49694824 39.04286194 C-4.5006771 29.50266886 -5.68176267 20.63647467 -10 12 C-10.57395143 4.88300221 -10.57395143 4.88300221 -8.375 1.5 C-5.23686002 -0.48198314 -3.65126535 -0.67064058 0 0 Z " fill="#050400" transform="translate(452,411)"/>
<path d="M0 0 C4.42887341 -0.19893013 8.85533305 -0.34344922 13.28735352 -0.43945312 C14.79204633 -0.47949646 16.29643149 -0.53395384 17.80004883 -0.60351562 C30.22635662 -1.16366738 30.22635662 -1.16366738 34.55419922 1.67578125 C37.47480646 4.89419638 39.15839566 7.72159395 40 12 C39.02417969 12.03738281 38.04835938 12.07476562 37.04296875 12.11328125 C35.13451172 12.21189453 35.13451172 12.21189453 33.1875 12.3125 C31.29064453 12.39951172 31.29064453 12.39951172 29.35546875 12.48828125 C26.08107167 12.73819279 26.08107167 12.73819279 24.07421875 14.32421875 C22.24131907 17.18354225 22.6486616 19.72084158 23 23 C24.05715546 24.81884659 24.05715546 24.81884659 26 26 C29.02695264 26.47774226 29.02695264 26.47774226 32.375 26.375 C34.05722656 26.38660156 34.05722656 26.38660156 35.7734375 26.3984375 C39.49987104 26.15967415 39.49987104 26.15967415 44 23 C44 29.27 44 35.54 44 42 C42.68 41.34 41.36 40.68 40 40 C36.5948289 39.68304769 36.5948289 39.68304769 32.9375 39.75 C31.70902344 39.74484375 30.48054688 39.7396875 29.21484375 39.734375 C25.84845333 39.75125736 25.84845333 39.75125736 23 42 C22.34529976 47.10639024 22.34529976 47.10639024 24.07421875 51.7109375 C27.00333054 53.67160057 29.70620895 53.52780775 33.1875 53.6875 C34.45980469 53.75324219 35.73210937 53.81898438 37.04296875 53.88671875 C38.01878906 53.92410156 38.99460937 53.96148437 40 54 C38.51704474 58.89375235 36.42219711 63.27263302 32 66 C26.51820598 66.87730196 21.15511233 66.66007232 15.625 66.4375 C14.11074886 66.40235642 12.59641962 66.37042271 11.08203125 66.34179688 C7.38638827 66.26497324 3.69369226 66.14435921 0 66 C0.47703369 65.269021 0.95406738 64.53804199 1.44555664 63.78491211 C2.07324951 62.81303955 2.70094238 61.84116699 3.34765625 60.83984375 C4.27976929 59.40306274 4.27976929 59.40306274 5.23071289 57.93725586 C12.23375251 46.31126308 12.40639164 33.03309754 10.5625 19.87890625 C8.84530974 13.17113178 4.83896922 7.66986223 1 2 C0.67 1.34 0.34 0.68 0 0 Z " fill="#F7BD6B" transform="translate(239,184)"/>
<path d="M0 0 C1.35036598 -0.00422974 1.35036598 -0.00422974 2.72801208 -0.00854492 C3.72337479 -0.00652069 4.71873749 -0.00449646 5.7442627 -0.00241089 C6.78643448 -0.00416321 7.82860626 -0.00591553 8.90235901 -0.00772095 C12.36595295 -0.01214174 15.82949631 -0.00920067 19.29309082 -0.00582886 C21.68823252 -0.00650183 24.08337416 -0.0074718 26.47851562 -0.00872803 C31.5057439 -0.01020531 36.53295444 -0.00804947 41.56018066 -0.00338745 C48.02040773 0.00230985 54.48059325 -0.000969 60.94081879 -0.00695992 C65.88885819 -0.01056471 70.83688767 -0.00942732 75.78492737 -0.00683212 C78.16768905 -0.00616263 80.55045163 -0.00699206 82.93321228 -0.00931168 C86.25697231 -0.01183687 89.58066404 -0.00799949 92.90441895 -0.00241089 C93.89978165 -0.00443512 94.89514435 -0.00645935 95.92066956 -0.00854492 C96.82091354 -0.0057251 97.72115753 -0.00290527 98.64868164 0 C99.43551582 0.00037703 100.22235001 0.00075405 101.03302765 0.0011425 C102.82434082 0.12698364 102.82434082 0.12698364 103.82434082 1.12698364 C103.82434082 5.41698364 103.82434082 9.70698364 103.82434082 14.12698364 C67.85434082 14.12698364 31.88434082 14.12698364 -5.17565918 14.12698364 C-5.17565918 0.00248001 -5.17565918 0.00248001 0 0 Z " fill="#EDF3F4" transform="translate(125.1756591796875,153.87301635742188)"/>
<path d="M0 0 C9.64176297 5.72104608 15.33284533 13.81637031 18.375 24.5625 C19.88990484 34.39481507 16.7512982 43.57815912 11.03125 51.52734375 C5.63937247 58.15274043 -0.93078157 62.72614171 -9.57519531 63.80615234 C-18.90007815 64.57284584 -26.78262044 64.15997995 -34.625 58.5625 C-35.27855469 58.10488281 -35.93210938 57.64726562 -36.60546875 57.17578125 C-42.98367908 52.21192886 -47.2101798 45.53694115 -48.625 37.5625 C-49.4316166 25.63609744 -48.35892465 16.97522225 -40.65625 7.640625 C-30.06625301 -3.19375653 -13.9064846 -6.41154654 0 0 Z M-37.1015625 15.35546875 C-41.7136937 22.22213335 -41.65910215 29.55461805 -40.625 37.5625 C-38.41082064 45.53990218 -33.56667096 50.31072654 -26.625 54.5625 C-20.93799027 57.34550476 -14.30139827 57.616321 -8.2265625 55.875 C-0.36210098 52.65406013 5.1202765 48.17182528 8.6484375 40.39453125 C11.05709974 34.32107645 11.48857888 28.15821497 9.5390625 21.86328125 C6.16009666 14.45903732 1.02127485 8.90701084 -6.5 5.625 C-18.22772842 1.95291282 -29.36194084 5.95735673 -37.1015625 15.35546875 Z " fill="#AFD4F5" transform="translate(218.625,186.4375)"/>
<path d="M0 0 C1.05634471 12.87734506 1.05634471 12.87734506 -1.2421875 17.49609375 C-3.03251142 19.5463034 -4.9106847 21.25695856 -7 23 C-7.64066406 23.639375 -8.28132813 24.27875 -8.94140625 24.9375 C-20.85325544 36.51030225 -38.1553079 46 -55 46 C-55 39.73 -55 33.46 -55 27 C-53.576875 26.814375 -52.15375 26.62875 -50.6875 26.4375 C-32.16836641 23.00095975 -16.36011914 14.59978743 -2.79296875 1.65234375 C-1 0 -1 0 0 0 Z " fill="#F9AA8B" transform="translate(301,335)"/>
<path d="M0 0 C5.2442958 2.15785527 8.50650864 4.84877532 11 10 C11.82118478 15.49675939 11.72530457 20.43780554 9.375 25.5 C5.08001626 30.02103552 1.92062648 32.24186367 -4.375 32.625 C-9.47665123 32.42343612 -12.57542501 31.11755932 -16.40625 27.7734375 C-19.74518632 24.05805248 -20.7941503 20.41521671 -21.5 15.5625 C-20.65108323 9.51396805 -17.72464725 5.60432303 -13.3125 1.5 C-8.73318783 -0.57365079 -4.94345318 -0.88357561 0 0 Z " fill="#F6BC6A" transform="translate(392,61)"/>
<path d="M0 0 C1.76519967 1.74375999 3.34969651 3.45970615 4.8046875 5.46875 C4.8046875 5.79875 4.8046875 6.12875 4.8046875 6.46875 C3.83789062 6.41074219 2.87109375 6.35273438 1.875 6.29296875 C-8.30765773 5.94010437 -15.21085042 7.22665462 -23.1328125 13.96875 C-29.22895364 21.35801199 -30.04707666 28.05202401 -29.1953125 37.46875 C-27.04538914 45.27390656 -22.73449747 50.17165993 -15.8203125 54.28125 C-9.20179554 57.49022792 -2.36087614 56.89868382 4.8046875 56.46875 C3.82602412 57.61501322 2.84674163 58.76074788 1.8671875 59.90625 C1.32191406 60.54433594 0.77664062 61.18242187 0.21484375 61.83984375 C-2.0478486 64.45353547 -2.0478486 64.45353547 -4.1640625 64.671875 C-13.17860562 64.83881098 -20.24615055 62.9776373 -27.34375 57.265625 C-30.64065347 54.06609843 -32.97939531 50.47258792 -35.1953125 46.46875 C-35.53691406 45.86546875 -35.87851562 45.2621875 -36.23046875 44.640625 C-39.71666358 37.18178956 -39.61992768 27.67611349 -37.0234375 20.0078125 C-34.48786361 14.71447527 -31.80325809 10.19899167 -27.1953125 6.46875 C-26.586875 5.95699219 -25.9784375 5.44523438 -25.3515625 4.91796875 C-18.81969128 -0.3452121 -7.82100495 -5.45522053 0 0 Z " fill="#AFD4F5" transform="translate(99.1953125,185.53125)"/>
<path d="M0 0 C24.24367411 0.03700833 51.29797045 1.89066823 73.2409668 13.38061523 C72.65081494 18.8886992 71.67432911 24.02939593 70.2409668 29.38061523 C69.1065918 28.74124023 67.9722168 28.10186523 66.8034668 27.44311523 C65.97073242 26.98678711 65.13799805 26.53045898 64.2800293 26.06030273 C62.07007493 24.83886266 59.8847142 23.59370373 57.7019043 22.32592773 C37.14581818 10.64341564 12.92194365 3.46689858 -10.7590332 2.38061523 C-7.63156341 -0.74685456 -4.27693838 0.05640122 0 0 Z " fill="#364646" transform="translate(234.759033203125,52.619384765625)"/>
<path d="M0 0 C7.30205288 -0.99573448 12.94601884 2.11160518 19 6 C26.23096598 12.02976933 30.96729448 20.29734399 32.40625 29.63671875 C32.81477827 40.47974 28.6131396 49.8227949 21.40625 57.75390625 C16.48708769 62.38302361 10.02937182 65.8540896 3.1953125 66.1015625 C2.47085938 66.06804687 1.74640625 66.03453125 1 66 C2.98 63.69 4.96 61.38 7 59 C6.67 58.34 6.34 57.68 6 57 C7.19625 56.484375 8.3925 55.96875 9.625 55.4375 C15.46966092 52.48930821 19.23876689 48.23363608 21.875 42.25 C24.12909381 35.21614101 24.00745495 28.4251899 20.9375 21.6875 C17.85599725 16.19666365 14.03322288 12.1869133 8.125 9.875 C7.073125 9.441875 7.073125 9.441875 6 9 C5.63451555 7.67511887 5.3062434 6.33981486 5 5 C2.52093031 2.2704415 2.52093031 2.2704415 0 0 Z " fill="#89C4F4" transform="translate(205,184)"/>
<path d="M0 0 C-1.0293933 7.24638702 -2.67600283 13.46495702 -6 20 C-7.14275391 19.58427734 -7.14275391 19.58427734 -8.30859375 19.16015625 C-14.62155522 16.94549686 -20.32289 15.44514067 -27 15 C-26.69163768 12.87439563 -26.37818386 10.74952935 -26.0625 8.625 C-25.88847656 7.44164062 -25.71445312 6.25828125 -25.53515625 5.0390625 C-25 2 -25 2 -24 0 C-24.66 -0.33 -25.32 -0.66 -26 -1 C-23.96391826 -1.70386802 -21.92080976 -2.38742855 -19.875 -3.0625 C-18.73804688 -3.44535156 -17.60109375 -3.82820312 -16.4296875 -4.22265625 C-9.68429185 -5.75151016 -5.5762535 -3.45727717 0 0 Z " fill="#364646" transform="translate(361,174)"/>
<path d="M0 0 C2.4375 1.625 2.4375 1.625 4 4 C4.5 7 4.5 7 4 10 C0.92593511 13.88463921 -2.86542903 15.51008679 -7.375 17.25 C-8.02210938 17.518125 -8.66921875 17.78625 -9.3359375 18.0625 C-13.35125638 19.64919859 -16.69012171 20.48446807 -21 20 C-23.4375 17.9375 -23.4375 17.9375 -25 15 C-25.125 11.4375 -25.125 11.4375 -24 8 C-18.12012924 2.58432956 -7.91591097 -1.29239363 0 0 Z " fill="#060504" transform="translate(242,297)"/>
<path d="M0 0 C13.93379272 -0.02333048 27.86758243 -0.04091349 41.80139065 -0.05181217 C48.2706768 -0.05704168 54.73994989 -0.06414056 61.20922852 -0.07543945 C67.446703 -0.08626592 73.68416487 -0.09227632 79.92164803 -0.09487724 C82.30720277 -0.09673193 84.69275679 -0.10035336 87.0783062 -0.10573006 C90.40695591 -0.11293729 93.73555279 -0.11399108 97.06420898 -0.11352539 C98.06114273 -0.11712067 99.05807648 -0.12071594 100.08522034 -0.12442017 C100.98690948 -0.1230455 101.88859863 -0.12167084 102.81761169 -0.12025452 C103.6057447 -0.12117631 104.3938777 -0.1220981 105.20589352 -0.12304783 C107 0 107 0 108 1 C108.14393457 5.33530918 108.04212061 9.66157731 108 14 C101.4 14 94.8 14 88 14 C88 9.71 88 5.42 88 1 C58.96 1 29.92 1 0 1 C0 0.67 0 0.34 0 0 Z " fill="#CEE3E5" transform="translate(121,154)"/>
<path d="M0 0 C3.06471302 1.65023009 5.30778907 3.056076 7.375 5.875 C8.69601084 10.36643685 8.48383625 13.10144696 6.25 17.25 C3.25670518 20.90847144 1.71641956 21.81740217 -2.9375 22.3125 C-6.43355571 21.95575962 -8.20520785 21.09609412 -11 19 C-13.81725233 14.7741215 -13.79958384 10.96375312 -13 6 C-9.14049112 1.02326486 -6.24979557 -0.60094188 0 0 Z " fill="#E2EEF7" transform="translate(206,206)"/>
<path d="M0 0 C3.6578218 2.03993908 5.66946174 3.50419262 8 7 C8.4606067 11.97455239 8.16781812 15.06753613 5 19 C2.3017982 21.11480682 0.44278066 21.92463308 -2.9375 22.5 C-7.25011712 21.79589925 -8.88856971 20.03907145 -12 17 C-13.61429923 13.77140153 -13.59570657 10.49006347 -13 7 C-9.78955153 1.40567374 -6.38167969 -0.61362305 0 0 Z " fill="#E3EFF8" transform="translate(97,206)"/>
<path d="M0 0 C1.216875 -0.01933594 2.43375 -0.03867188 3.6875 -0.05859375 C7.54217178 0.5186979 8.70782398 1.34390302 11 4.4375 C11.73865679 8.29492989 11.30106368 9.9245767 9.3125 13.3125 C4.26640021 16.54962062 -1.16166336 16.51867345 -7 15.4375 C-9.47234273 13.58018817 -10.74551328 12.41240868 -11.53125 9.40234375 C-11.44673249 3.91927033 -11.44673249 3.91927033 -9.40625 1.71875 C-6.16755224 -0.0057514 -3.65540136 0.00387225 0 0 Z " fill="#060402" transform="translate(272,222.5625)"/>
<path d="M0 0 C1.11246094 -0.0103125 2.22492188 -0.020625 3.37109375 -0.03125 C7.19814583 0.6058113 8.87430689 1.73781992 11.5625 4.5 C12.1875 8 12.1875 8 11.5625 11.5 C8.87430689 14.26218008 7.19814583 15.3941887 3.37109375 16.03125 C2.25863281 16.0209375 1.14617187 16.010625 0 16 C-1.11503906 16.0103125 -2.23007812 16.020625 -3.37890625 16.03125 C-7.04849878 15.39387505 -8.23447794 14.45849485 -10.4375 11.5 C-10.99040995 7.62963034 -11.18255293 5.5005507 -8.80859375 2.3125 C-5.72420337 -0.04525476 -3.85024773 -0.03560923 0 0 Z " fill="#040301" transform="translate(271.4375,195.5)"/>
</svg>
