<?xml version="1.0" encoding="UTF-8"?>
<svg version="1.1" xmlns="http://www.w3.org/2000/svg" width="512" height="512">
<path d="M0 0 C10.87181901 7.19918917 18.18650166 16.93327811 22.03515625 29.34765625 C23.38405844 36.22453325 23.25786135 43.05107258 23.28515625 50.03515625 C23.3058967 51.37955873 23.3267292 52.72395979 23.34765625 54.06835938 C23.3528125 55.34001953 23.35796875 56.61167969 23.36328125 57.921875 C23.37262695 59.08291748 23.38197266 60.24395996 23.39160156 61.44018555 C23.03515625 64.34765625 23.03515625 64.34765625 21.7565918 66.23266602 C18.29873094 68.4723555 13.31368135 67.6526849 9.28320312 67.5234375 C7.01486851 67.55107604 5.19307637 67.63681197 3.03515625 68.34765625 C1.09024096 70.55240718 0.25225336 72.60844015 -0.96484375 75.34765625 C-1.62484375 76.00765625 -2.28484375 76.66765625 -2.96484375 77.34765625 C-2.15402344 77.74855469 -1.34320313 78.14945312 -0.5078125 78.5625 C12.69877815 85.34260067 22.52724034 93.42662566 30.03515625 106.34765625 C30.03515625 107.00765625 30.03515625 107.66765625 30.03515625 108.34765625 C30.69515625 108.34765625 31.35515625 108.34765625 32.03515625 108.34765625 C32.29296875 107.63222656 32.55078125 106.91679687 32.81640625 106.1796875 C38.65629326 92.60943723 50.29321178 84.74285271 63.03515625 78.34765625 C62.14828125 77.39890625 61.26140625 76.45015625 60.34765625 75.47265625 C52.86991861 66.75453558 50.88667161 58.11031124 50.83203125 46.953125 C50.82633118 46.04693924 50.8206311 45.14075348 50.8147583 44.20710754 C50.80533264 42.29327554 50.79878402 40.37942749 50.79492188 38.46557617 C50.78522416 35.55553521 50.75418092 32.64620334 50.72265625 29.73632812 C50.71612448 27.87109791 50.71087469 26.00586269 50.70703125 24.140625 C50.69468445 23.27890182 50.68233765 22.41717865 50.6696167 21.52934265 C50.69328687 15.0292994 51.64108946 9.33503524 55.83203125 4.10546875 C61.46842058 -0.60655273 66.07338809 -3.03105122 73.59765625 -2.46484375 C77.54939926 -1.92139522 80.47336093 -0.43324141 84.03515625 1.34765625 C86.61538554 1.2081844 88.63704005 0.50347472 91.03125 -0.43359375 C96.66081445 -2.54102169 101.1828563 -3.44530311 107.03515625 -1.65234375 C112.9575099 1.11332865 116.34914839 4.13916819 119.18318176 9.98817444 C120.71292031 14.22467487 120.58473623 18.4154091 120.53125 22.875 C120.53270523 23.86335342 120.53416046 24.85170685 120.53565979 25.87001038 C120.5340076 27.95007285 120.5225231 30.03014843 120.50170898 32.11010742 C120.47277199 35.27250801 120.48111216 38.43322705 120.49414062 41.59570312 C120.48790142 43.62631014 120.47950905 45.65691191 120.46875 47.6875 C120.47168564 48.62214584 120.47462128 49.55679169 120.47764587 50.51976013 C120.36198558 58.67580818 118.85748779 65.87250934 113.47265625 72.22265625 C112.87324219 72.94195312 112.27382813 73.66125 111.65625 74.40234375 C111.12128906 75.04429688 110.58632813 75.68625 110.03515625 76.34765625 C109.37515625 77.33765625 108.71515625 78.32765625 108.03515625 79.34765625 C108.90140625 79.59515625 109.76765625 79.84265625 110.66015625 80.09765625 C114.38606951 81.47762412 116.99130002 82.77728877 120.03515625 85.34765625 C120.94812756 87.34632318 121.59968514 89.35399064 122.26953125 91.4453125 C123.48724407 94.4709561 125.26458655 95.73685991 128.03515625 97.34765625 C130.03189109 97.70002122 132.03166364 98.03600184 134.03515625 98.34765625 C136.03515625 101.34765625 136.03515625 101.34765625 135.53515625 104.59765625 C134.95038251 108.98345932 135.60746413 111.23254366 137.03515625 115.34765625 C137.98390625 115.40953125 138.93265625 115.47140625 139.91015625 115.53515625 C143.03515625 116.34765625 143.03515625 116.34765625 144.34765625 118.53515625 C145.76778366 124.3447684 146.16754988 129.7763213 146.09765625 135.72265625 C146.09314453 136.45871094 146.08863281 137.19476563 146.08398438 137.953125 C146.07230767 139.75133783 146.05437636 141.54950822 146.03515625 143.34765625 C147.11615601 143.32409058 147.11615601 143.32409058 148.21899414 143.30004883 C151.5118004 143.23735138 154.80448063 143.1985553 158.09765625 143.16015625 C159.23138672 143.13501953 160.36511719 143.10988281 161.53320312 143.08398438 C169.04430166 143.01828964 174.35193875 143.36126368 180.34765625 148.22265625 C183.468447 152.1525409 184.28501946 155.80491878 184.28963184 160.75628567 C184.29546404 161.83542655 184.30129623 162.91456744 184.30730516 164.02640957 C184.30352583 165.20616472 184.29974651 166.38591987 184.29585266 167.60142517 C184.29967821 168.85919803 184.30350376 170.11697088 184.30744523 171.41285807 C184.31773812 174.90169373 184.31554015 178.39042678 184.31126463 181.87927091 C184.30879976 185.64280711 184.31780858 189.40631845 184.32530212 193.16984558 C184.33805762 200.54195666 184.33984177 207.91403133 184.33750186 215.28615158 C184.33571956 221.27759499 184.33746646 227.26902735 184.3417263 233.26046944 C184.34232149 234.11287091 184.34291668 234.96527239 184.34352991 235.84350421 C184.34474164 237.57509815 184.34595578 239.3066921 184.34717228 241.03828604 C184.35805102 257.28051839 184.3558837 273.52272999 184.34978744 289.76496352 C184.3446175 304.62716273 184.35587516 319.48929643 184.37488566 334.35148268 C184.39425248 349.60910359 184.40252212 364.86669348 184.3987624 380.12432677 C184.39684866 388.69149244 184.39935475 397.25860232 184.41347694 405.82575798 C184.42537697 413.11870485 184.42681112 420.41156159 184.41468678 427.70450967 C184.40878848 431.42576098 184.40772477 435.14684734 184.41968918 438.86808777 C184.43250555 442.90115783 184.42210627 446.93383347 184.40937805 450.96690369 C184.41675234 452.14442811 184.42412662 453.32195254 184.43172437 454.53515953 C184.39406465 460.18812691 184.35456401 464.52824243 181.03515625 469.34765625 C176.1737499 473.84445712 172.74198527 474.4726318 166.24072266 474.48136902 C165.54607218 474.48363458 164.8514217 474.48590013 164.13572121 474.48823434 C161.80270359 474.49457618 159.46974404 474.49374487 157.13671875 474.49291992 C155.46628748 474.49591125 153.79585691 474.49931372 152.12542725 474.50309753 C147.58422229 474.51194322 143.04303616 474.51427585 138.50182343 474.51491332 C134.71431338 474.51586188 130.92680774 474.51953947 127.13929939 474.52308542 C118.20679629 474.53123172 109.27430327 474.53366945 100.34179688 474.53295898 C91.11741297 474.53235776 81.89308746 474.54291813 72.66871834 474.55870265 C64.75614712 474.57176157 56.84359503 474.57714359 48.93101311 474.57650357 C44.20197371 474.57624815 39.47298622 474.57912379 34.74395752 474.58968163 C30.29855375 474.59933522 25.85325182 474.59946071 21.40784454 474.59216499 C19.77396751 474.59111581 18.14008422 474.59350169 16.50621796 474.59952545 C14.28055402 474.60720133 12.05524569 474.60263018 9.82958984 474.59489441 C8.58261322 474.59543918 7.3356366 474.59598394 6.0508728 474.59654522 C3.03515625 474.34765625 3.03515625 474.34765625 0.03515625 472.34765625 C0.03515625 471.35765625 0.03515625 470.36765625 0.03515625 469.34765625 C-6.07433134 469.38930941 -6.07433134 469.38930941 -11.02734375 472.41015625 C-11.33671875 473.04953125 -11.64609375 473.68890625 -11.96484375 474.34765625 C-14.27484375 474.01765625 -16.58484375 473.68765625 -18.96484375 473.34765625 C-19.29484375 472.02765625 -19.62484375 470.70765625 -19.96484375 469.34765625 C-21.40349315 469.40797698 -22.84096277 469.49685758 -24.27734375 469.59765625 C-25.07785156 469.6440625 -25.87835938 469.69046875 -26.703125 469.73828125 C-27.44949219 469.939375 -28.19585937 470.14046875 -28.96484375 470.34765625 C-29.3174933 471.00988725 -29.67014284 471.67211824 -30.03347874 472.35441685 C-32.29053974 474.68378644 -32.83298194 474.66959407 -35.95493221 474.8482275 C-37.67929697 474.86902593 -39.40401215 474.86739746 -41.12840271 474.84886169 C-42.07805045 474.85439609 -43.02769818 474.85993049 -44.00612313 474.86563259 C-47.20283102 474.879295 -50.39876566 474.86423893 -53.59545898 474.84936523 C-55.88182407 474.8531466 -58.16818686 474.85864512 -60.45454407 474.86573792 C-66.6782109 474.87974062 -72.90160273 474.86848571 -79.12525439 474.8520267 C-85.6379537 474.83819881 -92.15063666 474.84463428 -98.66334534 474.84815979 C-109.61146579 474.85086543 -120.55947436 474.83744943 -131.50756836 474.81420898 C-142.75468009 474.79033662 -154.0016468 474.78318466 -165.2487793 474.79370117 C-178.81007084 474.80635885 -192.37125093 474.80378695 -205.9325428 474.78804207 C-211.10568882 474.78229561 -216.2787862 474.78235458 -221.45193291 474.78710747 C-227.55619907 474.79189828 -233.66026569 474.78168841 -239.76449394 474.76015282 C-241.99929125 474.75461119 -244.23410784 474.75409538 -246.4689064 474.75910568 C-264.91964403 474.79526658 -280.92314627 473.61012547 -295.125 460.30859375 C-305.34228833 449.41882997 -310.11583384 436.29289345 -310.11201477 421.47787476 C-310.11569146 420.70377907 -310.11936815 419.92968339 -310.12315625 419.13213027 C-310.13413594 416.5482037 -310.13802704 413.96431743 -310.1418457 411.38037109 C-310.14811427 409.52392958 -310.15476141 407.66748932 -310.16175842 405.81105042 C-310.18274007 399.72690699 -310.19314965 393.64276346 -310.203125 387.55859375 C-310.20717361 385.46297823 -310.21129056 383.36736284 -310.21547508 381.27174759 C-310.23450728 371.43345806 -310.24874708 361.59517597 -310.25708705 351.75687158 C-310.26687732 340.39584227 -310.29325164 329.03500686 -310.33358794 317.67404592 C-310.36370152 308.89176781 -310.37855107 300.1095455 -310.38186806 291.32721674 C-310.38422236 286.08112829 -310.39323332 280.83524747 -310.41832924 275.58921432 C-310.44153423 270.65944099 -310.44587387 265.73001321 -310.43556786 260.80019951 C-310.43507067 258.98934851 -310.44144462 257.1784809 -310.4551239 255.3676815 C-310.47273177 252.89919242 -310.4657927 250.43195884 -310.45259094 247.96347046 C-310.46356019 247.24382532 -310.47452943 246.52418017 -310.48583108 245.7827276 C-310.44114679 242.33215827 -310.25250777 240.68385086 -307.97244549 238.0191288 C-307.30993691 237.46754286 -306.64742834 236.91595692 -305.96484375 236.34765625 C-305.27950743 234.00726864 -305.27950743 234.00726864 -305.21484375 231.59765625 C-305.158125 230.7984375 -305.10140625 229.99921875 -305.04296875 229.17578125 C-305.0171875 228.5725 -304.99140625 227.96921875 -304.96484375 227.34765625 C-306.28484375 227.01765625 -307.60484375 226.68765625 -308.96484375 226.34765625 C-309.71484375 223.59765625 -309.71484375 223.59765625 -309.96484375 220.34765625 C-309.34609375 219.74953125 -308.72734375 219.15140625 -308.08984375 218.53515625 C-304.91652631 215.26850594 -305.1531076 211.75303033 -304.96484375 207.34765625 C-305.60421875 207.22390625 -306.24359375 207.10015625 -306.90234375 206.97265625 C-307.58296875 206.76640625 -308.26359375 206.56015625 -308.96484375 206.34765625 C-310.49920848 203.2789268 -310.12095729 200.05975868 -310.12597656 196.69189453 C-310.13094147 195.90133163 -310.13590637 195.11076874 -310.14102173 194.29624939 C-310.15567077 191.67014705 -310.16245359 189.04410532 -310.16796875 186.41796875 C-310.17372256 184.58869424 -310.17948027 182.75941975 -310.1852417 180.93014526 C-310.19576262 177.08493774 -310.20159662 173.23975115 -310.20507812 169.39453125 C-310.21053336 164.49462322 -310.23449251 159.59499723 -310.26305008 154.69517708 C-310.2817938 150.90991446 -310.28688849 147.12471777 -310.288414 143.33941269 C-310.29141997 141.53510895 -310.29937805 139.7308058 -310.31259918 137.926548 C-310.42491387 121.40552015 -308.7164393 104.68581474 -296.76953125 91.99609375 C-284.77155156 81.03690018 -271.58563567 75.95281771 -255.40234375 76.13671875 C-240.87784469 77.02799483 -228.76140038 83.76536897 -218.96484375 94.34765625 C-206.91428151 109.51474321 -207.4461393 124.86160585 -207.96484375 143.34765625 C-203.01484375 143.34765625 -198.06484375 143.34765625 -192.96484375 143.34765625 C-193.01705078 141.60742188 -193.01705078 141.60742188 -193.0703125 139.83203125 C-193.46692435 121.26302333 -189.52590781 106.38983311 -176.28125 92.5625 C-169.81207024 86.3769605 -163.11221183 82.03863511 -154.96484375 78.34765625 C-155.36316406 77.86296875 -155.76148438 77.37828125 -156.171875 76.87890625 C-156.70167969 76.20859375 -157.23148438 75.53828125 -157.77734375 74.84765625 C-158.29941406 74.19796875 -158.82148438 73.54828125 -159.359375 72.87890625 C-163.79144613 65.89111528 -164.42293076 59.57214627 -164.3984375 51.49609375 C-164.40367935 50.47842926 -164.4089212 49.46076477 -164.4143219 48.41226196 C-164.42071464 46.27257191 -164.41944095 44.13284658 -164.41088867 41.99316406 C-164.4023506 38.72527663 -164.4312248 35.45912267 -164.46289062 32.19140625 C-164.4645022 30.10546927 -164.46392595 28.01952921 -164.4609375 25.93359375 C-164.47217148 24.96159027 -164.48340546 23.98958679 -164.49497986 22.98812866 C-164.43661121 17.29682474 -163.9412 13.74994429 -159.96484375 9.34765625 C-155.99701993 6.15925646 -152.8051638 5.96967292 -147.79296875 5.94140625 C-147.11111511 5.93057007 -146.42926147 5.91973389 -145.72674561 5.90856934 C-143.5560152 5.87446858 -141.38580593 5.85876215 -139.21484375 5.84765625 C-127.96935086 5.78955959 -118.73164223 5.32098803 -108.77734375 -0.46484375 C-105.48122565 -2.14873017 -104.30791692 -2.67729453 -100.52734375 -2.40234375 C-96.43181227 0.39460458 -95.64206662 4.06972478 -94.27734375 8.66015625 C-93.35005864 16.63480822 -93.74440336 23.89738369 -96.96484375 31.34765625 C-97.650625 32.18167969 -98.33640625 33.01570313 -99.04296875 33.875 C-102.33107115 39.81630698 -101.47674126 46.30704083 -101.453125 52.96289062 C-101.59183714 63.44826714 -104.66859196 70.12754975 -110.96484375 78.34765625 C-110.2378125 78.65316406 -109.51078125 78.95867187 -108.76171875 79.2734375 C-96.9626062 84.64354642 -88.29552057 92.42807164 -81.26953125 103.3515625 C-79.98796513 105.46121353 -79.98796513 105.46121353 -77.96484375 107.34765625 C-77.43117187 106.51363281 -76.8975 105.67960937 -76.34765625 104.8203125 C-68.02389655 92.11403176 -58.28773861 84.39304878 -44.96484375 77.34765625 C-45.32578125 76.79335937 -45.68671875 76.2390625 -46.05859375 75.66796875 C-46.52265625 74.94351563 -46.98671875 74.2190625 -47.46484375 73.47265625 C-47.92890625 72.75335938 -48.39296875 72.0340625 -48.87109375 71.29296875 C-49.96484375 69.34765625 -49.96484375 69.34765625 -49.96484375 67.34765625 C-51.15722656 67.38246094 -52.34960938 67.41726562 -53.578125 67.453125 C-55.14451717 67.48126378 -56.71092456 67.50856385 -58.27734375 67.53515625 C-59.06302734 67.56029297 -59.84871094 67.58542969 -60.65820312 67.61132812 C-61.41552734 67.62099609 -62.17285156 67.63066406 -62.953125 67.640625 C-63.64962158 67.65633545 -64.34611816 67.6720459 -65.0637207 67.68823242 C-66.96484375 67.34765625 -66.96484375 67.34765625 -68.68847656 66.22924805 C-71.4058449 62.22336476 -70.44060594 56.69545278 -70.41088867 52.01806641 C-70.40251894 50.01459093 -70.43229898 48.01107189 -70.46289062 46.0078125 C-70.45547983 31.08247253 -66.50296556 17.97914309 -56.08984375 7.03515625 C-40.7814054 -7.29308078 -18.55105257 -10.01833024 0 0 Z " fill="#EFDED4" transform="translate(318.96484375,21.65234375)"/>
<path d="M0 0 C10.87181901 7.19918917 18.18650166 16.93327811 22.03515625 29.34765625 C23.38405844 36.22453325 23.25786135 43.05107258 23.28515625 50.03515625 C23.3058967 51.37955873 23.3267292 52.72395979 23.34765625 54.06835938 C23.3528125 55.34001953 23.35796875 56.61167969 23.36328125 57.921875 C23.37262695 59.08291748 23.38197266 60.24395996 23.39160156 61.44018555 C23.03515625 64.34765625 23.03515625 64.34765625 21.7565918 66.23266602 C18.29873094 68.4723555 13.31368135 67.6526849 9.28320312 67.5234375 C7.01486851 67.55107604 5.19307637 67.63681197 3.03515625 68.34765625 C1.09024096 70.55240718 0.25225336 72.60844015 -0.96484375 75.34765625 C-1.62484375 76.00765625 -2.28484375 76.66765625 -2.96484375 77.34765625 C-2.15402344 77.74855469 -1.34320313 78.14945312 -0.5078125 78.5625 C12.69877815 85.34260067 22.52724034 93.42662566 30.03515625 106.34765625 C30.03515625 107.00765625 30.03515625 107.66765625 30.03515625 108.34765625 C30.69515625 108.34765625 31.35515625 108.34765625 32.03515625 108.34765625 C32.29296875 107.63222656 32.55078125 106.91679687 32.81640625 106.1796875 C38.65629326 92.60943723 50.29321178 84.74285271 63.03515625 78.34765625 C62.14828125 77.39890625 61.26140625 76.45015625 60.34765625 75.47265625 C52.86991861 66.75453558 50.88667161 58.11031124 50.83203125 46.953125 C50.82633118 46.04693924 50.8206311 45.14075348 50.8147583 44.20710754 C50.80533264 42.29327554 50.79878402 40.37942749 50.79492188 38.46557617 C50.78522416 35.55553521 50.75418092 32.64620334 50.72265625 29.73632812 C50.71612448 27.87109791 50.71087469 26.00586269 50.70703125 24.140625 C50.69468445 23.27890182 50.68233765 22.41717865 50.6696167 21.52934265 C50.69328687 15.0292994 51.64108946 9.33503524 55.83203125 4.10546875 C61.46842058 -0.60655273 66.07338809 -3.03105122 73.59765625 -2.46484375 C77.54939926 -1.92139522 80.47336093 -0.43324141 84.03515625 1.34765625 C86.61538554 1.2081844 88.63704005 0.50347472 91.03125 -0.43359375 C96.66081445 -2.54102169 101.1828563 -3.44530311 107.03515625 -1.65234375 C112.9575099 1.11332865 116.34914839 4.13916819 119.18318176 9.98817444 C120.71292031 14.22467487 120.58473623 18.4154091 120.53125 22.875 C120.53270523 23.86335342 120.53416046 24.85170685 120.53565979 25.87001038 C120.5340076 27.95007285 120.5225231 30.03014843 120.50170898 32.11010742 C120.47277199 35.27250801 120.48111216 38.43322705 120.49414062 41.59570312 C120.48790142 43.62631014 120.47950905 45.65691191 120.46875 47.6875 C120.47168564 48.62214584 120.47462128 49.55679169 120.47764587 50.51976013 C120.36198558 58.67580818 118.85748779 65.87250934 113.47265625 72.22265625 C112.87324219 72.94195312 112.27382813 73.66125 111.65625 74.40234375 C111.12128906 75.04429688 110.58632813 75.68625 110.03515625 76.34765625 C109.37515625 77.33765625 108.71515625 78.32765625 108.03515625 79.34765625 C108.90140625 79.59515625 109.76765625 79.84265625 110.66015625 80.09765625 C114.38606951 81.47762412 116.99130002 82.77728877 120.03515625 85.34765625 C120.94812756 87.34632318 121.59968514 89.35399064 122.26953125 91.4453125 C123.48724407 94.4709561 125.26458655 95.73685991 128.03515625 97.34765625 C130.03189109 97.70002122 132.03166364 98.03600184 134.03515625 98.34765625 C136.03515625 101.34765625 136.03515625 101.34765625 135.53515625 104.59765625 C134.95038251 108.98345932 135.60746413 111.23254366 137.03515625 115.34765625 C137.98390625 115.40953125 138.93265625 115.47140625 139.91015625 115.53515625 C143.03515625 116.34765625 143.03515625 116.34765625 144.34765625 118.53515625 C145.76778366 124.3447684 146.16754988 129.7763213 146.09765625 135.72265625 C146.09314453 136.45871094 146.08863281 137.19476563 146.08398438 137.953125 C146.07230767 139.75133783 146.05437636 141.54950822 146.03515625 143.34765625 C147.11615601 143.32409058 147.11615601 143.32409058 148.21899414 143.30004883 C151.5118004 143.23735138 154.80448063 143.1985553 158.09765625 143.16015625 C159.23138672 143.13501953 160.36511719 143.10988281 161.53320312 143.08398438 C169.04430166 143.01828964 174.35193875 143.36126368 180.34765625 148.22265625 C183.468447 152.1525409 184.28501946 155.80491878 184.28963184 160.75628567 C184.29546404 161.83542655 184.30129623 162.91456744 184.30730516 164.02640957 C184.30352583 165.20616472 184.29974651 166.38591987 184.29585266 167.60142517 C184.29967821 168.85919803 184.30350376 170.11697088 184.30744523 171.41285807 C184.31773812 174.90169373 184.31554015 178.39042678 184.31126463 181.87927091 C184.30879976 185.64280711 184.31780858 189.40631845 184.32530212 193.16984558 C184.33805762 200.54195666 184.33984177 207.91403133 184.33750186 215.28615158 C184.33571956 221.27759499 184.33746646 227.26902735 184.3417263 233.26046944 C184.34232149 234.11287091 184.34291668 234.96527239 184.34352991 235.84350421 C184.34474164 237.57509815 184.34595578 239.3066921 184.34717228 241.03828604 C184.35805102 257.28051839 184.3558837 273.52272999 184.34978744 289.76496352 C184.3446175 304.62716273 184.35587516 319.48929643 184.37488566 334.35148268 C184.39425248 349.60910359 184.40252212 364.86669348 184.3987624 380.12432677 C184.39684866 388.69149244 184.39935475 397.25860232 184.41347694 405.82575798 C184.42537697 413.11870485 184.42681112 420.41156159 184.41468678 427.70450967 C184.40878848 431.42576098 184.40772477 435.14684734 184.41968918 438.86808777 C184.43250555 442.90115783 184.42210627 446.93383347 184.40937805 450.96690369 C184.41675234 452.14442811 184.42412662 453.32195254 184.43172437 454.53515953 C184.39406465 460.18812691 184.35456401 464.52824243 181.03515625 469.34765625 C176.1737499 473.84445712 172.74198527 474.4726318 166.24072266 474.48136902 C165.54607218 474.48363458 164.8514217 474.48590013 164.13572121 474.48823434 C161.80270359 474.49457618 159.46974404 474.49374487 157.13671875 474.49291992 C155.46628748 474.49591125 153.79585691 474.49931372 152.12542725 474.50309753 C147.58422229 474.51194322 143.04303616 474.51427585 138.50182343 474.51491332 C134.71431338 474.51586188 130.92680774 474.51953947 127.13929939 474.52308542 C118.20679629 474.53123172 109.27430327 474.53366945 100.34179688 474.53295898 C91.11741297 474.53235776 81.89308746 474.54291813 72.66871834 474.55870265 C64.75614712 474.57176157 56.84359503 474.57714359 48.93101311 474.57650357 C44.20197371 474.57624815 39.47298622 474.57912379 34.74395752 474.58968163 C30.29855375 474.59933522 25.85325182 474.59946071 21.40784454 474.59216499 C19.77396751 474.59111581 18.14008422 474.59350169 16.50621796 474.59952545 C14.28055402 474.60720133 12.05524569 474.60263018 9.82958984 474.59489441 C8.58261322 474.59543918 7.3356366 474.59598394 6.0508728 474.59654522 C3.03515625 474.34765625 3.03515625 474.34765625 0.03515625 472.34765625 C-0.27734375 469.34765625 -0.27734375 469.34765625 0.03515625 466.34765625 C2.866952 463.5158605 4.71500573 464.08942688 8.68482971 464.07591248 C9.72151516 464.06828222 9.72151516 464.06828222 10.77914375 464.06049782 C13.10615487 464.0457779 15.43295527 464.04530227 17.76000977 464.04467773 C19.42368993 464.03702054 21.08736621 464.02847495 22.7510376 464.019104 C26.33875013 464.00079586 29.92641021 463.98877622 33.51416206 463.98156548 C39.181288 463.97010871 44.84829759 463.94466629 50.5153656 463.91725159 C59.47432853 463.87556448 68.43329697 463.84316572 77.39231104 463.81477743 C93.44686382 463.76382545 109.50136855 463.70178806 125.555839 463.62943703 C131.19548811 463.60445019 136.83512173 463.58504781 142.47480595 463.57005489 C145.9754819 463.55988418 149.47613384 463.54573857 152.97679138 463.53057861 C154.60666275 463.52439878 156.2365417 463.51995319 157.86642265 463.51732063 C160.08181557 463.51353645 162.29710124 463.5037471 164.51246643 463.49241638 C165.75521111 463.48856147 166.9979558 463.48470655 168.27835941 463.48073483 C170.94531442 463.6615614 170.94531442 463.6615614 172.03515625 462.34765625 C172.13730465 460.71099575 172.16914574 459.06991406 172.17382145 457.43007565 C172.17929682 456.35834417 172.18477219 455.2866127 172.19041348 454.18240452 C172.19139066 452.99113421 172.19236784 451.79986391 172.19337463 450.57249451 C172.20076912 448.69529976 172.20076912 448.69529976 172.20831299 446.78018188 C172.22194979 443.28361234 172.22931143 439.78705249 172.23572774 436.29046325 C172.24383664 432.47056004 172.25771588 428.65067714 172.2708807 424.83078861 C172.29559604 417.40627186 172.31516503 409.98175031 172.33296594 402.55721411 C172.35376399 393.97436634 172.38091242 385.39154649 172.40808105 376.80871582 C172.47669997 354.13421174 172.53664283 331.45968207 172.59765625 308.78515625 C172.74203125 258.15078125 172.88640625 207.51640625 173.03515625 155.34765625 C47.30515625 155.01765625 -78.42484375 154.68765625 -207.96484375 154.34765625 C-207.84599309 243.39907488 -207.84599309 243.39907488 -207.69458008 332.45043945 C-207.68103027 349.63903809 -207.68103027 349.63903809 -207.67851257 357.67521667 C-207.67570757 363.31095608 -207.66467202 368.94660693 -207.64811707 374.58232117 C-207.62906905 381.07629531 -207.62032461 387.57018409 -207.6245089 394.06418641 C-207.62632226 397.38876073 -207.6217214 400.71299051 -207.60719836 404.03755629 C-207.59238848 407.59142417 -207.59583226 411.14480686 -207.6040802 414.69868469 C-207.59534221 415.74409518 -207.58660421 416.78950567 -207.57760143 417.86659527 C-207.58357405 418.81686659 -207.58954666 419.76713791 -207.59570026 420.74620533 C-207.5945611 421.56829984 -207.59342194 422.39039436 -207.59224826 423.23740083 C-208.0567595 425.86823614 -208.85078362 426.75678175 -210.96484375 428.34765625 C-213.52734375 428.66015625 -213.52734375 428.66015625 -215.96484375 428.34765625 C-218.84625171 425.46624829 -218.72857158 422.16405265 -219.27734375 418.28515625 C-220.37240041 411.47091729 -221.74679312 405.96029272 -225.96484375 400.34765625 C-226.49207031 399.64253906 -227.01929688 398.93742187 -227.5625 398.2109375 C-233.53890733 390.84593439 -241.72866556 385.2788675 -251.32299805 384.04418945 C-253.83677018 383.91048618 -256.32275139 383.87952421 -258.83984375 383.91015625 C-259.72462402 383.91917969 -260.6094043 383.92820312 -261.52099609 383.9375 C-272.90789876 384.23997445 -280.89160987 388.23259214 -288.96484375 396.34765625 C-291.35883384 399.52284311 -293.21448392 402.78339217 -294.96484375 406.34765625 C-295.47337891 407.24677734 -295.47337891 407.24677734 -295.9921875 408.1640625 C-300.01999215 416.46096885 -299.20396581 428.82977385 -296.33984375 437.41015625 C-294.52692577 441.68812098 -292.11878241 445.23863522 -289.13671875 448.7890625 C-287.96484375 450.34765625 -287.96484375 450.34765625 -287.96484375 452.34765625 C-287.11792969 452.75177734 -287.11792969 452.75177734 -286.25390625 453.1640625 C-283.02849369 454.83180995 -280.03188685 456.83567311 -276.98828125 458.8125 C-269.53189367 462.59849525 -262.25960318 463.79124039 -253.97486877 463.71273804 C-253.02105708 463.71585703 -252.06724538 463.71897603 -251.08453029 463.72218955 C-247.91629765 463.7290856 -244.7485252 463.71484916 -241.58032227 463.70068359 C-239.29802869 463.70151508 -237.01573526 463.70373338 -234.73344421 463.70722961 C-229.83351446 463.71216647 -224.93370468 463.70810759 -220.03378487 463.69721603 C-212.29037171 463.68083306 -204.54710847 463.68932968 -196.80369568 463.70205688 C-185.95384033 463.71789351 -175.10401707 463.72692332 -164.25415039 463.7265625 C-163.56676971 463.72654506 -162.87938903 463.72652762 -162.17117863 463.72650965 C-154.49222864 463.72605686 -146.81328515 463.72271652 -139.13433838 463.71563721 C-138.44266963 463.71500482 -137.75100089 463.71437244 -137.03837248 463.7137209 C-136.34731019 463.71308833 -135.6562479 463.71245577 -134.94424433 463.71180403 C-133.55047604 463.71053423 -132.15670775 463.70926882 -130.76293945 463.70800781 C-130.07427992 463.70737962 -129.38562039 463.70675143 -128.67609239 463.7061042 C-117.20269339 463.69615873 -105.7294341 463.70572414 -94.25605148 463.73019183 C-86.55282314 463.7454642 -78.85005534 463.73788879 -71.14685547 463.71348166 C-66.36661334 463.70344579 -61.586585 463.71406197 -56.80636787 463.73059654 C-54.58389932 463.73406187 -52.36139871 463.72889343 -50.13897324 463.71462822 C-47.11406837 463.69640734 -44.09079042 463.70859213 -41.06593323 463.72860718 C-40.17879294 463.71588756 -39.29165266 463.70316794 -38.37762934 463.69006288 C-36.12385511 463.72238893 -34.14487752 463.77525191 -31.96484375 464.34765625 C-29.89602566 466.88634682 -29.89602566 466.88634682 -28.96484375 469.34765625 C-29.89212132 471.808815 -29.89212132 471.808815 -31.96484375 474.34765625 C-34.9953595 475.13945615 -38.01173861 475.01277754 -41.12840271 474.96911621 C-42.07805045 474.97550503 -43.02769818 474.98189385 -44.00612313 474.98847628 C-47.20299125 475.00379251 -50.39863312 474.98322007 -53.59545898 474.96289062 C-55.88182487 474.96639003 -58.16818833 474.97204655 -60.45454407 474.97970581 C-66.6782747 474.99399649 -72.90156572 474.97684556 -79.12525439 474.95342064 C-85.63794991 474.9333482 -92.1506265 474.9391897 -98.66334534 474.94152832 C-109.61149497 474.94147468 -120.55946893 474.92180695 -131.50756836 474.88964844 C-142.75468271 474.85662408 -154.00161742 474.84237822 -165.2487793 474.84863281 C-178.81007894 474.85613725 -192.37125418 474.84870379 -205.9325428 474.82698059 C-211.10568408 474.81882298 -216.27878574 474.81609408 -221.45193291 474.81767273 C-227.55620976 474.81855508 -233.66027337 474.804241 -239.76449394 474.7784462 C-241.99928757 474.77131357 -244.23410394 474.76918669 -246.4689064 474.77256393 C-264.91612835 474.79511326 -280.92639501 473.60708268 -295.125 460.30859375 C-305.34228833 449.41882997 -310.11583384 436.29289345 -310.11201477 421.47787476 C-310.11569146 420.70377907 -310.11936815 419.92968339 -310.12315625 419.13213027 C-310.13413594 416.5482037 -310.13802704 413.96431743 -310.1418457 411.38037109 C-310.14811427 409.52392958 -310.15476141 407.66748932 -310.16175842 405.81105042 C-310.18274007 399.72690699 -310.19314965 393.64276346 -310.203125 387.55859375 C-310.20717361 385.46297823 -310.21129056 383.36736284 -310.21547508 381.27174759 C-310.23450728 371.43345806 -310.24874708 361.59517597 -310.25708705 351.75687158 C-310.26687732 340.39584227 -310.29325164 329.03500686 -310.33358794 317.67404592 C-310.36370152 308.89176781 -310.37855107 300.1095455 -310.38186806 291.32721674 C-310.38422236 286.08112829 -310.39323332 280.83524747 -310.41832924 275.58921432 C-310.44153423 270.65944099 -310.44587387 265.73001321 -310.43556786 260.80019951 C-310.43507067 258.98934851 -310.44144462 257.1784809 -310.4551239 255.3676815 C-310.47273177 252.89919242 -310.4657927 250.43195884 -310.45259094 247.96347046 C-310.46356019 247.24382532 -310.47452943 246.52418017 -310.48583108 245.7827276 C-310.44114679 242.33215827 -310.25250777 240.68385086 -307.97244549 238.0191288 C-307.30993691 237.46754286 -306.64742834 236.91595692 -305.96484375 236.34765625 C-305.27950743 234.00726864 -305.27950743 234.00726864 -305.21484375 231.59765625 C-305.158125 230.7984375 -305.10140625 229.99921875 -305.04296875 229.17578125 C-305.0171875 228.5725 -304.99140625 227.96921875 -304.96484375 227.34765625 C-306.28484375 227.01765625 -307.60484375 226.68765625 -308.96484375 226.34765625 C-309.71484375 223.59765625 -309.71484375 223.59765625 -309.96484375 220.34765625 C-309.34609375 219.74953125 -308.72734375 219.15140625 -308.08984375 218.53515625 C-304.91652631 215.26850594 -305.1531076 211.75303033 -304.96484375 207.34765625 C-305.60421875 207.22390625 -306.24359375 207.10015625 -306.90234375 206.97265625 C-307.58296875 206.76640625 -308.26359375 206.56015625 -308.96484375 206.34765625 C-310.49920848 203.2789268 -310.12095729 200.05975868 -310.12597656 196.69189453 C-310.13094147 195.90133163 -310.13590637 195.11076874 -310.14102173 194.29624939 C-310.15567077 191.67014705 -310.16245359 189.04410532 -310.16796875 186.41796875 C-310.17372256 184.58869424 -310.17948027 182.75941975 -310.1852417 180.93014526 C-310.19576262 177.08493774 -310.20159662 173.23975115 -310.20507812 169.39453125 C-310.21053336 164.49462322 -310.23449251 159.59499723 -310.26305008 154.69517708 C-310.2817938 150.90991446 -310.28688849 147.12471777 -310.288414 143.33941269 C-310.29141997 141.53510895 -310.29937805 139.7308058 -310.31259918 137.926548 C-310.42491387 121.40552015 -308.7164393 104.68581474 -296.76953125 91.99609375 C-284.77155156 81.03690018 -271.58563567 75.95281771 -255.40234375 76.13671875 C-240.87784469 77.02799483 -228.76140038 83.76536897 -218.96484375 94.34765625 C-206.91428151 109.51474321 -207.4461393 124.86160585 -207.96484375 143.34765625 C-203.01484375 143.34765625 -198.06484375 143.34765625 -192.96484375 143.34765625 C-193.01705078 141.60742188 -193.01705078 141.60742188 -193.0703125 139.83203125 C-193.46692435 121.26302333 -189.52590781 106.38983311 -176.28125 92.5625 C-169.81207024 86.3769605 -163.11221183 82.03863511 -154.96484375 78.34765625 C-155.36316406 77.86296875 -155.76148438 77.37828125 -156.171875 76.87890625 C-156.70167969 76.20859375 -157.23148438 75.53828125 -157.77734375 74.84765625 C-158.29941406 74.19796875 -158.82148438 73.54828125 -159.359375 72.87890625 C-163.79144613 65.89111528 -164.42293076 59.57214627 -164.3984375 51.49609375 C-164.40367935 50.47842926 -164.4089212 49.46076477 -164.4143219 48.41226196 C-164.42071464 46.27257191 -164.41944095 44.13284658 -164.41088867 41.99316406 C-164.4023506 38.72527663 -164.4312248 35.45912267 -164.46289062 32.19140625 C-164.4645022 30.10546927 -164.46392595 28.01952921 -164.4609375 25.93359375 C-164.47217148 24.96159027 -164.48340546 23.98958679 -164.49497986 22.98812866 C-164.43661121 17.29682474 -163.9412 13.74994429 -159.96484375 9.34765625 C-155.99701993 6.15925646 -152.8051638 5.96967292 -147.79296875 5.94140625 C-147.11111511 5.93057007 -146.42926147 5.91973389 -145.72674561 5.90856934 C-143.5560152 5.87446858 -141.38580593 5.85876215 -139.21484375 5.84765625 C-127.96935086 5.78955959 -118.73164223 5.32098803 -108.77734375 -0.46484375 C-105.48122565 -2.14873017 -104.30791692 -2.67729453 -100.52734375 -2.40234375 C-96.43181227 0.39460458 -95.64206662 4.06972478 -94.27734375 8.66015625 C-93.35005864 16.63480822 -93.74440336 23.89738369 -96.96484375 31.34765625 C-97.650625 32.18167969 -98.33640625 33.01570313 -99.04296875 33.875 C-102.33107115 39.81630698 -101.47674126 46.30704083 -101.453125 52.96289062 C-101.59183714 63.44826714 -104.66859196 70.12754975 -110.96484375 78.34765625 C-110.2378125 78.65316406 -109.51078125 78.95867187 -108.76171875 79.2734375 C-96.9626062 84.64354642 -88.29552057 92.42807164 -81.26953125 103.3515625 C-79.98796513 105.46121353 -79.98796513 105.46121353 -77.96484375 107.34765625 C-77.43117187 106.51363281 -76.8975 105.67960937 -76.34765625 104.8203125 C-68.02389655 92.11403176 -58.28773861 84.39304878 -44.96484375 77.34765625 C-45.32578125 76.79335937 -45.68671875 76.2390625 -46.05859375 75.66796875 C-46.52265625 74.94351563 -46.98671875 74.2190625 -47.46484375 73.47265625 C-47.92890625 72.75335938 -48.39296875 72.0340625 -48.87109375 71.29296875 C-49.96484375 69.34765625 -49.96484375 69.34765625 -49.96484375 67.34765625 C-51.15722656 67.38246094 -52.34960938 67.41726562 -53.578125 67.453125 C-55.14451717 67.48126378 -56.71092456 67.50856385 -58.27734375 67.53515625 C-59.06302734 67.56029297 -59.84871094 67.58542969 -60.65820312 67.61132812 C-61.41552734 67.62099609 -62.17285156 67.63066406 -62.953125 67.640625 C-63.64962158 67.65633545 -64.34611816 67.6720459 -65.0637207 67.68823242 C-66.96484375 67.34765625 -66.96484375 67.34765625 -68.68847656 66.22924805 C-71.4058449 62.22336476 -70.44060594 56.69545278 -70.41088867 52.01806641 C-70.40251894 50.01459093 -70.43229898 48.01107189 -70.46289062 46.0078125 C-70.45547983 31.08247253 -66.50296556 17.97914309 -56.08984375 7.03515625 C-40.7814054 -7.29308078 -18.55105257 -10.01833024 0 0 Z " fill="#030202" transform="translate(318.96484375,21.65234375)"/>
<path d="M0 0 C0.7849585 0.00572021 1.56991699 0.01144043 2.37866211 0.01733398 C13.29098785 0.34936561 22.48698772 4.87134755 30.25 12.5 C43.0186042 26.86467972 41.8115413 43.69722003 41.70410156 61.76098633 C41.70297206 64.42298504 41.70343327 67.08493964 41.70587158 69.74693298 C41.70795897 75.45716214 41.69551465 81.16720708 41.67292023 86.87738991 C41.64027491 95.13310642 41.62998047 103.38873475 41.62496826 111.6445088 C41.61623515 125.04210896 41.58967372 138.43961116 41.55175781 151.8371582 C41.51498616 164.84398919 41.4866997 177.85079347 41.46972656 190.85766602 C41.46815022 192.06227612 41.46815022 192.06227612 41.46654204 193.29122178 C41.46132151 197.3204026 41.45626677 201.34958361 41.45129442 205.37876475 C41.40989423 238.75258085 41.33950021 272.12627837 41.25 305.5 C40.76802658 305.0868605 40.28605316 304.67372101 39.78947449 304.24806213 C39.15793961 303.70673141 38.52640472 303.1654007 37.87573242 302.60766602 C37.249384 302.07077652 36.62303558 301.53388702 35.97770691 300.98072815 C22.50968033 289.4379798 9.28389519 286.58349544 -8.07177734 287.28222656 C-20.83786505 288.32027125 -31.05969362 296.72293516 -39.75 305.5 C-39.75054477 304.71939807 -39.75108953 303.93879614 -39.75165081 303.1345396 C-39.76660649 284.15637414 -39.80900395 265.17845256 -39.88209057 246.20041943 C-39.9167701 237.02282735 -39.94209996 227.84538593 -39.94555664 218.66772461 C-39.94859243 210.67011739 -39.96903075 202.67277828 -40.01052457 194.67527467 C-40.03189156 190.43906423 -40.04443641 186.2032353 -40.03615379 181.96697044 C-40.02863674 177.98178893 -40.04433928 173.99738189 -40.07806015 170.01234245 C-40.08632201 168.54781121 -40.08600977 167.08320335 -40.07659721 165.61867905 C-40.06503734 163.62287747 -40.08698544 161.62696477 -40.11076355 159.63127136 C-40.11352893 158.51313647 -40.11629431 157.39500158 -40.11914349 156.24298382 C-40.47747646 153.271162 -40.47747646 153.271162 -43.2594347 151.77182484 C-44.49226452 151.14227154 -44.49226452 151.14227154 -45.75 150.5 C-46.23828125 148.01953125 -46.23828125 148.01953125 -46.0625 145.3125 C-46.01738281 144.41144531 -45.97226562 143.51039063 -45.92578125 142.58203125 C-45.86777344 141.89496094 -45.80976562 141.20789063 -45.75 140.5 C-47.07 140.17 -48.39 139.84 -49.75 139.5 C-50.5 136.75 -50.5 136.75 -50.75 133.5 C-50.13125 132.901875 -49.5125 132.30375 -48.875 131.6875 C-46.02987162 128.75869137 -46.30972427 126.58351023 -46.31640625 122.62109375 C-46.12949219 121.92113281 -45.94257812 121.22117187 -45.75 120.5 C-44.92528198 120.12717392 -44.10056396 119.75434784 -43.25085449 119.370224 C-40.35764408 117.65407719 -40.35764408 117.65407719 -40.14440918 113.95509338 C-40.12738873 112.45524214 -40.1380122 110.95493062 -40.16992188 109.45532227 C-40.16746964 108.63535263 -40.1650174 107.815383 -40.16249084 106.9705658 C-40.16031663 105.18793786 -40.16962397 103.40526778 -40.1889801 101.62274361 C-40.21901177 98.79172979 -40.21801848 95.96222929 -40.2088623 93.13108826 C-40.19256412 86.09235018 -40.22977149 79.05407361 -40.26544189 72.01544189 C-40.29352268 66.07988154 -40.3009582 60.14496558 -40.28187561 54.20936394 C-40.2812629 51.43727955 -40.31033364 48.66656019 -40.34069824 45.89466858 C-40.3771636 32.11553968 -38.03137555 21.90617242 -28.14453125 11.69140625 C-19.89902351 4.14535431 -11.23665254 -0.09608135 0 0 Z " fill="#F0E0D6" transform="translate(59.75,108.5)"/>
<path d="M0 0 C2.4375 0.8125 2.4375 0.8125 4.4375 2.8125 C4.689349 4.8335771 4.689349 4.8335771 4.69197559 7.37622738 C4.69780779 8.34325995 4.70363998 9.31029253 4.70964891 10.30662912 C4.70586958 11.37654976 4.70209026 12.44647039 4.69819641 13.54881287 C4.70202196 14.67954902 4.70584751 15.81028518 4.70978898 16.97528607 C4.72016414 20.79012965 4.71611827 24.60482399 4.7121582 28.41967773 C4.71540668 31.14413899 4.72161925 33.86859176 4.72764587 36.5930481 C4.74042008 43.24065531 4.74218319 49.88822219 4.73984561 56.53583961 C4.73806531 61.9371826 4.73980589 67.3385133 4.74407005 72.73985481 C4.74466524 73.50749273 4.74526043 74.27513064 4.74587366 75.06603031 C4.74708536 76.62529905 4.74829949 78.18456779 4.74951603 79.74383653 C4.76040207 94.37931291 4.75822406 109.01476626 4.75213119 123.65024395 C4.74696116 137.0499952 4.75821782 150.44967377 4.77722941 163.84941065 C4.79658428 177.5960962 4.80486794 191.34274733 4.80110615 205.0894466 C4.79919052 212.81204529 4.80171679 220.53458211 4.81582069 228.25716972 C4.8277056 234.83149751 4.82917206 241.40572535 4.81703053 247.98005443 C4.81112127 251.33641373 4.81171051 254.69243924 4.82203293 258.04881096 C4.83240571 261.68244756 4.82447595 265.3155855 4.8117218 268.94920349 C4.81909609 270.01689341 4.82647037 271.08458332 4.83406812 272.18462747 C4.82686158 273.1542678 4.81965503 274.12390812 4.81223011 275.12293148 C4.81228513 275.96216843 4.81234014 276.80140537 4.81239682 277.66607374 C4.4375 279.8125 4.4375 279.8125 3.2413404 281.5821774 C0.79397355 283.25142195 -0.84447438 283.187402 -3.79867649 283.18723011 C-4.89023566 283.19443665 -5.98179483 283.2016432 -7.10643154 283.20906812 C-8.31030465 283.20169383 -9.51417775 283.19431955 -10.75453186 283.1867218 C-12.02975234 283.19069621 -13.30497282 283.19467061 -14.61883634 283.19876546 C-18.16557534 283.20938165 -21.7120634 283.20120455 -25.25879157 283.19001496 C-29.08091 283.18119319 -32.90299487 283.18961055 -36.72511292 283.19587708 C-44.21516167 283.2053787 -51.70511429 283.19875349 -59.19515593 283.18661413 C-67.91067599 283.17301316 -76.62617299 283.17463028 -85.34170096 283.17674746 C-100.88773254 283.17993929 -116.43371833 283.16825815 -131.97973633 283.14868164 C-147.07838332 283.12967337 -162.17697666 283.12259471 -177.27563477 283.12817383 C-193.70311571 283.13422598 -210.13057303 283.13406517 -226.558052 283.122688 C-228.30829298 283.12148066 -230.05853397 283.12027467 -231.80877495 283.11907005 C-232.67001096 283.11846651 -233.53124698 283.11786298 -234.41858106 283.11724115 C-240.49959266 283.11335531 -246.58059549 283.11375818 -252.66160774 283.1156559 C-260.06742919 283.11777381 -267.47320354 283.11258447 -274.8790117 283.09804235 C-278.66047385 283.0907783 -282.44186727 283.08673837 -286.22333527 283.09128571 C-290.31477586 283.09608628 -294.40602691 283.08548535 -298.49745178 283.07319641 C-300.30660752 283.0788654 -300.30660752 283.0788654 -302.15231186 283.08464891 C-303.24126328 283.07881671 -304.3302147 283.07298452 -305.45216465 283.06697559 C-306.39756094 283.06610882 -307.34295722 283.06524204 -308.31700188 283.064349 C-310.5625 282.8125 -310.5625 282.8125 -312.5625 280.8125 C-312.91913298 278.03076277 -313.04877947 276.47605004 -311.36277026 274.17541522 C-308.95106658 272.34960733 -307.45606996 272.43963845 -304.44567585 272.44335651 C-302.84828775 272.4343968 -302.84828775 272.4343968 -301.21862918 272.42525607 C-300.04451942 272.4339946 -298.87040967 272.44273312 -297.66072083 272.45173645 C-295.79477604 272.44789154 -295.79477604 272.44789154 -293.89113539 272.44396895 C-290.43164606 272.43987257 -286.97266257 272.44928312 -283.51323426 272.46430314 C-279.78523575 272.47723108 -276.0572535 272.47287634 -272.32923889 272.47059631 C-265.86803784 272.46902152 -259.40692751 272.47845219 -252.94574928 272.49530983 C-243.60392874 272.51966742 -234.26215217 272.52750177 -224.92030331 272.5312738 C-209.7646337 272.53784339 -194.60901247 272.55781828 -179.45336914 272.58618164 C-164.72908775 272.61370911 -150.00481949 272.63494911 -135.28051758 272.64770508 C-134.37325909 272.64849325 -133.46600061 272.64928142 -132.53124944 272.65009347 C-127.97990377 272.65400852 -123.428558 272.65779966 -118.87721217 272.66152918 C-81.10560728 272.69264087 -43.3340574 272.74549044 -5.5625 272.8125 C-5.56420874 271.95724103 -5.56420874 271.95724103 -5.565952 271.0847041 C-5.63304024 237.31530939 -5.68453638 203.5459298 -5.71569599 169.77648301 C-5.71944825 165.7246051 -5.7233312 161.67272732 -5.72729492 157.62084961 C-5.72808185 156.81417055 -5.72886878 156.0074915 -5.72967956 155.17636762 C-5.74274473 142.10305686 -5.76640466 129.02978556 -5.79395839 115.95649823 C-5.82198173 102.54888907 -5.83866974 89.14130062 -5.84476548 75.73366338 C-5.84888832 67.45588711 -5.8619246 59.17822233 -5.8862494 50.90048037 C-5.90206871 45.22936127 -5.90690903 39.55830008 -5.90300413 33.8871605 C-5.90107661 30.61184533 -5.90571991 27.33676748 -5.92011642 24.06147766 C-5.93494501 20.51532938 -5.93148868 16.96966616 -5.92326355 13.42350769 C-5.93200207 12.38169017 -5.9407406 11.33987266 -5.94974393 10.26648492 C-5.94377078 9.31999497 -5.93779764 8.37350501 -5.93164349 7.39833355 C-5.93335223 6.16974842 -5.93335223 6.16974842 -5.93509549 4.91634339 C-5.28575989 1.2498996 -3.70899995 -0.27139024 0 0 Z " fill="#FEFEFE" transform="translate(474.5625,189.1875)"/>
<path d="M0 0 C2.55842135 0.92208982 4.00654924 1.93235394 6.00146484 3.77148438 C6.67564453 4.39023438 7.34982422 5.00898438 8.04443359 5.64648438 C12.1961057 9.64809605 16.27415189 13.71966668 20.31396484 17.83398438 C25.82831684 13.29996162 30.71274736 8.34850129 35.56787109 3.12695312 C38.73250767 0.48450409 40.22934911 -0.0325626 44.31396484 -0.16601562 C46.83105469 1.46118164 46.83105469 1.46118164 49.27490234 3.90039062 C50.59941406 5.21813477 50.59941406 5.21813477 51.95068359 6.5625 C52.85431641 7.49771484 53.75794922 8.43292969 54.68896484 9.39648438 C55.61580078 10.30462891 56.54263672 11.21277344 57.49755859 12.1484375 C64.1640939 18.9082454 64.1640939 18.9082454 64.80664062 22.87719727 C64.20680703 26.47709054 63.21196196 27.63736948 60.59521484 30.13867188 C59.82822266 30.88632813 59.06123047 31.63398438 58.27099609 32.40429688 C57.46017578 33.16484375 56.64935547 33.92539063 55.81396484 34.70898438 C55.00314453 35.49273437 54.19232422 36.27648437 53.35693359 37.08398438 C51.35543235 39.0148444 49.3413086 40.9303365 47.31396484 42.83398438 C48.65522175 45.85642542 50.10268131 47.81498132 52.53662109 50.04101562 C53.46764648 50.92176758 53.46764648 50.92176758 54.41748047 51.8203125 C55.71974104 53.03428422 57.02964594 54.24010882 58.34716797 55.4375 C58.9665625 56.02853516 59.58595703 56.61957031 60.22412109 57.22851562 C61.07695679 58.01512573 61.07695679 58.01512573 61.94702148 58.81762695 C63.99723142 61.84186054 64.26291897 64.20701458 64.31396484 67.83398438 C62.67089844 70.46459961 62.67089844 70.46459961 60.21240234 72.89257812 C59.32939453 73.77236328 58.44638672 74.65214844 57.53662109 75.55859375 C56.59689453 76.45384766 55.65716797 77.34910156 54.68896484 78.27148438 C53.77244141 79.19380859 52.85591797 80.11613281 51.91162109 81.06640625 C45.1615608 87.66505419 45.1615608 87.66505419 41.78442383 88.33813477 C38.48149057 87.66410006 37.21919694 86.31134712 34.88818359 83.89648438 C34.0921875 83.084375 33.29619141 82.27226562 32.47607422 81.43554688 C31.65945313 80.57703125 30.84283203 79.71851563 30.00146484 78.83398438 C29.16550781 77.97546875 28.32955078 77.11695313 27.46826172 76.23242188 C25.40516829 74.11038291 23.35461919 71.9775741 21.31396484 69.83398438 C15.79905045 74.40941783 10.9401865 79.29257618 6.06005859 84.54101562 C2.89542201 87.18346466 1.39858058 87.70053135 -2.68603516 87.83398438 C-5.203125 86.20678711 -5.203125 86.20678711 -7.64697266 83.76757812 C-8.52998047 82.88908203 -9.41298828 82.01058594 -10.32275391 81.10546875 C-11.67820312 79.70264648 -11.67820312 79.70264648 -13.06103516 78.27148438 C-14.45128906 76.90926758 -14.45128906 76.90926758 -15.86962891 75.51953125 C-22.53616422 68.75972335 -22.53616422 68.75972335 -23.17871094 64.79077148 C-22.57887735 61.19087821 -21.58403227 60.03059927 -18.96728516 57.52929688 C-17.81679688 56.4078125 -17.81679688 56.4078125 -16.64306641 55.26367188 C-15.83224609 54.503125 -15.02142578 53.74257812 -14.18603516 52.95898438 C-13.37521484 52.17523438 -12.56439453 51.39148438 -11.72900391 50.58398438 C-9.72750266 48.65312435 -7.71337891 46.73763225 -5.68603516 44.83398438 C-7.06774225 41.6852782 -8.64117006 39.69591616 -11.16259766 37.37304688 C-12.16806641 36.41785156 -12.16806641 36.41785156 -13.19384766 35.44335938 C-14.60558988 34.12017663 -16.02491018 32.80503317 -17.45166016 31.49804688 C-18.11939453 30.85867187 -18.78712891 30.21929687 -19.47509766 29.56054688 C-20.09078613 28.98900879 -20.70647461 28.4174707 -21.34082031 27.82861328 C-23.2715415 24.96581979 -23.19528063 23.21991647 -22.68603516 19.83398438 C-20.92944336 17.30102539 -20.92944336 17.30102539 -18.48681641 14.83789062 C-17.60703125 13.95037109 -16.72724609 13.06285156 -15.82080078 12.1484375 C-14.88945312 11.24029297 -13.95810547 10.33214844 -12.99853516 9.39648438 C-12.08652344 8.46126953 -11.17451172 7.52605469 -10.23486328 6.5625 C-9.34863281 5.68400391 -8.46240234 4.80550781 -7.54931641 3.90039062 C-6.73760986 3.09545166 -5.92590332 2.2905127 -5.08959961 1.46118164 C-2.68603516 -0.16601562 -2.68603516 -0.16601562 0 0 Z " fill="#050403" transform="translate(391.68603515625,202.166015625)"/>
<path d="M0 0 C9.99397527 -0.44765847 19.93463762 1.55522563 28.48828125 6.98828125 C31.54561047 8.69770012 33.49337567 7.88047314 36.8203125 7.28125 C40.33375779 7.28125 42.32412642 10.01995646 44.80078125 12.28125 C46.79188526 12.66415462 48.79178638 13.00729615 50.80078125 13.28125 C52.80078125 16.28125 52.80078125 16.28125 52.30078125 19.65625 C51.76772319 23.52092091 52.30504529 24.82236058 53.80078125 28.28125 C53.31691028 31.76512097 53.31691028 31.76512097 51.80078125 33.28125 C51.71329918 35.20792507 51.69380791 37.13776861 51.703125 39.06640625 C51.70634766 40.23623047 51.70957031 41.40605469 51.71289062 42.61132812 C51.72126953 43.84302734 51.72964844 45.07472656 51.73828125 46.34375 C51.74279297 47.57931641 51.74730469 48.81488281 51.75195312 50.08789062 C51.76378507 53.15236413 51.78172117 56.21681293 51.80078125 59.28125 C46.52078125 59.28125 41.24078125 59.28125 35.80078125 59.28125 C35.42578125 51.40625 35.42578125 51.40625 35.32275391 48.93017578 C35.21582346 44.64413412 35.21582346 44.64413412 32.80078125 41.28125 C29.49394659 41.57108269 29.49394659 41.57108269 26.80078125 43.28125 C26.47078125 48.56125 26.14078125 53.84125 25.80078125 59.28125 C10.62078125 59.28125 -4.55921875 59.28125 -20.19921875 59.28125 C-20.52921875 54.00125 -20.85921875 48.72125 -21.19921875 43.28125 C-21.85921875 42.62125 -22.51921875 41.96125 -23.19921875 41.28125 C-26.16921875 41.77625 -26.16921875 41.77625 -29.19921875 42.28125 C-29.52921875 47.89125 -29.85921875 53.50125 -30.19921875 59.28125 C-35.80921875 59.28125 -41.41921875 59.28125 -47.19921875 59.28125 C-47.74510347 41.2670542 -45.29987585 27.7892183 -32.69921875 14.09375 C-23.54578554 5.34009023 -12.49327804 1.09831016 0 0 Z " fill="#71C0E7" transform="translate(402.19921875,106.71875)"/>
<path d="M0 0 C10.60441861 8.15193092 18.43941388 20.43788248 20.3984375 33.84375 C20.46658012 36.62669463 20.49298943 39.3756739 20.4609375 42.15625 C20.4403125 44.693125 20.4196875 47.23 20.3984375 49.84375 C14.7884375 49.84375 9.1784375 49.84375 3.3984375 49.84375 C3.0234375 41.96875 3.0234375 41.96875 2.92041016 39.49267578 C2.81347971 35.20663412 2.81347971 35.20663412 0.3984375 31.84375 C-2.90839716 32.13358269 -2.90839716 32.13358269 -5.6015625 33.84375 C-5.9315625 39.12375 -6.2615625 44.40375 -6.6015625 49.84375 C-21.7815625 49.84375 -36.9615625 49.84375 -52.6015625 49.84375 C-52.9315625 44.56375 -53.2615625 39.28375 -53.6015625 33.84375 C-54.2615625 33.18375 -54.9215625 32.52375 -55.6015625 31.84375 C-58.90839716 32.13358269 -58.90839716 32.13358269 -61.6015625 33.84375 C-61.83851398 36.53797605 -62.02324852 39.20709611 -62.1640625 41.90625 C-62.3084375 44.525625 -62.4528125 47.145 -62.6015625 49.84375 C-68.2115625 49.84375 -73.8215625 49.84375 -79.6015625 49.84375 C-80.18317392 31.95919878 -77.47174529 18.19573074 -64.9140625 4.59375 C-46.83562447 -12.40277379 -20.3655467 -14.09463056 0 0 Z " fill="#12BD6B" transform="translate(215.6015625,116.15625)"/>
<path d="M0 0 C11.01461258 11.26494468 16.9821288 23.93658751 16.8125 39.625 C16.791875 42.326875 16.77125 45.02875 16.75 47.8125 C11.14 47.8125 5.53 47.8125 -0.25 47.8125 C-0.58 42.2025 -0.91 36.5925 -1.25 30.8125 C-3.23 30.4825 -5.21 30.1525 -7.25 29.8125 C-11.51874949 34.08124949 -8.89549965 41.78599405 -9.25 47.8125 C-24.76 47.8125 -40.27 47.8125 -56.25 47.8125 C-56.58 41.8725 -56.91 35.9325 -57.25 29.8125 C-59.23 29.8125 -61.21 29.8125 -63.25 29.8125 C-66.18333885 32.74583885 -65.71115407 35.99976208 -65.875 39.9375 C-65.99875 42.53625 -66.1225 45.135 -66.25 47.8125 C-71.53 47.8125 -76.81 47.8125 -82.25 47.8125 C-83.00054771 31.08362557 -81.51597395 18.08131376 -70.25 4.8125 C-50.85040989 -16.08224156 -22.60152527 -15.21256508 0 0 Z " fill="#EDBD1F" transform="translate(328.25,118.1875)"/>
<path d="M0 0 C6.71898927 4.62256045 12.2723702 10.86250902 13.875 19 C16.48207442 35.29421511 5.68086828 49.18857431 -3.125 62 C-3.75664062 62.93585938 -4.38828125 63.87171875 -5.0390625 64.8359375 C-5.62429687 65.65320313 -6.20953125 66.47046875 -6.8125 67.3125 C-7.56080078 68.35857422 -7.56080078 68.35857422 -8.32421875 69.42578125 C-10.77470217 71.5679609 -12.94375739 71.69299897 -16.125 72 C-24.07957721 63.08301715 -30.22045829 53.34956143 -36.125 43 C-37.02025391 41.44345703 -37.02025391 41.44345703 -37.93359375 39.85546875 C-41.90251934 32.17621613 -42.45442608 24.60704998 -40.4609375 16.19921875 C-38.34947671 10.14942456 -35.1527289 5.93247676 -30.125 2 C-29.58617187 1.56558594 -29.04734375 1.13117188 -28.4921875 0.68359375 C-21.05914491 -4.09955249 -7.83713163 -3.97926649 0 0 Z " fill="#050303" transform="translate(198.125,287)"/>
<path d="M0 0 C2.875 0.75 2.875 0.75 3.875 1.75 C3.97946863 4.38820733 4.01832401 7.00046877 4.01544189 9.63938904 C4.01841302 10.47596057 4.02138414 11.31253209 4.0244453 12.17445427 C4.03317136 14.99969492 4.03464381 17.8248934 4.03613281 20.65014648 C4.04075818 22.66672863 4.04578245 24.6833099 4.05117798 26.69989014 C4.06432997 32.19359132 4.07075222 37.68728027 4.07518864 43.18099475 C4.07811448 46.60876873 4.08221831 50.03653932 4.08669281 53.4643116 C4.10037428 64.17613569 4.11003811 74.88795209 4.1138947 85.59978431 C4.1183791 97.98924348 4.135942 110.37859252 4.1648953 122.76801819 C4.18646752 132.32892697 4.19659657 141.88980466 4.19793582 151.45073754 C4.19898693 157.16851499 4.2049596 162.88618901 4.22275543 168.60394096 C4.23915951 173.97927668 4.24142916 179.35443038 4.23261642 184.7297821 C4.23184195 186.70755562 4.23624224 188.68533862 4.24607468 190.66308784 C4.25867033 193.3534886 4.25298562 196.04323247 4.24249268 198.73362732 C4.25054908 199.52476392 4.25860548 200.31590052 4.26690602 201.13101095 C4.2469368 203.30513668 4.2469368 203.30513668 3.875 206.75 C0.875 208.75 0.875 208.75 -2.375 208.5 C-6.125 207.75 -6.125 207.75 -9.28125 206.72265625 C-13.75365641 205.59091926 -17.78485154 205.4085183 -22.375 205.4375 C-23.21111816 205.43806396 -24.04723633 205.43862793 -24.90869141 205.43920898 C-30.56509041 205.52301966 -35.55026659 206.23157163 -40.8984375 208.19140625 C-43.65809983 208.88374259 -45.42022463 208.57771554 -48.125 207.75 C-50.125 205.75 -50.125 205.75 -50.375 203.25 C-50.125 200.75 -50.125 200.75 -48.125 198.75 C-34.58649812 194.01843174 -21.2119478 193.70189471 -7.125 195.75 C-7.12261165 194.75809505 -7.12022329 193.76619009 -7.11776257 192.74422741 C-7.05902622 168.63381824 -6.98317993 144.52350946 -6.88928509 120.41321087 C-6.84427676 108.75375457 -6.80487378 97.09432917 -6.77856445 85.43481445 C-6.7556251 75.27502675 -6.72227281 65.11533639 -6.67629844 54.95562583 C-6.65231128 49.57373683 -6.63361857 44.19194457 -6.62738609 38.81000328 C-6.62136001 33.74815634 -6.60145041 28.68655708 -6.57072449 23.62480164 C-6.56190437 21.76357553 -6.55822984 19.90231711 -6.55999184 18.04107094 C-6.56163428 15.5063543 -6.54503432 12.97240207 -6.52372742 10.43778992 C-6.52857499 9.69557542 -6.53342257 8.95336092 -6.53841704 8.18865508 C-6.49763325 5.26344605 -6.44226557 3.22630398 -4.79539204 0.75388813 C-3.125 -0.25 -3.125 -0.25 0 0 Z " fill="#FEFDFD" transform="translate(83.125,176.25)"/>
<path d="M0 0 C3.02244104 1.34125691 4.98099694 2.78871646 7.20703125 5.22265625 C7.79419922 5.84333984 8.38136719 6.46402344 8.98632812 7.10351562 C10.20029984 8.40577619 11.40612445 9.7156811 12.60351562 11.03320312 C15.43040316 13.99573194 17.60636916 15.83072068 21.40625 17.46484375 C27.20029725 16.71539633 29.92574042 12.72083296 33.6875 8.5 C35.15887412 6.87474838 36.64145843 5.25955321 38.13671875 3.65625 C38.78342529 2.93244141 39.43013184 2.20863281 40.09643555 1.46289062 C42 0 42 0 44.10766602 0.15600586 C46.71955882 1.32092825 48.2846327 2.99886433 50.25 5.0625 C50.95640625 5.79597656 51.6628125 6.52945313 52.390625 7.28515625 C52.92171875 7.85105469 53.4528125 8.41695312 54 9 C52.5826947 12.27139874 50.88738458 14.27806272 48.26953125 16.6796875 C47.54958984 17.36160156 46.82964844 18.04351562 46.08789062 18.74609375 C44.56857947 20.16759518 43.03983791 21.57908261 41.50195312 22.98046875 C40.78587891 23.66496094 40.06980469 24.34945312 39.33203125 25.0546875 C38.66921143 25.66812012 38.0063916 26.28155273 37.32348633 26.91357422 C35.72677629 29.00739259 35.72677629 29.00739259 36.05322266 31.97753906 C37.11918709 35.38048897 38.26507163 36.84784676 40.81640625 39.3046875 C41.58017578 40.05234375 42.34394531 40.8 43.13085938 41.5703125 C43.93330078 42.33085937 44.73574219 43.09140625 45.5625 43.875 C46.36880859 44.65875 47.17511719 45.4425 48.00585938 46.25 C49.9930948 48.17844148 51.99104431 50.09423865 54 52 C50.6189962 56.13621084 47.33409466 59.81316569 43 63 C42.48091064 62.45472656 41.96182129 61.90945313 41.42700195 61.34765625 C39.06867156 58.88541726 36.69103469 56.44272029 34.3125 54 C33.49587891 53.14148438 32.67925781 52.28296875 31.83789062 51.3984375 C31.04189453 50.58632813 30.24589844 49.77421875 29.42578125 48.9375 C28.69786377 48.18339844 27.96994629 47.42929687 27.2199707 46.65234375 C25.1118864 44.83553871 25.1118864 44.83553871 22.5 44.5078125 C19.16798722 45.16380252 17.92193656 46.50533191 15.57421875 48.9375 C14.77822266 49.74960937 13.98222656 50.56171875 13.16210938 51.3984375 C12.34548828 52.25695312 11.52886719 53.11546875 10.6875 54 C9.85154297 54.85851562 9.01558594 55.71703125 8.15429688 56.6015625 C6.09120344 58.72360146 4.04065434 60.85641027 2 63 C0.88322508 62.05052441 -0.23244654 61.09975103 -1.34765625 60.1484375 C-2.27976929 59.35445557 -2.27976929 59.35445557 -3.23071289 58.54443359 C-5.2481965 56.78334607 -7.14412108 54.93011408 -9 53 C-7.58081124 49.72832034 -5.87595482 47.70119648 -3.26953125 45.28515625 C-2.54958984 44.59873047 -1.82964844 43.91230469 -1.08789062 43.20507812 C0.43331882 41.77266031 1.96204768 40.34818764 3.49804688 38.93164062 C4.21412109 38.24392578 4.93019531 37.55621094 5.66796875 36.84765625 C6.66219849 35.9196521 6.66219849 35.9196521 7.67651367 34.97290039 C9.2385936 33.05286755 9.2385936 33.05286755 8.94677734 30.52246094 C7.82216446 27.5261999 6.47612091 26.01756917 4.18359375 23.79296875 C3.41982422 23.04208984 2.65605469 22.29121094 1.86914062 21.51757812 C0.66547852 20.36418945 0.66547852 20.36418945 -0.5625 19.1875 C-1.77196289 18.00510742 -1.77196289 18.00510742 -3.00585938 16.79882812 C-4.99520169 14.85657084 -6.99327271 12.92426339 -9 11 C-7.49053489 7.81913482 -5.92058175 5.70130094 -3.375 3.25 C-2.74335938 2.63640625 -2.11171875 2.0228125 -1.4609375 1.390625 C-0.73777344 0.70226562 -0.73777344 0.70226562 0 0 Z " fill="#F75B3B" transform="translate(390,215)"/>
<path d="M0 0 C8.39721664 6.1322572 14.07155378 13.01284382 17 23 C17.22705078 25.97607422 17.22705078 25.97607422 17.1953125 29.0546875 C17.18886719 30.16328125 17.18242187 31.271875 17.17578125 32.4140625 C17.15064453 34.12722656 17.15064453 34.12722656 17.125 35.875 C17.11597656 37.0403125 17.10695313 38.205625 17.09765625 39.40625 C17.07417432 42.27104577 17.04133141 45.13541535 17 48 C14.36 48 11.72 48 9 48 C8.67 40.74 8.34 33.48 8 26 C2.73528564 25.28301555 -2.529669 24.56932524 -7.79589844 23.86376953 C-9.58456549 23.62314892 -11.37298305 23.38066562 -13.16113281 23.13623047 C-15.74219276 22.78374458 -18.32409736 22.43812869 -20.90625 22.09375 C-21.69616333 21.9843811 -22.48607666 21.87501221 -23.29992676 21.7623291 C-32.01653601 20.32673032 -32.01653601 20.32673032 -40.27734375 22.20703125 C-40.82519531 22.73683594 -41.37304688 23.26664063 -41.9375 23.8125 C-42.50339844 24.33457031 -43.06929688 24.85664062 -43.65234375 25.39453125 C-45.92943059 28.1072347 -46.14747168 30.82764393 -46.31640625 34.23046875 C-46.35830078 35.03291016 -46.40019531 35.83535156 -46.44335938 36.66210938 C-46.50233398 37.91217773 -46.50233398 37.91217773 -46.5625 39.1875 C-46.60568359 40.03248047 -46.64886719 40.87746094 -46.69335938 41.74804688 C-46.79931518 43.83184433 -46.9001502 45.91590103 -47 48 C-49.64 48 -52.28 48 -55 48 C-56.01921987 20.1047362 -56.01921987 20.1047362 -46.703125 8.8125 C-34.51703915 -4.15617852 -16.35768899 -9.28678538 0 0 Z " fill="#797877" transform="translate(314,31)"/>
<path d="M0 0 C7.57219579 2.80512067 11.44956489 15.52487511 14.74511719 22.29931641 C19.51961269 32.03584339 19.51961269 32.03584339 24.56152344 41.63525391 C25.02719727 42.49328613 25.49287109 43.35131836 25.97265625 44.23535156 C26.83795949 45.81625489 27.7130447 47.39185876 28.59960938 48.9609375 C30.84709639 53.08007443 32.21077513 56.09543254 31.49511719 60.92431641 C29.49511719 62.92431641 29.49511719 62.92431641 27.18261719 63.54931641 C24.49511719 62.92431641 24.49511719 62.92431641 23.34545898 61.50439453 C19.88127473 55.71483528 16.71282747 49.7947902 13.62011719 43.79931641 C13.09708008 42.79118896 12.57404297 41.78306152 12.03515625 40.74438477 C8.11607334 33.17342915 4.25990507 25.57319883 0.49511719 17.92431641 C-2.92304475 21.34247834 -4.56059551 25.9098613 -6.62988281 30.23681641 C-7.0978125 31.1875 -7.56574219 32.13818359 -8.04785156 33.11767578 C-8.49 34.04 -8.93214844 34.96232422 -9.38769531 35.91259766 C-9.79391113 36.75346924 -10.20012695 37.59434082 -10.61865234 38.46069336 C-11.58670529 41.15177386 -11.76629836 43.08626058 -11.50488281 45.92431641 C-10.22434367 48.22488794 -10.22434367 48.22488794 -8.50488281 50.36181641 C-6.40498961 53.33336339 -5.53903159 54.68954357 -5.00488281 58.36181641 C-5.50488281 60.92431641 -5.50488281 60.92431641 -7.50488281 62.92431641 C-9.94580078 63.26464844 -9.94580078 63.26464844 -12.50488281 62.92431641 C-14.09912109 61.48632812 -14.09912109 61.48632812 -15.45019531 59.47900391 C-15.95325195 58.7477832 -16.45630859 58.0165625 -16.97460938 57.26318359 C-17.47959961 56.49135742 -17.98458984 55.71953125 -18.50488281 54.92431641 C-19.00213867 54.19116211 -19.49939453 53.45800781 -20.01171875 52.70263672 C-21.49316378 50.50043605 -22.94031818 48.27907684 -24.37988281 46.04931641 C-24.87746094 45.29134766 -25.37503906 44.53337891 -25.88769531 43.75244141 C-26.35691406 43.02798828 -26.82613281 42.30353516 -27.30957031 41.55712891 C-27.73222168 40.90631348 -28.15487305 40.25549805 -28.59033203 39.58496094 C-29.50488281 37.92431641 -29.50488281 37.92431641 -29.50488281 35.92431641 C-30.16488281 35.92431641 -30.82488281 35.92431641 -31.50488281 35.92431641 C-31.77365234 36.65046143 -32.04242188 37.37660645 -32.31933594 38.12475586 C-33.48810332 40.88469316 -34.83767344 43.21051614 -36.47363281 45.71728516 C-37.0446875 46.59449219 -37.61574219 47.47169922 -38.20410156 48.37548828 C-38.79835937 49.27847656 -39.39261719 50.18146484 -40.00488281 51.11181641 C-40.59914062 52.02640625 -41.19339844 52.94099609 -41.80566406 53.88330078 C-46.22961296 60.64904655 -46.22961296 60.64904655 -48.50488281 62.92431641 C-51.50488281 63.23681641 -51.50488281 63.23681641 -54.50488281 62.92431641 C-56.50488281 59.92431641 -56.50488281 59.92431641 -56.29614258 57.5144043 C-55.46449095 54.79209878 -54.41693507 52.84965056 -52.84472656 50.48291016 C-52.30178955 49.65710449 -51.75885254 48.83129883 -51.19946289 47.98046875 C-50.61962646 47.11631348 -50.03979004 46.2521582 -49.44238281 45.36181641 C-48.56199341 44.03077881 -48.56199341 44.03077881 -47.66381836 42.67285156 C-46.49093199 40.90167223 -45.31464321 39.13274074 -44.13476562 37.36621094 C-42.72542959 35.25474014 -41.32655916 33.13708404 -39.93457031 31.01416016 C-34.80359278 23.22302637 -34.80359278 23.22302637 -32.50488281 20.92431641 C-30.11035156 20.98681641 -30.11035156 20.98681641 -27.50488281 21.92431641 C-25.55566406 24.17431641 -25.55566406 24.17431641 -23.81738281 26.92431641 C-21.71757349 30.53270691 -21.71757349 30.53270691 -18.50488281 32.92431641 C-18.26705078 32.13903564 -18.26705078 32.13903564 -18.02441406 31.33789062 C-16.01328262 24.98365971 -13.38739014 19.05171402 -10.50488281 13.04931641 C-10.06660156 12.11345703 -9.62832031 11.17759766 -9.17675781 10.21337891 C-8.74878906 9.31619141 -8.32082031 8.41900391 -7.87988281 7.49462891 C-7.30367187 6.28444092 -7.30367187 6.28444092 -6.71582031 5.04980469 C-3.77387255 -0.11402539 -3.77387255 -0.11402539 0 0 Z " fill="#050505" transform="translate(198.5048828125,205.07568359375)"/>
<path d="M0 0 C1.96484375 0.375 1.96484375 0.375 4.83984375 1.875 C9.21728104 3.9761699 13.18334216 4.00393276 17.96484375 3.375 C19.65240508 2.41067924 21.32150871 1.41289581 22.96484375 0.375 C27.33377082 -0.40709188 30.1320072 -0.1565978 33.90234375 2.25 C38.09527258 6.56998728 37.3268047 11.65785243 37.34985352 17.34472656 C37.20891248 24.99668203 35.5112555 30.44109433 30.3203125 36.19921875 C24.24860261 41.85975189 17.92372995 43.9753539 9.6796875 43.7265625 C2.20047154 42.75803094 -2.75747641 38.52467218 -7.33276367 32.73217773 C-11.29131655 27.09916512 -11.80387764 22.46635893 -11.66015625 15.6875 C-11.67949219 14.76388672 -11.69882812 13.84027344 -11.71875 12.88867188 C-11.68566293 8.29287826 -11.5288413 6.04530151 -8.7421875 2.26171875 C-5.72708208 0.16028164 -3.66312861 -0.21828699 0 0 Z " fill="#FBB39C" transform="translate(392.03515625,53.625)"/>
<path d="M0 0 C3.33638986 1.85414022 5.70646962 3.85811415 8.25 6.6875 C10.79439052 9.43592183 12.52375982 10.50356397 16.25 11.0625 C22.54679513 11.25395661 26.14572756 8.48989431 30.6875 4.4375 C37.08710294 -1.24169736 41.84014298 -2.6861952 50.421875 -2.48046875 C56.68258186 -1.67915818 60.82424024 1.1629669 65.3125 5.4375 C66.6875 7.9375 66.6875 7.9375 66.5625 10.625 C65.6875 12.9375 65.6875 12.9375 63.6875 14.9375 C59.25047029 14.69766056 56.99999485 12.72696934 53.6875 9.9375 C49.96001673 8.69500558 46.55930664 8.40751886 42.6875 8.9375 C39.27634148 10.74340745 36.96542828 12.64494392 34.3125 15.4375 C29.46510606 20.05406566 24.92266226 22.16697409 18.1875 22.4375 C10.04056597 22.11026858 5.13729742 18.84144721 -0.3125 12.9375 C-4.45328295 9.52744345 -7.82450293 8.57664107 -13.2578125 8.65625 C-17.77335801 9.27434748 -20.64560864 12.21653637 -23.625 15.4375 C-28.46030249 19.93545581 -33.76292322 22.14249965 -40.375 22.4375 C-46.97656215 22.14022469 -51.44186749 19.64892974 -56.25 15.25 C-56.930625 14.486875 -57.61125 13.72375 -58.3125 12.9375 C-58.6425 12.6075 -58.9725 12.2775 -59.3125 11.9375 C-59.5 9.5 -59.5 9.5 -59.3125 6.9375 C-58.6525 6.2775 -57.9925 5.6175 -57.3125 4.9375 C-51.03192446 5.17011391 -51.03192446 5.17011391 -48.4375 7.9375 C-45.59796106 10.61000723 -43.36022897 10.7844838 -39.54296875 11.02734375 C-34.26413356 10.81471116 -31.07083217 7.7908701 -27.3125 4.4375 C-19.19313409 -2.78140991 -10.17415151 -4.70651589 0 0 Z " fill="#070606" transform="translate(208.3125,425.0625)"/>
<path d="M0 0 C3.9025528 1.97248593 6.70001514 4.59239367 9.58203125 7.8515625 C11.92309812 10.16414923 13.97850071 11.30796436 17.265625 11.66015625 C23.19265786 11.22309088 26.11022891 9.32209864 30.3359375 5.22265625 C36.31589954 -0.54283458 41.8698886 -1.92281244 50.04296875 -1.84375 C56.17286195 -1.29548626 60.49719092 1.09215196 65.25 4.875 C67.1875 7.4375 67.1875 7.4375 67.6875 10.0625 C67.1875 12.4375 67.1875 12.4375 66 14.3125 C64.1875 15.4375 64.1875 15.4375 61.8125 15.375 C58.68126825 14.25670295 56.68952718 12.60141539 54.1875 10.4375 C50.30950205 8.49850102 46.37383376 8.5085102 42.1875 9.4375 C39.42713693 11.47369374 37.1249029 13.74980276 34.6953125 16.16796875 C30.02743309 20.39232691 24.39929603 22.5274965 18.125 22.9375 C10.26269424 21.93911197 5.01848642 18.93278835 -0.20703125 13.0234375 C-3.20430155 10.06263035 -6.28188133 9.05456489 -10.4375 8.75 C-16.52258893 8.83030176 -19.1729619 12.05567132 -23.3046875 16.16796875 C-27.97256691 20.39232691 -33.60070397 22.5274965 -39.875 22.9375 C-47.85549131 21.92410428 -53.80012094 18.73510446 -58.8125 12.4375 C-59.3125 9.6875 -59.3125 9.6875 -58.8125 7.4375 C-56.8125 5.4375 -56.8125 5.4375 -54.0625 5 C-49.59408626 5.60151723 -48.08408153 7.38898084 -44.8125 10.4375 C-41.23208957 12.22770521 -37.56962014 11.52556199 -33.8125 10.4375 C-31.53655424 8.86944334 -29.64622172 7.1455876 -27.6640625 5.22265625 C-20.05901543 -2.10963597 -9.91329102 -3.99261635 0 0 Z " fill="#060505" transform="translate(207.8125,395.5625)"/>
<path d="M0 0 C2.38805161 1.70286005 4.46681952 3.35880465 6.625 5.3125 C7.19734375 5.81201172 7.7696875 6.31152344 8.359375 6.82617188 C9.92421849 8.19995889 11.47392311 9.58329451 13 11 C13.55993652 11.49781982 14.11987305 11.99563965 14.69677734 12.50854492 C15.12684082 13.0007251 15.5569043 13.49290527 16 14 C15.75546876 17.34192692 15.39456443 18.60543557 13 21 C8.12135417 20.7831713 5.56600568 19.25135812 2 16 C3.14359375 22.98567343 6.40909156 25.61706493 11.9375 29.75 C13.38503193 30.86860558 14.83167994 31.98835614 16.27734375 33.109375 C17.24015259 33.83592285 17.24015259 33.83592285 18.22241211 34.57714844 C19.96645427 35.97314867 21.55318484 37.29521683 23 39 C22.75546876 42.34192692 22.39456443 43.60543557 20 46 C17.76953125 46.4375 17.76953125 46.4375 15 46 C12.71727958 44.39608101 10.7444943 42.8495453 8.6875 41 C8.13771484 40.52304687 7.58792969 40.04609375 7.02148438 39.5546875 C5.67141423 38.38071346 4.33437359 37.19178502 3 36 C2.98541748 36.74161377 2.97083496 37.48322754 2.95581055 38.24731445 C2.88140543 41.60290631 2.78471994 44.95749494 2.6875 48.3125 C2.66494141 49.47974609 2.64238281 50.64699219 2.61914062 51.84960938 C2.58369141 52.96787109 2.54824219 54.08613281 2.51171875 55.23828125 C2.48553467 56.26993408 2.45935059 57.30158691 2.43237305 58.36450195 C2 61 2 61 0.62817383 62.86791992 C-1 64 -1 64 -3.5625 63.875 C-6 63 -6 63 -8 60 C-8.22705078 57.45629883 -8.22705078 57.45629883 -8.1953125 54.45703125 C-8.18886719 53.38388672 -8.18242187 52.31074219 -8.17578125 51.20507812 C-8.15902344 50.08552734 -8.14226562 48.96597656 -8.125 47.8125 C-8.11597656 46.68134766 -8.10695313 45.55019531 -8.09765625 44.38476562 C-8.07406862 41.58963172 -8.041153 38.79492155 -8 36 C-8.68707031 36.55429687 -9.37414062 37.10859375 -10.08203125 37.6796875 C-10.98308594 38.40414062 -11.88414062 39.12859375 -12.8125 39.875 C-13.70582031 40.59429687 -14.59914063 41.31359375 -15.51953125 42.0546875 C-20.46737807 45.93504611 -20.46737807 45.93504611 -23.5625 46.3125 C-24.366875 46.209375 -25.17125 46.10625 -26 46 C-28 43 -28 43 -28.05078125 40.16796875 C-26.56983099 35.70309641 -23.91913335 33.99402547 -20.1875 31.3125 C-19.55779297 30.84005859 -18.92808594 30.36761719 -18.27929688 29.88085938 C-15.74307496 27.98335022 -13.19705787 26.13221539 -10.56640625 24.3671875 C-8.6256271 22.9950542 -8.6256271 22.9950542 -8.75 19.8125 C-8.87375 18.4203125 -8.87375 18.4203125 -9 17 C-10.0828125 18.0209375 -10.0828125 18.0209375 -11.1875 19.0625 C-14 21 -14 21 -16.6875 20.875 C-19 20 -19 20 -21 18 C-21.51953125 15.73046875 -21.51953125 15.73046875 -21 13 C-18.93168171 10.86677015 -17.0065013 9.12383471 -14.6875 7.3125 C-14.09259766 6.82716797 -13.49769531 6.34183594 -12.88476562 5.84179688 C-4.70050956 -0.78790776 -4.70050956 -0.78790776 0 0 Z " fill="#060606" transform="translate(387,320)"/>
<path d="M0 0 C4.82601999 1.25765981 7.542146 3.46975478 11.21484375 6.734375 C11.85099609 7.2603125 12.48714844 7.78625 13.14257812 8.328125 C17.6299458 12.22263958 17.6299458 12.22263958 18.3125 15.75 C17.77734375 17.984375 17.77734375 17.984375 15.77734375 19.984375 C12.27396394 20.36517715 10.41455749 20.38682578 7.40234375 18.484375 C6.86609375 17.989375 6.32984375 17.494375 5.77734375 16.984375 C5.45297476 19.32401719 5.45297476 19.32401719 5.77734375 21.984375 C7.37789343 24.04822254 7.37789343 24.04822254 9.65234375 25.796875 C10.46316406 26.48007812 11.27398437 27.16328125 12.109375 27.8671875 C13.92015661 29.30414743 15.75192548 30.71497431 17.6015625 32.1015625 C18.50519531 32.78476562 19.40882813 33.46796875 20.33984375 34.171875 C21.18675781 34.78417969 22.03367187 35.39648438 22.90625 36.02734375 C24.77734375 37.984375 24.77734375 37.984375 25.12890625 40.60546875 C24.77734375 42.984375 24.77734375 42.984375 23.58984375 44.859375 C21.77734375 45.984375 21.77734375 45.984375 19.55859375 45.83984375 C15.9651862 44.73456811 13.36681946 42.72441466 10.46484375 40.421875 C9.64016602 39.78475586 9.64016602 39.78475586 8.79882812 39.13476562 C7.45216105 38.09256241 6.11388174 37.03953657 4.77734375 35.984375 C4.78781738 36.6956958 4.79829102 37.4070166 4.80908203 38.13989258 C4.85062376 41.35885086 4.87666414 44.57775276 4.90234375 47.796875 C4.91910156 48.91642578 4.93585938 50.03597656 4.953125 51.18945312 C4.95957031 52.26259766 4.96601563 53.33574219 4.97265625 54.44140625 C4.98312988 55.43116455 4.99360352 56.42092285 5.00439453 57.44067383 C4.77734375 59.984375 4.77734375 59.984375 2.77734375 62.984375 C-0.22265625 63.296875 -0.22265625 63.296875 -3.22265625 62.984375 C-5.22265625 60.984375 -5.22265625 60.984375 -5.44970703 58.37060547 C-5.4392334 57.29182129 -5.42875977 56.21303711 -5.41796875 55.1015625 C-5.41152344 53.93496094 -5.40507812 52.76835937 -5.3984375 51.56640625 C-5.38167969 50.34308594 -5.36492187 49.11976563 -5.34765625 47.859375 C-5.33863281 46.62832031 -5.32960938 45.39726562 -5.3203125 44.12890625 C-5.29668173 41.08053685 -5.26373679 38.03255118 -5.22265625 34.984375 C-5.98191406 35.61085938 -6.74117188 36.23734375 -7.5234375 36.8828125 C-8.51730469 37.70007813 -9.51117188 38.51734375 -10.53515625 39.359375 C-12.01435547 40.57753906 -12.01435547 40.57753906 -13.5234375 41.8203125 C-18.77207143 46.02833449 -18.77207143 46.02833449 -21.78515625 45.734375 C-24.22265625 44.984375 -24.22265625 44.984375 -26.22265625 42.984375 C-26.27443532 39.92078025 -26.01195682 37.85237245 -23.90039062 35.53027344 C-22.14331819 34.05296988 -20.3385411 32.69646657 -18.47265625 31.359375 C-17.85132813 30.8953125 -17.23 30.43125 -16.58984375 29.953125 C-13.83809795 27.89802371 -11.06696567 25.87118318 -8.2890625 23.8515625 C-5.8633306 22.08158901 -5.8633306 22.08158901 -5.91015625 18.734375 C-6.01328125 17.826875 -6.11640625 16.919375 -6.22265625 15.984375 C-6.92390625 16.644375 -7.62515625 17.304375 -8.34765625 17.984375 C-11.68095244 20.30318974 -13.2490798 20.51418519 -17.22265625 19.984375 C-19.22265625 17.984375 -19.22265625 17.984375 -19.7421875 15.71484375 C-18.95446821 11.57487548 -16.0762037 9.76982386 -12.91015625 7.296875 C-12.31525391 6.81154297 -11.72035156 6.32621094 -11.10742188 5.82617188 C-3.89181917 -0.01886943 -3.89181917 -0.01886943 0 0 Z " fill="#060606" transform="translate(368.22265625,394.015625)"/>
<path d="M0 0 C4.58104706 0.90482793 7.09342072 3.44256759 10.45703125 6.55859375 C11.40545898 7.40454102 11.40545898 7.40454102 12.37304688 8.26757812 C16.35227997 11.82884247 16.35227997 11.82884247 18.14453125 13.62109375 C18.26953125 16.62109375 18.26953125 16.62109375 18.14453125 19.62109375 C17.14453125 20.62109375 17.14453125 20.62109375 13.89453125 20.93359375 C9.62000786 20.57738347 8.16878981 19.55370812 5.14453125 16.62109375 C6.25220321 23.86284823 10.06259024 26.67406463 15.70703125 30.99609375 C16.8971582 31.93775391 16.8971582 31.93775391 18.11132812 32.8984375 C19.56894775 34.05108974 21.03203737 35.19688181 22.50219727 36.33349609 C24.14453125 37.62109375 24.14453125 37.62109375 25.14453125 38.62109375 C25.33203125 41.55859375 25.33203125 41.55859375 25.14453125 44.62109375 C23.14453125 46.62109375 23.14453125 46.62109375 20.9140625 47.05859375 C16.98796146 46.43839161 14.6944272 44.1948155 11.83203125 41.62109375 C11.28224609 41.14414062 10.73246094 40.6671875 10.16601562 40.17578125 C8.81594548 39.00180721 7.47890484 37.81287877 6.14453125 36.62109375 C6.12471191 37.36794434 6.10489258 38.11479492 6.08447266 38.88427734 C5.98944914 42.2552498 5.87967866 45.62558304 5.76953125 48.99609375 C5.723125 50.75953125 5.723125 50.75953125 5.67578125 52.55859375 C5.63710938 53.68007813 5.5984375 54.8015625 5.55859375 55.95703125 C5.52717285 56.9939209 5.49575195 58.03081055 5.46337891 59.09912109 C5.14453125 61.62109375 5.14453125 61.62109375 3.14453125 63.62109375 C0.14453125 63.87109375 0.14453125 63.87109375 -2.85546875 63.62109375 C-5.49538143 60.98118107 -5.15787672 59.64163079 -5.26953125 55.95703125 C-5.30820312 54.83554687 -5.346875 53.7140625 -5.38671875 52.55859375 C-5.41765625 51.38296875 -5.44859375 50.20734375 -5.48046875 48.99609375 C-5.51914062 47.81273437 -5.5578125 46.629375 -5.59765625 45.41015625 C-5.6921572 42.48062684 -5.77771433 39.55110778 -5.85546875 36.62109375 C-6.66371094 37.34296875 -7.47195313 38.06484375 -8.3046875 38.80859375 C-9.38355414 39.74673865 -10.46301258 40.68420328 -11.54296875 41.62109375 C-12.07341797 42.09804688 -12.60386719 42.575 -13.15039062 43.06640625 C-15.62307363 45.19018306 -17.36829023 46.54413466 -20.625 47.05859375 C-22.85546875 46.62109375 -22.85546875 46.62109375 -24.85546875 44.62109375 C-25.22265625 41.73828125 -25.22265625 41.73828125 -24.85546875 38.62109375 C-23.23828125 36.56640625 -23.23828125 36.56640625 -20.98046875 34.74609375 C-20.16835938 34.070625 -19.35625 33.39515625 -18.51953125 32.69921875 C-16.7174721 31.29350692 -14.89909764 29.90850351 -13.06640625 28.54296875 C-12.17179687 27.8675 -11.2771875 27.19203125 -10.35546875 26.49609375 C-9.52015625 25.89539063 -8.68484375 25.2946875 -7.82421875 24.67578125 C-5.33289617 22.07571047 -5.13537046 20.14985463 -4.85546875 16.62109375 C-5.52642578 17.17990234 -5.52642578 17.17990234 -6.2109375 17.75 C-11.19463822 21.64982551 -11.19463822 21.64982551 -14.73046875 21.49609375 C-16.85546875 20.62109375 -16.85546875 20.62109375 -17.85546875 19.62109375 C-18.2109375 16.84765625 -18.2109375 16.84765625 -17.85546875 13.62109375 C-15.84375 11.20703125 -15.84375 11.20703125 -13.16796875 8.99609375 C-12.29785156 8.26132812 -11.42773438 7.5265625 -10.53125 6.76953125 C-9.64824219 6.06054688 -8.76523437 5.3515625 -7.85546875 4.62109375 C-7.04464844 3.87085938 -6.23382813 3.120625 -5.3984375 2.34765625 C-2.85546875 0.62109375 -2.85546875 0.62109375 0 0 Z " fill="#040404" transform="translate(428.85546875,366.37890625)"/>
<path d="M0 0 C13.86 0 27.72 0 42 0 C42 22.36465324 42 22.36465324 36.25390625 29.0234375 C30.43678468 33.67176097 26.1061543 35.49924535 18.55859375 35.30859375 C11.79951723 34.49337689 7.47134707 30.98924745 3.2265625 25.87890625 C-2.3568939 17.32590457 0 11.63375246 0 0 Z " fill="#FBB39C" transform="translate(165,62)"/>
<path d="M0 0 C4.55891608 3.14058663 8.13157338 6.77531805 9.328125 12.33203125 C9.85151353 24.20173548 2.25743667 36.89418526 -5.58642578 45.46630859 C-6.76409037 46.64646208 -7.97273142 47.79557468 -9.1875 48.9375 C-17.6637988 38.44303481 -26.63188846 26.45092153 -26.46875 12.44140625 C-25.92144966 7.56891296 -23.22051584 4.89105309 -19.75 1.6875 C-13.04167612 -2.89379436 -7.54241657 -2.51413886 0 0 Z " fill="#F65A3B" transform="translate(193.1875,296.0625)"/>
<path d="M0 0 C10.62390486 0.95077748 21.15427893 2.49228922 31.69921875 4.08203125 C31.81620133 7.29005358 31.88672482 10.4975215 31.94921875 13.70703125 C31.98273438 14.61066406 32.01625 15.51429687 32.05078125 16.4453125 C32.13491456 22.20844405 31.60554197 25.53415859 27.69921875 30.08203125 C22.58020815 34.68914079 18.77602455 36.51129993 11.94140625 36.33203125 C6.13564846 35.68469937 2.390261 32.37162089 -1.30078125 28.08203125 C-4.7614437 22.69970287 -4.72468544 18.01719198 -4.61328125 11.83203125 C-4.61650391 10.92195313 -4.61972656 10.011875 -4.62304688 9.07421875 C-4.55032298 0.16223562 -4.55032298 0.16223562 0 0 Z " fill="#F9B29B" transform="translate(281.30078125,60.91796875)"/>
<path d="M0 0 C0.35309809 7.11427272 0.01004614 12.49830034 -3 19 C-4 20 -4 20 -5.82862854 20.12025452 C-6.62582809 20.11803391 -7.42302765 20.11581329 -8.24438477 20.11352539 C-9.14524307 20.11344986 -10.04610138 20.11337433 -10.97425842 20.11329651 C-11.95341721 20.10813522 -12.93257599 20.10297394 -13.94140625 20.09765625 C-14.93881332 20.0962413 -15.9362204 20.09482635 -16.96385193 20.09336853 C-20.16343124 20.08775114 -23.36294169 20.07519571 -26.5625 20.0625 C-28.72591045 20.05748724 -30.88932199 20.05292395 -33.05273438 20.04882812 C-38.36851325 20.03777607 -43.68425171 20.02102104 -49 20 C-49.05389087 18.04196493 -49.09274217 16.08351091 -49.125 14.125 C-49.14820313 13.03445312 -49.17140625 11.94390625 -49.1953125 10.8203125 C-49 8 -49 8 -47 6 C-44.46675826 5.81509597 -42.033495 5.7472502 -39.5 5.76171875 C-37.95702265 5.74627945 -36.41405377 5.72997442 -34.87109375 5.71289062 C-32.44658677 5.69654509 -30.0227012 5.68743308 -27.59814453 5.69458008 C-15.14223442 5.76712605 -15.14223442 5.76712605 -3.75 1.06958008 C-2 0 -2 0 0 0 Z " fill="#7A7978" transform="translate(214,32)"/>
<path d="M0 0 C0.886875 0.495 1.77375 0.99 2.6875 1.5 C7.44806408 3.65572713 11.84876021 3.60059298 17 3 C20.25058324 1.58376759 20.25058324 1.58376759 23 0 C27.63436547 -0.56747332 30.30779675 0.12828636 34 3 C35.87878349 6.00605359 36.22839563 8.23454865 36.125 11.75 C36.10695313 12.54921875 36.08890625 13.3484375 36.0703125 14.171875 C36.04710937 14.77515625 36.02390625 15.3784375 36 16 C35.01 15.67 34.02 15.34 33 15 C25.80075952 14.50018624 20.40765101 14.49104826 14 18 C9.74341661 17.78356356 7.55991776 17.37327851 4 15 C1.23344676 14.85754103 -1.42653306 14.81230555 -4.1875 14.875 C-5.31188477 14.88853516 -5.31188477 14.88853516 -6.45898438 14.90234375 C-8.30612654 14.92587422 -10.15310412 14.96174439 -12 15 C-12.89953149 6.42113483 -12.89953149 6.42113483 -10.875 3.22265625 C-7.39699908 0.0978898 -4.53180899 -0.7553015 0 0 Z " fill="#787776" transform="translate(393,30)"/>
<path d="M0 0 C2.875 0.75 2.875 0.75 3.875 1.75 C4.00167764 4.74018161 4.06020838 7.69694108 4.0625 10.6875 C4.07474609 11.52474609 4.08699219 12.36199219 4.09960938 13.22460938 C4.10250977 14.42633789 4.10250977 14.42633789 4.10546875 15.65234375 C4.10957764 16.38960693 4.11368652 17.12687012 4.11791992 17.88647461 C3.875 19.75 3.875 19.75 1.875 21.75 C-0.80513667 22.09360727 -2.43800708 22.17793592 -4.76171875 20.73046875 C-6.89448249 17.63215581 -6.55804818 14.37478627 -6.5 10.75 C-6.51160156 10.02554688 -6.52320312 9.30109375 -6.53515625 8.5546875 C-6.51839001 5.52558665 -6.49050789 3.30471197 -4.796875 0.734375 C-3.125 -0.25 -3.125 -0.25 0 0 Z " fill="#FEFDFC" transform="translate(83.125,144.25)"/>
<path d="M0 0 C2.78355537 0.92785179 3.9702666 1.88017647 5.2890625 4.51171875 C7.0601101 9.06456334 8.03294706 12.85044118 7.4375 17.8125 C4.4375 19.8125 4.4375 19.8125 1.92578125 19.73046875 C-1.35487109 18.520181 -1.90374813 17.24965874 -3.375 14.125 C-5.13968984 10.22820855 -6.40593522 7.13510549 -5.5625 2.8125 C-3.8855372 0.07640281 -3.22049925 -0.23564629 0 0 Z " fill="#0E0D0C" transform="translate(260.5625,272.1875)"/>
<path d="M0 0 C1.02770508 0.00483398 1.02770508 0.00483398 2.07617188 0.00976562 C3.09807617 -0.0144043 3.09807617 -0.0144043 4.140625 -0.0390625 C7.098757 -0.04195979 9.14304931 -0.01725534 11.62304688 1.68164062 C12.63867188 3.32226562 12.63867188 3.32226562 12.45117188 5.88476562 C11.63867188 8.32226562 11.63867188 8.32226562 9.63867188 10.32226562 C7.09332047 10.52075633 4.68150429 10.60078337 2.13867188 10.57226562 C1.44902344 10.58 0.759375 10.58773438 0.04882812 10.59570312 C-5.1079952 10.57559855 -5.1079952 10.57559855 -7.36132812 8.32226562 C-7.61132812 5.32226562 -7.61132812 5.32226562 -7.36132812 2.32226562 C-4.88747141 -0.15159109 -3.38628585 0.03655461 0 0 Z " fill="#070706" transform="translate(276.361328125,348.677734375)"/>
<path d="M0 0 C1.02770508 0.00483398 1.02770508 0.00483398 2.07617188 0.00976562 C3.09807617 -0.0144043 3.09807617 -0.0144043 4.140625 -0.0390625 C7.098757 -0.04195979 9.14304931 -0.01725534 11.62304688 1.68164062 C12.63867188 3.32226562 12.63867188 3.32226562 12.45117188 5.88476562 C11.63867188 8.32226562 11.63867188 8.32226562 9.63867188 10.32226562 C7.09332047 10.52075633 4.68150429 10.60078337 2.13867188 10.57226562 C1.44902344 10.58 0.759375 10.58773438 0.04882812 10.59570312 C-5.1079952 10.57559855 -5.1079952 10.57559855 -7.36132812 8.32226562 C-7.61132812 5.32226562 -7.61132812 5.32226562 -7.36132812 2.32226562 C-4.88747141 -0.15159109 -3.38628585 0.03655461 0 0 Z " fill="#070706" transform="translate(246.361328125,348.677734375)"/>
<path d="M0 0 C1.02770508 0.00483398 1.02770508 0.00483398 2.07617188 0.00976562 C3.09807617 -0.0144043 3.09807617 -0.0144043 4.140625 -0.0390625 C7.098757 -0.04195979 9.14304931 -0.01725534 11.62304688 1.68164062 C12.63867188 3.32226562 12.63867188 3.32226562 12.45117188 5.88476562 C11.63867188 8.32226562 11.63867188 8.32226562 9.63867188 10.32226562 C7.09332047 10.52075633 4.68150429 10.60078337 2.13867188 10.57226562 C1.44902344 10.58 0.759375 10.58773438 0.04882812 10.59570312 C-5.1079952 10.57559855 -5.1079952 10.57559855 -7.36132812 8.32226562 C-7.61132812 5.32226562 -7.61132812 5.32226562 -7.36132812 2.32226562 C-4.88747141 -0.15159109 -3.38628585 0.03655461 0 0 Z " fill="#070706" transform="translate(216.361328125,348.677734375)"/>
<path d="M0 0 C1.24910156 0.00515625 2.49820312 0.0103125 3.78515625 0.015625 C5.03167969 0.01046875 6.27820313 0.0053125 7.5625 0 C10.84765625 0.265625 10.84765625 0.265625 13.84765625 2.265625 C14.16015625 5.265625 14.16015625 5.265625 13.84765625 8.265625 C11.37379954 10.73948171 9.87261397 10.55133602 6.48632812 10.58789062 C5.45862305 10.58305664 5.45862305 10.58305664 4.41015625 10.578125 C3.38825195 10.60229492 3.38825195 10.60229492 2.34570312 10.62695312 C-0.61242887 10.62985041 -2.65672119 10.60514597 -5.13671875 8.90625 C-6.15234375 7.265625 -6.15234375 7.265625 -5.96484375 4.703125 C-4.73352651 1.00917328 -3.90947193 0.32942267 0 0 Z " fill="#090908" transform="translate(351.15234375,240.734375)"/>
<path d="M0 0 C1.24910156 0.00515625 2.49820312 0.0103125 3.78515625 0.015625 C5.03167969 0.01046875 6.27820313 0.0053125 7.5625 0 C10.84765625 0.265625 10.84765625 0.265625 13.84765625 2.265625 C14.16015625 5.265625 14.16015625 5.265625 13.84765625 8.265625 C11.37379954 10.73948171 9.87261397 10.55133602 6.48632812 10.58789062 C5.45862305 10.58305664 5.45862305 10.58305664 4.41015625 10.578125 C3.38825195 10.60229492 3.38825195 10.60229492 2.34570312 10.62695312 C-0.61242887 10.62985041 -2.65672119 10.60514597 -5.13671875 8.90625 C-6.15234375 7.265625 -6.15234375 7.265625 -5.96484375 4.703125 C-4.73352651 1.00917328 -3.90947193 0.32942267 0 0 Z " fill="#090908" transform="translate(321.15234375,240.734375)"/>
<path d="M0 0 C1.24910156 0.00515625 2.49820312 0.0103125 3.78515625 0.015625 C5.03167969 0.01046875 6.27820313 0.0053125 7.5625 0 C10.84765625 0.265625 10.84765625 0.265625 13.84765625 2.265625 C14.16015625 5.265625 14.16015625 5.265625 13.84765625 8.265625 C11.37379954 10.73948171 9.87261397 10.55133602 6.48632812 10.58789062 C5.45862305 10.58305664 5.45862305 10.58305664 4.41015625 10.578125 C3.38825195 10.60229492 3.38825195 10.60229492 2.34570312 10.62695312 C-0.61242887 10.62985041 -2.65672119 10.60514597 -5.13671875 8.90625 C-6.15234375 7.265625 -6.15234375 7.265625 -5.96484375 4.703125 C-4.73352651 1.00917328 -3.90947193 0.32942267 0 0 Z " fill="#090908" transform="translate(291.15234375,240.734375)"/>
<path d="M0 0 C1.36534481 0.0878292 2.72998104 0.18726366 4.09375 0.296875 C5.12822266 0.35681641 5.12822266 0.35681641 6.18359375 0.41796875 C11.33649554 0.78962054 11.33649554 0.78962054 13.59375 3.046875 C13.84375 6.046875 13.84375 6.046875 13.59375 9.046875 C11.59375 11.046875 11.59375 11.046875 9.16796875 11.3125 C8.21535156 11.30734375 7.26273437 11.3021875 6.28125 11.296875 C4.86392578 11.30460937 4.86392578 11.30460937 3.41796875 11.3125 C0.46765511 11.03501545 -1.72544144 10.27741008 -4.40625 9.046875 C-5.03125 5.671875 -5.03125 5.671875 -5.40625 2.046875 C-3.40625 0.046875 -3.40625 0.046875 0 0 Z " fill="#060605" transform="translate(279.40625,293.953125)"/>
<path d="M0 0 C1 1 1 1 1.375 3.8125 C1 7 1 7 -1.25 9.0625 C-2.1575 9.701875 -3.065 10.34125 -4 11 C-4.66 11.9075 -5.32 12.815 -6 13.75 C-8 16 -8 16 -10.625 16.4375 C-13 16 -13 16 -15 14 C-15.66717344 9.80633838 -15.23008829 8.32595841 -12.75 4.8125 C-6.38072855 -1.70152761 -6.38072855 -1.70152761 0 0 Z " fill="#080707" transform="translate(275,247)"/>
<path d="M0 0 C0.99 0.103125 1.98 0.20625 3 0.3125 C5.70308147 4.3671222 5.54301708 7.55126332 5 12.3125 C4.2062105 14.83151986 3.20764211 16.9475342 2 19.3125 C-0.875 19.4375 -0.875 19.4375 -4 19.3125 C-6 17.3125 -6 17.3125 -6.046875 13.90625 C-5.9590458 12.54090519 -5.85961134 11.17626896 -5.75 9.8125 C-5.71003906 9.12285156 -5.67007812 8.43320312 -5.62890625 7.72265625 C-5.11030525 0.53232346 -5.11030525 0.53232346 0 0 Z " fill="#080707" transform="translate(326,319.6875)"/>
<path d="M0 0 C5.45712231 0.20988932 8.71188226 1.68645448 13 5 C13.9590625 5.7115625 13.9590625 5.7115625 14.9375 6.4375 C16 8 16 8 15.8125 10.5625 C15 13 15 13 13 15 C7.16038329 15 2.16497181 11.91200173 -2 8 C-2.6875 4.75 -2.6875 4.75 -2 2 C-1.34 1.34 -0.68 0.68 0 0 Z " fill="#060505" transform="translate(306,297)"/>
<path d="M0 0 C2 2 2 2 2 4.375 C0.58787167 8.08183688 -1.60418144 9.09834161 -5 11 C-8.52059568 12.17353189 -11.306493 12.20146402 -15 12 C-17 10 -17 10 -17.4375 7.5625 C-17 5 -17 5 -14.9375 3.375 C-13.968125 2.92125 -12.99875 2.4675 -12 2 C-10.845 1.4225 -9.69 0.845 -8.5 0.25 C-4.9374972 -1.02232243 -3.48967855 -1.29616632 0 0 Z " fill="#050404" transform="translate(316,346)"/>
<path d="M0 0 C1.59134766 -0.02513672 1.59134766 -0.02513672 3.21484375 -0.05078125 C6.0625 0.3125 6.0625 0.3125 7.953125 1.63671875 C9.0625 3.3125 9.0625 3.3125 8.875 6.4375 C8.606875 7.38625 8.33875 8.335 8.0625 9.3125 C5.35687257 10.66531371 3.14356345 10.51859362 0.125 10.5625 C-0.93589844 10.58828125 -1.99679688 10.6140625 -3.08984375 10.640625 C-5.9375 10.3125 -5.9375 10.3125 -7.828125 8.95703125 C-8.9375 7.3125 -8.9375 7.3125 -8.75 4.75 C-7.11553416 -0.15339752 -4.73492827 0.01721792 0 0 Z " fill="#FEFEFD" transform="translate(142.9375,461.6875)"/>
<path d="M0 0 C3.06630664 0.8974556 4.73038808 1.73038808 7 4 C6.8125 6.5 6.8125 6.5 6 9 C2.79191085 11.1387261 1.72301503 11.47730962 -2 11 C-4 8 -4 8 -3.8125 4.9375 C-3 2 -3 2 0 0 Z " fill="#070706" transform="translate(13,238)"/>
<path d="M0 0 C2.9375 0.875 2.9375 0.875 4.9375 3.875 C4.39695946 8.41554054 4.39695946 8.41554054 2.9375 9.875 C-0.5 10.0625 -0.5 10.0625 -4.0625 9.875 C-6.0625 7.875 -6.0625 7.875 -6.375 5.4375 C-6.0625 2.875 -6.0625 2.875 -4.9375 1 C-3.0625 -0.125 -3.0625 -0.125 0 0 Z " fill="#020405" transform="translate(450.0625,119.125)"/>
<path d="M0 0 C3.0625 0.4375 3.0625 0.4375 4.9375 2.9375 C5.30875 3.7625 5.68 4.5875 6.0625 5.4375 C4.5775 7.9125 4.5775 7.9125 3.0625 10.4375 C-3.8125 9.5625 -3.8125 9.5625 -4.9375 8.4375 C-5.125 5.5 -5.125 5.5 -4.9375 2.4375 C-2.9375 0.4375 -2.9375 0.4375 0 0 Z " fill="#050504" transform="translate(303.9375,485.5625)"/>
<path d="M0 0 C2.5 0.25 2.5 0.25 4.5 2.25 C4.75 5.75 4.75 5.75 4.5 9.25 C2.5 11.25 2.5 11.25 0 11.5 C-2.5 11.25 -2.5 11.25 -4.5 9.25 C-4.75 5.75 -4.75 5.75 -4.5 2.25 C-2.5 0.25 -2.5 0.25 0 0 Z " fill="#040101" transform="translate(184.5,306.75)"/>
</svg>
