<?xml version="1.0" encoding="UTF-8"?>
<svg version="1.1" xmlns="http://www.w3.org/2000/svg" width="512" height="512">
<path d="M0 0 C2.4922314 0.00314829 4.98325687 -0.02035768 7.4753418 -0.0456543 C22.18263019 -0.10376333 36.68155967 1.65292679 50.88745117 5.56567383 C52.04531128 5.87927856 52.04531128 5.87927856 53.2265625 6.19921875 C99.70843271 19.25645446 140.61512775 50.59756519 164.63745117 92.50317383 C165.88312788 94.76499262 167.11268565 97.03577317 168.32495117 99.31567383 C168.92952148 100.44360352 169.5340918 101.5715332 170.15698242 102.73364258 C185.99773354 133.27626728 189.79716595 164.59392505 189.58281517 198.55129433 C189.55167403 203.58300604 189.54951354 208.61449333 189.55232239 213.64628601 C189.55660585 227.93687444 189.53287411 242.2271709 189.45898438 256.51757812 C189.41822419 264.44798957 189.40600894 272.37792021 189.42522126 280.30841893 C189.43574806 285.30650864 189.41138732 290.30279475 189.36084878 295.30062068 C189.33792354 298.40413251 189.34851662 301.50686297 189.36856842 304.61036682 C189.37118927 306.04427514 189.36019329 307.47828548 189.33430672 308.91196251 C189.02586715 316.74994587 189.02586715 316.74994587 192.07642555 323.6838131 C194.07672566 325.45387685 196.06935677 326.89373401 198.32495117 328.31567383 C222.2840805 349.09907173 249.9167447 384.19335351 252.56323242 417.29614258 C252.79598948 427.35369748 250.69250473 435.35623188 244.32495117 443.31567383 C236.85542507 451.05743779 228.7255822 455.11811325 217.91389465 455.37237549 C215.10639101 455.36162981 212.30012535 455.32240113 209.49291992 455.28051758 C207.37378537 455.27448823 205.2546411 455.27132244 203.13549805 455.27075195 C199.82315261 455.26903508 196.51440279 455.25321169 193.20263672 455.18896484 C180.444848 454.32910863 180.444848 454.32910863 168.83569336 458.41748047 C166.37452671 460.91665111 164.36490341 463.46948997 162.32495117 466.31567383 C160.07804635 468.35706729 157.67160725 470.11889108 155.19995117 471.87817383 C154.56653809 472.33305176 153.933125 472.78792969 153.28051758 473.2565918 C140.19769321 482.46826341 117.47890333 498.08943572 101.13745117 497.12817383 C98.32495117 496.31567383 98.32495117 496.31567383 97.03588867 494.71411133 C95.31577762 492.9893029 95.31577762 492.9893029 92.40698242 493.46020508 C91.32803711 493.68063477 90.2490918 493.90106445 89.13745117 494.12817383 C87.50743164 494.4472168 87.50743164 494.4472168 85.84448242 494.77270508 C85.01303711 494.95188477 84.1815918 495.13106445 83.32495117 495.31567383 C83.26307617 496.22317383 83.20120117 497.13067383 83.13745117 498.06567383 C82.10788165 502.18395192 80.81486314 502.99447657 77.32495117 505.31567383 C74.39672852 506.19702148 74.39672852 506.19702148 71.16088867 506.72973633 C69.95432617 506.9334082 68.74776367 507.13708008 67.50463867 507.34692383 C66.2490918 507.54286133 64.99354492 507.73879883 63.69995117 507.94067383 C61.8978418 508.24618164 61.8978418 508.24618164 60.05932617 508.55786133 C56.15476138 509.19903197 52.24495693 509.7788897 48.32495117 510.31567383 C47.62728638 510.41210175 46.92962158 510.50852966 46.21081543 510.60787964 C31.93227249 512.51327838 17.71294472 512.67565644 3.32495117 512.62817383 C1.56465576 512.6249411 1.56465576 512.6249411 -0.23120117 512.62164307 C-17.21344315 512.57156247 -33.91321941 512.3084766 -50.67504883 509.31567383 C-52.41818359 509.00968262 -52.41818359 509.00968262 -54.1965332 508.69750977 C-78.40859512 504.32252646 -101.40017375 497.82302883 -123.67504883 487.31567383 C-124.43543457 486.95747559 -125.19582031 486.59927734 -125.97924805 486.23022461 C-134.1883809 482.29063417 -141.79105887 477.79901787 -149.11254883 472.37817383 C-149.72654541 471.92466553 -150.34054199 471.47115723 -150.97314453 471.00390625 C-153.90939124 468.74401475 -156.33675199 466.79032615 -158.50732422 463.74487305 C-161.59696667 459.71540314 -164.12308654 456.88180816 -169.13235474 455.77053833 C-176.4786621 454.93259901 -183.85872128 455.15839294 -191.23754883 455.31567383 C-194.57298942 455.3441633 -197.9080846 455.3585533 -201.24363708 455.36499023 C-203.30956972 455.37354085 -205.37551552 455.3970474 -207.4410553 455.43823242 C-219.22596561 455.59246109 -228.73815049 453.31254954 -237.42504883 445.06567383 C-244.83279788 437.31308128 -247.05022793 429.64391923 -247.12817383 419.07128906 C-246.32686326 384.27977127 -216.67311184 351.28633073 -193.58911133 328.09692383 C-191.67504883 326.31567383 -191.67504883 326.31567383 -188.60075378 324.54693604 C-186.32109549 322.62680672 -185.72780405 321.57301251 -185.12166786 318.61629486 C-184.91463687 315.01020012 -184.90260723 311.44612339 -184.94970703 307.83422852 C-184.94644592 306.44549212 -184.94050682 305.05675982 -184.93209839 303.66804504 C-184.91969431 300.67764784 -184.92613274 297.68809358 -184.94716835 294.69774628 C-184.98037484 289.94358315 -184.97088732 285.19007238 -184.95585632 280.43585205 C-184.9369594 272.88666723 -184.94599936 265.3378182 -184.96717757 257.78864884 C-185.00467938 244.35052537 -185.00870625 230.91246091 -184.98232526 217.47431302 C-184.974361 212.7760764 -184.98296501 208.07825572 -185.00448364 203.38006711 C-185.12121126 174.22935348 -182.57666684 146.63622097 -172.48754883 119.06567383 C-172.2499585 118.41590576 -172.01236816 117.7661377 -171.76757812 117.09667969 C-170.54363509 113.94627857 -169.48495559 111.30334324 -166.67504883 109.31567383 C-165.56129883 109.27442383 -164.44754883 109.23317383 -163.30004883 109.19067383 C-159.66858562 108.69502193 -159.66858562 108.69502193 -158.07348633 106.39770508 C-155.36177435 102.09179629 -155.36177435 102.09179629 -154.98754883 97.21411133 C-155.21442383 96.58762695 -155.44129883 95.96114258 -155.67504883 95.31567383 C-156.84571756 91.73050084 -157.169092 89.38726042 -155.56567383 85.90942383 C-153.72919823 82.93608238 -151.74540632 80.13136001 -149.67504883 77.31567383 C-148.57870117 75.77266602 -148.57870117 75.77266602 -147.46020508 74.19848633 C-135.28204826 57.58423159 -119.8346368 42.6970332 -102.67504883 31.31567383 C-102.07982422 30.91880371 -101.48459961 30.52193359 -100.87133789 30.11303711 C-79.56929395 16.14706693 -55.71455033 6.78375317 -30.67504883 2.31567383 C-29.68915771 2.13689697 -28.7032666 1.95812012 -27.6875 1.77392578 C-18.43285519 0.26432195 -9.36071611 -0.02459272 0 0 Z " fill="#010202" transform="translate(253.675048828125,-0.315673828125)"/>
<path d="M0 0 C1.22894609 -0.00754134 2.45789219 -0.01508268 3.72407907 -0.02285254 C5.10555524 -0.02621863 6.48703168 -0.02947341 7.86850834 -0.03262901 C9.32242576 -0.03950213 10.77634127 -0.0467904 12.23025471 -0.05446088 C16.24483661 -0.07426544 20.25941833 -0.08760516 24.27402961 -0.09980941 C27.71289765 -0.11105657 31.15174572 -0.12599473 34.59059941 -0.14093252 C67.19615036 -0.28208547 99.80215228 -0.34736399 132.40795135 -0.4002533 C136.65449322 -0.40726249 140.90103487 -0.41438942 145.14757633 -0.42163658 C146.73080987 -0.42432952 146.73080987 -0.42432952 148.34602792 -0.42707686 C165.43686089 -0.45713085 182.52738605 -0.52188314 199.61805808 -0.60032304 C217.15818417 -0.68016057 234.69815094 -0.72593676 252.23845536 -0.73927915 C262.08929374 -0.74768795 271.93958709 -0.77144825 281.7902441 -0.83394814 C290.18196254 -0.88716148 298.57305935 -0.90990192 306.96494161 -0.89283796 C311.24609238 -0.88509191 315.52590686 -0.89187402 319.80684376 -0.93811989 C323.73033863 -0.98017032 327.65156889 -0.98026698 331.57513321 -0.9476897 C332.9905181 -0.94320895 334.40605274 -0.95381068 335.82117503 -0.98143978 C343.39106535 -1.12033993 348.27140766 -0.65946743 354.05127907 4.49139786 C355.51755084 6.02045832 356.96144689 7.57146086 358.3763361 9.14818764 C359.64456357 10.35841896 360.92121973 11.5599937 362.2122736 12.74584389 C381.83352422 31.76528218 403.08887621 59.90317097 406.8763361 87.83568764 C405.9812498 93.76563437 404.00884853 99.09984572 399.3763361 103.08568764 C394.37850213 106.52169849 391.09878361 107.441129 385.0320549 107.40266323 C384.28665228 107.40586971 383.54124965 107.40907619 382.77325907 107.41237983 C380.26153552 107.42071811 377.75004805 107.41474222 375.23832035 107.40888405 C373.42494321 107.411903 371.61156735 107.41579118 369.79819375 107.42047662 C364.80403116 107.43079862 359.80994002 107.42856413 354.81577146 107.42429602 C349.43391822 107.42183637 344.05208252 107.43083351 338.67023563 107.43833351 C328.12194531 107.45110415 317.57368042 107.45287123 307.02538367 107.45053325 C298.45335749 107.44875243 289.88133904 107.45049465 281.30931377 107.45475769 C280.09071785 107.45535288 278.87212192 107.45594807 277.61659885 107.45656129 C275.1412451 107.45777301 272.66589135 107.45898714 270.19053761 107.46020367 C246.95893747 107.47108849 223.72735184 107.46891236 200.49575088 107.46281882 C179.23231033 107.4576498 157.9689156 107.46890306 136.70548411 107.48791704 C114.88590989 107.50727913 93.06635737 107.51555424 71.24677449 107.51179379 C58.99129817 107.50987914 46.73586084 107.51239484 34.4803915 107.52650833 C24.04626856 107.53840241 13.61220859 107.53984928 3.17808481 107.52771816 C-2.14727686 107.52181538 -7.47252321 107.52076862 -12.79787731 107.53272057 C-17.67155525 107.5435318 -22.54502093 107.54053291 -27.41868874 107.52645888 C-29.1831503 107.52379877 -30.94762824 107.52621948 -32.71207378 107.53419475 C-35.10892594 107.54427767 -37.50503697 107.53589897 -39.90185928 107.52291775 C-40.58823879 107.53022709 -41.2746183 107.53753644 -41.98179719 107.54506728 C-47.55954649 107.48237403 -52.28576356 106.19207211 -56.54944515 102.46459389 C-57.00706234 101.88580482 -57.46467953 101.30701576 -57.9361639 100.71068764 C-58.40667171 100.1344767 -58.87717953 99.55826576 -59.36194515 98.96459389 C-62.99163812 93.73918451 -63.21195485 89.39374217 -62.6236639 83.14818764 C-61.91924406 80.0038112 -60.87095072 77.07873263 -59.6861639 74.08568764 C-59.37187435 73.26987221 -59.0575848 72.45405678 -58.73377132 71.61351967 C-48.52334954 45.86203384 -31.28098966 22.31277139 -10.2486639 4.27318764 C-5.31158329 0.02234217 -5.31158329 0.02234217 0 0 Z " fill="#A37BD0" transform="translate(84.62366390228271,331.8518123626709)"/>
<path d="M0 0 C21.43408796 -0.70422204 42.13852022 1.60492597 62.31835938 9.10302734 C63.4852832 9.52841797 63.4852832 9.52841797 64.67578125 9.96240234 C106.68227237 25.44020391 142.05395568 56.06891195 161.5625 96.69384766 C172.94218457 121.45138188 178.69861403 146.78221326 178.54541016 174.04638672 C178.54484384 175.45759574 178.54516689 176.86880535 178.54629517 178.28001404 C178.54686108 182.05379332 178.53523261 185.82744137 178.52114725 189.60119057 C178.50851055 193.56627331 178.50745933 197.53136018 178.50509644 201.49645996 C178.49891922 208.97934953 178.48256017 216.46217955 178.46239746 223.94504309 C178.43992033 232.47486857 178.42901554 241.00469714 178.41900659 249.53454494 C178.39818989 267.05741286 178.36156161 284.58019933 178.31835938 302.10302734 C161.81835938 302.10302734 145.31835938 302.10302734 128.31835938 302.10302734 C128.29257812 294.87654297 128.26679688 287.65005859 128.24023438 280.20458984 C128.21503128 275.59257654 128.18867162 270.98062657 128.15820312 266.36865234 C128.11008183 259.06819524 128.06595742 251.76788499 128.04736328 244.46728516 C128.03208129 238.57319116 127.99743402 232.67948462 127.95005035 226.78556442 C127.93535462 224.55086026 127.92732525 222.31610074 127.92647552 220.08134842 C127.90049339 185.97328464 117.51988911 154.36341092 93.13085938 129.72802734 C92.20273437 128.86177734 91.27460938 127.99552734 90.31835938 127.10302734 C93.01201192 119.74782064 97.17029824 110.50811054 104.18164062 106.44287109 C106.87486293 105.54270071 109.57179273 104.81818767 112.31835938 104.10302734 C119.0781537 99.84141788 122.82018435 93.45248196 124.80273438 85.83349609 C126.76328102 75.45151044 125.10206078 67.96452994 119.31835938 59.10302734 C114.91039643 53.15066863 109.55087581 49.72842 102.31835938 48.10302734 C91.42958948 46.96486928 83.1168358 48.2738448 74.00585938 54.29052734 C70.59255254 57.86259264 68.42032224 61.65539578 66.31835938 66.10302734 C65.94195312 66.88033203 65.56554687 67.65763672 65.17773438 68.45849609 C64.1141947 71.73129773 64.25878483 74.47882104 64.31835938 77.91552734 C63.86460547 87.70502643 58.9315291 94.35053703 53.31835938 102.10302734 C52.70992187 101.93287109 52.10148438 101.76271484 51.47460938 101.58740234 C45.68853677 99.98772345 39.88664569 98.45564432 34.06835938 96.97802734 C33.40771484 96.80754883 32.74707031 96.63707031 32.06640625 96.46142578 C7.76777478 90.34420274 -16.39819847 94.36227719 -39.68164062 102.10302734 C-41.4310579 99.66072289 -43.1600261 97.20812015 -44.86132812 94.73193359 C-46.21258624 92.78043851 -47.62038253 90.86784063 -49.05664062 88.97802734 C-51.13903689 85.30987325 -50.98413595 81.40014523 -51.11914062 77.29052734 C-51.47261848 67.57766734 -53.93472613 61.40793877 -60.99414062 54.66552734 C-69.5262892 47.77578257 -77.9516087 47.07674025 -88.70361328 47.85742188 C-96.63460219 48.84218796 -102.16560459 53.71928301 -107.05273438 59.73193359 C-112.348991 67.44135271 -112.60557301 75.96751611 -111.68164062 85.10302734 C-109.86127043 92.67247629 -106.07557786 99.20791969 -99.50585938 103.53662109 C-96.31219019 105.34547238 -93.1112539 106.92858516 -89.70898438 108.31005859 C-85.81725634 110.61496591 -84.07375116 113.24659018 -81.74414062 117.04052734 C-81.12829102 117.97155273 -81.12829102 117.97155273 -80.5 118.92138672 C-77.692383 123.36717486 -77.692383 123.36717486 -77.65039062 126.24365234 C-79.11177797 128.87857802 -81.00541031 130.76882152 -83.11914062 132.91552734 C-96.13801529 146.74587658 -105.44440915 164.1153269 -110.61914062 182.35302734 C-110.90011597 183.341698 -110.90011597 183.341698 -111.18676758 184.3503418 C-114.95069147 198.89749412 -115.0119504 213.65154334 -115.09570312 228.56787109 C-115.11445345 230.69878354 -115.1340296 232.82968886 -115.15438843 234.96058655 C-115.2053079 240.51866418 -115.24514643 246.07676579 -115.28253174 251.63494873 C-115.32993364 258.33085747 -115.39135622 265.02665106 -115.45037842 271.72246552 C-115.53809955 281.84927194 -115.60821481 291.97606181 -115.68164062 302.10302734 C-131.85164063 302.10302734 -148.02164063 302.10302734 -164.68164062 302.10302734 C-164.79512102 282.9772155 -164.88696635 263.85168213 -164.94070148 244.72561741 C-164.96633031 235.84226368 -165.00118202 226.95913613 -165.05883789 218.07592773 C-165.10914822 210.32067772 -165.14104247 202.5655917 -165.1520831 194.81018299 C-165.15852261 190.71513739 -165.17332358 186.6205604 -165.21029091 182.52566719 C-165.4402139 155.986935 -162.9054557 130.94704549 -152.68164062 106.10302734 C-152.18664062 105.60802734 -152.18664062 105.60802734 -151.68164062 105.10302734 C-151.27134847 100.83598893 -151.23250166 98.7627002 -153.68164062 95.16552734 C-154.34164062 94.48490234 -155.00164062 93.80427734 -155.68164062 93.10302734 C-153.70164062 89.47302734 -151.72164062 85.84302734 -149.68164062 82.10302734 C-146.703125 82.15185547 -146.703125 82.15185547 -143.72460938 82.20068359 C-141.47858601 82.18565951 -141.47858601 82.18565951 -138.68164062 81.10302734 C-137.99102442 79.44614126 -137.32944945 77.77711395 -136.68164062 76.10302734 C-130.49862794 67.08865464 -123.21431238 58.9938809 -115.68164062 51.10302734 C-114.86953125 50.23806641 -114.05742187 49.37310547 -113.22070312 48.48193359 C-90.41509114 24.82756906 -59.48692049 9.92583707 -27.68164062 3.10302734 C-26.67746094 2.88517578 -25.67328125 2.66732422 -24.63867188 2.44287109 C-16.47323078 0.81460736 -8.30158694 0.31894298 0 0 Z " fill="#7191DD" transform="translate(249.681640625,14.89697265625)"/>
<path d="M0 0 C22.05951376 18.37696932 34.30714573 41.34822866 39.875 69.1875 C39.875 102.8475 39.875 136.5075 39.875 171.1875 C-30.415 171.1875 -100.705 171.1875 -173.125 171.1875 C-173.125 59.09944301 -173.125 59.09944301 -165.9375 42.5 C-165.64270752 41.80559814 -165.34791504 41.11119629 -165.04418945 40.39575195 C-158.48199743 25.51227214 -148.02399146 11.1419176 -135.125 1.1875 C-134.13113281 0.40761719 -133.13726562 -0.37226563 -132.11328125 -1.17578125 C-92.64845746 -31.23654007 -39.00445039 -29.92372678 0 0 Z " fill="#5FD8A6" transform="translate(323.125,145.8125)"/>
<path d="M0 0 C97.68 0 195.36 0 296 0 C283.30339747 12.69660253 267.03661844 20.14192208 250.42431641 26.43725586 C249.61526855 26.74542236 248.8062207 27.05358887 247.97265625 27.37109375 C247.25343994 27.63849365 246.53422363 27.90589355 245.79321289 28.18139648 C243.80347659 28.96345236 243.80347659 28.96345236 242 31 C241.59952556 33.32275177 241.2602896 35.65739357 241 38 C239.58603098 38.50757862 238.16868271 39.00574925 236.75 39.5 C235.96109375 39.7784375 235.1721875 40.056875 234.359375 40.34375 C232 41 232 41 228 41 C227.278125 40.154375 226.55625 39.30875 225.8125 38.4375 C223.12790939 35.53814891 223.12790939 35.53814891 219.10546875 36.2265625 C217.40136324 36.46882878 215.69964491 36.72819913 214 37 C213.04456299 37.14348877 212.08912598 37.28697754 211.10473633 37.43481445 C206.83187967 38.08478828 202.56434349 38.76681565 198.296875 39.45117188 C194.86755084 39.99059308 191.43585138 40.50380302 188 41 C187.35756348 41.09287292 186.71512695 41.18574585 186.05322266 41.28143311 C174.67483681 42.88543312 163.48213916 43.32642704 152 43.25 C151.14972229 43.24656586 150.29944458 43.24313171 149.42340088 43.23959351 C97.95003222 42.99708412 41.28615034 34.33873478 0 1 C0 0.67 0 0.34 0 0 Z " fill="#F4E176" transform="translate(108,454)"/>
<path d="M0 0 C0.33 0 0.66 0 1 0 C1.22042969 1.34191406 1.22042969 1.34191406 1.4453125 2.7109375 C3.60287958 14.34196006 6.94620539 22.4829217 16.64453125 29.58203125 C18.92021369 30.95196944 20.98876648 31.73418737 23.5 32.5625 C28.26284631 34.45585763 30.42984829 37.83615985 33.125 42 C33.52783203 42.61818604 33.93066406 43.23637207 34.34570312 43.87329102 C35.81235631 46.29307339 36.99325124 48.26168591 37.01953125 51.13671875 C35.57192019 53.78235276 33.67794367 55.66405409 31.5625 57.8125 C18.54362534 71.64284924 9.23723147 89.01229956 4.0625 107.25 C3.87518311 107.90911377 3.68786621 108.56822754 3.49487305 109.24731445 C-0.26905085 123.79446677 -0.33030977 138.54851599 -0.4140625 153.46484375 C-0.43281282 155.5957562 -0.45238898 157.72666152 -0.4727478 159.8575592 C-0.52366728 165.41563684 -0.56350581 170.97373844 -0.60089111 176.53192139 C-0.64118535 182.22381319 -0.69216057 187.91560877 -0.7421875 193.60742188 C-0.83846984 204.73821976 -0.92203492 215.86905873 -1 227 C-9.91 227 -18.82 227 -28 227 C-28.09077987 208.50883937 -28.16425823 190.01786303 -28.20724869 171.52653503 C-28.22775275 162.93801822 -28.25563635 154.3496511 -28.30175781 145.76123047 C-28.34200263 138.26345327 -28.36752075 130.76578461 -28.37635398 123.26790237 C-28.38150607 119.30877464 -28.39335086 115.34995707 -28.42292023 111.39093018 C-28.71045201 71.30486858 -21.27332883 35.87778622 -1 1 C-0.67 0.67 -0.34 0.34 0 0 Z " fill="#7191DE" transform="translate(135,90)"/>
<path d="M0 0 C-0.99257812 0.4846875 -1.98515625 0.969375 -3.0078125 1.46875 C-20.53102199 10.0847987 -36.64362466 19.59658351 -51.5625 32.25 C-52.42004883 32.97461426 -52.42004883 32.97461426 -53.29492188 33.71386719 C-56.01277896 36.06902092 -58.42190039 38.4296727 -60.6640625 41.24609375 C-62.81837585 43.78587788 -63.79576655 44.72647596 -66.8125 45.8125 C-72.77431482 48.54499846 -77.14460806 53.39798047 -80.1328125 59.19921875 C-82.25701143 64.94280518 -82.67065465 70.92414617 -83 77 C-83.33 77 -83.66 77 -84 77 C-84.33 75.02 -84.66 73.04 -85 71 C-101.52959814 101.44533472 -112.05565808 131.19409855 -112.20532227 166.21875 C-112.21491564 167.64848606 -112.22492654 169.07821937 -112.23532104 170.50794983 C-112.26221824 174.36890551 -112.28330942 178.22987323 -112.30332303 182.0908699 C-112.32527693 186.13343719 -112.35261936 190.17596804 -112.37937927 194.21850586 C-112.42917957 201.86452678 -112.47416507 209.51056806 -112.51740164 217.15662861 C-112.56688263 225.86525775 -112.62176028 234.5738503 -112.67708123 243.282444 C-112.79070674 261.18826218 -112.89739624 279.0941155 -113 297 C-120.26 297 -127.52 297 -135 297 C-135.11644167 277.87425697 -135.20532583 258.74861622 -135.25906086 239.62259007 C-135.28468968 230.73923634 -135.3195414 221.85610878 -135.37719727 212.97290039 C-135.42750759 205.21765037 -135.45940185 197.46256436 -135.47044247 189.70715564 C-135.47688198 185.61211005 -135.49168296 181.51753306 -135.52865028 177.42263985 C-135.75857327 150.88390766 -133.22381507 125.84401815 -123 101 C-122.505 100.505 -122.505 100.505 -122 100 C-121.58970784 95.73296158 -121.55086104 93.65967285 -124 90.0625 C-124.66 89.381875 -125.32 88.70125 -126 88 C-124.02 84.37 -122.04 80.74 -120 77 C-117.02148438 77.04882812 -117.02148438 77.04882812 -114.04296875 77.09765625 C-111.79694539 77.08263217 -111.79694539 77.08263217 -109 76 C-108.3093838 74.34311392 -107.64780882 72.6740866 -107 71 C-100.81698731 61.9856273 -93.53267176 53.89085356 -86 46 C-85.18789062 45.13503906 -84.37578125 44.27007812 -83.5390625 43.37890625 C-65.23327968 24.39184025 -40.16894671 9.70064392 -15 2 C-14.02417969 1.69320313 -13.04835938 1.38640625 -12.04296875 1.0703125 C-3.91799252 -1.33629907 -3.91799252 -1.33629907 0 0 Z " fill="#4576D2" transform="translate(220,20)"/>
<path d="M0 0 C-0.95519531 0.4846875 -1.91039062 0.969375 -2.89453125 1.46875 C-29.95132531 15.40645966 -52.41105278 37.31342888 -62.25390625 66.75 C-63.23121054 70.1543367 -64.13037841 73.56684935 -65 77 C-65.51626953 78.62615234 -65.51626953 78.62615234 -66.04296875 80.28515625 C-68.05293361 88.0871015 -68.15289216 96.1110552 -68.20532227 104.13134766 C-68.22017166 105.56731293 -68.22017166 105.56731293 -68.23532104 107.0322876 C-68.26661189 110.15952176 -68.29156363 113.28677105 -68.31640625 116.4140625 C-68.33700386 118.59695809 -68.35800102 120.77984995 -68.37937927 122.96273804 C-68.43431024 128.6803686 -68.48384612 134.39803341 -68.53222656 140.11572266 C-68.58265447 145.96129366 -68.6382289 151.80681554 -68.69335938 157.65234375 C-68.80058603 169.10152191 -68.90163216 180.5507423 -69 192 C-76.26 192 -83.52 192 -91 192 C-91.09077796 178.86408058 -91.16398977 165.72837338 -91.20724869 152.59220982 C-91.22802262 146.49095969 -91.25615195 140.38993741 -91.30175781 134.28881836 C-91.34558164 128.38840977 -91.36921352 122.48821876 -91.37950897 116.58765984 C-91.38683529 114.34926878 -91.40113947 112.11088809 -91.42292023 109.87259102 C-91.57526435 93.55098462 -90.37718772 78.4735657 -83.8125 63.3125 C-83.51770752 62.61809814 -83.22291504 61.92369629 -82.91918945 61.20825195 C-76.35699743 46.32477214 -65.89899146 31.9544176 -53 22 C-52.00613281 21.22011719 -51.01226562 20.44023437 -49.98828125 19.63671875 C-38.60446079 10.96554659 -14.6825042 -4.89416807 0 0 Z " fill="#00B560" transform="translate(241,125)"/>
<path d="M0 0 C7.46050018 4.47377967 13.04564423 10.26333186 16.3125 18.38671875 C18.8397184 28.69251848 17.25795704 37.06958697 12.3125 46.38671875 C8.09254737 53.32556704 0.97308384 57.28399501 -6.6875 59.38671875 C-17.66338531 60.47741865 -26.12283859 59.75052746 -34.9296875 52.5546875 C-41.13059737 46.79669977 -45.16408472 40.23867315 -45.92578125 31.72265625 C-46.16690901 22.1029276 -44.24371032 15.19436454 -38.1875 7.63671875 C-27.97185852 -2.97473172 -13.5763456 -6.363912 0 0 Z " fill="#030203" transform="translate(408.6875,357.61328125)"/>
<path d="M0 0 C8.04180708 4.74116974 13.24615283 11.08627826 16.55859375 19.76171875 C18.26454133 28.60162893 17.20912281 36.15379155 13.24609375 44.32421875 C7.84346461 52.06197247 2.14698824 56.35725392 -6.75390625 59.32421875 C-17.60163733 60.12629341 -26.70172187 59.45132623 -35.56640625 52.63671875 C-41.45335921 47.15241116 -45.09122542 39.23060564 -46.16015625 31.31640625 C-46.4685 21.06397672 -43.43393952 13.06707601 -36.56640625 5.38671875 C-26.36999635 -3.69654597 -12.43473813 -5.81921242 0 0 Z " fill="#030203" transform="translate(270.75390625,357.67578125)"/>
<path d="M0 0 C7.90143872 4.74877786 13.07692167 11.23076502 16 20 C16.85992702 31.63016054 15.89160209 40.54608164 8.375 49.8125 C1.42608956 56.96429834 -5.07863723 59.48335542 -14.9375 59.6875 C-23.97069778 59.58429002 -30.28472144 57.22779675 -37.078125 51.13671875 C-44.21888514 43.65092188 -46.62876325 36.21571924 -46.54541016 25.9597168 C-46.20222136 18.2652061 -43.55525148 13.03867744 -38.6875 7.25 C-27.29888758 -2.28465226 -14.38559655 -7.41798717 0 0 Z " fill="#030203" transform="translate(133,358)"/>
<path d="M0 0 C1.61248238 0.00056958 1.61248238 0.00056958 3.25754017 0.00115067 C5.11020979 -0.00183591 5.11020979 -0.00183591 7.00030708 -0.00488281 C8.38867379 -0.00202922 9.77704031 0.00091639 11.16540664 0.00394398 C12.62644922 0.00350841 14.08749172 0.00263376 15.5485338 0.00135481 C19.58244146 -0.00089288 23.61632282 0.00313487 27.65022713 0.00813287 C31.99312675 0.01243327 36.33602478 0.01099124 40.67892593 0.0102306 C48.20963085 0.0097051 55.74032714 0.01285458 63.27102989 0.01846844 C74.1592922 0.02657997 85.04755032 0.0291983 95.93581533 0.03045643 C113.59937918 0.0326475 131.26293843 0.03930906 148.92649978 0.04875904 C166.08958549 0.05793175 183.25266994 0.06501327 200.4157576 0.06926686 C201.47289131 0.06952958 202.53002502 0.0697923 203.61919308 0.07006299 C208.92228367 0.07136798 214.22537426 0.0726317 219.52846485 0.07387489 C263.55429414 0.08424921 307.58011841 0.101869 351.60594314 0.1241985 C351.60594314 0.4541985 351.60594314 0.7841985 351.60594314 1.1241985 C350.90143258 1.11985922 350.19692202 1.11551994 349.47106266 1.11104918 C307.6677474 0.85573952 265.86489837 0.68955287 224.06081093 0.63827017 C219.03557082 0.63202882 214.010332 0.62504677 208.98509353 0.6176067 C207.98470625 0.61613804 206.98431896 0.61466937 205.95361691 0.61315621 C189.77898211 0.58764604 173.6051954 0.5022034 157.43092359 0.39440637 C140.82066548 0.2850454 124.21113607 0.24056633 107.60052049 0.25566113 C97.35939701 0.26294232 87.12102645 0.22029943 76.88045495 0.112714 C69.84728328 0.04368507 62.81578822 0.03797916 55.78241671 0.08084487 C51.72994466 0.1037106 47.68244066 0.09983835 43.63057464 0.02033001 C24.21083415 -0.73684049 24.21083415 -0.73684049 7.57985866 8.0265528 C4.27770246 11.52755707 1.41458094 15.22397192 -1.39405686 19.1241985 C-2.38277688 20.34458052 -3.38177797 21.55674493 -4.39347607 22.75814682 C-14.68270645 35.11727085 -22.77395801 49.51371154 -29.39405686 64.1241985 C-29.69892014 64.78951588 -30.00378342 65.45483326 -30.31788498 66.14031178 C-34.88078973 76.32800676 -37.64848378 86.21169737 -34.80811936 97.44060475 C-33.43000492 100.8710724 -31.2954812 103.96048404 -29.39405686 107.1241985 C-45.9722632 107.70027516 -45.9722632 107.70027516 -51.39405686 104.1241985 C-55.22615584 100.41744854 -58.97218031 96.31673116 -59.69264084 90.86467701 C-59.71806442 84.7078311 -58.71642046 79.77063562 -56.45655686 74.0616985 C-56.14226731 73.24588307 -55.82797776 72.43006764 -55.50416428 71.58953053 C-45.29374249 45.8380447 -28.05138262 22.28878225 -7.01905686 4.2491985 C-2.21749951 0.11503908 -2.21749951 0.11503908 0 0 Z " fill="#8557BB" transform="translate(81.39405685663223,331.8758015036583)"/>
<path d="M0 0 C97.68 0 195.36 0 296 0 C294 2 294 2 292.06523931 2.24839699 C290.86798111 2.24725783 290.86798111 2.24725783 289.64653587 2.24609566 C288.72642074 2.25007775 287.80630561 2.25405985 286.8583082 2.25816262 C285.84081448 2.25233693 284.82332076 2.24651125 283.7749939 2.24050903 C282.69931078 2.24221788 281.62362766 2.24392673 280.51534808 2.24568737 C276.88695606 2.24899903 273.25874627 2.23795099 269.63037109 2.22705078 C267.03897608 2.22648703 264.44758074 2.22680252 261.85618591 2.22793579 C256.26477524 2.22898602 250.67341114 2.22269509 245.08201218 2.21146011 C236.99773085 2.19522666 228.91347212 2.18999932 220.82917626 2.18748413 C207.71390421 2.18310363 194.598657 2.16978494 181.48339844 2.15087891 C168.74088668 2.13252927 155.99838167 2.11836828 143.25585938 2.10986328 C142.07827779 2.10907511 142.07827779 2.10907511 140.87690668 2.10827102 C136.93863725 2.105661 133.00036777 2.10313357 129.06209826 2.10064721 C96.37471409 2.07990368 63.68736037 2.04466852 31 2 C32.76319328 3.44970902 34.52738162 4.89820787 36.29199219 6.34619141 C37.27431824 7.15295319 38.25664429 7.95971497 39.26873779 8.79092407 C56.31635222 22.57922845 77.43735182 30.96982974 98 38 C93.54035616 39.35501699 89.71795327 38.43116791 85.25 37.5 C83.93793579 37.22869263 83.93793579 37.22869263 82.59936523 36.9519043 C53.02177932 30.59507819 23.93051187 19.91579752 0 1 C0 0.67 0 0.34 0 0 Z " fill="#E4BA62" transform="translate(108,454)"/>
<path d="M0 0 C3.80692243 3.06668751 7.93335082 6.92632061 8.48828125 11.984375 C8.65659218 17.83096537 8.27425335 21.24442863 4.25 25.8125 C-0.99480034 30.43291934 -4.1001235 31.18100345 -10.9921875 31.08203125 C-15.74430165 30.6175895 -18.19598629 28.64342573 -21.21875 25.08203125 C-24.2898744 20.80804979 -25.50308291 17.18531771 -25.16796875 11.9140625 C-23.96828036 5.88198443 -19.43016749 2.29773111 -14.75 -1.1875 C-9.7765318 -2.84532273 -4.78011924 -2.0641424 0 0 Z " fill="#E1E1E1" transform="translate(352.75,78.1875)"/>
<path d="M0 0 C4.8846525 2.26787438 7.73212562 5.1153475 10 10 C10.84298361 15.6645347 11.11623154 21.13247145 7.875 26.0625 C4.58081204 29.81421406 1.43850633 31.67166859 -3.58203125 32.34765625 C-9.23746749 32.64938267 -13.26235501 32.23843452 -17.62890625 28.46875 C-22.00304033 23.78306791 -22.6491829 18.96913484 -22.48828125 12.76171875 C-21.68705998 8.23001126 -19.35794661 5.07298325 -16 2 C-11.17573371 -1.13064089 -5.52589009 -0.59258875 0 0 Z " fill="#DEDEDE" transform="translate(174,77)"/>
<path d="M0 0 C5.47334163 2.36206949 8.55694613 5.88648525 10.8046875 11.38671875 C11.74296204 17.22487146 10.04353921 21.59613423 6.8046875 26.38671875 C1.48548394 31.3259792 -2.10383815 31.7451694 -9.2109375 31.66015625 C-13.27285023 31.28799147 -15.27991846 30.22922794 -18.1953125 27.38671875 C-21.87236467 22.54849221 -22.84917102 18.82052096 -22.58203125 12.75 C-21.78909608 7.90428507 -19.13761289 5.21684052 -15.5703125 2.07421875 C-10.6850997 -1.3968535 -5.76573074 -1.61071126 0 0 Z " fill="#F0DE74" transform="translate(262.1953125,370.61328125)"/>
<path d="M0 0 C4.22719163 2.98711143 7.13017977 5.83356959 8.7421875 10.87109375 C9.50433273 16.29321268 8.75417523 20.19731968 5.7421875 24.87109375 C2.34763919 28.6899606 0.23702531 30.54584082 -4.89453125 31.21484375 C-10.55793264 31.50490272 -14.40500833 31.47622787 -18.8828125 27.74609375 C-22.88653162 23.60947109 -23.96269626 20.14770477 -24.6953125 14.49609375 C-24.01565527 8.86464809 -21.29836497 4.78797638 -17.1953125 0.93359375 C-12.08793466 -1.86722635 -5.26784038 -2.63392019 0 0 Z " fill="#F1DE75" transform="translate(402.2578125,371.12890625)"/>
<path d="M0 0 C5.28859743 1.76286581 9.39434905 5.04836778 12 10 C12.91493958 15.12514938 12.50668171 19.5332898 10.8125 24.4375 C8.401111 27.84670514 5.73230245 30.13384878 2 32 C-3.50638223 32.50282832 -8.40239776 32.71321529 -13.5 30.4375 C-18.11462539 25.93824024 -20.21155485 22.33136748 -20.5 15.9375 C-20.29435301 11.26434944 -19.14347935 8.56827385 -16 5 C-10.57816818 0.22362435 -7.09579335 -0.63634018 0 0 Z " fill="#F1DF75" transform="translate(122,370)"/>
<path d="M0 0 C1.66015625 1.12890625 1.66015625 1.12890625 3.375 2.5 C5.98419554 4.52169456 7.74217172 5.417038 11.0625 5.5625 C15.71603644 4.89770908 18.67009966 3.32990034 22 0 C25.71441739 -0.42209289 27.58999427 -0.23174237 30.875 1.625 C33 4 33 4 33.625 6.875 C32.59877167 12.00614167 30.0206584 14.54466758 25.93359375 17.48828125 C18.91245715 21.5945473 11.98341755 22.1658028 4 21 C-1.50580317 19.061894 -6.52106847 15.7133911 -10 11 C-10.63534983 6.97611774 -10.64970619 4.97455929 -8.375 1.5625 C-5.20262259 -0.5245904 -3.74576893 -0.66101805 0 0 Z " fill="#010403" transform="translate(245,190)"/>
<path d="M0 0 C4.21626403 1.2799373 5.17513034 2.37978621 7.5 6.0625 C8.03125 9.4375 8.03125 9.4375 8 13.0625 C8.0103125 14.25875 8.020625 15.455 8.03125 16.6875 C7.41073629 20.6295871 6.31308058 22.28005187 3.5 25.0625 C0.5625 26.125 0.5625 26.125 -2.5 26.0625 C-5.15625 24.62109375 -5.15625 24.62109375 -7.5 22.0625 C-8.21826837 19.04652695 -8.15370268 16.14860153 -8.0625 13.0625 C-8.07345703 12.25554687 -8.08441406 11.44859375 -8.09570312 10.6171875 C-8.04824652 6.782694 -7.94445367 4.68855839 -5.68359375 1.50390625 C-3.5 0.0625 -3.5 0.0625 0 0 Z " fill="#030806" transform="translate(314.5,179.9375)"/>
<path d="M0 0 C3.81115616 1.19980842 4.5182637 1.63001717 6.375 5.0625 C6.69488233 7.82904989 6.8399944 10.30306211 6.8125 13.0625 C6.83248047 13.7740625 6.85246094 14.485625 6.87304688 15.21875 C6.86980766 18.69119261 6.63874664 20.70113285 4.5703125 23.53515625 C1.39415376 25.7449037 -0.85212356 25.54268427 -4.625 25.0625 C-6.72858381 23.51987187 -7.46554159 22.38141683 -8.625 20.0625 C-8.82853342 17.60556092 -8.94840647 15.21007347 -9 12.75 C-9.04898438 11.43386719 -9.09796875 10.11773437 -9.1484375 8.76171875 C-8.625 5.0625 -8.625 5.0625 -6.328125 2.0859375 C-3.625 0.0625 -3.625 0.0625 0 0 Z " fill="#020403" transform="translate(199.625,179.9375)"/>
<path d="M0 0 C2.18359375 1.53515625 2.18359375 1.53515625 4 4 C4.42918602 6.81486833 4.60594812 9.13381854 4.5625 11.9375 C4.58634766 12.64068359 4.61019531 13.34386719 4.63476562 14.06835938 C4.62361828 18.03309748 4.1350716 19.82913442 1.65625 22.96484375 C-1 25 -1 25 -4.0625 25.625 C-7 25 -7 25 -9.15234375 22.96484375 C-11.4684398 19.24831753 -11.5933834 16.18255384 -11.5 11.9375 C-11.51546875 11.23044922 -11.5309375 10.52339844 -11.546875 9.79492188 C-11.52093439 6.34157759 -11.25297995 4.34403092 -9.1875 1.53515625 C-5.98189529 -0.71449134 -3.81884158 -0.5455488 0 0 Z " fill="#040404" transform="translate(348,80)"/>
<path d="M0 0 C2.15625 0.96484375 2.15625 0.96484375 4 3 C4.61129033 5.9847186 4.55761104 8.90091834 4.5 11.9375 C4.51546875 12.74896484 4.5309375 13.56042969 4.546875 14.39648438 C4.52150446 18.26232039 4.47522496 20.34656568 2.15625 23.53515625 C-0.79819945 25.54225506 -2.49983023 25.58336163 -6 25 C-8.46674699 23.32422079 -9.8022684 22.01614876 -10.3828125 19.03271484 C-10.53930366 16.65497579 -10.54541244 14.31976078 -10.5 11.9375 C-10.51546875 11.12216797 -10.5309375 10.30683594 -10.546875 9.46679688 C-10.50805165 3.5607943 -10.50805165 3.5607943 -8.15625 0.96484375 C-5.22097559 -0.3485852 -3.18317089 -0.39789636 0 0 Z " fill="#030303" transform="translate(171,80)"/>
<path d="M0 0 C4.875 4.5 4.875 4.5 6 9 C2.7 11.31 -0.6 13.62 -4 16 C-8.18199633 13.90900184 -8.99659367 13.00681267 -11 9 C-11 8.34 -11 7.68 -11 7 C-10.37351563 6.66226563 -9.74703125 6.32453125 -9.1015625 5.9765625 C-8.28429687 5.53054687 -7.46703125 5.08453125 -6.625 4.625 C-5.40683594 3.96371094 -5.40683594 3.96371094 -4.1640625 3.2890625 C-1.89185698 2.0556107 -1.89185698 2.0556107 0 0 Z " fill="#00AD5C" transform="translate(190,115)"/>
<path d="M0 0 C2.89511173 1.44755587 5.53127396 2.90314017 8.25 4.625 C8.95640625 5.07101563 9.6628125 5.51703125 10.390625 5.9765625 C10.92171875 6.31429687 11.4528125 6.65203125 12 7 C11.23596585 10.47153381 9.91813089 12.99770818 8 16 C3.1962523 14.34871173 -0.75181852 11.73611689 -5 9 C-3.35 6.03 -1.7 3.06 0 0 Z " fill="#00AD5C" transform="translate(321,115)"/>
</svg>
