<?xml version="1.0" encoding="UTF-8"?>
<svg version="1.1" xmlns="http://www.w3.org/2000/svg" width="512" height="512">
<path d="M0 0 C5.46147104 0.07249238 10.92214821 0.09176559 16.38404894 0.09755552 C22.42366174 0.10409609 28.46280231 0.1343557 34.502285 0.17754292 C37.0185866 0.19509377 39.53491977 0.20865478 42.05126572 0.21786427 C55.12059816 0.28625401 67.16341887 0.47345643 79.55002975 4.94643712 C80.46499222 5.26311345 81.37995468 5.57978978 82.32264328 5.90606236 C84.81147329 6.80707554 87.26042071 7.77263223 89.710186 8.77456212 C90.58799225 9.12726171 91.46579849 9.47996129 92.37020493 9.84334874 C94.20088647 10.58181426 96.02979792 11.32468302 97.85691452 12.0719254 C100.60655286 13.19399807 103.36379183 14.29558651 106.12229538 15.39565587 C120.8016195 21.31353868 134.27547915 27.50937047 145.55002975 38.94643712 C146.48395554 39.86489415 146.48395554 39.86489415 147.4367485 40.80190587 C163.96523515 58.22181651 167.42011741 83.85911383 172.96873093 106.28139806 C173.80364673 109.64783212 174.64712758 113.01203594 175.491436 116.37612462 C175.73946472 117.38988164 175.98749344 118.40363866 176.24303818 119.44811559 C178.36514107 127.87859145 180.80009408 136.24835787 186.11252975 143.25893712 C186.80604538 144.1741715 187.499561 145.08940587 188.21409225 146.03237462 C190.75165951 149.19796856 193.35320025 152.29888423 195.98752975 155.38393712 C216.48646108 179.39424309 222.1928318 198.8148892 222.116436 229.84487462 C222.12168167 232.450722 222.12796157 235.05656747 222.13521957 237.66241002 C222.14700239 243.10384105 222.14145764 248.54505825 222.12644577 253.98647618 C222.10954101 260.23000697 222.12536021 266.47283764 222.15766865 272.71629202 C222.18783087 278.78025969 222.18949883 284.84391273 222.18017006 290.90794301 C222.17935666 293.46170135 222.18610152 296.01547491 222.20094109 298.56919026 C222.27128253 312.86301137 221.81295303 325.55636106 216.55002975 338.94643712 C215.98532219 340.40554509 215.98532219 340.40554509 215.40920639 341.89412999 C214.37821696 344.4008884 213.27196113 346.8504008 212.116436 349.30190587 C211.51580589 350.61437039 211.51580589 350.61437039 210.90304184 351.95334935 C209.65026355 354.68530981 208.38215096 357.40977003 207.11252975 360.13393712 C206.26962776 361.96090162 205.42782621 363.78837423 204.58713913 365.616359 C204.17638138 366.509493 203.76562363 367.402627 203.34241867 368.32282567 C202.93784439 369.20279714 202.53327011 370.0827686 202.116436 370.98940587 C201.71870987 371.85330434 201.32098373 372.71720281 200.91120529 373.60728002 C198.58304454 378.67131956 196.26554915 383.73894408 194.0304985 388.84487462 C193.57441208 389.88176427 193.11832565 390.91865392 192.64841843 391.98696446 C190.72195652 397.1775782 190.12411256 402.46713568 189.55002975 407.94643712 C188.23804453 419.86569912 186.49917584 429.61154839 179.9054985 439.77456212 C179.2766777 440.74812657 178.6478569 441.72169103 177.99998093 442.72475743 C177.52149704 443.45791173 177.04301315 444.19106603 176.55002975 444.94643712 C177.4221611 444.96625646 178.29429245 444.98607579 179.19285202 445.00649571 C182.45646169 445.08501148 185.71964729 445.17171681 188.98289108 445.26381993 C190.39003374 445.30189005 191.79726644 445.33677957 193.20457077 445.36831212 C195.23801799 445.41444492 197.27085682 445.4723528 199.303936 445.53237462 C200.52411423 445.56379552 201.74429245 445.59521642 203.00144577 445.62758946 C209.25605442 446.18957907 214.00206483 447.52480455 218.55002975 451.94643712 C222.33074545 456.64759034 222.0016841 461.27051711 221.9836235 467.03237462 C221.98886536 468.00752019 221.99410721 468.98266576 221.9995079 469.98736119 C222.00592027 472.04662684 222.00460129 474.10592915 221.99607468 476.16518712 C221.98757729 479.30387747 222.01631731 482.44073949 222.04807663 485.57924962 C222.04968919 487.58445741 222.04911006 489.58966841 222.0461235 491.59487462 C222.05735748 492.52738042 222.06859146 493.45988622 222.08016586 494.42064977 C222.01620821 500.44942221 221.28640218 504.12861288 217.55002975 508.94643712 C212.22341515 512.6389024 208.45546178 513.5280676 202.05573654 513.44980168 C200.80581228 513.45852233 200.80581228 513.45852233 199.53063703 513.46741915 C196.73781533 513.48201954 193.94587242 513.46813375 191.1530571 513.45437169 C189.13084781 513.45898058 187.10864187 513.46533342 185.08644295 513.47328067 C179.52891048 513.48999862 173.9716523 513.48171629 168.41411877 513.46933579 C162.42084952 513.46029778 156.42762795 513.47424884 150.43436813 513.48525548 C139.37205902 513.5020294 128.30982549 513.50055439 117.24751586 513.48960961 C107.02809297 513.47954836 96.80870218 513.47692012 86.58927536 513.48170018 C85.57255605 513.48215849 85.57255605 513.48215849 84.53529696 513.48262606 C81.78385065 513.48387141 79.03240436 513.48514501 76.28095808 513.48646512 C50.46896677 513.49870181 24.65703122 513.48760619 -1.15495148 513.46607753 C-24.0886074 513.44709502 -47.02217448 513.44879353 -69.95582962 513.4679215 C-95.72053198 513.48933888 -121.48518507 513.497834 -147.2498951 513.48547244 C-149.99633534 513.48418957 -152.74277559 513.48293821 -155.48921585 513.48170018 C-156.16546212 513.48138387 -156.84170839 513.48106756 -157.53844698 513.48074167 C-167.75158299 513.4761913 -177.9646834 513.48151376 -188.17781448 513.49161839 C-199.79032452 513.50305024 -211.40275 513.49982181 -223.01525068 513.47849542 C-228.94215697 513.46797003 -234.86888278 513.46388868 -240.79578781 513.47709203 C-246.21897414 513.48899068 -251.64181228 513.48249484 -257.06496692 513.46118182 C-259.02919951 513.45670507 -260.99346137 513.45900598 -262.95767522 513.46868497 C-265.62409622 513.48081865 -268.28931891 513.4684047 -270.95567703 513.44980168 C-271.72141627 513.45916635 -272.48715551 513.46853101 -273.27609897 513.47817945 C-278.74267029 513.40175653 -281.9425552 512.07169667 -286.44997025 508.94643712 C-290.77811278 503.34743334 -291.05348181 498.59442628 -291.0163765 491.66518712 C-291.02257507 490.69287145 -291.02877365 489.72055577 -291.03516006 488.71877599 C-291.04223598 486.67146354 -291.03912335 484.62409327 -291.02638626 482.57680821 C-291.01251029 479.45544599 -291.04663758 476.33707839 -291.08473587 473.21596837 C-291.0856871 471.21987389 -291.08382806 469.22377568 -291.0788765 467.22768712 C-291.0921347 466.30145543 -291.10539291 465.37522374 -291.11905289 464.42092443 C-291.02717994 457.98620087 -289.71654175 454.7961346 -285.44997025 449.94643712 C-279.6442204 445.59212474 -273.4905925 445.78921933 -266.52882767 445.74111485 C-265.64052261 445.73121526 -264.75221756 445.72131566 -263.83699417 445.71111608 C-260.90983594 445.67960627 -257.9826615 445.65478531 -255.055439 445.63003087 C-253.02233847 445.60945226 -250.98924213 445.58845555 -248.95615005 445.56705785 C-243.6116361 445.5119309 -238.26708413 445.46248032 -232.92250443 445.41421056 C-227.4661306 445.363927 -222.0098118 445.30827674 -216.55348587 445.25307775 C-205.85236103 445.14561088 -195.15118837 445.04414051 -184.44997025 444.94643712 C-185.0563382 444.68951085 -185.66270615 444.43258458 -186.28744888 444.16787267 C-189.05755492 442.99244067 -191.82603443 441.81322387 -194.5945015 440.63393712 C-196.0254213 440.02775548 -196.0254213 440.02775548 -197.48524857 439.40932775 C-217.59316905 430.83087825 -230.62507124 417.41615622 -241.63747025 398.69643712 C-242.3843224 397.44398219 -243.13230523 396.19220086 -243.88136673 394.94106603 C-245.37898105 392.43913501 -246.87310603 389.93517551 -248.36500931 387.42983556 C-251.19256301 382.69293273 -254.09704315 378.00462673 -257.01247025 373.32143712 C-258.04767751 371.65089581 -259.08283294 369.98032239 -260.117939 368.30971837 C-261.89035438 365.45323046 -263.66684939 362.59941989 -265.4485054 359.74868321 C-291.13075704 318.64877878 -291.13075704 318.64877878 -290.96754837 293.44643712 C-290.97298895 292.06955792 -290.98012229 290.69268456 -290.9887886 289.31582189 C-291.00679572 285.62558867 -291.00004985 281.93581009 -290.98727226 278.24557042 C-290.97702552 274.35287964 -290.98656988 270.46022346 -290.99281693 266.56753087 C-291.00005982 260.03490892 -290.9905946 253.50246885 -290.97145462 246.96987462 C-290.94969227 239.45628331 -290.95674605 231.94312644 -290.97876024 224.42954564 C-290.99701078 217.93645611 -290.99942579 211.44349608 -290.98900557 204.95038915 C-290.98282325 201.09076389 -290.98178747 197.23134167 -290.99515152 193.37173009 C-291.00685145 189.74016916 -290.99843206 186.10915907 -290.97557449 182.4776566 C-290.96790879 180.53765133 -290.97952132 178.5975985 -290.9920845 176.65761876 C-290.80078901 156.41172326 -282.63711415 137.98415288 -268.23976517 123.76333165 C-262.42259634 118.40662632 -256.46196969 114.16574671 -249.63747025 110.19643712 C-247.59531348 108.98111444 -245.55365701 107.76495076 -243.51247025 106.54799962 C-242.49411087 105.94504064 -241.4757515 105.34208165 -240.42653275 104.72085118 C-235.96232125 102.05960699 -231.54886238 99.31906277 -227.13747025 96.57143712 C-221.9231708 93.3266829 -216.70339326 90.09298003 -211.44995499 86.91183019 C-209.12219767 85.50190345 -206.79751691 84.08694048 -204.47282791 82.67196202 C-202.81999386 81.6688485 -201.16276523 80.67298697 -199.50539017 79.67739415 C-190.23870656 74.03164963 -181.50397424 68.37436194 -175.38747025 59.25893712 C-174.77669632 58.36718785 -174.77669632 58.36718785 -174.15358353 57.45742345 C-172.90453624 55.6297556 -171.67596294 53.78962647 -170.44997025 51.94643712 C-155.31754884 29.46933117 -139.08501024 17.01510056 -112.44997025 10.94643712 C-111.57800003 10.74591489 -110.70602982 10.54539266 -109.80763626 10.33879399 C-73.05404594 1.97565512 -37.62364265 -0.52059035 0 0 Z " fill="#030202" transform="translate(290.4499702453613,-0.9464371204376221)"/>
<path d="M0 0 C48.84 0 97.68 0 148 0 C148 98.01 148 196.02 148 297 C99.16 297 50.32 297 0 297 C0 198.99 0 100.98 0 0 Z " fill="#CE9D75" transform="translate(182,99)"/>
<path d="M0 0 C0 98.01 0 196.02 0 297 C-32.01 297 -64.02 297 -97 297 C-101.62 289.41 -106.24 281.82 -111 274 C-116.36123227 265.32741839 -121.72403059 256.65598791 -127.11196899 247.99998474 C-128.55712774 245.67596154 -129.99854024 243.34962851 -131.43927002 241.02285767 C-132.46735346 239.36514041 -133.49996139 237.71023181 -134.53271484 236.05541992 C-143.91903537 220.88224932 -148.13821076 209.65869499 -148.17700195 191.83544922 C-148.18357315 190.51906967 -148.19014435 189.20269012 -148.19691467 187.84642029 C-148.21783962 183.49918817 -148.22830674 179.15195617 -148.23828125 174.8046875 C-148.24233324 173.30083321 -148.24645029 171.79697909 -148.25063133 170.29312515 C-148.26965824 163.22434735 -148.28389402 156.15557983 -148.2922433 149.08678138 C-148.30200415 140.95986568 -148.32830391 132.83322316 -148.36874419 124.70640361 C-148.39902198 118.40292453 -148.41372319 112.09952326 -148.41702431 105.79597294 C-148.41936162 102.04131659 -148.42814805 98.28695289 -148.45348549 94.53237534 C-148.47697671 90.99455724 -148.48091644 87.45722019 -148.47072411 83.91934395 C-148.4700024 82.02415429 -148.4889445 80.12898788 -148.50878906 78.23390198 C-148.41646427 62.80401159 -142.98891691 48.42743665 -132.28442383 37.18579102 C-125.11144741 30.32251669 -116.0012246 25.43873307 -107.5625 20.3125 C-65.35572772 -5.4002754 -67.43920401 0 0 0 Z " fill="#EABF9B" transform="translate(165,99)"/>
<path d="M0 0 C32.01 0 64.02 0 97 0 C99.97 11.22 102.94 22.44 106 34 C111.39036262 46.9368703 117.05303038 56.13557244 126.08422852 66.37548828 C138.82118556 80.82968467 148.33510507 94.58050148 148.25878906 114.31616211 C148.26404602 115.99554115 148.26404602 115.99554115 148.26940918 117.70884705 C148.27818934 121.3984096 148.27238993 125.08777935 148.265625 128.77734375 C148.26697281 131.3489231 148.26891431 133.92050221 148.27142334 136.49208069 C148.27436966 141.87780421 148.270285 147.26345574 148.26074219 152.64916992 C148.24986465 158.85955273 148.25338122 165.06980412 148.264395 171.28018373 C148.27459527 177.27362045 148.27347635 183.26699333 148.26763153 189.26043892 C148.26629976 191.80208924 148.26792617 194.34374293 148.27259064 196.88538933 C148.27768492 200.44183024 148.26990433 203.99802101 148.25878906 207.55444336 C148.26283752 208.59936951 148.26688599 209.64429565 148.27105713 210.72088623 C148.22959557 217.90302811 147.37308769 224.28462885 144.46875 230.93359375 C144.16138916 231.64491455 143.85402832 232.35623535 143.53735352 233.08911133 C143.19502686 233.86407959 142.8527002 234.63904785 142.5 235.4375 C142.13124756 236.28787842 141.76249512 237.13825684 141.38256836 238.0144043 C138.84277753 243.85243327 136.26024498 249.67145411 133.67849731 255.49101257 C132.04835011 259.16801292 130.4226501 262.84697427 128.796875 266.52590942 C127.57690007 269.27999198 126.34918171 272.03053344 125.12109375 274.78100586 C124.35253874 276.51662007 123.58429681 278.25237296 122.81640625 279.98828125 C122.46151627 280.777258 122.10662628 281.56623474 121.74098206 282.37911987 C121.40952682 283.13226471 121.07807159 283.88540955 120.73657227 284.66137695 C120.44839127 285.30863235 120.16021027 285.95588776 119.86329651 286.62275696 C118.63845436 289.99558129 117.87030023 293.51879909 117 297 C78.39 297 39.78 297 0 297 C0 198.99 0 100.98 0 0 Z " fill="#EAC09B" transform="translate(347,99)"/>
<path d="M0 0 C0.98673706 -0.00426498 1.97347412 -0.00852997 2.9901123 -0.01292419 C4.06138367 -0.01247101 5.13265503 -0.01201782 6.23638916 -0.0115509 C7.37358398 -0.01490952 8.51077881 -0.01826813 9.68243408 -0.02172852 C13.44294324 -0.03122939 17.20340781 -0.0331813 20.96392822 -0.03425598 C23.58081073 -0.03746949 26.19769306 -0.04083364 28.8145752 -0.04434204 C34.30218801 -0.05073284 39.78978876 -0.05222502 45.27740479 -0.05158997 C51.60359639 -0.05098998 57.9297025 -0.06152813 64.25587249 -0.07733363 C70.35821426 -0.09203212 76.4605153 -0.09557672 82.56287384 -0.09498024 C85.15114948 -0.09615841 87.73942579 -0.10057103 90.32769012 -0.10831261 C93.95357797 -0.11814105 97.57924759 -0.11522286 101.20513916 -0.10920715 C102.2683136 -0.11482666 103.33148804 -0.12044617 104.42687988 -0.12623596 C113.25768016 -0.08912165 120.74390952 1.46114214 128.97174072 4.67277527 C129.59603973 4.91460541 130.22033875 5.15643555 130.86355591 5.40559387 C132.86344822 6.18279012 134.85923105 6.96986447 136.85455322 7.75871277 C138.24286307 8.3040531 139.63120972 8.84929978 141.01959229 9.39445496 C144.4041328 10.72638938 147.78437869 12.06889833 151.16375732 13.41386414 C153.72059337 14.42748848 156.28441253 15.42313072 158.84674072 16.42277527 C175.61129991 23.07655818 188.82959907 32.54445698 196.97955322 49.13371277 C199.32390806 54.95819683 200.97955322 59.81502922 200.97955322 66.13371277 C94.71955322 66.13371277 -11.54044678 66.13371277 -121.02044678 66.13371277 C-121.02044678 65.47371277 -121.02044678 64.81371277 -121.02044678 64.13371277 C-120.07169678 63.39121277 -119.12294678 62.64871277 -118.14544678 61.88371277 C-110.51805659 55.56607645 -105.30671028 46.14950661 -100.02044678 37.88371277 C-87.91386849 19.66319113 -72.1550706 13.07828694 -51.46722412 8.78019714 C-38.78863059 6.23606399 -26.04513084 4.00827972 -13.31585693 1.73454285 C-11.41428213 1.38784144 -9.51555572 1.02202169 -7.62826157 0.60451794 C-5.02380669 0.13431935 -2.64396607 0.00518914 0 0 Z " fill="#DCB089" transform="translate(238.02044677734375,16.866287231445313)"/>
<path d="M0 0 C158.4 0 316.8 0 480 0 C480 10.89 480 21.78 480 33 C321.6 33 163.2 33 0 33 C0 22.11 0 11.22 0 0 Z " fill="#A7AFB9" transform="translate(16,462)"/>
<path d="M0 0 C124.74 0 249.48 0 378 0 C375.06719748 13.19761135 370.04840546 22.54943743 358.53815842 30.10015202 C352.83275348 33.45607394 348.10470616 33.89247105 341.58477783 33.88975525 C340.476584 33.91252094 339.36839017 33.93528664 338.22661471 33.9587422 C334.5327572 34.02686058 330.83988855 34.05262802 327.14550781 34.07788086 C324.48598359 34.11715038 321.82656326 34.15859835 319.16711426 34.20222473 C311.18597886 34.32522064 303.20477326 34.39057833 295.22293675 34.44792375 C292.19529372 34.4704929 289.16768661 34.49666547 286.14007379 34.52293737 C272.71640759 34.63916095 259.29272885 34.73791441 245.8686409 34.78809261 C242.58658036 34.80056605 239.30452023 34.81312993 236.02246094 34.82592773 C235.20700706 34.82909249 234.39155319 34.83225724 233.55138859 34.83551789 C220.47805003 34.88913498 207.40834846 35.04808714 194.33660403 35.25363296 C180.80968427 35.46452795 167.28457406 35.57532761 153.75601077 35.59623438 C146.20316102 35.61020672 138.6556765 35.6623925 131.1044693 35.82664299 C85.00179698 36.7929596 39.86837015 29.17629992 1 2 C0.67 1.34 0.34 0.68 0 0 Z " fill="#DEB18A" transform="translate(84,413)"/>
<path d="M0 0 C38.28 0 76.56 0 116 0 C116 25.59241706 116 25.59241706 110.3515625 31.81640625 C107.19897844 34.67300534 103.73597587 36.96219498 100 39 C99.87055003 41.83538907 99.87055003 41.83538907 101 45 C102.88105377 46.46353015 104.85059756 47.5562481 106.9296875 48.71875 C111.78556412 51.72389629 113.89033537 55.72583841 116 61 C116 68.26 116 75.52 116 83 C77.72 83 39.44 83 0 83 C0 57.54385965 0 57.54385965 5.78125 50.9765625 C6.3484375 50.53054687 6.915625 50.08453125 7.5 49.625 C8.0671875 49.16351563 8.634375 48.70203125 9.21875 48.2265625 C11 47 11 47 13.16015625 45.98828125 C15.25849157 45.11890884 15.25849157 45.11890884 15.9375 42.5625 C16.28265654 40.00330121 16.28265654 40.00330121 14.75 38.51171875 C12.93163606 36.94094455 11.04583113 35.60521282 9.0625 34.25 C3.81731537 30.37396283 1.59471634 26.37886535 0 20 C0 13.4 0 6.8 0 0 Z " fill="#040302" transform="translate(198,132)"/>
<path d="M0 0 C5.28 0 10.56 0 16 0 C16 5.61 16 11.22 16 17 C21.61 17 27.22 17 33 17 C33 11.39 33 5.78 33 0 C38.28 0 43.56 0 49 0 C49 5.61 49 11.22 49 17 C54.28 17 59.56 17 65 17 C65 22.28 65 27.56 65 33 C59.72 33 54.44 33 49 33 C49 38.61 49 44.22 49 50 C54.28 50 59.56 50 65 50 C65 55.28 65 60.56 65 66 C59.72 66 54.44 66 49 66 C49 71.61 49 77.22 49 83 C43.72 83 38.44 83 33 83 C33 77.39 33 71.78 33 66 C27.39 66 21.78 66 16 66 C16 71.61 16 77.22 16 83 C10.72 83 5.44 83 0 83 C0 77.39 0 71.78 0 66 C-5.61 66 -11.22 66 -17 66 C-17 60.72 -17 55.44 -17 50 C-11.39 50 -5.78 50 0 50 C0 44.39 0 38.78 0 33 C-5.61 33 -11.22 33 -17 33 C-17 27.72 -17 22.44 -17 17 C-11.39 17 -5.78 17 0 17 C0 11.39 0 5.78 0 0 Z " fill="#000000" transform="translate(83,132)"/>
<path d="M0 0 C5.89146718 4.62458026 11.09905723 9.95505248 16.25 15.375 C11.46474904 26.62680631 -1.42882993 34.29843632 -12.25 38.8125 C-15.06178268 39.90343516 -16.69834193 40.375 -19.75 40.375 C-18.58041093 46.54192417 -17.20755555 49.91744445 -12.75 54.375 C-9.64955717 56.29404733 -7.1660579 56.66281193 -3.546875 56.7890625 C-2.5671875 56.82773438 -1.5875 56.86640625 -0.578125 56.90625 C0.43765625 56.9371875 1.4534375 56.968125 2.5 57 C3.53125 57.03867188 4.5625 57.07734375 5.625 57.1171875 C8.16637663 57.21131256 10.70816358 57.29423931 13.25 57.375 C13.25 62.985 13.25 68.595 13.25 74.375 C-14.3211795 75.25104807 -14.3211795 75.25104807 -25.1875 66.0625 C-32.65550977 58.81900319 -35.85222357 50.48465014 -37.75 40.375 C-38.42546875 40.18164062 -39.1009375 39.98828125 -39.796875 39.7890625 C-41.13492187 39.39847656 -41.13492187 39.39847656 -42.5 39 C-43.38171875 38.74476563 -44.2634375 38.48953125 -45.171875 38.2265625 C-47.75 37.375 -47.75 37.375 -51.75 35.375 C-52.08 42.635 -52.41 49.895 -52.75 57.375 C-58.36 57.375 -63.97 57.375 -69.75 57.375 C-69.94855188 51.11297928 -70.09329915 44.85281039 -70.18945312 38.58837891 C-70.22955396 36.46012436 -70.28405163 34.33208843 -70.35351562 32.20458984 C-70.45116407 29.135844 -70.49605884 26.07002199 -70.53125 23 C-70.57254028 22.05697021 -70.61383057 21.11394043 -70.65637207 20.14233398 C-70.66008454 14.61075575 -69.82878202 11.85267694 -65.88500977 7.86254883 C-64.53264018 6.66992468 -63.15611297 5.50376134 -61.75 4.375 C-60.77933594 3.57449219 -59.80867188 2.77398437 -58.80859375 1.94921875 C-40.67696103 -11.10231419 -18.84234674 -13.00764278 0 0 Z " fill="#040303" transform="translate(432.75,140.625)"/>
<path d="M0 0 C8.71901492 4.04709976 14.98931779 10.52766899 18.97265625 19.203125 C20.8501879 24.47767903 20.95111156 29.56556057 20.92602539 35.11645508 C20.92617142 35.96574585 20.92631744 36.81503662 20.9264679 37.69006348 C20.92577319 40.48741237 20.91800149 43.28469404 20.91015625 46.08203125 C20.9082905 48.0254462 20.90686734 49.96886163 20.90586853 51.91227722 C20.90205571 57.02010401 20.89223597 62.12790224 20.88116455 67.23571777 C20.87092387 72.45076104 20.86636522 77.66580894 20.86132812 82.88085938 C20.8506126 93.10808747 20.83302579 103.33528689 20.8125 113.5625 C15.2025 113.5625 9.5925 113.5625 3.8125 113.5625 C3.8125 102.6725 3.8125 91.7825 3.8125 80.5625 C-3.06887372 80.79828715 -3.06887372 80.79828715 -9.94726562 81.10302734 C-16.07466443 81.20816537 -19.7445592 80.29706543 -24.54882812 76.44775391 C-30.0711492 70.09445186 -29.65491655 63.59830906 -29.65625 55.5703125 C-29.66386353 54.31040497 -29.67147705 53.05049744 -29.67932129 51.75241089 C-29.69011279 49.09096637 -29.69435258 46.43041164 -29.68847656 43.76904297 C-29.68258738 40.37727825 -29.71315333 36.98694844 -29.75359344 33.59546089 C-29.78583238 30.33710648 -29.78135403 27.07880162 -29.78125 23.8203125 C-29.79764526 22.61174591 -29.81404053 21.40317932 -29.83093262 20.1579895 C-29.75880731 11.31241326 -27.91790691 6.29290691 -21.6875 0.0625 C-14.79323051 -2.89218692 -7.04542753 -2.41525715 0 0 Z " fill="#040302" transform="translate(293.1875,249.4375)"/>
<path d="M0 0 C9.70301563 4.52072319 15.53750022 11.81125051 19.75 21.5 C20.96640247 25.66069725 20.88265479 29.73052297 20.86352539 34.03222656 C20.86367142 34.89112488 20.86381744 35.75002319 20.8639679 36.63494873 C20.86327196 39.47019996 20.85549445 42.30538526 20.84765625 45.140625 C20.84579094 47.10788945 20.84436757 49.07515436 20.84336853 51.04241943 C20.83955227 56.21766444 20.82972956 61.39288133 20.81866455 66.56811523 C20.8084313 71.85009379 20.8038668 77.13207689 20.79882812 82.4140625 C20.78810651 92.776056 20.77051689 103.13802126 20.75 113.5 C15.14 113.5 9.53 113.5 3.75 113.5 C3.75 102.61 3.75 91.72 3.75 80.5 C-3.13137372 80.73578715 -3.13137372 80.73578715 -10.00976562 81.04052734 C-16.13716443 81.14566537 -19.8070592 80.23456543 -24.61132812 76.38525391 C-30.1336492 70.03195186 -29.71741655 63.53580906 -29.71875 55.5078125 C-29.72636353 54.24790497 -29.73397705 52.98799744 -29.74182129 51.68991089 C-29.75261279 49.02846637 -29.75685258 46.36791164 -29.75097656 43.70654297 C-29.74508738 40.31477825 -29.77565333 36.92444844 -29.81609344 33.53296089 C-29.84833238 30.27460648 -29.84385403 27.01630162 -29.84375 23.7578125 C-29.86014526 22.54924591 -29.87654053 21.34067932 -29.89343262 20.0954895 C-29.82130731 11.24991326 -27.98040691 6.23040691 -21.75 0 C-14.81626522 -2.97160062 -7.06647576 -2.47326652 0 0 Z " fill="#040302" transform="translate(227.25,249.5)"/>
<path d="M0 0 C1.20269531 -0.020625 2.40539062 -0.04125 3.64453125 -0.0625 C13.05410977 -0.10381538 20.07549605 0.98361512 27.2109375 7.5 C31.98315164 12.92627395 33.87769768 19.27346145 33.86352539 26.3737793 C33.86341209 28.26540047 33.86341209 28.26540047 33.86329651 30.19523621 C33.85818989 31.57156412 33.85297389 32.94789163 33.84765625 34.32421875 C33.84579086 35.73240611 33.84436753 37.14059411 33.84336853 38.54878235 C33.83955288 42.2526733 33.82973072 45.95652495 33.81866455 49.66040039 C33.80842997 53.44091256 33.80386652 57.22143109 33.79882812 61.00195312 C33.78810759 68.41798873 33.7705185 75.83398385 33.75 83.25 C28.14 83.25 22.53 83.25 16.75 83.25 C16.74589111 81.3927832 16.74178223 79.53556641 16.73754883 77.62207031 C16.71814651 71.48308729 16.67583333 65.34459605 16.61790943 59.20586014 C16.58363015 55.48416346 16.55852816 51.76287764 16.55444336 48.04101562 C16.55016215 44.44853614 16.5217168 40.8569836 16.47656822 37.2647934 C16.46358709 35.89493969 16.45928781 34.52497507 16.46384621 33.15506744 C16.46874655 31.23513478 16.43981004 29.31520626 16.40942383 27.39550781 C16.39943108 25.75669647 16.39943108 25.75669647 16.38923645 24.08477783 C15.97239858 21.04454674 15.97239858 21.04454674 13.35978699 18.89924622 C9.10851849 16.21267121 5.15387816 16.63016442 0.25 16.6875 C-1.15572266 16.65172852 -1.15572266 16.65172852 -2.58984375 16.61523438 C-7.05379827 16.62473215 -9.5638031 16.80513142 -13.37109375 19.2734375 C-15.74445724 23.03331895 -15.86528137 26.1308253 -15.8125 30.4375 C-16.1067411 40.87584192 -17.87640658 47.1565019 -25.4375 54.75 C-26.31792969 55.5646875 -27.19835937 56.379375 -28.10546875 57.21875 C-31.12009578 60.07413444 -31.22558295 60.79218029 -31.453125 65.05859375 C-31.47442475 66.6014946 -31.48980668 68.14448581 -31.5 69.6875 C-31.520625 70.46416016 -31.54125 71.24082031 -31.5625 72.04101562 C-31.70874307 76.27537492 -31.70874307 76.27537492 -29.94433594 79.96899414 C-27.09713776 82.12162366 -24.67858361 81.67105413 -21.25 81.25 C-18.65087749 80.0713337 -18.65087749 80.0713337 -17.25 77.25 C-16.62244978 73.55383559 -16.42906425 70.01034921 -16.25 66.25 C-10.97 66.25 -5.69 66.25 -0.25 66.25 C0.36947666 83.5953465 0.36947666 83.5953465 -4.25 89.25 C-10.08986212 95.49523216 -15.97130979 99.30331531 -24.6875 99.6875 C-32.16536794 99.47208817 -37.84869658 96.35123101 -43.25 91.25 C-50.52507367 81.68847461 -50.40092152 70.78615162 -49.25 59.25 C-47.41197638 51.90682797 -42.72294791 47.25392902 -37.23828125 42.2578125 C-34.7945449 39.79007088 -33.40965916 37.70610547 -33.02636719 34.21044922 C-33.03313477 33.49904785 -33.03990234 32.78764648 -33.046875 32.0546875 C-32.88682617 14.13467445 -32.88682617 14.13467445 -26.25 7.25 C-17.7361304 0.12073895 -10.8014862 0.04572058 0 0 Z " fill="#040303" transform="translate(115.25,247.75)"/>
<path d="M0 0 C2.7495766 2.47391211 5.28852704 5.14356848 7.71386719 7.93457031 C10.0610174 10.53555333 11.57475579 11.90410085 15.03125 12.68359375 C19.07822264 11.75172505 20.52057371 9.90557739 23.25 6.8125 C28.99931231 0.65449215 34.87037601 -4.05031245 43.5625 -4.5625 C53.93434973 -3.86860864 60.91103598 2.76752213 67.8125 9.875 C69.89583664 12.20650404 69.89583664 12.20650404 73 13 C73 18.28 73 23.56 73 29 C65.12720962 29 62.04631345 27.62194153 56 23 C53.9813361 20.96278221 52.15532277 18.88352032 50.375 16.63671875 C48.41076357 14.29860777 47.22769765 14.03035969 44.1875 13.625 C39.86282461 14.13378534 38.88133019 15.77565431 36 19 C29.79512959 24.89527188 24.98650827 29.09738383 16.125 29.375 C8.4984044 29.16708785 2.65807794 27.36028437 -3 22 C-4.59435149 20.19094781 -6.14843208 18.3606391 -7.66796875 16.48828125 C-9.62012598 14.30713197 -10.87591656 14.01737863 -13.7890625 13.609375 C-18.02834226 14.12510246 -19.70293421 16.18489763 -22.375 19.25 C-26.60810428 23.77159422 -30.09515628 26.9333047 -36 29 C-38.31 29 -40.62 29 -43 29 C-43 23.72 -43 18.44 -43 13 C-41.989375 12.505 -40.97875 12.01 -39.9375 11.5 C-36.80190975 9.73347028 -34.78189959 7.77346527 -32.5 5 C-24.06216038 -5.18229186 -11.21957025 -6.96387119 0 0 Z " fill="#040302" transform="translate(406,301)"/>
<path d="M0 0 C2.67549805 2.18904386 4.85805344 4.52130114 6.9375 7.27734375 C9.01425608 9.78756605 10.81662652 10.73466968 14.00390625 11.23046875 C19.28739303 10.50528429 22.12310555 6.88797697 25.69140625 3.23046875 C31.02474875 -1.96954018 35.5873084 -4.31650709 42.94140625 -4.45703125 C51.5028662 -4.33131231 57.24930953 -1.27101713 63.19140625 4.79296875 C64.24328125 6.15421875 64.24328125 6.15421875 65.31640625 7.54296875 C67.31276216 10.30117758 67.31276216 10.30117758 72.19140625 11.79296875 C72.19140625 17.40296875 72.19140625 23.01296875 72.19140625 28.79296875 C60.6546922 27.35087949 56.30051818 23.35811903 48.68359375 14.8046875 C46.32181364 12.59314392 46.32181364 12.59314392 43.25 12.140625 C39.05415985 13.03552322 37.09681119 15.44115862 34.37890625 18.54296875 C28.36328612 24.93654335 23.2805345 28.75182176 14.25390625 29.35546875 C5.14950495 28.91789287 -1.28145663 23.89710455 -7.41015625 17.5625 C-8.80859375 15.79296875 -8.80859375 15.79296875 -8.80859375 13.79296875 C-11.82099817 12.98607471 -13.75956002 12.50109544 -16.80859375 12.79296875 C-19.89149782 14.70448583 -22.2836934 17.2068587 -24.80859375 19.79296875 C-30.50491511 25.23890236 -35.58723822 28.79296875 -43.80859375 28.79296875 C-43.80859375 23.18296875 -43.80859375 17.57296875 -43.80859375 11.79296875 C-42.15859375 11.13296875 -40.50859375 10.47296875 -38.80859375 9.79296875 C-36.97619182 8.04273731 -35.20937031 6.22246911 -33.49609375 4.35546875 C-24.03923114 -5.44901454 -11.85411158 -8.01056336 0 0 Z " fill="#040302" transform="translate(406.80859375,252.20703125)"/>
<path d="M0 0 C2.23794075 -0.0396346 4.47667732 -0.04418692 6.71484375 -0.02050781 C7.89828369 -0.02624817 9.08172363 -0.03198853 10.30102539 -0.03790283 C12.80259109 -0.04198497 15.30422055 -0.03091879 17.80566406 -0.00585938 C21.63881922 0.02625388 25.46775754 -0.00554615 29.30078125 -0.04394531 C31.73047808 -0.03998045 34.16017227 -0.0322931 36.58984375 -0.02050781 C38.31182983 -0.03872589 38.31182983 -0.03872589 40.06860352 -0.05731201 C43.05321772 -0.0044536 45.74674138 0.09132631 48.65234375 0.77636719 C51.24511719 3.70043945 51.24511719 3.70043945 52.65234375 6.77636719 C55.18316402 8.82186813 55.18316402 8.82186813 57.90234375 10.46386719 C60.60546875 12.16308594 60.60546875 12.16308594 62.65234375 13.77636719 C62.65234375 14.76636719 62.65234375 15.75636719 62.65234375 16.77636719 C35.59234375 16.77636719 8.53234375 16.77636719 -19.34765625 16.77636719 C-18.34765625 12.77636719 -18.34765625 12.77636719 -16.421875 11.28417969 C-14.83883739 10.36700241 -13.25550694 9.45033039 -11.671875 8.53417969 C-9.1018354 6.88053999 -9.1018354 6.88053999 -7.95629883 3.71630859 C-4.93973106 0.31663531 -4.33685692 0.3044478 0 0 Z " fill="#CE9D75" transform="translate(234.34765625,181.2236328125)"/>
<path d="M0 0 C27.06 0 54.12 0 82 0 C79.7887334 4.42253319 78.02894205 5.60811841 74.0703125 8.2421875 C71.75933123 9.94904983 71.75933123 9.94904983 70.62451172 13.06005859 C67.59523963 16.45340692 66.99172628 16.47163895 62.65234375 16.77636719 C60.414403 16.81600179 58.17566643 16.82055411 55.9375 16.796875 C54.16234009 16.80548553 54.16234009 16.80548553 52.35131836 16.81427002 C49.84975266 16.81835216 47.3481232 16.80728598 44.84667969 16.78222656 C41.01352453 16.75011331 37.18458621 16.78191334 33.3515625 16.8203125 C30.92186567 16.81634764 28.49217148 16.80866029 26.0625 16.796875 C24.91450928 16.80902039 23.76651855 16.82116577 22.58374023 16.8336792 C19.59924332 16.78082287 16.90562185 16.68435775 14 16 C11.3984375 13.08300781 11.3984375 13.08300781 10 10 C7.59855425 7.84550034 7.59855425 7.84550034 5 6 C3.29705213 4.71332828 1.62053812 3.38903267 0 2 C0 1.34 0 0.68 0 0 Z " fill="#CE9D75" transform="translate(215,149)"/>
<path d="M0 0 C6.61136115 1.10189353 9.87196287 2.45782968 14.15527344 7.57470703 C16.52483546 11.97451581 16.51382283 15.21132977 16.390625 20.1171875 C16.38496521 20.97434357 16.37930542 21.83149963 16.37347412 22.71463013 C16.35119639 25.4353368 16.30101774 28.15469568 16.25 30.875 C16.2299238 32.72654339 16.211675 34.57810756 16.1953125 36.4296875 C16.15136001 40.9536393 16.08239359 45.47659164 16 50 C10.72 50 5.44 50 0 50 C0 33.5 0 17 0 0 Z " fill="#CC9C74" transform="translate(281,264)"/>
<path d="M0 0 C6.84244373 0 6.84244373 0 9.6875 2.0625 C10.24824219 2.44535156 10.80898437 2.82820313 11.38671875 3.22265625 C16.06793822 8.37993194 16.42533595 14.1674639 16.29296875 20.77734375 C16.28872391 21.58869278 16.28447906 22.40004181 16.28010559 23.23597717 C16.26343867 25.80350256 16.22581048 28.37021564 16.1875 30.9375 C16.1724376 32.68813963 16.15875193 34.43879168 16.14648438 36.18945312 C16.11613805 40.46019298 16.05739755 44.72919741 16 49 C10.72 49 5.44 49 0 49 C0 32.83 0 16.66 0 0 Z " fill="#CD9C75" transform="translate(215,265)"/>
<path d="M0 0 C3.0625 2.1875 3.0625 2.1875 5 4 C3.98012416 6.77501101 3.19873686 7.87328858 0.671875 9.484375 C-8.34628373 13.39063627 -17.10865134 15.2464813 -26.5546875 11.64453125 C-29.45660364 10.20722926 -32.24301802 8.6966043 -35 7 C-35 5.68 -35 4.36 -35 3 C-33.58671871 2.18162558 -32.16921654 1.37053781 -30.75 0.5625 C-29.56664062 -0.11619141 -29.56664062 -0.11619141 -28.359375 -0.80859375 C-19.91350503 -5.07347842 -8.34207383 -4.14502213 0 0 Z " fill="#E7BD99" transform="translate(420,152)"/>
<path d="M0 0 C5.61 0 11.22 0 17 0 C17 5.61 17 11.22 17 17 C11.39 17 5.78 17 0 17 C0 11.39 0 5.78 0 0 Z " fill="#DEB693" transform="translate(99,165)"/>
</svg>
