<?xml version="1.0" encoding="UTF-8"?>
<svg version="1.1" xmlns="http://www.w3.org/2000/svg" width="512" height="512">
<path d="M0 0 C4.03595389 3.06545088 7.71435846 6.38893144 11.16796875 10.1015625 C12.25464844 11.26751953 12.25464844 11.26751953 13.36328125 12.45703125 C19.97595023 19.65442177 19.97595023 19.65442177 21.29345703 22.72241211 C23.04541267 25.4954325 23.04541267 25.4954325 26.75878906 25.69750977 C28.25452287 25.7116498 29.75063681 25.70003273 31.24609375 25.66796875 C32.04972351 25.67360336 32.85335327 25.67923798 33.68133545 25.68504333 C36.26080026 25.70151523 38.83856396 25.68599949 41.41796875 25.6640625 C63.39079609 25.51878413 82.66755234 29.14980961 99.09130859 44.90161133 C114.07190262 59.86427986 121.359375 76.7043669 121.60546875 97.9140625 C121.48128406 117.9399941 115.17591459 135.2015635 100.94140625 149.453125 C84.80061254 164.86644632 67.30384829 170.6404576 45.12109375 170.39453125 C43.61367215 170.38892087 42.106245 170.38465761 40.59881592 170.38166809 C36.67297684 170.37033253 32.74748232 170.34096598 28.82177734 170.30755615 C24.08925494 170.27114659 19.35661593 170.2576402 14.62399292 170.24019623 C7.47174682 170.21131905 0.32025348 170.15375485 -6.83203125 170.1015625 C-6.83203125 180.6615625 -6.83203125 191.2215625 -6.83203125 202.1015625 C-3.53203125 202.7615625 -0.23203125 203.4215625 3.16796875 204.1015625 C6.00347877 205.25002326 8.60194794 206.38531359 11.29296875 207.7890625 C11.98455078 208.14500488 12.67613281 208.50094727 13.38867188 208.86767578 C20.86432297 212.83315926 25.9427983 217.42095176 31.04296875 224.1640625 C38.1711991 233.2854291 47.3413275 236.07889616 58.16796875 239.1015625 C60.17163144 239.75713877 62.17279898 240.42057641 64.16796875 241.1015625 C64.43609375 240.3178125 64.70421875 239.5340625 64.98046875 238.7265625 C66.16796875 236.1015625 66.16796875 236.1015625 69.16796875 234.1015625 C70.16054687 234.01003906 71.153125 233.91851562 72.17578125 233.82421875 C75.35908492 233.41469242 75.35908492 233.41469242 76.78515625 230.66015625 C77.20023438 229.63019531 77.6153125 228.60023438 78.04296875 227.5390625 C82.13987582 218.55367884 87.09679163 213.69291903 96.16796875 210.1015625 C97.33951168 212.39085303 98.50534949 214.68274612 99.66796875 216.9765625 C100.00183594 217.62753906 100.33570313 218.27851563 100.6796875 218.94921875 C103.16796875 223.875 103.16796875 223.875 103.16796875 226.1015625 C101.671875 227.3203125 101.671875 227.3203125 99.73046875 228.6015625 C96.94265028 230.3880988 96.94265028 230.3880988 95.16796875 233.1015625 C96.1321875 233.12734375 97.09640625 233.153125 98.08984375 233.1796875 C99.353125 233.23640625 100.61640625 233.293125 101.91796875 233.3515625 C103.1709375 233.39796875 104.42390625 233.444375 105.71484375 233.4921875 C109.61483798 234.18042178 110.9108251 234.88684276 113.16796875 238.1015625 C113.16796875 239.4215625 113.16796875 240.7415625 113.16796875 242.1015625 C115.80796875 242.1015625 118.44796875 242.1015625 121.16796875 242.1015625 C121.81019614 237.09218889 121.86697788 232.41098701 118.76269531 228.19140625 C115.28233397 224.33083737 111.4715343 220.83092258 107.55078125 217.42333984 C105.16704141 215.14481451 105.15659698 213.93191799 104.9296875 210.546875 C104.8990777 209.10688365 104.87458631 207.66675227 104.85546875 206.2265625 C104.82646484 205.50597656 104.79746094 204.78539062 104.76757812 204.04296875 C104.72594299 200.56483372 104.87903328 198.50697307 106.921875 195.640625 C109.27967639 194.02501848 110.59817904 193.53954848 113.41796875 193.3515625 C114.65546875 193.2690625 115.89296875 193.1865625 117.16796875 193.1015625 C114.59012029 190.45404246 112.25148777 188.15724185 109.16796875 186.1015625 C110.81363398 180.41653715 113.45829659 175.33474614 116.16796875 170.1015625 C126.45029699 174.5082746 132.087918 180.64459752 136.35546875 190.9765625 C136.62359375 191.6778125 136.89171875 192.3790625 137.16796875 193.1015625 C137.9878125 193.12734375 138.80765625 193.153125 139.65234375 193.1796875 C140.73 193.23640625 141.80765625 193.293125 142.91796875 193.3515625 C143.9853125 193.39796875 145.05265625 193.444375 146.15234375 193.4921875 C149.85453951 194.2402996 150.72718272 195.26838046 153.16796875 198.1015625 C154.31855782 200.0634294 155.39156233 202.07195067 156.40234375 204.109375 C156.97597656 205.26050781 157.54960937 206.41164063 158.140625 207.59765625 C158.57785889 208.49073486 158.57785889 208.49073486 159.02392578 209.40185547 C159.92076744 211.23227451 160.83042892 213.05587902 161.7421875 214.87890625 C166.16796875 223.82079082 166.16796875 223.82079082 166.16796875 226.1015625 C172.58650325 224.86289795 178.68406072 223.01314523 184.84985352 220.86645508 C201.30960737 215.18451099 221.8453087 216.32013668 238.16796875 222.1015625 C238.82796875 222.4315625 239.48796875 222.7615625 240.16796875 223.1015625 C240.49796875 216.1715625 240.82796875 209.2415625 241.16796875 202.1015625 C238.2753125 202.14796875 235.38265625 202.194375 232.40234375 202.2421875 C229.5625178 202.27349193 226.72271197 202.29771752 223.8828125 202.32128906 C221.92764509 202.34125289 219.9725362 202.36843386 218.01757812 202.40332031 C199.97785985 202.71689415 187.07488798 200.45981469 173.41796875 187.7890625 C163.42505837 177.23051569 160.65357094 165.68328327 160.74829102 151.57128906 C161.15907132 137.44890011 167.00508775 126.37290524 177.23046875 116.6953125 C184.8674301 110.41329591 193.50399462 105.98065342 203.51953125 106.08984375 C212.23919839 106.50477813 212.23919839 106.50477813 219.75390625 102.9140625 C221.71120494 100.11180697 221.71120494 100.11180697 223.4140625 97.08203125 C229.90890667 86.0451357 243.7032101 78.83400907 255.66796875 75.1015625 C269.41156159 72.248415 285.23053237 72.41580155 298.16796875 78.1015625 C299.04195313 78.46378906 299.9159375 78.82601562 300.81640625 79.19921875 C317.07781018 86.57939438 327.80050366 100.06167568 334.41796875 116.2890625 C339.84498111 132.34207386 339.23359599 149.65577273 332.16796875 165.1015625 C331.76964844 165.99101562 331.37132812 166.88046875 330.9609375 167.796875 C325.0343452 179.78669573 315.91532756 188.85190077 304.16796875 195.1015625 C303.27207031 195.58367187 302.37617188 196.06578125 301.453125 196.5625 C294.42167195 200.05300611 289.34060109 200.73945711 281.16796875 202.1015625 C281.16796875 216.9515625 281.16796875 231.8015625 281.16796875 247.1015625 C282.81796875 247.4315625 284.46796875 247.7615625 286.16796875 248.1015625 C287.65479476 248.52653395 289.13547322 248.97357526 290.609375 249.44140625 C303.7877627 253.55699729 316.0994078 256.15014637 329.91796875 256.85546875 C333.16796875 257.1015625 333.16796875 257.1015625 337.16796875 258.1015625 C337.16796875 284.5015625 337.16796875 310.9015625 337.16796875 338.1015625 C331.88796875 338.1015625 326.60796875 338.1015625 321.16796875 338.1015625 C321.16796875 335.4615625 321.16796875 332.8215625 321.16796875 330.1015625 C315.88796875 330.1015625 310.60796875 330.1015625 305.16796875 330.1015625 C305.16796875 332.7415625 305.16796875 335.3815625 305.16796875 338.1015625 C292.19873226 338.1941714 279.2295742 338.26528139 266.26007462 338.30881119 C260.23804307 338.32970148 254.21623745 338.35804592 248.19433594 338.40332031 C242.38476078 338.4467259 236.57540317 338.47068874 230.76567841 338.48107147 C228.54724451 338.4884723 226.32882275 338.50292407 224.11048126 338.52448273 C221.00731004 338.55344584 217.90504207 338.5575214 214.80175781 338.55566406 C213.88106506 338.57004517 212.96037231 338.58442627 212.01177979 338.59924316 C205.82128356 338.55905087 205.82128356 338.55905087 202.62835693 336.32318115 C201.16796875 334.1015625 201.16796875 334.1015625 200.16796875 330.1015625 C190.26796875 330.1015625 180.36796875 330.1015625 170.16796875 330.1015625 C169.50796875 332.0815625 168.84796875 334.0615625 168.16796875 336.1015625 C163.50735486 339.20863843 158.71238363 338.47014715 153.23046875 338.4765625 C152.13283203 338.50105469 151.03519531 338.52554687 149.90429688 338.55078125 C148.3197168 338.55658203 148.3197168 338.55658203 146.703125 338.5625 C145.73769775 338.57071777 144.77227051 338.57893555 143.77758789 338.58740234 C140.39644258 337.95792539 139.20391291 336.83558759 137.16796875 334.1015625 C137.16796875 332.7815625 137.16796875 331.4615625 137.16796875 330.1015625 C118.68796875 330.1015625 100.20796875 330.1015625 81.16796875 330.1015625 C80.83796875 332.0815625 80.50796875 334.0615625 80.16796875 336.1015625 C76.48093732 338.55958345 73.56622784 338.50441445 69.29296875 338.5390625 C68.58527344 338.57193359 67.87757813 338.60480469 67.1484375 338.63867188 C63.10847573 338.68004951 61.38796956 338.28100613 58.22265625 335.69921875 C56.16796875 333.1015625 56.16796875 333.1015625 55.16796875 331.1015625 C48.23796875 330.7715625 41.30796875 330.4415625 34.16796875 330.1015625 C33.50796875 332.0815625 32.84796875 334.0615625 32.16796875 336.1015625 C28.73867068 338.38776121 27.52278859 338.34928823 23.49226379 338.34207153 C22.31015823 338.34482086 21.12805267 338.34757019 19.91012573 338.35040283 C18.61180817 338.34321228 17.3134906 338.33602173 15.97583008 338.32861328 C14.59609485 338.32804919 13.21635902 338.32836569 11.83662415 338.32949829 C8.08893499 338.33007289 4.34137346 338.31830131 0.593714 338.30435038 C-3.32206436 338.29186083 -7.23784554 338.29067392 -11.15364075 338.28829956 C-18.56967266 338.28207956 -25.98564571 338.26566172 -33.40165168 338.24560058 C-41.84411583 338.22325774 -50.28658277 338.21225222 -58.72906911 338.20220971 C-76.09675722 338.18129594 -93.46438802 338.14610987 -110.83203125 338.1015625 C-110.83203125 335.4615625 -110.83203125 332.8215625 -110.83203125 330.1015625 C-116.11203125 330.1015625 -121.39203125 330.1015625 -126.83203125 330.1015625 C-126.83203125 332.7415625 -126.83203125 335.3815625 -126.83203125 338.1015625 C-132.11203125 338.1015625 -137.39203125 338.1015625 -142.83203125 338.1015625 C-142.83203125 301.1415625 -142.83203125 264.1815625 -142.83203125 226.1015625 C-135.24203125 225.4415625 -127.65203125 224.7815625 -119.83203125 224.1015625 C-111.99005098 221.10735185 -107.17005398 217.74419498 -101.18359375 212.0625 C-90.89377654 203.48195475 -79.75583177 201.78792898 -66.89453125 201.9765625 C-62.91390625 202.0178125 -58.93328125 202.0590625 -54.83203125 202.1015625 C-54.83203125 191.5415625 -54.83203125 180.9815625 -54.83203125 170.1015625 C-58.13203125 170.1015625 -61.43203125 170.1015625 -64.83203125 170.1015625 C-89.35277706 165.87303312 -111.11034526 153.3261523 -125.83203125 133.1015625 C-141.01352705 111.47943212 -146.6877262 85.2631584 -142.11328125 59.12109375 C-141.2854977 55.35296321 -140.13641907 51.73338741 -138.83203125 48.1015625 C-138.45820313 47.04453125 -138.084375 45.9875 -137.69921875 44.8984375 C-128.66937395 21.5763218 -111.59181906 3.34805485 -88.86181641 -7.05810547 C-60.14005515 -18.94892845 -25.96790893 -17.40745343 0 0 Z " fill="#000000" transform="translate(158.83203125,93.8984375)"/>
<path d="M0 0 C13.56345902 10.64209862 22.91428207 24.90610228 26 42 C26.20854492 45.38205451 26.14752767 48.60686356 26 52 C31.28 52 36.56 52 42 52 C41.690625 49.710625 41.38125 47.42125 41.0625 45.0625 C40.29487805 39.3820976 39.61341873 33.69909761 39 28 C61.17645533 27.34486099 80.85411789 27.73191095 97.9375 43.80859375 C109.76302583 56.37321494 114.78344127 71.3466806 114.37890625 88.31640625 C113.5654014 102.52504118 106.20558661 116.26107043 96 126 C82.40139163 137.35188177 67.59107638 140.33178145 50.33984375 140.1953125 C48.9402334 140.19157474 47.54062039 140.18873138 46.14100647 140.18673706 C42.48646613 140.17916061 38.83208892 140.15956486 35.1776123 140.1373291 C31.43679001 140.11674041 27.69594094 140.10770771 23.95507812 140.09765625 C16.636645 140.07631224 9.3183455 140.04225024 2 140 C2 138.68 2 137.36 2 136 C2.63164062 135.64921387 3.26328125 135.29842773 3.9140625 134.93701172 C16.14454624 128.13666891 28.33852284 121.28183672 40.4375 114.25 C41.46681641 113.65429199 42.49613281 113.05858398 43.55664062 112.44482422 C44.50603516 111.89068848 45.45542969 111.33655273 46.43359375 110.765625 C47.26947021 110.27868164 48.10534668 109.79173828 48.96655273 109.29003906 C51.11425641 108.03126955 51.11425641 108.03126955 53 106 C50.69 102.04 48.38 98.08 46 94 C29.70836893 102.8608297 13.50092044 111.87271023 -2.5 121.25 C-3.91502808 122.07286499 -3.91502808 122.07286499 -5.35864258 122.91235352 C-6.21997803 123.42080811 -7.08131348 123.9292627 -7.96875 124.453125 C-8.72607422 124.89817383 -9.48339844 125.34322266 -10.26367188 125.80175781 C-12.14948537 126.89718636 -12.14948537 126.89718636 -13 129 C-13.10509524 131.14603569 -13.14394983 133.29540052 -13.15390015 135.44398499 C-13.1582824 136.11312988 -13.16266465 136.78227478 -13.1671797 137.47169679 C-13.18058528 139.72470495 -13.18675058 141.97767398 -13.19287109 144.23071289 C-13.20077093 145.84200213 -13.20903981 147.4532896 -13.21765137 149.0645752 C-13.24389402 154.36725164 -13.25918526 159.66993606 -13.2734375 164.97265625 C-13.27879702 166.79821719 -13.28417453 168.62377808 -13.28956985 170.44933891 C-13.31120547 178.04553194 -13.32994043 185.64172283 -13.34119225 193.23793888 C-13.35741805 204.12072078 -13.39055466 215.00314484 -13.44759309 225.88579184 C-13.4863327 233.53856345 -13.50582993 241.19123954 -13.51111281 248.84410661 C-13.51476193 253.41364457 -13.52673548 257.98280108 -13.55921555 262.55223274 C-13.58936557 266.85579086 -13.59558351 271.15873816 -13.58383179 275.46237946 C-13.5836116 277.03731759 -13.59187099 278.61228461 -13.60948563 280.18712425 C-13.70255318 288.99109189 -13.28346577 295.69191687 -8 303 C-7.01 304.65 -6.02 306.3 -5 308 C-16.22 308 -27.44 308 -39 308 C-35.535 302.555 -35.535 302.555 -32 297 C-31.10020328 294.30060983 -30.87170749 292.74590114 -30.8613348 289.97639179 C-30.85586036 289.15530408 -30.85038591 288.33421637 -30.84474558 287.48824722 C-30.84376747 286.58650384 -30.84278936 285.68476046 -30.84178162 284.75569153 C-30.83684364 283.797577 -30.83190566 282.83946247 -30.82681805 281.85231417 C-30.81140671 278.62786294 -30.80307258 275.40343166 -30.79467773 272.17895508 C-30.78510207 269.87312137 -30.77509218 267.56728943 -30.76467896 265.26145935 C-30.73759007 258.98912104 -30.71660208 252.71677517 -30.69667697 246.44441056 C-30.67484196 239.8940532 -30.64744113 233.34371924 -30.62062073 226.79338074 C-30.57617723 215.79496339 -30.53551213 204.79653641 -30.49731445 193.7980957 C-30.45795893 182.46898461 -30.41653257 171.13988422 -30.37231445 159.81079102 C-30.36959018 159.11262222 -30.36686591 158.41445343 -30.36405908 157.695128 C-30.3503796 154.1926671 -30.33665932 150.69020635 -30.32291877 147.18774569 C-30.20895583 118.12518638 -30.10221938 89.06260293 -30 60 C-35.28 60 -40.56 60 -46 60 C-46 86.4 -46 112.8 -46 140 C-68.91086058 137.13614243 -86.38592371 129.84383725 -101.3203125 112.26953125 C-114.90833277 94.36744371 -120.60226085 73.1829266 -117.73193359 50.92089844 C-114.20892586 31.23789908 -102.52227345 14.19037157 -87 2 C-61.66331182 -15.18200588 -25.50411638 -19.23994745 0 0 Z " fill="#07D074" transform="translate(150,108)"/>
<path d="M0 0 C10.46526326 6.81853457 17.89519715 16.11085867 21.625 28.1328125 C22.2008193 30.87595166 22.53624055 33.51808106 22.75 36.3125 C22.83121094 37.35277344 22.91242188 38.39304688 22.99609375 39.46484375 C23.54791603 53.52795101 18.14512351 65.68105173 8.75 76 C1.41890041 82.9956086 -7.26211015 86.88565859 -17.25 88.3125 C-17.25 67.5225 -17.25 46.7325 -17.25 25.3125 C-22.53 25.3125 -27.81 25.3125 -33.25 25.3125 C-33.16572006 50.50338662 -33.07101572 75.69420958 -32.96247292 100.88500404 C-32.91233813 112.58136307 -32.86589526 124.27771506 -32.828125 135.97412109 C-32.79519746 146.16797751 -32.75536194 156.36177944 -32.70720994 166.55557573 C-32.68195262 171.95375165 -32.660169 177.35189147 -32.64665604 182.75011063 C-32.63382883 187.83079575 -32.61176711 192.91135699 -32.58261681 197.99197388 C-32.57354623 199.85678137 -32.56785201 201.72160881 -32.56578636 203.58643723 C-32.56246019 206.13309303 -32.54697306 208.67939837 -32.5284729 211.22598267 C-32.531375 212.33203305 -32.531375 212.33203305 -32.53433573 213.46042788 C-32.48445368 218.05558878 -31.76798686 220.75853942 -30.25 225.3125 C-34.87 225.3125 -39.49 225.3125 -44.25 225.3125 C-43.26 222.3425 -43.26 222.3425 -42.25 219.3125 C-41.95417021 216.35252519 -41.95417021 216.35252519 -41.99603271 213.258255 C-41.99039307 212.06794678 -41.98475342 210.87763855 -41.97894287 209.65126038 C-41.98299133 208.35909103 -41.98703979 207.06692169 -41.99121094 205.7355957 C-41.98849864 204.35043148 -41.98493637 202.9652687 -41.98059082 201.58010864 C-41.97149542 197.83034593 -41.9749986 194.08069361 -41.98134899 190.33092904 C-41.98642071 186.40455092 -41.98171456 182.47818209 -41.97857666 178.55180359 C-41.97494172 171.96217149 -41.97972506 165.37258427 -41.98925781 158.78295898 C-42.00015502 151.16206949 -41.99660573 143.5412869 -41.985605 135.92039996 C-41.97653482 129.37505404 -41.97524512 122.82974033 -41.98048234 116.28439015 C-41.98360178 112.3758835 -41.98401182 108.46742715 -41.97740936 104.55892372 C-41.97163996 100.8874535 -41.97562525 97.21612154 -41.98719788 93.54466629 C-41.99111089 91.55216411 -41.98515631 89.55965026 -41.97894287 87.56715393 C-41.98458252 86.38530518 -41.99022217 85.20345642 -41.99603271 83.98579407 C-41.99678677 82.95656987 -41.99754082 81.92734568 -41.99831772 80.86693287 C-42.07162154 78.07042188 -42.07162154 78.07042188 -44.25 75.3125 C-47.3630212 74.16322808 -47.3630212 74.16322808 -51.0859375 73.3046875 C-51.7616983 73.13373566 -52.43745911 72.96278381 -53.13369751 72.78665161 C-55.29488755 72.24260653 -57.45969094 71.71488544 -59.625 71.1875 C-61.07578832 70.82528846 -62.526313 70.46201916 -63.9765625 70.09765625 C-67.73137254 69.1569117 -71.49022246 68.23320453 -75.25 67.3125 C-76.57 66.9825 -77.89 66.6525 -79.25 66.3125 C-80.24 70.9325 -81.23 75.5525 -82.25 80.3125 C-79.79433594 80.94478516 -79.79433594 80.94478516 -77.2890625 81.58984375 C-75.15101119 82.14311141 -73.01299201 82.69650325 -70.875 83.25 C-69.79476562 83.52779297 -68.71453125 83.80558594 -67.6015625 84.09179688 C-66.5703125 84.35927734 -65.5390625 84.62675781 -64.4765625 84.90234375 C-63.52346191 85.14847412 -62.57036133 85.39460449 -61.58837891 85.64819336 C-59.25 86.3125 -59.25 86.3125 -57.25 87.3125 C-57.25 87.9725 -57.25 88.6325 -57.25 89.3125 C-62.63935067 89.41202633 -68.0281561 89.48427659 -73.41821289 89.53222656 C-75.24838593 89.55223374 -77.07849592 89.57944851 -78.90844727 89.61425781 C-81.55240512 89.66326003 -84.19551165 89.68557761 -86.83984375 89.703125 C-88.04978249 89.73409271 -88.04978249 89.73409271 -89.28416443 89.76568604 C-98.39157902 89.7692131 -106.79177699 85.70274171 -113.25 79.3125 C-119.96578524 70.16950192 -122.33666484 61.61381429 -121.25 50.3125 C-120.35767452 46.98655958 -119.03969012 44.24513863 -117.25 41.3125 C-116.82589844 40.61382812 -116.40179688 39.91515625 -115.96484375 39.1953125 C-111.34697955 32.37785281 -104.41564365 27.01367576 -96.25 25.3125 C-93.2280254 25.17287081 -90.27897061 25.22071301 -87.25 25.3125 C-87.91 30.5925 -88.57 35.8725 -89.25 41.3125 C-83.97 41.3125 -78.69 41.3125 -73.25 41.3125 C-73.3325 40.054375 -73.415 38.79625 -73.5 37.5 C-73.46376798 25.94198634 -66.83730197 14.90528015 -59.1875 6.625 C-42.58975361 -9.21447371 -19.63143796 -10.8425942 0 0 Z " fill="#07CF73" transform="translate(457.25,190.6875)"/>
<path d="M0 0 C1.50626953 0.02707031 1.50626953 0.02707031 3.04296875 0.0546875 C5.48802652 0.10126003 7.93096812 0.16662972 10.375 0.25 C10.65501045 11.15146524 10.86723713 22.05205361 10.99674606 32.95640373 C11.0589573 38.02188419 11.14309551 43.08487696 11.28027344 48.14892578 C11.41220949 53.05104497 11.48272301 57.9507974 11.51352692 62.85455704 C11.53542975 64.71008648 11.57819376 66.56550962 11.64376068 68.42000961 C12.10908519 82.14743453 9.33265287 92.28250309 -0.00730133 102.72881699 C-3.02257022 105.56418794 -5.6290051 106.29561587 -9.6930542 106.28933716 C-10.59356506 106.19643402 -11.49407593 106.10353088 -12.421875 106.0078125 C-13.38152161 105.98234344 -14.34116821 105.95687439 -15.32989502 105.93063354 C-18.35585616 105.83085928 -21.3565052 105.60581469 -24.375 105.375 C-26.43975325 105.28456575 -28.50488905 105.20246122 -30.5703125 105.12890625 C-35.59809478 104.93185246 -40.60728406 104.62241358 -45.625 104.25 C-45.625 106.89 -45.625 109.53 -45.625 112.25 C-50.905 112.25 -56.185 112.25 -61.625 112.25 C-61.625 114.89 -61.625 117.53 -61.625 120.25 C-66.905 120.25 -72.185 120.25 -77.625 120.25 C-77.625 88.57 -77.625 56.89 -77.625 24.25 C-67.23 23.755 -67.23 23.755 -56.625 23.25 C-43.62745181 20.9202508 -34.46670106 15.48439323 -24.83984375 6.6171875 C-17.0242842 0.86235264 -9.5264256 -0.33069034 0 0 Z " fill="#01C169" transform="translate(93.625,311.75)"/>
<path d="M0 0 C5.28 0 10.56 0 16 0 C16.01981934 1.25135742 16.03963867 2.50271484 16.06005859 3.79199219 C16.13615293 8.436402 16.22486463 13.08050008 16.31738281 17.72460938 C16.35565669 19.73431238 16.39051236 21.74408351 16.421875 23.75390625 C16.46755991 26.6434768 16.52554887 29.53257896 16.5859375 32.421875 C16.59748871 33.31992859 16.60903992 34.21798218 16.62094116 35.14324951 C16.64081085 35.98381897 16.66068054 36.82438843 16.68115234 37.69042969 C16.69447601 38.42767273 16.70779968 39.16491577 16.7215271 39.92449951 C17.04713376 42.35129499 17.66721387 43.94704258 19 46 C23.67105679 47.63885961 26.37975337 47.0925894 30.87109375 45.11328125 C32.73555816 44.19778465 34.59062234 43.26297592 36.4375 42.3125 C37.42580811 41.82225342 38.41411621 41.33200684 39.43237305 40.8269043 C42.63078687 39.23561487 45.81566204 37.61925153 49 36 C52.36100501 34.30736565 55.72390024 32.61857883 59.08813477 30.93237305 C61.2140563 29.86434175 63.3370264 28.79041236 65.45678711 27.71020508 C66.41593018 27.22447021 67.37507324 26.73873535 68.36328125 26.23828125 C69.21188721 25.80555908 70.06049316 25.37283691 70.93481445 24.92700195 C73 24 73 24 75 24 C75.69670416 25.78810766 76.38211189 27.58062052 77.0625 29.375 C77.44535156 30.37273437 77.82820313 31.37046875 78.22265625 32.3984375 C79 35 79 35 78 37 C77.01 36.01 76.02 35.02 75 34 C74.26177002 34.4218457 73.52354004 34.84369141 72.76293945 35.27832031 C71.14237804 36.20435541 69.52181527 37.13038813 67.90122986 38.05638123 C64.75851915 39.85213567 61.61595012 41.64813731 58.47363281 43.44458008 C52.56727458 46.82089961 46.65992548 50.19537306 40.74609375 53.55859375 C39.81047607 54.09129883 38.8748584 54.62400391 37.91088867 55.17285156 C36.19176971 56.15141969 34.47192995 57.12872311 32.7512207 58.10449219 C28.96791598 60.25967291 25.20558635 62.44607342 21.484375 64.70703125 C20.83694336 65.09995361 20.18951172 65.49287598 19.52246094 65.89770508 C17.83823375 66.93836029 17.83823375 66.93836029 17 69 C16.89490476 71.14603569 16.85605017 73.29540052 16.84609985 75.44398499 C16.8417176 76.11312988 16.83733535 76.78227478 16.8328203 77.47169679 C16.81941472 79.72470495 16.81324942 81.97767398 16.80712891 84.23071289 C16.79922907 85.84200213 16.79096019 87.4532896 16.78234863 89.0645752 C16.75610598 94.36725164 16.74081474 99.66993606 16.7265625 104.97265625 C16.72120298 106.79821719 16.71582547 108.62377808 16.71043015 110.44933891 C16.68879453 118.04553194 16.67005957 125.64172283 16.65880775 133.23793888 C16.64258195 144.12072078 16.60944534 155.00314484 16.55240691 165.88579184 C16.5136673 173.53856345 16.49417007 181.19123954 16.48888719 188.84410661 C16.48523807 193.41364457 16.47326452 197.98280108 16.44078445 202.55223274 C16.41063443 206.85579086 16.40441649 211.15873816 16.41616821 215.46237946 C16.4163884 217.03731759 16.40812901 218.61228461 16.39051437 220.18712425 C16.29744682 228.99109189 16.71653423 235.69191687 22 243 C23.485 245.475 23.485 245.475 25 248 C13.78 248 2.56 248 -9 248 C-5.535 242.555 -5.535 242.555 -2 237 C-1.10020328 234.30060983 -0.87170749 232.74590114 -0.8613348 229.97639179 C-0.85586036 229.15530408 -0.85038591 228.33421637 -0.84474558 227.48824722 C-0.84376747 226.58650384 -0.84278936 225.68476046 -0.84178162 224.75569153 C-0.83684364 223.797577 -0.83190566 222.83946247 -0.82681805 221.85231417 C-0.81140671 218.62786294 -0.80307258 215.40343166 -0.79467773 212.17895508 C-0.78510207 209.87312137 -0.77509218 207.56728943 -0.76467896 205.26145935 C-0.73759007 198.98912104 -0.71660208 192.71677517 -0.69667697 186.44441056 C-0.67484196 179.8940532 -0.64744113 173.34371924 -0.62062073 166.79338074 C-0.57617723 155.79496339 -0.53551213 144.79653641 -0.49731445 133.7980957 C-0.45795893 122.46898461 -0.41653257 111.13988422 -0.37231445 99.81079102 C-0.36959018 99.11262222 -0.36686591 98.41445343 -0.36405908 97.695128 C-0.3503796 94.1926671 -0.33665932 90.69020635 -0.32291877 87.18774569 C-0.20895583 58.12518638 -0.10221938 29.06260293 0 0 Z " fill="#DA8537" transform="translate(120,168)"/>
<path d="M0 0 C4.95 0 9.9 0 15 0 C15.65226562 1.24394531 16.30453125 2.48789062 16.9765625 3.76953125 C19.22604376 8.05577482 21.48249007 12.33830228 23.74316406 16.61865234 C24.50708957 18.06607452 25.26979409 19.51414314 26.03027344 20.96337891 C26.84796154 22.52018247 27.67354735 24.07283146 28.5 25.625 C28.9434375 26.46289062 29.386875 27.30078125 29.84375 28.1640625 C30.87516419 30.15363036 30.87516419 30.15363036 33 31 C35.80986836 31.1209391 38.59913661 31.18573965 41.41015625 31.2109375 C43.13998302 31.2390311 44.86980058 31.2676957 46.59960938 31.296875 C49.32250464 31.3379421 52.04523285 31.37483174 54.76831055 31.40136719 C57.3992871 31.42922091 60.02948605 31.47511617 62.66015625 31.5234375 C63.46050797 31.52669037 64.26085968 31.52994324 65.08546448 31.53329468 C71.5704572 31.672156 77.82631872 32.84233373 83.26953125 36.54296875 C83.77871094 37.08566406 84.28789062 37.62835938 84.8125 38.1875 C85.33457031 38.71730469 85.85664063 39.24710937 86.39453125 39.79296875 C92.32330264 47.94322626 92.54592376 54.45280975 92.390625 64.34375 C92.38315155 65.72236302 92.37746384 67.10098676 92.37347412 68.47961426 C92.35830419 72.08343565 92.31909968 75.68659772 92.2746582 79.29016113 C92.23351681 82.97720423 92.21542314 86.66435533 92.1953125 90.3515625 C92.15259471 97.56800679 92.08445134 104.78391052 92 112 C91.01 112 90.02 112 89 112 C88.58637207 110.95545654 88.17274414 109.91091309 87.74658203 108.8347168 C86.2107009 104.95880714 84.67025195 101.08472668 83.12841797 97.21118164 C82.4618053 95.53459401 81.79643158 93.85751322 81.13232422 92.17993164 C80.1774116 89.76838475 79.21805409 87.35864784 78.2578125 84.94921875 C77.96190216 84.19912033 77.66599182 83.44902191 77.3611145 82.67619324 C76.11022957 79.54830639 74.87574265 76.81361397 73 74 C68.56092566 72.52030855 64.2132164 72.73441375 59.5625 72.6875 C58.60794922 72.65849609 57.65339844 72.62949219 56.66992188 72.59960938 C55.74888672 72.59123047 54.82785156 72.58285156 53.87890625 72.57421875 C53.0391626 72.55963623 52.19941895 72.54505371 51.33422852 72.5300293 C48.03789338 73.19370937 47.05272536 74.33987565 45 77 C43.65654157 79.61172373 42.59753765 82.30628976 41.546875 85.046875 C41.24179016 85.81807678 40.93670532 86.58927856 40.62237549 87.3838501 C39.65509292 89.83550425 38.70239599 92.29252973 37.75 94.75 C37.0947061 96.4183446 36.43846632 98.08631802 35.78125 99.75390625 C34.17651319 103.83171975 32.58482872 107.91441037 31 112 C30.01 112 29.02 112 28 112 C27.9906543 110.71834961 27.98130859 109.43669922 27.97167969 108.11621094 C27.93179939 103.35983558 27.86604585 98.60410838 27.79248047 93.84814453 C27.76425951 91.78996102 27.74305059 89.7316689 27.72900391 87.67333984 C27.7075901 84.71395215 27.66094779 81.7558718 27.609375 78.796875 C27.60814636 77.87694763 27.60691772 76.95702026 27.60565186 76.00921631 C27.54364878 70.8714735 27.54364878 70.8714735 25.08911133 66.49023438 C24.05500122 65.75256836 24.05500122 65.75256836 23 65 C22.32839844 64.45859375 21.65679687 63.9171875 20.96484375 63.359375 C19.61673455 62.28919968 18.26255477 61.22662596 16.90234375 60.171875 C12.12064798 54.71269051 11.58937951 48.32514204 11.734375 41.40625 C11.73160474 39.78254975 11.72766296 38.15885115 11.72265625 36.53515625 C11.73100402 34.01363809 11.75010605 31.4933855 11.79052734 28.97216797 C12.37593888 17.80621153 12.37593888 17.80621153 7.703125 8.15625 C6.47806235 7.09333773 5.24329659 6.04152512 4 5 C2.68 3.35 1.36 1.7 0 0 Z " fill="#FDC330" transform="translate(284,304)"/>
<path d="M0 0 C9.2949852 2.02837891 9.2949852 2.02837891 13.55859375 3.21875 C28.22324333 7.06983492 40.26945288 7.78995791 56 9 C56 30.12 56 51.24 56 73 C50.72 73 45.44 73 40 73 C40 70.36 40 67.72 40 65 C34.72 65 29.44 65 24 65 C24 62.36 24 59.72 24 57 C17.73 57 11.46 57 5 57 C0.37810834 49.90883474 -0.70379959 45.00158224 -0.48828125 36.62109375 C-0.48120651 35.56841812 -0.47413177 34.51574249 -0.46684265 33.4311676 C-0.43905879 30.09919395 -0.37634873 26.76895783 -0.3125 23.4375 C-0.28739652 21.16604005 -0.26458697 18.89455352 -0.24414062 16.62304688 C-0.18928506 11.0814476 -0.10582105 5.54084798 0 0 Z " fill="#01C069" transform="translate(440,359)"/>
<path d="M0 0 C0.20753906 0.89460938 0.41507812 1.78921875 0.62890625 2.7109375 C2.7041357 10.85556188 5.27776139 17.64724445 11 24 C11.85368164 24.4964502 12.70736328 24.99290039 13.58691406 25.50439453 C16.76498314 28.79114302 16.56879866 30.76185103 16.5657959 35.19873047 C16.54021606 36.12830566 16.51463623 37.05788086 16.48828125 38.015625 C16.48324585 38.87655762 16.47821045 39.73749023 16.47302246 40.62451172 C16.44690797 43.83334769 16.37710032 47.04170808 16.3125 50.25 C16.209375 57.4275 16.10625 64.605 16 72 C-2.48 72 -20.96 72 -40 72 C-40 65.4 -40 58.8 -40 52 C-37.69 50.02 -35.38 48.04 -33 46 C-27.26521966 38.31018091 -24.9123047 30.68517453 -25.00390625 21.07617188 C-24.99116639 14.30493858 -24.03286087 9.46181427 -19.25 4.5 C-13.13770229 -0.87336027 -7.83649829 -1.23340752 0 0 Z " fill="#01C069" transform="translate(280,352)"/>
<path d="M0 0 C3.20723004 0.23525442 6.17503385 0.70469936 9.30175781 1.47216797 C8.92664063 1.90787109 8.55152344 2.34357422 8.16503906 2.79248047 C7.65328125 3.38802734 7.14152344 3.98357422 6.61425781 4.59716797 C6.11539063 5.17724609 5.61652344 5.75732422 5.10253906 6.35498047 C4.50828125 7.05365234 3.91402344 7.75232422 3.30175781 8.47216797 C2.42003906 9.32939453 1.53832031 10.18662109 0.62988281 11.06982422 C-2.78228335 15.17702555 -2.32955945 19.66683683 -2.26074219 24.78466797 C-2.18663071 32.73739957 -2.63389633 40.29853253 -8.4777832 46.29956055 C-9.59458409 47.26358776 -10.740591 48.19512741 -11.91699219 49.08544922 C-16.3457629 52.44047383 -16.3457629 52.44047383 -18.30761719 57.48779297 C-18.35402344 58.55513672 -18.40042969 59.62248047 -18.44824219 60.72216797 C-18.53332031 62.33865234 -18.53332031 62.33865234 -18.62011719 63.98779297 C-18.65878906 65.21755859 -18.65878906 65.21755859 -18.69824219 66.47216797 C-22.11566161 62.37126466 -25.06462521 58.02300333 -28.01464844 53.58154297 C-29.60028971 51.20248556 -29.60028971 51.20248556 -32.69824219 50.47216797 C-36.17264425 50.19324631 -39.65136984 50.19481631 -43.13574219 50.15966797 C-44.09029297 50.13066406 -45.04484375 50.10166016 -46.02832031 50.07177734 C-51.343556 49.98155125 -51.343556 49.98155125 -56.16699219 51.91748047 C-58.3951523 55.63487005 -59.55273452 59.51467132 -60.76074219 63.65966797 C-61.24042729 65.30230315 -61.73080228 66.94186619 -62.23339844 68.57763672 C-62.54869507 69.66274536 -62.54869507 69.66274536 -62.87036133 70.76977539 C-63.14356201 71.33156494 -63.4167627 71.89335449 -63.69824219 72.47216797 C-65.18324219 72.96716797 -65.18324219 72.96716797 -66.69824219 73.47216797 C-66.82263593 68.63420809 -66.91295009 63.79719616 -66.97290039 58.95800781 C-66.99791273 57.31493903 -67.03193445 55.67198003 -67.07543945 54.02929688 C-67.51206814 37.10865119 -67.51206814 37.10865119 -63.27416992 31.94995117 C-62.75411377 31.46228271 -62.23405762 30.97461426 -61.69824219 30.47216797 C-60.90945679 29.7048938 -60.90945679 29.7048938 -60.10473633 28.92211914 C-53.90880202 24.07126064 -46.46625198 24.76600359 -38.94824219 24.78466797 C-36.34921898 24.76808931 -33.75023057 24.74369977 -31.15136719 24.71044922 C-30.00829102 24.71085205 -28.86521484 24.71125488 -27.6875 24.71166992 C-24.68314116 24.47095806 -23.12379817 24.22503199 -20.69824219 22.47216797 C-19.13577355 20.29253231 -19.13577355 20.29253231 -17.80761719 17.68310547 C-7.90081866 0.30387764 -7.90081866 0.30387764 0 0 Z " fill="#FDC230" transform="translate(242.6982421875,342.52783203125)"/>
<path d="M0 0 C2.64 0 5.28 0 8 0 C8.00331015 0.99429331 8.00662029 1.98858662 8.01003075 3.01301003 C8.09100295 27.19955877 8.18331179 51.38604397 8.28752708 75.57250404 C8.33766187 87.26886307 8.38410474 98.96521506 8.421875 110.66162109 C8.45480254 120.85547751 8.49463806 131.04927944 8.54279006 141.24307573 C8.56804738 146.64125165 8.589831 152.03939147 8.60334396 157.43761063 C8.61617117 162.51829575 8.63823289 167.59885699 8.66738319 172.67947388 C8.67645377 174.54428137 8.68214799 176.40910881 8.68421364 178.27393723 C8.68753981 180.82059303 8.70302694 183.36689837 8.7215271 185.91348267 C8.71959237 186.65084959 8.71765763 187.38821651 8.71566427 188.14792788 C8.76554632 192.74308878 9.48201314 195.44603942 11 200 C6.38 200 1.76 200 -3 200 C-2.01 197.03 -2.01 197.03 -1 194 C-0.70417021 191.04002519 -0.70417021 191.04002519 -0.74603271 187.945755 C-0.73757324 186.16029266 -0.73757324 186.16029266 -0.72894287 184.33876038 C-0.73299133 183.04659103 -0.73703979 181.75442169 -0.74121094 180.4230957 C-0.73849864 179.03793148 -0.73493637 177.6527687 -0.73059082 176.26760864 C-0.72149542 172.51784593 -0.7249986 168.76819361 -0.73134899 165.01842904 C-0.73642071 161.09205092 -0.73171456 157.16568209 -0.72857666 153.23930359 C-0.72494172 146.64967149 -0.72972506 140.06008427 -0.73925781 133.47045898 C-0.75015502 125.84956949 -0.74660573 118.2287869 -0.735605 110.60789996 C-0.72653482 104.06255404 -0.72524512 97.51724033 -0.73048234 90.97189015 C-0.73360178 87.0633835 -0.73401182 83.15492715 -0.72740936 79.24642372 C-0.72163996 75.5749535 -0.72562525 71.90362154 -0.73719788 68.23216629 C-0.74111089 66.23966411 -0.73515631 64.24715026 -0.72894287 62.25465393 C-0.73458252 61.07280518 -0.74022217 59.89095642 -0.74603271 58.67329407 C-0.74678677 57.64406987 -0.74754082 56.61484568 -0.74831772 55.55443287 C-0.82162154 52.75792188 -0.82162154 52.75792188 -3 50 C-6.13015828 48.86708572 -6.13015828 48.86708572 -9.87109375 48.02734375 C-10.54922623 47.85876358 -11.2273587 47.69018341 -11.92604065 47.51649475 C-14.09397235 46.97904267 -16.26527548 46.45730547 -18.4375 45.9375 C-20.60557326 45.41213235 -22.77267532 44.88337929 -24.93824768 44.34779358 C-26.90546096 43.86221516 -28.87540632 43.38774553 -30.84545898 42.91381836 C-34 42 -34 42 -37 40 C-36.34 37.03 -35.68 34.06 -35 31 C-33.95658447 31.36351562 -33.95658447 31.36351562 -32.89208984 31.734375 C-29.72294218 32.83246381 -26.54910784 33.91633688 -23.375 35 C-21.73337891 35.57234375 -21.73337891 35.57234375 -20.05859375 36.15625 C-18.99511719 36.5171875 -17.93164062 36.878125 -16.8359375 37.25 C-15.86188965 37.58515625 -14.8878418 37.9203125 -13.88427734 38.265625 C-10.76061032 39.06095176 -8.21019656 39.2665446 -5 39 C-1.75150023 37.27773504 -1.75150023 37.27773504 -1 34 C-0.84677641 31.41669771 -0.74293111 28.85507761 -0.68359375 26.26953125 C-0.66281265 25.51911057 -0.64203156 24.76868988 -0.62062073 23.99552917 C-0.55530074 21.60127816 -0.49632208 19.20691861 -0.4375 16.8125 C-0.39429807 15.18813987 -0.35068324 13.56379067 -0.30664062 11.93945312 C-0.19963737 7.95974629 -0.09832063 3.97993042 0 0 Z " fill="#D98537" transform="translate(416,216)"/>
<path d="M0 0 C1.57976852 0.44736138 3.15750395 0.90190535 4.734375 1.359375 C5.61319336 1.61170898 6.49201172 1.86404297 7.39746094 2.12402344 C16.25112574 5.10403744 21.69498334 11.79114773 27.75878906 18.52148438 C32.3296787 23.50655663 36.86436563 27.07006224 43 30 C43.94875 30.556875 44.8975 31.11375 45.875 31.6875 C50.74948413 33.73478334 55.85527613 34.82620378 61 36 C60.67 36.99 60.34 37.98 60 39 C59.29504395 39.0093457 58.59008789 39.01869141 57.86376953 39.02832031 C54.61684848 39.08256862 51.37128512 39.16610724 48.125 39.25 C47.01640625 39.26417969 45.9078125 39.27835937 44.765625 39.29296875 C35.0405714 39.57899974 25.09228061 41.84112521 18 49 C12.24886111 56.67600987 8.83453619 63.45308844 8.5859375 73.1484375 C8.56657135 73.80582916 8.5472052 74.46322083 8.5272522 75.14053345 C8.46797539 77.21856135 8.42128206 79.29664624 8.375 81.375 C8.33677222 82.7929915 8.29771777 84.21096097 8.2578125 85.62890625 C8.16231829 89.08573461 8.07809811 92.54272983 8 96 C6.64316249 94.3524116 5.31543279 92.68083079 4 91 C3.30295959 90.12568329 2.60591919 89.25136658 1.88775635 88.35055542 C-0.3960354 84.29708165 -0.53820699 81.03828198 -0.45410156 76.51611328 C-0.45468567 75.68618362 -0.45526978 74.85625397 -0.45587158 74.00117493 C-0.45309772 71.2737867 -0.42203951 68.54750842 -0.390625 65.8203125 C-0.38316011 63.92317298 -0.37746835 62.02602573 -0.37347412 60.12887573 C-0.35823731 55.14744597 -0.31897231 50.16648634 -0.2746582 45.1852417 C-0.23366336 40.09751748 -0.21545411 35.00971695 -0.1953125 29.921875 C-0.15247618 19.94771067 -0.08424849 9.9738945 0 0 Z " fill="#01C068" transform="translate(152,313)"/>
<path d="M0 0 C0.59296875 0.47179687 1.1859375 0.94359375 1.796875 1.4296875 C4.69846883 3.96760618 4.69846883 3.96760618 7.484375 3.1796875 C8.309375 2.6640625 9.134375 2.1484375 9.984375 1.6171875 C17.84997505 -3.04390883 25.18367846 -5.86877012 34.43359375 -3.84765625 C39.98043777 -2.29318082 44.91629687 -0.10455816 49.984375 2.6171875 C48.33870977 8.30221285 45.69404716 13.38400386 42.984375 18.6171875 C42.12714844 18.24464844 41.26992188 17.87210938 40.38671875 17.48828125 C31.89780796 13.65216698 31.89780796 13.65216698 22.984375 14.6171875 C17.58341206 17.58242205 16.51136691 20.42735727 14.796875 26.3046875 C14.37341797 28.01205078 14.37341797 28.01205078 13.94140625 29.75390625 C12.984375 32.6171875 12.984375 32.6171875 9.984375 34.6171875 C2.85830473 35.29586086 2.85830473 35.29586086 -0.18359375 32.93359375 C-2.27340068 30.29125791 -2.76187791 28.46466322 -3.390625 25.1796875 C-4.28885048 21.56263975 -4.96161578 19.02173021 -7.765625 16.4921875 C-11.55983567 14.30321981 -13.620517 13.5439357 -18.015625 13.6171875 C-21.4698081 14.70715076 -24.71770954 16.12966619 -28.015625 17.6171875 C-29.005625 17.9471875 -29.995625 18.2771875 -31.015625 18.6171875 C-32.18716793 16.32789697 -33.35300574 14.03600388 -34.515625 11.7421875 C-34.84949219 11.09121094 -35.18335938 10.44023437 -35.52734375 9.76953125 C-38.015625 4.84375 -38.015625 4.84375 -38.015625 2.6171875 C-35.95634544 1.63126595 -33.89305812 0.65371256 -31.828125 -0.3203125 C-30.67957031 -0.86558594 -29.53101563 -1.41085938 -28.34765625 -1.97265625 C-19.33537316 -5.78676433 -8.28843002 -5.6862485 0 0 Z " fill="#000000" transform="translate(386.015625,133.3828125)"/>
<path d="M0 0 C0.59296875 0.47179687 1.1859375 0.94359375 1.796875 1.4296875 C4.69846883 3.96760618 4.69846883 3.96760618 7.484375 3.1796875 C8.309375 2.6640625 9.134375 2.1484375 9.984375 1.6171875 C17.84997505 -3.04390883 25.18367846 -5.86877012 34.43359375 -3.84765625 C39.98043777 -2.29318082 44.91629687 -0.10455816 49.984375 2.6171875 C48.33870977 8.30221285 45.69404716 13.38400386 42.984375 18.6171875 C42.12714844 18.24464844 41.26992188 17.87210938 40.38671875 17.48828125 C31.89780796 13.65216698 31.89780796 13.65216698 22.984375 14.6171875 C17.58341206 17.58242205 16.51136691 20.42735727 14.796875 26.3046875 C14.37341797 28.01205078 14.37341797 28.01205078 13.94140625 29.75390625 C12.984375 32.6171875 12.984375 32.6171875 9.984375 34.6171875 C2.85830473 35.29586086 2.85830473 35.29586086 -0.18359375 32.93359375 C-2.27340068 30.29125791 -2.76187791 28.46466322 -3.390625 25.1796875 C-4.28885048 21.56263975 -4.96161578 19.02173021 -7.765625 16.4921875 C-11.55983567 14.30321981 -13.620517 13.5439357 -18.015625 13.6171875 C-21.4698081 14.70715076 -24.71770954 16.12966619 -28.015625 17.6171875 C-29.005625 17.9471875 -29.995625 18.2771875 -31.015625 18.6171875 C-32.18716793 16.32789697 -33.35300574 14.03600388 -34.515625 11.7421875 C-34.84949219 11.09121094 -35.18335938 10.44023438 -35.52734375 9.76953125 C-38.015625 4.84375 -38.015625 4.84375 -38.015625 2.6171875 C-35.95634544 1.63126595 -33.89305812 0.65371256 -31.828125 -0.3203125 C-30.67957031 -0.86558594 -29.53101563 -1.41085938 -28.34765625 -1.97265625 C-19.33537316 -5.78676433 -8.28843002 -5.6862485 0 0 Z " fill="#000000" transform="translate(314.015625,109.3828125)"/>
<path d="M0 0 C5.28 0 10.56 0 16 0 C16.33 8.58 16.66 17.16 17 26 C19.43117187 24.7728125 21.86234375 23.545625 24.3671875 22.28125 C26.71647832 21.09881162 29.06645525 19.91774775 31.41650391 18.73681641 C33.05264441 17.91370938 34.68806488 17.08916949 36.32275391 16.26318359 C38.66903023 15.07795122 41.01782585 13.8978523 43.3671875 12.71875 C44.10057343 12.34689575 44.83395935 11.9750415 45.58956909 11.59191895 C50.77225659 9 50.77225659 9 53 9 C54.00732399 10.93370231 55.00563288 12.87210306 56 14.8125 C56.556875 15.89144531 57.11375 16.97039062 57.6875 18.08203125 C59 21 59 21 59 24 C52.60397015 27.27430367 46.19846464 30.52946797 39.78613281 33.77172852 C37.60749019 34.87610285 35.43102437 35.98478269 33.25683594 37.09790039 C30.12481967 38.70044394 26.98520902 40.28715733 23.84375 41.87109375 C22.87884644 42.36902939 21.91394287 42.86696503 20.9197998 43.37998962 C15.51105652 46.08569291 11.08057866 47.82269251 5 48 C1.73288174 46.32455474 1.172189 45.51656699 0 42 C-0.08589303 40.60344541 -0.11772715 39.20314223 -0.11352539 37.80395508 C-0.11344986 36.96331009 -0.11337433 36.1226651 -0.11329651 35.25654602 C-0.10813522 34.35333115 -0.10297394 33.45011627 -0.09765625 32.51953125 C-0.0962413 31.59154221 -0.09482635 30.66355316 -0.09336853 29.70744324 C-0.08776937 26.74242942 -0.07521704 23.77749101 -0.0625 20.8125 C-0.05748489 18.80273547 -0.052922 16.79296975 -0.04882812 14.78320312 C-0.03780021 9.85543968 -0.02053617 4.92773263 0 0 Z " fill="#010100" transform="translate(136,168)"/>
<path d="M0 0 C5.28 0 10.56 0 16 0 C16.06900495 4.75111878 16.12869507 9.50048771 16.16479492 14.25170898 C16.17984876 15.86667789 16.20029648 17.48160613 16.22631836 19.09643555 C16.26285286 21.42246555 16.27976015 23.74795341 16.29296875 26.07421875 C16.30845261 26.79212082 16.32393646 27.51002289 16.33988953 28.24967957 C16.34136614 32.68310969 15.73671423 35.47899113 13 39 C8.92684697 41.03657652 3.62391698 39.46210996 -0.60986328 38.25732422 C-3.27947881 37.36252234 -5.92234646 36.41569335 -8.5625 35.4375 C-9.47580078 35.10814453 -10.38910156 34.77878906 -11.33007812 34.43945312 C-13.55674182 33.63505629 -15.77972744 32.82183701 -18 32 C-17.31421533 26.5070645 -16.05708887 22.09800284 -14 17 C-8.74768339 17.65653958 -5.22742388 19.03971604 0 21 C0 14.07 0 7.14 0 0 Z " fill="#010100" transform="translate(400,216)"/>
<path d="M0 0 C7.72257587 0.53878436 15.11420559 3.55710279 22 7 C22.11622294 16.10170601 22.20488088 25.20315372 22.25906086 34.30544186 C22.28507429 38.53275335 22.32031915 42.75955445 22.37719727 46.98657227 C22.43181481 51.07149278 22.46148252 55.15592464 22.47438622 59.24118233 C22.48357315 60.79403938 22.50151276 62.34687188 22.52865028 63.89951897 C22.6752491 72.64043748 22.55531942 79.81796526 17 87 C16.01 87 15.02 87 14 87 C13.99413376 86.24546539 13.98826752 85.49093079 13.98222351 84.71353149 C13.92405474 77.56438428 13.85184233 70.41557602 13.76428509 63.26673317 C13.7197665 59.59239568 13.68047116 55.91816435 13.65356445 52.24365234 C13.62734469 48.69023031 13.5868148 45.13722096 13.53681374 41.58405685 C13.51227939 39.58474883 13.50214885 37.58528052 13.49235535 35.58584595 C13.34160991 26.13839045 12.19921822 17.79452213 7.0625 9.6875 C6.54558594 8.86894531 6.02867187 8.05039062 5.49609375 7.20703125 C3.78989068 4.69004761 1.99192864 2.2983792 0 0 Z " fill="#01C069" transform="translate(378,329)"/>
<path d="M0 0 C1.98 0 3.96 0 6 0 C7.71337833 4.23407987 9.42225627 8.46993692 11.12695312 12.70751953 C11.70774363 14.14942616 12.28977 15.59083563 12.87304688 17.03173828 C13.71027311 19.10059835 14.54306709 21.17119419 15.375 23.2421875 C15.63748535 23.88807831 15.8999707 24.53396912 16.17041016 25.19943237 C18 29.77225659 18 29.77225659 18 32 C8.1 32 -1.8 32 -12 32 C-8.625 20.75 -8.625 20.75 -6.73828125 16.2109375 C-6.34189453 15.25058594 -5.94550781 14.29023438 -5.53710938 13.30078125 C-5.13298828 12.33527344 -4.72886719 11.36976563 -4.3125 10.375 C-3.68891602 8.86873047 -3.68891602 8.86873047 -3.05273438 7.33203125 C-2.03945904 4.88619424 -1.02183204 2.4422715 0 0 Z " fill="#01BF68" transform="translate(341,392)"/>
<path d="M0 0 C3.28116554 2.09315732 5.81535939 4.78606734 8.515625 7.5703125 C9.06992187 8.13363281 9.62421875 8.69695312 10.1953125 9.27734375 C11.55666985 10.66217278 12.91177359 12.05314454 14.265625 13.4453125 C12.82137865 16.68392553 11.00790253 19.06500413 8.640625 21.6953125 C8.00898437 22.40171875 7.37734375 23.108125 6.7265625 23.8359375 C6.24445312 24.36703125 5.76234375 24.898125 5.265625 25.4453125 C0.33066828 24.55225643 -2.11535364 21.57930233 -5.546875 18.1328125 C-6.15724609 17.55080078 -6.76761719 16.96878906 -7.39648438 16.36914062 C-7.96818359 15.80001953 -8.53988281 15.23089844 -9.12890625 14.64453125 C-9.65331299 14.12721436 -10.17771973 13.60989746 -10.71801758 13.0769043 C-11.734375 11.4453125 -11.734375 11.4453125 -11.49462891 9.36328125 C-10.52393603 6.91441702 -9.1932831 5.57536787 -7.296875 3.7578125 C-6.67941406 3.15582031 -6.06195313 2.55382812 -5.42578125 1.93359375 C-2.36769822 -0.75723682 -2.36769822 -0.75723682 0 0 Z " fill="#000704" transform="translate(38.734375,371.5546875)"/>
<path d="M0 0 C3.28116554 2.09315732 5.81535939 4.78606734 8.515625 7.5703125 C9.06992187 8.13363281 9.62421875 8.69695312 10.1953125 9.27734375 C11.55666985 10.66217278 12.91177359 12.05314454 14.265625 13.4453125 C12.82137865 16.68392553 11.00790253 19.06500413 8.640625 21.6953125 C8.00898437 22.40171875 7.37734375 23.108125 6.7265625 23.8359375 C6.24445312 24.36703125 5.76234375 24.898125 5.265625 25.4453125 C0.33066828 24.55225643 -2.11535364 21.57930233 -5.546875 18.1328125 C-6.15724609 17.55080078 -6.76761719 16.96878906 -7.39648438 16.36914062 C-7.96818359 15.80001953 -8.53988281 15.23089844 -9.12890625 14.64453125 C-9.65331299 14.12721436 -10.17771973 13.60989746 -10.71801758 13.0769043 C-11.734375 11.4453125 -11.734375 11.4453125 -11.49462891 9.36328125 C-10.52393603 6.91441702 -9.1932831 5.57536787 -7.296875 3.7578125 C-6.67941406 3.15582031 -6.06195313 2.55382812 -5.42578125 1.93359375 C-2.36769822 -0.75723682 -2.36769822 -0.75723682 0 0 Z " fill="#000704" transform="translate(54.734375,355.5546875)"/>
<path d="M0 0 C5.68502535 1.64566523 10.76681636 4.29032784 16 7 C15.39644592 10.85025879 14.23227397 13.86101159 12.4375 17.3125 C11.98246094 18.19550781 11.52742188 19.07851563 11.05859375 19.98828125 C10.70925781 20.65214844 10.35992187 21.31601562 10 22 C4.31497465 20.35433477 -0.76681636 17.70967216 -6 15 C-5.39644592 11.14974121 -4.23227397 8.13898841 -2.4375 4.6875 C-1.98246094 3.80449219 -1.52742188 2.92148437 -1.05859375 2.01171875 C-0.53458984 1.01591797 -0.53458984 1.01591797 0 0 Z " fill="#000503" transform="translate(267,393)"/>
<path d="M0 0 C3.85025879 0.60355408 6.86101159 1.76772603 10.3125 3.5625 C11.19550781 4.01753906 12.07851563 4.47257812 12.98828125 4.94140625 C13.98408203 5.46541016 13.98408203 5.46541016 15 6 C13.35433477 11.68502535 10.70967216 16.76681636 8 22 C4.14974121 21.39644592 1.13898841 20.23227397 -2.3125 18.4375 C-3.19550781 17.98246094 -4.07851563 17.52742188 -4.98828125 17.05859375 C-5.65214844 16.70925781 -6.31601562 16.35992187 -7 16 C-5.35433477 10.31497465 -2.70967216 5.23318364 0 0 Z " fill="#000503" transform="translate(480,381)"/>
<path d="M0 0 C3.85025879 0.60355408 6.86101159 1.76772603 10.3125 3.5625 C11.19550781 4.01753906 12.07851563 4.47257812 12.98828125 4.94140625 C13.98408203 5.46541016 13.98408203 5.46541016 15 6 C13.35433477 11.68502535 10.70967216 16.76681636 8 22 C4.14974121 21.39644592 1.13898841 20.23227397 -2.3125 18.4375 C-3.19550781 17.98246094 -4.07851563 17.52742188 -4.98828125 17.05859375 C-5.65214844 16.70925781 -6.31601562 16.35992187 -7 16 C-5.35433477 10.31497465 -2.70967216 5.23318364 0 0 Z " fill="#000503" transform="translate(456,381)"/>
<path d="M0 0 C5.68502535 1.64566523 10.76681636 4.29032784 16 7 C15.39644592 10.85025879 14.23227397 13.86101159 12.4375 17.3125 C11.98246094 18.19550781 11.52742188 19.07851563 11.05859375 19.98828125 C10.70925781 20.65214844 10.35992187 21.31601562 10 22 C4.31497465 20.35433477 -0.76681636 17.70967216 -6 15 C-5.39644592 11.14974121 -4.23227397 8.13898841 -2.4375 4.6875 C-1.98246094 3.80449219 -1.52742188 2.92148437 -1.05859375 2.01171875 C-0.53458984 1.01591797 -0.53458984 1.01591797 0 0 Z " fill="#000503" transform="translate(267,369)"/>
<path d="M0 0 C3.85025879 0.60355408 6.86101159 1.76772603 10.3125 3.5625 C11.19550781 4.01753906 12.07851562 4.47257812 12.98828125 4.94140625 C13.98408203 5.46541016 13.98408203 5.46541016 15 6 C13.35433477 11.68502535 10.70967216 16.76681636 8 22 C4.14974121 21.39644592 1.13898841 20.23227397 -2.3125 18.4375 C-3.19550781 17.98246094 -4.07851562 17.52742188 -4.98828125 17.05859375 C-5.65214844 16.70925781 -6.31601563 16.35992187 -7 16 C-5.35433477 10.31497465 -2.70967216 5.23318364 0 0 Z " fill="#000503" transform="translate(80,333)"/>
<path d="M0 0 C5.28 0 10.56 0 16 0 C16 5.28 16 10.56 16 16 C10.72 16 5.44 16 0 16 C0 10.72 0 5.44 0 0 Z " fill="#000000" transform="translate(480,416)"/>
<path d="M0 0 C5.28 0 10.56 0 16 0 C16 5.28 16 10.56 16 16 C10.72 16 5.44 16 0 16 C0 10.72 0 5.44 0 0 Z " fill="#000000" transform="translate(16,416)"/>
<path d="M0 0 C3.16015625 -0.46484375 3.16015625 -0.46484375 7 0 C9.34179741 2.14859724 10.83435439 4.71289352 12.4375 7.4375 C12.88287109 8.14455078 13.32824219 8.85160156 13.78710938 9.58007812 C17 14.7374832 17 14.7374832 17 16 C10.07 16 3.14 16 -4 16 C-2.875 8.125 -2.875 8.125 -1.4375 4.0625 C-1.16808594 3.29035156 -0.89867187 2.51820313 -0.62109375 1.72265625 C-0.41613281 1.15417969 -0.21117187 0.58570313 0 0 Z " fill="#01BC67" transform="translate(197,408)"/>
</svg>
