<?xml version="1.0" encoding="UTF-8"?>
<svg version="1.1" xmlns="http://www.w3.org/2000/svg" width="512" height="512">
<path d="M0 0 C8.64092388 8.00866116 9.47469159 14.95301171 10.5625 26.375 C20.75119062 24.92702554 30.79193762 22.96963092 40.85571289 20.82861328 C56.14116229 17.58893722 56.14116229 17.58893722 61.5625 18.375 C63.22916667 20.04166667 64.89583333 21.70833333 66.5625 23.375 C70.17135196 23.5489021 70.17135196 23.5489021 73.875 22.6875 C75.75638672 22.34138672 75.75638672 22.34138672 77.67578125 21.98828125 C78.62839844 21.78589844 79.58101563 21.58351562 80.5625 21.375 C80.459375 20.6325 80.35625 19.89 80.25 19.125 C80.5625 16.375 80.5625 16.375 82.68359375 14.30737305 C85.84780836 12.18349596 88.21647114 11.46083233 91.9375 10.70703125 C93.78794922 10.32708008 93.78794922 10.32708008 95.67578125 9.93945312 C96.95839844 9.69130859 98.24101562 9.44316406 99.5625 9.1875 C100.81417969 8.92775391 102.06585938 8.66800781 103.35546875 8.40039062 C128.12289032 3.43407345 128.12289032 3.43407345 137.5625 8.375 C144.16979514 13.00297518 149.8515043 18.27469168 151.5625 26.375 C152.61383975 35.65332848 152.30443756 43.73295267 146.5625 51.375 C138.64027901 60.10933151 129.68641615 61.96520494 118.45800781 63.97192383 C117.1347802 64.21479637 115.81171485 64.45855433 114.48880005 64.703125 C111.65047946 65.22708801 108.81146523 65.74705268 105.97196198 66.26456642 C101.47043714 67.08737547 96.97341702 67.9331324 92.47723389 68.78459167 C91.71594972 68.92868479 90.95466555 69.07277791 90.17031217 69.22123748 C88.61410756 69.51589999 87.05791853 69.81064478 85.50174475 70.10547006 C75.0448493 72.08630825 64.58649498 74.0550704 54.11328125 75.94799805 C47.03412806 77.22765647 39.96397187 78.54828205 32.901263 79.91588229 C29.17165824 80.63643208 25.4408452 81.33632416 21.6982193 81.98618507 C2.82105843 84.50416555 2.82105843 84.50416555 -11.63061523 95.58227539 C-13.01801494 97.80310786 -14.21861198 100.05179403 -15.4375 102.375 C-17.41744919 104.76225359 -19.53222089 106.82209797 -21.75 109 C-22.22244141 109.47566406 -22.69488281 109.95132813 -23.18164062 110.44140625 C-26.37101389 113.58291716 -29.66971892 116.00413628 -33.4375 118.375 C-33.293125 119.38175781 -33.14875 120.38851562 -33 121.42578125 C-31.51205902 132.46068043 -31.21769135 143.25024022 -31.4375 154.375 C-26.60892459 150.78124546 -23.28147051 146.56841767 -19.62109375 141.8359375 C-16.31477524 138.10967513 -14.45675401 137.45589318 -9.5 137.0625 C-5.69687352 137.18974215 -3.36232461 137.78444106 -0.4375 140.375 C2.46489401 145.8698236 3.07819961 150.39652275 3 156.5625 C2.98864014 157.81824829 2.98864014 157.81824829 2.97705078 159.09936523 C2.64245129 171.77140528 -2.55048389 181.04447584 -9.4375 191.375 C-8.5031311 191.38086624 -7.56876221 191.38673248 -6.6060791 191.39277649 C2.2212818 191.4501154 11.04839899 191.52293497 19.87551117 191.61071491 C24.41308295 191.6553459 28.95056645 191.69461787 33.48828125 191.72143555 C37.87158835 191.74754131 42.2545544 191.78799464 46.63764954 191.83818626 C48.30564617 191.85480595 49.97370173 191.86635063 51.64176941 191.87261391 C53.98745042 191.88230874 56.33226852 191.91043017 58.67773438 191.94262695 C59.3596283 191.94119186 60.04152222 191.93975677 60.74407959 191.9382782 C66.66711203 192.05244719 72.18104105 193.39183384 76.8046875 197.2421875 C77.61292969 198.23605469 77.61292969 198.23605469 78.4375 199.25 C78.99179687 199.90742188 79.54609375 200.56484375 80.1171875 201.2421875 C82.82480709 205.23775587 83.81183884 208.78852841 83.85302734 213.58911133 C83.86578705 214.60399124 83.87854675 215.61887115 83.89169312 216.664505 C83.89503159 218.2943055 83.89503159 218.2943055 83.8984375 219.95703125 C83.9050943 221.08517746 83.9117511 222.21332367 83.91860962 223.37565613 C83.92872451 225.76026787 83.933427 228.14490785 83.93310547 230.52954102 C83.93747183 234.16405305 83.97378709 237.79734385 84.01171875 241.43164062 C84.01758859 243.75260003 84.02155686 246.07356518 84.0234375 248.39453125 C84.03780853 249.47499222 84.05217957 250.55545319 84.06698608 251.6686554 C84.02438733 258.76009336 83.11764416 264.55019844 78.15048218 269.89411926 C73.06017016 274.41849596 68.6397012 275.6314128 61.94921875 275.5703125 C60.70205078 275.56386719 59.45488281 275.55742187 58.16992188 275.55078125 C56.87634766 275.53402344 55.58277344 275.51726562 54.25 275.5 C52.93708984 275.49097656 51.62417969 275.48195313 50.27148438 275.47265625 C47.03497087 275.44911797 43.79882851 275.4162352 40.5625 275.375 C40.58344727 275.95991211 40.60439453 276.54482422 40.62597656 277.14746094 C40.70930115 279.80646465 40.76120897 282.46519355 40.8125 285.125 C40.84601563 286.04539062 40.87953125 286.96578125 40.9140625 287.9140625 C40.92695313 288.80351562 40.93984375 289.69296875 40.953125 290.609375 C40.97407227 291.42631836 40.99501953 292.24326172 41.01660156 293.08496094 C40.34205226 296.48672033 39.42296358 297.35098527 36.5625 299.375 C32.85038261 299.99352124 29.15817867 299.91388084 25.40258789 299.88293457 C23.67435209 299.89229451 23.67435209 299.89229451 21.91120243 299.90184355 C18.71251166 299.91505225 15.51442642 299.9102794 12.3157506 299.89789867 C8.86646301 299.88886087 5.41725827 299.90281155 1.96798706 299.91381836 C-4.78935085 299.93162186 -11.54651122 299.92775552 -18.30385613 299.9161678 C-23.7947792 299.90714091 -29.28565245 299.90590623 -34.77658081 299.91026306 C-35.55753583 299.91087599 -36.33849085 299.91148893 -37.14311117 299.91212043 C-38.72951612 299.91339931 -40.31592106 299.91469616 -41.90232599 299.9160108 C-56.78442616 299.92742195 -71.66642784 299.91429452 -86.54851186 299.89280933 C-99.32308068 299.87493784 -112.09750412 299.8780418 -124.87207031 299.89648438 C-139.70024924 299.91788166 -154.5283418 299.92632327 -169.356534 299.91403532 C-170.93716239 299.9127611 -172.51779078 299.91150362 -174.09841919 299.91026306 C-174.87615549 299.90964596 -175.65389178 299.90902886 -176.45519584 299.90839306 C-181.94068181 299.90493672 -187.42611308 299.91077459 -192.91159058 299.92018127 C-199.5949397 299.93138998 -206.27810087 299.92838516 -212.9614284 299.9070583 C-216.37260584 299.89653246 -219.78346969 299.89245168 -223.19464493 299.90565491 C-226.88927554 299.91652889 -230.58301462 299.90294399 -234.27758789 299.88293457 C-235.90188925 299.8963189 -235.90188925 299.8963189 -237.55900478 299.90997362 C-244.78934445 299.8336237 -244.78934445 299.8336237 -248.10661316 297.48638153 C-249.69219132 294.97094571 -249.90397899 293.56768071 -249.828125 290.609375 C-249.81523437 289.71992188 -249.80234375 288.83046875 -249.7890625 287.9140625 C-249.75554687 286.99367188 -249.72203125 286.07328125 -249.6875 285.125 C-249.66945313 284.18914062 -249.65140625 283.25328125 -249.6328125 282.2890625 C-249.58575673 279.98332985 -249.52003713 277.67969055 -249.4375 275.375 C-250.24380859 275.39594727 -251.05011719 275.41689453 -251.88085938 275.43847656 C-255.56627727 275.52209173 -259.25149494 275.57380549 -262.9375 275.625 C-264.2059375 275.65851563 -265.474375 275.69203125 -266.78125 275.7265625 C-274.70029278 275.80905253 -280.89386216 275.62832129 -286.94677734 269.9621582 C-290.98705121 265.45169873 -292.67664656 261.14939716 -292.72802734 255.16088867 C-292.74078705 254.14600876 -292.75354675 253.13112885 -292.76669312 252.085495 C-292.76891876 250.99896133 -292.77114441 249.91242767 -292.7734375 248.79296875 C-292.7834227 247.10074944 -292.7834227 247.10074944 -292.79360962 245.37434387 C-292.80372451 242.98973213 -292.808427 240.60509215 -292.80810547 238.22045898 C-292.81247183 234.58594695 -292.84878709 230.95265615 -292.88671875 227.31835938 C-292.89258859 224.99739997 -292.89655686 222.67643482 -292.8984375 220.35546875 C-292.91280853 219.27500778 -292.92717957 218.19454681 -292.94198608 217.0813446 C-292.89671514 209.54506549 -291.72063888 204.25779895 -286.7265625 198.3515625 C-286.17742187 197.90554688 -285.62828125 197.45953125 -285.0625 197 C-284.51851563 196.53851563 -283.97453125 196.07703125 -283.4140625 195.6015625 C-278.39216472 192.48520696 -273.27751319 192.07354235 -267.50439453 192.05615234 C-266.34728218 192.04108391 -266.34728218 192.04108391 -265.16679382 192.02571106 C-262.63464048 191.99499148 -260.10259232 191.97787542 -257.5703125 191.9609375 C-255.80767926 191.9422168 -254.0450549 191.92264271 -252.28244019 191.9022522 C-247.65638472 191.85102026 -243.03030023 191.8113468 -238.40411377 191.77410889 C-233.67819084 191.7340131 -228.95238772 191.68294622 -224.2265625 191.6328125 C-214.96362595 191.53615909 -205.7006216 191.45172054 -196.4375 191.375 C-196.71174805 190.57618408 -196.98599609 189.77736816 -197.26855469 188.9543457 C-197.62852539 187.89304443 -197.98849609 186.83174316 -198.359375 185.73828125 C-198.71612305 184.69196533 -199.07287109 183.64564941 -199.44042969 182.56762695 C-201.65843907 175.46554352 -202.47879564 168.79354393 -202.4375 161.375 C-203.63125244 161.61210693 -204.82500488 161.84921387 -206.05493164 162.09350586 C-210.55407235 162.98451737 -215.05558847 163.86300254 -219.55786133 164.73803711 C-221.493084 165.11589612 -223.42767817 165.4969909 -225.36157227 165.8815918 C-239.82443539 168.75468582 -254.1411981 171.50215638 -268.9375 169.6875 C-269.7322876 169.59573486 -270.5270752 169.50396973 -271.34594727 169.40942383 C-298.84404656 165.93878994 -323.6850101 151.92540907 -341.0078125 130.22265625 C-351.87258286 116.01615219 -361.52968417 97.27302801 -360.82421875 79.00390625 C-360.07994614 73.94435611 -357.99203327 70.85403988 -354.27075195 67.31347656 C-350.90876182 65.01324376 -347.7162486 64.16298993 -343.79296875 63.359375 C-343.05265915 63.19685242 -342.31234955 63.03432983 -341.54960632 62.86688232 C-339.18207166 62.35304981 -336.81076891 61.86160745 -334.4375 61.375 C-333.6658551 61.21410889 -332.89421021 61.05321777 -332.09918213 60.88745117 C-327.44044214 59.91861929 -322.77524148 58.98781138 -318.10375977 58.08251953 C-315.71171832 57.61755888 -313.32171471 57.14292714 -310.93164062 56.66796875 C-309.38813412 56.36660668 -307.8445183 56.06580386 -306.30078125 55.765625 C-305.59762283 55.62505676 -304.89446442 55.48448853 -304.16999817 55.33966064 C-293.9536471 53.38620841 -293.9536471 53.38620841 -289.5625 56.25 C-288.86125 56.95125 -288.16 57.6525 -287.4375 58.375 C-287.4375 59.035 -287.4375 59.695 -287.4375 60.375 C-286.59445312 60.1584375 -285.75140625 59.941875 -284.8828125 59.71875 C-283.78710938 59.4403125 -282.69140625 59.161875 -281.5625 58.875 C-280.47195313 58.5965625 -279.38140625 58.318125 -278.2578125 58.03125 C-275.4375 57.375 -275.4375 57.375 -273.4375 57.375 C-273.375625 56.446875 -273.31375 55.51875 -273.25 54.5625 C-272.4375 51.375 -272.4375 51.375 -270.35112 49.78305054 C-266.96960866 48.14888449 -263.66738403 47.35416895 -260.00708008 46.65869141 C-259.26246962 46.5091611 -258.51785915 46.35963079 -257.75068474 46.20556927 C-255.2378618 45.70339467 -252.72253708 45.21510642 -250.20703125 44.7265625 C-248.37091045 44.3625154 -246.53496269 43.9975947 -244.69917297 43.63188171 C-239.62285981 42.62310546 -234.5442648 41.6262603 -229.46524811 40.63119888 C-224.04624584 39.56737175 -218.62942058 38.49257692 -213.21240234 37.41870117 C-204.79837667 35.75174759 -196.38359999 34.08865965 -187.96806717 32.42933178 C-168.98633471 28.68622603 -150.0104199 24.9140962 -131.03534198 21.13741875 C-126.85778901 20.3059966 -122.68018505 19.47483079 -118.50257874 18.64367676 C-117.67621479 18.47926771 -116.84985085 18.31485866 -115.99844557 18.14546752 C-113.49595392 17.64759043 -110.9934605 17.14972225 -108.4909668 16.65185547 C-107.25415914 16.40578985 -107.25415914 16.40578985 -105.99236548 16.15475321 C-89.7112641 12.91562029 -73.43008117 9.67689783 -57.14770156 6.44419533 C-53.45346397 5.71073882 -49.75928583 4.97698647 -46.06527138 4.24240685 C-42.0217434 3.43833664 -37.97792875 2.63571763 -33.93408203 1.83325195 C-32.15397342 1.47895583 -32.15397342 1.47895583 -30.33790302 1.11750221 C-29.24591193 0.90106245 -28.15392084 0.68462269 -27.02883911 0.46162415 C-26.08759752 0.27466634 -25.14635593 0.08770853 -24.17659187 -0.10491467 C-7.08637277 -3.34992167 -7.08637277 -3.34992167 0 0 Z M-275.31867027 209.76669502 C-276.80947319 211.90970721 -276.81184891 213.30617537 -276.80981445 215.90649414 C-276.81604324 216.82076675 -276.82227203 217.73503937 -276.82868958 218.67701721 C-276.81947983 219.66145309 -276.81027008 220.64588898 -276.80078125 221.66015625 C-276.80127975 222.67218613 -276.80177826 223.684216 -276.80229187 224.72691345 C-276.79995112 226.86622074 -276.79022261 229.00553077 -276.77368164 231.14477539 C-276.75006727 234.42814615 -276.75312348 237.71070642 -276.75976562 240.99414062 C-276.75418975 243.07031736 -276.74708045 245.14649067 -276.73828125 247.22265625 C-276.73919266 248.20911636 -276.74010406 249.19557648 -276.74104309 250.21192932 C-276.73151108 251.12304977 -276.72197906 252.03417023 -276.7121582 252.97290039 C-276.70755081 253.77659561 -276.70294342 254.58029083 -276.69819641 255.40834045 C-276.60935395 257.60851615 -276.60935395 257.60851615 -274.4375 259.375 C-271.52581729 259.67500855 -271.52581729 259.67500855 -268.04684448 259.61550903 C-267.05197798 259.61807231 -267.05197798 259.61807231 -266.03701317 259.62068737 C-263.80435228 259.62399372 -261.57198888 259.61296003 -259.33935547 259.60205078 C-257.74302172 259.60148691 -256.14668745 259.60180275 -254.550354 259.60293579 C-250.20759061 259.60351126 -245.86493697 259.59172564 -241.52219915 259.57778788 C-236.98714595 259.56531278 -232.45209042 259.56411257 -227.91702271 259.56173706 C-219.32515129 259.5555128 -210.73333058 259.53908922 -202.14148152 259.51903808 C-192.36170087 259.49670847 -182.58191784 259.48569306 -172.80211806 259.47564721 C-152.6805441 259.45472378 -132.55903966 259.41803577 -112.4375 259.375 C-112.4375 242.545 -112.4375 225.715 -112.4375 208.375 C-133.3774834 208.30732965 -154.31737854 208.25204544 -175.25744343 208.21956348 C-184.97985557 208.20408197 -194.70219504 208.18296798 -204.42456055 208.14868164 C-212.89668376 208.11881852 -221.36875436 208.09943434 -229.84092873 208.09273452 C-234.32860747 208.08881701 -238.81613567 208.0795838 -243.30376625 208.05780983 C-247.52508193 208.03749338 -251.74618463 208.03115633 -255.96754456 208.03567696 C-257.51918888 208.03484958 -259.07084011 208.02885508 -260.62244225 208.01738358 C-262.73674357 208.00251467 -264.85023479 208.00602515 -266.96455383 208.01423645 C-268.14905782 208.01147107 -269.3335618 208.00870569 -270.55395985 208.00585651 C-273.43483574 208.13636374 -273.43483574 208.13636374 -275.31867027 209.76669502 Z M-96.4375 208.375 C-96.4375 225.205 -96.4375 242.035 -96.4375 259.375 C-75.34986334 259.42010205 -54.26226557 259.45696301 -33.17459297 259.47862434 C-23.38379315 259.48894824 -13.59302536 259.50302978 -3.80224609 259.52587891 C4.72883091 259.54577877 13.25988471 259.55870833 21.79098427 259.56317699 C26.31045217 259.56579016 30.8298537 259.57195521 35.34930038 259.58646011 C39.59930869 259.59999033 43.849223 259.60423194 48.09925079 259.60121536 C49.66259649 259.60176758 51.22594518 259.60577211 52.78927231 259.61341095 C54.91691352 259.62330105 57.04419568 259.62099092 59.17184448 259.61550903 C60.3646446 259.61735262 61.55744473 259.61919621 62.7863903 259.62109566 C65.70361246 259.66182498 65.70361246 259.66182498 67.5625 257.375 C67.87464139 255.33658546 67.87464139 255.33658546 67.8371582 252.97290039 C67.84669022 252.06177994 67.85622223 251.15065948 67.86604309 250.21192932 C67.86513168 249.22546921 67.86422028 248.23900909 67.86328125 247.22265625 C67.86970894 245.70604652 67.86970894 245.70604652 67.87626648 244.15879822 C67.88201661 242.01773834 67.88250504 239.87665892 67.87817383 237.7355957 C67.87501612 234.45425157 67.89845714 231.17381053 67.92382812 227.89257812 C67.92610121 225.81510531 67.92680457 223.73763006 67.92578125 221.66015625 C67.93959587 220.18350243 67.93959587 220.18350243 67.95368958 218.67701721 C67.94746078 217.7627446 67.94123199 216.84847198 67.93481445 215.90649414 C67.93544388 215.10200333 67.9360733 214.29751251 67.9367218 213.46864319 C67.44767722 210.73260574 66.79545604 210.02694712 64.5625 208.375 C61.57007729 207.92876065 61.57007729 207.92876065 58.08955383 208.01423645 C57.42953863 208.01167318 56.76952342 208.0091099 56.08950776 208.00646895 C53.87363381 208.00151987 51.65843833 208.01804161 49.44262695 208.03442383 C47.85599789 208.03526986 46.26936764 208.03479542 44.68273926 208.03309631 C40.37096848 208.03223401 36.05944703 208.04989777 31.74773431 208.07081819 C27.24339063 208.0895458 22.73904152 208.09133233 18.23466492 208.09489441 C9.70300305 208.10422641 1.17145623 208.12885578 -7.36015493 208.15894288 C-17.07223631 208.192451 -26.78432314 208.20896386 -36.49644792 208.22402918 C-56.47687713 208.25540437 -76.45714859 208.31043083 -96.4375 208.375 Z " fill="#010000" transform="translate(360.4375,202.625)"/>
<path d="M0 0 C4.03120162 4.03120162 2.31056252 18.04471277 2.31469727 23.55126953 C1.99058255 46.59218185 -9.23915061 66.80930926 -25 83 C-30.28089888 88 -30.28089888 88 -33 88 C-33.53109375 86.97519531 -34.0621875 85.95039063 -34.609375 84.89453125 C-35.3226349 83.53370644 -36.03619238 82.17303758 -36.75 80.8125 C-37.09804688 80.13896484 -37.44609375 79.46542969 -37.8046875 78.77148438 C-41.30435165 72.12860335 -44.83171118 66.85222439 -52 64 C-56.56914233 63.18408173 -58.41711329 63.66086592 -62.4375 66 C-67.57013825 70.84493431 -70.13479216 77.77297327 -73.08300781 84.0625 C-76.38031415 91.02933256 -80.25230062 97.65937519 -84.4375 104.125 C-85.13746094 105.22070312 -85.83742188 106.31640625 -86.55859375 107.4453125 C-89.62529712 110.65431091 -91.65119488 110.82034098 -96 111 C-96.25394531 109.98679687 -96.50789062 108.97359375 -96.76953125 107.9296875 C-97.11683126 106.57803342 -97.46450759 105.22647599 -97.8125 103.875 C-98.0609668 102.87726563 -98.0609668 102.87726563 -98.31445312 101.859375 C-100.00757309 95.34246042 -101.93106547 89.58618859 -108 86 C-111.85662275 85.44905389 -114.0857332 85.531717 -117.5625 87.3125 C-120.67615731 90.74550678 -122.53797943 94.48966073 -124.5703125 98.63671875 C-126 101 -126 101 -129 102 C-129.54414551 101.05157227 -130.08829102 100.10314453 -130.64892578 99.12597656 C-132.68146634 95.59180872 -134.73204312 92.06838993 -136.78808594 88.54785156 C-137.67353704 87.02596227 -138.55414532 85.5012442 -139.4296875 83.97363281 C-140.69292638 81.77157776 -141.9735375 79.58046207 -143.2578125 77.390625 C-143.64244659 76.7113092 -144.02708069 76.03199341 -144.42337036 75.33209229 C-146.99183989 71.0031315 -149.46013621 68.44872396 -154 66 C-158.13428386 65.49376116 -161.37929137 65.88791997 -165 68 C-165.40412109 69.01900391 -165.40412109 69.01900391 -165.81640625 70.05859375 C-166.84624601 72.6178985 -167.95495337 74.64299469 -169.41796875 76.9609375 C-169.86720703 77.68023437 -170.31644531 78.39953125 -170.77929688 79.140625 C-171.71793645 80.62995049 -172.66851476 82.11181827 -173.63085938 83.5859375 C-175.99105573 87.41143665 -177.01581347 89.33451664 -176.90625 93.9453125 C-176.28988167 97.00794968 -176.28988167 97.00794968 -174.3125 98.5 C-171.10593521 99.19331131 -169.15806749 98.9501801 -166 98 C-164.23309763 95.77512126 -162.95503574 93.89314965 -161.625 91.4375 C-161.27050781 90.82197266 -160.91601562 90.20644531 -160.55078125 89.57226562 C-159.68238389 88.0584378 -158.83868296 86.53048997 -158 85 C-154.01539248 86.32820251 -153.08688996 88.75463976 -151.12890625 92.23046875 C-150.76530502 92.85850906 -150.4017038 93.48654938 -150.02708435 94.13362122 C-148.86366305 96.14679057 -147.7127093 98.16675805 -146.5625 100.1875 C-145.4134833 102.18892732 -144.26191584 104.18885186 -143.10862732 106.18782043 C-142.39211136 107.43159651 -141.67844257 108.67701882 -140.96815491 109.92436218 C-137.48832628 116.93457136 -137.48832628 116.93457136 -132 122 C-128.32987014 122.41453257 -126.61560039 122.44825271 -123.5859375 120.2421875 C-122.85632813 119.46101563 -122.12671875 118.67984375 -121.375 117.875 C-120.61058594 117.05902344 -119.84617188 116.24304688 -119.05859375 115.40234375 C-116.74824744 112.70620906 -114.80146188 110.05465275 -113 107 C-112.34 107.33 -111.68 107.66 -111 108 C-110.91202719 111.18732254 -110.85928659 114.37432788 -110.8125 117.5625 C-110.78736328 118.45775391 -110.76222656 119.35300781 -110.73632812 120.27539062 C-110.67258663 126.07586657 -111.50738731 129.79057136 -114 135 C-113.83689061 140.07007252 -113.83689061 140.07007252 -111 144 C-106.98892008 144.45255652 -104.72851259 144.43402933 -101.2265625 142.34765625 C-100.36804688 141.59355469 -99.50953125 140.83945312 -98.625 140.0625 C-97.67882812 139.23234375 -96.73265625 138.4021875 -95.7578125 137.546875 C-94.84773437 136.70640625 -93.93765625 135.8659375 -93 135 C-91.85144531 133.95585937 -91.85144531 133.95585937 -90.6796875 132.890625 C-75.1415786 118.076514 -64.08145172 99.27871321 -55 80 C-50.91095017 83.6674983 -48.5180903 87.29217973 -46.375 92.375 C-46.07650146 93.08052002 -45.77800293 93.78604004 -45.47045898 94.51293945 C-37.91271438 113.11134642 -37.55872493 134.02879934 -44 153 C-44.55107422 154.09441406 -44.55107422 154.09441406 -45.11328125 155.2109375 C-46.57743316 158.16504135 -46.29286966 160.77843376 -46 164 C-45.08333333 166.08333333 -45.08333333 166.08333333 -43 167 C-36.59040699 168.36374319 -32.3631884 165.32450703 -26.9921875 161.99609375 C-20.39232422 157.5933129 -14.41446961 152.59639618 -8.53125 147.28515625 C-7 146 -7 146 -6 146 C-6.71668525 158.90033451 -14.06018177 167.62911936 -23.29063416 176.10284424 C-28.42136047 179.42659951 -34.85051277 178.58920298 -40.72875977 178.58105469 C-42.13039577 178.59303318 -43.53201862 178.60664611 -44.93362427 178.62176514 C-48.72900923 178.65700885 -52.52403322 178.6664722 -56.31956601 178.66902828 C-58.69194792 178.67187565 -61.06423862 178.68042266 -63.43659782 178.69101715 C-71.71584764 178.7279842 -79.9948403 178.74436162 -88.27416992 178.74121094 C-95.98860761 178.73880514 -103.70192887 178.78107307 -111.41608387 178.84418559 C-118.04473172 178.89648251 -124.67301436 178.91794701 -131.30186695 178.9153893 C-135.25888599 178.9143696 -139.21491107 178.92575653 -143.17172432 178.9681015 C-146.89138003 179.00682586 -150.60909124 179.00715133 -154.32881546 178.97803497 C-156.34250044 178.97185801 -158.35618516 179.00524091 -160.36958313 179.03979492 C-168.98113752 178.91953432 -168.98113752 178.91953432 -171.88468742 176.29904938 C-173.22021629 174.22865941 -174.14392039 172.30597063 -175 170 C-175.46677076 168.90553118 -175.46677076 168.90553118 -175.94297123 167.78895187 C-178.90500539 160.76418269 -179.19381735 153.77817319 -179.1875 146.25 C-179.18741943 145.35692139 -179.18733887 144.46384277 -179.18725586 143.54370117 C-179.13444569 137.45830214 -178.47902487 131.90514373 -177 126 C-175.61884614 119.97329999 -175.61884614 119.97329999 -177.625 114.4375 C-180.46369353 112.71934339 -181.74405979 112.34881196 -185 113 C-189.03358712 116.15807984 -189.98682644 119.37775913 -191.25 124.25 C-191.58515625 125.51328125 -191.9203125 126.7765625 -192.265625 128.078125 C-192.50796875 129.04234375 -192.7503125 130.0065625 -193 131 C-197.85112544 131.96628579 -202.70344984 132.92624116 -207.55688477 133.88085938 C-209.20076594 134.20505459 -210.84433308 134.53084713 -212.48754883 134.85839844 C-243.34112972 141.0046052 -272.36461857 143.79961777 -299.9284668 125.66723633 C-317.53107128 113.53398569 -331.405758 95.85714503 -337 75 C-337.51663143 71.97527754 -337.79880563 69.06821416 -338 66 C-325.32650692 62.60709634 -312.51283433 59.98348677 -299.66015625 57.3671875 C-298.51691895 57.13241699 -297.37368164 56.89764648 -296.19580078 56.65576172 C-294.19536596 56.24528289 -292.19388339 55.8398416 -290.19091797 55.44189453 C-285.6979066 54.62373833 -285.6979066 54.62373833 -282 52.125 C-281.03723423 50.07912274 -280.51374112 48.19257373 -280 46 C-278.06524329 45.46906676 -276.12706845 44.95057683 -274.1875 44.4375 C-273.10855469 44.14746094 -272.02960938 43.85742188 -270.91796875 43.55859375 C-268 43 -268 43 -265 44 C-264.62875 44.680625 -264.2575 45.36125 -263.875 46.0625 C-262.23015622 48.16402219 -262.23015622 48.16402219 -260.157547 48.24208069 C-254.68764819 48.17571272 -249.55677689 47.57589125 -244.19921875 46.49609375 C-243.37729034 46.33752899 -242.55536194 46.17896423 -241.70852661 46.01559448 C-239.03323162 45.49751751 -236.36042049 44.96767908 -233.6875 44.4375 C-231.81288802 44.07177152 -229.93812991 43.70679129 -228.06323242 43.3425293 C-224.23498591 42.59754967 -220.4076869 41.84795285 -216.58105469 41.09472656 C-211.40323492 40.07675768 -206.22188669 39.07806682 -201.0390625 38.0859375 C-188.51858803 35.68458309 -176.00568501 33.27989699 -163.5625 30.5 C-153.95491088 28.35517303 -144.29931175 26.50090838 -134.625 24.6875 C-133.84824921 24.54185608 -133.07149841 24.39621216 -132.27120972 24.24615479 C-131.48811432 24.09934265 -130.70501892 23.95253052 -129.89819336 23.80126953 C-128.28628783 23.49906475 -126.67439013 23.19681816 -125.0625 22.89453125 C-124.24942886 22.74205933 -123.43635773 22.5895874 -122.59864807 22.43249512 C-112.93365779 20.61677696 -103.27786005 18.75404342 -93.625 16.875 C-92.74624207 16.7039978 -91.86748413 16.53299561 -90.96209717 16.35681152 C-80.51801142 14.32046264 -70.10315994 12.20125863 -59.72045898 9.86938477 C-48.82002725 7.45755136 -37.83513026 5.46068317 -26.86230469 3.40991211 C-26.09348969 3.26616653 -25.32467468 3.12242096 -24.53256226 2.97431946 C-23.03574487 2.69514595 -21.53869919 2.41719331 -20.04141235 2.14054871 C-15.32314428 1.26504703 -10.63123088 0.30671277 -5.95629883 -0.77661133 C-3.70811502 -1.03333018 -2.13494841 -0.71993454 0 0 Z " fill="#726D6D" transform="translate(353,217)"/>
<path d="M0 0 C8.13380357 4.37974038 12.94138952 10.17964448 16.25 18.6875 C17.96087709 27.7084883 16.91302961 34.98915038 12.9375 43.3125 C12.35613281 43.97507813 11.77476563 44.63765625 11.17578125 45.3203125 C9.65593028 47.25719038 9.65593028 47.25719038 10.3984375 49.58203125 C12.49078067 53.2940817 14.9778797 56.61834578 17.5625 60 C18.57982531 61.33396781 19.59306844 62.67106196 20.6015625 64.01171875 C21.04967285 64.59783936 21.4977832 65.18395996 21.95947266 65.7878418 C22.9375 67.3125 22.9375 67.3125 22.9375 69.3125 C23.5459375 69.3640625 24.154375 69.415625 24.78125 69.46875 C46.23850437 72.24557115 65.00422657 88.74397606 79.9375 103.3125 C80.5871875 103.88871094 81.236875 104.46492188 81.90625 105.05859375 C95.98320207 117.84073183 106.27176633 137.99635849 107.18359375 156.91015625 C107.7174926 173.26956416 104.61999909 187.15240245 93.3125 199.5625 C83.95835596 208.41488919 72.14905247 211.85848009 59.5703125 211.625 C44.76862615 210.35173666 32.39650462 204.70888379 20.9375 195.3125 C19.87789062 194.48878906 19.87789062 194.48878906 18.796875 193.6484375 C-1.24086737 177.18385898 -11.35308894 148.44308274 -14.87011719 123.44921875 C-15.08117775 121.10505367 -15.0807496 118.82175544 -15.0390625 116.46875 C-14.87651391 103.29342486 -18.16633747 96.14630109 -26.62353516 86.07910156 C-28.63792516 83.60605676 -30.34537907 80.99835985 -32.0625 78.3125 C-33.06216797 78.54646484 -33.06216797 78.54646484 -34.08203125 78.78515625 C-43.92907331 80.86474136 -52.37634616 81.16030249 -61.1328125 75.69140625 C-67.17405199 71.37448815 -71.71025883 65.36922351 -74.0625 58.3125 C-74.85952145 47.41551824 -74.12967401 39.26097897 -67.25 30.5 C-62.38652335 25.20775337 -55.72861165 21.52300128 -48.46484375 21.1953125 C-45.99360774 21.18836106 -43.5320255 21.22465127 -41.0625 21.3125 C-41.02125 20.508125 -40.98 19.70375 -40.9375 18.875 C-38.97103447 10.86867605 -34.1674398 5.79526982 -27.30859375 1.50390625 C-19.13129641 -2.83361669 -8.67598954 -3.65071451 0 0 Z " fill="#020100" transform="translate(74.0625,11.6875)"/>
<path d="M0 0 C3.28860314 2.43070667 4.76756415 3.9075515 5.625 7.9375 C4.13325158 15.24706725 -2.67124232 19.32592544 -8.1953125 23.7421875 C-11.89443753 26.72003467 -15.45528624 29.84124361 -19 33 C-18.54947266 34.39798828 -18.54947266 34.39798828 -18.08984375 35.82421875 C-14.60563355 47.23681557 -13.71418284 57.51138888 -18.77734375 68.7265625 C-22.8310709 76.26416378 -28.82528275 83.4320952 -36.59765625 87.2890625 C-39.87322244 89.62190476 -40.25906085 91.74061818 -41.375 95.5625 C-45.43697902 107.77358862 -52.4205529 116.54594094 -63.95703125 122.53515625 C-77.86976777 128.66104666 -90.46859749 129.55409983 -105 125 C-117.96998332 119.84706068 -127.02913079 110.04495113 -132.6875 97.53125 C-137.01786517 85.88050562 -137.22213789 72.86311694 -132.6171875 61.22265625 C-126.61010481 48.35632333 -118.22510318 39.11385134 -104.98046875 33.78515625 C-100.51677849 32.20742422 -96.49770933 30.90559234 -91.75 30.8125 C-86.72465716 29.72367572 -85.28874569 27.24831983 -82.13671875 23.359375 C-76.20653837 16.81124163 -67.75415819 13.16450353 -58.984375 12.6640625 C-57.57316599 12.63451098 -56.1615151 12.62195102 -54.75 12.625 C-54.00782227 12.62588623 -53.26564453 12.62677246 -52.50097656 12.62768555 C-43.93283522 12.81075755 -37.23198332 15.52488975 -30 20 C-29.40574219 19.45472656 -28.81148438 18.90945312 -28.19921875 18.34765625 C-6.96127522 -0.97457853 -6.96127522 -0.97457853 0 0 Z " fill="#000000" transform="translate(334,65)"/>
<path d="M0 0 C4.08904983 3.6674983 6.4819097 7.29217973 8.625 12.375 C8.92349854 13.08052002 9.22199707 13.78604004 9.52954102 14.51293945 C17.08728562 33.11134642 17.44127507 54.02879934 11 73 C10.63261719 73.72960937 10.26523437 74.45921875 9.88671875 75.2109375 C8.42256684 78.16504135 8.70713034 80.77843376 9 84 C9.91666667 86.08333333 9.91666667 86.08333333 12 87 C18.40959301 88.36374319 22.6368116 85.32450703 28.0078125 81.99609375 C34.60767578 77.5933129 40.58553039 72.59639618 46.46875 67.28515625 C48 66 48 66 49 66 C48.28331475 78.90033451 40.93981823 87.62911936 31.70936584 96.10284424 C26.57863953 99.42659951 20.14948723 98.58920298 14.27124023 98.58105469 C12.86960423 98.59303318 11.46798138 98.60664611 10.06637573 98.62176514 C6.27099077 98.65700885 2.47596678 98.6664722 -1.31956601 98.66902828 C-3.69194792 98.67187565 -6.06423862 98.68042266 -8.43659782 98.69101715 C-16.71584764 98.7279842 -24.9948403 98.74436162 -33.27416992 98.74121094 C-40.98860761 98.73880514 -48.70192887 98.78107307 -56.41608387 98.84418559 C-63.04473172 98.89648251 -69.67301436 98.91794701 -76.30186695 98.9153893 C-80.25888599 98.9143696 -84.21491107 98.92575653 -88.17172432 98.9681015 C-91.89138003 99.00682586 -95.60909124 99.00715133 -99.32881546 98.97803497 C-101.34250044 98.97185801 -103.35618516 99.00524091 -105.36958313 99.03979492 C-113.98113752 98.91953432 -113.98113752 98.91953432 -116.88468742 96.29904938 C-118.22021629 94.22865941 -119.14392039 92.30597063 -120 90 C-120.31118051 89.27035412 -120.62236101 88.54070824 -120.94297123 87.78895187 C-123.90500539 80.76418269 -124.19381735 73.77817319 -124.1875 66.25 C-124.18741943 65.35692139 -124.18733887 64.46384277 -124.18725586 63.54370117 C-124.13444569 57.45830214 -123.47902487 51.90514373 -122 46 C-121.38962711 42.98658425 -120.81806587 40.08033302 -121 37 C-122.75094652 34.4094273 -122.75094652 34.4094273 -125 33 C-121.62528048 22.01421092 -121.62528048 22.01421092 -119 19 C-117 19 -115 19 -113 19 C-108.1783046 15.35432787 -105.70297773 10.27943309 -103 5 C-99.01539248 6.32820251 -98.08688996 8.75463976 -96.12890625 12.23046875 C-95.58350441 13.17252922 -95.58350441 13.17252922 -95.02708435 14.13362122 C-93.86366305 16.14679057 -92.7127093 18.16675805 -91.5625 20.1875 C-90.4134833 22.18892732 -89.26191584 24.18885186 -88.10862732 26.18782043 C-87.39211136 27.43159651 -86.67844257 28.67701882 -85.96815491 29.92436218 C-82.48832628 36.93457136 -82.48832628 36.93457136 -77 42 C-73.32987014 42.41453257 -71.61560039 42.44825271 -68.5859375 40.2421875 C-67.85632813 39.46101563 -67.12671875 38.67984375 -66.375 37.875 C-65.61058594 37.05902344 -64.84617188 36.24304688 -64.05859375 35.40234375 C-61.74824744 32.70620906 -59.80146188 30.05465275 -58 27 C-57.34 27.33 -56.68 27.66 -56 28 C-55.91202719 31.18732254 -55.85928659 34.37432788 -55.8125 37.5625 C-55.78736328 38.45775391 -55.76222656 39.35300781 -55.73632812 40.27539062 C-55.67258663 46.07586657 -56.50738731 49.79057136 -59 55 C-58.83689061 60.07007252 -58.83689061 60.07007252 -56 64 C-51.98892008 64.45255652 -49.72851259 64.43402933 -46.2265625 62.34765625 C-45.36804688 61.59355469 -44.50953125 60.83945312 -43.625 60.0625 C-42.67882812 59.23234375 -41.73265625 58.4021875 -40.7578125 57.546875 C-39.84773438 56.70640625 -38.93765625 55.8659375 -38 55 C-37.23429687 54.30390625 -36.46859375 53.6078125 -35.6796875 52.890625 C-20.1415786 38.076514 -9.08145172 19.27871321 0 0 Z " fill="#FE873E" transform="translate(298,297)"/>
<path d="M0 0 C0.825 0.99 1.65 1.98 2.5 3 C16.05147256 18.96787972 36.96731518 31.5909039 58 34 C75.04334589 35.13899314 91.46739861 34.32002171 108.11816406 30.375 C110.43832694 29.91265306 112.6422115 29.84849552 115 30 C114.64192708 31.98567708 114.28385417 33.97135417 113.92578125 35.95703125 C113.79472176 38.12243264 113.79472176 38.12243264 115.48046875 39.76171875 C115.98191406 40.17035156 116.48335937 40.57898438 117 41 C113.72093023 51.6744186 113.72093023 51.6744186 111 55 C108 56.125 108 56.125 105 57 C101.43097502 59.54416642 100.89909192 63.10341314 99.8125 67.1875 C99.29623047 69.09595703 99.29623047 69.09595703 98.76953125 71.04296875 C98.51558594 72.01878906 98.26164063 72.99460937 98 74 C93.14887456 74.96628579 88.29655016 75.92624116 83.44311523 76.88085938 C81.79923406 77.20505459 80.15566692 77.53084713 78.51245117 77.85839844 C47.65887028 84.0046052 18.63538143 86.79961777 -8.9284668 68.66723633 C-26.53107128 56.53398569 -40.405758 38.85714503 -46 18 C-46.51663143 14.97527754 -46.79880563 12.06821416 -47 9 C-37.27105843 6.39540147 -27.46742111 4.17775032 -17.61239624 2.10601807 C-16.28608111 1.82671451 -14.9602521 1.54509261 -13.63491821 1.26116943 C-11.75028528 0.85850201 -9.8634563 0.46615515 -7.9765625 0.07421875 C-6.32261475 -0.27249878 -6.32261475 -0.27249878 -4.63525391 -0.6262207 C-2 -1 -2 -1 0 0 Z " fill="#595454" transform="translate(62,274)"/>
<path d="M0 0 C15.06693954 5.59267051 27.49576615 15.35085322 39.33984375 26.00390625 C40.0153125 26.6071875 40.69078125 27.21046875 41.38671875 27.83203125 C53.25595795 39.04791783 63.8716835 55.12315102 64.67578125 71.80859375 C64.89928119 84.32947537 64.19799222 93.79585993 55.27734375 103.3125 C47.51800984 110.08627335 38.2528233 110.76356055 28.390625 110.23046875 C16.16365015 108.87967915 3.30587352 99.08692397 -4.43359375 89.8984375 C-11.60482853 80.21240319 -17.44334291 68.63094241 -20.66015625 57.00390625 C-20.99789062 55.87984375 -21.335625 54.75578125 -21.68359375 53.59765625 C-24.74784671 43.25308599 -25.90188202 33.83132918 -26.03515625 23.06640625 C-26.07253906 21.92494141 -26.10992187 20.78347656 -26.1484375 19.60742188 C-26.22345452 12.39328558 -25.52191723 7.50288404 -20.66015625 2.00390625 C-15.25299476 -3.44659922 -6.80987472 -1.85327434 0 0 Z " fill="#F56F25" transform="translate(100.66015625,96.99609375)"/>
<path d="M0 0 C0 0.66 0 1.32 0 2 C-1.48738235 3.35382149 -3.04430551 4.63139886 -4.625 5.875 C-9.08941479 9.44767509 -13.48071123 13.08018901 -17.8125 16.8125 C-18.39612305 17.31467041 -18.97974609 17.81684082 -19.58105469 18.33422852 C-20.7794189 19.36571741 -21.97749605 20.3975399 -23.17529297 21.4296875 C-25.63397161 23.54558542 -28.09874664 25.65430329 -30.56469727 27.76171875 C-31.75907299 28.78487109 -32.95102717 29.8108579 -34.14038086 30.83984375 C-36.60886279 32.97398206 -39.07783047 35.06043307 -41.65625 37.0625 C-46.07405268 40.48511041 -46.07405268 40.48511041 -47.6875 45.75 C-47.20072964 48.88652748 -47.20072964 48.88652748 -45.875 50.9375 C-43.13612827 52.48952731 -41.10942805 52.26136107 -38 52 C-35.66224101 50.74865708 -35.66224101 50.74865708 -33.5625 48.8125 C-32.70398438 48.08289063 -31.84546875 47.35328125 -30.9609375 46.6015625 C-29.98382813 45.74304688 -29.00671875 44.88453125 -28 44 C-26.82642094 42.98593654 -25.65189081 41.97297302 -24.4765625 40.9609375 C-21.91594577 38.75152922 -19.36207911 36.5346338 -16.8125 34.3125 C-8.03739209 26.67424818 0.86030934 19.20034321 10 12 C13.1363924 16.70458861 12.54632514 21.49472363 12 27 C10.22647032 33.66757361 5.58190816 38.1874883 0 42 C-2.34643569 43.10024257 -4.6625614 44.0532002 -7.1171875 44.8828125 C-9.79344539 46.47079955 -10.12092003 48.05717514 -11 51 C-11.43724868 52.93295912 -11.85302198 54.87087032 -12.25 56.8125 C-13.69834294 62.71449748 -15.83832929 66.61204459 -20 71 C-20.51433594 71.55429688 -21.02867187 72.10859375 -21.55859375 72.6796875 C-28.06423541 78.95131327 -36.06082403 81.19390315 -44.9375 81.625 C-53.95127757 81.33837769 -61.2938985 77.77792291 -67.9375 71.75 C-74.9863927 64.01172904 -77.56103408 54.89978249 -77.46875 44.65625 C-76.41483326 36.43569943 -72.16306691 28.54932794 -66.125 22.875 C-58.70756568 17.27667029 -51.72496925 15.47455544 -42.58398438 14.8581543 C-39.23401292 14.57369972 -37.29033852 14.23016968 -34.625 12.1171875 C-32.88687823 9.94286691 -32.88687823 9.94286691 -31.3125 7.125 C-23.21367751 -3.81935472 -11.81865757 -5.15723239 0 0 Z " fill="#6C9012" transform="translate(291,96)"/>
<path d="M0 0 C0.5878125 1.0209375 0.5878125 1.0209375 1.1875 2.0625 C2.9413512 4.37182048 2.9413512 4.37182048 6.34375 4.27734375 C13.19986515 4.11000858 19.87470899 2.27043166 26.53710938 0.77734375 C43.75311935 -2.89904642 43.75311935 -2.89904642 49.27075195 0.328125 C52.25755349 2.71913926 53.77550533 4.32651598 55 8 C55.39177998 12.15286777 55.25515206 14.48969587 53.375 18.25 C49.2595581 23.01524852 44.30819365 24.36414728 38.27734375 25.578125 C37.63188095 25.71020355 36.98641815 25.8422821 36.32139587 25.97836304 C34.19506251 26.41082747 32.06644655 26.83060552 29.9375 27.25 C28.43039798 27.55336086 26.92340121 27.857245 25.41650391 28.16162109 C12.68112829 30.72021918 -0.08492635 33.12009443 -12.8527832 35.51025391 C-21.50357724 37.13203982 -30.13738471 38.80892138 -38.75 40.625 C-39.67345215 40.81932617 -40.5969043 41.01365234 -41.54833984 41.21386719 C-45.48713099 42.04462441 -49.42532397 42.87819004 -53.36328125 43.71289062 C-56.82376399 44.44232497 -60.28656825 45.15971523 -63.75 45.875 C-64.81702148 46.10268066 -65.88404297 46.33036133 -66.98339844 46.56494141 C-67.9737207 46.76780762 -68.96404297 46.97067383 -69.984375 47.1796875 C-70.85803711 47.36257324 -71.73169922 47.54545898 -72.63183594 47.73388672 C-75.06448905 48.00724671 -76.6899779 47.75507092 -79 47 C-78.73445313 46.27296875 -78.46890625 45.5459375 -78.1953125 44.796875 C-75.93641304 38.36643128 -74.39037137 32.2690971 -73.58984375 25.49609375 C-72.91077509 22.6224191 -72.24828739 21.84558547 -70 20 C-68.11204529 19.35571289 -68.11204529 19.35571289 -65.96264648 18.97265625 C-65.15427841 18.8223999 -64.34591034 18.67214355 -63.51304626 18.51733398 C-62.64120193 18.36723877 -61.7693576 18.21714355 -60.87109375 18.0625 C-59.96682144 17.8962915 -59.06254913 17.73008301 -58.13087463 17.55883789 C-55.23497826 17.02807599 -52.33658045 16.51306047 -49.4375 16 C-46.56386007 15.48485661 -43.69095411 14.96621107 -40.81910706 14.44116211 C-39.03372656 14.11541526 -37.24726505 13.79551545 -35.45957947 13.48266602 C-31.08519254 12.69117622 -26.76807461 11.7588074 -22.47290039 10.609375 C-21.65439102 10.39120117 -20.83588165 10.17302734 -19.99256897 9.94824219 C-17.88573352 9.16718734 -17.88573352 9.16718734 -16.93138123 7.26269531 C-16.26059077 5.114065 -16.26059077 5.114065 -16 2 C-13.89829344 1.46932659 -11.79352402 0.95077143 -9.6875 0.4375 C-8.51574219 0.14746094 -7.34398437 -0.14257812 -6.13671875 -0.44140625 C-3 -1 -3 -1 0 0 Z " fill="#D32F2F" transform="translate(442,225)"/>
<path d="M0 0 C2.875 2.5 2.875 2.5 5 5 C5.70125 5.78375 6.4025 6.5675 7.125 7.375 C12.36478908 14.71070472 13.55438624 22.56911961 12.78515625 31.4921875 C11.06183733 40.97864786 5.19561774 48.13762054 -2.5 53.6875 C-9.25672239 57.71603637 -17.5508607 58.6847126 -25.25 57.4375 C-34.16982572 55.13887392 -40.75156877 50.56592034 -46 43 C-50.79248426 34.79887953 -51.9636002 26.70742307 -49.77734375 17.4765625 C-46.96549584 8.51821289 -41.24791991 1.28299791 -32.8515625 -3.12890625 C-21.41205172 -7.66526397 -10.30897238 -6.64854016 0 0 Z " fill="#000000" transform="translate(204,24)"/>
<path d="M0 0 C7.78842325 5.63590212 12.43701575 12.10452758 14.08984375 21.53125 C15.41827241 32.14391896 13.19765464 40.37602134 6.62890625 48.90234375 C-0.49288544 55.77855642 -9.21422237 59.27097318 -19.125 59.12109375 C-29.46169852 58.1143892 -37.19009763 53.19141418 -43.72265625 45.26171875 C-48.83143387 38.15125633 -50.1973139 29.22502008 -48.80859375 20.65234375 C-46.23869687 10.67985081 -40.83286477 4.27050096 -32.41796875 -1.41796875 C-22.40746002 -6.8817197 -9.58019833 -5.53957047 0 0 Z " fill="#000000" transform="translate(60.37109375,189.09765625)"/>
<path d="M0 0 C18.30001594 2.18306523 39.12608177 23.28514818 50 37 C58.53866701 49.31509344 63.17668438 60.07444155 63.1875 75 C63.19974609 75.88945312 63.21199219 76.77890625 63.22460938 77.6953125 C63.23477299 82.23506045 63.16969938 85.8835743 61 90 C45.92319452 89.49743982 34.48515465 79.86304943 24.375 69.4375 C8.64017417 51.17386288 -0.598247 23.97773968 0 0 Z " fill="#FD873D" transform="translate(102,99)"/>
<path d="M0 0 C4.08904983 3.6674983 6.4819097 7.29217973 8.625 12.375 C9.0727478 13.43328003 9.0727478 13.43328003 9.52954102 14.51293945 C17.08728562 33.11134642 17.44127507 54.02879934 11 73 C10.44892578 74.09441406 10.44892578 74.09441406 9.88671875 75.2109375 C8.42256684 78.16504135 8.70713034 80.77843376 9 84 C9.91666667 86.08333333 9.91666667 86.08333333 12 87 C18.40959301 88.36374319 22.6368116 85.32450703 28.0078125 81.99609375 C34.60767578 77.5933129 40.58553039 72.59639618 46.46875 67.28515625 C48 66 48 66 49 66 C48.35256943 77.65375019 42.38518113 86.15180091 34 94 C29.32997469 97.6925385 26.33792421 98.48540679 20.4140625 98.390625 C19.71227875 98.38496521 19.010495 98.37930542 18.28744507 98.37347412 C16.06590913 98.35124483 13.84604077 98.30108056 11.625 98.25 C10.11070053 98.22991731 8.59637554 98.21166964 7.08203125 98.1953125 C3.38748732 98.15142633 -0.30609333 98.08249577 -4 98 C-2.97104662 93.17183415 -1.84390487 88.47114518 -0.40234375 83.75 C1.32706988 77.48264865 1.47927284 71.47099225 1.4375 65 C1.45748047 63.90171875 1.47746094 62.8034375 1.49804688 61.671875 C1.49316795 53.43624908 0.55206684 45.20746775 -4.93579102 38.70703125 C-7.68973832 36.42960966 -9.5265585 36.68423259 -13 37 C-13.2578125 37.67289062 -13.515625 38.34578125 -13.78125 39.0390625 C-22.74523195 60.81694172 -35.93694999 78.90184456 -54 94 C-54.33 93.34 -54.66 92.68 -55 92 C-54.505 91.01 -54.505 91.01 -54 90 C-53.90497764 88.62235502 -53.86927168 87.24029158 -53.8671875 85.859375 C-53.86589844 85.03566406 -53.86460937 84.21195312 -53.86328125 83.36328125 C-53.86714844 82.50089844 -53.87101563 81.63851562 -53.875 80.75 C-53.87113281 79.90308594 -53.86726562 79.05617188 -53.86328125 78.18359375 C-53.87029215 73.67558802 -54.08667967 69.43612733 -55 65 C-53.84886719 64.81695312 -52.69773438 64.63390625 -51.51171875 64.4453125 C-46.03000737 63.05952044 -42.75515211 59.77044295 -38.8125 55.875 C-38.07563965 55.15997314 -37.3387793 54.44494629 -36.57958984 53.70825195 C-20.68490874 38.00799593 -9.52085149 20.12635695 0 0 Z " fill="#F85756" transform="translate(298,297)"/>
<path d="M0 0 C85.8 0 171.6 0 260 0 C260 2.97 260 5.94 260 9 C174.2 9 88.4 9 0 9 C0 6.03 0 3.06 0 0 Z " fill="#F34444" transform="translate(126,478)"/>
<path d="M0 0 C3.51223473 2.34148982 5.00016463 4.04121364 6.8125 7.875 C7.61293635 12.89814651 7.41220117 16.67559767 5.125 21.25 C2.8125 23.875 2.8125 23.875 0.125 25.875 C-2.38642063 27.72610058 -2.38642063 27.72610058 -3.25 30.6875 C-3.12124804 37.25384994 2.29564518 43.13854971 6.0625 48.3125 C6.75085938 49.26672852 6.75085938 49.26672852 7.453125 50.24023438 C8.56985503 51.78737077 9.69073863 53.33150773 10.8125 54.875 C7.96217366 57.77637696 5.00966332 60.3580842 1.8125 62.875 C1.1525 62.875 0.4925 62.875 -0.1875 62.875 C-0.8475 64.525 -1.5075 66.175 -2.1875 67.875 C-5.60120593 66.73709802 -6.0156372 66.07726696 -7.96484375 63.19921875 C-8.47853516 62.45349609 -8.99222656 61.70777344 -9.52148438 60.93945312 C-10.31522461 59.76286133 -10.31522461 59.76286133 -11.125 58.5625 C-15.55985278 51.70419487 -15.55985278 51.70419487 -21.1875 45.875 C-25.50053119 45.23603242 -27.45270763 45.36384009 -31.0625 47.875 C-35.20489898 50.52613535 -38.39194231 50.60321432 -43.1875 49.875 C-47.90112305 47.8848036 -50.90922827 44.43154346 -53.1875 39.875 C-53.69640436 33.76814771 -53.2650461 30.74540228 -49.1875 25.875 C-46.02507647 22.97382015 -43.94935331 22.48639548 -39.6875 22.5625 C-38.27984375 22.56830078 -38.27984375 22.56830078 -36.84375 22.57421875 C-34.13396643 22.88106189 -32.57799599 23.64503526 -30.1875 24.875 C-26.57287214 24.79921045 -26.57287214 24.79921045 -23.1875 23.875 C-20.83651746 20.3485262 -21.02438874 18.84821902 -21 14.6875 C-20.63865475 8.58553782 -19.23119135 5.57456826 -14.9765625 1.265625 C-10.48489121 -2.22571775 -5.13270889 -1.81154431 0 0 Z " fill="#E7DDD8" transform="translate(68.1875,26.125)"/>
<path d="M0 0 C3.98460752 1.32820251 4.91311004 3.75463976 6.87109375 7.23046875 C7.41649559 8.17252922 7.41649559 8.17252922 7.97291565 9.13362122 C9.13633695 11.14679057 10.2872907 13.16675805 11.4375 15.1875 C12.5865167 17.18892732 13.73808416 19.18885186 14.89137268 21.18782043 C15.60788864 22.43159651 16.32155743 23.67701882 17.03184509 24.92436218 C20.51167372 31.93457136 20.51167372 31.93457136 26 37 C29.67012986 37.41453257 31.38439961 37.44825271 34.4140625 35.2421875 C35.14367187 34.46101563 35.87328125 33.67984375 36.625 32.875 C37.38941406 32.05902344 38.15382812 31.24304688 38.94140625 30.40234375 C41.25175256 27.70620906 43.19853812 25.05465275 45 22 C45.66 22.33 46.32 22.66 47 23 C47.08728882 26.24983 47.14048658 29.4993575 47.1875 32.75 C47.21263672 33.67039062 47.23777344 34.59078125 47.26367188 35.5390625 C47.27333984 36.42851562 47.28300781 37.31796875 47.29296875 38.234375 C47.3086792 39.05131836 47.32438965 39.86826172 47.34057617 40.70996094 C46.92379459 43.51240627 45.83804852 44.88847021 44 47 C43.01 45.35 42.02 43.7 41 42 C39.05038206 42.21158715 39.05038206 42.21158715 37 43 C35.80105348 44.6649596 35.80105348 44.6649596 35.03515625 46.7890625 C34.70966797 47.56636719 34.38417969 48.34367187 34.04882812 49.14453125 C33.72333984 49.96308594 33.39785156 50.78164063 33.0625 51.625 C30.6173248 57.67178597 28.13958646 62.9124687 24 68 C23.34 68 22.68 68 22 68 C21.5153125 66.88625 21.030625 65.7725 20.53125 64.625 C15.9869126 54.25394428 11.16220063 44.07727463 6 34 C4.68 34 3.36 34 2 34 C-9.71266796 54.92696296 -9.71266796 54.92696296 -19 77 C-19.33 77 -19.66 77 -20 77 C-21.07778045 71.72318691 -21.19199911 66.61143417 -21.1875 61.25 C-21.18741943 60.35692139 -21.18733887 59.46384277 -21.18725586 58.54370117 C-21.13444569 52.45830214 -20.47902487 46.90514373 -19 41 C-18.38962711 37.98658425 -17.81806587 35.08033302 -18 32 C-19.75094652 29.4094273 -19.75094652 29.4094273 -22 28 C-18.62528048 17.01421092 -18.62528048 17.01421092 -16 14 C-14 14 -12 14 -10 14 C-5.1783046 10.35432787 -2.70297773 5.27943309 0 0 Z " fill="#F85756" transform="translate(195,302)"/>
<path d="M0 0 C-1.08861328 0.96099609 -1.08861328 0.96099609 -2.19921875 1.94140625 C-5.67674893 5.42627558 -7.63349035 9.57035077 -9.8125 13.9375 C-10.68700762 15.6415471 -11.56332727 17.34466543 -12.44140625 19.046875 C-12.87211426 19.88541016 -13.30282227 20.72394531 -13.74658203 21.58789062 C-17.51436608 28.83870996 -21.51439821 36.02034799 -26.0625 42.8125 C-26.46597656 43.41707031 -26.86945313 44.02164063 -27.28515625 44.64453125 C-29.93489318 46.73897024 -32.71278695 46.70186643 -36 47 C-36.25394531 45.98679687 -36.50789063 44.97359375 -36.76953125 43.9296875 C-37.11683126 42.57803342 -37.46450759 41.22647599 -37.8125 39.875 C-37.97814453 39.20984375 -38.14378906 38.5446875 -38.31445312 37.859375 C-40.00757309 31.34246042 -41.93106547 25.58618859 -48 22 C-51.85662275 21.44905389 -54.0857332 21.531717 -57.5625 23.3125 C-60.67615731 26.74550678 -62.53797943 30.48966073 -64.5703125 34.63671875 C-66 37 -66 37 -69 38 C-71.17017978 34.35624684 -73.33555289 30.70966089 -75.5 27.0625 C-76.12003906 26.02158203 -76.74007812 24.98066406 -77.37890625 23.90820312 C-77.96542969 22.91884766 -78.55195313 21.92949219 -79.15625 20.91015625 C-79.70087891 19.99371338 -80.24550781 19.07727051 -80.80664062 18.13305664 C-82 16 -82 16 -82 15 C-80.70715088 14.75354736 -79.41430176 14.50709473 -78.08227539 14.25317383 C-42.52439904 7.54861174 -42.52439904 7.54861174 -7.05859375 0.37890625 C-4.67474512 -0.05986665 -2.41836096 -0.06909603 0 0 Z " fill="#595454" transform="translate(293,281)"/>
<path d="M0 0 C0.5878125 1.0209375 0.5878125 1.0209375 1.1875 2.0625 C2.9413512 4.37182048 2.9413512 4.37182048 6.34375 4.27734375 C13.19986515 4.11000858 19.87470899 2.27043166 26.53710938 0.77734375 C43.61346821 -2.86922464 43.61346821 -2.86922464 49.30004883 0.26953125 C51.27191455 1.75091737 52.67408342 2.9138309 54 5 C54.04561727 6.66604227 54.04991454 8.33408094 54 10 C53.30777344 10.12528076 52.61554688 10.25056152 51.90234375 10.37963867 C39.63767495 12.60654864 27.38525817 14.86636296 15.1875 17.4375 C14.23230469 17.63714355 13.27710938 17.83678711 12.29296875 18.04248047 C7.95760712 18.95019681 3.62409794 19.86460192 -0.70458984 20.80371094 C-37.61162198 28.79584582 -37.61162198 28.79584582 -47.8125 24.25 C-50.56176634 22.30934141 -52.34302383 20.8997083 -54 18 C-49.82866936 16.52899287 -45.73209433 15.45470865 -41.39453125 14.59765625 C-40.16412109 14.34693359 -38.93371094 14.09621094 -37.66601562 13.83789062 C-35.08649086 13.31884788 -32.50573802 12.80587321 -29.92382812 12.29882812 C-28.69728516 12.04681641 -27.47074219 11.79480469 -26.20703125 11.53515625 C-25.0878833 11.312229 -23.96873535 11.08930176 -22.81567383 10.85961914 C-19.94889403 9.98439746 -18.75380549 9.38696968 -17 7 C-16.27802838 4.39388923 -16.27802838 4.39388923 -16 2 C-13.89829344 1.46932659 -11.79352402 0.95077143 -9.6875 0.4375 C-8.51574219 0.14746094 -7.34398437 -0.14257812 -6.13671875 -0.44140625 C-3 -1 -3 -1 0 0 Z " fill="#F04343" transform="translate(442,225)"/>
<path d="M0 0 C0.66 0.33 1.32 0.66 2 1 C-4.50922446 16.94661069 -12.76017329 31.5806146 -27 42 C-27.66 42 -28.32 42 -29 42 C-29.53109375 40.97519531 -30.0621875 39.95039063 -30.609375 38.89453125 C-31.3226349 37.53370644 -32.03619238 36.17303758 -32.75 34.8125 C-33.09804688 34.13896484 -33.44609375 33.46542969 -33.8046875 32.77148438 C-37.46446526 25.82468399 -40.90446854 21.48552423 -48 18 C-50.77138597 17.22514168 -50.77138597 17.22514168 -53 17 C-53 16.67 -53 16.34 -53 16 C-52.11985229 15.87322876 -52.11985229 15.87322876 -51.22192383 15.74389648 C-40.11345409 14.09719876 -29.29535163 12.12445597 -18.625 8.5625 C-17.7894458 8.28656006 -16.9538916 8.01062012 -16.09301758 7.72631836 C-10.98036026 5.94261813 -6.44653378 3.69664169 -1.82568359 0.87084961 C-1.22320801 0.58346924 -0.62073242 0.29608887 0 0 Z " fill="#595454" transform="translate(349,263)"/>
<path d="M0 0 C4.61452894 2.46638616 7.73310119 5.62245238 10.0625 10.28125 C10.88230659 16.759066 9.89909467 21.95331446 6.0625 27.28125 C2.42670505 30.82836702 -0.50379785 31.56703227 -5.4375 31.78125 C-10.35540102 31.58773693 -13.20311017 30.65130911 -16.9375 27.28125 C-21.01892118 22.7585941 -22.26114536 19.48978647 -22.1484375 13.3359375 C-21.66258058 8.60333116 -19.42007414 5.50084191 -15.9375 2.46875 C-11.12938619 -1.03716632 -5.66514319 -2.10158538 0 0 Z " fill="#D22F2F" transform="translate(48.9375,200.71875)"/>
<path d="M0 0 C5.67476113 1.96434039 9.31400331 5.62800662 12 11 C12.59057744 16.67862925 12.29370905 21.16922672 9 26 C4.99653611 30.03627917 1.41408246 32.12458106 -4.3125 32.3125 C-8.94226662 32.25237316 -11.4369151 31.06591027 -15 28 C-19.08142118 23.4773441 -20.32364536 20.20853647 -20.2109375 14.0546875 C-19.72144252 9.28664383 -17.46819043 6.20887323 -13.9375 3.1875 C-9.17755098 -0.35714288 -5.82192418 -0.53105389 0 0 Z " fill="#D22F2F" transform="translate(189,34)"/>
<path d="M0 0 C0.33 0 0.66 0 1 0 C0.2777325 13.00081492 -7.18126695 21.75038955 -16.48046875 30.2734375 C-21.85354148 32.9092845 -26.98188057 32.42293578 -32.875 32.25 C-34.0403125 32.23195313 -35.205625 32.21390625 -36.40625 32.1953125 C-39.27168249 32.1483382 -42.13541168 32.08266293 -45 32 C-40.90227101 28.82942616 -36.55669059 26.79219872 -31.875 24.59765625 C-29.00658824 23.00366113 -27.26276295 21.340474 -25 19 C-23.38069657 17.93758556 -21.73201519 16.91912472 -20.0625 15.9375 C-12.86156911 11.47700435 -6.00105971 6.00105971 0 0 Z " fill="#FC843E" transform="translate(346,363)"/>
<path d="M0 0 C7.59 0 15.18 0 23 0 C21.68 1.65 20.36 3.3 19 5 C18.67 5.99 18.34 6.98 18 8 C97.53 8 177.06 8 259 8 C259 5.36 259 2.72 259 0 C259.33 0 259.66 0 260 0 C260 2.97 260 5.94 260 9 C174.2 9 88.4 9 0 9 C0 6.03 0 3.06 0 0 Z " fill="#CD3939" transform="translate(126,478)"/>
<path d="M0 0 C7.59 0 15.18 0 23 0 C21.68 1.65 20.36 3.3 19 5 C18.67 6.32 18.34 7.64 18 9 C12.06 9 6.12 9 0 9 C0 6.03 0 3.06 0 0 Z " fill="#CF2E2E" transform="translate(126,478)"/>
<path d="M0 0 C0.33 0 0.66 0 1 0 C0.43267738 10.21180721 -4.12238294 17.64254919 -11 25 C-11.96003573 22.1198928 -12.07845802 20.41400117 -12 17.4375 C-11.87044355 14.08718018 -11.87044355 14.08718018 -13 11 C-12.22914063 10.37351562 -11.45828125 9.74703125 -10.6640625 9.1015625 C-9.15972656 7.87566406 -9.15972656 7.87566406 -7.625 6.625 C-6.62726563 5.81289063 -5.62953125 5.00078125 -4.6015625 4.1640625 C-2.03639494 2.09734084 -2.03639494 2.09734084 0 0 Z " fill="#F35654" transform="translate(346,363)"/>
</svg>
