<?xml version="1.0" encoding="UTF-8"?>
<svg version="1.1" xmlns="http://www.w3.org/2000/svg" width="512" height="512">
<path d="M0 0 C1.19885105 0.98636323 2.38633691 1.98669026 3.5625 3 C4.26246094 3.5465625 4.96242187 4.093125 5.68359375 4.65625 C18.73034938 15.32881267 26.18639736 29.97455005 30.5625 46 C31.4596875 45.50371094 32.356875 45.00742187 33.28125 44.49609375 C68.51948262 25.21353401 103.92130156 20.71072392 143.43969727 17.28027344 C147.46484805 16.93048584 151.48876141 16.56977579 155.51196289 16.19824219 C214.67233147 10.73760793 269.50265599 10.45814678 318.33203125 49.26171875 C359.42149371 83.5563559 377.41627225 128.0686346 382.25 180.375 C386.24247772 225.44185933 386.24247772 225.44185933 379.5625 244 C379.32112305 244.67272949 379.07974609 245.34545898 378.83105469 246.03857422 C375.10960221 256.0209609 370.07788941 264.58239026 363.5625 273 C362.94890625 273.79792969 362.3353125 274.59585937 361.703125 275.41796875 C338.32286914 303.64413234 304.84001503 307.333302 270.67236328 310.56005859 C264.42902247 311.1418098 258.18384719 311.70153815 251.9375 312.25 C250.92410553 312.33903595 249.91071106 312.4280719 248.86660767 312.51980591 C245.9609026 312.77276193 243.0548066 313.02042694 240.1484375 313.265625 C239.28307877 313.34040573 238.41772003 313.41518646 237.52613831 313.49223328 C236.30349525 313.59324089 236.30349525 313.59324089 235.05615234 313.69628906 C234.35404633 313.75528381 233.65194031 313.81427856 232.92855835 313.87506104 C229.81060506 314.03970357 226.68479721 314 223.5625 314 C225.2125 318.62 226.8625 323.24 228.5625 328 C229.84125 327.95359375 231.12 327.9071875 232.4375 327.859375 C234.14580979 327.82182973 235.85414508 327.78543255 237.5625 327.75 C238.40167969 327.71648437 239.24085938 327.68296875 240.10546875 327.6484375 C247.12126675 327.53966544 252.23435322 329.12802778 257.5859375 333.74609375 C258.03195312 334.30425781 258.47796875 334.86242187 258.9375 335.4375 C259.39898437 335.99308594 259.86046875 336.54867188 260.3359375 337.12109375 C264.0424531 342.79890905 264.31220711 348.40072633 263.5625 355 C261.57502936 361.37064915 257.71160621 366.068033 252.015625 369.5625 C247.57516499 371.41101729 243.44872391 371.79670677 238.6875 372.1875 C237.80835938 372.26935547 236.92921875 372.35121094 236.0234375 372.43554688 C233.87075676 372.63443586 231.71673365 372.81870311 229.5625 373 C229.58441406 374.04027344 229.60632813 375.08054687 229.62890625 376.15234375 C229.44423848 386.85221138 225.22216388 400.31909911 217.48046875 408.08984375 C216.82691406 408.63769531 216.17335938 409.18554688 215.5 409.75 C213.71720875 411.21801907 213.71720875 411.21801907 212.5625 413 C212.46519046 416.55788002 213.50013098 419.63163566 214.5625 423 C218.09768251 438.07584284 218.09768251 438.07584284 215.25 443.5 C213.5625 445 213.5625 445 210.5625 445 C210.48123891 447.72977064 210.42188337 450.4571017 210.375 453.1875 C210.34986328 453.95642578 210.32472656 454.72535156 210.29882812 455.51757812 C210.23711186 460.31087488 210.74579946 462.96346851 213.5625 467 C213.5625 471.38218926 212.22987264 474.28450698 209.28515625 477.546875 C202.67221896 483.12513503 194.60951031 485.40508015 186.09375 485.27734375 C178.19373682 484.41175589 170.72516405 481.11721912 165.5625 475 C161.75321152 469.2959873 159.67007987 464.2379019 159.09765625 457.41015625 C158.98067383 456.10981445 158.98067383 456.10981445 158.86132812 454.78320312 C158.70414176 452.97361134 158.55047884 451.16370995 158.40039062 449.35351562 C158.32111328 448.48533203 158.24183594 447.61714844 158.16015625 446.72265625 C158.05973022 445.54328491 158.05973022 445.54328491 157.95727539 444.34008789 C157.56009036 441.4822144 157.56009036 441.4822144 155.5625 437 C150.2825 437.66 145.0025 438.32 139.5625 439 C139.23378906 440.31871094 138.90507812 441.63742187 138.56640625 442.99609375 C133.77469181 461.39648391 126.60988327 481.2334555 109.73828125 491.84375 C101.99952853 495.95626491 93.68276689 495.98903513 85.12109375 494.60546875 C78.62448106 492.57117589 72.79916553 487.45331326 69.140625 481.8046875 C65.14232653 473.95295645 64.15847363 465.90367714 66.2109375 457.2734375 C68.29025318 451.67527991 71.41856426 446.99645534 74.9765625 442.2265625 C76.41491977 440.20719392 77.52651541 438.24634281 78.5625 436 C73.26479459 434.91943284 68.13128474 434.83178565 62.75 434.7890625 C60.78197205 434.76348116 58.8139546 434.73708168 56.84594727 434.70996094 C55.81994415 434.69670776 54.79394104 434.68345459 53.73684692 434.6697998 C14.24102644 434.11239222 -25.47120069 431.39444347 -61.625 413.875 C-62.2540625 413.57489014 -62.883125 413.27478027 -63.53125 412.96557617 C-68.80033655 410.24121892 -72.53526405 406.70670784 -74.4375 401 C-74.94599203 394.77097262 -75.17194209 389.27972848 -71.4375 384 C-66.28238875 379.24143577 -62.51666015 377.77865673 -55.53125 377.5078125 C-54.14311718 377.44500877 -52.7550159 377.38150489 -51.36694336 377.31738281 C-50.64344696 377.28664673 -49.91995056 377.25591064 -49.17453003 377.22424316 C-24.58196723 376.1332235 2.39221573 372.86359614 22.30078125 356.7890625 C24.5625 355 24.5625 355 26.5625 355 C26.52769531 353.91203125 26.49289063 352.8240625 26.45703125 351.703125 C26.25914195 342.66514977 26.74715385 334.69740865 29.5625 326 C27.70625 325.6596875 27.70625 325.6596875 25.8125 325.3125 C2.31831092 320.01803485 -17.60987264 303.49909681 -30.31152344 283.47827148 C-40.17975708 267.14869439 -42.90608227 249.43696511 -44.5625 230.75 C-44.64743713 229.81692017 -44.73237427 228.88384033 -44.81988525 227.92248535 C-50.59904563 164.32309126 -50.59904563 164.32309126 -41.4375 146 C-42.17871094 146.03480469 -42.91992188 146.06960937 -43.68359375 146.10546875 C-50.42414404 146.27872647 -56.84693006 145.86668614 -63.5 144.8125 C-64.22566162 144.71155029 -64.95132324 144.61060059 -65.69897461 144.5065918 C-69.35716324 143.87170663 -71.24515508 143.18901296 -73.91796875 140.5625 C-75.59198551 137.73947945 -75.80577538 136.22240956 -75.4375 133 C-76.22125 132.79375 -77.005 132.5875 -77.8125 132.375 C-81.10126363 131.12753793 -83.31139172 129.76770926 -86.1875 127.8125 C-90.05514782 125.37344281 -92.06744396 124.70498162 -96.5625 125.5625 C-99.43435771 126.04188967 -100.88543861 126.26725963 -103.52734375 124.98828125 C-117.18931527 113.81522335 -126.21881257 94.17927607 -128.4375 77 C-130.26303913 54.54900271 -126.53755815 33.69084356 -112.5 15.5625 C-111.16819974 14.02204245 -109.81422359 12.50044445 -108.4375 11 C-107.77363281 10.24460937 -107.10976562 9.48921875 -106.42578125 8.7109375 C-97.45299564 -0.94185589 -85.87551435 -7.79350974 -73.4375 -12 C-72.52742188 -12.31839844 -71.61734375 -12.63679687 -70.6796875 -12.96484375 C-46.71505686 -19.89861022 -20.01183428 -14.53240346 0 0 Z " fill="#010201" transform="translate(128.4375,16)"/>
<path d="M0 0 C1.25876953 0.66128906 1.25876953 0.66128906 2.54296875 1.3359375 C11.28877629 6.24443724 18.13520979 12.8870863 24.82348633 20.27368164 C37.13623037 33.87023589 51.48437025 43.03621403 70.33447266 44.13623047 C77.35153941 44.3598986 84.35412732 44.36224541 91.328125 43.5 C96.86071323 42.83827911 102.37048567 42.77802776 107.9375 42.75 C108.95779297 42.729375 109.97808594 42.70875 111.02929688 42.6875 C125.47215131 42.61376494 137.3232745 47.84523102 147.74609375 57.74609375 C165.66835946 75.66835946 166.09677338 99.13151213 166.3125 123.1875 C166.33014404 124.30898437 166.34778809 125.43046875 166.3659668 126.5859375 C166.35365203 141.57861228 160.76043044 153.80532391 150.5 164.70703125 C146.39025812 168.47643513 141.85197379 171.28592716 137 174 C135.948125 174.598125 134.89625 175.19625 133.8125 175.8125 C127.59053383 178.43955238 121.27261993 179.33964625 114.60205078 179.86621094 C113.79847893 179.93501559 112.99490707 180.00382025 112.16698456 180.07470989 C109.51023658 180.300712 106.85281982 180.51750041 104.1953125 180.734375 C102.30132892 180.89391417 100.40739887 181.05408997 98.51351929 181.21485901 C94.48188063 181.55599332 90.44994703 181.89328446 86.41772461 182.22744751 C76.89657689 183.01672615 67.37705252 183.82523169 57.85736847 184.63193703 C54.65916875 184.90275815 51.46090432 185.17280554 48.26263428 185.4427948 C30.67861498 186.9295672 13.10363744 188.50503625 -4.46850967 190.12540436 C-39.80278883 193.37961116 -39.80278883 193.37961116 -55.375 194.68099976 C-56.86557386 194.80604697 -58.35598679 194.93303519 -59.84619141 195.06240845 C-83.84994981 197.13770359 -105.61174795 195.9906137 -124.8515625 179.93359375 C-136.23198149 169.69121665 -143.71937319 159.43130205 -149 145 C-149.35965599 144.04167015 -149.35965599 144.04167015 -149.72657776 143.0639801 C-151.71207424 137.50808396 -152.66109902 132.27385514 -153.16796875 126.41015625 C-153.25287064 125.51608566 -153.33777252 124.62201508 -153.42524719 123.70085144 C-153.6930253 120.82244327 -153.94234784 117.9429182 -154.1875 115.0625 C-154.27338379 114.07979126 -154.35926758 113.09708252 -154.44775391 112.08459473 C-157.1967747 80.34272327 -158.62918713 52.07217052 -138.17578125 25.58203125 C-127.32222219 12.70195488 -115.04193642 3.52197309 -99 -2 C-98.37061523 -2.2379126 -97.74123047 -2.4758252 -97.09277344 -2.72094727 C-88.2646807 -5.76363012 -78.98731382 -6.31802584 -69.75 -7.1875 C-68.85804932 -7.27338379 -67.96609863 -7.35926758 -67.04711914 -7.44775391 C-43.38309937 -9.70592526 -21.71564813 -11.5501581 0 0 Z " fill="#5BB28D" transform="translate(293,130)"/>
<path d="M0 0 C10.03296796 7.85022302 19.60260803 16.55301919 27.4375 26.625 C28.14289917 27.53113037 28.14289917 27.53113037 28.86254883 28.45556641 C52.53683435 59.36310171 59.69719547 93.7175105 62.71777344 131.68408203 C62.94894293 134.40012361 63.23098551 137.09578938 63.5625 139.80078125 C66.04232735 161.24827585 62.85564711 183.12397603 50 201 C47.1382231 204.47389371 44.11880396 207.75644388 41 211 C40.33097656 211.70898438 39.66195313 212.41796875 38.97265625 213.1484375 C34.42671765 217.85776078 34.42671765 217.85776078 31 219 C32.71298092 214.59066023 34.71722637 210.36327737 36.78125 206.109375 C40.26704675 197.21612431 40.36216195 188.47092368 40.3125 179 C40.31026428 177.95169006 40.31026428 177.95169006 40.3079834 176.88220215 C40.2062703 150.20756384 37.88692326 124.54434714 19 104 C13.6695509 98.79835357 7.70685983 95.07364315 1.125 91.6875 C0.50181885 91.36193115 -0.1213623 91.0363623 -0.76342773 90.70092773 C-11.24150897 85.56534632 -21.65118085 84.55077592 -33.1875 84.75 C-34.99637695 84.75773437 -34.99637695 84.75773437 -36.84179688 84.765625 C-42.59402277 84.81589022 -48.22621753 85.04259402 -53.93237305 85.76416016 C-69.28521393 87.51535207 -82.51754283 85.65760709 -95 76 C-95.61488281 75.525625 -96.22976563 75.05125 -96.86328125 74.5625 C-100.74038427 71.39892148 -103.95456143 67.84586058 -107.21484375 64.0625 C-117.02833522 52.72437418 -129.05589452 44.5275981 -143 39 C-143.63550781 38.71769531 -144.27101563 38.43539062 -144.92578125 38.14453125 C-164.26660152 29.98576981 -186.23354519 32.4605363 -206.5625 34.3125 C-207.86888428 34.42996582 -209.17526855 34.54743164 -210.52124023 34.66845703 C-235.15512624 37.10986362 -258.11285264 43.31691831 -277 60 C-277.969375 60.77214844 -278.93875 61.54429687 -279.9375 62.33984375 C-296.89681628 76.47126962 -306.98816998 99.62613838 -310 121 C-310.30696868 124.48563444 -310.38046182 127.93920249 -310.375 131.4375 C-310.37483887 132.45593994 -310.37467773 133.47437988 -310.37451172 134.52368164 C-310.21810629 146.03429822 -309.16596582 157.47922353 -308.125 168.9375 C-308.03804871 169.90388397 -307.95109741 170.87026794 -307.86151123 171.86593628 C-307.605635 174.67054567 -307.34020178 177.47405089 -307.0703125 180.27734375 C-306.99310974 181.10890991 -306.91590698 181.94047607 -306.83636475 182.79724121 C-305.95309634 191.64417508 -304.24933003 200.1250307 -301.25 208.5 C-300.98759521 209.23412109 -300.72519043 209.96824219 -300.45483398 210.72460938 C-296.89534202 220.35255184 -291.43772595 228.07546591 -285 236 C-283.8553125 237.5159375 -283.8553125 237.5159375 -282.6875 239.0625 C-278.86679 243.23862489 -274.47060279 246.54925347 -270 250 C-268.33107431 251.33050464 -266.66376418 252.66304664 -265 254 C-284.62594533 252.4903119 -302.19994405 241.41071307 -314.83984375 226.7421875 C-326.37603227 212.09769501 -331.51209472 196.44773056 -333 178 C-333.17202223 176.0428669 -333.34528137 174.08584227 -333.51953125 172.12890625 C-333.78934248 169.07984726 -334.05488832 166.03082786 -334.30371094 162.97998047 C-334.38008789 162.04686035 -334.45646484 161.11374023 -334.53515625 160.15234375 C-334.63389038 158.9147229 -334.63389038 158.9147229 -334.73461914 157.65209961 C-334.93741209 155.62547602 -335.21033556 153.60575288 -335.51416016 151.59179688 C-340.76446874 112.7764502 -330.41792059 71.63628268 -306.9375 40.3125 C-279.68914056 5.22393587 -243.68188379 -15.31813363 -199.80065918 -21.44683838 C-192.46573475 -22.33685675 -185.11030436 -22.98639847 -177.75 -23.625 C-175.48794583 -23.83135866 -173.22598385 -24.03873012 -170.96411133 -24.24707031 C-155.69599763 -25.6405943 -140.41697096 -26.93195775 -125.12988281 -28.10009766 C-124.41997696 -28.15487274 -123.71007111 -28.20964783 -122.97865295 -28.26608276 C-121.10792214 -28.40969192 -119.2369543 -28.55020442 -117.3659668 -28.69042969 C-115.05768063 -28.90272438 -112.75491246 -29.18263116 -110.46142578 -29.51904297 C-71.64546878 -34.91242957 -31.49700264 -22.72724896 0 0 Z " fill="#A2E1FD" transform="translate(433,74)"/>
<path d="M0 0 C5.64452451 10.51049391 7.67571672 20.09786384 8 32 C8.03254883 33.03141113 8.06509766 34.06282227 8.09863281 35.12548828 C9.09402915 70.87429322 9.09402915 70.87429322 -2 84 C-2.52464844 84.62261719 -3.04929687 85.24523437 -3.58984375 85.88671875 C-15.51345848 98.82033379 -34.3178117 102.99621003 -51 106 C-51.69485504 106.12559296 -52.38971008 106.25118591 -53.10562134 106.38058472 C-65.34464348 108.54041215 -77.26016817 109.47938667 -89.68408203 109.39111328 C-92.39535813 109.3748781 -95.10517167 109.39116251 -97.81640625 109.41015625 C-116.66014596 109.43337732 -134.59336775 106.55010743 -148.8671875 93.26171875 C-163.40809351 78.19035051 -165.44824346 50.5659804 -165.234375 30.58984375 C-165.0359748 24.50429902 -163.73201794 18.83525091 -162 13 C-160.86046875 12.95101563 -159.7209375 12.90203125 -158.546875 12.8515625 C-156.9479037 12.77631679 -155.3489461 12.70077944 -153.75 12.625 C-153.01136719 12.5940625 -152.27273437 12.563125 -151.51171875 12.53125 C-144.6461161 12.19634255 -137.82898153 11.50296517 -130.99346924 10.80209351 C-122.43174786 9.92891146 -113.86095906 9.19566604 -105.28469849 8.48181152 C-90.32781246 7.23672932 -75.37471792 5.95223806 -60.4258461 4.6145401 C-58.1021947 4.40665603 -55.77850479 4.19920762 -53.45480347 3.99188232 C-46.5453198 3.3751818 -39.63597266 2.7571584 -32.72727299 2.13172913 C-29.83725454 1.87083531 -26.94698114 1.61285289 -24.05663872 1.35557556 C-22.06203564 1.17707704 -20.06776241 0.99490458 -18.07350159 0.81262207 C-12.02254213 0.27609892 -6.07492966 -0.14239229 0 0 Z " fill="#D8DCDF" transform="translate(335,331)"/>
<path d="M0 0 C10.2436053 7.91978369 17.85392449 18.29762767 22.33984375 30.484375 C22.73171875 31.474375 23.12359375 32.464375 23.52734375 33.484375 C25.73352178 41.6302631 25.73352178 41.6302631 25.33984375 45.484375 C23.48693109 48.43085265 21.027807 50.4319746 18.33984375 52.609375 C17.00540314 53.7565257 15.67206608 54.90496138 14.33984375 56.0546875 C13.673479 56.61849121 13.00711426 57.18229492 12.32055664 57.76318359 C-6.08146082 73.75408993 -16.98364079 96.00912501 -27.66015625 117.484375 C-31.57680733 117.51342364 -35.49343065 117.53119017 -39.41015625 117.546875 C-41.07691406 117.55944336 -41.07691406 117.55944336 -42.77734375 117.57226562 C-43.84726563 117.57548828 -44.9171875 117.57871094 -46.01953125 117.58203125 C-47.49631348 117.58988647 -47.49631348 117.58988647 -49.00292969 117.59790039 C-51.40794472 117.4951503 -53.3540695 117.11749516 -55.66015625 116.484375 C-59.20215266 116.06764293 -59.20215266 116.06764293 -62.66015625 116.484375 C-64.64255152 118.34562423 -64.64255152 118.34562423 -65.66015625 120.484375 C-69.98839295 119.88211572 -73.18995463 118.3288001 -76.97265625 116.171875 C-78.04128906 115.57761719 -79.10992187 114.98335938 -80.2109375 114.37109375 C-81.01917969 113.74847656 -81.82742187 113.12585938 -82.66015625 112.484375 C-82.66015625 108.484375 -82.66015625 108.484375 -82.37890625 105.54296875 C-82.75433567 101.4601738 -84.22379179 100.34615015 -87.16015625 97.546875 C-98.98612391 85.15138482 -104.62792461 69.49915525 -105.16015625 52.484375 C-104.56657157 32.93437648 -96.85229283 16.87101194 -82.66015625 3.484375 C-58.89944551 -16.7189412 -25.35026716 -18.19590487 0 0 Z " fill="#F8DF7B" transform="translate(119.66015625,28.515625)"/>
<path d="M0 0 C0.66 0.33 1.32 0.66 2 1 C1.79431396 1.85718628 1.79431396 1.85718628 1.58447266 2.73168945 C-0.41801733 12.16418818 -0.44851132 21.58817056 -0.625 31.1875 C-0.66326446 32.91993969 -0.70232081 34.65236207 -0.7421875 36.38476562 C-0.8372517 40.58970005 -0.92161111 44.79472302 -1 49 C-2.98567708 49.46183268 -4.97135417 49.92366536 -6.95703125 50.38549805 C-10.01228197 51.304483 -11.86009569 52.65947967 -14 55 C-14.41870553 57.66928121 -14.41870553 57.66928121 -14 60 C-12.62929219 60.65489373 -11.25316556 61.29844963 -9.875 61.9375 C-9.10929687 62.29714844 -8.34359375 62.65679687 -7.5546875 63.02734375 C-4.7154023 64.108356 -1.99570053 64.53676592 1 65 C2.51698581 70.93791588 3.99446629 76.87638781 5.2890625 82.8671875 C14.183763 123.37969035 35.75742489 161.6054247 68.44921875 187.8125 C69.29097656 188.534375 70.13273437 189.25625 71 190 C71 190.66 71 191.32 71 192 C66.00595923 192.43543928 61.0112746 192.86224408 56.01586914 193.28173828 C54.32361927 193.42498905 52.63155266 193.57042488 50.93969727 193.71826172 C25.78832695 195.91182531 2.57927095 195.98460531 -17.8515625 178.93359375 C-29.23198149 168.69121665 -36.71937319 158.43130205 -42 144 C-42.35965599 143.04167015 -42.35965599 143.04167015 -42.72657776 142.0639801 C-44.71207424 136.50808396 -45.66109902 131.27385514 -46.16796875 125.41015625 C-46.25287064 124.51608566 -46.33777252 123.62201508 -46.42524719 122.70085144 C-46.6930253 119.82244327 -46.94234784 116.9429182 -47.1875 114.0625 C-47.27338379 113.07979126 -47.35926758 112.09708252 -47.44775391 111.08459473 C-50.1967747 79.34272327 -51.62918713 51.07217052 -31.17578125 24.58203125 C-22.69901959 14.52253492 -12.4242643 5.00932752 0 0 Z " fill="#52A07F" transform="translate(186,131)"/>
<path d="M0 0 C-0.44025513 0.8496936 -0.44025513 0.8496936 -0.8894043 1.71655273 C-8.92722513 18.2427647 -13.74890782 36.97121608 -17 55 C-16.34 55.33 -15.68 55.66 -15 56 C-15.93005859 56.29390625 -15.93005859 56.29390625 -16.87890625 56.59375 C-29.64858546 60.90607253 -40.83527097 67.1434274 -51 76 C-51.97195312 76.7734375 -52.94390625 77.546875 -53.9453125 78.34375 C-70.89779449 92.48198597 -80.98808361 115.62552545 -84 137 C-84.30696868 140.48563444 -84.38046182 143.93920249 -84.375 147.4375 C-84.37483887 148.45593994 -84.37467773 149.47437988 -84.37451172 150.52368164 C-84.21810629 162.03429822 -83.16596582 173.47922353 -82.125 184.9375 C-82.03804871 185.90388397 -81.95109741 186.87026794 -81.86151123 187.86593628 C-81.605635 190.67054567 -81.34020178 193.47405089 -81.0703125 196.27734375 C-80.99310974 197.10890991 -80.91590698 197.94047607 -80.83636475 198.79724121 C-79.95309634 207.64417508 -78.24933003 216.1250307 -75.25 224.5 C-74.98759521 225.23412109 -74.72519043 225.96824219 -74.45483398 226.72460938 C-70.89534202 236.35255184 -65.43772595 244.07546591 -59 252 C-57.8553125 253.5159375 -57.8553125 253.5159375 -56.6875 255.0625 C-52.86679 259.23862489 -48.47060279 262.54925347 -44 266 C-42.33107431 267.33050464 -40.66376418 268.66304664 -39 270 C-58.62594533 268.4903119 -76.19994405 257.41071307 -88.83984375 242.7421875 C-100.37603227 228.09769501 -105.51209472 212.44773056 -107 194 C-107.17202223 192.0428669 -107.34528137 190.08584227 -107.51953125 188.12890625 C-107.78934248 185.07984726 -108.05488832 182.03082786 -108.30371094 178.97998047 C-108.38008789 178.04686035 -108.45646484 177.11374023 -108.53515625 176.15234375 C-108.63389038 174.9147229 -108.63389038 174.9147229 -108.73461914 173.65209961 C-108.93741209 171.62547602 -109.21033556 169.60575288 -109.51416016 167.59179688 C-114.76446874 128.7764502 -104.41792059 87.63628268 -80.9375 56.3125 C-64.24853487 34.82159797 -30.01546778 0 0 0 Z " fill="#90C9E2" transform="translate(207,58)"/>
<path d="M0 0 C2.93986826 1.14726566 4.57774259 2.49141903 6.5859375 4.91015625 C11.83037385 11.0065369 15.87373648 11.85442789 23.77734375 12.58984375 C29.07321269 13.26386343 31.41695141 15.15310998 34.875 19.1875 C36.49960337 23.24900842 36.77599453 26.68739321 36 31 C34.83984375 33.453125 34.83984375 33.453125 33.4375 35.9375 C30.44582144 41.36622008 30.99687028 45.06639305 32 51 C32.45189787 55.82284106 32.51520816 59.00638426 30.25 63.375 C26.65460665 67.56962558 26.65460665 67.56962558 24 69 C20.76075142 69.24751221 17.55343401 69.03763703 14.3125 68.875 C7.42713085 68.6792395 2.59975415 68.72411906 -3.1953125 72.80859375 C-6.45357824 74.95961334 -9.11677556 75 -13 75 C-18.27944725 73.41616582 -20.98512636 71.5758103 -24 67 C-24.73046875 63.51171875 -24.73046875 63.51171875 -25.1875 59.6875 C-26.22281551 52.9120808 -28.46580151 49.79294478 -33.8984375 45.6875 C-37.17628994 43.05546979 -37.98189229 41.07243085 -39 37 C-39.26243089 32.51243175 -38.40315459 29.66325433 -36.0625 25.8125 C-32.53595289 22.02664796 -27.74390989 19.89756396 -23 18 C-22.34 18 -21.68 18 -21 18 C-20.88011719 17.26910156 -20.76023437 16.53820312 -20.63671875 15.78515625 C-19.33561481 10.09382428 -16.50253237 5.40008698 -12.25 1.4375 C-7.99792176 -0.44322691 -4.57663025 -0.67454065 0 0 Z " fill="#010001" transform="translate(56,300)"/>
<path d="M0 0 C4.79537172 2.33095991 7.00230228 5.8260327 9.125 10.5625 C11.36625051 15.06004297 13.81897521 16.05703069 18.5 17.6875 C20.20929688 18.244375 20.20929688 18.244375 21.953125 18.8125 C26.7685031 20.68926275 28.712488 23.424976 31 28 C31.51525622 34.08002335 30.77685314 38.04072779 27 43 C26.48308594 43.495 25.96617187 43.99 25.43359375 44.5 C20.31742289 49.43124902 20.47819305 53.82223809 20.2578125 60.7421875 C19.82795997 66.17396035 17.91507854 68.31022482 13.875 71.875 C9.54996101 73.56740656 5.58299201 73.67742567 1 73 C-1.12109375 71.9921875 -1.12109375 71.9921875 -3.1875 70.8125 C-7.56950806 68.55911863 -10.94870657 69.26356982 -15.5625 70.375 C-21.44768225 71.7908744 -25.37095298 72.60604029 -31 70 C-33.93474481 67.39790888 -35.74850805 64.75447585 -37 61 C-36.9216242 59.2014817 -36.84012713 57.40295743 -36.73242188 55.60595703 C-36.31758431 47.47325507 -37.46826699 43.2144573 -42.42578125 36.52734375 C-45.00213924 32.39110649 -44.98703616 28.68019648 -44 24 C-42.52085113 20.19647434 -41.24541305 18.57738295 -37.53125 16.85546875 C-34.70772859 15.819919 -31.87505131 14.88179177 -29 14 C-22.43114876 11.961391 -19.24482034 8.31828922 -14.91796875 3.1796875 C-10.96294952 -1.31501867 -5.61614139 -0.7923187 0 0 Z " fill="#010000" transform="translate(442,402)"/>
<path d="M0 0 C8.94322084 6.73337025 15.63022188 18.02243297 18 29 C18.80073102 38.77815762 17.27537202 47.23835566 11 55 C3.6141813 62.75733875 -2.64070263 65.96467583 -13.3125 66.5625 C-21.63893492 66.32904855 -28.21883116 63.36646 -34.421875 57.84375 C-41.59279282 50.20174999 -44.41717422 42.315675 -44.27734375 31.875 C-43.03884179 19.03644442 -36.82395592 7.27887365 -27 -1 C-17.85371441 -7.38112948 -8.95990992 -5.88037634 0 0 Z " fill="#030303" transform="translate(315,351)"/>
<path d="M0 0 C1.443837 3.09393644 2.22829065 6.03666084 2.8125 9.375 C5.00420755 20.77527724 9.13470626 31.00664029 15 41 C15.67278551 42.33025632 16.34043898 43.66313745 17 45 C-18.5234414 46.13507371 -56.86854494 42.66224742 -88 24 C-87.67 22.68 -87.34 21.36 -87 20 C-85.52744751 19.93268677 -85.52744751 19.93268677 -84.02514648 19.86401367 C-80.30627215 19.69093796 -76.58828356 19.50266724 -72.87036133 19.31030273 C-71.27550639 19.22979977 -69.68045052 19.15316366 -68.08520508 19.08081055 C-53.42251301 18.41117579 -39.71133493 16.46739801 -25.875 11.25 C-24.47459473 10.73373047 -24.47459473 10.73373047 -23.04589844 10.20703125 C-16.46246293 7.71686444 -10.33273034 4.80767433 -4.265625 1.25 C-2 0 -2 0 0 0 Z " fill="#DADEE1" transform="translate(157,389)"/>
<path d="M0 0 C1.3761145 -0.03371704 1.3761145 -0.03371704 2.7800293 -0.06811523 C9.26599137 -0.044635 9.26599137 -0.044635 12.5 2.27734375 C14.36893746 5.08582857 14.86727407 7.06665529 14.9375 10.4375 C13.22534522 13.60498634 12.40014391 14.28328536 8.9375 15.4375 C6.24740088 15.61837113 3.5677509 15.75967938 0.875 15.875 C-8.76674479 16.39652982 -17.04007782 17.88475282 -26.0625 21.375 C-26.72266113 21.62789795 -27.38282227 21.8807959 -28.06298828 22.14135742 C-31.52368571 23.54627978 -32.93599063 24.24773594 -35.0625 27.4375 C-34.88017408 31.26498905 -34.88017408 31.26498905 -33.0625 34.4375 C-26.88357831 35.26135622 -22.43159078 33.1519427 -16.83203125 30.62890625 C-11.04456505 28.13923461 -5.43169863 28.08269244 0.8203125 27.71875 C3.84209982 27.63729618 3.84209982 27.63729618 5.9375 26.4375 C9.44110855 26.17797344 12.1016151 26.09457286 15.375 27.4375 C17.40152775 30.03145552 17.56558192 32.25805787 17.375 35.50390625 C16.9375 37.4375 16.9375 37.4375 15 39.8125 C9.98261354 42.47478669 5.0599457 43.20272668 -0.55859375 43.82421875 C-6.94087432 44.53626438 -12.39756161 45.33597031 -18.25 48.0625 C-25.30034811 51.27844826 -31.94520122 51.68045812 -39.375 49.4375 C-44.6851653 45.48574908 -49.02028739 40.8157849 -51.0625 34.4375 C-51.99309714 27.88413702 -51.46163123 22.80745286 -47.7421875 17.2890625 C-43.25956791 12.34775625 -38.57493256 9.37638878 -32.5 6.8125 C-31.79383545 6.51400146 -31.0876709 6.21550293 -30.36010742 5.90795898 C-20.26412217 1.76458577 -10.8863947 0.17700701 0 0 Z " fill="#030304" transform="translate(233.0625,356.5625)"/>
<path d="M0 0 C6.33289858 4.17877137 10.80594228 9.62397426 13 16.9375 C14.11586797 24.98414789 12.69313711 31.28794669 8 37.9375 C3.23258095 43.22375521 -1.30370488 46.54674509 -8.53515625 47.1484375 C-17.37881789 47.46471701 -23.87426705 45.71385597 -30.4609375 39.68359375 C-35.34351478 34.14422308 -37.35576845 27.37976961 -37.20703125 20.078125 C-36.47443992 12.50340705 -32.51296011 6.9817469 -27 1.9375 C-19.64711131 -3.93162191 -8.23443343 -4.20778155 0 0 Z " fill="#010202" transform="translate(406,243.0625)"/>
<path d="M0 0 C5.36900596 2.34246206 8.79687383 6.33090732 11.6484375 11.3828125 C13.49982911 17.1176109 13.53864294 23.12232092 11.0234375 28.6328125 C8.25072549 33.58619837 4.32820043 36.26297055 -0.3515625 39.3828125 C-6.95704245 40.19772343 -14.31121107 40.88444269 -19.9765625 36.8828125 C-25.03703735 32.1538098 -28.59039406 27.47788841 -28.8515625 20.3828125 C-28.44783943 13.63339084 -27.0648111 8.58379945 -21.9140625 4.0078125 C-15.31213773 -1.27963508 -8.23390788 -2.16105888 0 0 Z " fill="#E1CB70" transform="translate(64.3515625,43.6171875)"/>
<path d="M0 0 C0.25394531 1.18078125 0.50789063 2.3615625 0.76953125 3.578125 C1.11666444 5.13553335 1.46434971 6.69281871 1.8125 8.25 C1.97814453 9.02730469 2.14378906 9.80460937 2.31445312 10.60546875 C3.53724157 16.37596149 3.53724157 16.37596149 7 21 C9.59855733 21.8042208 9.59855733 21.8042208 12 22 C12.02699725 24.27076842 12.04639453 26.54162821 12.0625 28.8125 C12.07410156 30.07707031 12.08570313 31.34164063 12.09765625 32.64453125 C12 36 12 36 11 39 C9.7625 38.814375 9.7625 38.814375 8.5 38.625 C4.09350837 39.0971241 2.16447178 40.80952354 -1.16796875 43.58984375 C-5.24409707 46.72733272 -10.08953378 46.58757715 -15 46 C-19.44059893 43.94416716 -21.51425595 41.84013207 -23.34863281 37.31616211 C-24.78673787 32.20248043 -24.87360178 26.84117378 -25.1875 21.5625 C-25.26935547 20.35400391 -25.35121094 19.14550781 -25.43554688 17.90039062 C-25.63486012 14.93414055 -25.82266166 11.96763132 -26 9 C-25.41508789 8.79842285 -24.83017578 8.5968457 -24.22753906 8.38916016 C-21.56737162 7.47060571 -18.90868088 6.54784791 -16.25 5.625 C-15.32960938 5.30789063 -14.40921875 4.99078125 -13.4609375 4.6640625 C-12.57148438 4.3546875 -11.68203125 4.0453125 -10.765625 3.7265625 C-9.94868164 3.44377441 -9.13173828 3.16098633 -8.29003906 2.86962891 C-5.98369206 2.04114227 -5.98369206 2.04114227 -3.82714844 0.89208984 C-2 0 -2 0 0 0 Z " fill="#93999E" transform="translate(327,439)"/>
<path d="M0 0 C9.57 0 19.14 0 29 0 C25.67708318 15.28541737 20.91483846 28.14230063 9 39 C5.16564356 41.35676243 1.41192531 41.6970672 -3 41 C-6.83669597 38.97306628 -9.99766408 36.89928574 -12 33 C-13.27319644 28.25780457 -13.4635504 25.03835289 -11.4375 20.5 C-10.65013786 19.3162229 -9.83502865 18.1506496 -9 17 C-7.97241181 15.52551798 -6.95191211 14.0460777 -5.9375 12.5625 C-5.45152344 11.88316406 -4.96554688 11.20382812 -4.46484375 10.50390625 C-2.45070129 7.22358544 -2.45070129 7.22358544 0 0 Z " fill="#92989D" transform="translate(222,455)"/>
<path d="M0 0 C2.11094209 2.11094209 2.62725183 3.28613501 3.5625 6.0625 C3.81128906 6.77535156 4.06007812 7.48820312 4.31640625 8.22265625 C4.54199219 9.13917969 4.76757812 10.05570313 5 11 C5.1841748 11.6815918 5.36834961 12.36318359 5.55810547 13.06542969 C6.25595952 16.48280863 6.70495392 18.88562672 4.78344727 21.9230957 C2.95136632 23.80975701 1.04331191 25.4698032 -1 27.125 C-2.33444061 28.2721507 -3.66777767 29.42058638 -5 30.5703125 C-5.66507568 31.13258545 -6.33015137 31.6948584 -7.01538086 32.27416992 C-11.78872808 36.42508535 -16.12678768 40.88247345 -19.9375 45.9375 C-20.52402344 46.70964844 -21.11054687 47.48179688 -21.71484375 48.27734375 C-22.13894531 48.84582031 -22.56304687 49.41429687 -23 50 C-28.65810755 43.17124951 -31.13579859 38.49696256 -31.1875 29.625 C-31.20167969 28.52414063 -31.21585937 27.42328125 -31.23046875 26.2890625 C-30.72894469 19.13171908 -27.61942326 13.36851893 -23 8 C-16.41198112 2.38886638 -8.61323643 0.10015391 0 0 Z " fill="#DFC96F" transform="translate(139,54)"/>
<path d="M0 0 C7.31521496 4.53044563 11.63997536 11.34027014 13.62890625 19.6171875 C14.43156923 25.17668475 13.98899175 29.08262648 11 34 C7.09985836 37.9934961 3.84296388 40.15149043 -1.75 40.3125 C-6.63630347 40.24913295 -9.29038005 39.35632281 -13 36 C-17.16739187 30.48102158 -18.81678286 25.90862166 -18 19 C-16.0661569 11.67451825 -13.2490715 4.18680363 -7 -0.5 C-4.3356417 -1.16608957 -2.64390246 -0.71999129 0 0 Z " fill="#5BAF8A" transform="translate(304,362)"/>
<path d="M0 0 C3.6403938 1.2134646 3.84119166 2.08013783 5.6875 5.3125 C8.76345759 10.14505182 11.77593825 11.95902041 17 14 C18.33888445 14.65544692 19.6738147 15.31922488 21 16 C20.59007812 16.53109375 20.18015625 17.0621875 19.7578125 17.609375 C19.21898437 18.31578125 18.68015625 19.0221875 18.125 19.75 C17.59132813 20.44609375 17.05765625 21.1421875 16.5078125 21.859375 C13.55320383 26.05400078 12.71139506 29.09194237 12.375 34.25 C12.30023438 35.32765625 12.22546875 36.4053125 12.1484375 37.515625 C12.09945312 38.33546875 12.05046875 39.1553125 12 40 C11.47792969 39.7834375 10.95585937 39.566875 10.41796875 39.34375 C2.16130974 36.22039038 -5.39313375 36.43740642 -14 38 C-14.01417969 37.01 -14.02835937 36.02 -14.04296875 35 C-14.25665473 27.99446927 -14.46493234 22.16256559 -18.94140625 16.41796875 C-20 15 -20 15 -20 13 C-18.77023437 12.60167969 -18.77023437 12.60167969 -17.515625 12.1953125 C-16.43796875 11.84210938 -15.3603125 11.48890625 -14.25 11.125 C-13.18265625 10.77695312 -12.1153125 10.42890625 -11.015625 10.0703125 C-6.17691156 8.55739743 -6.17691156 8.55739743 -2.875 5.0625 C-2.441875 4.0415625 -2.441875 4.0415625 -2 3 C-1.34 2.01 -0.68 1.02 0 0 Z " fill="#F982B2" transform="translate(435,419)"/>
<path d="M0 0 C0.65355469 0.59748047 0.65355469 0.59748047 1.3203125 1.20703125 C8.0829944 7.22318333 14.13994486 9.51165082 23 11 C21.19354839 16.67741935 21.19354839 16.67741935 19.875 18.875 C17.61561208 24.36208494 19.18316073 31.28212514 20 37 C19.195625 36.835 18.39125 36.67 17.5625 36.5 C9.61348306 35.3843485 4.78370874 35.50240715 -2.15234375 39.90625 C-4 41 -4 41 -6 41 C-6.14695312 40.14277344 -6.29390625 39.28554688 -6.4453125 38.40234375 C-7.89421955 31.01624859 -9.40221865 26.10214446 -15 21 C-16.00231749 20.00232287 -17.00297175 19.00296294 -18 18 C-17.25234375 17.64808594 -16.5046875 17.29617188 -15.734375 16.93359375 C-9.31265879 13.71433025 -5.88326679 11.6074864 -3 5 C-2.00522955 3.33020674 -1.00739746 1.66220581 0 0 Z " fill="#FB83B3" transform="translate(52,317)"/>
<path d="M0 0 C2.07529546 1.70610544 2.92467642 2.69718908 3.58203125 5.33984375 C3.65808594 6.19707031 3.73414063 7.05429687 3.8125 7.9375 C3.90144531 8.79214844 3.99039063 9.64679688 4.08203125 10.52734375 C3.99271592 13.21956284 3.37443965 14.71280506 2 17 C1.34 16.67 0.68 16.34 0 16 C-4.65275976 15.6947378 -4.65275976 15.6947378 -9 17 C-11.12347634 17.13162043 -13.24903421 17.23037108 -15.375 17.3125 C-23.09730507 17.80507501 -30.22495256 19.50214709 -37.11328125 23.10546875 C-40.1633162 24.55155157 -42.69471901 24.36057611 -46 24 C-48 22.375 -48 22.375 -49 20 C-48.9375 16.9375 -48.9375 16.9375 -48 14 C-44.64482592 10.8200962 -40.45344338 9.44272434 -36.1875 7.875 C-35.50107422 7.61074219 -34.81464844 7.34648437 -34.10742188 7.07421875 C-26.20909199 4.130092 -18.2999197 3.77922706 -9.96484375 3.39453125 C-6.76876008 3.22990172 -4.05243394 3.01747798 -1 2 C-0.67 1.34 -0.34 0.68 0 0 Z " fill="#91979C" transform="translate(246,368)"/>
<path d="M0 0 C1.443837 3.09393644 2.22829065 6.03666084 2.8125 9.375 C5.00420755 20.77527724 9.13470626 31.00664029 15 41 C15.67836009 42.32742224 16.34941491 43.65874638 17 45 C3.62768792 46.21107732 3.62768792 46.21107732 0.03125 43.53515625 C-1.28326687 41.40749273 -2.15410559 39.35190268 -3 37 C-3.33773437 36.32582031 -3.67546875 35.65164063 -4.0234375 34.95703125 C-8.33828545 26.31111411 -11.34490728 16.6820402 -11 7 C-11.66 6.67 -12.32 6.34 -13 6 C-11.21118264 4.99491199 -9.41885304 3.99607264 -7.625 3 C-6.62726563 2.443125 -5.62953125 1.88625 -4.6015625 1.3125 C-2 0 -2 0 0 0 Z " fill="#C4C7CA" transform="translate(157,389)"/>
<path d="M0 0 C9.57 0 19.14 0 29 0 C27.68 5.28 26.36 10.56 25 16 C24.67 15.34 24.34 14.68 24 14 C20.04900072 13.9753015 16.09803126 13.95714077 12.14697266 13.94506836 C10.14093449 13.93755964 8.13491798 13.9248553 6.12890625 13.91210938 C4.87207031 13.90888672 3.61523438 13.90566406 2.3203125 13.90234375 C1.15773926 13.89710693 -0.00483398 13.89187012 -1.20263672 13.88647461 C-3.95502192 13.80643717 -3.95502192 13.80643717 -6 15 C-4 10 -2 5 0 0 Z " fill="#82878C" transform="translate(222,455)"/>
<path d="M0 0 C1.28648437 -0.02835938 2.57296875 -0.05671875 3.8984375 -0.0859375 C8.19259968 0.44520625 10.32374409 1.62395341 13.625 4.375 C14.5 7.125 14.5 7.125 14.625 9.375 C8.23031395 15.44995174 1.72464182 16.89264217 -6.96875 16.69140625 C-10.98443054 16.16337033 -13.18496287 14.88630582 -16.375 12.375 C-17.3125 9.625 -17.3125 9.625 -17.375 7.375 C-11.43287565 2.24316534 -8.14477676 0.0812852 0 0 Z " fill="#FBA8C9" transform="translate(294.375,169.625)"/>
<path d="M0 0 C1.5912689 4.873261 2.21192221 8.80790596 2 14 C-5.68216232 18.3190037 -13.48643032 20.80413693 -22 23 C-22.33 26.96 -22.66 30.92 -23 35 C-23.33 35 -23.66 35 -24 35 C-24.66 26.42 -25.32 17.84 -26 9 C-16.25 5.625 -16.25 5.625 -13.19628906 4.57275391 C-12.39416992 4.29351074 -11.59205078 4.01426758 -10.765625 3.7265625 C-9.94868164 3.44377441 -9.13173828 3.16098633 -8.29003906 2.86962891 C-5.98369206 2.04114227 -5.98369206 2.04114227 -3.82714844 0.89208984 C-2 0 -2 0 0 0 Z " fill="#82878C" transform="translate(327,439)"/>
<path d="M0 0 C1 1 1 1 1.375 3.8125 C1 7 1 7 -1.1875 9.25 C-7.98961621 13.48242786 -14.12248159 13.65807279 -22 13 C-24.96799572 12.19678004 -27.7731607 11.2268393 -30 9 C-30.4375 6.75 -30.4375 6.75 -30 4 C-21.78939786 -4.8263973 -10.40855669 -4.56515644 0 0 Z " fill="#FBA7C9" transform="translate(201,182)"/>
<path d="M0 0 C3.82719859 0.70295484 5.33223851 1.80080457 8.0625 4.5625 C8.91015625 7.875 8.91015625 7.875 9.125 11.5625 C9.21910156 12.779375 9.31320313 13.99625 9.41015625 15.25 C9.0625 18.5625 9.0625 18.5625 7.2421875 20.9375 C4.40110248 23.05558489 2.60823375 23.5625 -0.9375 23.5625 C-4.4652503 21.457399 -5.74378007 20.31149087 -6.78515625 16.28515625 C-6.85605469 15.07730469 -6.92695313 13.86945313 -7 12.625 C-7.09410156 11.41972656 -7.18820313 10.21445313 -7.28515625 8.97265625 C-6.78176451 4.03489232 -5.02318459 0.96188641 0 0 Z " fill="#030705" transform="translate(203.9375,153.4375)"/>
<path d="M0 0 C3.28079607 0.84836747 4.90003114 2.9118294 6.93359375 5.5 C8.3779023 8.38861709 8.31047881 10.29647701 7.93359375 13.5 C4.68984362 17.34128305 2.6313629 19.30779972 -2.37890625 19.875 C-6.06640625 19.5 -6.06640625 19.5 -9.00390625 17.5625 C-11.41217214 13.98659004 -11.81160317 11.89468302 -11.54296875 7.66015625 C-10.18965588 1.52587744 -5.72966601 -0.34659605 0 0 Z " fill="#474D56" transform="translate(396.06640625,255.5)"/>
<path d="M0 0 C3 0.5 3 0.5 5.3125 2.125 C7.397188 5.05900534 7.72430393 6.91595107 8 10.5 C8.0515625 11.16773438 8.103125 11.83546875 8.15625 12.5234375 C8.29448034 15.62210103 8.18360308 18.07879293 6.9375 20.9375 C4.03161886 23.28095253 1.68135499 23.43541482 -2 23.5 C-5.21629947 21.8072108 -5.83726711 20.98819868 -7 17.5 C-7.17032265 15.3584021 -7.26617837 13.21036073 -7.3125 11.0625 C-7.36857422 9.36287109 -7.36857422 9.36287109 -7.42578125 7.62890625 C-7 4.5 -7 4.5 -5.16796875 2.12109375 C-3 0.5 -3 0.5 0 0 Z " fill="#020403" transform="translate(271,147.5)"/>
<path d="M0 0 C0.94746094 -0.02578125 1.89492188 -0.0515625 2.87109375 -0.078125 C6.01417259 0.30506603 7.34987056 1.00649666 9.5625 3.25 C10.29160999 9.08287991 10.29160999 9.08287991 8.515625 11.92578125 C5.52954496 13.95034352 2.37125194 13.8232434 -1.125 13.9375 C-1.82689453 13.97166016 -2.52878906 14.00582031 -3.25195312 14.04101562 C-4.97991387 14.12329947 -6.70868072 14.1883324 -8.4375 14.25 C-8.4375 9.96 -8.4375 5.67 -8.4375 1.25 C-5.40443887 0.23897962 -3.17809761 0.0517465 0 0 Z " fill="#8F9499" transform="translate(366.4375,358.75)"/>
<path d="M0 0 C1.41634833 2.83269666 1.3463005 5.47466438 1.5625 8.625 C1.64628906 9.81351563 1.73007813 11.00203125 1.81640625 12.2265625 C1.87699219 13.14179688 1.93757812 14.05703125 2 15 C-3.98567273 15.31503541 -7.65449444 14.72729876 -13 12 C-14 11 -14 11 -14.4375 8.75 C-14 6 -14 6 -11.125 3.25 C-6.92486061 0.22589964 -5.12768104 -0.11147133 0 0 Z " fill="#E397B5" transform="translate(185,180)"/>
<path d="M0 0 C1.1875 1.5625 1.1875 1.5625 2 4 C0.50337057 8.65618045 -1.29428037 11.80541411 -5 15 C-7.75220373 14.13088303 -9.5656698 13.5527839 -11.375 11.25 C-12.23310088 8.16083683 -11.84991477 6.07276879 -11 3 C-8.57550504 -1.27852051 -4.36163904 -0.21450684 0 0 Z " fill="#F2DC7B" transform="translate(316,385)"/>
<path d="M0 0 C3.375 0.9375 3.375 0.9375 5.375 3.9375 C4.93055556 9.38194444 4.93055556 9.38194444 2.375 11.9375 C-1.67761287 12.28240322 -3.17254176 12.23913882 -6.625 9.9375 C-7.5625 7.0625 -7.5625 7.0625 -7.625 3.9375 C-5.38129186 0.29147428 -4.3033019 -0.07419486 0 0 Z " fill="#4B9173" transform="translate(185.625,268.0625)"/>
<path d="M0 0 C3 0.9375 3 0.9375 4.9375 2.6875 C6 4.9375 6 4.9375 5.9375 7.5 C4.78452423 10.49773701 3.8687479 11.50312605 1 12.9375 C-2.19938696 12.85946617 -3.53129544 12.37495759 -5.875 10.1875 C-7 7.9375 -7 7.9375 -6.875 5.375 C-5.41202148 1.29955983 -4.4959249 -0.0936651 0 0 Z " fill="#4B9173" transform="translate(207,297.0625)"/>
<path d="M0 0 C3.0625 0.3125 3.0625 0.3125 4.9375 1.4375 C6.59104531 4.19340884 6.45615568 6.16325452 6.0625 9.3125 C4.9375 11.1875 4.9375 11.1875 3.0625 12.3125 C-0.08235925 12.70560741 -2.07031671 12.78805213 -4.875 11.25 C-6.5865104 8.12901045 -5.73041991 5.66716116 -4.9375 2.3125 C-2.9375 0.3125 -2.9375 0.3125 0 0 Z " fill="#020403" transform="translate(367.9375,193.6875)"/>
<path d="M0 0 C2 2 2 2 2.375 5.4375 C2 9 2 9 0.375 11 C-2.83596428 12.35198496 -4.69946166 12.00451167 -8 11 C-10.15502531 7.76746204 -10.46856135 6.74849077 -10 3 C-7.65916893 -0.99318242 -4.22752593 -0.38432054 0 0 Z " fill="#020504" transform="translate(412,191)"/>
<path d="M0 0 C1.875 1.125 1.875 1.125 3 3 C3.39310741 6.14485925 3.47555213 8.13281671 1.9375 10.9375 C-1.21566824 12.66665678 -3.62508255 11.8590699 -7 11 C-9.15502531 7.76746204 -9.46856135 6.74849077 -9 3 C-6.73529086 -0.64869805 -4.03159541 -0.50394943 0 0 Z " fill="#53A180" transform="translate(233,274)"/>
<path d="M0 0 C3 1 3 1 4 3 C4.28796546 6.31160281 4.34590505 8.36007566 2.75 11.3125 C0.82013689 13.17343943 -0.37565253 13.63802104 -3 14 C-3.34615998 8.34605369 -2.43425238 4.96993194 0 0 Z " fill="#EBD677" transform="translate(290,370)"/>
</svg>
