<?xml version="1.0" encoding="UTF-8"?>
<svg version="1.1" xmlns="http://www.w3.org/2000/svg" width="512" height="512">
<path d="M0 0 C6.95115797 6.30779124 10.03475855 12.54631239 10.5 21.875 C10.24044805 30.46184374 6.90067292 36.38336278 0.8125 42.296875 C0.09707031 42.99651367 -0.61835938 43.69615234 -1.35546875 44.41699219 C-1.89816406 44.93938477 -2.44085938 45.46177734 -3 46 C-1.92685547 46.00616333 -1.92685547 46.00616333 -0.83203125 46.01245117 C2.44612125 46.04558256 5.72246328 46.1162492 9 46.1875 C10.12535156 46.19330078 11.25070312 46.19910156 12.41015625 46.20507812 C19.2253909 46.38442641 25.07153442 46.88071361 30 52 C34.97730886 58.58076373 34.56236625 64.85434247 34.50793457 72.88548279 C34.51254637 74.30888524 34.51890117 75.73228293 34.52684355 77.1556707 C34.54352212 81.05808348 34.53529736 84.96010435 34.52289867 88.86251843 C34.51384433 93.07461188 34.52781986 97.28663817 34.53881836 101.49871826 C34.55660454 109.74690676 34.55276303 117.99494965 34.5411678 126.24314385 C34.53213353 132.94724968 34.53090945 139.65131471 34.53526306 146.35542488 C34.53587599 147.3096663 34.53648893 148.26390771 34.53712043 149.24706553 C34.53839934 151.18561396 34.53969619 153.12416237 34.5410108 155.06271077 C34.55241704 173.24074604 34.5393025 191.41870063 34.51780933 209.59672267 C34.49994118 225.19155671 34.50304004 240.78627163 34.52148438 256.38110352 C34.54289524 274.49262724 34.55131538 292.60408024 34.53903532 310.71561486 C34.53776113 312.64732968 34.53650365 314.57904451 34.53526306 316.51075935 C34.53464596 317.46118678 34.53402886 318.41161422 34.53339306 319.39084248 C34.52994059 326.08575327 34.53576633 332.78061916 34.54518127 339.47552299 C34.55640515 347.6361256 34.55335315 355.79657433 34.5320583 363.95715933 C34.52155266 368.12020797 34.51741763 372.28300014 34.53065491 376.44604683 C34.54259505 380.25885357 34.53598995 384.07116668 34.5147447 387.88392878 C34.50817681 389.9127063 34.52120033 391.94151821 34.53497362 393.97025961 C34.46605797 401.98686034 33.85493899 408.03010259 28.03515625 414.0234375 C27.38417969 414.46945312 26.73320312 414.91546875 26.0625 415.375 C25.41410156 415.83648437 24.76570313 416.29796875 24.09765625 416.7734375 C19.25516421 419.60498778 15.43963375 420.24672376 9.82299805 420.22705078 C9.12001083 420.22734283 8.41702362 420.22763489 7.69273376 420.22793579 C5.38226738 420.22654877 3.07212841 420.2110175 0.76171875 420.1953125 C-0.84539107 420.19158013 -2.45250317 420.18873422 -4.05961609 420.18673706 C-8.2797377 420.17911821 -12.49972061 420.15948483 -16.7197876 420.1373291 C-21.02996952 420.11683293 -25.34017396 420.10772729 -29.65039062 420.09765625 C-38.10032391 420.07623721 -46.55014468 420.04212248 -55 420 C-54.99333817 420.70077667 -54.98667633 421.40155334 -54.97981262 422.12356567 C-54.91957641 428.74391804 -54.87396229 435.36419336 -54.84456348 441.98475838 C-54.82894083 445.38807031 -54.80776565 448.79115485 -54.77368164 452.19433594 C-54.73469966 456.11129997 -54.7202626 460.02817351 -54.70703125 463.9453125 C-54.69154739 465.16115021 -54.67606354 466.37698792 -54.66011047 467.62966919 C-54.65800886 478.20972786 -54.65800886 478.20972786 -58 483 C-62.0560978 486.79441408 -65.95189919 487.12429457 -71.34525776 487.13142776 C-72.43572448 487.13526891 -73.5261912 487.13911005 -74.64970237 487.1430676 C-76.44602687 487.14176787 -76.44602687 487.14176787 -78.27864075 487.14044189 C-79.55118782 487.14341302 -80.8237349 487.14638414 -82.13484401 487.1494453 C-85.66958738 487.15751321 -89.20431045 487.15930475 -92.73906195 487.16004276 C-96.55034595 487.16189366 -100.36161943 487.16944114 -104.17289734 487.17617798 C-112.50757396 487.18975993 -120.84224577 487.19578569 -129.17693162 487.20018864 C-134.3805306 487.20295106 -139.58412772 487.20718839 -144.78772545 487.21169281 C-159.19351109 487.22388486 -173.59929525 487.23418459 -188.00508595 487.2375679 C-189.38807588 487.23789725 -189.38807588 487.23789725 -190.79900501 487.23823325 C-192.18530975 487.23856067 -192.18530975 487.23856067 -193.59962064 487.2388947 C-195.47241962 487.23933817 -197.3452186 487.23978473 -199.21801758 487.24023438 C-200.14699121 487.2404558 -201.07596484 487.24067723 -202.03308918 487.24090537 C-217.0886684 487.24485412 -232.14419924 487.26231075 -247.19975976 487.2855939 C-262.65510173 487.30930251 -278.11041941 487.32176951 -293.56577986 487.32293582 C-302.24422095 487.32385281 -310.92259899 487.32961123 -319.60102272 487.34775543 C-326.990211 487.36314974 -334.37931674 487.36828082 -341.76851801 487.36001733 C-345.53849628 487.35610855 -349.30830829 487.35705143 -353.07826614 487.37107468 C-357.16576719 487.38614008 -361.25289302 487.37795396 -365.34040833 487.36749268 C-366.53126582 487.37554908 -367.72212332 487.38360548 -368.94906741 487.39190602 C-375.0693975 487.35518346 -379.6308089 487.04378165 -385 484 C-388.63248876 480.12534532 -389.12494658 476.60080124 -389.11352539 471.42700195 C-389.11341209 469.71556755 -389.11341209 469.71556755 -389.11329651 467.96955872 C-389.10813522 466.73823715 -389.10297394 465.50691559 -389.09765625 464.23828125 C-389.0962413 462.97735153 -389.09482635 461.71642181 -389.09336853 460.4172821 C-389.08871575 457.06848291 -389.07973342 453.71975189 -389.06866455 450.37097168 C-389.05842687 446.95239857 -389.05386586 443.53381841 -389.04882812 440.11523438 C-389.03779099 433.41013739 -389.02104686 426.70507263 -389 420 C-389.87981537 420.01110306 -390.75963074 420.02220612 -391.66610718 420.03364563 C-399.99224412 420.13418662 -408.31817467 420.21013623 -416.64478111 420.25906086 C-420.92474826 420.28506007 -425.20421023 420.32027849 -429.48388672 420.37719727 C-433.62068206 420.43186608 -437.75699414 420.46149316 -441.89412308 420.47438622 C-443.46569034 420.48356406 -445.03723371 420.50148539 -446.60859299 420.52865028 C-455.52011844 420.67646155 -463.56593819 420.64768976 -471 415 C-475.90981004 409.71038227 -478.12170679 405.56074792 -478.13422108 398.26241684 C-478.13867892 397.05898911 -478.14313676 395.85556139 -478.14772969 394.61566615 C-478.1476404 393.27337947 -478.14745054 391.9310928 -478.14717102 390.58880615 C-478.15046972 389.16814869 -478.1541953 387.74749216 -478.1583125 386.32683682 C-478.16833979 382.41358478 -478.17205046 378.50034808 -478.17470181 374.58708501 C-478.17860266 370.3701889 -478.1881811 366.15330497 -478.19691467 361.93641663 C-478.21668455 351.74844933 -478.22674563 341.56048103 -478.23564246 331.37249935 C-478.24002422 326.57671409 -478.24539129 321.78092995 -478.25063133 316.98514557 C-478.26764359 301.04644881 -478.28213852 285.10775275 -478.28938007 269.16904831 C-478.29129002 265.03213246 -478.29321034 260.89521661 -478.29516602 256.75830078 C-478.29564976 255.73007136 -478.2961335 254.70184194 -478.2966319 253.64245406 C-478.30493504 236.97986745 -478.33027676 220.31735256 -478.36274669 203.65479729 C-478.39579906 186.5541894 -478.41382716 169.45361799 -478.41702431 152.35297799 C-478.41919102 142.74894276 -478.42796327 133.14501214 -478.45348549 123.541008 C-478.47516754 115.36310118 -478.4832552 107.18532438 -478.47351871 99.00739208 C-478.46896684 94.83435327 -478.47091153 90.66158288 -478.49028015 86.4885807 C-478.50786154 82.66767407 -478.50695537 78.84723267 -478.49138286 75.02632144 C-478.48787056 72.99062923 -478.50407046 70.95493242 -478.52098733 68.91930747 C-478.46478623 60.96906218 -477.73819819 56.36285061 -472.49713135 50.2460022 C-465.358716 45.19310164 -456.21500157 46.2800033 -447.859375 46.3359375 C-446.08676827 46.33256575 -444.3141638 46.32771014 -442.54156494 46.32144165 C-438.83965893 46.3140949 -435.13835871 46.32470949 -431.43652344 46.34814453 C-426.69257637 46.37671515 -421.95003856 46.36016285 -417.20614243 46.33028221 C-413.55150715 46.31222063 -409.89720666 46.31796048 -406.24256134 46.33092117 C-404.49306317 46.33425404 -402.74353452 46.33017227 -400.99407196 46.31852341 C-398.55219287 46.30582352 -396.11260659 46.32517224 -393.67089844 46.35302734 C-392.94978882 46.34290619 -392.2286792 46.33278503 -391.48571777 46.32235718 C-387.71386394 46.40207872 -386.2665661 46.74031411 -383.52056885 49.41543579 C-382 52 -382 52 -382 54 C-375.73 54 -369.46 54 -363 54 C-362.34 52.35 -361.68 50.7 -361 49 C-359 47 -359 47 -357.00390416 46.79927236 C-356.17652972 46.82247145 -355.34915527 46.84567054 -354.49670887 46.86957264 C-353.54287746 46.89109199 -352.58904606 46.91261135 -351.60631067 46.9347828 C-350.5508395 46.96877716 -349.49536834 47.00277153 -348.40791321 47.03779602 C-346.733875 47.07884981 -346.733875 47.07884981 -345.02601784 47.12073296 C-342.56778063 47.18179492 -340.10965245 47.24736483 -337.65163612 47.31675148 C-331.53669676 47.48839514 -325.42110564 47.63153755 -319.30546062 47.77527873 C-317.84789747 47.80968783 -316.39034318 47.84447422 -314.93279763 47.87962075 C-303.43398896 48.15688691 -291.93548203 48.36391425 -280.43437195 48.51737976 C-279.2643814 48.53307849 -279.2643814 48.53307849 -278.07075468 48.54909436 C-270.81845544 48.64562893 -263.56609472 48.73670786 -256.31364882 48.82151473 C-251.33398577 48.87975699 -246.35435774 48.94040124 -241.37475586 49.00366211 C-240.5478527 49.01413109 -239.72094954 49.02460007 -238.86898872 49.03538629 C-225.58496149 49.20837297 -212.30968014 49.54190104 -199.03059075 49.93610499 C-185.33354747 50.33879827 -171.64194985 50.55478564 -157.93907899 50.60985154 C-150.26647833 50.6458835 -142.61421563 50.76117016 -134.94823647 51.09337807 C-107.97230094 52.22794113 -82.99795798 52.92238337 -62.00531327 33.77339923 C-53.03190525 25.35655052 -44.86096522 16.06187408 -37.27488601 6.38408554 C-28.11930573 -5.2179513 -12.86531552 -9.4381913 0 0 Z " fill="#010202" transform="translate(478,15)"/>
<path d="M0 0 C0.97594116 -0.00058411 1.95188232 -0.00116821 2.95739746 -0.00177002 C6.18257234 0.00101625 9.40682255 0.0321347 12.63183594 0.06347656 C14.86813858 0.070937 17.10444776 0.07663086 19.34075928 0.08062744 C25.22637993 0.09589919 31.11160568 0.13519474 36.99707031 0.17944336 C43.00287534 0.22036257 49.00874419 0.23863132 55.01464844 0.25878906 C66.7986761 0.30168712 78.58241068 0.36995746 90.36621094 0.45410156 C90.41196428 35.54677749 90.44721788 70.63944738 90.4683416 105.73214684 C90.47084308 109.87286357 90.47343172 114.01358024 90.47607422 118.15429688 C90.47686115 119.39083753 90.47686115 119.39083753 90.47766398 120.6523588 C90.48637239 134.00950932 90.50214476 147.36664266 90.52051653 160.72378299 C90.53920346 174.42407157 90.5503251 188.12435115 90.55438793 201.82465196 C90.55713549 210.28204825 90.56582109 218.73939601 90.58204387 227.19677737 C90.59259586 232.99217648 90.59581562 238.78755041 90.59321369 244.58295843 C90.5919296 247.92924655 90.59501649 251.27538104 90.60462189 254.62166595 C90.61451907 258.24619803 90.61219888 261.87051957 90.60671997 265.49505615 C90.6154585 267.0884317 90.6154585 267.0884317 90.62437356 268.71399665 C90.62039146 269.68337802 90.61640936 270.65275939 90.61230659 271.65151596 C90.61306604 272.48841957 90.61382548 273.32532318 90.61460793 274.1875875 C90.33872995 276.70485361 89.68590359 278.30435243 88.36621094 280.45410156 C84.97547528 282.91790634 81.66578158 282.6960708 77.578125 282.68115234 C76.56775429 282.68159042 76.56775429 282.68159042 75.53697205 282.68203735 C73.31846068 282.68064797 71.10028838 282.66510557 68.88183594 282.64941406 C67.34055769 282.64568253 65.79927707 282.64283622 64.25799561 282.64083862 C60.20718808 282.63321317 56.15652464 282.61357409 52.10577393 282.59143066 C47.96994984 282.57094876 43.8341024 282.5618319 39.69824219 282.55175781 C31.58749908 282.53032712 23.47687295 282.49620437 15.36621094 282.45410156 C15.36621094 278.49410156 15.36621094 274.53410156 15.36621094 270.45410156 C16.97061035 270.43951904 18.57500977 270.42493652 20.22802734 270.40991211 C26.18821347 270.35188129 32.14802371 270.27464766 38.10791016 270.19165039 C40.68597304 270.15842375 43.26410827 270.13038483 45.84228516 270.10766602 C49.55109448 270.0740795 53.25924214 270.02175912 56.96777344 269.96582031 C58.69309799 269.95623543 58.69309799 269.95623543 60.45327759 269.94645691 C68.41717624 269.9322777 68.41717624 269.9322777 75.36621094 266.45410156 C77.84999207 261.59366884 78.7418763 258.01727011 78.74716187 252.48908997 C78.75184184 251.82439577 78.75652181 251.15970158 78.7613436 250.47486514 C78.77322661 248.26697071 78.76386342 246.05970471 78.75439453 243.85180664 C78.75846311 242.26122172 78.7638066 240.67063963 78.77032471 239.08006287 C78.78396673 234.7744901 78.77871346 230.46913369 78.76918745 226.16355729 C78.76157867 221.6544171 78.76863948 217.14529511 78.77334595 212.63615417 C78.77879827 205.06803061 78.77162388 197.49999498 78.75732422 189.93188477 C78.740981 181.18113322 78.74630041 172.43059119 78.76280344 163.67984468 C78.77641213 156.16291218 78.77834152 148.64604277 78.77048743 141.12910193 C78.76580979 136.64096782 78.76518891 132.15293225 78.77509689 127.66480446 C78.78375595 123.4482738 78.77776424 119.23201385 78.76041412 115.01551247 C78.75644434 113.4675237 78.75759173 111.91951218 78.76420212 110.37153244 C78.7723882 108.26010048 78.76213303 106.1495386 78.74716187 104.03816223 C78.74603079 102.85629743 78.74489971 101.67443262 78.74373436 100.45675373 C78.33124241 97.17597757 77.67144961 95.7850278 75.36621094 93.45410156 C72.53052236 92.79150502 70.32381867 93.17242464 67.36621094 93.45410156 C64.76064925 96.05966325 65.09621723 97.1903004 65.04736328 100.82177734 C65.02749359 101.94278839 65.0076239 103.06379944 64.9871521 104.21878052 C64.97560089 105.43338959 64.96404968 106.64799866 64.95214844 107.89941406 C64.93278229 109.13956268 64.91341614 110.3797113 64.89346313 111.65744019 C64.84372284 114.95521935 64.80248617 118.25296295 64.76531982 121.55090332 C64.72532091 124.9158749 64.67420991 128.28067548 64.62402344 131.64550781 C64.52781307 138.24826263 64.44280711 144.85109167 64.36621094 151.45410156 C63.06671509 151.13795898 63.06671509 151.13795898 61.7409668 150.81542969 C53.7150646 148.96350791 46.16232538 147.90252723 37.92871094 147.95410156 C36.30594238 147.96268188 36.30594238 147.96268188 34.65039062 147.97143555 C25.71514711 148.16989257 18.52028727 149.62430352 10.36621094 153.45410156 C9.23054688 153.97359375 8.09488281 154.49308594 6.92480469 155.02832031 C0.14096237 158.40058955 -5.18495495 162.34979864 -10.51269531 167.73144531 C-12.63378906 169.45410156 -12.63378906 169.45410156 -16.63378906 169.45410156 C-18.67284943 167.29081909 -20.42114508 165.19451911 -22.19628906 162.82910156 C-22.72150146 162.15049072 -23.24671387 161.47187988 -23.7878418 160.77270508 C-24.87937276 159.36149393 -25.96599565 157.94647383 -27.04785156 156.52783203 C-28.95564711 154.03324838 -30.89751767 151.56707311 -32.84448242 149.10302734 C-34.2068323 147.37825352 -35.56368929 145.6492973 -36.91894531 143.91894531 C-39.65369287 140.42788298 -42.39332798 136.94067967 -45.13378906 133.45410156 C-48.39560253 129.3038134 -51.65566771 125.15216884 -54.91259766 120.99804688 C-56.29195581 119.24145697 -57.67565127 117.48834898 -59.05957031 115.73535156 C-60.70595928 113.64695025 -62.32201175 111.54428759 -63.92675781 109.42285156 C-64.95736328 108.07707031 -64.95736328 108.07707031 -66.00878906 106.70410156 C-66.59402344 105.92550781 -67.17925781 105.14691406 -67.78222656 104.34472656 C-70.87272961 101.18902303 -73.8112031 100.52754674 -78.13378906 100.14160156 C-83.16289434 100.59062882 -85.62998279 102.29441411 -88.92285156 106.09863281 C-89.69371094 107.1440625 -90.46457031 108.18949219 -91.25878906 109.26660156 C-92.13818207 110.44299274 -93.01841956 111.61875301 -93.89941406 112.79394531 C-94.34994141 113.39964355 -94.80046875 114.0053418 -95.26464844 114.62939453 C-97.46734594 117.56501527 -99.73623329 120.44742398 -102.00878906 123.32910156 C-102.46116943 123.904104 -102.9135498 124.47910645 -103.37963867 125.0715332 C-107.83119085 130.72173046 -112.32270589 136.33977871 -116.82910156 141.94628906 C-118.59453453 144.14558947 -120.33481756 146.35800004 -122.06347656 148.58691406 C-122.76730469 149.49183594 -123.47113281 150.39675781 -124.19628906 151.32910156 C-124.79570312 152.11027344 -125.39511719 152.89144531 -126.01269531 153.69628906 C-127.63378906 155.45410156 -127.63378906 155.45410156 -130.63378906 156.45410156 C-131.21644531 155.6896875 -131.79910156 154.92527344 -132.39941406 154.13769531 C-137.55203245 147.398015 -142.7854138 140.73092776 -148.09741211 134.11621094 C-152.86701677 128.17420226 -157.57621286 122.18613529 -162.27490234 116.18798828 C-164.55832202 113.27443339 -166.84624351 110.36441741 -169.13378906 107.45410156 C-171.87427114 103.96753999 -174.61388529 100.4803201 -177.34863281 96.98925781 C-182.2357337 90.7530541 -187.14038623 84.53073867 -192.07128906 78.32910156 C-192.56749756 77.70140869 -193.06370605 77.07371582 -193.57495117 76.42700195 C-198.18982458 70.25386968 -198.18982458 70.25386968 -204.63378906 66.45410156 C-210.45615427 65.90482183 -213.03652181 66.92992092 -217.63378906 70.45410156 C-220.08716818 73.19659523 -220.08716818 73.19659523 -222.32128906 76.32910156 C-223.19020618 77.49511837 -224.06002972 78.66046015 -224.93066406 79.82519531 C-225.37474609 80.42444824 -225.81882813 81.02370117 -226.27636719 81.64111328 C-228.49033605 84.59811557 -230.78094008 87.49361729 -233.07128906 90.39160156 C-233.99851227 91.56857472 -234.92559498 92.74565856 -235.85253906 93.92285156 C-236.31273437 94.50679688 -236.77292969 95.09074219 -237.24707031 95.69238281 C-238.61796589 97.43399944 -239.98578897 99.17798041 -241.35253906 100.92285156 C-246.58059572 107.59494617 -251.84843309 114.23306699 -257.15087891 120.84619141 C-261.89881139 126.77304796 -266.59185622 132.74203749 -271.27490234 138.72021484 C-273.55832214 141.6337699 -275.84633224 144.54371579 -278.13378906 147.45410156 C-279.04004611 148.60774186 -279.9462961 149.7613877 -280.85253906 150.91503906 C-282.78882959 153.3795342 -284.72655356 155.84289508 -286.66503906 158.30566406 C-287.16197266 158.93730469 -287.65890625 159.56894531 -288.17089844 160.21972656 C-289.11975059 161.42574425 -290.06894844 162.63149006 -291.01855469 163.83691406 C-293.25825148 166.68438464 -295.47602042 169.54395306 -297.63378906 172.45410156 C-303.51034792 171.66578269 -308.67273525 169.6937973 -314.19628906 167.61035156 C-321.38952522 165.19080849 -328.49429021 165.20660588 -336.00878906 165.14160156 C-337.08773437 165.11259766 -338.16667969 165.08359375 -339.27832031 165.05371094 C-349.09271264 164.9785713 -355.46943231 166.91301238 -365.63378906 169.45410156 C-365.63378906 122.26410156 -365.63378906 75.07410156 -365.63378906 26.45410156 C-281.15378906 26.45410156 -196.67378906 26.45410156 -109.63378906 26.45410156 C-111.62070917 30.42794178 -112.99334738 31.75848785 -116.25878906 34.57910156 C-122.5431586 40.76414917 -125.46003733 47.76771717 -128.63085938 55.89355469 C-129.69077871 58.59959996 -130.79734111 61.28382257 -131.90722656 63.96972656 C-132.65205709 65.81762177 -133.39429954 67.66656252 -134.13378906 69.51660156 C-134.4845752 70.37229736 -134.83536133 71.22799316 -135.19677734 72.10961914 C-137.28272158 77.50540884 -138.64189175 82.64518478 -137.63378906 88.45410156 C-135.11645649 91.58169658 -133.49156863 92.29655021 -129.57128906 93.01660156 C-125.91753199 92.49463627 -123.51061242 91.66337734 -120.16503906 90.20800781 C-115.96015002 88.41392607 -111.74637275 86.72787467 -107.45019531 85.16503906 C-106.41958984 84.77960938 -105.38898438 84.39417969 -104.32714844 83.99707031 C-102.25092347 83.22253349 -100.16748253 82.46705443 -98.07714844 81.73144531 C-81.98414766 75.59982103 -70.35219225 61.46556484 -58.47265625 49.4987793 C-55.8525441 46.86013561 -53.22424107 44.22985688 -50.59472656 41.60058594 C-48.92497855 39.92593137 -47.25569012 38.25081842 -45.58691406 36.57519531 C-44.80165344 35.78882187 -44.01639282 35.00244843 -43.20733643 34.19224548 C-42.48858337 33.46711258 -41.76983032 32.74197968 -41.02929688 31.99487305 C-40.39566223 31.35742661 -39.76202759 30.71998016 -39.10919189 30.06321716 C-37.54464717 28.50485491 -37.54464717 28.50485491 -36.63378906 26.45410156 C-3.30378906 26.45410156 30.02621094 26.45410156 64.36621094 26.45410156 C64.69621094 40.31410156 65.02621094 54.17410156 65.36621094 68.45410156 C67.94611895 71.03400957 69.86865555 70.77008994 73.39355469 70.91503906 C76.22539607 70.25334147 76.85631012 68.88205641 78.36621094 66.45410156 C78.81419242 64.27754018 78.81419242 64.27754018 78.75439453 61.94848633 C78.76385101 61.06399307 78.7733075 60.17949982 78.78305054 59.26820374 C78.77697784 58.32021408 78.77090515 57.37222443 78.76464844 56.39550781 C78.76751862 55.41420395 78.77038879 54.43290009 78.77334595 53.42185974 C78.77538582 51.34820987 78.76986137 49.27454071 78.75732422 47.20092773 C78.74128696 44.03162428 78.75716699 40.86359944 78.77636719 37.69433594 C78.77438441 35.67805709 78.77054001 33.66177903 78.76464844 31.64550781 C78.77375748 30.22655968 78.77375748 30.22655968 78.78305054 28.77894592 C78.7249477 22.09280443 78.7249477 22.09280443 75.36621094 16.45410156 C70.34029937 12.33923597 66.73579679 11.86960149 60.51513672 11.90820312 C59.21172081 11.89269661 59.21172081 11.89269661 57.88197327 11.87687683 C55.02496627 11.84750377 52.16866941 11.84595082 49.31152344 11.84472656 C47.32468316 11.82974121 45.33785532 11.81301331 43.3510437 11.7946167 C38.13309143 11.75097098 32.91530721 11.73095017 27.69720459 11.71588135 C22.36802242 11.69630033 17.03902144 11.65433138 11.70996094 11.61425781 C1.2621002 11.53898572 -9.18571992 11.488676 -19.63378906 11.45410156 C-18.7193106 10.36892046 -17.80208499 9.28605419 -16.88378906 8.20410156 C-16.37332031 7.60082031 -15.86285156 6.99753906 -15.33691406 6.37597656 C-14.77488281 5.74175781 -14.21285156 5.10753906 -13.63378906 4.45410156 C-13.10545471 3.72612366 -12.57712036 2.99814575 -12.03277588 2.24810791 C-8.26777269 -0.56743054 -4.57873205 -0.07151921 0 0 Z " fill="#FCD0A3" transform="translate(406.6337890625,137.5458984375)"/>
<path d="M0 0 C81.18 0 162.36 0 246 0 C246 34.65 246 69.3 246 105 C164.82 105 83.64 105 0 105 C0 70.35 0 35.7 0 0 Z " fill="#030303" transform="translate(162,381)"/>
<path d="M0 0 C4.12236237 1.54588589 5.92848757 4.20310066 8.5 7.6875 C9.38525402 8.8708888 10.27203625 10.05313557 11.16015625 11.234375 C11.62309082 11.85248047 12.08602539 12.47058594 12.56298828 13.10742188 C14.96099627 16.26565462 17.44973162 19.34981852 19.9375 22.4375 C25.21135763 29.00220911 30.42668122 35.6105564 35.61914062 42.23974609 C37.53474213 44.68166385 39.45723712 47.11812161 41.37963867 49.5546875 C42.76961341 51.32051671 44.15290153 53.09140617 45.53515625 54.86328125 C47.02052233 56.75353317 48.52329895 58.63054049 50.05859375 60.48046875 C53.98361822 65.31196539 53.98361822 65.31196539 54.0625 68.625 C52.7909366 71.4673182 51.468861 74.25386856 50 77 C47.1707044 76.38459597 44.83587357 75.51505574 42.28515625 74.15234375 C41.59873047 73.79462891 40.91230469 73.43691406 40.20507812 73.06835938 C38.77812771 72.31521052 37.35362831 71.55739923 35.93164062 70.79492188 C32.16856422 68.84461143 29.35088022 67.38511711 25 68 C23.515 68.495 23.515 68.495 22 69 C22 72.63 22 76.26 22 80 C22.78375 80.20625 23.5675 80.4125 24.375 80.625 C32.867444 83.84627186 39.4076305 88.94676488 45.96875 95.14453125 C48.7119526 97.65034132 49.65570938 97.96870085 53.4375 98.3125 C56.9714436 98.39129937 56.9714436 98.39129937 58.640625 96.328125 C60.18931527 93.67577039 60.7233653 91.44729699 61.3125 88.4375 C64.85552751 73.48410696 75.20078037 61.26726911 88 53 C103.02011179 45.18079311 120.46690385 42.88885503 136.875 47.9375 C141.69199179 49.69199179 141.69199179 49.69199179 143 51 C143.09516211 53.7388842 143.12554594 56.45247941 143.11352539 59.19165039 C143.11367142 60.05011063 143.11381744 60.90857086 143.1139679 61.79304504 C143.11326847 64.64460738 143.1054747 67.49610525 143.09765625 70.34765625 C143.09579218 72.31920842 143.09436822 74.29076105 143.09336853 76.26231384 C143.08954251 81.46226267 143.07971152 86.66218375 143.06866455 91.86212158 C143.05665806 98.09539466 143.05204859 104.32867699 143.04621124 110.56195831 C143.03649981 120.04132486 143.01734384 129.52063049 143 139 C126.83 139 110.66 139 94 139 C93.67 132.73 93.34 126.46 93 120 C89.55907119 115.2610156 89.55907119 115.2610156 85 113 C82.43788661 112.70054542 82.43788661 112.70054542 79.61792088 112.74552441 C78.51925397 112.73969221 77.42058705 112.73386002 76.28862721 112.72785109 C74.47858351 112.73352008 74.47858351 112.73352008 72.63197327 112.73930359 C71.34984796 112.73547804 70.06772264 112.73165249 68.74674505 112.72771102 C65.18531068 112.71740389 61.62397668 112.71961971 58.06253397 112.72389162 C54.22265251 112.72635392 50.38279553 112.71735087 46.54292297 112.70985413 C39.01927705 112.69709139 31.49566679 112.69531538 23.97201187 112.69765439 C17.85801503 112.69943591 11.74402904 112.69769148 5.63003349 112.69342995 C4.76055564 112.69283476 3.89107778 112.69223957 2.99525211 112.69162634 C1.2290289 112.69041462 -0.5371943 112.68920049 -2.30341751 112.68798397 C-18.87467119 112.67710242 -35.44590452 112.67927386 -52.01715935 112.68536881 C-67.18402393 112.69053885 -82.35082429 112.67928135 -97.51767617 112.66027059 C-113.08375385 112.6409087 -128.64980113 112.63263327 -144.21589094 112.63639385 C-152.95797911 112.63830836 -161.70001262 112.63579403 -170.44209099 112.62167931 C-177.88404315 112.60978554 -185.32590701 112.60833804 -192.76786035 112.62046947 C-196.56593976 112.62637223 -200.36385748 112.62741924 -204.16192627 112.61546707 C-208.27640985 112.60266946 -212.39050601 112.61303938 -216.50498962 112.6257782 C-218.31168724 112.61471677 -218.31168724 112.61471677 -220.1548838 112.60343188 C-221.80679579 112.6142417 -221.80679579 112.6142417 -223.49207973 112.62526989 C-224.44187031 112.62521487 -225.39166089 112.62515986 -226.370233 112.62510318 C-229.58455001 113.08333284 -231.39352031 114.07946891 -234 116 C-238.85883073 121.70465815 -238.85883073 121.70465815 -238 139 C-254.17 139 -270.34 139 -287 139 C-287 116.23 -287 93.46 -287 70 C-271.37390212 62.18695106 -254.18889271 59.64534513 -237.125 65.125 C-225.04927189 69.38048841 -214.55680564 76.69352759 -206.9375 87.0625 C-205.29217026 89.0544582 -204.4686568 89.8774695 -201.953125 90.53515625 C-197.95104055 90.6938596 -194.63347071 89.95200203 -190.9296875 88.4921875 C-185.43466952 86.61280423 -180.20679682 86.46580199 -174.4375 86.5 C-172.86500488 86.50314209 -172.86500488 86.50314209 -171.26074219 86.50634766 C-161.74061909 86.69745034 -152.2621163 88.24751046 -143.953125 93.2265625 C-140.91452602 94.4298477 -139.07895709 93.99449518 -136 93 C-133.61098424 90.52469537 -133.61098424 90.52469537 -131.625 87.375 C-124.4267054 77.1435378 -115.97347729 70.9911591 -104 67 C-89.27526247 65.62271576 -76.88101784 66.67326334 -64.6875 75.625 C-59.00532295 80.50335688 -54.51095688 86.50443803 -50.86328125 93.03515625 C-49.89445853 94.88418705 -49.89445853 94.88418705 -48 97 C-43.93092257 97.49776125 -41.74875431 97.48065541 -38.26171875 95.2421875 C-36.98748047 94.07042969 -36.98748047 94.07042969 -35.6875 92.875 C-27.23377502 85.50983687 -18.58875769 80.53871085 -7.6875 77.9375 C-3.9452341 77.20368737 -3.9452341 77.20368737 -1 75 C-0.56172799 73.09542071 -0.56172799 73.09542071 -0.6875 71 C-0.69136719 70.29875 -0.69523437 69.5975 -0.69921875 68.875 C-0.85087054 66.7583423 -0.85087054 66.7583423 -3 65 C-15.4922407 62.83831901 -27.70565761 69.60588205 -38 76 C-38.66 76.66 -39.32 77.32 -40 78 C-42.96417253 77.85677318 -43.99299291 77.00676414 -46.140625 74.93359375 C-46.83671875 74.10988281 -47.5328125 73.28617187 -48.25 72.4375 C-48.95640625 71.61121094 -49.6628125 70.78492188 -50.390625 69.93359375 C-50.92171875 69.29550781 -51.4528125 68.65742188 -52 68 C-50.36515835 64.31721156 -48.09213324 61.36123936 -45.625 58.1875 C-45.18728271 57.62345459 -44.74956543 57.05940918 -44.29858398 56.47827148 C-40.4238394 51.50249169 -36.48416145 46.57863615 -32.53588867 41.66113281 C-27.77309111 35.72875227 -23.07197142 29.74937567 -18.38085938 23.76025391 C-16.94945737 21.93557065 -15.51428129 20.11391193 -14.078125 18.29296875 C-9.31228524 12.24745711 -4.57971363 6.18880221 0 0 Z " fill="#45CA8B" transform="translate(328,254)"/>
<path d="M0 0 C6.27 0 12.54 0 19 0 C19.99 1.98 20.98 3.96 22 6 C24.351249 7.1756245 25.747501 7.12996801 28.3690815 7.1386652 C29.75447929 7.14687687 29.75447929 7.14687687 31.16786492 7.15525442 C32.18924959 7.15623253 33.21063425 7.15721064 34.26296997 7.15821838 C35.88261998 7.16562535 35.88261998 7.16562535 37.53499019 7.17318195 C41.17713376 7.18862123 44.81925963 7.19693493 48.46142578 7.20532227 C51.06267454 7.21489574 53.66392172 7.2249055 56.26516724 7.23532104 C61.87783188 7.25710227 67.49049889 7.27524072 73.10318375 7.29092598 C81.21824762 7.31360964 89.33328527 7.34175453 97.44832693 7.37124526 C110.61348894 7.41893964 123.77866166 7.46219881 136.94384766 7.50268555 C149.73487176 7.54203109 162.52588634 7.58345505 175.31689453 7.62768555 C176.10493592 7.63040982 176.8929773 7.63313409 177.70489873 7.63594092 C181.65815239 7.64962024 185.61140591 7.66334054 189.56465936 7.67708123 C222.37641994 7.791075 255.18820029 7.89787793 288 8 C288 8.66 288 9.32 288 10 C286.5453949 11.43583679 286.5453949 11.43583679 284.52514648 13.1081543 C279.99821724 16.96010508 275.79312635 21.06228476 271.59765625 25.26953125 C270.83448593 26.03174484 270.07131561 26.79395844 269.28501892 27.57926941 C267.68805211 29.17556068 266.09232747 30.77309553 264.49780273 32.37182617 C262.04850264 34.82652823 259.59385096 37.27578896 257.13867188 39.72460938 C255.5830122 41.28092907 254.02766234 42.83755852 252.47265625 44.39453125 C251.7373317 45.12783157 251.00200714 45.8611319 250.24440002 46.61665344 C249.56957077 47.29463486 248.89474152 47.97261627 248.19946289 48.67114258 C247.6040419 49.26735916 247.00862091 49.86357574 246.39515686 50.4778595 C244.90208655 51.96693227 244.90208655 51.96693227 244 54 C136.75 54 29.5 54 -81 54 C-81 9 -81 9 -80 8 C-77.67390081 7.89106383 -75.37639292 7.84578528 -73.04931641 7.84228516 C-72.32247147 7.83720444 -71.59562653 7.83212372 -70.84675598 7.82688904 C-69.26327355 7.81616328 -67.67977575 7.80755181 -66.09627151 7.80076981 C-63.59171781 7.7890163 -61.08733934 7.76957295 -58.58285522 7.74765015 C-51.46024384 7.68591424 -44.33764906 7.63196285 -37.21484375 7.59863281 C-32.86284459 7.57771621 -28.5111622 7.54243564 -24.15934372 7.49787521 C-22.4983734 7.48368852 -20.83734701 7.47498677 -19.17631912 7.47182083 C-16.85369871 7.46692562 -14.53192229 7.44380461 -12.20947266 7.41650391 C-11.52052414 7.41951004 -10.83157562 7.42251617 -10.12174988 7.4256134 C-7.37444015 7.37752451 -5.46351274 7.32398084 -3.17440796 5.72396851 C-1.73584318 3.6949552 -1.73584318 3.6949552 0 0 Z " fill="#8CB1DD" transform="translate(96,69)"/>
<path d="M0 0 C101.64 0 203.28 0 308 0 C306.02 2.31 304.04 4.62 302 7 C301.16431221 8.19175559 301.16431221 8.19175559 300.31174183 9.40758705 C296.2974516 12.17277807 291.75669366 11.5314 287.01213074 11.47860718 C285.87842444 11.48187503 284.74471815 11.48514289 283.57665712 11.48850977 C279.76333764 11.49477843 275.95070548 11.47255138 272.13745117 11.45068359 C269.40933225 11.44734191 266.68122854 11.45012441 263.95310974 11.45280457 C258.07086495 11.45566559 252.18877986 11.44458647 246.30657005 11.42472458 C237.79424314 11.39652702 229.28208109 11.39600031 220.76971868 11.40340765 C206.9492474 11.41523867 193.12881806 11.41364723 179.30834961 11.39941406 C178.48105688 11.39856881 177.65376415 11.39772355 176.80140195 11.39685269 C167.5735073 11.38712832 158.34562171 11.37416466 149.11773682 11.35760498 C145.77274583 11.35164737 142.4277548 11.34571961 139.08276367 11.33984375 C138.25738762 11.33838743 137.43201156 11.33693112 136.58162411 11.33543067 C122.81674942 11.3117865 109.05198241 11.31135877 95.28709966 11.32911742 C86.79703897 11.33907187 78.30746146 11.32895773 69.81746874 11.29301061 C63.99865717 11.26983032 58.18009213 11.26810006 52.36125489 11.28321432 C49.00404081 11.29120703 45.64819356 11.2860685 42.29096985 11.26122475 C38.64961763 11.23571822 35.0101621 11.24699284 31.36882019 11.26742554 C30.31025493 11.25111096 29.25168968 11.23479638 28.16104668 11.21798742 C22.0810987 11.2984215 18.6605453 12.15479601 14.22922117 16.42028582 C12.09237309 19.16642239 11.87408055 21.73520258 11.86577892 25.08214188 C11.86132108 25.91632967 11.85686324 26.75051747 11.85227031 27.60998368 C11.85245467 28.52640696 11.85263903 29.44283024 11.85282898 30.38702393 C11.84731395 31.84741392 11.84731395 31.84741392 11.8416875 33.33730674 C11.83063436 36.61452487 11.82680406 39.89171131 11.82299805 43.16894531 C11.81673467 45.51268108 11.81008799 47.85641586 11.80308533 50.20014954 C11.78566498 56.5783342 11.77512092 62.95651137 11.7668798 69.33471394 C11.76173227 73.31766452 11.75565645 77.30061277 11.74936867 81.28356171 C11.73235749 92.31200453 11.71786326 103.34044637 11.71061993 114.3689003 C11.70871005 117.23047131 11.70678972 120.09204231 11.70483398 122.95361328 C11.70435024 123.66483753 11.7038665 124.37606179 11.7033681 125.10883829 C11.69506755 136.63055173 11.66972975 148.15216136 11.63725331 159.67382947 C11.60417907 171.50406016 11.58617086 183.33423809 11.58297569 195.16451526 C11.58081097 201.80632183 11.57162484 208.44799426 11.54651451 215.08975983 C11.52327509 221.33764723 11.5189841 227.585262 11.52927589 233.83318138 C11.52977235 236.12653445 11.52341971 238.41990076 11.50971985 240.71321297 C11.49206242 243.84415072 11.49907742 246.97410352 11.51225281 250.1050415 C11.50128356 251.0125419 11.49031432 251.92004229 11.47901267 252.8550427 C11.53871836 258.73188457 12.60302332 262.16931996 16 267 C19.02890448 269.25264405 21.79047958 269.26775889 25.50292969 269.31884766 C26.60376892 269.33871735 27.70460815 269.35858704 28.83880615 269.37905884 C30.02121887 269.39061005 31.20363159 269.40216125 32.421875 269.4140625 C33.63699768 269.43342865 34.85212036 269.4527948 36.10406494 269.4727478 C39.98597184 269.53253806 43.8679084 269.57892746 47.75 269.625 C50.38152337 269.66318022 53.01303424 269.70223198 55.64453125 269.7421875 C62.09625275 269.83823943 68.54803276 269.92227307 75 270 C75 273.96 75 277.92 75 282 C66.07261759 282.04634244 57.1452766 282.08187889 48.21780014 282.10362434 C44.07240296 282.11406111 39.92708809 282.12821835 35.78173828 282.15087891 C31.78117311 282.17261111 27.78068709 282.18456943 23.78006744 282.18975449 C22.25384525 282.19344956 20.72762739 282.20066511 19.2014389 282.21146011 C17.06355936 282.22598018 14.92600686 282.22797775 12.78808594 282.22705078 C11.5711908 282.231492 10.35429565 282.23593323 9.1005249 282.24050903 C6.07603105 282.00589776 4.43653226 281.7704535 2 280 C0.14724625 276.98190654 -0.24928495 274.7120204 -0.24609566 271.1974144 C-0.2500774 270.22772972 -0.25405914 269.25804504 -0.25816154 268.25897598 C-0.25233622 267.19702892 -0.24651089 266.13508186 -0.24050903 265.04095459 C-0.24222107 263.91320618 -0.24393311 262.78545776 -0.24569702 261.62353516 C-0.24901698 257.81894687 -0.2379447 254.01453323 -0.22705078 250.20996094 C-0.22532683 247.44607565 -0.2266158 244.68219364 -0.2277813 241.91830826 C-0.22884528 235.25432338 -0.21960418 228.59039234 -0.20677864 221.9264213 C-0.19238902 214.21933412 -0.19078971 206.51227936 -0.18920898 198.80517578 C-0.17870464 178.45344198 -0.15078247 158.10172018 -0.125 137.75 C-0.08375 92.2925 -0.0425 46.835 0 0 Z " fill="#D5E9FB" transform="translate(15,138)"/>
<path d="M0 0 C84.48 0 168.96 0 256 0 C255.67 0.66 255.34 1.32 255 2 C179.76 1.67 104.52 1.34 27 1 C27 11.23 27 21.46 27 32 C27.66 32 28.32 32 29 32 C29.2578125 31.4121875 29.515625 30.824375 29.78125 30.21875 C33.25808994 23.88911832 39.79420741 20.01012061 46.4296875 17.65625 C54.13066391 15.69004326 61.78920443 16.76836754 69 20 C76.7567557 24.62397876 81.45564574 30.795639 85.375 38.8125 C87.18411937 48.0390088 86.45150652 56.64717316 82 65 C76.10108535 73.50905388 69.07842822 77.87822564 59 80 C49.9764985 80.94721839 42.16886902 78.57578701 35 73 C32.85414807 71.08106575 30.94884475 69.13444902 29 67 C29 66.34 29 65.68 29 65 C28.34 65 27.68 65 27 65 C27 88.76 27 112.52 27 137 C29.64 137 32.28 137 35 137 C35 137.33 35 137.66 35 138 C33.22109375 138.03867187 33.22109375 138.03867187 31.40625 138.078125 C29.77080216 138.13451975 28.13538688 138.19186415 26.5 138.25 C25.72785156 138.26417969 24.95570312 138.27835938 24.16015625 138.29296875 C15.45492862 138.64117786 8.9674572 140.7581357 0 143 C0 95.81 0 48.62 0 0 Z " fill="#F6B883" transform="translate(41,164)"/>
<path d="M0 0 C81.18 0 162.36 0 246 0 C246 34.65 246 69.3 246 105 C164.82 105 83.64 105 0 105 C0 70.35 0 35.7 0 0 Z M12.49238396 11.81940174 C10.3630841 14.93063028 10.44027293 17.81852658 10.48242188 21.45898438 C10.4754126 22.20416824 10.46840332 22.94935211 10.46118164 23.71711731 C10.44359958 26.17637576 10.45522426 28.63448018 10.46875 31.09375 C10.46605512 32.80481181 10.46217274 34.51587214 10.45715332 36.22692871 C10.45125802 39.81142775 10.45982201 43.39552784 10.47851562 46.97998047 C10.50130549 51.57366439 10.48818254 56.16641354 10.46422577 60.76006317 C10.44976848 64.29285724 10.45437339 67.82542984 10.46473694 71.35823059 C10.46740443 73.05190644 10.46413365 74.74560243 10.45481873 76.43925476 C10.44465388 78.80704976 10.46015121 81.17333317 10.48242188 83.54101562 C10.47432495 84.24035721 10.46622803 84.93969879 10.45788574 85.66023254 C10.51073786 88.69476965 10.76185131 90.65187288 12.49085236 93.17933655 C16.06559849 95.77320927 19.40272693 95.55385865 23.65429688 95.50793457 C24.97826099 95.51729451 24.97826099 95.51729451 26.32897186 95.52684355 C29.29250136 95.54282396 32.25521411 95.53014953 35.21875 95.51757812 C37.34090658 95.52299699 39.46305941 95.53011832 41.58520508 95.53881836 C47.35374135 95.5570825 53.12199206 95.54997132 58.89053345 95.53730202 C64.92117088 95.52719041 70.9517835 95.53656258 76.98242188 95.54284668 C87.11072184 95.55012844 97.23890522 95.54052146 107.3671875 95.52148438 C119.08475843 95.49971471 130.80205099 95.5067657 142.51961517 95.52879 C152.57150408 95.54692889 162.62330907 95.5495097 172.67520905 95.53903532 C178.68252629 95.5327921 184.6897126 95.53198757 190.69702148 95.54518127 C196.34415753 95.5567171 201.99093391 95.54875532 207.63803101 95.52560425 C209.71332196 95.52030505 211.78864307 95.52185151 213.86392212 95.53065491 C216.6915942 95.54154608 219.51810551 95.52792466 222.34570312 95.50793457 C223.58480061 95.5213189 223.58480061 95.5213189 224.84893036 95.53497362 C228.47770381 95.48503147 230.55748352 95.34044896 233.47839355 93.09325409 C236.23604725 89.29958597 236.14086866 86.8395237 236.17700195 82.15112305 C236.18685875 81.09471619 236.18685875 81.09471619 236.19691467 80.01696777 C236.21665551 77.68188372 236.22831214 75.34686401 236.23828125 73.01171875 C236.24235678 72.2144166 236.2464323 71.41711445 236.25063133 70.59565163 C236.27149576 66.3753752 236.28579565 62.15513132 236.29516602 57.93481445 C236.30622934 53.57667482 236.34062683 49.21904594 236.38033772 44.86108685 C236.40648983 41.5093135 236.41485659 38.15766207 236.41844749 34.80579567 C236.42331739 33.19943608 236.43494294 31.59308208 236.45348549 29.98682213 C236.47784761 27.73649071 236.47691803 25.48748361 236.4699707 23.23706055 C236.47583694 21.95735886 236.48170319 20.67765717 236.48774719 19.35917664 C235.91645004 15.42458088 234.77294523 13.79220699 232 11 C228.75496841 9.3774842 225.19007918 9.852035 221.62417603 9.85282898 C220.74732568 9.84915229 219.87047534 9.8454756 218.96705377 9.8416875 C216.01139591 9.83062204 213.05577316 9.82680201 210.10009766 9.82299805 C207.98809191 9.81673566 205.87608728 9.81008906 203.76408386 9.80308533 C198.01412093 9.78565701 192.26416633 9.77511901 186.51418352 9.7668798 C182.92507691 9.76173454 179.33597291 9.75565866 175.74686813 9.74936867 C164.5267383 9.73031326 153.30661507 9.7160817 142.08647215 9.7077567 C129.11687894 9.69797575 116.14745602 9.67163523 103.17792284 9.63125581 C93.16431327 9.60114452 83.15075266 9.58629265 73.13709867 9.58297569 C67.15096007 9.58061989 61.16500332 9.57159053 55.17891312 9.54651451 C49.54990441 9.52331539 43.92119834 9.51896762 38.29215431 9.52927589 C36.22329899 9.52977333 34.15442918 9.52339229 32.08561897 9.50971985 C29.26664237 9.49212827 26.44876697 9.49904397 23.62979126 9.51225281 C22.39448384 9.49579894 22.39448384 9.49579894 21.13422072 9.47901267 C17.55881202 9.51961316 15.4260292 9.69089436 12.49238396 11.81940174 Z " fill="#637E9F" transform="translate(162,381)"/>
<path d="M0 0 C4.12060758 1.77935327 6.2942789 3.83045953 8 8 C8.22105521 13.85796305 6.09550531 16.35338471 2.40458298 20.44057083 C-3.11660191 26.31729947 -8.78254353 32.0521933 -14.44287109 37.79443359 C-15.91080138 39.28666918 -17.37863843 40.77899649 -18.84638977 42.27140808 C-32.23690418 55.87814068 -45.67507248 69.43789743 -59.12578392 82.98509789 C-68.14886702 92.07438183 -77.15725869 101.17728245 -86.12988281 110.31640625 C-93.98148663 118.31369249 -101.85972037 126.28360229 -109.77043784 134.22243559 C-113.94511169 138.41366714 -118.1062268 142.616461 -122.23572922 146.85224533 C-155.71197963 181.15538752 -155.71197963 181.15538752 -178 186 C-175.18094765 168.34800594 -165.89786621 156.15668635 -153.43603516 144.05786133 C-151.85919224 142.48277114 -150.28499732 140.90502633 -148.71322632 139.32487488 C-144.48402143 135.0880308 -140.21908846 130.88897536 -135.94605684 126.69639802 C-131.46798574 122.29017099 -127.02401431 117.84980283 -122.57601929 113.41325378 C-115.11907806 105.98468715 -107.64123086 98.57766049 -100.14697266 91.18676758 C-92.43942062 83.58541862 -84.74626063 75.96993929 -77.07080078 68.33618164 C-76.59611408 67.86408222 -76.12142738 67.3919828 -75.63235624 66.90557734 C-73.724162 65.0076774 -71.81605795 63.10968685 -69.90807543 61.21157407 C-55.3294241 46.7087366 -40.73760265 32.2189779 -26.10409927 17.77147102 C-24.57218114 16.25851465 -23.0410711 14.74473956 -21.51081085 13.23010635 C-19.42988041 11.17094493 -17.34587741 9.11494792 -15.26089478 7.05989075 C-14.64962569 6.45389426 -14.0383566 5.84789776 -13.40856421 5.22353774 C-8.69960272 0.59405964 -6.68756235 -0.45339406 0 0 Z " fill="#09B765" transform="translate(465,26)"/>
<path d="M0 0 C0.97594116 -0.00058411 1.95188232 -0.00116821 2.95739746 -0.00177002 C6.18257234 0.00101625 9.40682255 0.0321347 12.63183594 0.06347656 C14.86813858 0.070937 17.10444776 0.07663086 19.34075928 0.08062744 C25.22637993 0.09589919 31.11160568 0.13519474 36.99707031 0.17944336 C43.00287534 0.22036257 49.00874419 0.23863132 55.01464844 0.25878906 C66.7986761 0.30168712 78.58241068 0.36995746 90.36621094 0.45410156 C90.41196428 35.54677749 90.44721788 70.63944738 90.4683416 105.73214684 C90.47084308 109.87286357 90.47343172 114.01358024 90.47607422 118.15429688 C90.47659884 118.97865731 90.47712346 119.80301775 90.47766398 120.6523588 C90.48637239 134.00950932 90.50214476 147.36664266 90.52051653 160.72378299 C90.53920346 174.42407157 90.5503251 188.12435115 90.55438793 201.82465196 C90.55713549 210.28204825 90.56582109 218.73939601 90.58204387 227.19677737 C90.59259586 232.99217648 90.59581562 238.78755041 90.59321369 244.58295843 C90.5919296 247.92924655 90.59501649 251.27538104 90.60462189 254.62166595 C90.61451907 258.24619803 90.61219888 261.87051957 90.60671997 265.49505615 C90.61254565 266.55730652 90.61837134 267.61955688 90.62437356 268.71399665 C90.62039146 269.68337802 90.61640936 270.65275939 90.61230659 271.65151596 C90.61344576 272.90687137 90.61344576 272.90687137 90.61460793 274.1875875 C90.33872995 276.70485361 89.68590359 278.30435243 88.36621094 280.45410156 C84.97547528 282.91790634 81.66578158 282.6960708 77.578125 282.68115234 C76.56775429 282.68159042 76.56775429 282.68159042 75.53697205 282.68203735 C73.31846068 282.68064797 71.10028838 282.66510557 68.88183594 282.64941406 C67.34055769 282.64568253 65.79927707 282.64283622 64.25799561 282.64083862 C60.20718808 282.63321317 56.15652464 282.61357409 52.10577393 282.59143066 C47.96994984 282.57094876 43.8341024 282.5618319 39.69824219 282.55175781 C31.58749908 282.53032712 23.47687295 282.49620437 15.36621094 282.45410156 C15.36621094 278.49410156 15.36621094 274.53410156 15.36621094 270.45410156 C16.97061035 270.43951904 18.57500977 270.42493652 20.22802734 270.40991211 C26.18821347 270.35188129 32.14802371 270.27464766 38.10791016 270.19165039 C40.68597304 270.15842375 43.26410827 270.13038483 45.84228516 270.10766602 C49.55109448 270.0740795 53.25924214 270.02175912 56.96777344 269.96582031 C58.11798981 269.95943039 59.26820618 269.95304047 60.45327759 269.94645691 C68.41717624 269.9322777 68.41717624 269.9322777 75.36621094 266.45410156 C77.84550815 261.59929246 78.74320122 258.01618216 78.76062012 252.49581909 C78.76671122 251.83183046 78.77280232 251.16784184 78.77907801 250.48373234 C78.79561141 248.27820191 78.79094646 246.07325493 78.78613281 243.86767578 C78.79347852 242.27871099 78.80206621 240.68975153 78.8117981 239.10079956 C78.83396308 234.79931514 78.83694754 230.49802254 78.83505058 226.19648886 C78.83493072 222.60280702 78.84350076 219.0091656 78.8518281 215.41549504 C78.87104177 206.93924127 78.87395243 198.46308598 78.8671875 189.98681641 C78.86053843 181.24394 78.88345037 172.50148459 78.92050123 163.75869358 C78.95117974 156.24683445 78.96256057 148.73511096 78.95866442 141.22319043 C78.95659607 136.73884262 78.96209012 132.25482295 78.98655701 127.77053452 C79.008793 123.55633512 79.00697312 119.34282247 78.98662949 115.12862015 C78.98321451 113.58265399 78.98832965 112.03664186 79.00261307 110.49073792 C79.02077688 108.37916139 79.00808348 106.26992237 78.9876709 104.15841675 C78.98838341 102.97747374 78.98909592 101.79653072 78.98983002 100.57980156 C78.18212009 96.53140244 76.4977481 95.04960666 73.36621094 92.45410156 C72.70621094 92.12410156 72.04621094 91.79410156 71.36621094 91.45410156 C71.19157124 88.37148701 71.08527026 85.29014324 70.99121094 82.20410156 C70.9409375 81.33140625 70.89066406 80.45871094 70.83886719 79.55957031 C70.78155714 77.05703157 70.79650473 74.89375796 71.36621094 72.45410156 C74.32714844 69.96972656 74.32714844 69.96972656 77.36621094 68.45410156 C78.52664767 66.13322809 78.5047171 64.75996449 78.52734375 62.17553711 C78.53695129 61.29089279 78.54655884 60.40624847 78.55645752 59.49479675 C78.5607074 58.53648453 78.56495728 57.5781723 78.56933594 56.59082031 C78.57503601 55.60668655 78.58073608 54.6225528 78.58660889 53.6085968 C78.59606644 51.52301104 78.60259586 49.43741029 78.60644531 47.35180664 C78.61613995 44.1649353 78.64715194 40.97871177 78.67871094 37.79199219 C78.68524202 35.7666054 78.69049208 33.74121399 78.69433594 31.71582031 C78.71285614 30.28746101 78.71285614 30.28746101 78.73175049 28.83024597 C78.73126779 22.11447553 78.73126779 22.11447553 75.36621094 16.45410156 C70.33967489 12.33970448 66.73613207 11.8695994 60.51513672 11.90820312 C59.64619278 11.89786545 58.77724884 11.88752777 57.88197327 11.87687683 C55.02496627 11.84750377 52.16866941 11.84595082 49.31152344 11.84472656 C47.32468316 11.82974121 45.33785532 11.81301331 43.3510437 11.7946167 C38.13309143 11.75097098 32.91530721 11.73095017 27.69720459 11.71588135 C22.36802242 11.69630033 17.03902144 11.65433138 11.70996094 11.61425781 C1.2621002 11.53898572 -9.18571992 11.488676 -19.63378906 11.45410156 C-18.7193106 10.36892046 -17.80208499 9.28605419 -16.88378906 8.20410156 C-16.37332031 7.60082031 -15.86285156 6.99753906 -15.33691406 6.37597656 C-14.77488281 5.74175781 -14.21285156 5.10753906 -13.63378906 4.45410156 C-13.10545471 3.72612366 -12.57712036 2.99814575 -12.03277588 2.24810791 C-8.26777269 -0.56743054 -4.57873205 -0.07151921 0 0 Z " fill="#E7F3FC" transform="translate(406.6337890625,137.5458984375)"/>
<path d="M0 0 C0.66 0 1.32 0 2 0 C3.54093129 1.82026345 4.96332787 3.64506807 6.375 5.5625 C7.27331135 6.75758532 8.17311402 7.95155075 9.07421875 9.14453125 C9.54907715 9.77439941 10.02393555 10.40426758 10.51318359 11.05322266 C13.01575151 14.329984 15.60317845 17.53762111 18.1875 20.75 C18.69289307 21.38349365 19.19828613 22.0169873 19.71899414 22.66967773 C21.89866579 25.40077671 24.09148872 28.10790198 26.3515625 30.7734375 C26.99867188 31.54945313 27.64578125 32.32546875 28.3125 33.125 C29.14201172 34.08792969 29.14201172 34.08792969 29.98828125 35.0703125 C31 37 31 37 30.79296875 39.6171875 C30 42 30 42 28 44 C25.29042175 43.70869722 23.0172758 43.00665894 20.4765625 42.02734375 C7.58929769 37.10193706 -9.6002891 36.40330866 -22.4453125 41.74609375 C-23.28835937 42.15988281 -24.13140625 42.57367188 -25 43 C-25.92554688 43.42410156 -26.85109375 43.84820312 -27.8046875 44.28515625 C-35.74344956 48.23254625 -42.73426296 53.67609119 -48.09765625 60.77734375 C-48.72542969 61.51082031 -49.35320312 62.24429688 -50 63 C-53.48424923 63 -56.22539486 62.22510968 -59.55639648 61.25708008 C-67.17720074 59.13799857 -74.17661216 58.57091384 -82.0625 58.6875 C-83.15626953 58.68427734 -84.25003906 58.68105469 -85.37695312 58.67773438 C-90.79117011 58.71316352 -95.70244391 59.07320922 -100.984375 60.29296875 C-105.60675303 61.22918373 -105.60675303 61.22918373 -109.04296875 59.2265625 C-109.75066406 58.36804688 -110.45835938 57.50953125 -111.1875 56.625 C-111.92355469 55.77164063 -112.65960938 54.91828125 -113.41796875 54.0390625 C-113.94003906 53.36617188 -114.46210937 52.69328125 -115 52 C-113.44223081 46.93725012 -110.34831393 43.47896166 -107 39.5 C-105.81762707 38.07145634 -104.63665362 36.64175328 -103.45703125 35.2109375 C-102.87131348 34.50163086 -102.2855957 33.79232422 -101.68212891 33.06152344 C-99.28915031 30.12882223 -96.97981025 27.1366716 -94.6875 24.125 C-90.53750759 18.68450258 -86.30077351 13.32190688 -82 8 C-77.99072267 9.33642578 -76.50756995 12.0176848 -74.125 15.3125 C-69.11439352 22.59668555 -69.11439352 22.59668555 -61.53515625 26.56640625 C-60.71917969 26.56511719 -59.90320313 26.56382812 -59.0625 26.5625 C-57.84240234 26.59537109 -57.84240234 26.59537109 -56.59765625 26.62890625 C-50.34633458 25.11542837 -46.45522886 19.37592648 -42.8125 14.4375 C-42.17538086 13.59155273 -42.17538086 13.59155273 -41.52539062 12.72851562 C-40.3437192 11.1572418 -39.17153302 9.57884742 -38 8 C-37.00034699 6.6664065 -36.00052137 5.33294215 -35 4 C-31.81580579 5.37154686 -30.02887404 6.86169983 -27.875 9.5625 C-25.15247526 13.00932043 -25.15247526 13.00932043 -21.046875 14.23828125 C-15.44704809 14.41922804 -12.33675929 13.86537241 -8 10 C-5.54031018 7.08707541 -3.25970044 4.06895955 -1 1 C-0.67 0.67 -0.34 0.34 0 0 Z " fill="#0491F9" transform="translate(236,268)"/>
<path d="M0 0 C4.12236237 1.54588589 5.92848757 4.20310066 8.5 7.6875 C9.38525402 8.8708888 10.27203625 10.05313557 11.16015625 11.234375 C11.85455811 12.1615332 11.85455811 12.1615332 12.56298828 13.10742188 C14.96099627 16.26565462 17.44973162 19.34981852 19.9375 22.4375 C25.21135763 29.00220911 30.42668122 35.6105564 35.61914062 42.23974609 C37.53474213 44.68166385 39.45723712 47.11812161 41.37963867 49.5546875 C42.76961341 51.32051671 44.15290153 53.09140617 45.53515625 54.86328125 C47.02052233 56.75353317 48.52329895 58.63054049 50.05859375 60.48046875 C53.98361822 65.31196539 53.98361822 65.31196539 54.0625 68.625 C52.7909366 71.4673182 51.468861 74.25386856 50 77 C47.1707044 76.38459597 44.83587357 75.51505574 42.28515625 74.15234375 C41.59873047 73.79462891 40.91230469 73.43691406 40.20507812 73.06835938 C38.77812771 72.31521052 37.35362831 71.55739923 35.93164062 70.79492188 C32.16856422 68.84461143 29.35088022 67.38511711 25 68 C23.515 68.495 23.515 68.495 22 69 C21.505 70.485 21.505 70.485 21 72 C17.5592367 71.80921881 14.12417985 71.56582343 10.6875 71.3125 C9.71103516 71.25900391 8.73457031 71.20550781 7.72851562 71.15039062 C5.05727622 70.93926174 2.58668512 70.70357835 0 70 C-1.86328125 67.45703125 -1.86328125 67.45703125 -3 65 C-13.1836559 61.98393466 -24.4916875 68.56110041 -33.1875 73.1875 C-35.84862253 74.66416975 -37.84660654 75.84660654 -40 78 C-42.96417253 77.85677318 -43.99299291 77.00676414 -46.140625 74.93359375 C-46.83671875 74.10988281 -47.5328125 73.28617187 -48.25 72.4375 C-48.95640625 71.61121094 -49.6628125 70.78492188 -50.390625 69.93359375 C-50.92171875 69.29550781 -51.4528125 68.65742188 -52 68 C-50.36515835 64.31721156 -48.09213324 61.36123936 -45.625 58.1875 C-45.18728271 57.62345459 -44.74956543 57.05940918 -44.29858398 56.47827148 C-40.4238394 51.50249169 -36.48416145 46.57863615 -32.53588867 41.66113281 C-27.77309111 35.72875227 -23.07197142 29.74937567 -18.38085938 23.76025391 C-16.94945737 21.93557065 -15.51428129 20.11391193 -14.078125 18.29296875 C-9.31228524 12.24745711 -4.57971363 6.18880221 0 0 Z " fill="#0180F9" transform="translate(328,254)"/>
<path d="M0 0 C7.7567557 4.62397876 12.45564574 10.795639 16.375 18.8125 C18.18411937 28.0390088 17.45150652 36.64717316 13 45 C7.10108535 53.50905388 0.07842822 57.87822564 -10 60 C-18.91572467 60.9359048 -26.99678414 58.66217453 -34 53 C-40.57826885 46.50994548 -45.28890372 40.3929526 -45.51953125 30.84741211 C-45.51308594 30.13464111 -45.50664063 29.42187012 -45.5 28.6875 C-45.49355469 27.94056885 -45.48710938 27.1936377 -45.48046875 26.42407227 C-45.1967869 17.81563458 -42.10744969 12.07951009 -36.4375 5.6875 C-26.13092353 -3.88150603 -12.66029187 -5.67391071 0 0 Z " fill="#040302" transform="translate(110,184)"/>
<path d="M0 0 C87.45 0 174.9 0 265 0 C263.02 2.31 261.04 4.62 259 7 C258.42583721 7.794454 257.85167442 8.588908 257.26011276 9.40743637 C253.46310029 12.0829595 249.361916 11.5347716 244.8381958 11.48101807 C243.79347225 11.48443577 242.7487487 11.48785347 241.67236686 11.49137473 C238.16053335 11.49798001 234.64945878 11.47593298 231.13769531 11.45410156 C228.62482216 11.45297366 226.1119477 11.45360582 223.59907532 11.45587158 C218.18332459 11.45678339 212.76781965 11.44541493 207.35211945 11.42292023 C199.5219745 11.39041803 191.69192277 11.37999506 183.86171767 11.37496826 C171.15792171 11.3662128 158.45422847 11.33959044 145.75048828 11.30175781 C133.4096732 11.26504421 121.06888601 11.23672928 108.72802734 11.21972656 C107.58707788 11.21815022 107.58707788 11.21815022 106.42307892 11.21654204 C102.60722347 11.2113219 98.79136781 11.20626707 94.97551203 11.20129442 C63.31693268 11.15982456 31.6584823 11.08907209 0 11 C0 7.37 0 3.74 0 0 Z " fill="#EAF6FF" transform="translate(58,138)"/>
<path d="M0 0 C5.53588533 -0.02464775 11.071739 -0.04283496 16.60766602 -0.05493164 C18.4924373 -0.05997244 20.37720465 -0.06680498 22.26196289 -0.07543945 C24.96501636 -0.08751617 27.66801831 -0.09323068 30.37109375 -0.09765625 C31.21900986 -0.10281754 32.06692596 -0.10797882 32.9405365 -0.11329651 C34.96071068 -0.11349195 36.98077934 -0.06206211 39 0 C40 1 40 1 40.12025452 2.82862854 C40.11803391 3.62582809 40.11581329 4.42302765 40.11352539 5.24438477 C40.11340454 6.15788696 40.11328369 7.07138916 40.11315918 8.01257324 C40.10804321 8.97908813 40.10292725 9.94560303 40.09765625 10.94140625 C40.09664917 11.82501831 40.09564209 12.70863037 40.09460449 13.61901855 C40.08935531 16.93352549 40.07539417 20.24801399 40.0625 23.5625 C40.041875 30.966875 40.02125 38.37125 40 46 C12.28 46 -15.44 46 -44 46 C-44 45.34 -44 44.68 -44 44 C-42.5453949 42.56416321 -42.5453949 42.56416321 -40.52514648 40.8918457 C-35.99821724 37.03989492 -31.79312635 32.93771524 -27.59765625 28.73046875 C-26.83448593 27.96825516 -26.07131561 27.20604156 -25.28501892 26.42073059 C-23.68805211 24.82443932 -22.09232747 23.22690447 -20.49780273 21.62817383 C-18.04850264 19.17347177 -15.59385096 16.72421104 -13.13867188 14.27539062 C-11.5830122 12.71907093 -10.02766234 11.16244148 -8.47265625 9.60546875 C-7.7373317 8.87216843 -7.00200714 8.1388681 -6.24440002 7.38334656 C-5.56957077 6.70536514 -4.89474152 6.02738373 -4.19946289 5.32885742 C-3.6040419 4.73264084 -3.00862091 4.13642426 -2.39515686 3.5221405 C-0.90208655 2.03306773 -0.90208655 2.03306773 0 0 Z " fill="#8BB0DC" transform="translate(457,77)"/>
<path d="M0 0 C1.29461655 0.00222061 2.58923309 0.00444122 3.92308044 0.00672913 C4.99131546 0.00651009 4.99131546 0.00651009 6.08113098 0.00628662 C8.4457143 0.00698581 10.81021979 0.01477846 13.17478943 0.02259827 C14.81003781 0.02446243 16.44528675 0.02588634 18.08053589 0.02688599 C22.39273103 0.03071134 26.7048927 0.04054177 31.01707458 0.05158997 C35.41404263 0.06180371 39.81101607 0.06638353 44.20799255 0.07142639 C52.84147149 0.08216402 61.47492317 0.09924065 70.10838318 0.12025452 C70.10838318 0.45025452 70.10838318 0.78025452 70.10838318 1.12025452 C59.87838318 1.12025452 49.64838318 1.12025452 39.10838318 1.12025452 C39.10838318 5.74025452 39.10838318 10.36025452 39.10838318 15.12025452 C41.08838318 15.12025452 43.06838318 15.12025452 45.10838318 15.12025452 C48.16461595 17.21136115 48.97301332 18.41332301 49.67088318 22.05775452 C48.91436965 26.17655037 47.4156769 27.62141037 44.10838318 30.12025452 C42.45838318 30.12025452 40.80838318 30.12025452 39.10838318 30.12025452 C39.10838318 35.07025452 39.10838318 40.02025452 39.10838318 45.12025452 C132.16838318 45.12025452 225.22838318 45.12025452 321.10838318 45.12025452 C321.10838318 45.45025452 321.10838318 45.78025452 321.10838318 46.12025452 C213.85838318 46.12025452 106.60838318 46.12025452 -3.89161682 46.12025452 C-3.89161682 0.16184181 -3.89161682 0.16184181 0 0 Z " fill="#7498C1" transform="translate(18.891616821289063,76.87974548339844)"/>
<path d="M0 0 C1.73763598 2.55534703 2.00237827 4.12366991 2.0625 7.25 C-0.86097905 17.56816135 -13.25965278 26.43793324 -20.69677734 33.90551758 C-22.19074331 35.40903498 -23.68453861 36.91272199 -25.17817688 38.41656494 C-30.06018753 43.32978356 -34.94760122 48.23760721 -39.8359375 53.14453125 C-41.08563222 54.39917195 -41.08563222 54.39917195 -42.36057329 55.67915893 C-50.22233297 63.57166799 -58.08612273 71.46214902 -65.95477867 79.34778309 C-76.00199905 89.41694342 -86.03901268 99.49604487 -96.06244504 109.58888704 C-103.12309457 116.69676161 -110.19518666 123.79312182 -117.27585375 130.88105506 C-121.50058402 135.11073928 -125.72011025 139.34532698 -129.92741013 143.59235573 C-133.88213221 147.58393497 -137.85083611 151.5610599 -141.83066368 155.52760315 C-143.28669052 156.98368393 -144.73760805 158.444895 -146.18292046 159.91161156 C-148.16041981 161.91681659 -150.15568503 163.90253475 -152.15634155 165.88459778 C-153.00282857 166.75627719 -153.00282857 166.75627719 -153.86641634 167.64556628 C-158.10768605 171.78934839 -162.28160855 173.53990267 -168 175 C-165.12238058 165.64773688 -161.44874412 158.98986854 -154.4961853 152.1219635 C-153.51924821 151.1390648 -153.51924821 151.1390648 -152.52257502 150.13630956 C-150.34942305 147.95357186 -148.16576282 145.78167021 -145.98193359 143.60961914 C-144.41747623 142.04273271 -142.85366494 140.47520097 -141.29045105 138.90707397 C-137.0517191 134.65894883 -132.803651 130.42027548 -128.55356169 126.18351674 C-124.10942408 121.75070019 -119.67300699 117.31016875 -115.23550415 112.87071228 C-107.78752867 105.42185445 -100.33363222 97.97895808 -92.87597656 90.53979492 C-85.1989734 82.88182318 -77.52798837 75.21788618 -69.86328125 67.54760742 C-60.62402828 58.30165811 -51.37980424 49.06070539 -42.13093948 39.82436943 C-38.59731601 36.29540076 -35.06559647 32.7645425 -31.5353508 29.2321949 C-27.38512542 25.08009283 -23.22997097 20.93298811 -19.07087135 16.78977585 C-17.5412603 15.26442444 -16.01336433 13.73735104 -14.48726845 12.20848274 C-12.41270391 10.13072021 -10.33214521 8.05915895 -8.24984741 5.989151 C-7.63974079 5.37526506 -7.02963418 4.76137912 -6.40103948 4.12889057 C-2.22832979 0 -2.22832979 0 0 0 Z " fill="#45CB8C" transform="translate(471,30)"/>
<path d="M0 0 C0 25.08 0 50.16 0 76 C-8.91 76 -17.82 76 -27 76 C-27 53.23 -27 30.46 -27 7 C-15.57416822 1.28708411 -12.59553497 0 0 0 Z " fill="#08B463" transform="translate(68,317)"/>
<path d="M0 0 C81.18 0 162.36 0 246 0 C246 34.65 246 69.3 246 105 C245.67 105 245.34 105 245 105 C245 70.68 245 36.36 245 1 C172.07 1 99.14 1 24 1 C24 3.97 24 6.94 24 10 C21.75390625 10.16276042 19.5078125 10.32552083 17.26171875 10.48828125 C14.43679768 11.12742574 13.68999721 11.64373775 12 14 C11.70406482 16.53542222 11.5899589 18.82558543 11.61181641 21.36132812 C11.60393097 22.48129433 11.60393097 22.48129433 11.59588623 23.62388611 C11.58267675 26.09321988 11.59142733 28.56190961 11.6015625 31.03125 C11.59954203 32.7461357 11.59663082 34.46102056 11.59286499 36.17590332 C11.58844036 39.77050962 11.59487706 43.36489233 11.60888672 46.95947266 C11.62597879 51.56995694 11.61613833 56.17991733 11.59816933 60.79038239 C11.58733517 64.33168494 11.59077611 67.87286303 11.5985527 71.41416931 C11.60055574 73.11425335 11.59809182 74.81434865 11.59111404 76.51441956 C11.58350548 78.88947535 11.59509461 81.2636796 11.61181641 83.63867188 C11.60574371 84.34317978 11.59967102 85.04768768 11.59341431 85.77354431 C11.60583154 89.48590831 11.60583154 89.48590831 13.29185563 92.67993957 C16.25033383 94.96626272 19.89378251 94.4198566 23.48503113 94.39872742 C24.36147461 94.40537424 25.23791809 94.41202107 26.14092046 94.41886932 C29.08909953 94.43757931 32.03687561 94.43488866 34.98510742 94.43237305 C37.09390337 94.44138532 39.20269406 94.45171121 41.31147766 94.46325684 C47.04666799 94.49091571 52.78175918 94.50012341 58.51700759 94.50611091 C64.50684677 94.51547149 70.49661122 94.54167293 76.48640442 94.56611633 C87.83356567 94.60984889 99.18071248 94.63835434 110.52793247 94.66143972 C123.44436505 94.68845521 136.36072271 94.73236893 149.27710187 94.77772844 C175.85136067 94.87067148 202.42564296 94.94230794 229 95 C229 95.33 229 95.66 229 96 C161.35 96 93.7 96 24 96 C24 98.97 24 101.94 24 105 C16.08 105 8.16 105 0 105 C0 70.35 0 35.7 0 0 Z " fill="#546582" transform="translate(162,381)"/>
<path d="M0 0 C14.19 0 28.38 0 43 0 C43 14.85 43 29.7 43 45 C28.81 45 14.62 45 0 45 C0 30.15 0 15.3 0 0 Z " fill="#7397C0" transform="translate(105,441)"/>
<path d="M0 0 C14.19 0 28.38 0 43 0 C43 14.85 43 29.7 43 45 C28.81 45 14.62 45 0 45 C0 30.15 0 15.3 0 0 Z " fill="#7397C0" transform="translate(105,381)"/>
<path d="M0 0 C0.66 0 1.32 0 2 0 C3.72783473 2.00514153 5.34029853 4.01901928 6.9375 6.125 C7.92824211 7.40896476 8.91913186 8.6928156 9.91015625 9.9765625 C10.41949707 10.64075195 10.92883789 11.30494141 11.45361328 11.98925781 C13.90517598 15.17698601 16.38997809 18.33833564 18.875 21.5 C19.31448975 22.06219238 19.75397949 22.62438477 20.20678711 23.20361328 C23.07226918 26.8598922 26.01134521 30.44360792 29 34 C27.59023295 37.03852705 25.91129772 39.5939595 23.875 42.25 C23.33617187 42.95640625 22.79734375 43.6628125 22.2421875 44.390625 C21.83226562 44.92171875 21.42234375 45.4528125 21 46 C17.14444648 44.48377109 15.3050235 42.187601 12.8125 38.9375 C12.11769531 38.03902344 11.42289063 37.14054687 10.70703125 36.21484375 C10.14371094 35.48394531 9.58039063 34.75304687 9 34 C7.84859132 32.64145975 7.84859132 32.64145975 4.75 32.625 C-0.48516859 33.14851686 -2.16267576 35.81206484 -5.45849609 39.73681641 C-7.01282507 41.64301218 -8.54123944 43.56732935 -10.0625 45.5 C-10.8369043 46.47646484 -10.8369043 46.47646484 -11.62695312 47.47265625 C-12.62767759 48.73471641 -13.62724332 49.99769648 -14.62548828 51.26171875 C-16.40754059 53.51539769 -18.20255792 55.75858542 -20 58 C-23.98772667 56.44157808 -26.11078195 53.88102854 -28.8125 50.625 C-29.62332031 49.66851562 -30.43414062 48.71203125 -31.26953125 47.7265625 C-33 45 -33 45 -33.03125 43.01171875 C-31.55236978 40.12678196 -29.69577783 37.73388099 -27.6875 35.1875 C-27.24599609 34.62417969 -26.80449219 34.06085938 -26.34960938 33.48046875 C-24.90806631 31.64687422 -23.45581794 29.82227752 -22 28 C-21.26450928 27.07888428 -21.26450928 27.07888428 -20.51416016 26.13916016 C-18.50844624 23.63021582 -16.50164935 21.12222959 -14.4855957 18.62158203 C-11.97397676 15.50003913 -9.4979224 12.35951114 -7.0859375 9.16015625 C-6.62832031 8.55429688 -6.17070312 7.9484375 -5.69921875 7.32421875 C-4.83423825 6.17346299 -3.9746058 5.01866239 -3.12109375 3.859375 C-2.12679419 2.53699007 -1.06899062 1.26277178 0 0 Z " fill="#E7F3FC" transform="translate(198,220)"/>
<path d="M0 0 C4.08596252 1.52763464 5.79826179 4.11084191 8.25 7.625 C8.95640625 8.62789063 9.6628125 9.63078125 10.390625 10.6640625 C10.92171875 11.43492187 11.4528125 12.20578125 12 13 C8.45513079 18.70637483 4.5109157 23.88684246 0.15991211 29.00195312 C-4.06308398 33.9998748 -8.00210182 39.19612443 -11.94897461 44.41308594 C-16.42166623 50.30108617 -21.04928708 56.04840204 -25.7746582 61.73535156 C-28.49938338 65.03893559 -30.81355468 68.30748359 -33 72 C-34.62332967 73.38576923 -36.28724465 74.72641268 -38 76 C-38.99 76.99 -38.99 76.99 -40 78 C-42.96417253 77.85677318 -43.99299291 77.00676414 -46.140625 74.93359375 C-46.83671875 74.10988281 -47.5328125 73.28617187 -48.25 72.4375 C-48.95640625 71.61121094 -49.6628125 70.78492188 -50.390625 69.93359375 C-50.92171875 69.29550781 -51.4528125 68.65742188 -52 68 C-50.36515835 64.31721156 -48.09213324 61.36123936 -45.625 58.1875 C-45.18728271 57.62345459 -44.74956543 57.05940918 -44.29858398 56.47827148 C-40.4238394 51.50249169 -36.48416145 46.57863615 -32.53588867 41.66113281 C-27.77309111 35.72875227 -23.07197142 29.74937567 -18.38085938 23.76025391 C-16.94945737 21.93557065 -15.51428129 20.11391193 -14.078125 18.29296875 C-9.31228524 12.24745711 -4.57971363 6.18880221 0 0 Z " fill="#0170F8" transform="translate(328,254)"/>
<path d="M0 0 C9.57 0 19.14 0 29 0 C29 14.52 29 29.04 29 44 C19.43 44 9.86 44 0 44 C0 39.38 0 34.76 0 30 C2.475 30.99 2.475 30.99 5 32 C9.02134722 32.44361363 9.02134722 32.44361363 12.65234375 30.98046875 C14.76383455 27.87749532 14.47293871 24.62119174 14.4375 21 C14.45748047 20.27554687 14.47746094 19.55109375 14.49804688 18.8046875 C14.49759484 14.4803522 14.49759484 14.4803522 12.125 11.02734375 C9.42456974 9.72180486 7.96854716 9.49317488 5 10 C3.35 11.32 1.7 12.64 0 14 C0 9.38 0 4.76 0 0 Z " fill="#8BB1DC" transform="translate(118,442)"/>
<path d="M0 0 C9.57 0 19.14 0 29 0 C29 14.52 29 29.04 29 44 C19.43 44 9.86 44 0 44 C0 39.71 0 35.42 0 31 C2.475 31.99 2.475 31.99 5 33 C9.02134722 33.44361363 9.02134722 33.44361363 12.65234375 31.98046875 C14.76383455 28.87749532 14.47293871 25.62119174 14.4375 22 C14.45748047 21.27554687 14.47746094 20.55109375 14.49804688 19.8046875 C14.49759484 15.4803522 14.49759484 15.4803522 12.125 12.02734375 C9.42456974 10.72180486 7.96854716 10.49317488 5 11 C3.35 12.32 1.7 13.64 0 15 C0 10.05 0 5.1 0 0 Z " fill="#8BB1DC" transform="translate(118,382)"/>
<path d="M0 0 C3.93313346 1.31104449 5.36757006 3.82495822 7.6875 7.0625 C8.10322266 7.63033203 8.51894531 8.19816406 8.94726562 8.78320312 C9.97140082 10.18403173 10.98657535 11.59140348 12 13 C10.70642578 14.48306641 10.70642578 14.48306641 9.38671875 15.99609375 C6.03787627 19.90422137 2.91354857 23.95673258 -0.1875 28.0625 C-6.04479421 35.77277656 -11.99398042 43.40521371 -18 51 C-17.34 51.33 -16.68 51.66 -16 52 C-20.84455959 53.49740933 -20.84455959 53.49740933 -24 53 C-27.43869976 50.37196444 -30.21799195 47.30363456 -33 44 C-31.44223081 38.93725012 -28.34831393 35.47896166 -25 31.5 C-23.81762707 30.07145634 -22.63665362 28.64175328 -21.45703125 27.2109375 C-20.87131348 26.50163086 -20.2855957 25.79232422 -19.68212891 25.06152344 C-17.28915031 22.12882223 -14.97981025 19.1366716 -12.6875 16.125 C-8.53750759 10.68450258 -4.30077351 5.32190688 0 0 Z " fill="#0180F8" transform="translate(154,276)"/>
<path d="M0 0 C4.65591602 2.9089981 7.95193019 5.43742354 9.58203125 10.87109375 C10.28757744 17.12021715 9.31242567 21.72611552 5.58203125 26.87109375 C0.31623343 31.06223896 -3.71679803 32.32541041 -10.41796875 31.87109375 C-16.09346428 29.82791536 -19.71670596 26.27361934 -22.41796875 20.87109375 C-22.94182635 15.6153421 -23.08302247 11.2258328 -20.73046875 6.43359375 C-15.07098439 0.16227324 -8.32997671 -3.88911675 0 0 Z " fill="#FB9701" transform="translate(102.41796875,197.12890625)"/>
<path d="M0 0 C1.75507396 2.0049489 3.31832789 3.97464213 4.875 6.125 C5.72531788 7.27435934 6.57687774 8.42280089 7.4296875 9.5703125 C8.05762207 10.41964355 8.05762207 10.41964355 8.69824219 11.28613281 C10.70995698 13.93471456 12.84909115 16.46362362 15 19 C13.59023295 22.03852705 11.91129772 24.5939595 9.875 27.25 C9.33617187 27.95640625 8.79734375 28.6628125 8.2421875 29.390625 C7.83226562 29.92171875 7.42234375 30.4528125 7 31 C3.14444648 29.48377109 1.3050235 27.187601 -1.1875 23.9375 C-1.88230469 23.03902344 -2.57710937 22.14054687 -3.29296875 21.21484375 C-3.85628906 20.48394531 -4.41960937 19.75304687 -5 19 C-6.15140868 17.64145975 -6.15140868 17.64145975 -9.25 17.625 C-14.48516859 18.14851686 -16.16267576 20.81206484 -19.45849609 24.73681641 C-21.01282507 26.64301218 -22.54123944 28.56732935 -24.0625 30.5 C-24.57876953 31.15097656 -25.09503906 31.80195313 -25.62695312 32.47265625 C-26.13291016 33.11074219 -26.63886719 33.74882812 -27.16015625 34.40625 C-27.64629395 35.01855469 -28.13243164 35.63085938 -28.63330078 36.26171875 C-29.85578489 37.81657528 -31.05272927 39.39143346 -32.24609375 40.96875 C-32.82488281 41.6390625 -33.40367187 42.309375 -34 43 C-34.66 43 -35.32 43 -36 43 C-35.55852962 38.18797285 -33.24700956 35.51610683 -30.125 32.0625 C-29.12153936 30.91594809 -28.12030706 29.76744282 -27.12109375 28.6171875 C-26.60530762 28.02518555 -26.08952148 27.43318359 -25.55810547 26.82324219 C-23.01408941 23.84632085 -20.59714277 20.77351176 -18.1875 17.6875 C-17.72674072 17.09936523 -17.26598145 16.51123047 -16.79125977 15.90527344 C-13.88455372 12.17870019 -11.04598823 8.40984542 -8.31640625 4.55078125 C-5.76740431 1.54795107 -4.00265343 0 0 0 Z " fill="#F9F9F9" transform="translate(212,235)"/>
<path d="M0 0 C0.66 0.66 1.32 1.32 2 2 C1.05125 2.165 0.1025 2.33 -0.875 2.5 C-4.37764351 3.73944511 -4.37764351 3.73944511 -5.375 7.625 C-7.04030428 17.15328739 -5.406137 24.49423987 -1 33 C-6.26188885 33.31571333 -9.55464669 32.89914347 -14 30 C-18.14609785 25.80920029 -20.15930891 22.65188834 -20.3125 16.75 C-20.25927779 11.66062631 -19.49801724 8.87618126 -16 5 C-10.68898923 0.20713662 -6.91616498 -0.32934119 0 0 Z " fill="#F48400" transform="translate(100,196)"/>
<path d="M0 0 C6.27 0 12.54 0 19 0 C19 6.6 19 13.2 19 20 C12.73 20 6.46 20 0 20 C0 13.4 0 6.8 0 0 Z " fill="#C2DFFC" transform="translate(363,441)"/>
<path d="M0 0 C6.27 0 12.54 0 19 0 C19 6.6 19 13.2 19 20 C12.73 20 6.46 20 0 20 C0 13.4 0 6.8 0 0 Z " fill="#FCFCFC" transform="translate(328,441)"/>
<path d="M0 0 C6.27 0 12.54 0 19 0 C19 6.6 19 13.2 19 20 C12.73 20 6.46 20 0 20 C0 13.4 0 6.8 0 0 Z " fill="#F88601" transform="translate(293,441)"/>
<path d="M0 0 C6.27 0 12.54 0 19 0 C19 6.6 19 13.2 19 20 C12.73 20 6.46 20 0 20 C0 13.4 0 6.8 0 0 Z " fill="#FB9701" transform="translate(258,441)"/>
<path d="M0 0 C6.27 0 12.54 0 19 0 C19 6.6 19 13.2 19 20 C12.73 20 6.46 20 0 20 C0 13.4 0 6.8 0 0 Z " fill="#F7C400" transform="translate(223,441)"/>
<path d="M0 0 C6.27 0 12.54 0 19 0 C19 6.6 19 13.2 19 20 C12.73 20 6.46 20 0 20 C0 13.4 0 6.8 0 0 Z " fill="#FBD102" transform="translate(188,441)"/>
<path d="M0 0 C6.27 0 12.54 0 19 0 C19 6.6 19 13.2 19 20 C12.73 20 6.46 20 0 20 C0 13.4 0 6.8 0 0 Z " fill="#0170F8" transform="translate(363,406)"/>
<path d="M0 0 C6.27 0 12.54 0 19 0 C19 6.6 19 13.2 19 20 C12.73 20 6.46 20 0 20 C0 13.4 0 6.8 0 0 Z " fill="#0180F9" transform="translate(328,406)"/>
<path d="M0 0 C6.27 0 12.54 0 19 0 C19 6.6 19 13.2 19 20 C12.73 20 6.46 20 0 20 C0 13.4 0 6.8 0 0 Z " fill="#45C98B" transform="translate(293,406)"/>
<path d="M0 0 C6.27 0 12.54 0 19 0 C19 6.6 19 13.2 19 20 C12.73 20 6.46 20 0 20 C0 13.4 0 6.8 0 0 Z " fill="#07B664" transform="translate(258,406)"/>
<path d="M0 0 C6.27 0 12.54 0 19 0 C19 6.6 19 13.2 19 20 C12.73 20 6.46 20 0 20 C0 13.4 0 6.8 0 0 Z " fill="#FA4654" transform="translate(223,406)"/>
<path d="M0 0 C6.27 0 12.54 0 19 0 C19 6.6 19 13.2 19 20 C12.73 20 6.46 20 0 20 C0 13.4 0 6.8 0 0 Z " fill="#FB636D" transform="translate(188,406)"/>
<path d="M0 0 C1.13888672 -0.02320313 1.13888672 -0.02320313 2.30078125 -0.046875 C6.03970241 -0.02068291 7.92550103 0.07630701 11 2.34375 C13.05203061 5.293544 13.08657977 6.98052138 12.5 10.5 C10.6329009 12.80275556 9.14352259 14.17823871 6.5 15.5 C4.37764193 15.6229938 2.25088537 15.67555682 0.125 15.6875 C-1.01710938 15.70167969 -2.15921875 15.71585937 -3.3359375 15.73046875 C-6.39128719 15.50791859 -8.00381082 15.21541768 -10.5 13.5 C-12.82749345 10.00875983 -13.00299316 8.60777749 -12.5 4.5 C-9.13608803 -0.36974691 -5.43719682 -0.11077481 0 0 Z " fill="#090706" transform="translate(84.5,261.5)"/>
<path d="M0 0 C1.13888672 -0.02320313 1.13888672 -0.02320313 2.30078125 -0.046875 C6.03970241 -0.02068291 7.92550103 0.07630701 11 2.34375 C13.05203061 5.293544 13.08657977 6.98052138 12.5 10.5 C10.6329009 12.80275556 9.14352259 14.17823871 6.5 15.5 C4.37764193 15.6229938 2.25088537 15.67555682 0.125 15.6875 C-1.01710938 15.70167969 -2.15921875 15.71585937 -3.3359375 15.73046875 C-6.39128719 15.50791859 -8.00381082 15.21541768 -10.5 13.5 C-12.82749345 10.00875983 -13.00299316 8.60777749 -12.5 4.5 C-9.13608803 -0.36974691 -5.43719682 -0.11077481 0 0 Z " fill="#090706" transform="translate(423.5,243.5)"/>
<path d="M0 0 C1.13888672 -0.02320313 1.13888672 -0.02320313 2.30078125 -0.046875 C6.03970241 -0.02068291 7.92550103 0.07630701 11 2.34375 C13.05203061 5.293544 13.08657977 6.98052138 12.5 10.5 C10.6329009 12.80275556 9.14352259 14.17823871 6.5 15.5 C4.37764193 15.6229938 2.25088537 15.67555682 0.125 15.6875 C-1.01710938 15.70167969 -2.15921875 15.71585938 -3.3359375 15.73046875 C-6.39128719 15.50791859 -8.00381082 15.21541768 -10.5 13.5 C-12.82749345 10.00875983 -13.00299316 8.60777749 -12.5 4.5 C-9.13608803 -0.36974691 -5.43719682 -0.11077481 0 0 Z " fill="#090706" transform="translate(390.5,196.5)"/>
<path d="M0 0 C10.23 0 20.46 0 31 0 C31 3.3 31 6.6 31 10 C21.1 10 11.2 10 1 10 C0.67 6.7 0.34 3.4 0 0 Z " fill="#E9F5FE" transform="translate(58,409)"/>
<path d="M0 0 C4.62455036 1.26124101 4.62455036 1.26124101 6.4375 3.9375 C6.7633438 6.68222033 6.90198502 9.13479377 6.875 11.875 C6.89498047 12.59107422 6.91496094 13.30714844 6.93554688 14.04492188 C6.93229399 17.55478846 6.71617116 19.56298017 4.59765625 22.41015625 C1.64877562 24.4951695 -0.02631993 24.52686334 -3.5625 23.9375 C-5.71875 22.40625 -5.71875 22.40625 -7.5625 19.9375 C-7.96350915 17.10684716 -8.12372899 14.75403341 -8.0625 11.9375 C-8.07796875 11.2259375 -8.0934375 10.514375 -8.109375 9.78125 C-8.08344291 6.30634988 -7.8073382 4.27646606 -5.75390625 1.43359375 C-3.5625 -0.0625 -3.5625 -0.0625 0 0 Z " fill="#020203" transform="translate(126.5625,451.0625)"/>
<path d="M0 0 C4.62455036 1.26124101 4.62455036 1.26124101 6.4375 3.9375 C6.7633438 6.68222033 6.90198502 9.13479377 6.875 11.875 C6.89498047 12.59107422 6.91496094 13.30714844 6.93554688 14.04492188 C6.93229399 17.55478846 6.71617116 19.56298017 4.59765625 22.41015625 C1.64877562 24.4951695 -0.02631993 24.52686334 -3.5625 23.9375 C-5.71875 22.40625 -5.71875 22.40625 -7.5625 19.9375 C-7.96350915 17.10684716 -8.12372899 14.75403341 -8.0625 11.9375 C-8.07796875 11.2259375 -8.0934375 10.514375 -8.109375 9.78125 C-8.08344291 6.30634988 -7.8073382 4.27646606 -5.75390625 1.43359375 C-3.5625 -0.0625 -3.5625 -0.0625 0 0 Z " fill="#020203" transform="translate(126.5625,392.0625)"/>
<path d="M0 0 C2.4375 1.625 2.4375 1.625 4 4 C4.5625 6.9375 4.5625 6.9375 4 10 C1.9375 12.9375 1.9375 12.9375 -1 15 C-4.85210127 15.06641554 -6.99848005 14.87229157 -9.9375 12.3125 C-11.33817538 9.26397123 -11.4842732 7.32073048 -11 4 C-8.05899778 -0.47032338 -5.13105401 -0.73300772 0 0 Z " fill="#06080A" transform="translate(86,92)"/>
<path d="M0 0 C2.4375 1.625 2.4375 1.625 4 4 C4.5625 6.9375 4.5625 6.9375 4 10 C1.9375 12.9375 1.9375 12.9375 -1 15 C-4.85210127 15.06641554 -6.99848005 14.87229157 -9.9375 12.3125 C-11.33817538 9.26397123 -11.4842732 7.32073048 -11 4 C-8.05899778 -0.47032338 -5.13105401 -0.73300772 0 0 Z " fill="#060709" transform="translate(64,92)"/>
<path d="M0 0 C2.4375 1.625 2.4375 1.625 4 4 C4.5625 6.9375 4.5625 6.9375 4 10 C1.9375 12.9375 1.9375 12.9375 -1 15 C-4.85210127 15.06641554 -6.99848005 14.87229157 -9.9375 12.3125 C-11.33817538 9.26397123 -11.4842732 7.32073048 -11 4 C-8.05899778 -0.47032338 -5.13105401 -0.73300772 0 0 Z " fill="#050709" transform="translate(42,92)"/>
<path d="M0 0 C0.33 0.99 0.66 1.98 1 3 C-0.49442246 5.10237388 -1.98084664 6.95884023 -3.6875 8.875 C-4.5876365 9.91371867 -5.48738049 10.95277763 -6.38671875 11.9921875 C-7.24910156 12.98476563 -8.11148438 13.97734375 -9 15 C-10.09248047 16.42699219 -10.09248047 16.42699219 -11.20703125 17.8828125 C-11.79871094 18.58148438 -12.39039063 19.28015625 -13 20 C-13.66 20 -14.32 20 -15 20 C-14.49753244 15.38567292 -12.7039147 12.95383223 -9.75 9.4375 C-8.59757813 8.04337891 -8.59757813 8.04337891 -7.421875 6.62109375 C-5.10515063 4.11380012 -2.7221151 2.05123921 0 0 Z " fill="#F2F3F3" transform="translate(191,258)"/>
</svg>
