<?xml version="1.0" encoding="UTF-8"?>
<svg version="1.1" xmlns="http://www.w3.org/2000/svg" width="512" height="512">
<path d="M0 0 C5.94 0 11.88 0 18 0 C18.03738281 2.67351563 18.07476562 5.34703125 18.11328125 8.1015625 C18.15954896 10.70304344 18.21076347 13.30438348 18.26245117 15.90576172 C18.29561773 17.70775729 18.32367525 19.50985467 18.34643555 21.31201172 C18.38013432 23.90896823 18.43245649 26.50499866 18.48828125 29.1015625 C18.49786613 30.30191635 18.49786613 30.30191635 18.50764465 31.52651978 C18.63443159 36.39667353 19.35090403 39.76448725 22 44 C26.59712744 48.35517336 30.92437422 50.25191813 37.24243164 50.23950195 C38.26442154 50.24323318 39.28641144 50.24696442 40.33937073 50.25080872 C41.43522995 50.24667465 42.53108917 50.24254059 43.66015625 50.23828125 C46.00456302 50.2537094 48.34896417 50.27001365 50.69335938 50.28710938 C54.37081378 50.30350582 58.04785414 50.31252831 61.7253418 50.30541992 C65.2874155 50.30278046 68.84824919 50.33106893 72.41015625 50.36328125 C73.49184586 50.35307449 74.57353546 50.34286774 75.68800354 50.33235168 C84.9628177 50.44950412 92.5167023 53.12392223 100.3125 58.125 C108.67816996 67.07432136 112.55652899 75.97672328 112.3203125 88.125 C111.09880391 99.08878442 105.48027607 107.20323948 97.30859375 114.234375 C91.15170101 118.9431999 84.51913696 120.11972285 76.89637756 120.13803101 C75.66970871 120.14348434 74.44303986 120.14893768 73.17919922 120.15455627 C71.82788091 120.15567589 70.47656255 120.15672644 69.12524414 120.15771484 C67.69583481 120.16238632 66.26642695 120.16753044 64.83702087 120.17311096 C61.7633942 120.18436866 58.68977708 120.19281393 55.61613655 120.19923019 C50.75393715 120.20993183 45.89180679 120.23018144 41.02964783 120.25234985 C27.20510005 120.31420466 13.38055708 120.36830103 -0.4440918 120.40136719 C-8.08279829 120.41971755 -15.72138835 120.4486552 -23.36000925 120.4893719 C-27.39998285 120.51042811 -31.43980987 120.52589727 -35.47984123 120.52817917 C-39.27943042 120.53032798 -43.07871399 120.54622076 -46.87821007 120.57256889 C-48.27053898 120.57975343 -49.66290496 120.58186694 -51.05524826 120.57846642 C-52.95998491 120.5745583 -54.86473078 120.590817 -56.76939392 120.60800171 C-57.83402328 120.61131186 -58.89865263 120.614622 -59.99554348 120.61803246 C-64.96438674 121.24973967 -68.19062542 123.24458372 -71.8125 126.625 C-74.71254412 130.40725819 -75.26999585 134.31189031 -75 139 C-73.33178897 144.88780365 -70.8389666 147.57239866 -66 151 C-63.05892858 151.98035714 -61.14160508 152.12973878 -58.07641602 152.1418457 C-56.5732357 152.15239738 -56.5732357 152.15239738 -55.03968811 152.16316223 C-53.41322609 152.16940865 -53.41322609 152.16940865 -51.75390625 152.17578125 C-49.44855877 152.19899816 -47.14322021 152.22311623 -44.83789062 152.24804688 C-41.21095974 152.28300819 -37.58435345 152.31241861 -33.95727539 152.32592773 C-30.45158486 152.34153419 -26.94684207 152.3818444 -23.44140625 152.42578125 C-21.84227135 152.42291862 -21.84227135 152.42291862 -20.21083069 152.41999817 C-8.66345215 152.60479098 0.57257863 155.49804662 8.87109375 163.63671875 C17.05340325 172.71983297 18.32823438 181.58733864 18.125 193.5 C18.11597656 194.51320312 18.10695313 195.52640625 18.09765625 196.5703125 C18.07429147 199.04697872 18.03842811 201.52352171 18 204 C23.61 204 29.22 204 35 204 C35 215.22 35 226.44 35 238 C39.14393311 237.98428955 39.14393311 237.98428955 43.37158203 237.96826172 C52.5875447 237.9348462 61.80351032 237.91292156 71.0195179 237.89637566 C76.5970294 237.88602031 82.17447788 237.87201552 87.75195312 237.84912109 C93.15311155 237.82709385 98.55421006 237.81536972 103.95541 237.81024551 C105.99705827 237.80660254 108.03870395 237.79949244 110.08032608 237.78853989 C120.70623193 237.73389959 131.23397086 237.94435061 141.82373047 238.87939453 C143.14260097 238.99438954 143.14260097 238.99438954 144.48811531 239.11170769 C171.29324417 241.73766702 195.98031554 254.31989405 216 272 C216.97453125 272.84175781 217.9490625 273.68351562 218.953125 274.55078125 C243.62323836 296.19464115 260.92937759 326.23105564 265 359 C265.9010894 376.85151322 265.96960418 394.71459777 261 412 C260.81808105 412.66016113 260.63616211 413.32032227 260.44873047 414.00048828 C251.02867049 447.46316784 227.87698094 477.01567047 197.8359375 494.46875 C167.01862319 511.69871963 128.46234743 518.03427698 94.08300781 508.59423828 C93.39561523 508.39813965 92.70822266 508.20204102 92 508 C91.33838867 507.81808105 90.67677734 507.63616211 89.99511719 507.44873047 C76.84563655 503.74609614 64.48295263 497.73513947 52.75 490.8125 C32.00219947 478.774527 8.55003036 475.89009789 -14.69140625 481.96484375 C-23.41075713 484.66520581 -31.11814046 488.50478325 -39.06884766 492.93847656 C-71.98066814 511.02957586 -110.22690478 518.49058999 -147 508 C-147.66161133 507.81808105 -148.32322266 507.63616211 -149.00488281 507.44873047 C-182.46531922 498.02693169 -212.01657611 474.87542211 -229.46875 444.8359375 C-241.08779884 424.05186307 -247.17623891 402.10335083 -247.24023438 378.25170898 C-247.24983701 376.09903754 -247.28087185 373.94736592 -247.3125 371.79492188 C-247.5548161 340.09125568 -233.90270423 308.76728466 -212 286 C-210.84766574 284.65136101 -209.70151891 283.29740342 -208.5625 281.9375 C-195.81424619 267.45478989 -179.4581312 256.89060025 -162 249 C-160.97519531 248.51917969 -159.95039063 248.03835937 -158.89453125 247.54296875 C-147.6373543 242.51445921 -136.10867769 239.98863743 -123.89404297 238.89892578 C-122.93991453 238.81371737 -121.98578609 238.72850895 -121.00274467 238.64071846 C-110.35715415 237.76416772 -99.74460588 237.74742385 -89.0703125 237.8046875 C-86.97183367 237.80843188 -84.87335305 237.81127208 -82.77487183 237.81326294 C-77.33352568 237.82078748 -71.89229157 237.84033543 -66.45098877 237.8626709 C-60.86577875 237.8833747 -55.28055008 237.89231632 -49.6953125 237.90234375 C-38.79681862 237.92359555 -27.89843629 237.95868193 -17 238 C-17 226.78 -17 215.56 -17 204 C-11.39 204 -5.78 204 0 204 C-0.08731537 200.79040748 -0.19424593 197.58347844 -0.3125 194.375 C-0.33505859 193.47136719 -0.35761719 192.56773437 -0.38085938 191.63671875 C-0.62201981 185.62963143 -1.31078116 181.01909635 -5.46484375 176.35546875 C-10.129171 172.65617472 -13.21489687 171.88119282 -19.05297852 171.8581543 C-20.05825089 171.85111984 -21.06352325 171.84408539 -22.09925842 171.83683777 C-23.7226841 171.83059135 -23.7226841 171.83059135 -25.37890625 171.82421875 C-27.68555588 171.80100852 -29.99219652 171.77689071 -32.29882812 171.75195312 C-35.92364414 171.71695085 -39.54813183 171.68755343 -43.1730957 171.67407227 C-46.67960229 171.65848992 -50.18515524 171.61820305 -53.69140625 171.57421875 C-55.2935775 171.57708138 -55.2935775 171.57708138 -56.92811584 171.58000183 C-68.37372639 171.39627561 -76.70012043 168.20805132 -84.90625 160.22265625 C-91.27488983 153.46191732 -94.05083165 145.86504023 -94.4375 136.625 C-94.05775241 126.26957525 -90.59256384 118.50826602 -83.3671875 111.12890625 C-73.63782273 102.37889998 -64.50155145 101.70312417 -51.80639648 101.72875977 C-50.36683865 101.72436793 -48.92728336 101.71906411 -47.48773193 101.71292114 C-44.39829901 101.70145768 -41.30893435 101.69596444 -38.21948051 101.69503975 C-33.3318907 101.69309295 -28.44444146 101.67500766 -23.55690002 101.65428162 C-11.4205003 101.60518241 0.71593735 101.57420006 12.85241699 101.55297852 C22.29245116 101.53644958 31.73236405 101.51363144 41.17231697 101.46995777 C46.02871679 101.44820262 50.88488604 101.44012146 55.74133122 101.44235051 C58.76375403 101.44068182 61.78602661 101.42662206 64.80839539 101.40913773 C66.20718225 101.40354693 67.60600036 101.40304498 69.00478935 101.40807533 C70.91816086 101.41423379 72.83156527 101.4002159 74.74488831 101.38526917 C76.3489974 101.38225217 76.3489974 101.38225217 77.98551273 101.37917423 C82.92903809 100.7573579 86.17035622 98.75589767 89.8125 95.4375 C92.90506012 91.39106582 93.37674353 86.98224092 93 82 C91.76540839 77.28757188 90.09545977 74.79462098 86.13208008 71.91967773 C81.08336866 69.11705518 75.93543097 69.45294206 70.29296875 69.49609375 C69.17239578 69.48667252 68.05182281 69.47725128 66.89729309 69.46754456 C63.32717499 69.43896076 59.75772307 69.43581309 56.1875 69.4375 C52.62808581 69.43388001 49.0691561 69.4241958 45.50984192 69.39674377 C43.30050195 69.38009765 41.09100323 69.37696609 38.88163757 69.38975525 C27.76498699 69.31456805 17.99619024 66.74769948 9.83203125 58.921875 C1.72754291 50.24165798 -0.16831638 42.38686079 -0.09765625 30.76171875 C-0.09553383 29.44056816 -0.09553383 29.44056816 -0.09336853 28.09272766 C-0.08778937 25.29094997 -0.07524071 22.48925338 -0.0625 19.6875 C-0.05748231 17.78320428 -0.05291987 15.87890731 -0.04882812 13.97460938 C-0.03867941 9.31635017 -0.01909995 4.65826545 0 0 Z " fill="#FED23E" transform="translate(247,0)"/>
<path d="M0 0 C5.94 0 11.88 0 18 0 C18.03738281 2.67351563 18.07476562 5.34703125 18.11328125 8.1015625 C18.15954896 10.70304344 18.21076347 13.30438348 18.26245117 15.90576172 C18.29561773 17.70775729 18.32367525 19.50985467 18.34643555 21.31201172 C18.38013432 23.90896823 18.43245649 26.50499866 18.48828125 29.1015625 C18.49786613 30.30191635 18.49786613 30.30191635 18.50764465 31.52651978 C18.63443159 36.39667353 19.35090403 39.76448725 22 44 C26.59712744 48.35517336 30.92437422 50.25191813 37.24243164 50.23950195 C38.26442154 50.24323318 39.28641144 50.24696442 40.33937073 50.25080872 C41.43522995 50.24667465 42.53108917 50.24254059 43.66015625 50.23828125 C46.00456302 50.2537094 48.34896417 50.27001365 50.69335938 50.28710938 C54.37081378 50.30350582 58.04785414 50.31252831 61.7253418 50.30541992 C65.2874155 50.30278046 68.84824919 50.33106893 72.41015625 50.36328125 C73.49184586 50.35307449 74.57353546 50.34286774 75.68800354 50.33235168 C84.9628177 50.44950412 92.5167023 53.12392223 100.3125 58.125 C108.67816996 67.07432136 112.55652899 75.97672328 112.3203125 88.125 C111.09880391 99.08878442 105.48027607 107.20323948 97.30859375 114.234375 C91.15170101 118.9431999 84.51913696 120.11972285 76.89637756 120.13803101 C75.66970871 120.14348434 74.44303986 120.14893768 73.17919922 120.15455627 C71.82788091 120.15567589 70.47656255 120.15672644 69.12524414 120.15771484 C67.69583481 120.16238632 66.26642695 120.16753044 64.83702087 120.17311096 C61.7633942 120.18436866 58.68977708 120.19281393 55.61613655 120.19923019 C50.75393715 120.20993183 45.89180679 120.23018144 41.02964783 120.25234985 C27.20510005 120.31420466 13.38055708 120.36830103 -0.4440918 120.40136719 C-8.08279829 120.41971755 -15.72138835 120.4486552 -23.36000925 120.4893719 C-27.39998285 120.51042811 -31.43980987 120.52589727 -35.47984123 120.52817917 C-39.27943042 120.53032798 -43.07871399 120.54622076 -46.87821007 120.57256889 C-48.27053898 120.57975343 -49.66290496 120.58186694 -51.05524826 120.57846642 C-52.95998491 120.5745583 -54.86473078 120.590817 -56.76939392 120.60800171 C-57.83402328 120.61131186 -58.89865263 120.614622 -59.99554348 120.61803246 C-64.96438674 121.24973967 -68.19062542 123.24458372 -71.8125 126.625 C-74.71254412 130.40725819 -75.26999585 134.31189031 -75 139 C-73.33178897 144.88780365 -70.8389666 147.57239866 -66 151 C-63.05892858 151.98035714 -61.14160508 152.12973878 -58.07641602 152.1418457 C-56.5732357 152.15239738 -56.5732357 152.15239738 -55.03968811 152.16316223 C-53.41322609 152.16940865 -53.41322609 152.16940865 -51.75390625 152.17578125 C-49.44855877 152.19899816 -47.14322021 152.22311623 -44.83789062 152.24804688 C-41.21095974 152.28300819 -37.58435345 152.31241861 -33.95727539 152.32592773 C-30.45158486 152.34153419 -26.94684207 152.3818444 -23.44140625 152.42578125 C-21.84227135 152.42291862 -21.84227135 152.42291862 -20.21083069 152.41999817 C-8.66345215 152.60479098 0.57257863 155.49804662 8.87109375 163.63671875 C17.05340325 172.71983297 18.32823438 181.58733864 18.125 193.5 C18.11597656 194.51320312 18.10695313 195.52640625 18.09765625 196.5703125 C18.07429147 199.04697872 18.03842811 201.52352171 18 204 C23.61 204 29.22 204 35 204 C35 215.22 35 226.44 35 238 C39.14393311 237.98428955 39.14393311 237.98428955 43.37158203 237.96826172 C52.5875447 237.9348462 61.80351032 237.91292156 71.0195179 237.89637566 C76.5970294 237.88602031 82.17447788 237.87201552 87.75195312 237.84912109 C93.15311155 237.82709385 98.55421006 237.81536972 103.95541 237.81024551 C105.99705827 237.80660254 108.03870395 237.79949244 110.08032608 237.78853989 C120.70623193 237.73389959 131.23397086 237.94435061 141.82373047 238.87939453 C143.14260097 238.99438954 143.14260097 238.99438954 144.48811531 239.11170769 C171.29324417 241.73766702 195.98031554 254.31989405 216 272 C216.97453125 272.84175781 217.9490625 273.68351562 218.953125 274.55078125 C243.62323836 296.19464115 260.92937759 326.23105564 265 359 C265.9010894 376.85151322 265.96960418 394.71459777 261 412 C260.81808105 412.66016113 260.63616211 413.32032227 260.44873047 414.00048828 C251.02867049 447.46316784 227.87698094 477.01567047 197.8359375 494.46875 C167.01862319 511.69871963 128.46234743 518.03427698 94.08300781 508.59423828 C93.39561523 508.39813965 92.70822266 508.20204102 92 508 C91.33838867 507.81808105 90.67677734 507.63616211 89.99511719 507.44873047 C76.84563655 503.74609614 64.48295263 497.73513947 52.75 490.8125 C32.00219947 478.774527 8.55003036 475.89009789 -14.69140625 481.96484375 C-23.41075713 484.66520581 -31.11814046 488.50478325 -39.06884766 492.93847656 C-71.98066814 511.02957586 -110.22690478 518.49058999 -147 508 C-147.66161133 507.81808105 -148.32322266 507.63616211 -149.00488281 507.44873047 C-182.46531922 498.02693169 -212.01657611 474.87542211 -229.46875 444.8359375 C-241.08779884 424.05186307 -247.17623891 402.10335083 -247.24023438 378.25170898 C-247.24983701 376.09903754 -247.28087185 373.94736592 -247.3125 371.79492188 C-247.5548161 340.09125568 -233.90270423 308.76728466 -212 286 C-210.84766574 284.65136101 -209.70151891 283.29740342 -208.5625 281.9375 C-195.81424619 267.45478989 -179.4581312 256.89060025 -162 249 C-160.97519531 248.51917969 -159.95039063 248.03835937 -158.89453125 247.54296875 C-147.6373543 242.51445921 -136.10867769 239.98863743 -123.89404297 238.89892578 C-122.93991453 238.81371737 -121.98578609 238.72850895 -121.00274467 238.64071846 C-110.35715415 237.76416772 -99.74460588 237.74742385 -89.0703125 237.8046875 C-86.97183367 237.80843188 -84.87335305 237.81127208 -82.77487183 237.81326294 C-77.33352568 237.82078748 -71.89229157 237.84033543 -66.45098877 237.8626709 C-60.86577875 237.8833747 -55.28055008 237.89231632 -49.6953125 237.90234375 C-38.79681862 237.92359555 -27.89843629 237.95868193 -17 238 C-17 226.78 -17 215.56 -17 204 C-11.39 204 -5.78 204 0 204 C-0.08731537 200.79040748 -0.19424593 197.58347844 -0.3125 194.375 C-0.33505859 193.47136719 -0.35761719 192.56773437 -0.38085938 191.63671875 C-0.62201981 185.62963143 -1.31078116 181.01909635 -5.46484375 176.35546875 C-10.129171 172.65617472 -13.21489687 171.88119282 -19.05297852 171.8581543 C-20.05825089 171.85111984 -21.06352325 171.84408539 -22.09925842 171.83683777 C-23.7226841 171.83059135 -23.7226841 171.83059135 -25.37890625 171.82421875 C-27.68555588 171.80100852 -29.99219652 171.77689071 -32.29882812 171.75195312 C-35.92364414 171.71695085 -39.54813183 171.68755343 -43.1730957 171.67407227 C-46.67960229 171.65848992 -50.18515524 171.61820305 -53.69140625 171.57421875 C-55.2935775 171.57708138 -55.2935775 171.57708138 -56.92811584 171.58000183 C-68.37372639 171.39627561 -76.70012043 168.20805132 -84.90625 160.22265625 C-91.27488983 153.46191732 -94.05083165 145.86504023 -94.4375 136.625 C-94.05775241 126.26957525 -90.59256384 118.50826602 -83.3671875 111.12890625 C-73.63782273 102.37889998 -64.50155145 101.70312417 -51.80639648 101.72875977 C-50.36683865 101.72436793 -48.92728336 101.71906411 -47.48773193 101.71292114 C-44.39829901 101.70145768 -41.30893435 101.69596444 -38.21948051 101.69503975 C-33.3318907 101.69309295 -28.44444146 101.67500766 -23.55690002 101.65428162 C-11.4205003 101.60518241 0.71593735 101.57420006 12.85241699 101.55297852 C22.29245116 101.53644958 31.73236405 101.51363144 41.17231697 101.46995777 C46.02871679 101.44820262 50.88488604 101.44012146 55.74133122 101.44235051 C58.76375403 101.44068182 61.78602661 101.42662206 64.80839539 101.40913773 C66.20718225 101.40354693 67.60600036 101.40304498 69.00478935 101.40807533 C70.91816086 101.41423379 72.83156527 101.4002159 74.74488831 101.38526917 C76.3489974 101.38225217 76.3489974 101.38225217 77.98551273 101.37917423 C82.92903809 100.7573579 86.17035622 98.75589767 89.8125 95.4375 C92.90506012 91.39106582 93.37674353 86.98224092 93 82 C91.76540839 77.28757188 90.09545977 74.79462098 86.13208008 71.91967773 C81.08336866 69.11705518 75.93543097 69.45294206 70.29296875 69.49609375 C69.17239578 69.48667252 68.05182281 69.47725128 66.89729309 69.46754456 C63.32717499 69.43896076 59.75772307 69.43581309 56.1875 69.4375 C52.62808581 69.43388001 49.0691561 69.4241958 45.50984192 69.39674377 C43.30050195 69.38009765 41.09100323 69.37696609 38.88163757 69.38975525 C27.76498699 69.31456805 17.99619024 66.74769948 9.83203125 58.921875 C1.72754291 50.24165798 -0.16831638 42.38686079 -0.09765625 30.76171875 C-0.09553383 29.44056816 -0.09553383 29.44056816 -0.09336853 28.09272766 C-0.08778937 25.29094997 -0.07524071 22.48925338 -0.0625 19.6875 C-0.05748231 17.78320428 -0.05291987 15.87890731 -0.04882812 13.97460938 C-0.03867941 9.31635017 -0.01909995 4.65826545 0 0 Z M-192 291 C-192.81082031 291.74636719 -193.62164062 292.49273437 -194.45703125 293.26171875 C-214.38240999 312.24574101 -229.17819197 339.7466476 -230.3359375 367.5859375 C-230.54641191 381.15048998 -229.34615954 393.84699755 -226 407 C-225.82871582 407.67820801 -225.65743164 408.35641602 -225.48095703 409.05517578 C-217.47453167 439.25808874 -196.14386703 464.01693216 -169.59375 479.62890625 C-158.5317045 485.89033215 -147.31849039 489.96365245 -135 493 C-133.98292969 493.26554688 -132.96585937 493.53109375 -131.91796875 493.8046875 C-102.23786725 500.14918943 -73.05059188 491.43918086 -47.27978516 477.24609375 C-29.52698935 467.54270226 -13.19929226 461.57761982 7.3125 461.75 C9.106875 461.76341431 9.106875 461.76341431 10.9375 461.77709961 C32.41811827 462.05966227 49.06745466 467.80899527 67.51391602 478.65014648 C94.86015254 494.71272941 127.20215764 499.39655881 157.96191406 491.49609375 C179.33368668 485.81379084 197.12802572 475.28328479 213 460 C213.70769531 459.36707031 214.41539062 458.73414063 215.14453125 458.08203125 C235.63296465 439.17926072 246.82252091 409.12685617 248.10498047 381.75976562 C248.43784686 371.9929283 247.9776459 362.60034433 246 353 C245.81695312 352.04222656 245.63390625 351.08445312 245.4453125 350.09765625 C241.07316993 329.99119812 229.83404172 311.93528098 216 297 C215.47277344 296.42362793 214.94554687 295.84725586 214.40234375 295.25341797 C205.86338052 286.01044447 196.73767668 278.55616483 186 272 C185.07018311 271.43176514 185.07018311 271.43176514 184.12158203 270.85205078 C177.07451385 266.63805016 169.81475192 263.32765833 162.0625 260.625 C161.39621582 260.38612061 160.72993164 260.14724121 160.04345703 259.90112305 C144.52924475 254.84738943 127.66000623 255.70699706 111.5703125 255.7253418 C109.03236746 255.72098712 106.49442374 255.71580147 103.95648193 255.70985413 C97.81443086 255.69791484 91.67244016 255.69530243 85.53037977 255.69765439 C80.53280116 255.69944692 75.53523573 255.69766803 70.53765869 255.69342995 C69.46544892 255.69253716 69.46544892 255.69253716 68.37157834 255.69162634 C66.91887458 255.69041444 65.46617083 255.6892003 64.01346707 255.68798397 C50.43289854 255.67714234 36.85235493 255.67925525 23.27178502 255.68536881 C10.88078214 255.69053878 -1.51014214 255.67927439 -13.90112948 255.66027059 C-26.66634077 255.6408449 -39.43151496 255.63264422 -52.1967411 255.63639385 C-59.34666154 255.63829824 -66.49651506 255.63589287 -73.64642334 255.62167931 C-80.37053871 255.60844571 -87.09447198 255.61108932 -93.81859589 255.62409019 C-96.27587692 255.62644506 -98.73316916 255.62376073 -101.19043732 255.61546707 C-137.52547574 255.50173947 -165.40747171 265.86342334 -192 291 Z " fill="#000000" transform="translate(247,0)"/>
<path d="M0 0 C3.67085257 3.28051305 6.01223513 7.04949505 8.375 11.3125 C8.7663916 12.01600586 9.1577832 12.71951172 9.56103516 13.44433594 C23.93768463 39.85958429 27.06340207 70.18909188 19 99.1875 C9.24085356 131.50295186 -11.8978872 156.71945956 -41.375 172.75 C-53.3083185 179.01332181 -65.76126399 182.54776855 -79 185 C-79.91652344 185.18691406 -80.83304687 185.37382812 -81.77734375 185.56640625 C-94.26892199 187.24709132 -107.69533064 186.4865094 -120 184 C-121.28132813 183.74347656 -122.56265625 183.48695313 -123.8828125 183.22265625 C-136.68428761 180.44923598 -147.67205482 174.88228769 -159.02685547 168.52685547 C-185.30858685 153.8608113 -215.17662108 147.38653913 -244.94921875 155.68359375 C-257.05761852 159.45895745 -267.89235225 165.50638813 -278.89453125 171.70703125 C-289.51360275 177.66747542 -300.22756767 181.10380799 -312 184 C-312.98355469 184.25007812 -313.96710938 184.50015625 -314.98046875 184.7578125 C-341.91601673 190.40751385 -369.33063446 183.81920653 -393.25 171.375 C-394.32350708 170.81679565 -394.32350708 170.81679565 -395.41870117 170.24731445 C-399.16714298 168.22262507 -402.15119986 166.24528263 -405 163 C-400.43010342 161.3296056 -395.92405107 160.38205768 -391.12890625 159.66796875 C-389.58110389 159.42720873 -388.03333498 159.18623358 -386.4855957 158.94506836 C-385.68191559 158.82163055 -384.87823547 158.69819275 -384.05020142 158.5710144 C-371.7852339 156.68019596 -359.57922678 154.70436657 -347.48477173 151.89723206 C-341.73145824 150.57487911 -335.96775822 149.40428302 -330.16279602 148.33255005 C-316.54590303 145.81388128 -303.09704329 142.78514561 -289.65795898 139.453125 C-286.30487097 138.62311153 -282.94859496 137.80705091 -279.59179688 136.9921875 C-266.96564026 133.89972553 -254.50437013 130.46498076 -242.10107422 126.57299805 C-237.03692851 124.98891927 -231.93330815 123.57539476 -226.8125 122.1875 C-214.72024992 118.82033857 -202.97763786 114.46601594 -191.19287109 110.16455078 C-186.82253581 108.57053799 -182.44515843 106.9972628 -178.0625 105.4375 C-177.4015332 105.19837891 -176.74056641 104.95925781 -176.05957031 104.71289062 C-172.73145392 103.52743715 -169.48535994 102.58860917 -166 102 C-166 101.01 -166 100.02 -166 99 C-167.423125 98.7834375 -167.423125 98.7834375 -168.875 98.5625 C-176.79683408 96.29221828 -183.05018728 88.82541306 -187.0625 81.921875 C-187.371875 81.28765625 -187.68125 80.6534375 -188 80 C-188.3609375 79.26394531 -188.721875 78.52789062 -189.09375 77.76953125 C-191.8470969 69.35520817 -191.13047861 59.15095831 -187.3125 51.25 C-184.9699649 47.24202619 -182.63519347 43.94277567 -179 41 C-178.41476562 40.49984375 -177.82953125 39.9996875 -177.2265625 39.484375 C-170.44480285 33.96246793 -163.47215349 31.33769902 -154.67578125 31.65234375 C-144.0765085 33.02947554 -135.46422547 37.46578151 -128.75 45.75 C-122.8638286 54.25760839 -120.53535095 62.65062037 -122 73 C-123.34879035 77.17704971 -125.02412212 81.08352778 -127 85 C-115.23299314 79.52894499 -103.57457632 73.91730724 -92.1875 67.6875 C-91.31270996 67.20893555 -90.43791992 66.73037109 -89.53662109 66.23730469 C-84.30028595 63.3425666 -79.18310834 60.30511761 -74.12231445 57.11254883 C-72 56 -72 56 -69 56 C-68.938125 55.01 -68.938125 55.01 -68.875 54 C-66.83244557 46.99695623 -60.99274859 40.99119439 -55 37 C-50.88240227 34.88749334 -46.75215968 33.30377248 -42.18359375 32.51171875 C-32.72951148 30.86260453 -27.38740753 25.90574502 -20.61474609 19.51611328 C-18.35387214 17.39333928 -16.01655972 15.35990599 -13.6875 13.3125 C-8.96316295 9.03474208 -4.45710309 4.55399663 0 0 Z " fill="#FDAA3D" transform="translate(472,309)"/>
<path d="M0 0 C1.26438904 -0.00717545 1.26438904 -0.00717545 2.55432129 -0.01449585 C4.32936478 -0.01788522 6.10447152 -0.00875028 7.87939453 0.01220703 C10.58638543 0.03898964 13.28923081 0.01242989 15.99609375 -0.01953125 C17.72657159 -0.01622698 19.45704687 -0.00982037 21.1875 0 C21.99078735 -0.01012115 22.79407471 -0.02024231 23.6217041 -0.03067017 C27.4848983 0.04934014 30.38786346 0.4264658 33.61376953 2.65551758 C36.95247824 6.70581364 36.87542555 9.37415861 36.6796875 14.46484375 C36.67119781 15.30121872 36.66270813 16.13759369 36.65396118 16.99931335 C36.6204847 19.65973026 36.54522337 22.31706864 36.46875 24.9765625 C36.43864263 26.7844613 36.41126817 28.59240781 36.38671875 30.40039062 C36.32071313 34.82279317 36.21723713 39.24290671 36.09375 43.6640625 C37.18840576 43.64311523 38.28306152 43.62216797 39.41088867 43.60058594 C43.4828578 43.52803541 47.55477011 43.48220841 51.62719727 43.44433594 C53.38771175 43.42425464 55.14815982 43.39698371 56.90844727 43.36230469 C59.44303802 43.31363138 61.97674495 43.29105945 64.51171875 43.2734375 C65.29524216 43.25279236 66.07876556 43.23214722 66.8860321 43.21087646 C70.67442862 43.20933057 72.8427578 43.50375388 76.06762695 45.56347656 C79.79217303 49.42490498 79.28641844 53.10785742 79.33203125 58.21484375 C79.340103 59.06580124 79.34817474 59.91675873 79.35649109 60.79350281 C79.37033294 62.59660809 79.38105465 64.39973959 79.38891602 66.20288086 C79.40611789 68.95542317 79.45000049 71.70676088 79.49414062 74.45898438 C79.50426863 76.21092867 79.5127844 77.96288317 79.51953125 79.71484375 C79.53703934 80.53584061 79.55454742 81.35683746 79.57258606 82.20271301 C79.55739043 86.22280702 79.3992825 88.18256148 77.19213867 91.66088867 C73.35367576 95.32518049 69.85103607 94.79431626 64.8046875 94.76171875 C63.57705185 94.75959633 63.57705185 94.75959633 62.32461548 94.75743103 C59.70595675 94.7518254 57.08738296 94.73927198 54.46875 94.7265625 C52.69531373 94.72154822 50.92187613 94.71698519 49.1484375 94.71289062 C44.79684218 94.70185414 40.4453105 94.68458575 36.09375 94.6640625 C36.1251709 96.30604614 36.1251709 96.30604614 36.15722656 97.98120117 C36.22977709 102.0531703 36.27560409 106.12508261 36.31347656 110.19750977 C36.33355786 111.95802425 36.36082879 113.71847232 36.39550781 115.47875977 C36.44418112 118.01335052 36.46675305 120.54705745 36.484375 123.08203125 C36.51534271 124.25731636 36.51534271 124.25731636 36.54693604 125.4563446 C36.54848193 129.24474112 36.25405862 131.4130703 34.19433594 134.63793945 C30.33290752 138.36248553 26.64995508 137.85673094 21.54296875 137.90234375 C20.69201126 137.9104155 19.84105377 137.91848724 18.96430969 137.92680359 C17.16120441 137.94064544 15.35807291 137.95136715 13.55493164 137.95922852 C10.80238933 137.97643039 8.05105162 138.02031299 5.29882812 138.06445312 C3.54688383 138.07458113 1.79492933 138.0830969 0.04296875 138.08984375 C-0.77802811 138.10735184 -1.59902496 138.12485992 -2.44490051 138.14289856 C-6.46499452 138.12770293 -8.42474898 137.969595 -11.90307617 135.76245117 C-15.56736799 131.92398826 -15.03650376 128.42134857 -15.00390625 123.375 C-15.0024913 122.55657623 -15.00107635 121.73815247 -14.99961853 120.89492798 C-14.9940129 118.27626925 -14.98145948 115.65769546 -14.96875 113.0390625 C-14.96373572 111.26562623 -14.95917269 109.49218863 -14.95507812 107.71875 C-14.94404164 103.36715468 -14.92677325 99.015623 -14.90625 94.6640625 C-16.54823364 94.6954834 -16.54823364 94.6954834 -18.22338867 94.72753906 C-22.2953578 94.80008959 -26.36727011 94.84591659 -30.43969727 94.88378906 C-32.20021175 94.90387036 -33.96065982 94.93114129 -35.72094727 94.96582031 C-38.25553802 95.01449362 -40.78924495 95.03706555 -43.32421875 95.0546875 C-44.10774216 95.07533264 -44.89126556 95.09597778 -45.6985321 95.11724854 C-49.48692862 95.11879443 -51.6552578 94.82437112 -54.88012695 92.76464844 C-59.8642828 87.59731781 -58.21141434 78.98939483 -58.25634766 72.18017578 C-58.27288591 70.34313266 -58.30014795 68.50615332 -58.33837891 66.66943359 C-58.39330503 64.01626314 -58.4150463 61.36460087 -58.4296875 58.7109375 C-58.45235687 57.89510193 -58.47502625 57.07926636 -58.49838257 56.2387085 C-58.48398599 52.32945152 -58.18250507 49.403797 -55.92358398 46.13525391 C-51.86547062 42.81166596 -49.19402884 42.88246866 -44.10546875 43.078125 C-43.26909378 43.08661469 -42.43271881 43.09510437 -41.57099915 43.10385132 C-38.91058224 43.1373278 -36.25324386 43.21258913 -33.59375 43.2890625 C-31.7858512 43.31916987 -29.97790469 43.34654433 -28.16992188 43.37109375 C-23.74751933 43.43709937 -19.32740579 43.54057537 -14.90625 43.6640625 C-14.9376709 42.53911377 -14.9690918 41.41416504 -15.00146484 40.25512695 C-15.11026861 36.07150035 -15.1790195 31.88799805 -15.23583984 27.70336914 C-15.26596777 25.89423578 -15.30687963 24.08524796 -15.35888672 22.27661133 C-15.43188407 19.67232353 -15.46574398 17.06996973 -15.4921875 14.46484375 C-15.52315521 13.65944656 -15.55412292 12.85404938 -15.58602905 12.02424622 C-15.58861613 7.68332831 -15.28200099 6.11989824 -12.42626953 2.65551758 C-8.50503051 -0.05399863 -4.63789181 -0.0584359 0 0 Z " fill="#010100" transform="translate(125.90625,306.3359375)"/>
<path d="M0 0 C5.96904994 4.77977054 10.26708166 11.21140123 12.68359375 18.4609375 C13.46336954 30.43880498 13.27276281 40.24950087 5.24609375 49.8359375 C-1.78743842 57.22559788 -8.72480807 61.43560673 -19.12451172 62.03930664 C-29.04686826 62.26316326 -36.60763288 59.4684042 -44.25390625 52.9609375 C-44.93453125 52.1359375 -45.61515625 51.3109375 -46.31640625 50.4609375 C-47.18265625 49.5121875 -48.04890625 48.5634375 -48.94140625 47.5859375 C-54.49511301 40.27842861 -56.08678176 32.43438552 -55.31640625 23.4609375 C-53.40006747 13.1159561 -48.01336134 4.44123366 -39.31640625 -1.5390625 C-26.34895202 -9.12976742 -12.56973781 -8.35156273 0 0 Z " fill="#030301" transform="translate(396.31640625,296.5390625)"/>
<path d="M0 0 C2.92298574 1.97856385 5.19163577 3.88654271 7.41796875 6.63671875 C8.18560547 7.549375 8.18560547 7.549375 8.96875 8.48046875 C15.89519037 17.0765284 16.13004295 25.8866954 15.41796875 36.63671875 C14.11116851 44.71512023 9.4763116 51.18072734 3.3125 56.4296875 C-4.96701509 62.36456115 -14.42544999 65.07973029 -24.58203125 63.63671875 C-34.13707622 60.9907063 -42.17346374 56.17384318 -47.43359375 47.62890625 C-51.95081122 38.91560052 -54.21251136 30.62028116 -51.93359375 20.859375 C-48.76091191 11.19218633 -43.47480417 4.38553087 -34.98828125 -1.171875 C-23.71180845 -6.75519351 -10.72143638 -6.20714738 0 0 Z " fill="#030301" transform="translate(393.58203125,397.36328125)"/>
<path d="M0 0 C7.86448678 5.49313389 13.31627329 13.37571874 15.671875 22.6796875 C17.04719515 32.89818769 14.88142822 41.52883546 9.0625 50.03125 C4.19522834 55.99254143 -1.98498796 60.31828377 -9.328125 62.6796875 C-21.21607124 63.71551666 -31.22961409 63.1743045 -40.703125 55.2421875 C-47.98347305 48.32731877 -52.34797405 41.83009927 -52.90649414 31.58398438 C-53.12152403 21.36162097 -50.55423435 13.79550409 -43.953125 5.8046875 C-42.65375 4.7528125 -42.65375 4.7528125 -41.328125 3.6796875 C-40.74289062 3.17953125 -40.15765625 2.679375 -39.5546875 2.1640625 C-27.52062932 -7.63441966 -13.37630357 -7.58589028 0 0 Z " fill="#040200" transform="translate(334.328125,346.3203125)"/>
<path d="M0 0 C7.12698806 5.66919505 12.28397537 11.17450732 14.75 20.1875 C15.95134615 30.74670035 15.25768365 40.0660656 8.796875 48.83984375 C3.42677381 55.23326842 -2.80662906 60.67503529 -11.25 62.1875 C-21.22228958 62.91313438 -29.80953741 63.25167147 -38.25 57.1875 C-38.96542969 56.69121094 -39.68085938 56.19492187 -40.41796875 55.68359375 C-46.77483024 50.73406745 -51.83486727 43.22732004 -53.25 35.1875 C-54.05994002 24.56482506 -52.80461995 15.38625367 -45.90625 7 C-33.06286 -7.05503057 -16.42764116 -9.16156911 0 0 Z " fill="#030200" transform="translate(454.25,346.8125)"/>
<path d="M0 0 C5.61 0 11.22 0 17 0 C17.01417969 2.61292969 17.02835938 5.22585938 17.04296875 7.91796875 C17.07360791 10.45659186 17.11269156 12.99495476 17.15258789 15.53344727 C17.17574364 17.29376991 17.19015794 19.05423061 17.19555664 20.81469727 C17.20486442 23.34999379 17.24589048 25.88312628 17.29296875 28.41796875 C17.2890361 29.20149216 17.28510345 29.98501556 17.28105164 30.7922821 C17.38603618 34.7493734 17.74874873 36.62556718 20.0078125 39.9921875 C23.98682818 42.66217975 26.88842953 42.7305893 31.58203125 42.70703125 C32.39621017 42.72215256 33.2103891 42.73727386 34.04924011 42.75285339 C36.63727636 42.79567437 39.22414505 42.80456247 41.8125 42.8125 C43.57229654 42.83564883 45.33206541 42.86101498 47.09179688 42.88867188 C51.39516404 42.95562667 55.69529472 42.97663949 60 43 C60 48.61 60 54.22 60 60 C57.30328125 60.02578125 54.6065625 60.0515625 51.828125 60.078125 C49.21343593 60.11654891 46.59894383 60.1617079 43.984375 60.20751953 C42.16871561 60.2357271 40.35293348 60.25694274 38.53710938 60.27099609 C35.92514211 60.29242909 33.31465026 60.33907885 30.703125 60.390625 C29.89256653 60.39185364 29.08200806 60.39308228 28.24688721 60.39434814 C24.86300023 60.48208884 22.42596155 60.74601669 19.49414062 62.49414062 C17.33088855 66.122183 17.39685109 69.59564011 17.390625 73.703125 C17.37408875 74.54091492 17.35755249 75.37870483 17.34051514 76.24188232 C17.29202501 78.91132937 17.27066255 81.58020674 17.25 84.25 C17.22184107 86.06252868 17.19191375 87.8750308 17.16015625 89.6875 C17.08294244 94.12526224 17.04243572 98.56122419 17 103 C11.39 103 5.78 103 0 103 C-0.01417969 100.30328125 -0.02835938 97.6065625 -0.04296875 94.828125 C-0.07359169 92.21341462 -0.1126796 89.59895818 -0.15258789 86.984375 C-0.17577003 85.16871129 -0.19016414 83.35291307 -0.19555664 81.53710938 C-0.20484503 78.92492839 -0.24582937 76.3148635 -0.29296875 73.703125 C-0.2890361 72.89256653 -0.28510345 72.08200806 -0.28105164 71.24688721 C-0.37665199 67.54570009 -0.66583202 65.41705984 -3.0078125 62.49414062 C-6.97497754 60.51314764 -10.20189806 60.39749346 -14.58203125 60.390625 C-15.39621017 60.37408875 -16.2103891 60.35755249 -17.04924011 60.34051514 C-19.6370708 60.29212212 -22.22431426 60.27068432 -24.8125 60.25 C-26.57229503 60.22183292 -28.33206281 60.19190445 -30.09179688 60.16015625 C-34.39479903 60.08306333 -38.69596093 60.04246709 -43 60 C-43 54.39 -43 48.78 -43 43 C-40.38707031 42.98582031 -37.77414063 42.97164063 -35.08203125 42.95703125 C-32.54340814 42.92639209 -30.00504524 42.88730844 -27.46655273 42.84741211 C-25.70623009 42.82425636 -23.94576939 42.80984206 -22.18530273 42.80444336 C-19.65000621 42.79513558 -17.11687372 42.75410952 -14.58203125 42.70703125 C-13.79850784 42.7109639 -13.01498444 42.71489655 -12.2077179 42.71894836 C-8.2506266 42.61396382 -6.37443282 42.25125127 -3.0078125 39.9921875 C-0.33782025 36.01317182 -0.2694107 33.11157047 -0.29296875 28.41796875 C-0.27784744 27.60378983 -0.26272614 26.7896109 -0.24714661 25.95075989 C-0.20432563 23.36272364 -0.19543753 20.77585495 -0.1875 18.1875 C-0.16435117 16.42770346 -0.13898502 14.66793459 -0.11132812 12.90820312 C-0.04437333 8.60483596 -0.02336051 4.30470528 0 0 Z " fill="#373755" transform="translate(128,324)"/>
<path d="M0 0 C0 5.61 0 11.22 0 17 C-2.69671875 17.02578125 -5.3934375 17.0515625 -8.171875 17.078125 C-10.78656407 17.11654891 -13.40105617 17.1617079 -16.015625 17.20751953 C-17.83128439 17.2357271 -19.64706652 17.25694274 -21.46289062 17.27099609 C-24.07485789 17.29242909 -26.68534974 17.33907885 -29.296875 17.390625 C-30.10743347 17.39185364 -30.91799194 17.39308228 -31.75311279 17.39434814 C-35.13699977 17.48208884 -37.57403845 17.74601669 -40.50585938 19.49414062 C-42.66911145 23.122183 -42.60314891 26.59564011 -42.609375 30.703125 C-42.62591125 31.54091492 -42.64244751 32.37870483 -42.65948486 33.24188232 C-42.70797499 35.91132937 -42.72933745 38.58020674 -42.75 41.25 C-42.77815893 43.06252868 -42.80808625 44.8750308 -42.83984375 46.6875 C-42.91705756 51.12526224 -42.95756428 55.56122419 -43 60 C-48.61 60 -54.22 60 -60 60 C-60.01417969 57.30328125 -60.02835938 54.6065625 -60.04296875 51.828125 C-60.07359169 49.21341462 -60.1126796 46.59895818 -60.15258789 43.984375 C-60.17577003 42.16871129 -60.19016414 40.35291307 -60.19555664 38.53710938 C-60.20484503 35.92492839 -60.24582937 33.3148635 -60.29296875 30.703125 C-60.2890361 29.89256653 -60.28510345 29.08200806 -60.28105164 28.24688721 C-60.38011209 24.41174196 -60.63239226 22.41886388 -63.19921875 19.49414062 C-66.23524701 17.87450212 -68.100914 17.46701868 -71.51953125 17.390625 C-72.54111328 17.35839844 -73.56269531 17.32617188 -74.61523438 17.29296875 C-75.67033203 17.27878906 -76.72542969 17.26460938 -77.8125 17.25 C-78.88693359 17.22035156 -79.96136719 17.19070313 -81.06835938 17.16015625 C-83.71231427 17.08965079 -86.3553973 17.03685857 -89 17 C-89 16.67 -89 16.34 -89 16 C-87.8253418 15.87322876 -87.8253418 15.87322876 -86.62695312 15.74389648 C-66.5260142 13.50410272 -46.96999298 10.50822584 -28.375 2.0625 C-19.54100426 -1.6253618 -9.37662651 -0.37842887 0 0 Z " fill="#1F1F32" transform="translate(188,367)"/>
<path d="M0 0 C4.26123072 1.838805 7.53677009 4.20494286 10.046875 8.14453125 C11.83562225 12.76889626 11.6215037 17.4961857 10.89453125 22.3359375 C8.73515487 26.81464406 5.96500186 29.51791938 1.89453125 32.3359375 C-2.4559654 33.78610305 -6.5588106 33.84663857 -11.10546875 33.3359375 C-16.36005006 30.70864685 -19.48830515 27.10821796 -22.41796875 22.0859375 C-23.75664372 16.73123761 -22.91356347 12.01677451 -20.54296875 7.0859375 C-14.78202124 0.58640698 -8.56821699 -2.7024061 0 0 Z " fill="#8ECACA" transform="translate(381.10546875,307.6640625)"/>
<path d="M0 0 C5.01791684 2.41935276 8.49958655 5.9991731 11 11 C11.5238576 16.25575165 11.66505372 20.64526095 9.3125 25.4375 C5.91456392 29.20278052 2.61264873 32.7614198 -2.609375 33.23828125 C-7.36598031 33.35068859 -11.03304786 33.42194275 -15.4375 31.5 C-19.93734833 27.10990407 -23.24232271 22.90728944 -23.5625 16.4375 C-23.19404864 10.50133923 -20.7984732 6.62719004 -16.375 2.625 C-11.21052358 -0.90858913 -6.12345754 -0.57707977 0 0 Z " fill="#E73735" transform="translate(441,359)"/>
<path d="M0 0 C5.01791684 2.41935276 8.49958655 5.9991731 11 11 C11.72218508 18.13897709 11.44960235 23.26235486 7 29 C2.29150969 32.65148228 -1.69139594 34.48839691 -7.73828125 34.41015625 C-13.28960836 33.4034389 -17.65825739 29.70767241 -21.0625 25.375 C-22.84261145 18.96659879 -23.20621225 12.59799561 -20.375 6.5 C-14.14222121 -0.06081978 -8.86783276 -1.20592781 0 0 Z " fill="#8FCBCB" transform="translate(381,410)"/>
<path d="M0 0 C4.40620567 3.19449911 7.82796884 7.43295868 8.90625 12.85546875 C9.19997201 19.57435984 6.95164691 23.84680611 2.5 28.8125 C-1.94267652 32.22199593 -6.44007076 32.3264158 -11.87890625 32.1640625 C-16.90261426 31.49024175 -19.53121115 28.88602278 -22.8125 25.25 C-26.13670795 20.4483663 -26.12707429 15.46500066 -25.5 9.8125 C-23.875 6.5 -23.875 6.5 -21.5 3.8125 C-20.675 2.86375 -19.85 1.915 -19 0.9375 C-13.73257977 -3.22806191 -5.94343674 -2.01652318 0 0 Z " fill="#E83735" transform="translate(324.5,360.1875)"/>
<path d="M0 0 C5.28 0 10.56 0 16 0 C16 5.61 16 11.22 16 17 C10.72 17 5.44 17 0 17 C0 11.39 0 5.78 0 0 Z " fill="#864C1A" transform="translate(248,222)"/>
<path d="M0 0 C0.33 0 0.66 0 1 0 C0.81051318 4.34872256 0.57649033 7.9623174 -1.5625 11.8125 C-6.02166012 15.81431037 -10.41694551 18.23921444 -16.5 18.25 C-18.2325 18.12625 -18.2325 18.12625 -20 18 C-17.37778224 16.25185483 -15.0594659 15.16834253 -12.1875 13.9375 C-5.85154403 10.84362676 -3.06912403 6.13824806 0 0 Z " fill="#7CA9AE" transform="translate(391,426)"/>
<path d="M0 0 C0.33 0 0.66 0 1 0 C1.65008031 6.82584323 0.828518 10.58257421 -3.29296875 16.11328125 C-5.65510284 18.72406103 -7.63109914 19.96870382 -11 21 C-14.875 21.1875 -14.875 21.1875 -18 21 C-15 19 -15 19 -13.1328125 17.9921875 C-6.39914842 14.24544056 -3.36233219 9.63288583 -0.6875 2.5 C-0.460625 1.675 -0.23375 0.85 0 0 Z " fill="#CE2020" transform="translate(332,371)"/>
<path d="M0 0 C0.33 0 0.66 0 1 0 C1.62329486 9.73032529 1.62329486 9.73032529 -0.6875 14.4375 C-3.48347883 17.53574681 -6.24961469 20.12480734 -10 22 C-12.6723621 22.13415472 -15.32250488 22.04318541 -18 22 C-17.46375 21.7525 -16.9275 21.505 -16.375 21.25 C-9.70522698 17.73959315 -3.74002427 13.30673139 -1 6 C-0.61709538 4.00889599 -0.27395385 2.00899487 0 0 Z " fill="#CD2120" transform="translate(451,370)"/>
<path d="M0 0 C0.33 0 0.66 0 1 0 C1.42064893 6.09940955 1.08964656 9.13663653 -3 14 C-8.00274707 18.51467419 -11.33004882 19.12584814 -18 19 C-15 17 -15 17 -11.6875 15.3125 C-6.38501504 12.29053294 -2.88459755 8.21149387 -0.625 2.5625 C-0.315625 1.2940625 -0.315625 1.2940625 0 0 Z " fill="#80AFB4" transform="translate(391,322)"/>
<path d="M0 0 C0 2.64 0 5.28 0 8 C-3.63 8 -7.26 8 -11 8 C-9.33333333 6.66666667 -7.66666667 5.33333333 -6 4 C-5.0925 3.2575 -4.185 2.515 -3.25 1.75 C-1 0 -1 0 0 0 Z " fill="#6A3613" transform="translate(264,231)"/>
<path d="M0 0 C0.66 0.33 1.32 0.66 2 1 C1.01 2.485 1.01 2.485 0 4 C-1.9453125 4.29296875 -1.9453125 4.29296875 -4.125 4.1875 C-5.40375 4.125625 -6.6825 4.06375 -8 4 C-5.31143836 2.20762558 -3.0466145 1.01553817 0 0 Z " fill="#6B9295" transform="translate(379,440)"/>
<path d="M0 0 C0.33 0 0.66 0 1 0 C1 2.97 1 5.94 1 9 C-0.32 9.33 -1.64 9.66 -3 10 C-2.01 6.7 -1.02 3.4 0 0 Z " fill="#AE1C1C" transform="translate(332,371)"/>
</svg>
