<?xml version="1.0" encoding="UTF-8"?>
<svg version="1.1" xmlns="http://www.w3.org/2000/svg" width="512" height="512">
<path d="M0 0 C4.3134571 3.70731771 7.35494499 8.1301562 10.5 12.8125 C10.96019531 13.48603516 11.42039062 14.15957031 11.89453125 14.85351562 C13.27947516 16.89191899 14.64403797 18.94221693 16 21 C16.710354 22.07157349 16.710354 22.07157349 17.43505859 23.16479492 C18.1130249 24.21244019 18.1130249 24.21244019 18.8046875 25.28125 C19.21187012 25.90708984 19.61905273 26.53292969 20.03857422 27.17773438 C21.68766325 30.30338205 21.64452271 32.58402961 21 36 C17.35919267 40.16092267 13.14295069 43.19921833 8.625 46.3125 C7.52828979 47.07747803 7.52828979 47.07747803 6.40942383 47.85791016 C3.94290171 49.57671412 1.47141097 51.28823449 -1 53 C-2.84279886 54.28204778 -4.68523544 55.56461644 -6.52734375 56.84765625 C-10.42942318 59.5647606 -14.33327727 62.2792882 -18.23828125 64.9921875 C-23.50038348 68.6498086 -28.75221956 72.32187053 -34 76 C-42.13143616 81.69859375 -50.28023949 87.37188417 -58.43359375 93.0390625 C-64.63054102 97.34781242 -70.81899563 101.66841541 -77 106 C-85.04762703 111.63903735 -93.10746435 117.26029339 -101.17871094 122.86547852 C-106.28246537 126.41023187 -111.37898898 129.96475648 -116.46484375 133.53515625 C-117.51696045 134.2720166 -118.56907715 135.00887695 -119.65307617 135.76806641 C-121.68003997 137.18797972 -123.70502485 138.61072323 -125.7277832 140.03662109 C-126.6374585 140.67293457 -127.54713379 141.30924805 -128.484375 141.96484375 C-129.28584961 142.5280835 -130.08732422 143.09132324 -130.91308594 143.67163086 C-133 145 -133 145 -136 146 C-136 146.66 -136 147.32 -136 148 C-132.7 148.33 -129.4 148.66 -126 149 C-125.34 147.68 -124.68 146.36 -124 145 C-116.90310322 142.99435526 -111.39841131 145.02330061 -104.625 147.4375 C-103.57006348 147.80294922 -102.51512695 148.16839844 -101.42822266 148.54492188 C-79.18017125 156.39994926 -53.2434376 166.48448538 -41 188 C-40.64164062 188.62003906 -40.28328125 189.24007812 -39.9140625 189.87890625 C-36.59438826 196.92940705 -36.72363189 206.37889289 -38.76171875 213.7578125 C-39.70531904 215.95830329 -40.75388054 217.95774866 -42 220 C-42.5775 221.010625 -43.155 222.02125 -43.75 223.0625 C-63.1265927 248.35971825 -101.77626463 260.80951951 -132 266 C-130.73786958 269.78639125 -129.34654649 270.04104596 -126 272 C-123.57281103 275.64078345 -123.74657585 277.34059 -123.73930359 281.6781311 C-123.73547804 282.36038108 -123.73165249 283.04263106 -123.72771102 283.74555528 C-123.71737337 286.03699102 -123.72137464 288.32817652 -123.7253418 290.61962891 C-123.72099554 292.26062248 -123.71581268 293.90161403 -123.70985413 295.54260254 C-123.69643837 300.00571955 -123.69588869 304.46875199 -123.69841743 308.93188524 C-123.69948616 312.65918676 -123.69460586 316.38647109 -123.689812 320.11376894 C-123.67870627 328.91228476 -123.67828431 337.7107579 -123.68432617 346.50927734 C-123.69035733 355.57679987 -123.67807925 364.64416689 -123.6567561 373.71166289 C-123.63911566 381.50034467 -123.6331429 389.28897707 -123.63639385 397.07767808 C-123.63820417 401.72756509 -123.63559629 406.37734136 -123.62167931 411.02721024 C-123.60906713 415.40537787 -123.61107704 419.78330441 -123.62409019 424.16146851 C-123.62644879 425.7637986 -123.62374712 427.36614583 -123.61546707 428.96845627 C-123.55613308 441.34874399 -124.38014689 450.32786901 -133.30859375 459.5859375 C-152.02866302 476.37694303 -180.1147957 481.48083054 -204.125 485.25 C-205.56842773 485.47659302 -205.56842773 485.47659302 -207.04101562 485.70776367 C-225.9935652 488.47297684 -244.8651639 489.37791977 -264 489.3125 C-265.11318604 489.31067719 -266.22637207 489.30885437 -267.37329102 489.30697632 C-308.46721846 489.19406879 -363.92759331 487.7054041 -396.546875 458.73828125 C-405.62511517 449.24588779 -405.45966552 439.10383291 -405.33618164 426.73266602 C-405.31239559 424.17627882 -405.31565976 421.6209244 -405.32226562 419.06445312 C-405.31669379 417.43228547 -405.30958703 415.80012217 -405.30078125 414.16796875 C-405.30169266 413.40751755 -405.30260406 412.64706635 -405.30354309 411.86357117 C-405.21195172 405.02770028 -405.21195172 405.02770028 -403 402 C-400.375 400.75 -400.375 400.75 -398 400 C-397.67 397.03 -397.34 394.06 -397 391 C-397.763125 390.938125 -398.52625 390.87625 -399.3125 390.8125 C-402 390 -402 390 -403.64271545 388.11083984 C-405.63047475 383.55497803 -405.4261429 379.33468376 -405.40405273 374.4140625 C-405.41091599 373.34847107 -405.41777924 372.28287964 -405.42485046 371.18499756 C-405.44314263 367.66486261 -405.43927772 364.14517225 -405.43359375 360.625 C-405.43815403 358.17789566 -405.44345914 355.7307926 -405.44947815 353.28369141 C-405.45841377 348.15587154 -405.45598045 343.02820738 -405.44604492 337.90039062 C-405.43454864 331.32614245 -405.45477522 324.75243085 -405.48396206 318.17825317 C-405.50229805 313.12537213 -405.50203685 308.07262032 -405.49632454 303.01971436 C-405.49617104 300.59559374 -405.50223887 298.17146451 -405.51461601 295.74737549 C-405.52947628 292.3598857 -405.51888478 288.97339577 -405.50170898 285.5859375 C-405.51137695 284.58318787 -405.52104492 283.58043823 -405.53100586 282.54730225 C-405.48494959 278.21428647 -405.40721286 275.684436 -403.15614319 271.90087891 C-401 270 -401 270 -398 269 C-397.67 268.01 -397.34 267.02 -397 266 C-398.31871094 265.74089844 -398.31871094 265.74089844 -399.6640625 265.4765625 C-420.25000762 261.15408277 -441.74812122 254.58921731 -460 244 C-461.47146484 243.17628906 -461.47146484 243.17628906 -462.97265625 242.3359375 C-475.01469389 235.18862402 -487.18117093 224.92849709 -491 211 C-492.12865578 199.18848599 -490.56124914 190.54374882 -483.5625 181 C-463.50402078 157.48822948 -429.7289812 148.35667126 -401 141 C-399.85917969 140.70754395 -399.85917969 140.70754395 -398.6953125 140.40917969 C-383.70930971 136.65550179 -383.70930971 136.65550179 -377 138 C-375.23046875 139.3984375 -375.23046875 139.3984375 -374 141 C-374 141.66 -374 142.32 -374 143 C-371.36 142.67 -368.72 142.34 -366 142 C-371.77447435 131.12911458 -378.58900462 124.69012064 -390 120 C-394.35261659 118.75227704 -398.75000488 117.83008498 -403.1875 116.9375 C-420.29003934 113.47430854 -420.29003934 113.47430854 -425.4375 106.875 C-427.66006234 102.36223212 -427.86823885 97.90977543 -427 93 C-424.86307513 87.25886083 -421.83631205 84.49383084 -416.39013672 81.91943359 C-411.91801306 80.19910492 -407.25802283 79.38710203 -402.5625 78.5 C-389.00729422 75.92903226 -377.43369093 71.77244277 -369.1875 60.0625 C-365.46953864 53.79165273 -363.94433235 47.17260746 -362.45166016 40.12890625 C-361.6841725 36.51134283 -360.85140854 32.91108674 -360 29.3125 C-359.71125 28.02988281 -359.4225 26.74726562 -359.125 25.42578125 C-357.6287822 20.86959024 -355.48613257 18.12464086 -351.6875 15.25 C-346.693566 12.92724 -342.62573629 12.58990102 -337.375 14.125 C-333.2340905 15.7095317 -330.65134125 17.33491062 -328 21 C-325.72351586 26.28662193 -324.7714749 32.02007204 -323.57373047 37.62426758 C-320.43200668 52.22413109 -316.74546366 63.3822969 -303.62109375 72.06640625 C-297.20749028 75.79322989 -290.38457269 77.16525192 -283.1875 78.6875 C-280.61570554 79.24253832 -278.04807182 79.81215951 -275.48046875 80.38671875 C-273.79280396 80.74576294 -273.79280396 80.74576294 -272.07104492 81.11206055 C-266.36765063 82.76109823 -262.03889799 85.83387341 -259 91 C-257.54741522 96.53797949 -258.04857516 100.40574327 -259.72265625 105.82421875 C-262.37458765 110.341423 -265.73716388 112.56611668 -270.55859375 114.22265625 C-272.47865234 114.63837891 -272.47865234 114.63837891 -274.4375 115.0625 C-275.85436414 115.38716025 -277.27102628 115.7127031 -278.6875 116.0390625 C-279.40292969 116.19793945 -280.11835938 116.35681641 -280.85546875 116.52050781 C-299.92321265 120.76672201 -299.92321265 120.76672201 -314.3125 133.25 C-314.869375 134.1575 -315.42625 135.065 -316 136 C-312.37 136 -308.74 136 -305 136 C-304.67 134.35 -304.34 132.7 -304 131 C-302.4922451 128.9686347 -301.58082985 128.15805573 -299.13667297 127.49295044 C-292.97466628 126.99161446 -286.84963379 126.85475359 -280.66796875 126.8671875 C-279.59613846 126.86623077 -278.52430817 126.86527405 -277.41999817 126.86428833 C-275.15670717 126.86361064 -272.89341417 126.86543614 -270.63012695 126.86962891 C-267.23579309 126.87492465 -263.8415951 126.86970009 -260.44726562 126.86328125 C-253.96399783 126.85960912 -247.48259758 126.9077183 -241 127 C-240.00550842 127.01325317 -239.01101685 127.02650635 -237.98638916 127.04016113 C-235.21488112 127.08847871 -232.44617776 127.16674463 -229.67578125 127.2578125 C-228.45909004 127.27822098 -228.45909004 127.27822098 -227.21781921 127.29904175 C-223.53031427 127.4545972 -221.15742105 127.90704566 -217.95776367 129.79638672 C-216 132 -216 132 -216 136 C-214.06796111 136.22115549 -212.12803597 136.37349242 -210.1875 136.5 C-209.10855469 136.5928125 -208.02960938 136.685625 -206.91796875 136.78125 C-200.82709569 135.56671898 -196.82917681 131.75707414 -192 128 C-190.20837632 126.72402221 -188.40767831 125.46067942 -186.59765625 124.2109375 C-185.24897461 123.27507812 -185.24897461 123.27507812 -183.87304688 122.3203125 C-182.94556641 121.67835938 -182.01808594 121.03640625 -181.0625 120.375 C-179.0323776 118.96639727 -177.00243279 117.55753857 -174.97265625 116.1484375 C-173.46469482 115.10187988 -173.46469482 115.10187988 -171.92626953 114.03417969 C-167.60987745 111.03366418 -163.30440165 108.01767969 -159 105 C-147.04315485 96.62137623 -135.05229868 88.29175398 -123.06347656 79.95898438 C-112.21633658 72.41911966 -101.37608728 64.86987622 -90.55786133 57.28857422 C-83.23937141 52.16207826 -75.90350082 47.06075556 -68.56640625 41.9609375 C-62.36945864 37.65218735 -56.18105948 33.3315063 -50 29 C-42.61089218 23.82366914 -35.21527184 18.65677372 -27.8125 13.5 C-26.86826172 12.84128906 -25.92402344 12.18257812 -24.95117188 11.50390625 C-22.30552673 9.66231127 -19.65299325 7.83098533 -17 6 C-16.16678223 5.41371826 -15.33356445 4.82743652 -14.47509766 4.22338867 C-13.68796387 3.6791626 -12.90083008 3.13493652 -12.08984375 2.57421875 C-11.40140381 2.09299561 -10.71296387 1.61177246 -10.00366211 1.1159668 C-6.38235721 -0.9009681 -4.06883227 -0.74595258 0 0 Z " fill="#31304B" transform="translate(491,23)"/>
<path d="M0 0 C4.3134571 3.70731771 7.35494499 8.1301562 10.5 12.8125 C10.96019531 13.48603516 11.42039062 14.15957031 11.89453125 14.85351562 C13.27947516 16.89191899 14.64403797 18.94221693 16 21 C16.710354 22.07157349 16.710354 22.07157349 17.43505859 23.16479492 C18.1130249 24.21244019 18.1130249 24.21244019 18.8046875 25.28125 C19.21187012 25.90708984 19.61905273 26.53292969 20.03857422 27.17773438 C21.68766325 30.30338205 21.64452271 32.58402961 21 36 C17.35919267 40.16092267 13.14295069 43.19921833 8.625 46.3125 C7.52828979 47.07747803 7.52828979 47.07747803 6.40942383 47.85791016 C3.94290171 49.57671412 1.47141097 51.28823449 -1 53 C-2.84279886 54.28204778 -4.68523544 55.56461644 -6.52734375 56.84765625 C-10.42942318 59.5647606 -14.33327727 62.2792882 -18.23828125 64.9921875 C-23.50038348 68.6498086 -28.75221956 72.32187053 -34 76 C-42.13143616 81.69859375 -50.28023949 87.37188417 -58.43359375 93.0390625 C-64.63054102 97.34781242 -70.81899563 101.66841541 -77 106 C-85.04762703 111.63903735 -93.10746435 117.26029339 -101.17871094 122.86547852 C-106.28246537 126.41023187 -111.37898898 129.96475648 -116.46484375 133.53515625 C-117.51696045 134.2720166 -118.56907715 135.00887695 -119.65307617 135.76806641 C-121.68003997 137.18797972 -123.70502485 138.61072323 -125.7277832 140.03662109 C-126.6374585 140.67293457 -127.54713379 141.30924805 -128.484375 141.96484375 C-129.28584961 142.5280835 -130.08732422 143.09132324 -130.91308594 143.67163086 C-133 145 -133 145 -136 146 C-136 146.66 -136 147.32 -136 148 C-133.03 148.33 -130.06 148.66 -127 149 C-126.690625 150.2375 -126.38125 151.475 -126.0625 152.75 C-124.75655372 156.10310532 -123.72180023 157.61808578 -120.4375 159.125 C-118.64067182 159.79372246 -116.8244246 160.41071557 -115 161 C-112.18678461 161.91447673 -109.3743218 162.83124729 -106.5625 163.75 C-105.79147949 164.00096436 -105.02045898 164.25192871 -104.22607422 164.51049805 C-86.31530323 170.45199894 -65.31595602 178.89122933 -54.8125 195.5 C-52.51387424 200.22860156 -52.33273189 204.02411175 -54 209 C-62.18768232 226.7966227 -84.3009012 234.86531752 -101.375 241.25 C-112.11610525 245.15572201 -122.83821832 248.54484489 -134 251 C-134.92393555 251.20431641 -135.84787109 251.40863281 -136.79980469 251.61914062 C-144.17434232 253.22240628 -151.57379412 254.65756181 -159 256 C-159.98774414 256.17917969 -160.97548828 256.35835938 -161.99316406 256.54296875 C-169.96434268 257.94576962 -177.96337847 259.04730778 -186 260 C-186.76622681 260.09085876 -187.53245361 260.18171753 -188.32189941 260.27532959 C-213.40111803 263.19625022 -238.4126002 264.3775906 -263.64781189 264.37516785 C-265.64732948 264.37500331 -267.64684664 264.37771871 -269.6463623 264.38049316 C-293.8516393 264.37668167 -317.89932106 262.96038699 -341.9375 260.125 C-342.67005005 260.04007294 -343.4026001 259.95514587 -344.15734863 259.86764526 C-355.38044154 258.5579619 -366.48100681 256.92892265 -377.52783203 254.52978516 C-380.16834236 253.96392426 -382.81524518 253.43952864 -385.46484375 252.91796875 C-406.67020054 248.65175918 -427.64278542 242.79874889 -447 233 C-447.96583008 232.51297607 -447.96583008 232.51297607 -448.95117188 232.01611328 C-459.29527798 226.69848043 -470.33945093 220.14479125 -475 209 C-476.34940065 204.22008079 -476.44331533 200.34152706 -474.125 195.77734375 C-459.38241861 172.48611273 -423.4484676 162.14968143 -398.03710938 156.3203125 C-389.8696635 154.54364481 -389.8696635 154.54364481 -386.15722656 153.82373047 C-379.681504 152.50945089 -379.681504 152.50945089 -375 148 C-373.74563813 145.36777038 -373.74563813 145.36777038 -373 143 C-370.69 142.67 -368.38 142.34 -366 142 C-371.77447435 131.12911458 -378.58900462 124.69012064 -390 120 C-394.35261659 118.75227704 -398.75000488 117.83008498 -403.1875 116.9375 C-420.29003934 113.47430854 -420.29003934 113.47430854 -425.4375 106.875 C-427.66006234 102.36223212 -427.86823885 97.90977543 -427 93 C-424.86307513 87.25886083 -421.83631205 84.49383084 -416.39013672 81.91943359 C-411.91801306 80.19910492 -407.25802283 79.38710203 -402.5625 78.5 C-389.00729422 75.92903226 -377.43369093 71.77244277 -369.1875 60.0625 C-365.46953864 53.79165273 -363.94433235 47.17260746 -362.45166016 40.12890625 C-361.6841725 36.51134283 -360.85140854 32.91108674 -360 29.3125 C-359.71125 28.02988281 -359.4225 26.74726562 -359.125 25.42578125 C-357.6287822 20.86959024 -355.48613257 18.12464086 -351.6875 15.25 C-346.693566 12.92724 -342.62573629 12.58990102 -337.375 14.125 C-333.2340905 15.7095317 -330.65134125 17.33491062 -328 21 C-325.72351586 26.28662193 -324.7714749 32.02007204 -323.57373047 37.62426758 C-320.43200668 52.22413109 -316.74546366 63.3822969 -303.62109375 72.06640625 C-297.20749028 75.79322989 -290.38457269 77.16525192 -283.1875 78.6875 C-280.61570554 79.24253832 -278.04807182 79.81215951 -275.48046875 80.38671875 C-273.79280396 80.74576294 -273.79280396 80.74576294 -272.07104492 81.11206055 C-266.36765063 82.76109823 -262.03889799 85.83387341 -259 91 C-257.54741522 96.53797949 -258.04857516 100.40574327 -259.72265625 105.82421875 C-262.37458765 110.341423 -265.73716388 112.56611668 -270.55859375 114.22265625 C-272.47865234 114.63837891 -272.47865234 114.63837891 -274.4375 115.0625 C-275.85436414 115.38716025 -277.27102628 115.7127031 -278.6875 116.0390625 C-279.40292969 116.19793945 -280.11835938 116.35681641 -280.85546875 116.52050781 C-299.92321265 120.76672201 -299.92321265 120.76672201 -314.3125 133.25 C-314.869375 134.1575 -315.42625 135.065 -316 136 C-312.37 136 -308.74 136 -305 136 C-304.67 134.35 -304.34 132.7 -304 131 C-302.4922451 128.9686347 -301.58082985 128.15805573 -299.13667297 127.49295044 C-292.97466628 126.99161446 -286.84963379 126.85475359 -280.66796875 126.8671875 C-279.59613846 126.86623077 -278.52430817 126.86527405 -277.41999817 126.86428833 C-275.15670717 126.86361064 -272.89341417 126.86543614 -270.63012695 126.86962891 C-267.23579309 126.87492465 -263.8415951 126.86970009 -260.44726562 126.86328125 C-253.96399783 126.85960912 -247.48259758 126.9077183 -241 127 C-240.00550842 127.01325317 -239.01101685 127.02650635 -237.98638916 127.04016113 C-235.21488112 127.08847871 -232.44617776 127.16674463 -229.67578125 127.2578125 C-228.45909004 127.27822098 -228.45909004 127.27822098 -227.21781921 127.29904175 C-223.53031427 127.4545972 -221.15742105 127.90704566 -217.95776367 129.79638672 C-216 132 -216 132 -216 136 C-214.06796111 136.22115549 -212.12803597 136.37349242 -210.1875 136.5 C-209.10855469 136.5928125 -208.02960938 136.685625 -206.91796875 136.78125 C-200.82709569 135.56671898 -196.82917681 131.75707414 -192 128 C-190.20837632 126.72402221 -188.40767831 125.46067942 -186.59765625 124.2109375 C-185.24897461 123.27507812 -185.24897461 123.27507812 -183.87304688 122.3203125 C-182.94556641 121.67835938 -182.01808594 121.03640625 -181.0625 120.375 C-179.0323776 118.96639727 -177.00243279 117.55753857 -174.97265625 116.1484375 C-173.46469482 115.10187988 -173.46469482 115.10187988 -171.92626953 114.03417969 C-167.60987745 111.03366418 -163.30440165 108.01767969 -159 105 C-147.04315485 96.62137623 -135.05229868 88.29175398 -123.06347656 79.95898438 C-112.21633658 72.41911966 -101.37608728 64.86987622 -90.55786133 57.28857422 C-83.23937141 52.16207826 -75.90350082 47.06075556 -68.56640625 41.9609375 C-62.36945864 37.65218735 -56.18105948 33.3315063 -50 29 C-42.61089218 23.82366914 -35.21527184 18.65677372 -27.8125 13.5 C-26.86826172 12.84128906 -25.92402344 12.18257812 -24.95117188 11.50390625 C-22.30552673 9.66231127 -19.65299325 7.83098533 -17 6 C-16.16678223 5.41371826 -15.33356445 4.82743652 -14.47509766 4.22338867 C-13.68796387 3.6791626 -12.90083008 3.13493652 -12.08984375 2.57421875 C-11.40140381 2.09299561 -10.71296387 1.61177246 -10.00366211 1.1159668 C-6.38235721 -0.9009681 -4.06883227 -0.74595258 0 0 Z " fill="#4D4E74" transform="translate(491,23)"/>
<path d="M0 0 C0.11681229 20.10579941 0.20497787 40.21152994 0.25906086 60.31759834 C0.28484026 69.65325388 0.31998569 78.98869856 0.37719727 88.32421875 C0.42704038 96.46126759 0.45929294 104.59816372 0.47044247 112.73536098 C0.47695973 117.04385017 0.4922713 121.35190248 0.52865028 125.66025162 C0.56262435 129.71670697 0.57305028 133.77254606 0.56553841 137.82913017 C0.56691234 139.31664696 0.57683706 140.80418466 0.59602737 142.29157829 C0.75113632 154.93540845 0.75113632 154.93540845 -2.41218567 158.83078003 C-16.86235243 170.94354637 -36.37458453 175.92289127 -54.50634766 179.50488281 C-56.72274032 179.94494981 -58.9295443 180.41471791 -61.13671875 180.8984375 C-81.147704 185.05282498 -101.57838087 185.35043442 -121.94165039 185.31567383 C-125.79797644 185.31251191 -129.65353339 185.33609197 -133.50976562 185.36132812 C-149.69214638 185.40140553 -166.04714412 185.03048982 -182 182 C-183 181 -183 181 -183.12304783 178.19076443 C-183.12212604 176.92329907 -183.12120424 175.65583372 -183.12025452 174.34996033 C-183.12110894 173.6467349 -183.12196337 172.94350947 -183.12284368 172.21897417 C-183.12450053 169.84509484 -183.1189738 167.47128502 -183.11352539 165.09741211 C-183.11324354 163.40270489 -183.11340122 161.70799755 -183.1139679 160.01329041 C-183.11425594 155.39778374 -183.10835809 150.78230283 -183.10139394 146.16680217 C-183.09516156 141.34879736 -183.09455669 136.53079203 -183.09336853 131.71278381 C-183.09025487 122.58257502 -183.08204102 113.45237814 -183.07201904 104.32217461 C-183.06085898 93.93057324 -183.05534772 83.53897132 -183.05032361 73.14736545 C-183.03985843 51.76490364 -183.02225832 30.38245257 -183 9 C-181.31699972 9.08906852 -181.31699972 9.08906852 -179.59999943 9.17993641 C-175.38701095 9.40240927 -171.17389883 9.62246262 -166.96074772 9.84183216 C-165.1466841 9.93661479 -163.3326534 10.0320299 -161.51865864 10.12812138 C-149.68733866 10.75433458 -137.88278852 11.31151972 -126.03100586 11.20581055 C-123.86625833 11.1868769 -121.70193359 11.18530833 -119.53710938 11.18554688 C-100.49429242 11.14134975 -81.52051235 9.98311449 -62.5625 8.25 C-61.6243042 8.16551605 -60.6861084 8.0810321 -59.71948242 7.99398804 C-33.08807348 5.76554453 -33.08807348 5.76554453 -6.9609375 0.43432617 C-4.60524381 -0.08743417 -2.4065098 -0.02747729 0 0 Z " fill="#4D4E74" transform="translate(351,311)"/>
<path d="M0 0 C4.46165115 3.37904462 7.40127424 8.19913097 10.5 12.8125 C10.96019531 13.48603516 11.42039062 14.15957031 11.89453125 14.85351562 C13.27947516 16.89191899 14.64403797 18.94221693 16 21 C16.710354 22.07157349 16.710354 22.07157349 17.43505859 23.16479492 C18.1130249 24.21244019 18.1130249 24.21244019 18.8046875 25.28125 C19.21187012 25.90708984 19.61905273 26.53292969 20.03857422 27.17773438 C21.68766325 30.30338205 21.64452271 32.58402961 21 36 C17.35919267 40.16092267 13.14295069 43.19921833 8.625 46.3125 C7.52828979 47.07747803 7.52828979 47.07747803 6.40942383 47.85791016 C3.94290171 49.57671412 1.47141097 51.28823449 -1 53 C-2.84279886 54.28204778 -4.68523544 55.56461644 -6.52734375 56.84765625 C-10.42942318 59.5647606 -14.33327727 62.2792882 -18.23828125 64.9921875 C-23.50038348 68.6498086 -28.75221956 72.32187053 -34 76 C-42.13143616 81.69859375 -50.28023949 87.37188417 -58.43359375 93.0390625 C-64.63054102 97.34781242 -70.81899563 101.66841541 -77 106 C-85.05578653 111.64475478 -93.12449129 117.2706946 -101.20288086 122.88305664 C-106.16702289 126.33189484 -111.126864 129.78659439 -116.078125 133.25390625 C-125.10679105 139.5697268 -134.14179955 145.79943118 -143.453125 151.69140625 C-150.52509736 156.2344771 -157.33128622 161.1887579 -164.19970703 166.03076172 C-169.24606625 169.57949175 -174.31072674 173.10190458 -179.375 176.625 C-180.3436499 177.29990479 -181.3122998 177.97480957 -182.31030273 178.67016602 C-186.84476095 181.82542144 -191.386954 184.96063525 -196 188 C-195.27111572 188.10546143 -194.54223145 188.21092285 -193.79125977 188.31958008 C-191.61406039 188.63560579 -189.43707681 188.95311996 -187.26025391 189.27172852 C-184.78771352 189.63332081 -182.31472544 189.99186452 -179.84130859 190.34741211 C-174.39542419 191.14260129 -168.97982954 191.95272077 -163.59765625 193.109375 C-162.82800537 193.27074951 -162.05835449 193.43212402 -161.26538086 193.59838867 C-159.25778508 194.03370743 -157.25742826 194.50203961 -155.2578125 194.97265625 C-151.7989239 195.36182216 -151.7989239 195.36182216 -149.23828125 192.59375 C-148.49964844 191.7378125 -147.76101563 190.881875 -147 190 C-143.0538838 189.24436073 -141.36859123 189.80486347 -137.8125 191.6875 C-134.33134073 194.54978651 -132.45267309 196.57202617 -131.61328125 201.07421875 C-131.28021738 205.43365469 -131.75674951 208.36023824 -134.4375 211.875 C-140.0339488 217.37035933 -148.34129153 218.4837023 -155.8125 219.9375 C-156.66013916 220.1029834 -157.50777832 220.2684668 -158.38110352 220.43896484 C-179.23174745 224.38694971 -200.0441523 226.65407768 -221.21459961 227.76635742 C-223.93063165 227.9312362 -223.93063165 227.9312362 -226.26519775 228.50354004 C-229.40150943 229.07288767 -232.35413699 229.14964752 -235.54223633 229.17700195 C-236.85565506 229.18965088 -238.16907379 229.2022998 -239.52229309 229.21533203 C-240.9588698 229.2234696 -242.39544942 229.23110497 -243.83203125 229.23828125 C-244.56604849 229.24312531 -245.30006573 229.24796936 -246.05632591 229.25296021 C-251.64171048 229.28951072 -257.22700682 229.30529423 -262.8125 229.3125 C-264.04052841 229.31444681 -264.04052841 229.31444681 -265.29336548 229.31643295 C-290.00316182 229.34622162 -314.38384226 228.87619211 -338.87988281 225.30718994 C-341.07227225 224.98952826 -343.26624874 224.68561784 -345.4609375 224.38427734 C-386.85019321 218.65941727 -386.85019321 218.65941727 -395 211 C-397.6979409 206.95308865 -397.65804393 203.75253951 -397 199 C-394.80328355 194.6065671 -392.54102011 191.94615148 -388 190 C-385 189.5 -385 189.5 -382 190 C-381.319375 190.86625 -380.63875 191.7325 -379.9375 192.625 C-377.32828909 195.23615847 -377.32828909 195.23615847 -374.67578125 195.02734375 C-371.84534101 194.57764764 -369.0437194 194.04034979 -366.23876953 193.453125 C-322.9507256 184.69166267 -278.95266401 184.76346058 -235 185 C-235.5775 184.13117188 -236.155 183.26234375 -236.75 182.3671875 C-237.50071193 181.203584 -238.25067247 180.03949549 -239 178.875 C-239.57234375 178.02035156 -239.57234375 178.02035156 -240.15625 177.1484375 C-242.61714292 173.28132005 -243.62996094 170.57130748 -243 166 C-239.49857241 161.60964409 -234.84125163 158.59819766 -230.25 155.4375 C-228.73433261 154.3802691 -227.21870891 153.32297557 -225.703125 152.265625 C-224.92775391 151.72744141 -224.15238281 151.18925781 -223.35351562 150.63476562 C-219.55939078 147.99934447 -215.77765679 145.34645878 -212 142.6875 C-211.27981689 142.18089844 -210.55963379 141.67429688 -209.81762695 141.15234375 C-206.28941715 138.65903711 -202.81720517 136.13100317 -199.4375 133.4375 C-194.31378693 129.3698194 -188.88567534 125.75470041 -183.484375 122.0703125 C-178.77542751 118.85551031 -174.1046533 115.587574 -169.4375 112.3125 C-162.13623539 107.19206833 -154.82300926 102.0892862 -147.5 97 C-140.32447573 92.01256549 -133.15626178 87.015035 -126 82 C-114.04298219 73.62162091 -102.0523 65.2917549 -90.06347656 56.95898438 C-80.03258797 49.98649733 -70.00467876 43.01006067 -60 36 C-50.89742214 29.62345932 -41.78925369 23.25523627 -32.6484375 16.93359375 C-28.93557406 14.36182804 -25.25762455 11.7494752 -21.6015625 9.09765625 C-20.75021729 8.48994385 -19.89887207 7.88223145 -19.02172852 7.25610352 C-17.43329415 6.12182293 -15.85478603 4.97345108 -14.28881836 3.80834961 C-9.31277058 0.29018765 -6.11258936 -1.06195968 0 0 Z " fill="#010001" transform="translate(491,23)"/>
<path d="M0 0 C4.03999675 3.90068652 4.98711029 8.12810209 6.125 13.5 C10.94713899 37.32907636 10.94713899 37.32907636 27.50390625 54.56640625 C33.91750972 58.29322989 40.74042731 59.66525192 47.9375 61.1875 C50.50929446 61.74253832 53.07692818 62.31215951 55.64453125 62.88671875 C57.33219604 63.24576294 57.33219604 63.24576294 59.05395508 63.61206055 C64.75734937 65.26109823 69.08610201 68.33387341 72.125 73.5 C73.57758478 79.03797949 73.07642484 82.90574327 71.40234375 88.32421875 C68.75041235 92.841423 65.38783612 95.06611668 60.56640625 96.72265625 C58.64634766 97.13837891 58.64634766 97.13837891 56.6875 97.5625 C55.27063586 97.88716025 53.85397372 98.2127031 52.4375 98.5390625 C51.72207031 98.69793945 51.00664062 98.85681641 50.26953125 99.02050781 C40.98411799 101.09661797 32.1039977 103.11067699 24.125 108.5 C23.25875 109.0775 22.3925 109.655 21.5 110.25 C11.19395966 120.01361716 8.68280333 130.71649799 6.01953125 144.1875 C4.42061317 151.94785398 2.96405652 157.82942482 -3.875 162.5 C-8.53896089 165.3081954 -12.70538063 164.61244974 -17.875 163.5 C-23.03297473 161.01653069 -25.62842146 157.66439815 -27.875 152.5 C-28.77723352 149.07626489 -29.3354379 145.62216179 -29.875 142.125 C-31.83116054 129.55485724 -36.39042295 116.99625876 -46.828125 108.93457031 C-54.61054557 103.48019253 -62.85251064 101.29005373 -72.0625 99.4375 C-89.16503934 95.97430854 -89.16503934 95.97430854 -94.3125 89.375 C-96.53506234 84.86223212 -96.74323885 80.40977543 -95.875 75.5 C-93.73807513 69.75886083 -90.71131205 66.99383084 -85.26513672 64.41943359 C-80.79301306 62.69910492 -76.13302283 61.88710203 -71.4375 61 C-57.88229422 58.42903226 -46.30869093 54.27244277 -38.0625 42.5625 C-34.34453864 36.29165273 -32.81933235 29.67260746 -31.32666016 22.62890625 C-30.5591725 19.01134283 -29.72640854 15.41108674 -28.875 11.8125 C-28.58625 10.52988281 -28.2975 9.24726562 -28 7.92578125 C-26.48584164 3.31495875 -24.35778535 0.56456384 -20.4375 -2.25 C-13.43099052 -5.6678095 -6.25632451 -4.67898846 0 0 Z " fill="#010100" transform="translate(159.875,40.5)"/>
<path d="M0 0 C2.75 2.0625 2.75 2.0625 4 5 C3.51230931 8.53575749 3.001833 10.94309241 0.5078125 13.57421875 C-3.31148414 15.74562572 -7.34470503 16.33287292 -11.625 17.1875 C-38.60198473 22.98939019 -79.04580315 31.97654646 -95.71875 56.53125 C-97.83362817 60.60625916 -98.47706471 64.57299117 -97.59765625 69.046875 C-93.36738026 81.96298393 -80.58728038 88.5185701 -69.29125977 94.51416016 C-53.19264603 102.66294798 -35.54249497 107.97063141 -18 112 C-17.1534082 112.20044922 -16.30681641 112.40089844 -15.43457031 112.60742188 C10.15534566 118.60111981 36.77913027 122.21047264 63 124 C64.16861572 124.08467529 65.33723145 124.16935059 66.54125977 124.2565918 C81.24001486 125.24312941 95.96126209 125.28519458 110.6875 125.3125 C111.37287464 125.31423973 112.05824928 125.31597946 112.76439285 125.31777191 C138.99107812 125.37636023 164.93256944 123.99231676 191 121 C191.74940857 120.91470032 192.49881714 120.82940063 193.27093506 120.74151611 C201.16013564 119.83270634 208.98010959 118.78557899 216.75 117.125 C218.44912492 116.77168386 220.14834666 116.41883309 221.84765625 116.06640625 C222.69730957 115.88867676 223.54696289 115.71094727 224.42236328 115.52783203 C226.98451359 115.00317121 229.55075698 114.51017216 232.12109375 114.02734375 C242.97561701 111.97516697 253.49519251 109.42146019 264 106 C264.7940625 105.74347656 265.588125 105.48695313 266.40625 105.22265625 C282.14165767 100.08406218 297.90192418 94.38982706 311 84 C311.66515625 83.49726563 312.3303125 82.99453125 313.015625 82.4765625 C318.48819277 78.13069986 321.74748761 73.56199196 323.0625 66.625 C323.42154933 61.05028676 321.37005515 57.3211596 318 53 C303.30176131 36.77647239 279.95958955 29.1176025 259.54589844 22.93896484 C252.99469523 20.90071064 252.99469523 20.90071064 251 18 C250.09397023 14.44059732 249.57198049 12.08431608 250.9375 8.625 C254.03494344 6.18459002 257.16854787 5.92872438 261 6 C264.91240633 6.81619693 268.61412451 8.09703758 272.375 9.4375 C273.42993652 9.80294922 274.48487305 10.16839844 275.57177734 10.54492188 C297.81982875 18.39994926 323.7565624 28.48448538 336 50 C336.35835938 50.62003906 336.71671875 51.24007812 337.0859375 51.87890625 C340.40561174 58.92940705 340.27636811 68.37889289 338.23828125 75.7578125 C337.29468096 77.95830329 336.24611946 79.95774866 335 82 C334.4225 83.010625 333.845 84.02125 333.25 85.0625 C318.4417538 104.39548809 293.75170731 114.05530222 271.25 121.3125 C270.24565918 121.63782715 269.24131836 121.9631543 268.20654297 122.29833984 C261.68961894 124.33785842 255.15270925 125.90835691 248.46533203 127.28295898 C245.23107739 127.95218583 242.01718121 128.68001377 238.80078125 129.4296875 C217.8499892 134.16861501 196.72329472 136.6462657 175.36682129 138.76434326 C173.27101504 138.97301591 171.17597088 139.18931177 169.08105469 139.40673828 C91.61260619 147.17105558 -30.66254059 149.04808255 -95 98 C-107.54694948 87.45328885 -107.54694948 87.45328885 -111.1875 79.875 C-111.51105469 79.21242188 -111.83460937 78.54984375 -112.16796875 77.8671875 C-115.46008155 70.47925361 -115.23916054 60.26544194 -112.5 52.6875 C-101.98286629 30.67066299 -76.32214175 19.67793209 -54.61328125 11.8828125 C-44.55612405 8.4257208 -34.29822567 5.63708136 -24 3 C-22.85917969 2.70754395 -22.85917969 2.70754395 -21.6953125 2.40917969 C-6.65195931 -1.35886328 -6.65195931 -1.35886328 0 0 Z " fill="#000000" transform="translate(114,161)"/>
<path d="M0 0 C1.24286648 1.68337611 2.45120786 3.39275168 3.625 5.125 C5.32828092 7.63157499 6.85646972 9.85646972 9 12 C14.69822106 12.63924555 17.58710232 11.49050221 22.1875 8.1875 C23.19167969 7.47980469 24.19585937 6.77210938 25.23046875 6.04296875 C26.81917139 4.87104847 28.38884455 3.66962002 29.89331055 2.39135742 C36.29460233 -1.83635864 47.32551807 1.65986925 54.375 2.875 C55.94507813 3.13603516 55.94507813 3.13603516 57.546875 3.40234375 C58.59101563 3.57636719 59.63515625 3.75039062 60.7109375 3.9296875 C61.74299316 4.10161621 62.77504883 4.27354492 63.83837891 4.45068359 C66.0171038 4.82922653 68.1912377 5.23485538 70.36083984 5.66259766 C71.96886475 5.96883057 71.96886475 5.96883057 73.609375 6.28125 C74.57584961 6.47525391 75.54232422 6.66925781 76.53808594 6.86914062 C79.30385512 7.29468276 79.30385512 7.29468276 81.875 4.625 C82.57625 3.75875 83.2775 2.8925 84 2 C87.9461162 1.24436073 89.63140877 1.80486347 93.1875 3.6875 C96.66865927 6.54978651 98.54732691 8.57202617 99.38671875 13.07421875 C99.71978262 17.43365469 99.24325049 20.36023824 96.5625 23.875 C90.9660512 29.37035933 82.65870847 30.4837023 75.1875 31.9375 C74.33986084 32.1029834 73.49222168 32.2684668 72.61889648 32.43896484 C51.76825255 36.38694971 30.9558477 38.65407768 9.78540039 39.76635742 C7.06936835 39.9312362 7.06936835 39.9312362 4.73480225 40.50354004 C1.59849057 41.07288767 -1.35413699 41.14964752 -4.54223633 41.17700195 C-5.85565506 41.18965088 -7.16907379 41.2022998 -8.52229309 41.21533203 C-9.9588698 41.2234696 -11.39544942 41.23110497 -12.83203125 41.23828125 C-13.93305711 41.24554733 -13.93305711 41.24554733 -15.05632591 41.25296021 C-20.64171048 41.28951072 -26.22700682 41.30529423 -31.8125 41.3125 C-32.63118561 41.31379787 -33.44987122 41.31509575 -34.29336548 41.31643295 C-59.00316182 41.34622162 -83.38384226 40.87619211 -107.87988281 37.30718994 C-110.07227225 36.98952826 -112.26624874 36.68561784 -114.4609375 36.38427734 C-155.85019321 30.65941727 -155.85019321 30.65941727 -164 23 C-166.6979409 18.95308865 -166.65804393 15.75253951 -166 11 C-163.80328355 6.6065671 -161.54102011 3.94615148 -157 2 C-154 1.5 -154 1.5 -151 2 C-149.9790625 3.299375 -149.9790625 3.299375 -148.9375 4.625 C-146.32828909 7.23615847 -146.32828909 7.23615847 -143.67578125 7.02734375 C-140.84534101 6.57764764 -138.0437194 6.04034979 -135.23876953 5.453125 C-104.86631981 -0.69423233 -73.94389851 -2.45554311 -43.04394531 -3.30053711 C-38.97288994 -3.41276519 -34.90334862 -3.55415709 -30.83343887 -3.7016592 C-27.65284333 -3.81256246 -24.47191117 -3.90494058 -21.29058075 -3.99196053 C-19.78648876 -4.03601523 -18.28257379 -4.08665824 -16.77893829 -4.14422417 C-14.70451896 -4.22167277 -12.631007 -4.27318252 -10.55566406 -4.31811523 C-9.3819928 -4.35347885 -8.20832153 -4.38884247 -6.99908447 -4.42527771 C-3.32472837 -3.90424479 -2.27950538 -2.85521281 0 0 Z " fill="#31304B" transform="translate(260,211)"/>
<path d="M0 0 C6.97661624 6.3121766 7.92093937 13.13351961 9.60351562 22.05664062 C11.59225509 31.78606297 15.28381548 39.24384566 22.99609375 45.66015625 C28.97215904 49.55836229 35.93605992 50.76688893 42.8046875 52.32421875 C43.86610962 52.57220215 43.86610962 52.57220215 44.94897461 52.82519531 C46.31812537 53.14087337 47.69135503 53.43954142 49.06860352 53.71777344 C54.80865033 55.01191952 58.65949004 57.45513838 61.9765625 62.3828125 C63.26447654 66.33965684 63.15558698 70.27912732 62.625 74.375 C60.56675323 78.41798474 58.40345507 80.92950108 54.625 83.375 C52.05053711 84.15527344 52.05053711 84.15527344 49.15234375 84.734375 C48.09241211 84.95923584 47.03248047 85.18409668 45.94042969 85.41577148 C44.82571289 85.64981689 43.71099609 85.8838623 42.5625 86.125 C31.92400607 88.52555449 22.9726625 90.84753427 15.6875 99.5 C11.80788871 105.79390177 10.27753388 113.42788012 8.6640625 120.5625 C8.50043213 121.26898682 8.33680176 121.97547363 8.16821289 122.70336914 C7.85644441 124.07125533 7.56035638 125.44284693 7.28295898 126.81811523 C6.12313614 131.95503113 4.19487204 134.66654597 0.625 138.375 C-3.41348879 140.7762636 -7.77757281 141.06548811 -12.375 140.375 C-17.37699437 138.68404239 -19.89898152 136.20997562 -22.45117188 131.5222168 C-24.23332 127.38004111 -24.90587646 122.9718217 -25.75 118.5625 C-28.06297187 107.61569263 -30.72132939 99.33674024 -40.15234375 92.62890625 C-46.98123036 88.77640607 -53.60417041 87.3729044 -61.25976562 86.08984375 C-67.05095567 84.99787077 -71.78260364 83.15734095 -76.375 79.375 C-79.52579402 74.50559106 -79.83357627 70.33451762 -78.984375 64.73828125 C-77.99968331 60.91944488 -76.63348879 58.51571197 -73.375 56.375 C-67.8784779 54.08276465 -62.12687884 52.74438996 -56.3203125 51.48828125 C-45.75175397 49.15997572 -37.45467499 46.34353717 -31.29296875 36.9296875 C-27.9153388 31.09841556 -26.60653818 25.18510897 -25.3125 18.625 C-22.36390667 3.73329126 -22.36390667 3.73329126 -15.3671875 -0.9765625 C-10.11344713 -2.68660348 -4.93096967 -2.37417058 0 0 Z " fill="#010100" transform="translate(300.375,1.625)"/>
<path d="M0 0 C2.87917719 1.51156802 3.86640594 2.51386843 5.5 5.3125 C5.87752342 8.40326977 5.87752342 8.40326977 5.88095093 12.11088562 C5.8856309 12.79399002 5.89031087 13.47709443 5.89513266 14.18089896 C5.90709616 16.46934839 5.89762033 18.75720045 5.88818359 21.0456543 C5.8922489 22.68679656 5.89759055 24.3279361 5.90411377 25.96907043 C5.9178035 30.42804145 5.91248048 34.88680447 5.90297651 39.34577918 C5.89538209 44.01542202 5.90242552 48.68504702 5.90713501 53.35469055 C5.9125959 61.20223179 5.90539504 69.0496884 5.89111328 76.8972168 C5.87481454 85.9573843 5.8800537 95.01734897 5.8965925 104.07751149 C5.91023184 111.86197473 5.91211422 119.64637708 5.90427649 127.43084842 C5.89960976 132.07735788 5.89894697 136.72377223 5.90888596 141.3702755 C5.91758797 145.74436679 5.91147491 150.11819847 5.89420319 154.49226189 C5.89025433 156.09297506 5.89134479 157.69371028 5.89799118 159.29441452 C5.94460064 171.66594829 5.11293022 180.64754748 -3.80859375 189.8984375 C-22.52866302 206.68944303 -50.6147957 211.79333054 -74.625 215.5625 C-76.06842773 215.78909302 -76.06842773 215.78909302 -77.54101562 216.02026367 C-96.4935652 218.78547684 -115.3651639 219.69041977 -134.5 219.625 C-135.61318604 219.62317719 -136.72637207 219.62135437 -137.87329102 219.61947632 C-178.96721846 219.50656879 -234.42759331 218.0179041 -267.046875 189.05078125 C-276.12511517 179.55838779 -275.95966552 169.41633291 -275.83618164 157.04516602 C-275.81239559 154.48877882 -275.81565976 151.9334244 -275.82226562 149.37695312 C-275.81669379 147.74478547 -275.80958703 146.11262217 -275.80078125 144.48046875 C-275.80169266 143.72001755 -275.80260406 142.95956635 -275.80354309 142.17607117 C-275.71197856 135.34220343 -275.71197856 135.34220343 -273.5 132.3125 C-270.75 130.875 -270.75 130.875 -267.5 130.3125 C-263.49060398 131.77747162 -261.88397465 132.73653803 -259.5 136.3125 C-259.3067717 139.08013519 -259.22301614 141.75552305 -259.2265625 144.5234375 C-259.20627165 146.17709008 -259.18542083 147.83073586 -259.1640625 149.484375 C-259.14147392 152.0869724 -259.12499595 154.6893013 -259.11914062 157.29199219 C-259.10960274 159.80713241 -259.07581005 162.32106798 -259.0390625 164.8359375 C-259.04410797 165.61004974 -259.04915344 166.38416199 -259.05435181 167.18173218 C-258.96330676 172.1976436 -258.07517152 174.78353762 -254.5 178.3125 C-224.51377395 201.16717042 -175.87850537 202.88238522 -140.16723633 202.64868164 C-136.30463873 202.6249517 -132.44273112 202.62817198 -128.58007812 202.63476562 C-108.80636367 202.61233279 -89.03368557 202.02361922 -69.65380859 197.77636719 C-67.2185227 197.25187805 -64.77591317 196.7718597 -62.33203125 196.2890625 C-33.73216358 190.49608076 -33.73216358 190.49608076 -11.5 173.3125 C-10.91105368 170.01832042 -10.91105368 170.01832042 -11.0146637 166.36694336 C-11.01069027 165.68016227 -11.00671685 164.99338118 -11.00262302 164.28578854 C-10.99405061 161.99090297 -11.01384189 159.69714839 -11.03344727 157.40234375 C-11.0328984 155.75456591 -11.03052294 154.10678781 -11.02645874 152.45901489 C-11.02128452 148.91381558 -11.02834794 145.3689256 -11.04471016 141.82376099 C-11.06982055 136.21827115 -11.06354706 130.61308697 -11.05223083 125.00756836 C-11.02902714 111.08594394 -11.0474716 97.16440775 -11.07373047 83.24279785 C-11.09366862 72.4208265 -11.10227156 61.5990989 -11.07679409 50.77712727 C-11.06496993 45.20439364 -11.07665105 39.63235396 -11.1060468 34.05969238 C-11.11929678 30.59370674 -11.11188781 27.12799061 -11.09876633 23.66201401 C-11.0969089 22.05476389 -11.10363365 20.44747751 -11.11956978 18.84030533 C-11.14014489 16.64548697 -11.13000347 14.45285201 -11.11231995 12.25805664 C-11.11474984 11.03026993 -11.11717974 9.80248322 -11.11968327 8.53749084 C-10.32304516 4.39158156 -8.74843658 2.92230783 -5.5 0.3125 C-2.5 -0.6875 -2.5 -0.6875 0 0 Z " fill="#000001" transform="translate(361.5,292.6875)"/>
<path d="M0 0 C0.99 0.33 1.98 0.66 3 1 C3.16435547 2.01030273 3.16435547 2.01030273 3.33203125 3.04101562 C6.66170836 22.89726083 10.78692936 41.11235299 27.75 53.6875 C37.63291161 60.20696193 47.63943731 63.16594125 59.08251953 65.59326172 C61.5809163 66.12322467 64.07131964 66.6872215 66.5625 67.25 C68.2640625 67.62125 68.2640625 67.62125 70 68 C70 68.66 70 69.32 70 70 C68.71867188 70.23074219 67.43734375 70.46148437 66.1171875 70.69921875 C45.91954823 74.45359424 27.24283341 79.71832162 14.8125 97.3125 C8.54983845 106.49894014 6.76550882 117.14230548 4.84570312 127.86914062 C4.64783203 128.90361328 4.44996094 129.93808594 4.24609375 131.00390625 C4.07779053 131.94049072 3.9094873 132.8770752 3.73608398 133.84204102 C3.37172241 134.91023071 3.37172241 134.91023071 3 136 C2.01 136.33 1.02 136.66 0 137 C-0.13051758 136.35562988 -0.26103516 135.71125977 -0.39550781 135.04736328 C-1.00406531 132.07118671 -1.62694516 129.09817398 -2.25 126.125 C-2.45496094 125.11179687 -2.65992188 124.09859375 -2.87109375 123.0546875 C-6.38179654 106.45863794 -13.57028843 91.46086694 -28.18359375 81.921875 C-38.31831586 76.23974576 -48.37234903 73.80774444 -59.6796875 71.6484375 C-62.14902728 71.16618997 -64.5705949 70.64702749 -67 70 C-66.67 69.01 -66.34 68.02 -66 67 C-63.94970703 66.26391602 -63.94970703 66.26391602 -61.2578125 65.75390625 C-60.27296875 65.55603516 -59.288125 65.35816406 -58.2734375 65.15429688 C-57.23445313 64.95900391 -56.19546875 64.76371094 -55.125 64.5625 C-38.24251678 61.33176706 -23.58118309 55.91728019 -13.19140625 41.48828125 C-5.26906394 28.9999438 -2.57211738 14.36621659 0 0 Z " fill="#F5D064" transform="translate(147,52)"/>
<path d="M0 0 C3.08600324 2.34804594 4.78974929 3.73849574 5.4375 7.625 C5 10 5 10 3 13 C4.32837891 13.16435547 4.32837891 13.16435547 5.68359375 13.33203125 C12.43474728 14.1961227 19.12180355 15.17870027 25.8125 16.4375 C33.23588898 17.80768859 40.68989272 18.75792977 48.1875 19.625 C49.24364502 19.7480249 50.29979004 19.8710498 51.38793945 19.99780273 C64.13952812 21.42758312 76.88353108 22.15194473 89.70361328 22.50268555 C91.86634652 22.56226163 94.02885686 22.62747877 96.19140625 22.69335938 C139.27115215 23.95759951 182.78947046 22.16041256 225.09375 13.515625 C228 13 228 13 232 13 C231.01 11.515 231.01 11.515 230 10 C230.21793103 3.89793103 230.21793103 3.89793103 232.6875 1.0625 C235.77012506 -0.35384124 237.63128794 -0.47161969 241 0 C245.31462779 2.28421471 248.16960237 4.42400593 250 9 C250.74098201 12.97435807 250.82798806 16.36911443 248.96875 20.03125 C243.53604542 27.15412934 234.53552407 28.31308566 226.1875 29.9375 C225.33986084 30.1029834 224.49222168 30.2684668 223.61889648 30.43896484 C202.76825255 34.38694971 181.9558477 36.65407768 160.78540039 37.76635742 C158.06936835 37.9312362 158.06936835 37.9312362 155.73480225 38.50354004 C152.59849057 39.07288767 149.64586301 39.14964752 146.45776367 39.17700195 C145.14434494 39.18965088 143.83092621 39.2022998 142.47770691 39.21533203 C141.0411302 39.2234696 139.60455058 39.23110497 138.16796875 39.23828125 C137.06694289 39.24554733 137.06694289 39.24554733 135.94367409 39.25296021 C130.35828952 39.28951072 124.77299318 39.30529423 119.1875 39.3125 C118.36881439 39.31379787 117.55012878 39.31509575 116.70663452 39.31643295 C91.99683818 39.34622162 67.61615774 38.87619211 43.12011719 35.30718994 C40.92772775 34.98952826 38.73375126 34.68561784 36.5390625 34.38427734 C-4.85019321 28.65941727 -4.85019321 28.65941727 -13 21 C-15.6979409 16.95308865 -15.65804393 13.75253951 -15 9 C-11.80480281 2.60960563 -7.38838145 -1.23139691 0 0 Z " fill="#010102" transform="translate(109,213)"/>
<path d="M0 0 C2.93424085 1.34645494 3.95779658 3.68274267 5.58447266 6.40429688 C6.19806641 7.41621094 6.81166016 8.428125 7.44384766 9.47070312 C7.90275391 10.25316406 8.36166016 11.035625 8.83447266 11.84179688 C7.45001953 12.78925781 7.45001953 12.78925781 6.03759766 13.75585938 C-4.2253725 20.78992477 -14.42830972 27.90722511 -24.61425781 35.05224609 C-40.74879224 46.36957981 -56.9190599 57.6349073 -73.10205078 68.8828125 C-83.94919076 76.42267721 -94.78944006 83.97192065 -105.60766602 91.55322266 C-112.92615593 96.67971861 -120.26202653 101.78104131 -127.59912109 106.88085938 C-133.79606837 111.18960929 -139.98452298 115.51021229 -146.16552734 119.84179688 C-158.19208969 128.26890638 -170.25193906 136.64807737 -182.31152344 145.02783203 C-184.41556662 146.48989799 -186.51949087 147.95213513 -188.62329102 149.41455078 C-190.59583117 150.78572026 -192.56863409 152.15651183 -194.54174805 153.52685547 C-195.43853271 154.15027832 -196.33531738 154.77370117 -197.25927734 155.41601562 C-198.10232422 155.99915527 -198.94537109 156.58229492 -199.81396484 157.18310547 C-201.31705496 158.24332082 -202.80361804 159.32762941 -204.26708984 160.44189453 C-205.849369 161.64474116 -207.50161131 162.75467648 -209.16552734 163.84179688 C-212.92628399 162.58821132 -213.64201865 161.13505801 -215.85302734 157.90429688 C-216.47564453 157.00839844 -217.09826172 156.1125 -217.73974609 155.18945312 C-219.16552734 152.84179688 -219.16552734 152.84179688 -219.16552734 150.84179688 C-217.24365234 149.38867187 -217.24365234 149.38867187 -214.41552734 147.59179688 C-208.81417831 143.94928218 -203.31773437 140.18621719 -197.85302734 136.34179688 C-196.11746984 135.12287659 -194.38178931 133.90413147 -192.64599609 132.68554688 C-191.30480713 131.74388672 -191.30480713 131.74388672 -189.93652344 130.78320312 C-185.18842559 127.45660629 -180.42658446 124.14980669 -175.66552734 120.84179688 C-168.4899417 115.85445105 -161.32178876 110.85683162 -154.16552734 105.84179688 C-142.20850954 97.46341779 -130.21782734 89.13355178 -118.22900391 80.80078125 C-107.38186393 73.26091654 -96.54161462 65.7116731 -85.72338867 58.13037109 C-78.40489876 53.00387514 -71.06902816 47.90255244 -63.73193359 42.80273438 C-56.72641106 37.93178045 -49.73353181 33.04308759 -42.74609375 28.14624023 C-35.24428645 22.89138359 -27.7260445 17.66027953 -20.20458984 12.43359375 C-19.30224609 11.80646484 -18.39990234 11.17933594 -17.47021484 10.53320312 C-16.59204102 9.92750488 -15.71386719 9.32180664 -14.80908203 8.69775391 C-12.98788005 7.41914498 -11.18730641 6.11081289 -9.40478516 4.77880859 C-8.5240332 4.12799316 -7.64328125 3.47717773 -6.73583984 2.80664062 C-5.95225098 2.21359131 -5.16866211 1.62054199 -4.36132812 1.00952148 C-2.16552734 -0.15820312 -2.16552734 -0.15820312 0 0 Z " fill="#E94493" transform="translate(485.16552734375,42.158203125)"/>
<path d="M0 0 C2.14493618 3.21740427 2.6199177 5.36735514 3.375 9.125 C5.20351462 17.38547558 8.00816898 24.13623235 13 31 C13.53625 31.804375 14.0725 32.60875 14.625 33.4375 C24.79472196 44.41009475 37.88374007 47.51553825 52 50 C51.505 50.99 51.505 50.99 51 52 C48.20803467 52.65763637 45.4415341 53.22240959 42.625 53.75 C29.7540743 56.40849749 19.08649484 61.92484843 11.02734375 72.6171875 C5.0156096 82.03684738 3.12361188 92.19456306 1 103 C0.01 102.505 0.01 102.505 -1 102 C-1.53896591 99.70495285 -1.98028012 97.3867035 -2.375 95.0625 C-5.05785614 80.6412949 -11.02730278 69.8807191 -23 61 C-28.71688302 57.23856498 -35.17550978 55.67864017 -41.73046875 53.9296875 C-44.59044883 53.11645541 -47.26732166 52.16306084 -50 51 C-46.47855722 48.98397401 -42.93726109 48.21889031 -39 47.3125 C-27.18224207 44.34508981 -17.02441696 38.4831742 -10.1640625 28.265625 C-5.61646075 20.55197139 -3.48639831 13.07101504 -1.7265625 4.359375 C-1 1 -1 1 0 0 Z " fill="#F5CF64" transform="translate(292,20)"/>
<path d="M0 0 C2.70091584 1.25211132 3.49959226 3.26338948 4.82373047 5.84545898 C4.26169922 6.18834961 3.69966797 6.53124023 3.12060547 6.88452148 C-5.95859705 12.53813532 -14.64712557 18.73190758 -23.38916016 24.88793945 C-28.13953512 28.22435383 -32.90854112 31.53391366 -37.67626953 34.84545898 C-44.85194013 39.83268156 -52.02004315 44.83037553 -59.17626953 49.84545898 C-67.30774495 55.54399696 -75.45650878 61.21734299 -83.60986328 66.88452148 C-89.80681056 71.1932714 -95.99526516 75.5138744 -102.17626953 79.84545898 C-114.13328734 88.22383807 -126.12396954 96.55370408 -138.11279297 104.88647461 C-148.14368187 111.85896187 -158.1715459 118.83546199 -168.17626953 125.84545898 C-201.16775728 148.95378532 -201.16775728 148.95378532 -211.16455078 155.46264648 C-213.27705708 156.82479967 -213.27705708 156.82479967 -215.17626953 158.84545898 C-219.17626953 153.09545898 -219.17626953 153.09545898 -219.17626953 150.84545898 C-217.25439453 149.39233398 -217.25439453 149.39233398 -214.42626953 147.59545898 C-208.82492049 143.95294429 -203.32847656 140.1898793 -197.86376953 136.34545898 C-196.12821203 135.1265387 -194.3925315 133.90779358 -192.65673828 132.68920898 C-191.31554932 131.74754883 -191.31554932 131.74754883 -189.94726562 130.78686523 C-185.19916778 127.4602684 -180.43732665 124.15346879 -175.67626953 120.84545898 C-168.50068388 115.85811316 -161.33253095 110.86049373 -154.17626953 105.84545898 C-142.21925172 97.4670799 -130.22856953 89.13721389 -118.23974609 80.80444336 C-107.39260611 73.26457865 -96.55235681 65.7153352 -85.73413086 58.1340332 C-78.41564094 53.00753724 -71.07977035 47.90621455 -63.74267578 42.80639648 C-56.73715325 37.93544256 -49.744274 33.0467497 -42.75683594 28.14990234 C-35.25502863 22.8950457 -27.73678669 17.66394164 -20.21533203 12.43725586 C-19.31298828 11.81012695 -18.41064453 11.18299805 -17.48095703 10.53686523 C-16.6027832 9.93116699 -15.72460938 9.32546875 -14.81982422 8.70141602 C-12.99862224 7.42280709 -11.19804859 6.114475 -9.41552734 4.7824707 C-8.53477539 4.13165527 -7.65402344 3.48083984 -6.74658203 2.81030273 C-5.96299316 2.21725342 -5.1794043 1.6242041 -4.37207031 1.01318359 C-2.17626953 -0.15454102 -2.17626953 -0.15454102 0 0 Z " fill="#E24E8E" transform="translate(485.17626953125,42.154541015625)"/>
<path d="M0 0 C3.4375 1.75 3.4375 1.75 5.4375 4.75 C5.69476891 6.84149837 5.69476891 6.84149837 5.70492554 9.2978363 C5.71345551 10.23015076 5.72198547 11.16246521 5.73077393 12.12303162 C5.72986755 13.14389359 5.72896118 14.16475555 5.72802734 15.21655273 C5.73810318 16.8315416 5.73810318 16.8315416 5.74838257 18.47915649 C5.76742063 22.04734885 5.77128959 25.61535373 5.7734375 29.18359375 C5.77986092 31.65837177 5.78658893 34.13314902 5.79360962 36.60792542 C5.80559661 41.7989376 5.80928893 46.98988315 5.80810547 52.1809082 C5.8079021 58.84052437 5.83521686 65.49956564 5.86964989 72.15910244 C5.89185938 77.27112296 5.89594485 82.38303999 5.89488602 87.49510384 C5.89725046 89.95076021 5.90612106 92.40641908 5.92155075 94.86202812 C5.94109162 98.29300877 5.93541912 101.72305788 5.92333984 105.15405273 C5.93457886 106.17289047 5.94581787 107.19172821 5.95739746 108.24143982 C5.89594984 115.09111592 5.89594984 115.09111592 3.62588501 118.35365295 C0.52470641 120.33242797 -1.90460327 120.68468042 -5.5625 120.75 C-8.77879947 119.0572108 -9.39976711 118.23819868 -10.5625 114.75 C-10.65953335 113.25128871 -10.70166767 111.74868456 -10.70967102 110.24685669 C-10.71682632 109.32440155 -10.72398163 108.40194641 -10.73135376 107.45153809 C-10.73404266 106.4415979 -10.73673157 105.43165771 -10.73950195 104.39111328 C-10.74607315 103.3258139 -10.75264435 102.26051453 -10.75941467 101.16293335 C-10.77915157 97.63205905 -10.79080982 94.10122724 -10.80078125 90.5703125 C-10.80485678 89.36572262 -10.8089323 88.16113274 -10.81313133 86.92004013 C-10.8339915 80.54711834 -10.84829475 74.17421809 -10.85766602 67.80126953 C-10.86874378 61.21132034 -10.90315999 54.62170758 -10.94283772 48.03187752 C-10.96894717 42.97044231 -10.97735271 37.90908804 -10.98094749 32.8475914 C-10.98582636 30.4178731 -10.99747703 27.98815872 -11.01598549 25.55850601 C-11.04026054 22.16128876 -11.03943306 18.7649527 -11.0324707 15.36767578 C-11.04528076 14.36178406 -11.05809082 13.35589233 -11.07128906 12.31951904 C-11.03879538 7.9764876 -10.9740676 5.4429436 -8.72062683 1.64889526 C-5.37923198 -1.29113531 -4.25039212 -1.49136565 0 0 Z " fill="#000000" transform="translate(96.5625,293.25)"/>
<path d="M0 0 C1.60774544 -0.00143509 1.60774544 -0.00143509 3.24797058 -0.00289917 C5.51126158 -0.00357686 7.77455458 -0.00175136 10.0378418 0.00244141 C13.43217566 0.00773715 16.82637365 0.00251259 20.22070312 -0.00390625 C26.70397092 -0.00757838 33.18537117 0.0405308 39.66796875 0.1328125 C40.66246033 0.14606567 41.6569519 0.15931885 42.68157959 0.17297363 C45.45308763 0.22129121 48.22179099 0.29955713 50.9921875 0.390625 C52.20887871 0.41103348 52.20887871 0.41103348 53.45014954 0.43185425 C57.14877744 0.58787891 59.48818154 1.02354181 62.67504883 2.96044922 C64.66796875 5.1328125 64.66796875 5.1328125 65.23046875 8.6328125 C64.5931632 12.59826923 63.80560125 13.73344647 60.66796875 16.1328125 C57.67649889 17.62854743 54.62236527 17.24852304 51.34423828 17.21801758 C50.2122702 17.21324402 50.2122702 17.21324402 49.05743408 17.20837402 C46.55513642 17.19575668 44.05300827 17.17488276 41.55078125 17.15234375 C40.27021158 17.1419082 40.27021158 17.1419082 38.96377182 17.13126183 C34.44631179 17.09384214 29.9289688 17.04981432 25.41162109 17.00073242 C20.74198487 16.95136236 16.07251929 16.92519122 11.40268135 16.90430164 C7.8148737 16.88394157 4.22740301 16.84606826 0.63979721 16.803442 C-1.08173385 16.78608832 -2.80334548 16.77540392 -4.52495956 16.77149391 C-6.9337591 16.76441995 -9.34102791 16.73252357 -11.74951172 16.69458008 C-12.81726334 16.69976906 -12.81726334 16.69976906 -13.90658569 16.70506287 C-17.26447629 16.62679694 -19.04726345 16.35146172 -21.74343872 14.28129578 C-23.83310261 11.45514128 -24.33203125 9.64961227 -24.33203125 6.1328125 C-22.95703125 3.3203125 -22.95703125 3.3203125 -20.33203125 1.1328125 C-13.77976688 -0.40133084 -6.68573857 -0.01344782 0 0 Z " fill="#000001" transform="translate(210.33203125,149.8671875)"/>
<path d="M0 0 C2.77263856 2.00777275 3.34454156 3.72197791 4 7 C4.24348456 10.45526725 4.23102458 13.9119861 4.25 17.375 C4.270625 18.30828125 4.29125 19.2415625 4.3125 20.203125 C4.34278356 25.54817289 4.07866425 29.41189357 1 34 C-2.09173752 35.54586876 -4.59429552 35.29359521 -8 35 C-10.90717073 32.78136971 -11.83981643 31.48055071 -13 28 C-13.22923808 24.54563256 -13.18516136 21.08619183 -13.1875 17.625 C-13.19974609 16.67882812 -13.21199219 15.73265625 -13.22460938 14.7578125 C-13.24331019 5.8811595 -13.24331019 5.8811595 -11 2 C-7.19251626 -1.17290311 -4.70732853 -1.4326652 0 0 Z " fill="#000000" transform="translate(57,2)"/>
<path d="M0 0 C2.52379413 1.3283127 3.70040528 2.07860961 4.58886719 4.81103516 C5.36878293 8.96348441 5.22691607 13.1621824 5.25 17.375 C5.270625 18.30828125 5.29125 19.2415625 5.3125 20.203125 C5.34278356 25.54817289 5.07866425 29.41189357 2 34 C-1.09173752 35.54586876 -3.59429552 35.29359521 -7 35 C-9.90717073 32.78136971 -10.83981643 31.48055071 -12 28 C-12.22923808 24.54563256 -12.18516136 21.08619183 -12.1875 17.625 C-12.19974609 16.67882812 -12.21199219 15.73265625 -12.22460938 14.7578125 C-12.24360373 5.74182417 -12.24360373 5.74182417 -10 2 C-6.28986601 -0.47342266 -4.38939738 -0.38503486 0 0 Z " fill="#000000" transform="translate(56,55)"/>
<path d="M0 0 C3.30692004 4.96038006 2.36896392 10.609665 2.375 16.4375 C2.39949219 17.67822266 2.42398437 18.91894531 2.44921875 20.19726562 C2.45501953 21.98487305 2.45501953 21.98487305 2.4609375 23.80859375 C2.46915527 24.89970459 2.47737305 25.99081543 2.48583984 27.11499023 C1.88979357 30.6544268 0.78401345 31.81066168 -2 34 C-4 34.56640625 -4 34.56640625 -6 34.5625 C-6.99 34.59537109 -6.99 34.59537109 -8 34.62890625 C-11.13399518 33.64341167 -12.19845891 31.67926223 -14 29 C-14.51757812 26.10913086 -14.51757812 26.10913086 -14.53125 22.96484375 C-14.53640625 21.82595703 -14.5415625 20.68707031 -14.546875 19.51367188 C-14.53140625 18.33353516 -14.5159375 17.15339844 -14.5 15.9375 C-14.51546875 14.75349609 -14.5309375 13.56949219 -14.546875 12.34960938 C-14.54171875 11.21201172 -14.5365625 10.07441406 -14.53125 8.90234375 C-14.52673828 7.86585693 -14.52222656 6.82937012 -14.51757812 5.76147461 C-13.87026441 2.30781165 -12.73085044 1.14686191 -10 -1 C-6.00471255 -2.33176248 -3.90144863 -1.41870859 0 0 Z " fill="#000000" transform="translate(466,113)"/>
<path d="M0 0 C1.77020508 -0.04253906 1.77020508 -0.04253906 3.57617188 -0.0859375 C13.23318404 -0.10779831 13.23318404 -0.10779831 16.33984375 2.84375 C18.47781064 6.14038829 18.86516079 7.6472282 18.0625 11.5 C16.39714384 14.02585199 15.63592567 15.07604672 13.0625 16.5 C8.86288161 17.1763002 4.74247379 17.06064523 0.5 16.9375 C-0.63630859 16.93169922 -1.77261719 16.92589844 -2.94335938 16.91992188 C-12.29654148 16.78196934 -12.29654148 16.78196934 -15.9375 14.5 C-18.0190902 11.82366974 -17.93337591 10.38246332 -17.8125 6.9375 C-16.9375 3.5 -16.9375 3.5 -15.25170898 1.81445312 C-10.6501659 -0.79918839 -5.16281073 -0.01124183 0 0 Z " fill="#000000" transform="translate(78.9375,37.5)"/>
<path d="M0 0 C1.18400391 -0.00257812 2.36800781 -0.00515625 3.58789062 -0.0078125 C13.54199008 0.10498183 13.54199008 0.10498183 16.9375 3.5 C17.81031149 6.92890226 18.26672829 9.39259577 17.25 12.8125 C15.62490326 14.90191009 14.39295067 15.50869519 11.9375 16.5 C7.80374196 16.97442765 3.65821953 16.91627256 -0.5 16.9375 C-1.63244141 16.97037109 -2.76488281 17.00324219 -3.93164062 17.03710938 C-13.21824992 17.09730543 -13.21824992 17.09730543 -16.30859375 14.16015625 C-18.0625 11.5 -18.0625 11.5 -18.6875 8.5 C-18.04779304 5.4294066 -17.25151455 3.70990228 -14.97070312 1.54296875 C-10.50739296 -0.89654776 -4.93815002 -0.11866663 0 0 Z " fill="#000000" transform="translate(26.0625,37.5)"/>
<path d="M0 0 C1.18722656 -0.00515625 2.37445313 -0.0103125 3.59765625 -0.015625 C4.83386719 -0.00015625 6.07007813 0.0153125 7.34375 0.03125 C9.19806641 0.00804687 9.19806641 0.00804687 11.08984375 -0.015625 C12.87068359 -0.00789062 12.87068359 -0.00789062 14.6875 0 C15.77224609 0.00451172 16.85699219 0.00902344 17.97460938 0.01367188 C21.49639113 0.64898308 22.65344939 1.7582323 24.84375 4.53125 C25.78125 6.96875 25.78125 6.96875 25.84375 9.53125 C24.22219371 13.01759601 23.07921708 14.37427194 19.84375 16.53125 C15.73400226 16.998356 11.60217854 16.90159524 7.46875 16.90625 C5.76332031 16.94298828 5.76332031 16.94298828 4.0234375 16.98046875 C-4.27838812 17.00970053 -4.27838812 17.00970053 -8.41015625 14.7578125 C-10.24436563 12.41888779 -10.81606561 11.46216726 -10.71875 8.53125 C-10.72003906 7.87125 -10.72132813 7.21125 -10.72265625 6.53125 C-9.15560065 0.99792263 -5.23258679 0.02176358 0 0 Z " fill="#000000" transform="translate(479.15625,147.46875)"/>
<path d="M0 0 C3.30692004 4.96038006 2.36896392 10.609665 2.375 16.4375 C2.39949219 17.67822266 2.42398437 18.91894531 2.44921875 20.19726562 C2.45501953 21.98487305 2.45501953 21.98487305 2.4609375 23.80859375 C2.46915527 24.89970459 2.47737305 25.99081543 2.48583984 27.11499023 C1.88979357 30.6544268 0.78401345 31.81066168 -2 34 C-4 34.56640625 -4 34.56640625 -6 34.5625 C-6.99 34.59537109 -6.99 34.59537109 -8 34.62890625 C-11.43636844 33.54832945 -12.2601428 32.17066082 -14 29 C-14.59169604 24.82495918 -14.55773872 20.71011475 -14.5 16.5 C-14.51546875 15.37207031 -14.5309375 14.24414062 -14.546875 13.08203125 C-14.50793138 4.85519058 -14.50793138 4.85519058 -12.0859375 0.77734375 C-7.82063204 -2.8569521 -5.04849469 -2.19499769 0 0 Z " fill="#000000" transform="translate(466,166)"/>
<path d="M0 0 C1.18722656 -0.00515625 2.37445313 -0.0103125 3.59765625 -0.015625 C4.83386719 -0.00015625 6.07007813 0.0153125 7.34375 0.03125 C9.19806641 0.00804687 9.19806641 0.00804687 11.08984375 -0.015625 C12.87068359 -0.00789062 12.87068359 -0.00789062 14.6875 0 C15.77224609 0.00451172 16.85699219 0.00902344 17.97460938 0.01367188 C21.48573205 0.64706024 22.66184963 1.76619715 24.84375 4.53125 C25.41015625 6.53125 25.41015625 6.53125 25.40625 8.53125 C25.42816406 9.19125 25.45007813 9.85125 25.47265625 10.53125 C24.39207945 13.96761844 23.01441082 14.7913928 19.84375 16.53125 C15.66870918 17.12294604 11.55386475 17.08898872 7.34375 17.03125 C6.21582031 17.04671875 5.08789062 17.0621875 3.92578125 17.078125 C-4.22999889 17.03951776 -4.22999889 17.03951776 -8.40234375 14.75 C-10.24793369 12.41526708 -10.81617916 11.46558693 -10.71875 8.53125 C-10.72003906 7.87125 -10.72132813 7.21125 -10.72265625 6.53125 C-9.15560065 0.99792263 -5.23258679 0.02176358 0 0 Z " fill="#000000" transform="translate(426.15625,147.46875)"/>
</svg>
