<?xml version="1.0" encoding="UTF-8"?>
<svg version="1.1" xmlns="http://www.w3.org/2000/svg" width="512" height="512">
<path d="M0 0 C1.55834439 -0.00571244 3.1166846 -0.01268006 4.67501831 -0.02079773 C8.88177029 -0.03864881 13.08831276 -0.0375759 17.29509115 -0.03185534 C20.81867235 -0.02875147 24.34221399 -0.03486929 27.86578953 -0.04089409 C36.18464877 -0.05491158 44.50340525 -0.0534015 52.82226562 -0.04199219 C61.37813063 -0.03051646 69.93368197 -0.04458377 78.48950565 -0.07138866 C85.85970753 -0.09360671 93.2298114 -0.10016925 100.60004437 -0.09431225 C104.9911794 -0.0909557 109.38211349 -0.09327039 113.77322006 -0.11056328 C117.90533522 -0.12612788 122.0369889 -0.12197258 126.16908646 -0.10325813 C127.67663236 -0.09959825 129.18421319 -0.1026039 130.69172668 -0.11314392 C146.42841618 -0.21468253 159.33369008 3.83112036 171.11767578 14.59155273 C177.49550315 21.38432308 183.36767578 30.92939187 183.36767578 40.40405273 C194.58767578 40.40405273 205.80767578 40.40405273 217.36767578 40.40405273 C217.69767578 38.09405273 218.02767578 35.78405273 218.36767578 33.40405273 C223.11326617 20.57401014 232.00983263 10.35357722 244.36767578 4.40405273 C253.64987752 0.47422305 262.29729622 -0.1722716 272.22705078 -0.11352539 C273.78569183 -0.11895825 275.34432774 -0.12608738 276.9029541 -0.13476562 C281.10139271 -0.15286388 285.29943426 -0.1459879 289.49787903 -0.13324928 C293.91249584 -0.12305103 298.32708093 -0.13253376 302.74169922 -0.13879395 C310.15224243 -0.14605062 317.56262566 -0.13653486 324.97314453 -0.11743164 C333.51429441 -0.09566669 342.05506222 -0.10271947 350.59620285 -0.12473726 C357.95796327 -0.14294793 365.31960935 -0.14542201 372.68138504 -0.13498259 C377.0657705 -0.12877868 381.44997696 -0.12782579 385.83435059 -0.14112854 C389.95830477 -0.1527694 394.08177117 -0.1445129 398.20567322 -0.12155151 C399.70998834 -0.11630802 401.21434525 -0.11770248 402.71864319 -0.12660217 C418.44053618 -0.21096843 431.34515446 3.84158894 443.11767578 14.59155273 C454.40251759 26.69020525 456.82462251 40.14891821 456.77172852 56.03637695 C456.77744096 57.59472134 456.78440858 59.15306155 456.79252625 60.71139526 C456.81037732 64.91814724 456.80930442 69.12468972 456.80358386 73.33146811 C456.80047998 76.8550493 456.80659781 80.37859094 456.81262261 83.90216649 C456.8266401 92.22102572 456.82513002 100.5397822 456.8137207 108.85864258 C456.80224497 117.41450758 456.81631228 125.97005892 456.84311718 134.5258826 C456.86533522 141.89608449 456.87189777 149.26618835 456.86604077 156.63642132 C456.86268421 161.02755635 456.86499891 165.41849044 456.88229179 169.80959702 C456.89785639 173.94171217 456.89370109 178.07336585 456.87498665 182.20546341 C456.87132676 183.71300931 456.87433242 185.22059014 456.88487244 186.72810364 C456.98641105 202.46479314 452.94060816 215.37006703 442.18017578 227.15405273 C435.38740543 233.5318801 425.84233665 239.40405273 416.36767578 239.40405273 C416.36767578 250.62405273 416.36767578 261.84405273 416.36767578 273.40405273 C418.67767578 273.73405273 420.98767578 274.06405273 423.36767578 274.40405273 C436.19771837 279.14964312 446.4181513 288.04620959 452.36767578 300.40405273 C456.29750547 309.68625447 456.94400012 318.33367318 456.88525391 328.26342773 C456.89068676 329.82206879 456.8978159 331.38070469 456.90649414 332.93933105 C456.92459239 337.13776966 456.91771641 341.33581122 456.9049778 345.53425598 C456.89477955 349.94887279 456.90426228 354.36345788 456.91052246 358.77807617 C456.91777914 366.18861938 456.90826338 373.59900262 456.88916016 381.00952148 C456.8673952 389.55067136 456.87444798 398.09143917 456.89646578 406.6325798 C456.91467645 413.99434022 456.91715052 421.3559863 456.9067111 428.71776199 C456.90050719 433.10214745 456.89955431 437.48635391 456.91285706 441.87072754 C456.92449791 445.99468172 456.91624142 450.11814813 456.89328003 454.24205017 C456.88803653 455.7463653 456.88943099 457.2507222 456.89833069 458.75502014 C456.98269694 474.47691314 452.93013957 487.38153141 442.18017578 499.15405273 C430.08152327 510.43889454 416.62281031 512.86099947 400.73535156 512.80810547 C399.17700718 512.81381791 397.61866697 512.82078553 396.06033325 512.8289032 C391.85358127 512.84675427 387.6470388 512.84568137 383.44026041 512.83996081 C379.91667922 512.83685694 376.39313757 512.84297476 372.86956203 512.84899956 C364.55070279 512.86301705 356.23194631 512.86150697 347.91308594 512.85009766 C339.35722093 512.83862192 330.8016696 512.85268924 322.24584591 512.87949413 C314.87564403 512.90171217 307.50554016 512.90827472 300.13530719 512.90241772 C295.74417216 512.89906117 291.35323808 512.90137586 286.9621315 512.91866875 C282.83001634 512.93423335 278.69836266 512.93007805 274.56626511 512.9113636 C273.0587192 512.90770372 271.55113838 512.91070937 270.04362488 512.92124939 C254.30693538 513.022788 241.40166148 508.97698511 229.61767578 498.21655273 C223.23984842 491.42378238 217.36767578 481.8787136 217.36767578 472.40405273 C206.14767578 472.40405273 194.92767578 472.40405273 183.36767578 472.40405273 C183.03767578 474.71405273 182.70767578 477.02405273 182.36767578 479.40405273 C177.62208539 492.23409532 168.72551893 502.45452825 156.36767578 508.40405273 C147.08547404 512.33388242 138.43805534 512.98037707 128.50830078 512.92163086 C126.94965973 512.92706372 125.39102382 512.93419285 123.83239746 512.94287109 C119.63395885 512.96096935 115.4359173 512.95409337 111.23747253 512.94135475 C106.82285572 512.9311565 102.40827064 512.94063923 97.99365234 512.94689941 C90.58310913 512.95415609 83.1727259 512.94464033 75.76220703 512.92553711 C67.22105715 512.90377216 58.68028934 512.91082493 50.13914871 512.93284273 C42.77738829 512.9510534 35.41574221 512.95352748 28.05396652 512.94308805 C23.66958107 512.93688414 19.2853746 512.93593126 14.90100098 512.94923401 C10.7770468 512.96087487 6.65358039 512.95261837 2.52967834 512.92965698 C1.02536322 512.92441349 -0.47899369 512.92580795 -1.98329163 512.93470764 C-17.70518462 513.0190739 -30.6098029 508.96651652 -42.38232422 498.21655273 C-53.66716602 486.11790022 -56.08927095 472.65918726 -56.03637695 456.77172852 C-56.0420894 455.21338413 -56.04905702 453.65504392 -56.05717468 452.09671021 C-56.07502576 447.88995822 -56.07395285 443.68341575 -56.0682323 439.47663736 C-56.06512842 435.95305617 -56.07124624 432.42951453 -56.07727104 428.90593898 C-56.09128853 420.58707975 -56.08977846 412.26832327 -56.07836914 403.94946289 C-56.06689341 395.39359789 -56.08096072 386.83804655 -56.10776561 378.28222287 C-56.12998366 370.91202098 -56.1365462 363.54191711 -56.1306892 356.17168415 C-56.12733265 351.78054912 -56.12964735 347.38961503 -56.14694023 342.99850845 C-56.16250483 338.86639329 -56.15834953 334.73473961 -56.13963509 330.60264206 C-56.1359752 329.09509616 -56.13898085 327.58751533 -56.14952087 326.08000183 C-56.25105948 310.34331233 -52.2052566 297.43803844 -41.44482422 285.65405273 C-34.65205387 279.27622537 -25.10698508 273.40405273 -15.63232422 273.40405273 C-15.63232422 262.18405273 -15.63232422 250.96405273 -15.63232422 239.40405273 C-17.94232422 239.07405273 -20.25232422 238.74405273 -22.63232422 238.40405273 C-35.46236681 233.65846234 -45.68279973 224.76189588 -51.63232422 212.40405273 C-55.5621539 203.12185099 -56.20864855 194.47443229 -56.14990234 184.54467773 C-56.1553352 182.98603668 -56.16246434 181.42740078 -56.17114258 179.86877441 C-56.18924083 175.6703358 -56.18236485 171.47229425 -56.16962624 167.27384949 C-56.15942799 162.85923267 -56.16891072 158.44464759 -56.1751709 154.0300293 C-56.18242758 146.61948608 -56.17291182 139.20910285 -56.15380859 131.79858398 C-56.13204364 123.2574341 -56.13909642 114.7166663 -56.16111422 106.17552567 C-56.17932489 98.81376524 -56.18179896 91.45211917 -56.17135954 84.09034348 C-56.16515563 79.70595802 -56.16420275 75.32175155 -56.17750549 70.93737793 C-56.18914635 66.81342375 -56.18088985 62.68995734 -56.15792847 58.5660553 C-56.15268497 57.06174017 -56.15407943 55.55738327 -56.16297913 54.05308533 C-56.24734538 38.33119233 -52.19478801 25.42657406 -41.44482422 13.65405273 C-29.34617171 2.36921093 -15.88745875 -0.052894 0 0 Z " fill="#000000" transform="translate(55.63232421875,-0.404052734375)"/>
<path d="M0 0 C10.56 0 21.12 0 32 0 C32.00410889 4.10187744 32.00821777 8.20375488 32.01245117 12.42993164 C32.02969018 26.02063182 32.07401176 39.61113234 32.13209057 53.20171452 C32.16663031 61.43732174 32.19208154 69.67276349 32.19555664 77.90844727 C32.19861196 85.09314293 32.21931123 92.27754308 32.26052457 99.46212476 C32.28171533 103.26054018 32.29452792 107.05853697 32.28615379 110.8570118 C32.27852399 114.44500161 32.29479046 118.03214949 32.32806015 121.61998558 C32.34001233 123.53863773 32.32782233 125.4573949 32.31443787 127.3760376 C32.50180378 141.8600519 37.0797209 154.49981608 47.02734375 165.17578125 C59.02378606 176.69496908 72.55639256 179.29109653 88.59790039 179.31884766 C89.94897043 179.32816286 91.30003479 179.33833386 92.65109253 179.34928894 C96.29299346 179.37642376 99.93485607 179.39168889 103.5768311 179.40471697 C107.39252789 179.42042039 111.20814726 179.44718735 115.02378845 179.4727478 C122.23769197 179.51940858 129.45161026 179.55621387 136.66558689 179.58942068 C144.88334144 179.62773218 153.10101799 179.67711849 161.31870663 179.72740483 C178.21242023 179.83053565 195.10616662 179.91839529 212 180 C212 190.56 212 201.12 212 212 C207.91270508 212.01458252 203.82541016 212.02916504 199.61425781 212.04418945 C186.08742794 212.09459838 172.56071646 212.16105625 159.0340004 212.23571491 C150.83534282 212.2805766 142.63672774 212.32001315 134.43798828 212.34643555 C127.28743668 212.36949394 120.13702068 212.40297864 112.9865768 212.44870156 C109.20456516 212.47252869 105.42268695 212.49132597 101.64060211 212.49761391 C98.07167547 212.50371281 94.50308973 212.52388291 90.93428993 212.55427551 C89.01864734 212.56709063 87.10292477 212.56549902 85.1872406 212.5632782 C69.02383512 212.73660447 57.12724219 217.38144483 45.328125 228.45703125 C34.68167057 240.0859605 32.54995929 253.69835432 32.56762695 268.93847656 C32.55858569 270.28999208 32.54825278 271.64149947 32.53674316 272.99299622 C32.50942401 276.62235752 32.49992327 280.25156222 32.49388909 283.88101292 C32.48443928 287.68870176 32.45823116 291.49627657 32.43388367 295.30389404 C32.39039525 302.49645448 32.36174032 309.68899257 32.33856028 316.88164401 C32.31141331 325.0777214 32.26750811 333.27368306 32.22227156 341.46967745 C32.12967847 358.31307152 32.06009386 375.15645385 32 392 C21.44 392 10.88 392 0 392 C-0.02187378 385.86905762 -0.02187378 385.86905762 -0.04418945 379.61425781 C-0.09459838 366.08742794 -0.16105625 352.56071646 -0.23571491 339.0340004 C-0.2805766 330.83534282 -0.32001315 322.63672774 -0.34643555 314.43798828 C-0.36949394 307.28743668 -0.40297864 300.13702068 -0.44870156 292.9865768 C-0.47252869 289.20456516 -0.49132597 285.42268695 -0.49761391 281.64060211 C-0.50371281 278.07167547 -0.52388291 274.50308973 -0.55427551 270.93428993 C-0.56709063 269.01864734 -0.56549902 267.10292477 -0.5632782 265.1872406 C-0.72239366 250.34905237 -4.47999817 237.62681369 -14.8125 226.625 C-27.38937995 215.01186564 -41.96365271 212.29400122 -58.51416016 212.42358398 C-61.02506508 212.43764032 -63.53236584 212.40302263 -66.04296875 212.36523438 C-67.65364674 212.36428459 -69.26432937 212.36613443 -70.875 212.37109375 C-71.6177417 212.35783554 -72.3604834 212.34457733 -73.12573242 212.33091736 C-77.05271841 212.4013859 -78.84539206 212.87982677 -81.98046875 215.31665039 C-84.60009648 218.79734773 -84.54302266 220.73339336 -84 225 C-82.81232145 228.38031589 -82.10174775 228.93216817 -79 231 C-75.67004077 231.32155848 -75.67004077 231.32155848 -71.83984375 231.30859375 C-70.39127254 231.33378386 -68.94270493 231.35918138 -67.49414062 231.38476562 C-65.22567958 231.4133074 -62.95728209 231.43733463 -60.6887207 231.45629883 C-48.50496169 231.57790923 -37.13801026 231.92081813 -28 241 C-22.95093811 247.36181798 -19.75745248 253.09841165 -19.73257446 261.342453 C-19.71977951 263.26213394 -19.71977951 263.26213394 -19.70672607 265.22059631 C-19.70742505 266.63168347 -19.70834809 268.04277054 -19.70947266 269.45385742 C-19.70348561 270.94574316 -19.69667965 272.43762581 -19.68911743 273.92950439 C-19.67146411 277.97728792 -19.66676222 282.02498686 -19.66548586 286.07280517 C-19.66406286 288.60482837 -19.65979035 291.13683016 -19.65449142 293.66884804 C-19.63599051 302.51142361 -19.62782053 311.35393892 -19.62939453 320.1965332 C-19.63059464 328.42343158 -19.60951815 336.65006705 -19.5779072 344.87689894 C-19.55169818 351.95141997 -19.54102923 359.02585542 -19.54230535 366.10042459 C-19.5428138 370.32056027 -19.53719618 374.54046246 -19.51594925 378.76054955 C-19.49648967 382.73416864 -19.49649458 386.70733349 -19.51098251 390.68096924 C-19.51306248 392.13291912 -19.50841849 393.584898 -19.4962616 395.03679848 C-19.40638705 406.52184664 -20.88381324 415.63902325 -28.9296875 424.2421875 C-35.02179625 429.41473267 -42.17923284 432.11166606 -50.08848572 432.16062927 C-51.36263336 432.1706749 -52.63678101 432.18072052 -53.94953918 432.19107056 C-55.36471499 432.19710074 -56.77989141 432.20298573 -58.19506836 432.20874023 C-59.68341288 432.21827991 -61.17175519 432.22817113 -62.66009521 432.23838806 C-67.55331796 432.2697758 -72.44655767 432.2900479 -77.33984375 432.30859375 C-78.17340369 432.31189107 -79.00696364 432.31518839 -79.86578298 432.31858563 C-87.73411193 432.34937934 -95.60244479 432.37607642 -103.47081661 432.39300442 C-113.51829615 432.41487638 -123.56523893 432.45676755 -133.61250395 432.52644199 C-140.68530177 432.57381288 -147.75795551 432.5979558 -154.83090693 432.6052013 C-159.05018373 432.61014007 -163.26885567 432.62504884 -167.48795891 432.6649456 C-171.46496266 432.70205527 -175.44102228 432.71014323 -179.41816711 432.69693947 C-180.86930701 432.69699303 -182.32049133 432.70712844 -183.77147102 432.7286911 C-194.34376802 432.87726306 -202.88566723 431.1605024 -211.14312649 424.1911993 C-219.76783539 415.17481838 -220.59593535 404.98689592 -220.54931641 393.01025391 C-220.55802755 391.5208688 -220.56839945 390.03149262 -220.58029175 388.54212952 C-220.60691358 384.52334674 -220.60824706 380.50494195 -220.60316515 376.48608828 C-220.60101488 373.11906752 -220.61082 369.75212155 -220.62037599 366.38511693 C-220.64251164 358.43539783 -220.64347211 350.48586777 -220.63134766 342.53613281 C-220.61927156 334.3618384 -220.64389271 326.18823279 -220.68648779 318.01405585 C-220.72182681 310.97079317 -220.73370581 303.92774869 -220.72721231 296.88440073 C-220.72360317 292.68877106 -220.72869081 288.49363283 -220.75664139 284.29808426 C-220.78196531 280.34962223 -220.77775681 276.40222664 -220.75181961 272.45377922 C-220.74712474 271.01395606 -220.75242481 269.57405586 -220.76906586 268.13432121 C-220.88172183 257.62061084 -219.1905956 248.82063626 -212.00486183 240.76268959 C-210.06007889 238.87641214 -208.30886046 237.43231408 -206 236 C-205.4519873 235.65275879 -204.90397461 235.30551758 -204.33935547 234.94775391 C-196.67568359 230.79497974 -188.21978043 231.39639734 -179.75 231.375 C-177.43651528 231.35859231 -175.1234274 231.3364739 -172.81011963 231.30337524 C-171.38000733 231.28392077 -169.94971333 231.27439113 -168.51947021 231.27645874 C-164.58351165 231.23440296 -161.51372739 230.81550727 -158 229 C-155.39243608 225.64741781 -155.56050508 222.10195255 -156 218 C-158.21863029 215.09282927 -159.51944929 214.16018357 -163 213 C-164.33363703 212.85596652 -165.67218046 212.75409577 -167.01171875 212.68359375 C-167.69451904 212.64548584 -168.37731934 212.60737793 -169.08081055 212.56811523 C-169.94101807 212.52501221 -170.80122559 212.48190918 -171.6875 212.4375 C-174.430625 212.293125 -177.17375 212.14875 -180 212 C-180 201.44 -180 190.88 -180 180 C-173.83147339 179.98598145 -173.83147339 179.98598145 -167.53833008 179.97167969 C-153.92368001 179.93785376 -140.30918836 179.88247257 -126.69466114 179.81609726 C-118.44332899 179.77639187 -110.19209104 179.74395642 -101.94067383 179.72900391 C-94.74357357 179.71594309 -87.54668131 179.68886638 -80.34969825 179.64538693 C-76.54358049 179.62287098 -72.73771834 179.60708333 -68.93152809 179.60811615 C-65.3387155 179.60886867 -61.74646577 179.59068455 -58.15379906 179.55883217 C-56.22761312 179.54643776 -54.30133213 179.55335084 -52.37512207 179.56114197 C-37.62852037 179.38712795 -25.13300919 174.73747775 -14.1875 164.75 C-5.67812906 155.64885026 -0.92168223 142.59740722 -0.84178162 130.23564148 C-0.8319928 129.08444321 -0.82220398 127.93324493 -0.81211853 126.74716187 C-0.80636307 125.49343781 -0.8006076 124.23971375 -0.79467773 122.94799805 C-0.78509206 121.60737308 -0.77508157 120.26675108 -0.76467896 118.9261322 C-0.73769852 115.29433181 -0.71665193 111.66251851 -0.69667697 108.03067374 C-0.67477497 104.23232419 -0.64740694 100.4340141 -0.62062073 96.63569641 C-0.57075073 89.44644318 -0.52579083 82.25716798 -0.48259836 75.06787187 C-0.43317727 66.8816704 -0.37827724 58.69550854 -0.32291877 50.50934541 C-0.20918614 33.67293217 -0.10305143 16.83648252 0 0 Z " fill="#FEE95F" transform="translate(240,60)"/>
<path d="M0 0 C1.47277339 -0.00378926 2.94554319 -0.00929428 4.41830444 -0.01637268 C8.39574212 -0.03026689 12.37274426 -0.01919982 16.3501575 -0.00266147 C20.52682199 0.0112548 24.70346287 0.0047214 28.88014221 0.00120544 C35.89331016 -0.0014918 42.9063065 0.01193598 49.91943359 0.03515625 C58.00779064 0.06175256 66.0958607 0.06351457 74.18424648 0.05176789 C81.98881004 0.04095766 89.79327059 0.04720323 97.597826 0.06132317 C100.90818808 0.06705595 104.2184741 0.06702171 107.5288372 0.06225777 C111.43354158 0.05745638 115.33793507 0.06771923 119.24258041 0.08921242 C120.66871531 0.09473808 122.09488033 0.0952848 123.52101707 0.09025955 C135.18827601 0.05432879 145.6443989 0.92603901 154.27563477 9.50170898 C159.32469666 15.86352697 162.51818228 21.60012064 162.5430603 29.84416199 C162.55585526 31.76384293 162.55585526 31.76384293 162.56890869 33.7223053 C162.56820971 35.13339246 162.56728668 36.54447952 162.56616211 37.95556641 C162.57214916 39.44745215 162.57895511 40.93933479 162.58651733 42.43121338 C162.60417065 46.47899691 162.60887254 50.52669585 162.61014891 54.57451415 C162.61157191 57.10653735 162.61584441 59.63853915 162.62114334 62.17055702 C162.63964426 71.01313259 162.64781423 79.85564791 162.64624023 88.69824219 C162.64504012 96.92514056 162.66611661 105.15177604 162.69772756 113.37860793 C162.72393659 120.45312896 162.73460553 127.5275644 162.73332942 134.60213357 C162.73282096 138.82226925 162.73843859 143.04217144 162.75968552 147.26225853 C162.77914509 151.23587763 162.77914018 155.20904247 162.76465225 159.18267822 C162.76257229 160.6346281 162.76721627 162.08660698 162.77937317 163.53850746 C162.86924771 175.02355563 161.39182153 184.14073223 153.34594727 192.74389648 C147.25383851 197.91644165 140.09640193 200.61337505 132.18714905 200.66233826 C130.27592758 200.67740669 130.27592758 200.67740669 128.32609558 200.69277954 C126.91091978 200.69880972 125.49574335 200.70469471 124.08056641 200.71044922 C122.59222188 200.7199889 121.10387958 200.72988011 119.61553955 200.74009705 C114.72231681 200.77148478 109.8290771 200.79175689 104.93579102 200.81030273 C104.10223107 200.81360006 103.26867113 200.81689738 102.40985179 200.82029462 C94.54152284 200.85108833 86.67318997 200.87778541 78.80481815 200.8947134 C68.75733862 200.91658537 58.71039584 200.95847654 48.66313082 201.02815098 C41.590333 201.07552187 34.51767925 201.09966478 27.44472784 201.10691029 C23.22545104 201.11184905 19.0067791 201.12675782 14.78767586 201.16665459 C10.81067211 201.20376425 6.83461249 201.21185222 2.85746765 201.19864845 C1.40632775 201.19870201 -0.04485657 201.20883743 -1.49583626 201.23040009 C-12.06813325 201.37897204 -20.61003246 199.66221138 -28.86749172 192.69290829 C-37.49220063 183.67652736 -38.32030059 173.4886049 -38.27368164 161.51196289 C-38.28239279 160.02257778 -38.29276468 158.53320161 -38.30465698 157.0438385 C-38.33127882 153.02505573 -38.3326123 149.00665093 -38.32753038 144.98779726 C-38.32538012 141.6207765 -38.33518523 138.25383054 -38.34474123 134.88682592 C-38.36687688 126.93710681 -38.36783734 118.98757675 -38.35571289 111.0378418 C-38.34363679 102.86354738 -38.36825794 94.68994178 -38.41085303 86.51576483 C-38.44619205 79.47250216 -38.45807105 72.42945768 -38.45157754 65.38610971 C-38.4479684 61.19048004 -38.45305605 56.99534181 -38.48100662 52.79979324 C-38.50633054 48.85133122 -38.50212205 44.90393562 -38.47618484 40.9554882 C-38.47148997 39.51566505 -38.47679005 38.07576484 -38.49343109 36.6360302 C-38.60608707 26.12231983 -36.91496084 17.32234525 -29.72922707 9.26439857 C-21.02427294 0.8213182 -11.69322574 -0.08613958 0 0 Z " fill="#65DFF6" transform="translate(329.724365234375,291.498291015625)"/>
<path d="M0 0 C1.47277339 -0.00378926 2.94554319 -0.00929428 4.41830444 -0.01637268 C8.39574212 -0.03026689 12.37274426 -0.01919982 16.3501575 -0.00266147 C20.52682199 0.0112548 24.70346287 0.0047214 28.88014221 0.00120544 C35.89331016 -0.0014918 42.9063065 0.01193598 49.91943359 0.03515625 C58.00779064 0.06175256 66.0958607 0.06351457 74.18424648 0.05176789 C81.98881004 0.04095766 89.79327059 0.04720323 97.597826 0.06132317 C100.90818808 0.06705595 104.2184741 0.06702171 107.5288372 0.06225777 C111.43354158 0.05745638 115.33793507 0.06771923 119.24258041 0.08921242 C120.66871531 0.09473808 122.09488033 0.0952848 123.52101707 0.09025955 C135.18827601 0.05432879 145.6443989 0.92603901 154.27563477 9.50170898 C159.32469666 15.86352697 162.51818228 21.60012064 162.5430603 29.84416199 C162.55585526 31.76384293 162.55585526 31.76384293 162.56890869 33.7223053 C162.56820971 35.13339246 162.56728668 36.54447952 162.56616211 37.95556641 C162.57214916 39.44745215 162.57895511 40.93933479 162.58651733 42.43121338 C162.60417065 46.47899691 162.60887254 50.52669585 162.61014891 54.57451415 C162.61157191 57.10653735 162.61584441 59.63853915 162.62114334 62.17055702 C162.63964426 71.01313259 162.64781423 79.85564791 162.64624023 88.69824219 C162.64504012 96.92514056 162.66611661 105.15177604 162.69772756 113.37860793 C162.72393659 120.45312896 162.73460553 127.5275644 162.73332942 134.60213357 C162.73282096 138.82226925 162.73843859 143.04217144 162.75968552 147.26225853 C162.77914509 151.23587763 162.77914018 155.20904247 162.76465225 159.18267822 C162.76257229 160.6346281 162.76721627 162.08660698 162.77937317 163.53850746 C162.86924771 175.02355563 161.39182153 184.14073223 153.34594727 192.74389648 C147.25383851 197.91644165 140.09640193 200.61337505 132.18714905 200.66233826 C130.27592758 200.67740669 130.27592758 200.67740669 128.32609558 200.69277954 C126.91091978 200.69880972 125.49574335 200.70469471 124.08056641 200.71044922 C122.59222188 200.7199889 121.10387958 200.72988011 119.61553955 200.74009705 C114.72231681 200.77148478 109.8290771 200.79175689 104.93579102 200.81030273 C104.10223107 200.81360006 103.26867113 200.81689738 102.40985179 200.82029462 C94.54152284 200.85108833 86.67318997 200.87778541 78.80481815 200.8947134 C68.75733862 200.91658537 58.71039584 200.95847654 48.66313082 201.02815098 C41.590333 201.07552187 34.51767925 201.09966478 27.44472784 201.10691029 C23.22545104 201.11184905 19.0067791 201.12675782 14.78767586 201.16665459 C10.81067211 201.20376425 6.83461249 201.21185222 2.85746765 201.19864845 C1.40632775 201.19870201 -0.04485657 201.20883743 -1.49583626 201.23040009 C-12.06813325 201.37897204 -20.61003246 199.66221138 -28.86749172 192.69290829 C-37.49220063 183.67652736 -38.32030059 173.4886049 -38.27368164 161.51196289 C-38.28239279 160.02257778 -38.29276468 158.53320161 -38.30465698 157.0438385 C-38.33127882 153.02505573 -38.3326123 149.00665093 -38.32753038 144.98779726 C-38.32538012 141.6207765 -38.33518523 138.25383054 -38.34474123 134.88682592 C-38.36687688 126.93710681 -38.36783734 118.98757675 -38.35571289 111.0378418 C-38.34363679 102.86354738 -38.36825794 94.68994178 -38.41085303 86.51576483 C-38.44619205 79.47250216 -38.45807105 72.42945768 -38.45157754 65.38610971 C-38.4479684 61.19048004 -38.45305605 56.99534181 -38.48100662 52.79979324 C-38.50633054 48.85133122 -38.50212205 44.90393562 -38.47618484 40.9554882 C-38.47148997 39.51566505 -38.47679005 38.07576484 -38.49343109 36.6360302 C-38.60608707 26.12231983 -36.91496084 17.32234525 -29.72922707 9.26439857 C-21.02427294 0.8213182 -11.69322574 -0.08613958 0 0 Z " fill="#CAE457" transform="translate(329.724365234375,19.498291015625)"/>
<path d="M0 0 C1.47277339 -0.00378926 2.94554319 -0.00929428 4.41830444 -0.01637268 C8.39574212 -0.03026689 12.37274426 -0.01919982 16.3501575 -0.00266147 C20.52682199 0.0112548 24.70346287 0.0047214 28.88014221 0.00120544 C35.89331016 -0.0014918 42.9063065 0.01193598 49.91943359 0.03515625 C58.00779064 0.06175256 66.0958607 0.06351457 74.18424648 0.05176789 C81.98881004 0.04095766 89.79327059 0.04720323 97.597826 0.06132317 C100.90818808 0.06705595 104.2184741 0.06702171 107.5288372 0.06225777 C111.43354158 0.05745638 115.33793507 0.06771923 119.24258041 0.08921242 C120.66871531 0.09473808 122.09488033 0.0952848 123.52101707 0.09025955 C135.18827601 0.05432879 145.6443989 0.92603901 154.27563477 9.50170898 C159.32469666 15.86352697 162.51818228 21.60012064 162.5430603 29.84416199 C162.55585526 31.76384293 162.55585526 31.76384293 162.56890869 33.7223053 C162.56820971 35.13339246 162.56728668 36.54447952 162.56616211 37.95556641 C162.57214916 39.44745215 162.57895511 40.93933479 162.58651733 42.43121338 C162.60417065 46.47899691 162.60887254 50.52669585 162.61014891 54.57451415 C162.61157191 57.10653735 162.61584441 59.63853915 162.62114334 62.17055702 C162.63964426 71.01313259 162.64781423 79.85564791 162.64624023 88.69824219 C162.64504012 96.92514056 162.66611661 105.15177604 162.69772756 113.37860793 C162.72393659 120.45312896 162.73460553 127.5275644 162.73332942 134.60213357 C162.73282096 138.82226925 162.73843859 143.04217144 162.75968552 147.26225853 C162.77914509 151.23587763 162.77914018 155.20904247 162.76465225 159.18267822 C162.76257229 160.6346281 162.76721627 162.08660698 162.77937317 163.53850746 C162.86924771 175.02355563 161.39182153 184.14073223 153.34594727 192.74389648 C147.25383851 197.91644165 140.09640193 200.61337505 132.18714905 200.66233826 C130.27592758 200.67740669 130.27592758 200.67740669 128.32609558 200.69277954 C126.91091978 200.69880972 125.49574335 200.70469471 124.08056641 200.71044922 C122.59222188 200.7199889 121.10387958 200.72988011 119.61553955 200.74009705 C114.72231681 200.77148478 109.8290771 200.79175689 104.93579102 200.81030273 C104.10223107 200.81360006 103.26867113 200.81689738 102.40985179 200.82029462 C94.54152284 200.85108833 86.67318997 200.87778541 78.80481815 200.8947134 C68.75733862 200.91658537 58.71039584 200.95847654 48.66313082 201.02815098 C41.590333 201.07552187 34.51767925 201.09966478 27.44472784 201.10691029 C23.22545104 201.11184905 19.0067791 201.12675782 14.78767586 201.16665459 C10.81067211 201.20376425 6.83461249 201.21185222 2.85746765 201.19864845 C1.40632775 201.19870201 -0.04485657 201.20883743 -1.49583626 201.23040009 C-12.06813325 201.37897204 -20.61003246 199.66221138 -28.86749172 192.69290829 C-37.49220063 183.67652736 -38.32030059 173.4886049 -38.27368164 161.51196289 C-38.28239279 160.02257778 -38.29276468 158.53320161 -38.30465698 157.0438385 C-38.33127882 153.02505573 -38.3326123 149.00665093 -38.32753038 144.98779726 C-38.32538012 141.6207765 -38.33518523 138.25383054 -38.34474123 134.88682592 C-38.36687688 126.93710681 -38.36783734 118.98757675 -38.35571289 111.0378418 C-38.34363679 102.86354738 -38.36825794 94.68994178 -38.41085303 86.51576483 C-38.44619205 79.47250216 -38.45807105 72.42945768 -38.45157754 65.38610971 C-38.4479684 61.19048004 -38.45305605 56.99534181 -38.48100662 52.79979324 C-38.50633054 48.85133122 -38.50212205 44.90393562 -38.47618484 40.9554882 C-38.47148997 39.51566505 -38.47679005 38.07576484 -38.49343109 36.6360302 C-38.60608707 26.12231983 -36.91496084 17.32234525 -29.72922707 9.26439857 C-21.02427294 0.8213182 -11.69322574 -0.08613958 0 0 Z " fill="#FE5C7C" transform="translate(57.724365234375,19.498291015625)"/>
<path d="M0 0 C10.56 0 21.12 0 32 0 C32.00410889 4.10187744 32.00821777 8.20375488 32.01245117 12.42993164 C32.02969018 26.02063182 32.07401176 39.61113234 32.13209057 53.20171452 C32.16663031 61.43732174 32.19208154 69.67276349 32.19555664 77.90844727 C32.19861196 85.09314293 32.21931123 92.27754308 32.26052457 99.46212476 C32.28171533 103.26054018 32.29452792 107.05853697 32.28615379 110.8570118 C32.27852399 114.44500161 32.29479046 118.03214949 32.32806015 121.61998558 C32.34001233 123.53863773 32.32782233 125.4573949 32.31443787 127.3760376 C32.50180378 141.8600519 37.0797209 154.49981608 47.02734375 165.17578125 C59.02378606 176.69496908 72.55639256 179.29109653 88.59790039 179.31884766 C89.94897043 179.32816286 91.30003479 179.33833386 92.65109253 179.34928894 C96.29299346 179.37642376 99.93485607 179.39168889 103.5768311 179.40471697 C107.39252789 179.42042039 111.20814726 179.44718735 115.02378845 179.4727478 C122.23769197 179.51940858 129.45161026 179.55621387 136.66558689 179.58942068 C144.88334144 179.62773218 153.10101799 179.67711849 161.31870663 179.72740483 C178.21242023 179.83053565 195.10616662 179.91839529 212 180 C212 190.56 212 201.12 212 212 C207.91270508 212.01458252 203.82541016 212.02916504 199.61425781 212.04418945 C186.08742794 212.09459838 172.56071646 212.16105625 159.0340004 212.23571491 C150.83534282 212.2805766 142.63672774 212.32001315 134.43798828 212.34643555 C127.28743668 212.36949394 120.13702068 212.40297864 112.9865768 212.44870156 C109.20456516 212.47252869 105.42268695 212.49132597 101.64060211 212.49761391 C98.07167547 212.50371281 94.50308973 212.52388291 90.93428993 212.55427551 C89.01864734 212.56709063 87.10292477 212.56549902 85.1872406 212.5632782 C69.02383512 212.73660447 57.12724219 217.38144483 45.328125 228.45703125 C34.68167057 240.0859605 32.54995929 253.69835432 32.56762695 268.93847656 C32.55858569 270.28999208 32.54825278 271.64149947 32.53674316 272.99299622 C32.50942401 276.62235752 32.49992327 280.25156222 32.49388909 283.88101292 C32.48443928 287.68870176 32.45823116 291.49627657 32.43388367 295.30389404 C32.39039525 302.49645448 32.36174032 309.68899257 32.33856028 316.88164401 C32.31141331 325.0777214 32.26750811 333.27368306 32.22227156 341.46967745 C32.12967847 358.31307152 32.06009386 375.15645385 32 392 C21.44 392 10.88 392 0 392 C-0.02187378 385.86905762 -0.02187378 385.86905762 -0.04418945 379.61425781 C-0.09459838 366.08742794 -0.16105625 352.56071646 -0.23571491 339.0340004 C-0.2805766 330.83534282 -0.32001315 322.63672774 -0.34643555 314.43798828 C-0.36949394 307.28743668 -0.40297864 300.13702068 -0.44870156 292.9865768 C-0.47252869 289.20456516 -0.49132597 285.42268695 -0.49761391 281.64060211 C-0.50371281 278.07167547 -0.52388291 274.50308973 -0.55427551 270.93428993 C-0.56709063 269.01864734 -0.56549902 267.10292477 -0.5632782 265.1872406 C-0.72239366 250.34905237 -4.47999817 237.62681369 -14.8125 226.625 C-27.38937995 215.01186564 -41.96365271 212.29400122 -58.51416016 212.42358398 C-61.02506508 212.43764032 -63.53236584 212.40302263 -66.04296875 212.36523438 C-67.65364674 212.36428459 -69.26432937 212.36613443 -70.875 212.37109375 C-71.6177417 212.35783554 -72.3604834 212.34457733 -73.12573242 212.33091736 C-77.02574931 212.40090194 -78.83309069 212.87026619 -81.9453125 215.28930664 C-84.27761288 217.99766348 -84.27761288 217.99766348 -85 222 C-93.25 222 -101.5 222 -110 222 C-110.33 223.65 -110.66 225.3 -111 227 C-112.72172381 229.58258572 -114.11607805 230.72738856 -117.08984375 231.64453125 C-119.51525148 232.07634261 -121.54837004 232.25783631 -124 232 C-128.40554652 228.87940455 -128.91948945 227.40255276 -130 222 C-138.25 222 -146.5 222 -155 222 C-155.99 219.69 -156.98 217.38 -158 215 C-162.07502993 212.33297858 -167.06699299 212.56661841 -171.8125 212.375 C-174.514375 212.25125 -177.21625 212.1275 -180 212 C-180 201.44 -180 190.88 -180 180 C-173.83147339 179.98598145 -173.83147339 179.98598145 -167.53833008 179.97167969 C-153.92368001 179.93785376 -140.30918836 179.88247257 -126.69466114 179.81609726 C-118.44332899 179.77639187 -110.19209104 179.74395642 -101.94067383 179.72900391 C-94.74357357 179.71594309 -87.54668131 179.68886638 -80.34969825 179.64538693 C-76.54358049 179.62287098 -72.73771834 179.60708333 -68.93152809 179.60811615 C-65.3387155 179.60886867 -61.74646577 179.59068455 -58.15379906 179.55883217 C-56.22761312 179.54643776 -54.30133213 179.55335084 -52.37512207 179.56114197 C-37.62852037 179.38712795 -25.13300919 174.73747775 -14.1875 164.75 C-5.67812906 155.64885026 -0.92168223 142.59740722 -0.84178162 130.23564148 C-0.8319928 129.08444321 -0.82220398 127.93324493 -0.81211853 126.74716187 C-0.80636307 125.49343781 -0.8006076 124.23971375 -0.79467773 122.94799805 C-0.78509206 121.60737308 -0.77508157 120.26675108 -0.76467896 118.9261322 C-0.73769852 115.29433181 -0.71665193 111.66251851 -0.69667697 108.03067374 C-0.67477497 104.23232419 -0.64740694 100.4340141 -0.62062073 96.63569641 C-0.57075073 89.44644318 -0.52579083 82.25716798 -0.48259836 75.06787187 C-0.43317727 66.8816704 -0.37827724 58.69550854 -0.32291877 50.50934541 C-0.20918614 33.67293217 -0.10305143 16.83648252 0 0 Z " fill="#858FAE" transform="translate(240,60)"/>
<path d="M0 0 C6.54531252 4.47118123 11.49492841 11.17614634 13.80859375 18.78125 C14.03765207 21.72468554 13.99788389 24.64382157 13.93359375 27.59375 C13.92457031 28.38201172 13.91554688 29.17027344 13.90625 29.98242188 C13.88281879 31.91549666 13.84695213 33.8484138 13.80859375 35.78125 C15.15050781 35.72904297 15.15050781 35.72904297 16.51953125 35.67578125 C27.0200072 35.44069597 35.62447023 36.18340884 43.98828125 42.97265625 C50.12598825 49.07085012 54.07758741 56.26562949 54.18359375 64.96875 C54.00620875 74.21363896 51.20815767 81.25579638 44.87890625 88.0234375 C37.98468099 93.87702498 30.46501402 95.94416132 21.62109375 95.84375 C20.87150391 95.83923828 20.12191406 95.83472656 19.34960938 95.83007812 C17.50256992 95.81831354 15.65557162 95.80037865 13.80859375 95.78125 C13.855 96.82023437 13.90140625 97.85921875 13.94921875 98.9296875 C14.31383333 110.47535368 13.09181083 119.24167372 4.87890625 128.0234375 C-2.27917039 134.10104974 -10.43027026 136.27592695 -19.6328125 136.18359375 C-27.32408491 135.31399874 -33.87285573 131.59875395 -39.19140625 126.03125 C-46.54874674 116.46131078 -46.70830615 107.35406432 -46.19140625 95.78125 C-47.82335937 95.88566406 -47.82335937 95.88566406 -49.48828125 95.9921875 C-60.45444643 96.48279886 -68.64787182 95.34920293 -77.33984375 87.953125 C-83.50443613 81.55443417 -86.34244209 74.22198343 -86.81640625 65.40625 C-86.50032524 56.47169352 -82.88418028 48.90846201 -76.37890625 42.78125 C-75.01573076 41.73716989 -73.61969145 40.73432507 -72.19140625 39.78125 C-71.55976562 39.34941406 -70.928125 38.91757813 -70.27734375 38.47265625 C-62.92505694 34.37070473 -54.32997335 35.44486835 -46.19140625 35.78125 C-46.29582031 34.14929688 -46.29582031 34.14929688 -46.40234375 32.484375 C-46.89178466 21.54437178 -45.80369218 13.25243923 -38.328125 4.6328125 C-27.4571457 -5.69352856 -13.15501031 -7.31615547 0 0 Z " fill="#020101" transform="translate(136.19140625,54.21875)"/>
<path d="M0 0 C4.06523104 2.83675976 7.44364736 6.1217147 10.67578125 9.8671875 C14.02396526 8.40752975 16.24565555 6.51922142 18.86328125 3.9921875 C26.58519603 -2.90237926 32.89785388 -4.85874341 43.30859375 -4.51171875 C51.74387539 -3.56250492 57.97969186 0.71193623 63.67578125 6.8671875 C69.64664943 14.92711874 71.01764341 22.96261374 69.67578125 32.8671875 C67.06367104 41.19509606 62.21183523 47.22693787 55.67578125 52.8671875 C57.135439 56.21537151 59.02374733 58.4370618 61.55078125 61.0546875 C68.44534801 68.77660228 70.40171216 75.08926013 70.0546875 85.5 C69.09563879 94.02268028 64.76156041 100.02006634 58.67578125 105.8671875 C50.72757885 112.03109957 42.49793108 113.0374862 32.67578125 111.8671875 C24.36164103 109.18774894 18.32655649 104.4154388 12.67578125 97.8671875 C9.32759724 99.32684525 7.10590695 101.21515358 4.48828125 103.7421875 C-3.4612596 110.8284881 -9.94677871 112.64095064 -20.66796875 112.30859375 C-28.95409267 111.30823905 -35.04583113 107.15108254 -40.62890625 101.08203125 C-45.90243255 94.19242431 -47.11140719 86.96596618 -46.83203125 78.3984375 C-45.40374018 68.46632113 -39.74268859 61.26891274 -32.32421875 54.8671875 C-33.7838765 51.51900349 -35.67218483 49.2973132 -38.19921875 46.6796875 C-45.28551935 38.73014665 -47.09798189 32.24462754 -46.765625 21.5234375 C-45.65175116 12.29701349 -40.49805523 5.53830778 -33.32421875 -0.1328125 C-23.31211386 -7.09604458 -10.20117622 -5.77008344 0 0 Z " fill="#010202" transform="translate(380.32421875,338.1328125)"/>
<path d="M0 0 C0.87282623 -0.00540298 1.74565247 -0.01080597 2.64492798 -0.01637268 C5.50265428 -0.02878167 8.35935742 -0.01242004 11.21704102 0.00561523 C13.2204646 0.00546005 15.22388849 0.00396786 17.22731018 0.00120544 C21.41583613 -0.0001751 25.60401824 0.0123207 29.79248047 0.03515625 C35.13971777 0.06352113 40.48638352 0.06080378 45.83366299 0.04806614 C49.96801057 0.04108352 54.10222797 0.04892798 58.23655891 0.06132317 C60.20716921 0.06581389 62.1777936 0.06619545 64.14840508 0.06225777 C90.25490429 0.03450856 90.25490429 0.03450856 99.78344727 9.50170898 C106.65723098 18.16267646 108.80119445 25.44820161 107.78344727 36.50170898 C106.09700951 43.71198777 102.43084003 49.70675286 96.78344727 54.50170898 C89.57126902 58.90793339 83.5153161 60.65200516 75.09619141 60.71044922 C74.20794678 60.720233 73.31970215 60.73001678 72.40454102 60.74009705 C69.45924369 60.77005283 66.51399208 60.79144417 63.56860352 60.81030273 C62.0561546 60.82016047 62.0561546 60.82016047 60.51315117 60.83021736 C55.16958901 60.86282132 49.82604679 60.88726247 44.48242188 60.90673828 C40.07392029 60.92450468 35.66606396 60.95924871 31.2578125 61.00927734 C25.92448043 61.06972914 20.59174359 61.1002493 15.25808525 61.10991096 C13.23323074 61.11842919 11.20839055 61.13715665 9.18373299 61.16665459 C-3.36373695 61.3395285 -13.52459232 61.28210134 -23.4236908 52.55613708 C-29.62844822 46.31135135 -32.37413374 38.82070221 -32.84155273 30.12670898 C-32.52547173 21.19215251 -28.90932677 13.628921 -22.40405273 7.50170898 C-15.83154434 1.93031114 -8.44070521 -0.10164358 0 0 Z " fill="#010100" transform="translate(82.216552734375,361.498291015625)"/>
<path d="M0 0 C7.52965456 3.52293558 14.14604864 10.08022499 17.08984375 17.92578125 C19.48822382 28.50686979 18.28788725 36.58011632 12.83140945 45.84672356 C8.82497309 51.85607081 3.28875389 56.81306151 -1.8203125 61.8671875 C-3.15149907 63.20242668 -4.48179481 64.53855452 -5.81124878 65.8755188 C-8.58719269 68.66025724 -11.3735628 71.43398717 -14.16796875 74.20019531 C-17.72539804 77.723443 -21.25519864 81.27295421 -24.77755928 84.83122063 C-27.51555457 87.59103357 -30.26784991 90.33622982 -33.0245018 93.07739639 C-34.33085728 94.37978692 -35.63287526 95.68654494 -36.9301796 96.99795151 C-53.66725981 113.87693281 -53.66725981 113.87693281 -65.4140625 115.32421875 C-75.97933225 115.10166872 -82.82544868 112.98691065 -90.6875 105.875 C-97.39751704 98.58091265 -98.73528228 91.14291178 -99.0390625 81.4453125 C-96.60660305 68.44603993 -87.81562153 60.17184735 -78.8046875 51.2578125 C-77.47350093 49.92257332 -76.14320519 48.58644548 -74.81375122 47.2494812 C-72.03780731 44.46474276 -69.2514372 41.69101283 -66.45703125 38.92480469 C-62.89960196 35.401557 -59.36980136 31.85204579 -55.84744072 28.29377937 C-53.10944543 25.53396643 -50.35715009 22.78877018 -47.6004982 20.04760361 C-46.29414272 18.74521308 -44.99212474 17.43845506 -43.6948204 16.12704849 C-31.26257404 3.58939848 -18.65777591 -6.21925864 0 0 Z " fill="#010201" transform="translate(432.3125,63.4375)"/>
<path d="M0 0 C5.21612094 2.94505705 9.11025075 6.90303494 13.25 11.1875 C14.48213679 12.45400424 15.71641078 13.71843388 16.953125 14.98046875 C17.49098633 15.53629639 18.02884766 16.09212402 18.58300781 16.66479492 C20.56089118 18.52851721 21.94127209 18.98881373 24.625 19.5 C32.48518676 18.33552789 38.4926998 9.57812721 43.80078125 4.13671875 C46.93123775 1.09522727 48.4583683 0.05241597 52.875 -0.375 C57.01539255 -0.28349961 59.08332292 0.99493877 62 4 C63.5547669 7.10953379 63.28644437 9.56266761 63 13 C60.05494295 18.21612094 56.09696506 22.11025075 51.8125 26.25 C50.54599576 27.48213679 49.28156612 28.71641078 48.01953125 29.953125 C47.46370361 30.49098633 46.90787598 31.02884766 46.33520508 31.58300781 C44.47148279 33.56089118 44.01118627 34.94127209 43.5 37.625 C44.66447211 45.48518676 53.42187279 51.4926998 58.86328125 56.80078125 C61.90477273 59.93123775 62.94758403 61.4583683 63.375 65.875 C63.28349961 70.01539255 62.00506123 72.08332292 59 75 C55.59622759 76.7018862 52.62230369 76.92522949 49 76 C45.26258716 73.40240809 42.17206699 70.25026895 39 67 C38.15308594 66.15308594 37.30617188 65.30617188 36.43359375 64.43359375 C34.88277752 62.88277752 33.34132212 61.32250275 31.8125 59.75 C29.60898495 57.62246823 28.38900051 57.07409534 25.375 56.5 C17.51435876 57.66453944 11.56122146 66.38936686 6.296875 71.86328125 C3.03041658 74.90197641 0.99502418 75.89145191 -3.4375 76.375 C-7.58155564 75.93878362 -9.09130272 74.90869728 -12 72 C-13.7018862 68.59622759 -13.92522949 65.62230369 -13 62 C-9.75016245 57.32413674 -5.6149033 53.48217152 -1.43359375 49.64453125 C3.70470521 45.05024246 3.70470521 45.05024246 6.5 38.9375 C5.77685204 33.24270985 3.04939947 30.86661408 -1 27 C-2.77359441 25.25279836 -4.54435948 23.50272069 -6.3125 21.75 C-7.15425781 20.94046875 -7.99601562 20.1309375 -8.86328125 19.296875 C-11.90197641 16.03041658 -12.89145191 13.99502418 -13.375 9.5625 C-12.93878362 5.41844436 -11.90869728 3.90869728 -9 1 C-5.89046621 -0.5547669 -3.43733239 -0.28644437 0 0 Z " fill="#FAFAFA" transform="translate(367,354)"/>
<path d="M0 0 C0.77859375 0.05929688 1.5571875 0.11859375 2.359375 0.1796875 C3.51179688 0.24542969 3.51179688 0.24542969 4.6875 0.3125 C8.52165709 1.48748362 9.80765925 2.71619892 12.109375 6.0546875 C12.82250723 10.38469186 12.80888375 14.67389401 12.796875 19.0546875 C12.81350563 21.38809272 12.83795129 23.72145839 12.87109375 26.0546875 C12.87069092 27.0859375 12.87028809 28.1171875 12.86987305 29.1796875 C13.12396356 32.22980968 13.69705503 34.34472688 15.109375 37.0546875 C18.52949925 39.33477033 19.8543708 39.31536639 23.87890625 39.36328125 C25.58336914 39.40098633 25.58336914 39.40098633 27.32226562 39.43945312 C29.71023468 39.47443694 32.09826092 39.505724 34.48632812 39.53320312 C45.56342106 39.7899362 45.56342106 39.7899362 50.109375 43.0546875 C52.59323559 46.78047839 52.4897962 48.64180152 52.109375 53.0546875 C50.77957602 56.20421141 49.94113739 57.63780833 46.87109375 59.17651367 C43.80332026 60.15200706 41.32438479 60.29422461 38.109375 60.29296875 C36.975 60.30908203 35.840625 60.32519531 34.671875 60.34179688 C32.29692961 60.35872357 29.92187179 60.36393228 27.546875 60.35742188 C22.72055267 60.44243096 19.14056335 60.50832995 14.8359375 62.7890625 C12.08017403 68.00132102 12.44603941 73.18753968 12.484375 78.9921875 C12.484375 93.3296875 12.484375 93.3296875 9.109375 98.0546875 C5.52471042 100.18610968 2.22314745 100.65461265 -1.890625 100.0546875 C-4.99227269 97.50444385 -6.61628916 95.87769503 -7.890625 92.0546875 C-7.99418055 90.10994643 -8.04559861 88.16222882 -8.06640625 86.21484375 C-8.10217773 84.4968457 -8.10217773 84.4968457 -8.13867188 82.74414062 C-8.18156803 80.33025698 -8.21285797 77.91613861 -8.23242188 75.50195312 C-8.26013672 74.35533203 -8.28785156 73.20871094 -8.31640625 72.02734375 C-8.33098877 70.97812744 -8.34557129 69.92891113 -8.3605957 68.84790039 C-9.01907207 65.3777815 -10.14377923 64.21120921 -12.890625 62.0546875 C-16.06640558 60.99609397 -18.36015199 60.92953888 -21.6953125 60.9140625 C-22.83613281 60.89472656 -23.97695312 60.87539062 -25.15234375 60.85546875 C-27.55321752 60.82172674 -29.95435931 60.80339399 -32.35546875 60.80078125 C-41.08871605 60.61371056 -41.08871605 60.61371056 -45.140625 57.7890625 C-47.64196819 53.88071377 -48.49397407 50.68036369 -47.890625 46.0546875 C-45.515625 43.0546875 -45.515625 43.0546875 -42.890625 41.0546875 C-42.395625 40.5596875 -42.395625 40.5596875 -41.890625 40.0546875 C-40.02382742 39.92083382 -38.15235646 39.85114495 -36.28125 39.80859375 C-35.13398437 39.77572266 -33.98671875 39.74285156 -32.8046875 39.70898438 C-30.37768963 39.64818006 -27.95060222 39.5908425 -25.5234375 39.53710938 C-24.37101562 39.50294922 -23.21859375 39.46878906 -22.03125 39.43359375 C-20.97454102 39.4085376 -19.91783203 39.38348145 -18.82910156 39.35766602 C-15.72583062 39.03769599 -13.59911604 38.61221737 -10.890625 37.0546875 C-8.79898116 33.42785972 -8.65073108 30.18313251 -8.65234375 26.0546875 C-8.63623047 24.9203125 -8.62011719 23.7859375 -8.60351562 22.6171875 C-8.58658893 20.24224211 -8.58138022 17.86718429 -8.58789062 15.4921875 C-8.41744403 5.81521939 -8.41744403 5.81521939 -5.41015625 2.8046875 C-4.16298828 1.9384375 -4.16298828 1.9384375 -2.890625 1.0546875 C-1.890625 0.0546875 -1.890625 0.0546875 0 0 Z " fill="#FCFCFC" transform="translate(117.890625,69.9453125)"/>
<path d="M0 0 C2.8100346 1.79363911 4.50940468 3.01880935 6 6 C6.56192902 11.84406182 5.45308141 14.35444383 2 19 C0.21926401 20.95863857 -1.56354749 22.83772177 -3.43945312 24.69824219 C-3.97005844 25.23235214 -4.50066376 25.7664621 -5.04734802 26.3167572 C-6.78701578 28.06516409 -8.53382094 29.80622768 -10.28125 31.546875 C-11.49935647 32.76632996 -12.71716601 33.98608158 -13.93469238 35.20611572 C-16.4800798 37.75444347 -19.02902873 40.29913932 -21.58056641 42.84130859 C-24.84910402 46.0984281 -28.10854804 49.36447709 -31.36539459 52.63328171 C-33.87535799 55.15047246 -36.39006577 57.66287992 -38.90623474 60.17386627 C-40.1101712 61.37646993 -41.31262748 62.58055731 -42.51356506 63.7861557 C-44.19109865 65.46877148 -45.87491532 67.14483795 -47.56054688 68.81933594 C-48.30098488 69.56584663 -48.30098488 69.56584663 -49.05638123 70.32743835 C-52.76502118 73.99085542 -55.24329914 75.80835991 -60.4375 76.375 C-64.58155564 75.93878362 -66.09130272 74.90869728 -69 72 C-70.70052252 68.59895496 -70.92212303 65.62127934 -70 62 C-68.38192749 59.78942871 -68.38192749 59.78942871 -66.19287109 57.45898438 C-65.3722821 56.58201904 -64.55169312 55.70505371 -63.70623779 54.80151367 C-58.9454625 49.8731304 -54.13949606 44.99606738 -49.2890625 40.15625 C-48.18795471 39.05446665 -47.08699523 37.95253506 -45.98617554 36.85046387 C-43.70024555 34.5630731 -41.41255078 32.27746687 -39.12353516 29.99316406 C-36.19143355 27.06680644 -33.26390919 24.13591693 -30.33765602 21.20371246 C-28.07469 18.93713715 -25.80935316 16.67294347 -23.54328537 14.4094696 C-22.46207704 13.32892708 -21.38160753 12.24764475 -20.30189896 11.16560364 C-18.79953748 9.66070447 -17.29401171 8.15904416 -15.78759766 6.65820312 C-14.93316071 5.80456177 -14.07872375 4.95092041 -13.19839478 4.07141113 C-9.02892158 0.14277498 -5.63438225 -0.92258891 0 0 Z " fill="#F8F8F8" transform="translate(424,82)"/>
<path d="M0 0 C0.82931534 -0.0049649 1.65863068 -0.00992981 2.51307678 -0.01504517 C5.27085181 -0.02971063 8.02856925 -0.03647745 10.78637695 -0.04199219 C12.69871523 -0.0477418 14.61105349 -0.05349955 16.52339172 -0.05926514 C20.54098785 -0.0697888 24.55856389 -0.07562193 28.57617188 -0.07910156 C33.71995073 -0.08457701 38.86346363 -0.10857894 44.00715923 -0.13707352 C47.96117419 -0.15571892 51.91512548 -0.1609066 55.86918068 -0.16243744 C57.76496643 -0.16546222 59.66075111 -0.17348486 61.55649376 -0.18662262 C64.21364747 -0.20371633 66.87015705 -0.20179434 69.52734375 -0.1953125 C70.69887497 -0.20913467 70.69887497 -0.20913467 71.89407349 -0.22323608 C76.70233831 -0.18657504 80.03035811 0.55285358 84.0871582 3.16113281 C86.57101879 6.8869237 86.46757941 8.74824684 86.0871582 13.16113281 C84.79702566 16.21670988 83.93435134 17.70798026 80.99780273 19.27870178 C77.21969975 20.42412345 73.61495625 20.46418975 69.7043457 20.4675293 C68.87283997 20.47585281 68.04133423 20.48417633 67.18463135 20.49275208 C64.44375899 20.5167926 61.7031247 20.52561547 58.9621582 20.53222656 C57.05314056 20.54119513 55.14412363 20.55031702 53.23510742 20.55958557 C49.23720594 20.57606031 45.23938808 20.58377333 41.24145508 20.58666992 C36.11989317 20.59206211 30.99911683 20.62978307 25.8777771 20.67541409 C21.93665696 20.70515573 17.99572702 20.7123928 14.05450439 20.71339607 C12.16624338 20.71760162 10.27798197 20.73004933 8.38983154 20.75091362 C5.7492885 20.77777761 3.11058071 20.77301892 0.4699707 20.76049805 C-0.69752716 20.78274948 -0.69752716 20.78274948 -1.88861084 20.80545044 C-5.92152854 20.75100847 -7.70133195 20.3317572 -10.8815918 17.76625061 C-13.45005921 14.47214099 -13.92278525 12.38698103 -14.1940918 8.31738281 C-13.9128418 6.16113281 -13.9128418 6.16113281 -11.5378418 3.16113281 C-10.6715918 2.50113281 -9.8053418 1.84113281 -8.9128418 1.16113281 C-6.89600054 -0.85570845 -2.76672857 0.0039093 0 0 Z " fill="#FDFDFD" transform="translate(83.912841796875,381.8388671875)"/>
<path d="M0 0 C4.21991975 0.32138462 6.62477605 0.71843517 10.171875 3.1796875 C12.62942904 6.82638059 12.72695581 8.73162183 12.109375 13.0546875 C10.75690611 16.25790328 9.82378782 17.64920996 6.796875 19.3671875 C3.62182807 20.17940881 1.37132147 20.53038803 -1.890625 20.0546875 C-5.73190805 16.81093737 -7.69842472 14.75245665 -8.265625 9.7421875 C-7.79849125 5.14870563 -6.37022282 3.94020765 -2.890625 1.0546875 C-1.890625 0.0546875 -1.890625 0.0546875 0 0 Z " fill="#060604" transform="translate(117.890625,271.9453125)"/>
</svg>
