<?xml version="1.0" encoding="UTF-8"?>
<svg version="1.1" xmlns="http://www.w3.org/2000/svg" width="512" height="512">
<path d="M0 0 C1.03827942 -0.01283524 2.07655884 -0.02567047 3.14630127 -0.03889465 C4.26816833 -0.04628159 5.3900354 -0.05366852 6.54589844 -0.0612793 C8.27921417 -0.07338692 8.27921417 -0.07338692 10.04754639 -0.08573914 C12.49538676 -0.09957766 14.94324642 -0.11030085 17.39111328 -0.11816406 C21.12667614 -0.13536636 24.86135165 -0.17925509 28.59667969 -0.22338867 C30.97557943 -0.23351664 33.3544867 -0.24203241 35.73339844 -0.2487793 C36.84716858 -0.26628738 37.96093872 -0.28379547 39.10845947 -0.30183411 C45.62106098 -0.28370367 49.61814129 0.27968909 54.90527344 4.17700195 C59.17248924 8.67487807 61.08835376 13.05280737 61.33862305 19.22900391 C61.38043198 20.21226151 61.42224091 21.1955191 61.46531677 22.20857239 C61.59647863 26.76541147 61.70124191 31.32166117 61.77026367 35.87988281 C61.8179345 38.25299128 61.89236078 40.62574022 61.99584961 42.99707031 C62.14548524 46.47139984 62.20313301 49.93815411 62.24511719 53.4152832 C62.30593979 54.43503738 62.36676239 55.45479156 62.4294281 56.50544739 C62.38263867 65.42268708 58.9189384 70.8554796 54.41455078 78.34570312 C46.62689333 91.65292788 46.11674414 103.11117738 46.41699219 118.23950195 C46.41880714 120.73869044 46.41485447 123.23788901 46.4054718 125.73706055 C46.39621721 132.228455 46.46383036 138.71670938 46.54907227 145.2074585 C46.62236816 151.86520307 46.62074842 158.52282301 46.62597656 165.1809082 C46.64695273 178.18057211 46.74681617 191.1783221 46.90527344 204.17700195 C47.85453201 204.32713242 48.80379059 204.47726288 49.78181458 204.63194275 C52.40360539 205.08945837 54.25155356 205.58943193 56.60449219 206.7434082 C57.25095703 207.05995361 57.89742188 207.37649902 58.56347656 207.70263672 C59.56797852 208.21588501 59.56797852 208.21588501 60.59277344 208.73950195 C61.29466797 209.09520264 61.9965625 209.45090332 62.71972656 209.81738281 C68.9063395 213.03309139 74.47071434 216.8043682 79.90527344 221.17700195 C80.5975 221.70551758 81.28972656 222.2340332 82.00292969 222.77856445 C99.32379514 236.75922325 108.92108212 259.16649008 111.59277344 280.77856445 C112.44183716 290.01213239 111.66081346 298.59473751 110.36230469 307.7590332 C109.07719501 317.36989621 110.39194416 323.86506882 116.09277344 331.73950195 C130.13263545 351.15191158 136.53161605 373.63987888 136.34277344 397.48950195 C136.33821136 398.49873215 136.33821136 398.49873215 136.33355713 399.52835083 C136.26040778 410.51684528 135.32491534 420.71248133 131.90527344 431.17700195 C131.58381348 432.19721436 131.58381348 432.19721436 131.25585938 433.23803711 C121.55760864 463.35625829 99.93995112 487.15811512 71.96777344 501.55200195 C45.06083125 514.81304362 12.00307084 516.41324462 -16.24243164 506.86914062 C-29.43298824 502.18543357 -40.76492949 495.66358831 -51.57128906 486.7668457 C-53.86466255 484.99251834 -53.86466255 484.99251834 -55.98535156 485.23950195 C-57.02949219 485.70356445 -57.02949219 485.70356445 -58.09472656 486.17700195 C-59.21105469 486.62172852 -60.32738281 487.06645508 -61.47753906 487.5246582 C-68.34016481 490.2109377 -68.34016481 490.2109377 -73.13769531 495.27856445 C-73.22664062 495.96692383 -73.31558594 496.6552832 -73.40722656 497.36450195 C-74.09472656 501.17700195 -74.09472656 501.17700195 -75.61425781 502.4309082 C-105.62880538 516.63074054 -145.10198834 513.76556679 -175.62011719 503.09985352 C-194.6519361 496.00235199 -210.43560788 484.86836779 -226.09472656 472.17700195 C-226.36639648 472.8946875 -226.63806641 473.61237305 -226.91796875 474.35180664 C-228.96534569 479.26721037 -231.71808386 483.80246547 -234.34472656 488.42700195 C-234.90546875 489.42602539 -235.46621094 490.42504883 -236.04394531 491.4543457 C-245.45734903 508.08541693 -245.45734903 508.08541693 -250.09472656 511.17700195 C-252.96972656 511.61450195 -252.96972656 511.61450195 -256.09472656 511.17700195 C-258.96972656 509.05200195 -258.96972656 509.05200195 -261.09472656 506.17700195 C-261.64901054 501.30378113 -260.56257323 498.52749695 -258.09472656 494.3605957 C-257.45792969 493.27214355 -256.82113281 492.18369141 -256.16503906 491.06225586 C-255.47505818 489.91293054 -254.78495197 488.76368044 -254.09472656 487.61450195 C-253.40344482 486.43990122 -252.71334175 485.26460602 -252.02441406 484.08862305 C-249.18176187 479.25439701 -246.29696969 474.44917923 -243.28222656 469.7199707 C-242.90195313 469.12192627 -242.52167969 468.52388184 -242.12988281 467.90771484 C-241.17552968 466.42734207 -240.19861993 464.96157578 -239.21972656 463.49731445 C-237.86557448 460.70437578 -238.10535207 460.03754101 -239.09472656 457.17700195 C-240.15723376 455.32873765 -240.15723376 455.32873765 -241.50097656 453.5168457 C-241.9932373 452.81575684 -242.48549805 452.11466797 -242.99267578 451.39233398 C-243.52135254 450.64064941 -244.0500293 449.88896484 -244.59472656 449.11450195 C-254.91878042 433.96249806 -261.73425801 417.96771366 -266.09472656 400.17700195 C-266.27261719 399.45254883 -266.45050781 398.7280957 -266.63378906 397.98168945 C-274.83163289 362.71794853 -267.28191737 323.89894265 -248.71582031 293.14575195 C-244.63462356 286.67175977 -240.02543429 280.6493105 -235.09472656 274.80200195 C-234.64508545 274.26728271 -234.19544434 273.73256348 -233.73217773 273.18164062 C-231.50037181 270.62309486 -229.36563371 268.37946143 -226.63186646 266.33641052 C-221.21302754 262.16560089 -221.21302754 262.16560089 -218.17474365 256.21203613 C-217.84593032 252.78822077 -217.81264566 249.48649581 -217.89941406 246.0480957 C-217.89136749 244.81785172 -217.88332092 243.58760773 -217.87503052 242.32008362 C-217.86011019 238.41658769 -217.91386881 234.51756225 -217.96972656 230.61450195 C-217.97725761 227.9575013 -217.96911337 225.30083403 -217.96191406 222.64379883 C-217.95410817 216.15387508 -218.00258414 209.66623535 -218.09472656 203.17700195 C-218.70960938 203.19657959 -219.32449219 203.21615723 -219.95800781 203.23632812 C-221.17037109 203.2591687 -221.17037109 203.2591687 -222.40722656 203.2824707 C-223.20773438 203.30204834 -224.00824219 203.32162598 -224.83300781 203.34179688 C-228.29793848 203.08933269 -229.86497315 201.75515434 -232.09472656 199.17700195 C-233.55769134 195.70246061 -233.20747775 194.45619537 -231.78222656 190.92700195 C-230.09472656 188.17700195 -230.09472656 188.17700195 -228.09472656 187.17700195 C-225.52185807 187.07272034 -222.97566771 187.02920499 -220.4022522 187.02983093 C-219.5989058 187.02615424 -218.79555939 187.02247756 -217.96786916 187.01868945 C-215.2609624 187.00762722 -212.55409398 187.00380451 -209.84716797 187 C-207.91249977 186.99373736 -205.97783278 186.98709074 -204.04316711 186.98008728 C-198.7766602 186.9626612 -193.51016236 186.95212156 -188.24363375 186.94388175 C-184.95604449 186.93873597 -181.66845807 186.93266011 -178.38087082 186.92637062 C-168.10260424 186.90731576 -157.82434487 186.89308414 -147.54606402 186.88475865 C-135.66655355 186.87497817 -123.78722902 186.8486387 -111.9077841 186.80825776 C-102.73493177 186.77814281 -93.56213287 186.76329425 -84.38923204 186.75997764 C-78.90610857 186.75762224 -73.42318368 186.74859814 -67.94011307 186.72351646 C-62.78386308 186.70031093 -57.62794347 186.69597212 -52.47165489 186.70627785 C-50.57695482 186.70677512 -48.68223889 186.70039854 -46.78758812 186.6867218 C-44.20504765 186.66911928 -41.62370791 186.67605087 -39.04116821 186.68925476 C-38.287667 186.67828551 -37.53416579 186.66731627 -36.75783122 186.65601462 C-33.26955822 186.69920977 -31.43009159 186.9173647 -28.63347435 189.08248615 C-26.51058057 191.97213097 -26.44637763 193.78260723 -26.66113281 197.27075195 C-27.09472656 199.17700195 -27.09472656 199.17700195 -28.96972656 201.67700195 C-32.09472656 203.17700195 -32.09472656 203.17700195 -42.09472656 203.17700195 C-41.76472656 210.10700195 -41.43472656 217.03700195 -41.09472656 224.17700195 C-39.25910156 222.69200195 -37.42347656 221.20700195 -35.53222656 219.67700195 C-30.69964201 215.89697956 -25.74219733 212.59611969 -20.34472656 209.67700195 C-19.75618896 209.35151367 -19.16765137 209.02602539 -18.5612793 208.69067383 C-15.21804235 206.94661778 -12.05890027 205.85693061 -8.36328125 205.07739258 C-7.56138367 204.90614868 -6.75948608 204.73490479 -5.93328857 204.55847168 C-5.32656311 204.43258667 -4.71983765 204.30670166 -4.09472656 204.17700195 C-3.92025193 189.84082507 -3.82356936 175.50583991 -3.81231976 161.16857052 C-3.80577198 154.508492 -3.77407772 147.85058122 -3.68676758 141.19091797 C-3.60317236 134.74513993 -3.58494883 128.30198726 -3.6091404 121.85574532 C-3.6073697 119.41568335 -3.58334931 116.97551688 -3.5350399 114.53593254 C-3.25019359 99.23994802 -5.19793247 89.02054853 -13.41992474 75.98925781 C-18.19595934 68.40810042 -19.96204917 63.20442515 -19.46972656 54.1105957 C-19.45844727 52.93658707 -19.44716797 51.76257843 -19.43554688 50.55299377 C-19.38385516 46.90237326 -19.23981694 43.26245381 -19.09472656 39.61450195 C-19.05510487 37.12044628 -19.02122375 34.62629262 -18.99316406 32.13208008 C-18.59847981 10.97538899 -18.59847981 10.97538899 -13.37597656 5.3137207 C-12.78816406 4.83547852 -12.20035156 4.35723633 -11.59472656 3.86450195 C-11.00691406 3.37336914 -10.41910156 2.88223633 -9.81347656 2.3762207 C-6.62315758 0.15024814 -3.76513917 0.04056278 0 0 Z " fill="#020101" transform="translate(376.0947265625,-0.177001953125)"/>
<path d="M0 0 C0.18547441 12.78685166 0.32756558 25.57338264 0.41449738 38.36130619 C0.45622386 44.29954143 0.5128075 50.23685549 0.60351562 56.17456055 C0.69052962 61.90641244 0.73829324 67.63737917 0.75901794 73.36984062 C0.77378401 75.55519991 0.80262012 77.74051149 0.84584045 79.92549324 C0.90404987 82.99053171 0.91190793 86.05192812 0.90820312 89.11743164 C0.95134644 90.46826591 0.95134644 90.46826591 0.99536133 91.84638977 C0.94498265 95.7064486 0.80538638 98.06029398 -1.76322937 101.05729485 C-3.91662598 102.92405701 -3.91662598 102.92405701 -6.06296539 104.51367855 C-8.79185112 106.60760159 -10.22912246 109.07393288 -11.875 112.0625 C-12.42929687 113.04347656 -12.98359375 114.02445312 -13.5546875 115.03515625 C-18.48349894 125.14588027 -19.02133149 138.41390125 -15.375 149.125 C-11.03791719 158.90232606 -4.18033788 168.70022997 6 173 C8.78241079 173.33931839 10.34744276 173.36003158 12.8125 172 C14.34111937 169.42548317 14.77772946 167.09420785 14.6796875 164.109375 C13.49583133 160.43533862 10.46748242 158.90867292 7.39453125 156.7890625 C2.39416667 153.05306417 -1.08889476 147.92356148 -3 142 C-4.06303337 131.87646127 -2.92911483 122.96123003 3.25 114.6875 C9.5119804 108.56783734 16.07038095 105.39754992 24.875 104.6875 C32.86030395 104.91963093 40.14905038 108.20702166 45.81640625 113.7890625 C52.75016286 121.28736297 54.71576011 127.14607984 54.4765625 137.35546875 C53.49439793 144.86661253 50.15570319 151.48403229 44.4375 156.5 C42.36244225 158.08626637 40.22322456 159.52886839 38.0625 161 C35.71481719 162.88056223 35.71481719 162.88056223 35.5 166 C36.0533831 169.32029857 36.45257841 170.79223462 39 173 C45.04599106 173.62225777 47.86020779 171.56264775 52.5390625 168.04296875 C60.71482759 161.25578599 66.08769774 152.60458528 68 142 C68.83194082 129.00262945 68.03487049 118.21721414 59.515625 107.71875 C56.5558596 104.36231501 53.72856878 101.48571252 50 99 C49.63085651 97.20778465 49.63085651 97.20778465 49.63923645 95.00106812 C49.63511246 94.16531754 49.63098846 93.32956696 49.6267395 92.4684906 C49.63752533 91.54995804 49.64831116 90.63142548 49.65942383 89.68505859 C49.65876671 88.23621529 49.65876671 88.23621529 49.65809631 86.75810242 C49.660192 83.55467754 49.68355993 80.35177132 49.70703125 77.1484375 C49.71262443 74.9316944 49.71689584 72.71494759 49.71989441 70.49819946 C49.73136506 64.65537327 49.7608514 58.81276976 49.79400635 52.97003174 C49.8246594 47.01130181 49.83838955 41.052536 49.85351562 35.09375 C49.88571892 23.39573534 49.93694209 11.69788616 50 0 C51.44421457 0.47004115 52.88747355 0.94301909 54.33032227 1.41723633 C55.13413834 1.68031082 55.93795441 1.94338531 56.76612854 2.21443176 C74.86098376 8.57770905 86.64752873 24.62298358 95 41 C96.31698359 43.96672817 97.26786073 46.84024107 98 50 C98.20238281 50.86367188 98.40476562 51.72734375 98.61328125 52.6171875 C100.47676701 61.9726466 101.09522175 72.48082291 99.5078125 81.9296875 C97.27936077 95.40324947 98.25226548 107.45040848 106.25 118.6875 C106.84941406 119.50992188 107.44882812 120.33234375 108.06640625 121.1796875 C114.57427315 130.67197013 119.29455402 140.79919226 122 152 C122.29777344 153.19753906 122.59554687 154.39507812 122.90234375 155.62890625 C126.31658203 171.22111885 126.60672392 187.63266434 122 203 C121.80132324 203.66451172 121.60264648 204.32902344 121.39794922 205.01367188 C116.72610215 220.25754141 109.74351689 233.07303203 99 245 C98.30261719 245.77988281 97.60523438 246.55976563 96.88671875 247.36328125 C80.43589337 264.77649495 55.48310028 276.37692171 31.5234375 277.18359375 C3.72031762 277.74756863 -21.27048432 269.92414573 -42 251 C-42.83917969 250.25363281 -43.67835938 249.50726563 -44.54296875 248.73828125 C-56.13443726 237.8656635 -63.28653606 224.65072598 -69 210 C-69.33773438 209.14664063 -69.67546875 208.29328125 -70.0234375 207.4140625 C-77.27855431 187.51636591 -76.03447987 163.69465265 -69 144 C-68.5771875 142.78570312 -68.154375 141.57140625 -67.71875 140.3203125 C-65.01295842 133.38278875 -61.47217027 127.43596349 -57.375 121.25 C-49.10440435 108.72331249 -45.84729542 98.306012 -48.49609375 83.1640625 C-51.89642115 61.81316953 -47.34468845 42.71375194 -34.9375 25.06640625 C-27.00690795 14.85576898 -17.53525538 7.70219269 -6 2 C-5.27683594 1.61714844 -4.55367188 1.23429688 -3.80859375 0.83984375 C-2 0 -2 0 0 0 Z " fill="#FCA512" transform="translate(372,220)"/>
<path d="M0 0 C-0.45077228 4.68803174 -1.23838151 8.96401114 -2.52734375 13.49609375 C-4.18161095 20.01260222 -4.38020321 26.11924116 -4.25 32.8125 C-4.24226563 34.43188477 -4.24226563 34.43188477 -4.234375 36.08398438 C-4.18136559 41.48763143 -3.87266495 46.65742525 -3 52 C-2.08387779 61.42794121 -3.22932835 67.39164423 -9 75 C-12.35179318 73.88273561 -13.01707405 73.04550033 -15.1875 70.375 C-25.80718911 58.01473944 -40.6237682 49.56912776 -57.04443359 47.77685547 C-75.13740161 46.44973273 -91.98701656 52.27222106 -105.828125 64.01953125 C-117.82127809 74.9557338 -125.37342419 90.29080724 -126.33984375 106.52734375 C-126.93719903 124.30986387 -121.77223836 141.20815878 -109.6875 154.5625 C-98.11636079 166.7172271 -82.02649848 173.87706496 -65.29467773 174.35546875 C-57.44485771 174.42051128 -50.4147121 173.78051704 -43 171 C-42.0821875 170.66355469 -41.164375 170.32710937 -40.21875 169.98046875 C-36.5195136 168.56136513 -33.30787946 167.20525297 -30 165 C-29.01 165 -28.02 165 -27 165 C-26.79246094 165.825 -26.58492187 166.65 -26.37109375 167.5 C-20.55279554 189.31253221 -10.18296286 207.21087037 6.0625 223 C8 225 8 225 8 227 C2.39 229.97 -3.22 232.94 -9 236 C-10.65 234.68 -12.3 233.36 -14 232 C-20.24816473 231.10740504 -25.19141512 232.82451205 -31.0703125 234.9296875 C-41.86471371 238.21723806 -53.3184898 238.34025946 -64.5 238.3125 C-65.79808594 238.32861328 -67.09617187 238.34472656 -68.43359375 238.36132812 C-77.32338041 238.36576858 -85.39537422 237.1817997 -94 235 C-95.1648291 234.720354 -96.3296582 234.44070801 -97.52978516 234.15258789 C-118.45224993 229.0004269 -136.11308202 217.15263179 -152 203 C-152.66773438 202.40574219 -153.33546875 201.81148437 -154.0234375 201.19921875 C-174.48813379 181.83942391 -189.34728419 150.69389221 -190.31608582 122.63764954 C-190.41147626 118.61233161 -190.43901827 114.58886041 -190.4375 110.5625 C-190.43823517 109.71717712 -190.43897034 108.87185425 -190.43972778 108.00091553 C-190.41022855 95.10103841 -189.69617581 83.15531641 -185 71 C-184.72704102 70.28279785 -184.45408203 69.5655957 -184.17285156 68.82666016 C-182.32722221 64.10265238 -180.24380907 59.54772017 -178 55 C-177.505 53.99453125 -177.01 52.9890625 -176.5 51.953125 C-170.86323663 41.10848243 -163.36919396 31.84583147 -155 23 C-153.86111328 21.76443359 -153.86111328 21.76443359 -152.69921875 20.50390625 C-113.49426939 -20.6259997 -48.88834512 -27.2719046 0 0 Z " fill="#E9F5FE" transform="translate(313,257)"/>
<path d="M0 0 C0.85867676 0.23422668 1.71735352 0.46845337 2.60205078 0.70977783 C5.48752461 1.49974189 8.36867077 2.30443596 11.25 3.109375 C13.31488629 3.67852541 15.3799976 4.24685999 17.4453125 4.81445312 C22.07472735 6.08924952 26.70204123 7.37137212 31.328125 8.65820312 C37.76931261 10.44964821 44.21324257 12.23096742 50.65820312 14.00878525 C58.72221947 16.23329037 66.78487382 18.46270033 74.84692383 20.69432068 C77.23313932 21.35470879 79.61949684 22.01458193 82.00585938 22.67443848 C85.82602045 23.73116301 89.64532239 24.79094513 93.46405029 25.85283661 C94.871069 26.24369115 96.2783247 26.63369387 97.68585205 27.02271271 C105.13626175 29.08268131 112.56526003 31.2100989 119.9609375 33.45898438 C120.96185928 33.75580235 120.96185928 33.75580235 121.98300171 34.05861664 C128.95669351 36.2126189 133.01548139 39.33688986 136.625 45.609375 C139.32095307 51.73654106 140.04600299 58.00314682 138.25 64.484375 C135.65536768 71.08783112 131.29055638 76.15473594 124.9375 79.359375 C115.53209891 82.7820818 106.75262541 80.2770827 97.4609375 77.578125 C96.27650055 77.24518433 95.0920636 76.91224365 93.87173462 76.56921387 C90.11925986 75.51141066 86.37219555 74.4357125 82.625 73.359375 C80.06975505 72.6340606 77.5133711 71.91286144 74.95703125 71.19140625 C68.71742167 69.4276868 62.48214563 67.64927876 56.25 65.859375 C56.27618408 67.0146167 56.30236816 68.1698584 56.3293457 69.36010742 C56.42000348 73.65564526 56.47730551 77.95109894 56.5246582 82.24731445 C56.54976702 84.10488109 56.58386134 85.96234927 56.62719727 87.81958008 C56.68801124 90.49324858 56.7162452 93.16560865 56.73828125 95.83984375 C56.76408768 96.66711472 56.7898941 97.49438568 56.81648254 98.34672546 C56.81857709 102.67513947 56.64733972 104.34643952 53.90698242 107.8840332 C51.25 109.859375 51.25 109.859375 48.25 110.484375 C44.08016785 109.61565997 42.82123939 108.2536682 40.25 104.859375 C39.56667462 101.47973901 39.66704796 98.18215405 39.76171875 94.74609375 C39.76879349 93.77654251 39.77586823 92.80699127 39.78315735 91.80805969 C39.81108126 88.72020363 39.87381697 85.63418025 39.9375 82.546875 C39.96258542 80.44989603 39.98539816 78.35288856 40.00585938 76.25585938 C40.06090162 71.12299491 40.14716141 65.99149536 40.25 60.859375 C39.27877197 60.64023438 38.30754395 60.42109375 37.30688477 60.1953125 C26.13361476 57.63915717 15.07629933 54.72562675 4.03540039 51.65039062 C1.16191684 50.85226918 -1.71482676 50.06669768 -4.59179688 49.28125 C-6.44812799 48.76638633 -8.30425555 48.25078802 -10.16015625 47.734375 C-11.00610855 47.50508301 -11.85206085 47.27579102 -12.72364807 47.03955078 C-19.36454724 45.1675721 -26.66732403 43.00041169 -31.125 37.421875 C-31.58648438 36.86628906 -32.04796875 36.31070313 -32.5234375 35.73828125 C-36.75446106 29.25699994 -36.42032648 22.35175831 -35.75 14.859375 C-34.10675918 8.611124 -30.07901678 4.34331469 -24.75 0.859375 C-16.49385163 -3.52515269 -8.66891808 -2.45441765 0 0 Z " fill="#010100" transform="translate(35.75,74.140625)"/>
<path d="M0 0 C5.35780948 4.49822322 11.60660358 10.23246531 14 17 C13.61005316 20.93196399 12.134311 24.31057992 10.625 27.9375 C7.10641877 37.06350319 5.12421651 45.70990362 4.62109375 55.45703125 C4.52477661 57.19206909 4.52477661 57.19206909 4.42651367 58.9621582 C4.3105622 61.28615929 4.22512919 63.6119224 4.1730957 65.93823242 C3.7910127 73.89799884 3.7910127 73.89799884 1.55249023 77.01660156 C-9.09890485 86.49031683 -23.27657561 88.97185549 -37.03857422 88.19091797 C-49.85665792 86.94325286 -60.91501154 79.1816904 -69.05859375 69.625 C-71.98259316 65.67142334 -74.10635961 61.524964 -76 57 C-76.35191406 56.22269531 -76.70382813 55.44539063 -77.06640625 54.64453125 C-81.04388066 43.3777941 -80.07035502 30.26894731 -75.66796875 19.35546875 C-68.86865981 5.67723367 -58.7462775 -2.51596784 -44.7265625 -8.08984375 C-29.36095254 -13.21905166 -13.07827052 -8.96398177 0 0 Z " fill="#C996E5" transform="translate(280,329)"/>
<path d="M0 0 C4.23560329 0.88241735 5.42713766 2.12292888 8 5.625 C8.75333926 9.56653945 8.6698301 13.46540834 8.62818909 17.46789551 C8.63883067 19.28823453 8.63883067 19.28823453 8.64968723 21.14534807 C8.66424847 24.51116863 8.65636913 27.87558315 8.6389643 31.24130082 C8.62560093 34.87192011 8.64102362 38.50243242 8.65278625 42.13304138 C8.67117504 49.24421461 8.6626424 56.35511325 8.64469803 63.46627796 C8.63067806 69.24512159 8.62677792 75.02389063 8.6301403 80.80274963 C8.63061775 81.62491086 8.63109519 82.44707208 8.6315871 83.29414728 C8.63261342 84.96429997 8.63366878 86.63445265 8.63475286 88.30460531 C8.64332243 103.07633482 8.62663665 117.84793167 8.59692383 132.61962891 C8.56808579 146.95659965 8.56100253 161.2933793 8.57641602 175.63037109 C8.59317323 191.2386507 8.59721729 206.84683955 8.57970566 222.45512152 C8.57786125 224.11916446 8.57602652 225.78320741 8.57420158 227.44725037 C8.57328949 228.26601262 8.5723774 229.08477487 8.57143768 229.92834809 C8.56582929 235.70090993 8.56914227 241.4734275 8.57574654 247.24598694 C8.58347432 254.27989571 8.57674729 261.31361628 8.5515715 268.34748709 C8.53906339 271.93700757 8.53294553 275.52623486 8.54411316 279.11576653 C8.555984 283.00472736 8.53692106 286.89318097 8.5146637 290.78210449 C8.52702485 292.48855975 8.52702485 292.48855975 8.53963572 294.22948885 C8.45873715 301.85561148 8.45873715 301.85561148 6.09283352 305.82367706 C3.84502002 307.75839283 2.92928862 308.30721267 0 308.25 C-0.66 308.26289063 -1.32 308.27578125 -2 308.2890625 C-5.32964503 307.1835163 -6.19832158 305.64675374 -8 302.625 C-8.6089397 298.68215019 -8.54351469 294.76498103 -8.5146637 290.78210449 C-8.52160922 289.56854515 -8.52855475 288.3549858 -8.53571075 287.10465193 C-8.55084563 283.73902686 -8.54802862 280.37428473 -8.53755772 277.00869918 C-8.53056993 273.37807989 -8.54656035 269.74755129 -8.55955505 266.11695862 C-8.58120696 259.00583382 -8.58106523 251.89486898 -8.57292951 244.78372204 C-8.56663222 239.00488242 -8.56776404 233.22608949 -8.57420158 227.44725037 C-8.57510324 226.62508914 -8.57600489 225.80292792 -8.57693387 224.95585272 C-8.57878505 223.28570003 -8.58064761 221.61554736 -8.58252143 219.94539469 C-8.59910386 204.28068478 -8.59037674 188.61606491 -8.57353585 172.9513604 C-8.55883646 158.61545485 -8.57346983 144.27975883 -8.60230602 129.94388026 C-8.63168737 115.22752343 -8.64267612 100.51126336 -8.63312382 85.79487848 C-8.63210125 84.13083555 -8.63110664 82.4667926 -8.6301403 80.80274963 C-8.62966391 79.98398738 -8.62918752 79.16522513 -8.6286967 78.32165191 C-8.626531 72.54906838 -8.6363448 66.7765763 -8.65091133 61.00401306 C-8.66841305 53.97008706 -8.66834851 46.9364283 -8.64555968 39.90251291 C-8.6343979 36.31292267 -8.63129796 32.72380365 -8.64986038 29.13423347 C-8.66971282 25.24520628 -8.65092406 21.35691974 -8.62818909 17.46789551 C-8.64002482 16.33025867 -8.65186054 15.19262183 -8.66405493 14.02051115 C-8.57322195 6.40524542 -8.57322195 6.40524542 -5.64823818 2.42388153 C-3 0.625 -3 0.625 0 0 Z " fill="#000000" transform="translate(84,202.375)"/>
<path d="M0 0 C21.48487065 7.16162355 34.89166271 21.18018854 45 41 C46.31698359 43.96672817 47.26786073 46.84024107 48 50 C48.20238281 50.86367188 48.40476562 51.72734375 48.61328125 52.6171875 C50.47676701 61.9726466 51.09522175 72.48082291 49.5078125 81.9296875 C47.27936077 95.40324947 48.25226548 107.45040848 56.25 118.6875 C56.84941406 119.50992188 57.44882812 120.33234375 58.06640625 121.1796875 C64.57427315 130.67197013 69.29455402 140.79919226 72 152 C72.44666016 153.79630859 72.44666016 153.79630859 72.90234375 155.62890625 C76.31658203 171.22111885 76.60672392 187.63266434 72 203 C71.80132324 203.66451172 71.60264648 204.32902344 71.39794922 205.01367188 C66.72610215 220.25754141 59.74351689 233.07303203 49 245 C47.95392578 246.16982422 47.95392578 246.16982422 46.88671875 247.36328125 C37.52049137 257.27744149 22.80562603 268.29963305 9 271 C9 270.34 9 269.68 9 269 C10.54287884 267.95825306 12.13800326 266.9937241 13.75 266.0625 C37.89503416 251.11557409 52.41803329 226.34774017 59.0546875 199.3125 C65.63398645 170.36991087 58.44054062 141.72616229 43 117 C41.43603265 114.59926031 39.85755554 112.2252415 38.19140625 109.89453125 C34.96000116 104.75606742 34.71558918 100.40645966 34.8125 94.5 C34.81314453 93.75363281 34.81378906 93.00726563 34.81445312 92.23828125 C34.83808441 89.27124211 34.89678646 86.501439 35.49609375 83.58984375 C39.49218787 63.05177862 33.5153782 42.39561573 22.94140625 24.87890625 C17.17655854 16.33022866 9.66291955 9.89662759 2 3 C1.67 34.68 1.34 66.36 1 99 C0.67 99 0.34 99 0 99 C0 66.33 0 33.66 0 0 Z " fill="#F79501" transform="translate(422,220)"/>
<path d="M0 0 C0.89432739 -0.00630432 1.78865479 -0.01260864 2.71008301 -0.019104 C4.16166809 -0.01303131 4.16166809 -0.01303131 5.64257812 -0.00683594 C6.6338269 -0.00874939 7.62507568 -0.01066284 8.6463623 -0.01263428 C10.7445501 -0.01399679 12.84274631 -0.01029576 14.94091797 -0.00195312 C18.16067358 0.00874535 21.37987121 -0.0018463 24.59960938 -0.01464844 C26.63476686 -0.01332685 28.669924 -0.01076449 30.70507812 -0.00683594 C31.67280151 -0.0108844 32.6405249 -0.01493286 33.63757324 -0.019104 C34.53190063 -0.01279968 35.42622803 -0.00649536 36.34765625 0 C37.13660278 0.00159119 37.92554932 0.00318237 38.73840332 0.00482178 C40.67382812 0.25878906 40.67382812 0.25878906 42.67382812 2.25878906 C42.98162842 4.13124084 42.98162842 4.13124084 43.05957031 6.4387207 C43.10775909 7.73761986 43.10775909 7.73761986 43.15692139 9.0627594 C43.2467391 13.08485245 43.32821405 17.10628183 43.37402344 21.12915039 C43.40681467 23.23084311 43.46095378 25.33232849 43.53808594 27.43286133 C44.10336455 42.92518185 41.89290846 52.71856792 32.67382812 65.25878906 C32.34382813 65.91878906 32.01382813 66.57878906 31.67382812 67.25878906 C27.40840013 67.8169965 23.15222279 68.14920994 18.86132812 68.44628906 C17.66572266 68.60548828 16.47011719 68.7646875 15.23828125 68.92871094 C11.06738487 69.1446429 8.52942384 68.91275278 4.67382812 67.25878906 C-3.15881716 60.0951464 -6.7417819 49.77705395 -7.40098572 39.42774963 C-7.5186034 34.3385259 -7.34826236 29.28076913 -7.13867188 24.19628906 C-7.10052168 22.0837424 -7.06729279 19.97110095 -7.0390625 17.85839844 C-6.96374264 14.04007947 -6.88474603 10.22289376 -6.7277832 6.40698242 C-6.69904617 5.65154648 -6.67030914 4.89611053 -6.64070129 4.11778259 C-5.95753474 0.07999748 -3.51643594 0.00709212 0 0 Z " fill="#FCA412" transform="translate(379.326171875,14.7412109375)"/>
<path d="M0 0 C6.83529593 5.49795542 12.17008269 11.55087992 13.2578125 20.44140625 C13.70783908 29.35388909 11.98336195 35.96362842 6.875 43.3125 C3.92186365 46.5246834 0.60345454 48.82158498 -3 51.25 C-5.89363242 54.05852558 -5.89825127 56.38218875 -6.125 60.3125 C-9.3384038 61.25984782 -12.27972447 61.47702421 -15.625 61.5 C-16.5634375 61.51417969 -17.501875 61.52835937 -18.46875 61.54296875 C-21.23803293 61.30269273 -22.8510072 60.90168117 -25.125 59.3125 C-25.351875 58.260625 -25.57875 57.20875 -25.8125 56.125 C-26.87891787 51.47503379 -30.08242157 49.80124381 -33.80078125 47.13671875 C-38.70890854 43.2844575 -42.21094797 38.2451952 -44.125 32.3125 C-45.18803337 22.18896127 -44.05411483 13.27373003 -37.875 5 C-26.75490981 -5.86736087 -13.47014478 -7.27387818 0 0 Z " fill="#FDE3C0" transform="translate(413.125,329.6875)"/>
<path d="M0 0 C3.75194116 0.84286412 7.39536251 1.97274428 11.0625 3.125 C13.20877903 3.77626649 15.35593892 4.42463609 17.50390625 5.0703125 C19.13030029 5.55999512 19.13030029 5.55999512 20.78955078 6.05957031 C25.66432652 7.48752743 30.57742594 8.74881561 35.5 10 C44.34696059 12.26486426 53.11554287 14.73910238 61.87451172 17.32202148 C69.1104295 19.45460823 76.36011599 21.5307571 83.625 23.5625 C84.65753906 23.85157227 85.69007812 24.14064453 86.75390625 24.43847656 C91.85550004 25.86146829 96.96184991 27.26350522 102.078125 28.6328125 C128.05888338 35.58832508 128.05888338 35.58832508 131 40 C131.4809429 43.68722891 131.22917499 45.56074794 129.5 48.875 C126.60077749 51.33933913 125.07035047 51.34088331 121.359375 51.23583984 C116.86868511 50.78695673 112.59022441 49.57307514 108.25 48.375 C107.23776367 48.10357178 106.22552734 47.83214355 105.18261719 47.55249023 C98.02541696 45.61310178 90.92783802 43.5005951 83.84057617 41.32177734 C76.79767189 39.18102228 69.6935156 37.32301888 62.5625 35.5 C51.95576547 32.78718192 41.42000652 29.89963458 30.90820312 26.84179688 C23.86794396 24.80395154 16.81511009 22.80949131 9.76586914 20.80297852 C7.54256712 20.16854699 5.32057518 19.52950139 3.10009766 18.88525391 C1.09083353 18.31149491 -0.92503556 17.76019867 -2.94775391 17.23583984 C-3.83769043 16.99687988 -4.72762695 16.75791992 -5.64453125 16.51171875 C-6.41772705 16.31408936 -7.19092285 16.11645996 -7.98754883 15.9128418 C-10.56782015 14.74243849 -11.54942557 13.40693531 -13 11 C-13.68543938 6.97304363 -13.34966143 5.50263831 -11 2.125 C-7.2200651 -0.55245388 -4.44168139 -0.50271047 0 0 Z " fill="#F9CA82" transform="translate(28,88)"/>
<path d="M0 0 C11.88 0 23.76 0 36 0 C36 9.9 36 19.8 36 30 C32.535 31.2375 32.535 31.2375 29 32.5 C20.32074128 35.68468427 12.18819947 39.73291013 4 44 C2.68 44.66 1.36 45.32 0 46 C0 30.82 0 15.64 0 0 Z " fill="#86C4F7" transform="translate(173,202)"/>
<path d="M0 0 C12.21 0 24.42 0 37 0 C37 13.53 37 27.06 37 41 C33.39413917 39.79804639 30.10548392 38.68135103 26.6796875 37.16015625 C25.8959375 36.81919922 25.1121875 36.47824219 24.3046875 36.12695312 C22.70598611 35.42655742 21.1095507 34.72096261 19.515625 34.00976562 C12.95073298 31.17103788 7.17595091 29.79398773 0 28 C0 18.76 0 9.52 0 0 Z " fill="#88C7FB" transform="translate(282,202)"/>
<path d="M0 0 C0.67544861 -0.00861557 1.35089722 -0.01723114 2.04681396 -0.02610779 C4.26858375 -0.0487197 6.48908738 -0.0420393 8.7109375 -0.03295898 C10.26123427 -0.03819644 11.81152784 -0.04447337 13.36181641 -0.05174255 C16.60659815 -0.0621376 19.8509411 -0.05759811 23.09570312 -0.04296875 C27.24889485 -0.02577401 31.40070397 -0.04928753 35.55374146 -0.08445835 C38.75375492 -0.10644315 41.95343801 -0.10498856 45.15350342 -0.09669304 C46.68448402 -0.09587424 48.21548906 -0.10272402 49.74639893 -0.11746407 C51.88908334 -0.13493407 54.02928924 -0.12035354 56.171875 -0.09765625 C57.3892334 -0.09669449 58.6065918 -0.09573273 59.86083984 -0.09474182 C64.00305838 0.71208537 65.49625181 2.26779844 68.0859375 5.53344727 C68.6484375 8.59594727 68.6484375 8.59594727 68.0859375 11.53344727 C65.83066489 14.58442361 64.64490311 15.44677032 60.85374451 16.03465271 C59.57483841 16.03481888 58.29593231 16.03498505 56.97827148 16.03515625 C55.91660767 16.04326073 55.91660767 16.04326073 54.83349609 16.05152893 C52.49924619 16.06401366 50.16623023 16.04753012 47.83203125 16.02954102 C46.20825638 16.02969599 44.58448114 16.03118478 42.96070862 16.03395081 C39.560309 16.03533461 36.16033129 16.02277884 32.76000977 16 C28.39950299 15.97159246 24.03969598 15.97435889 19.67913723 15.98709011 C16.32739778 15.99404122 12.97582039 15.98626497 9.62410164 15.97383308 C8.01613041 15.96931462 6.40814181 15.96898524 4.80016899 15.97289848 C2.55448538 15.9758058 0.30977026 15.95932909 -1.93579102 15.9375 C-3.85295677 15.92939552 -3.85295677 15.92939552 -5.80885315 15.92112732 C-8.9140625 15.53344727 -8.9140625 15.53344727 -10.81895447 14.25428772 C-12.36518818 11.82455344 -12.37723628 9.39231429 -12.5078125 6.56860352 C-10.79372035 0.69332715 -5.32514281 0.0271147 0 0 Z " fill="#080500" transform="translate(368.9140625,431.466552734375)"/>
<path d="M0 0 C14.19 0 28.38 0 43 0 C43 8.25 43 16.5 43 25 C39.85210937 24.98259766 39.85210937 24.98259766 36.640625 24.96484375 C34.56526846 24.95700294 32.48991368 24.95095491 30.41455078 24.94506836 C28.99299356 24.94009788 27.57144128 24.93331916 26.14990234 24.92456055 C24.08429733 24.91216983 22.01876092 24.90669895 19.953125 24.90234375 C18.71723633 24.89710693 17.48134766 24.89187012 16.20800781 24.88647461 C10.79457297 25.03252051 5.39669841 25.55027513 0 26 C0 17.42 0 8.84 0 0 Z " fill="#87C5FA" transform="translate(224,202)"/>
<path d="M0 0 C3.48670834 1.1094072 6.77484237 2.26337666 10 4 C9.54922772 8.68803174 8.76161849 12.96401114 7.47265625 17.49609375 C5.81838905 24.01260222 5.61979679 30.11924116 5.75 36.8125 C5.75515625 37.89208984 5.7603125 38.97167969 5.765625 40.08398438 C5.81863441 45.48763143 6.12733505 50.65742525 7 56 C7.91612221 65.42794121 6.77067165 71.39164423 1 79 C-2.48872415 77.83709195 -3.09976864 76.86032391 -5.1875 73.9375 C-5.98220703 72.83728516 -5.98220703 72.83728516 -6.79296875 71.71484375 C-7.19128906 71.14894531 -7.58960938 70.58304687 -8 70 C-7.505 69.505 -7.505 69.505 -7 69 C-6.89931538 66.57172387 -6.8612824 64.17801589 -6.875 61.75 C-6.87113281 61.08097656 -6.86726563 60.41195312 -6.86328125 59.72265625 C-6.86872481 56.95188459 -6.93356415 54.32264617 -7.4934082 51.60375977 C-10.76164556 34.8058073 -8.66853198 14.86034054 0 0 Z " fill="#C5EBFA" transform="translate(303,253)"/>
<path d="M0 0 C6.37203593 -0.0505963 12.7440203 -0.08568957 19.11621094 -0.10986328 C21.28517594 -0.11993789 23.45412731 -0.13359798 25.62304688 -0.15087891 C28.73571126 -0.17506323 31.84819651 -0.18646832 34.9609375 -0.1953125 C35.934935 -0.20563507 36.9089325 -0.21595764 37.91244507 -0.22659302 C39.26361923 -0.22681961 39.26361923 -0.22681961 40.64208984 -0.22705078 C41.43706879 -0.231492 42.23204773 -0.23593323 43.05111694 -0.24050903 C45 0 45 0 47 2 C47.30780029 3.87245178 47.30780029 3.87245178 47.38574219 6.17993164 C47.43393097 7.4788308 47.43393097 7.4788308 47.48309326 8.80397034 C47.57291097 12.82606338 47.65438593 16.84749276 47.70019531 20.87036133 C47.73298654 22.97205405 47.78712565 25.07353943 47.86425781 27.17407227 C48.42953642 42.66639279 46.21908034 52.45977885 37 65 C36.67 65.66 36.34 66.32 36 67 C27.09 67 18.18 67 9 67 C9 66.67 9 66.34 9 66 C10.46759766 66.17015625 10.46759766 66.17015625 11.96484375 66.34375 C16.18612829 66.50977889 20.02505764 66.4856881 24 65 C26.25318213 62.7210856 27.47640981 61.19106069 28.96875 58.46875 C29.35324814 57.77177002 29.73774628 57.07479004 30.13389587 56.35668945 C35.07039089 46.19618156 33.95236515 34.99795704 33.5625 24 C33.51724935 21.76049823 33.47620363 19.52090738 33.43945312 17.28125 C33.34906797 11.85010665 33.17294036 6.43160829 33 1 C22.11 1 11.22 1 0 1 C0 0.67 0 0.34 0 0 Z " fill="#F49301" transform="translate(375,15)"/>
<path d="M0 0 C2.95164119 2.74807973 5.2946915 5.32012377 7 9 C6.5239474 12.92911019 5.13834569 16.30088445 3.625 19.9375 C0.10641877 29.06350319 -1.87578349 37.70990362 -2.37890625 47.45703125 C-2.44311768 48.61372314 -2.5073291 49.77041504 -2.57348633 50.9621582 C-2.6894378 53.28615929 -2.77487081 55.6119224 -2.8269043 57.93823242 C-3.21094637 65.93881133 -3.21094637 65.93881133 -5.53540039 69.06494141 C-8.6949869 71.83575148 -11.94863044 73.77231225 -16 75 C-22.39535296 55.81394111 -14.87230937 30.72002013 -7 13 C-5.50140951 10.16302469 -3.94451435 7.4784172 -2.1640625 4.8125 C-0.82872063 2.89713083 -0.82872063 2.89713083 0 0 Z " fill="#BB7EDE" transform="translate(287,337)"/>
<path d="M0 0 C8.73548809 -0.47648117 16.07790631 1.43222899 23 7 C29.76895909 13.66706078 33.08074507 19.14665778 33.5625 28.6875 C33.36962895 36.91958729 30.83831457 43.82499117 25.21875 49.9375 C22.65840916 52.18341302 19.9485535 54.03467047 17.125 55.9375 C14.23136758 58.74602558 14.22674873 61.06968875 14 65 C10.73774826 65.97403725 7.77261339 66.13415799 4.375 66.125 C2.93253906 66.12886719 2.93253906 66.12886719 1.4609375 66.1328125 C-1 66 -1 66 -3 65 C-3 64.34 -3 63.68 -3 63 C-1.33204692 61.87517043 0.38675195 60.8253192 2.125 59.8125 C10.34564435 54.70493663 15.53791436 48.46778294 18.58984375 39.2109375 C20.36170938 29.65973803 19.91596474 19.06653554 14.5703125 10.78515625 C13.11337698 8.78096385 11.62472562 6.87012688 10 5 C9.51917969 4.44441406 9.03835938 3.88882812 8.54296875 3.31640625 C6.03671977 1.17816345 3.18633464 1.30059761 0 1 C0 0.67 0 0.34 0 0 Z " fill="#F9CEA0" transform="translate(393,325)"/>
<path d="M0 0 C0.20753906 0.825 0.41507812 1.65 0.62890625 2.5 C6.44720446 24.31253221 16.81703714 42.21087037 33.0625 58 C35 60 35 60 35 62 C32.33203125 62.7421875 32.33203125 62.7421875 29 63 C26.32421875 61.4453125 26.32421875 61.4453125 23.6875 59.125 C22.73359375 58.28582031 21.7796875 57.44664062 20.796875 56.58203125 C19.87390625 55.72996094 18.9509375 54.87789063 18 54 C17.22140625 53.30261719 16.4428125 52.60523438 15.640625 51.88671875 C3.72831251 40.67140327 -5.70336422 25.49265967 -11 10 C-11 8.68 -11 7.36 -11 6 C-11.66 5.67 -12.32 5.34 -13 5 C-11.39967863 4.15930585 -9.79458829 3.32768495 -8.1875 2.5 C-6.84751953 1.80390625 -6.84751953 1.80390625 -5.48046875 1.09375 C-3 0 -3 0 0 0 Z " fill="#C4EAF9" transform="translate(286,422)"/>
<path d="M0 0 C6.6 0 13.2 0 20 0 C20 9.24 20 18.48 20 28 C13.4 28 6.8 28 0 28 C0 18.76 0 9.52 0 0 Z " fill="#667580" transform="translate(387,97)"/>
<path d="M0 0 C12.21 0 24.42 0 37 0 C37 13.53 37 27.06 37 41 C33.18809343 39.72936448 29.73849288 38.51749676 26.125 36.875 C25.34382813 36.52179688 24.56265625 36.16859375 23.7578125 35.8046875 C23.17773438 35.53914063 22.59765625 35.27359375 22 35 C22.99 34.505 22.99 34.505 24 34 C24 23.11 24 12.22 24 1 C16.08 1 8.16 1 0 1 C0 0.67 0 0.34 0 0 Z " fill="#5EB1F6" transform="translate(282,202)"/>
<path d="M0 0 C6.93 0 13.86 0 21 0 C21 7.92 21 15.84 21 24 C14.07 24 7.14 24 0 24 C0 16.08 0 8.16 0 0 Z " fill="#5D6B75" transform="translate(387,254)"/>
<path d="M0 0 C6.6 0 13.2 0 20 0 C20 7.59 20 15.18 20 23 C13.4 23 6.8 23 0 23 C0 15.41 0 7.82 0 0 Z " fill="#63727C" transform="translate(387,216)"/>
<path d="M0 0 C6.6 0 13.2 0 20 0 C20 7.59 20 15.18 20 23 C13.4 23 6.8 23 0 23 C0 15.41 0 7.82 0 0 Z " fill="#64737E" transform="translate(387,178)"/>
<path d="M0 0 C6.6 0 13.2 0 20 0 C20 7.59 20 15.18 20 23 C13.4 23 6.8 23 0 23 C0 15.41 0 7.82 0 0 Z " fill="#667580" transform="translate(387,140)"/>
<path d="M0 0 C6.6 0 13.2 0 20 0 C20 5.94 20 11.88 20 18 C13.4 18 6.8 18 0 18 C0 12.06 0 6.12 0 0 Z " fill="#64737E" transform="translate(387,293)"/>
<path d="M0 0 C1.75406653 0.39920135 3.50318982 0.82015666 5.25 1.25 C6.22453125 1.48203125 7.1990625 1.7140625 8.203125 1.953125 C11.36496745 3.13660793 12.89253478 4.38536441 15 7 C15.63656938 10.73984509 15.25584708 12.50962644 13.5 15.875 C10.80407565 18.1665357 10.23282073 18.32615897 6.875 18.375 C3 18 3 18 1 17 C1.01740234 16.03900391 1.01740234 16.03900391 1.03515625 15.05859375 C1.08883119 9.91346778 0.88169578 5.06975076 0 0 Z " fill="#FABE63" transform="translate(144,121)"/>
<path d="M0 0 C2.31 0 4.62 0 7 0 C7 9.24 7 18.48 7 28 C4.69 28 2.38 28 0 28 C0 18.76 0 9.52 0 0 Z " fill="#758691" transform="translate(387,97)"/>
<path d="M0 0 C2.31 0 4.62 0 7 0 C7 7.59 7 15.18 7 23 C4.69 23 2.38 23 0 23 C0 15.41 0 7.82 0 0 Z " fill="#748591" transform="translate(387,140)"/>
<path d="M0 0 C1.98 0 3.96 0 6 0 C6 7.26 6 14.52 6 22 C4.02 22 2.04 22 0 22 C0 14.74 0 7.48 0 0 Z " fill="#7A8C98" transform="translate(388,255)"/>
<path d="M0 0 C1.98 0 3.96 0 6 0 C6 7.26 6 14.52 6 22 C4.02 22 2.04 22 0 22 C0 14.74 0 7.48 0 0 Z " fill="#7A8C98" transform="translate(388,217)"/>
<path d="M0 0 C1.98 0 3.96 0 6 0 C6 7.26 6 14.52 6 22 C4.02 22 2.04 22 0 22 C0 14.74 0 7.48 0 0 Z " fill="#7A8C98" transform="translate(388,179)"/>
<path d="M0 0 C2.31 0 4.62 0 7 0 C7.02684312 2.81256281 7.04676188 5.62487241 7.0625 8.4375 C7.07087891 9.23994141 7.07925781 10.04238281 7.08789062 10.86914062 C7.0965143 12.91295221 7.0522815 14.95683902 7 17 C6.67 17.33 6.34 17.66 6 18 C4.02 18 2.04 18 0 18 C0 12.06 0 6.12 0 0 Z " fill="#748591" transform="translate(387,293)"/>
</svg>
