<?xml version="1.0" encoding="UTF-8"?>
<svg version="1.1" xmlns="http://www.w3.org/2000/svg" width="512" height="512">
<path d="M0 0 C9.46947826 6.53969493 16.88897922 14.80199973 23.8125 23.91796875 C26.09339797 26.35286895 27.79492545 27.23689262 30.953125 28.203125 C35.04409222 25.16112374 38.13548498 21.87450856 41.328125 17.890625 C51.22393533 5.57878071 61.92556059 -3.90057558 77.953125 -6.796875 C91.54726865 -8.25053177 102.80930715 -7.57084089 113.953125 0.765625 C124.28022348 9.55739585 131.53570448 19.40439923 137.953125 31.203125 C138.29053711 31.81752441 138.62794922 32.43192383 138.97558594 33.06494141 C159.19963551 70.34625036 168.95575072 113.77653338 177.015625 155.140625 C177.16791565 155.91914825 177.3202063 156.69767151 177.47711182 157.49978638 C177.90435277 159.70044335 178.32339512 161.90245233 178.73828125 164.10546875 C178.97426025 165.35835693 179.21023926 166.61124512 179.45336914 167.90209961 C179.88517941 170.75432564 179.99222625 173.33177133 179.953125 176.203125 C181.0506736 176.19646317 181.0506736 176.19646317 182.1703949 176.18966675 C189.09887383 176.14943039 196.02733507 176.11905992 202.95590115 176.09950066 C206.51711997 176.08910668 210.07824147 176.07502867 213.6394043 176.05224609 C217.74268477 176.02616251 221.84586454 176.016616 225.94921875 176.0078125 C227.21519394 175.99748993 228.48116913 175.98716736 229.7855072 175.97653198 C240.78142898 175.97514841 250.11984343 177.12450208 258.953125 184.203125 C265.27742411 191.60972684 268.0572235 199.49593949 267.953125 209.203125 C266.39589905 218.26098927 262.16795452 224.32644951 255.5390625 230.4921875 C248.35433228 235.24583076 239.69428323 237.27621528 231.453125 239.453125 C229.97199219 239.8553125 229.97199219 239.8553125 228.4609375 240.265625 C221.24473852 242.203125 221.24473852 242.203125 218.953125 242.203125 C218.99953125 242.78578125 219.0459375 243.3684375 219.09375 243.96875 C219.66220175 256.88072553 214.2928143 267.4579542 205.828125 276.890625 C199.35727124 283.00671704 191.63668537 286.05394211 182.953125 287.390625 C179.71066162 287.88901916 179.71066162 287.88901916 176.953125 289.203125 C174.6816512 292.69610073 173.69384084 296.12572662 172.953125 300.203125 C174.04560547 300.58984375 174.04560547 300.58984375 175.16015625 300.984375 C191.57740367 308.14826478 204.05980372 326.35663646 210.89453125 342.34375 C220.11154119 367.23988018 218.33534712 390.76954152 208.953125 415.203125 C209.55785645 415.78690918 210.16258789 416.37069336 210.78564453 416.97216797 C213.06406941 419.18166864 215.33277584 421.40061448 217.59570312 423.62597656 C218.56955984 424.57994556 219.54700353 425.53026914 220.52832031 426.4765625 C229.30905311 434.95203465 236.9662968 443.08772152 237.328125 455.765625 C237.26744268 464.15712276 234.91161252 469.6049645 229.640625 476.015625 C221.35458009 482.76008016 214.70464324 485.20260213 203.953125 484.203125 C192.46233003 481.40213827 184.99468403 472.39777352 176.953125 464.265625 C176.17839844 463.48638672 175.40367187 462.70714844 174.60546875 461.90429688 C172.71901743 460.0062008 170.83496255 458.10579351 168.953125 456.203125 C168.28925781 456.40808594 167.62539063 456.61304688 166.94140625 456.82421875 C166.05839844 457.09363281 165.17539062 457.36304688 164.265625 457.640625 C162.96044922 458.04087891 162.96044922 458.04087891 161.62890625 458.44921875 C159.08286579 459.16657029 156.5527827 459.720666 153.953125 460.203125 C154.1696875 460.84636719 154.38625 461.48960937 154.609375 462.15234375 C157.58625464 471.81342073 159.09226959 481.94193422 154.203125 491.2109375 C149.80481784 498.22073953 145.0075923 502.71475188 136.953125 505.203125 C130.14095091 506.15244031 123.19257107 505.88741268 116.33203125 505.85009766 C114.23842612 505.85687993 112.14482696 505.86578648 110.05123901 505.87664795 C104.38590138 505.89937506 98.72102078 505.89063197 93.05567551 505.87475252 C87.11596225 505.86205947 81.17628712 505.87384309 75.23657227 505.88168335 C65.26343794 505.89076997 55.29048897 505.8788178 45.31738281 505.85498047 C33.80083517 505.82777127 22.28473017 505.83658611 10.76819324 505.8641125 C0.8655434 505.88683059 -9.0369735 505.88999039 -18.939641 505.87691915 C-24.84760095 505.86913955 -30.7553531 505.86804215 -36.66329956 505.88460159 C-42.21868398 505.89908625 -47.77349984 505.88895117 -53.32882309 505.86013031 C-55.36289401 505.8535409 -57.3970131 505.85538026 -59.43106461 505.86644363 C-80.69735034 505.97141436 -80.69735034 505.97141436 -88.89356995 498.52547646 C-94.44063888 492.81853863 -97.24456309 486.11066963 -97.609375 478.203125 C-97.18337395 465.19487871 -91.98131854 450.79652929 -85.55078125 439.59765625 C-83.00045588 435.13977043 -81.59232318 432.29739555 -82.609375 427.140625 C-83.06061908 425.486918 -83.53904687 423.84034174 -84.046875 422.203125 C-90.22023621 398.75292652 -85.56191275 376.90309169 -76.046875 355.203125 C-76.71332031 354.58308594 -77.37976563 353.96304687 -78.06640625 353.32421875 C-96.57656364 335.53893466 -108.96737173 313.44163482 -117.046875 289.203125 C-119.5457484 288.46639337 -121.93877905 287.89859752 -124.484375 287.390625 C-135.28541434 284.94411299 -144.21015419 280.1727897 -151.046875 271.203125 C-155.6427553 263.33846938 -159.23290856 256.15564218 -159.109375 246.890625 C-159.10035156 246.00761719 -159.09132812 245.12460938 -159.08203125 244.21484375 C-159.07042969 243.55097656 -159.05882812 242.88710937 -159.046875 242.203125 C-160.10003906 241.97238281 -161.15320313 241.74164063 -162.23828125 241.50390625 C-194.21923865 234.33981359 -194.21923865 234.33981359 -204.046875 221.203125 C-208.07519796 214.08642111 -209.06269545 205.9855809 -206.984375 198.078125 C-203.94279372 189.52367765 -199.7479555 184.00727786 -191.90234375 179.39453125 C-183.42856583 175.85896043 -175.08160268 175.93411284 -166.04296875 176.0078125 C-164.72394058 176.0106424 -163.40491241 176.01347229 -162.0459137 176.01638794 C-158.56892064 176.02396026 -155.09209935 176.04355223 -151.61517334 176.0657959 C-148.05532147 176.08639371 -144.49544138 176.09541921 -140.93554688 176.10546875 C-133.97258648 176.1268054 -127.00973902 176.16086223 -120.046875 176.203125 C-119.9953981 175.51841629 -119.9439212 174.83370758 -119.8908844 174.12825012 C-119.3807172 167.90359403 -118.54969329 161.88536436 -117.26171875 155.77734375 C-117.08533371 154.92005173 -116.90894867 154.0627597 -116.72721863 153.17948914 C-116.1546045 150.4147136 -115.57097984 147.65246406 -114.984375 144.890625 C-114.78301941 143.93738342 -114.58166382 142.98414185 -114.37420654 142.00201416 C-93.72636888 44.59122225 -93.72636888 44.59122225 -63.046875 9.203125 C-62.25603516 8.28853516 -62.25603516 8.28853516 -61.44921875 7.35546875 C-45.32516814 -9.9883682 -20.08174198 -11.8430786 0 0 Z " fill="#020101" transform="translate(226.046875,6.796875)"/>
<path d="M0 0 C8.76888196 5.20335309 15.54254879 13.64932413 22.0078125 21.41015625 C26.36204324 26.63328057 29.88478221 30.34386737 36.79296875 31.4453125 C43.2781352 31.82340839 47.6739756 30.93555036 52.84765625 26.96875 C57.59345265 22.62776745 61.70497831 17.76694174 65.8046875 12.82421875 C73.52303167 3.66535413 82.06429165 -2.96567576 94.2734375 -4.37890625 C103.52886404 -4.71330977 109.92729221 -2.72421103 117.0625 3.125 C152.95658125 36.89517112 162.64641889 99.89286703 171.875 145.875 C172.03242676 146.65727966 172.18985352 147.43955933 172.35205078 148.24554443 C172.79852974 150.47283358 173.24020065 152.70100921 173.6796875 154.9296875 C173.93476074 156.22116699 174.18983398 157.51264648 174.45263672 158.84326172 C175 162 175 162 175 165 C173.99263385 165.00146656 172.9852677 165.00293312 171.9473753 165.00444412 C147.46141872 165.04100249 122.97559932 165.10040378 98.48975658 165.18390274 C86.64868625 165.22375034 74.80768293 165.25611372 62.96655273 165.27099609 C52.64853342 165.283983 42.33066119 165.31087163 32.0127247 165.35461307 C26.54696994 165.37729465 21.08139705 165.39290668 15.61559105 165.39188385 C10.47489359 165.39114118 5.3345992 165.40893293 0.19400597 165.44116783 C-1.69624495 165.44971237 -3.58654084 165.45138613 -5.47680283 165.44580269 C-8.05111843 165.43920944 -10.62413392 165.45696942 -13.19831848 165.48101807 C-13.95220582 165.47325765 -14.70609316 165.46549723 -15.48282558 165.45750165 C-18.73374395 165.51153703 -20.53609568 165.58016172 -22.99541759 167.80587387 C-24.52390618 171.14427271 -23.90271844 173.51808601 -23 177 C-19.82014612 179.11990258 -19.051706 179.25082262 -15.41251564 179.2561264 C-13.99218086 179.26547455 -13.99218086 179.26547455 -12.54315245 179.27501154 C-11.50085459 179.27171257 -10.45855672 179.26841359 -9.38467407 179.26501465 C-8.27899594 179.26939592 -7.1733178 179.27377719 -6.03413427 179.27829123 C-2.30998777 179.29066385 1.41401885 179.28879953 5.13818359 179.28710938 C7.80043685 179.29313024 10.46267645 179.29995055 13.12492371 179.30781555 C18.86743732 179.32328444 24.60992633 179.33168317 30.35245895 179.33552551 C38.66068385 179.34126869 46.96884251 179.3598486 55.27703817 179.38196605 C68.76313182 179.41770287 82.2492292 179.44600839 95.73535156 179.46826172 C96.54280011 179.46959671 97.35024866 179.4709317 98.18216534 179.47230715 C103.91310992 179.48173404 109.6440549 179.49089665 115.375 179.5 C121.91796906 179.51039489 128.46093789 179.52091237 135.00390625 179.53173828 C136.21269717 179.53373439 136.21269717 179.53373439 137.44590811 179.53577083 C150.87850372 179.55819411 164.31107108 179.58838698 177.74363768 179.62413073 C186.03154506 179.64580586 194.31940846 179.66041917 202.60734262 179.66596949 C208.28593214 179.67021415 213.9644798 179.68144524 219.64304613 179.69819343 C222.92059379 179.70760571 226.19804742 179.71262013 229.47561073 179.71113014 C233.02739979 179.70997556 236.5789501 179.72095105 240.13070679 179.73498535 C241.16854321 179.73168638 242.20637963 179.7283874 243.27566564 179.72498846 C244.22777099 179.73122056 245.17987633 179.73745265 246.16083336 179.7438736 C247.39039664 179.74566486 247.39039664 179.74566486 248.64479959 179.74749231 C254.20254279 180.34335366 257.42467867 182.78468541 260.828125 187.00390625 C262.91711659 190.56215525 262.58193229 192.92647396 262 197 C260.24761891 201.79599034 258.23545622 204.20976795 254 207 C250.07137391 208.52173574 246.05193582 209.66655606 242 210.8125 C240.79867432 211.15796875 239.59734863 211.5034375 238.35961914 211.859375 C203.2552261 221.81044183 167.13535043 228.96048192 131 234 C130.0620459 234.13212891 129.1240918 234.26425781 128.15771484 234.40039062 C48.26198746 245.33873671 -33.45407178 240.86609035 -112 223 C-113.91138168 222.56997165 -115.82283996 222.14028364 -117.734375 221.7109375 C-122.32520325 220.67696361 -126.91257944 219.62859831 -131.49853516 218.57324219 C-133.8036218 218.04500254 -136.11044091 217.52526132 -138.41796875 217.0078125 C-146.39430461 215.20172689 -154.30396344 213.17596792 -162.1875 211 C-163.0731665 210.76289307 -163.95883301 210.52578613 -164.87133789 210.28149414 C-171.52468793 208.40304377 -177.22226692 206.16366977 -181 200 C-182.25383575 196.23849274 -182.75519945 192.88998961 -182 189 C-179.25085507 184.25818626 -176.16740417 181.75654447 -171 180 C-168.42814541 179.74946022 -168.42814541 179.74946022 -165.64219666 179.7484436 C-164.05028252 179.74036934 -164.05028252 179.74036934 -162.4262085 179.73213196 C-160.69530975 179.73831795 -160.69530975 179.73831795 -158.92944336 179.74462891 C-157.09456108 179.73919823 -157.09456108 179.73919823 -155.22261047 179.73365784 C-152.56795816 179.72676671 -149.91355973 179.72337279 -147.25892448 179.72560501 C-143.0609387 179.728443 -138.86312052 179.71406922 -134.66517639 179.69662476 C-122.73017878 179.64964057 -110.79519345 179.62564959 -98.86010742 179.61914062 C-92.26369911 179.61539139 -85.6674813 179.59737673 -79.07115465 179.56404626 C-74.89819198 179.54382318 -70.72572027 179.54146552 -66.55272853 179.55232644 C-63.34879663 179.5555435 -60.14502979 179.53284849 -56.94116211 179.51416016 C-55.78520538 179.52233261 -54.62924866 179.53050507 -53.43826294 179.53892517 C-51.85057854 179.52239143 -51.85057854 179.52239143 -50.2308197 179.50552368 C-48.85234061 179.50388938 -48.85234061 179.50388938 -47.44601345 179.50222206 C-44.21774739 178.83938579 -43.01740273 177.55656157 -41 175 C-40.33319632 171.95720628 -40.33319632 171.95720628 -41 169 C-43.92421329 166.17706548 -46.03909878 165.6181932 -50.04394531 165.56762695 C-51.04468079 165.54783279 -52.04541626 165.52803864 -53.07647705 165.50764465 C-54.14952087 165.50125473 -55.2225647 165.49486481 -56.328125 165.48828125 C-57.43226746 165.47033005 -58.53640991 165.45237885 -59.67401123 165.43388367 C-63.19930202 165.37971773 -66.72445691 165.345864 -70.25 165.3125 C-72.64064393 165.27933257 -75.03126992 165.24484345 -77.421875 165.20898438 C-83.28112815 165.1239876 -89.14039875 165.05566421 -95 165 C-94.68637691 163.113577 -94.37253084 161.22719108 -94.05859375 159.34082031 C-93.88384521 158.29033508 -93.70909668 157.23984985 -93.52905273 156.15753174 C-72.31762807 29.56193506 -72.31762807 29.56193506 -33.69921875 0.25390625 C-23.22197759 -6.50745779 -10.99181987 -5.19359613 0 0 Z " fill="#BA9076" transform="translate(216,19)"/>
<path d="M0 0 C7.05786513 0.98129298 14.10410188 1.99974123 21.13671875 3.1484375 C41.0303156 6.39387484 60.94046963 9.01931546 81 11 C82.1957666 11.12004395 83.3915332 11.24008789 84.62353516 11.36376953 C127.74881299 15.48644533 172.16585103 14.2530142 215.05224609 8.38671875 C218.13185358 7.982702 221.21397116 7.62575372 224.30078125 7.28125 C235.27643467 6.05186285 246.10776086 4.60631116 256.92651367 2.35766602 C262.60021807 1.18943068 268.22709861 0.47657079 274 0 C273.3885494 14.06336391 270.30571984 26.64571157 266 40 C262.69302303 39.61546779 259.55828468 39.15434929 256.34375 38.265625 C234.70429443 32.35381497 212.51691917 36.5231419 193 47 C174.12541082 57.80543075 159.79118595 75.33410632 153 96 C150.29506432 106.55350891 149.41877775 117.14065967 149 128 C104.87374348 128.91949348 70.41505988 118.06443239 38 87 C19.9394239 68.75637752 7.78491065 45.15798555 2.1875 20.25 C1.96795654 19.27901367 1.74841309 18.30802734 1.5222168 17.30761719 C0.27407974 11.41136731 -0.21695594 6.02517629 0 0 Z " fill="#FDECE3" transform="translate(119,260)"/>
<path d="M0 0 C1.43059841 -0.00339833 1.43059841 -0.00339833 2.8900978 -0.00686532 C6.10599913 -0.01322719 9.32185855 -0.01237456 12.5377655 -0.0115509 C14.83533788 -0.01454106 17.13290975 -0.01794325 19.43048096 -0.02172852 C25.68669975 -0.03058797 31.94290488 -0.03290746 38.19912934 -0.0335443 C43.41546388 -0.03449194 48.6317952 -0.03816861 53.8481285 -0.0417164 C65.4490052 -0.04940244 77.04987521 -0.05238435 88.65075425 -0.05171105 C89.34726679 -0.05167109 90.04377933 -0.05163113 90.76139832 -0.05158997 C91.45875962 -0.05154909 92.15612092 -0.0515082 92.87461438 -0.05146609 C104.17461197 -0.0510597 115.47457623 -0.06062646 126.77456418 -0.07472833 C138.37197182 -0.08908735 149.96936166 -0.09581556 161.56677836 -0.09513456 C168.07994272 -0.09487918 174.59306938 -0.09775206 181.10622597 -0.10831261 C187.23174184 -0.11797277 193.35718382 -0.11808707 199.48270226 -0.11079597 C201.7333474 -0.1097475 203.98399709 -0.11212855 206.2346344 -0.11815643 C209.30258811 -0.12584221 212.37028449 -0.12125411 215.43823242 -0.11352539 C216.7800626 -0.12124074 216.7800626 -0.12124074 218.14900047 -0.12911195 C223.37177066 -0.09995755 227.48530584 0.1879736 231.71037292 3.57902527 C234.47954319 6.65588112 236.30940019 8.95809972 236.47209167 13.19621277 C235.75796866 18.19507389 234.5676993 21.41303505 231.04631042 25.06730652 C226.34756416 28.1627446 221.29366016 29.42352314 215.90959167 30.94621277 C214.70826599 31.29168152 213.50694031 31.63715027 212.26921082 31.99308777 C177.16481777 41.9441546 141.04494211 49.09419469 104.90959167 54.13371277 C103.97163757 54.26584167 103.03368347 54.39797058 102.06730652 54.53410339 C72.82185576 58.53803292 43.06951691 60.33749651 13.56724548 60.77229309 C11.64562762 60.80462326 9.72418109 60.85010518 7.8032074 60.90943909 C-6.9726235 61.33719039 -6.9726235 61.33719039 -11.98518372 58.48869324 C-14.07300147 56.48433145 -15.58638419 54.59785657 -17.09040833 52.13371277 C-17.69755676 51.20043152 -18.3047052 50.26715027 -18.93025208 49.30558777 C-19.29247864 48.50636902 -19.6547052 47.70715027 -20.02790833 46.88371277 C-20.40818176 46.07418152 -20.7884552 45.26465027 -21.18025208 44.43058777 C-24.7576086 35.40275241 -24.53691314 23.57957595 -21.02790833 14.57121277 C-16.00320841 4.14854952 -11.4506025 -0.01967546 0 0 Z " fill="#CEA287" transform="translate(242.0904083251953,198.8662872314453)"/>
<path d="M0 0 C15.63997014 11.0448274 25.4961421 25.17332908 30.875 43.375 C31.05458252 43.97650879 31.23416504 44.57801758 31.41918945 45.19775391 C32.43805076 50.06449472 32.05977335 55.17340054 32.0625 60.125 C32.07474609 61.28 32.08699219 62.435 32.09960938 63.625 C32.13310222 83.18481904 23.75828896 99.78391457 10.47265625 113.87109375 C-5.68316584 129.44384858 -25.08598695 134.0315398 -46.78125 133.7109375 C-50.86624597 133.53719037 -54.41598124 133.25089582 -58.125 131.375 C-60.42125392 125.68428376 -60.64125952 120.33016419 -59.125 114.375 C-57.375 110.875 -57.375 110.875 -55.125 108.375 C-51.40401717 107.19668877 -47.8169561 107.36259354 -43.94506836 107.49169922 C-28.742014 107.95564595 -17.24531197 104.03370824 -5.9375 93.75 C2.68484845 84.8006563 6.26931529 73.25929232 6.25 61.125 C6.24983887 60.19075195 6.24967773 59.25650391 6.24951172 58.29394531 C6.14258636 51.85366232 5.65203422 45.83377939 1.875 40.375 C-0.89600394 38.98949803 -3.0584706 39.1872533 -6.125 39.375 C-7.115 40.035 -8.105 40.695 -9.125 41.375 C-9.39018132 45.55160573 -9.44386422 48.41840734 -8.125 52.375 C-7.32467575 63.93378137 -7.79670543 73.34035865 -15.375 82.6875 C-21.22075592 88.88375092 -28.03833111 92.77521138 -36.5703125 93.78125 C-46.97634976 94.04637197 -54.56679872 92.24869374 -62.50390625 85.2890625 C-69.32830478 78.12532924 -72.31508077 71.79156262 -72.5625 61.875 C-72.25777984 52.03548768 -70.08548964 44.54733063 -63.125 37.375 C-55.64119206 31.24936461 -48.21826161 27.85492829 -38.50390625 28.13671875 C-35.24731671 28.46291245 -32.25690546 29.44702801 -29.125 30.375 C-25.57810473 30.77715727 -22.33059135 31.05314513 -19.125 29.25 C-17.64598334 26.47684376 -17.73898016 24.46315875 -18.125 21.375 C-21.66271282 16.7701738 -27.71558225 15.60552071 -33.125 14.375 C-39.22969693 13.8923637 -45.25072738 13.87716637 -51.25 15.1875 C-54.125 15.375 -54.125 15.375 -56.4375 13.375 C-59.58019759 7.78798207 -60.69648347 2.78481103 -59.80078125 -3.5390625 C-58.58588526 -7.28908828 -56.42138014 -8.55668305 -53.125 -10.625 C-36.5964199 -16.304424 -13.92743861 -8.76514476 0 0 Z " fill="#7C8394" transform="translate(395.125,321.625)"/>
<path d="M0 0 C3.2578125 -0.29296875 3.2578125 -0.29296875 7.125 -0.1875 C9.04699219 -0.14689453 9.04699219 -0.14689453 11.0078125 -0.10546875 C11.99523437 -0.07066406 12.98265625 -0.03585938 14 0 C14.45375 0.969375 14.9075 1.93875 15.375 2.9375 C16.65786221 6.07079582 16.65786221 6.07079582 19 7 C21.76931368 7.15691907 24.51734107 7.25843134 27.2890625 7.31640625 C28.51669815 7.3475779 28.51669815 7.3475779 29.76913452 7.37937927 C32.38766966 7.44484812 35.00630639 7.50374726 37.625 7.5625 C39.39844807 7.60568776 41.17188581 7.64930214 42.9453125 7.69335938 C47.29677046 7.80052676 51.64833077 7.90180169 56 8 C55.39816895 8.68727173 55.39816895 8.68727173 54.78417969 9.38842773 C50.75470192 14.02566824 50.75470192 14.02566824 47.25 19.0625 C46.86328125 19.67222656 46.4765625 20.28195313 46.078125 20.91015625 C41.6519455 29.48988824 41.83691782 39.89749919 43.6171875 49.23828125 C45.59565154 55.42754709 48.88006289 59.69451705 53.390625 64.3203125 C55 66 55 66 55 67 C12.18723308 67.5381493 -31.38043599 60.46680379 -73 51 C-74.91138168 50.56997165 -76.82283996 50.14028364 -78.734375 49.7109375 C-83.32520325 48.67696361 -87.91257944 47.62859831 -92.49853516 46.57324219 C-94.8036218 46.04500254 -97.11044091 45.52526132 -99.41796875 45.0078125 C-107.39430461 43.20172689 -115.30396344 41.17596792 -123.1875 39 C-124.0731665 38.76289307 -124.95883301 38.52578613 -125.87133789 38.28149414 C-132.52468793 36.40304377 -138.22226692 34.16366977 -142 28 C-143.25383575 24.23849274 -143.75519945 20.88998961 -143 17 C-140.25085507 12.25818626 -137.16740417 9.75654447 -132 8 C-129.42814541 7.74946022 -129.42814541 7.74946022 -126.64219666 7.7484436 C-125.05028252 7.74036934 -125.05028252 7.74036934 -123.4262085 7.73213196 C-121.69530975 7.73831795 -121.69530975 7.73831795 -119.92944336 7.74462891 C-118.09456108 7.73919823 -118.09456108 7.73919823 -116.22261047 7.73365784 C-113.56795816 7.72676671 -110.91355973 7.72337279 -108.25892448 7.72560501 C-104.0609387 7.728443 -99.86312052 7.71406922 -95.66517639 7.69662476 C-83.73017878 7.64964057 -71.79519345 7.62564959 -59.86010742 7.61914062 C-53.26369911 7.61539139 -46.6674813 7.59737673 -40.07115465 7.56404626 C-35.89819198 7.54382318 -31.72572027 7.54146552 -27.55272853 7.55232644 C-24.34879663 7.5555435 -21.14502979 7.53284849 -17.94116211 7.51416016 C-16.78520538 7.52233261 -15.62924866 7.53050507 -14.43826294 7.53892517 C-13.37980667 7.52790268 -12.3213504 7.51688019 -11.2308197 7.50552368 C-9.85234061 7.50388938 -9.85234061 7.50388938 -8.44601345 7.50222206 C-4.11442001 6.61284764 -2.35281299 3.52921949 0 0 Z " fill="#BE9379" transform="translate(177,191)"/>
<path d="M0 0 C-0.71542969 0.61488281 -0.71542969 0.61488281 -1.4453125 1.2421875 C-4.19228203 4.34805757 -4.11987401 7.98106613 -4 12 C-3.08630907 16.23978887 -2.10191447 19.89808553 1 23 C2.5457803 22.78921178 4.09048127 22.56766324 5.62890625 22.30859375 C15.457449 21.02942591 25.02684823 21.49953379 34 26 C37.88157895 29.28947368 37.88157895 29.28947368 38.5 33 C38 36 38 36 36.5 38.375 C33.0330603 40.62851081 29.96768824 40.52502491 26 40 C24.329375 39.505 24.329375 39.505 22.625 39 C13.13973954 36.38337643 5.5775025 38.38974406 -3 43 C-6.40770831 45.44052051 -8.8753005 47.82250451 -11.1875 51.3125 C-11.67605469 52.03050781 -12.16460937 52.74851562 -12.66796875 53.48828125 C-16.74314694 61.17256153 -16.96079311 69.51585368 -16 78 C-12.90324587 87.89367405 -6.94697571 94.54325474 2.0625 99.4375 C10.50751353 102.78638467 20.12739182 102.11005667 28.5 98.9375 C36.68721866 95.01995989 41.75533059 89.46056272 45 81 C46.34534665 77.07017163 46.14716349 73.04144016 46.125 68.9375 C46.12886719 68.21755859 46.13273437 67.49761719 46.13671875 66.75585938 C46.13080799 63.57291361 46.01350713 61.04052138 45 58 C44.66619626 55.28579251 44.59924286 52.70934406 45 50 C47.18753283 47.3076519 48.58423955 47.06063173 52 46.5625 C55 47 55 47 57.1875 48.5 C61.84769749 54.9278586 62.55481069 61.4837876 62.5 69.1875 C62.49500488 70.11006592 62.49000977 71.03263184 62.48486328 71.9831543 C62.19787815 83.29333736 58.61119284 92.5210227 51 101 C50.42636719 101.67675781 49.85273438 102.35351562 49.26171875 103.05078125 C42.42829785 110.56329988 33.09181244 115.51221563 23 117 C18.25475363 117.10464869 13.51737459 116.85697267 8.78125 116.5703125 C6.07288834 116.48891365 3.65923455 116.47556299 1 117 C-3.31824471 121.51774632 -3.95957334 125.98653435 -4 132 C-3.80198144 134.71375429 -3.44020342 137.30986801 -3 140 C-22.10518497 135.00013244 -37.87068358 123.67913821 -48.03125 106.58203125 C-49.85167347 103.10702797 -51.46284766 99.60843453 -53 96 C-53.43441406 95.05511719 -53.86882812 94.11023438 -54.31640625 93.13671875 C-60.0562701 78.35706933 -58.97422994 59.02448569 -53.484375 44.34375 C-44.49755981 24.0997663 -30.51103618 9.71295256 -10 1 C-2.82882883 -1.41441441 -2.82882883 -1.41441441 0 0 Z " fill="#6E7587" transform="translate(340,313)"/>
<path d="M0 0 C10.30846178 1.44118696 20.59317007 3.00684528 30.875 4.625 C32.35285092 4.85685796 33.83071544 5.08862921 35.30859375 5.3203125 C38.87255247 5.8792138 42.43632829 6.43927122 46 7 C45.01 7.33 44.02 7.66 43 8 C47.92790984 36.77164751 58.1977746 62.40513393 77 85 C77.43699219 85.52803223 77.87398438 86.05606445 78.32421875 86.60009766 C84.20951228 93.61491483 90.71853277 99.47414345 98 105 C98.52577637 105.40605469 99.05155273 105.81210937 99.59326172 106.23046875 C111.33973406 115.25286996 124.08473748 121.91557716 138 127 C138 127.33 138 127.66 138 128 C100.22512335 129.29104009 68.0907342 114.65593006 40.4375 89.3359375 C21.05064784 70.75687084 8.04414846 46.31157101 2.1875 20.25 C1.96795654 19.27901367 1.74841309 18.30802734 1.5222168 17.30761719 C0.27407974 11.41136731 -0.21695594 6.02517629 0 0 Z " fill="#FDDCCD" transform="translate(119,260)"/>
<path d="M0 0 C4.40388598 1.54302823 8.13184293 3.87939185 12 6.4375 C13.20787957 7.22855788 14.41620507 8.01893532 15.625 8.80859375 C16.15351563 9.15720459 16.68203125 9.50581543 17.2265625 9.86499023 C19.06810117 11.09861639 19.06810117 11.09861639 21.49194336 12.16357422 C24.91970922 14.67342089 26.01590219 17.73532633 27.50390625 21.57421875 C27.8198877 22.34976608 28.13586914 23.12531342 28.46142578 23.92436218 C29.50985218 26.50638529 30.53575485 29.0967878 31.5625 31.6875 C32.29824652 33.50870441 33.03583279 35.32916654 33.77514648 37.14892578 C35.3558309 41.04182079 36.92961055 44.93741442 38.5 48.83447266 C42.34424146 58.34585905 46.30968335 67.80699138 50.26608276 77.27212524 C51.52843178 80.29346035 52.78826129 83.31583187 54.04711914 86.33862305 C54.44603867 87.29619003 54.84495819 88.25375702 55.25596619 89.24034119 C56.03698541 91.11514322 56.81780297 92.99002927 57.59840393 94.86500549 C59.50482764 99.43825413 61.42404702 104.00548781 63.36669922 108.56347656 C63.74124741 109.44444 64.11579559 110.32540344 64.50169373 111.23306274 C65.21005806 112.89696848 65.9213837 114.55961765 66.63612366 116.22079468 C69 121.77776353 69 121.77776353 69 124 C61.69894316 125.31127628 53.98853926 126.55785099 47.44628906 122.36230469 C41.68297964 117.48776184 36.8179018 111.78732056 32 106 C28.22723592 101.58295929 24.40470377 97.31529415 20.21923828 93.28540039 C4.10258663 77.76355931 -7.78165561 59.0208454 -8.41943359 36.12255859 C-8.5063722 22.90084168 -6.62981088 11.60872023 0 0 Z " fill="#CDA186" transform="translate(163,373)"/>
<path d="M0 0 C3.88157895 3.28947368 3.88157895 3.28947368 4.5 7 C4 10 4 10 2.5 12.375 C-0.9669397 14.62851081 -4.03231176 14.52502491 -8 14 C-9.11375 13.67 -10.2275 13.34 -11.375 13 C-20.86026046 10.38337643 -28.4224975 12.38974406 -37 17 C-40.40770831 19.44052051 -42.8753005 21.82250451 -45.1875 25.3125 C-45.67605469 26.03050781 -46.16460937 26.74851562 -46.66796875 27.48828125 C-50.74314694 35.17256153 -50.96079311 43.51585368 -50 52 C-46.90324587 61.89367405 -40.94697571 68.54325474 -31.9375 73.4375 C-23.49248647 76.78638467 -13.87260818 76.11005667 -5.5 72.9375 C2.68721866 69.01995989 7.75533059 63.46056272 11 55 C12.34534665 51.07017163 12.14716349 47.04144016 12.125 42.9375 C12.12886719 42.21755859 12.13273437 41.49761719 12.13671875 40.75585938 C12.13080799 37.57291361 12.01350713 35.04052138 11 32 C10.66619626 29.28579251 10.59924286 26.70934406 11 24 C13.18753283 21.3076519 14.58423955 21.06063173 18 20.5625 C21 21 21 21 23.1875 22.5 C27.84769749 28.9278586 28.55481069 35.4837876 28.5 43.1875 C28.49500488 44.11006592 28.49000977 45.03263184 28.48486328 45.9831543 C28.19787815 57.29333736 24.61119284 66.5210227 17 75 C16.42636719 75.67675781 15.85273438 76.35351562 15.26171875 77.05078125 C7.379006 85.71686918 -3.59196735 90.63327458 -15.26171875 91.37109375 C-29.26420647 91.75809324 -40.54628847 88.83761827 -51 79 C-60.61332777 69.79461787 -65.97111585 59.34736848 -66.34350586 46.05810547 C-66.4562688 36.67517948 -65.89339409 29.27157478 -61 21 C-60.49210937 20.12085938 -59.98421875 19.24171875 -59.4609375 18.3359375 C-52.53241079 7.46701646 -42.24279102 0.88497686 -30.25 -3.3125 C-20.05488868 -5.42962997 -9.36229024 -4.69563783 0 0 Z " fill="#020303" transform="translate(374,339)"/>
<path d="M0 0 C4.9461357 0.49461357 8.28163072 -0.11265229 13 -2 C17.455 2.455 17.455 2.455 22 7 C21.34 8.32 20.68 9.64 20 11 C19.5675644 14.8186262 19.77898632 18.33695896 21 22 C21.80032425 33.55878137 21.32829457 42.96535865 13.75 52.3125 C7.90424408 58.50875092 1.08666889 62.40021138 -7.4453125 63.40625 C-17.85134976 63.67137197 -25.44179872 61.87369374 -33.37890625 54.9140625 C-40.20330478 47.75032924 -43.19008077 41.41656262 -43.4375 31.5 C-43.13277984 21.66048768 -40.96048964 14.17233063 -34 7 C-23.27091177 -1.7819574 -13.27159461 -3.93232433 0 0 Z " fill="#BEDFFD" transform="translate(366,352)"/>
<path d="M0 0 C0 3.70112466 -0.75187764 4.10015899 -3.25 6.6875 C-11.13677469 15.43465011 -13.57584411 25.53759531 -13.3125 37.20703125 C-12.23296987 46.85533182 -7.16846864 56.44597153 0 63 C0.99 63.66 1.98 64.32 3 65 C-7.447429 65.77071198 -15.17637843 65.2970339 -24 59 C-30.73459412 53.09478939 -35.48451652 46.43923947 -36.33984375 37.4140625 C-36.59831942 27.05435752 -35.37281732 19.02265915 -28.796875 10.8515625 C-20.67478164 2.482275 -11.39769649 -0.63061026 0 0 Z " fill="#A1D1FB" transform="translate(359,350)"/>
<path d="M0 0 C4.78118665 1.59372888 6.58447433 6.23858183 9.15234375 10.36523438 C12.10047051 14.97675376 14.98534843 18.49267422 20 21 C19.35952645 24.83977684 18.22822779 28.15596714 16.71484375 31.73828125 C16.26689453 32.80498047 15.81894531 33.87167969 15.35742188 34.97070312 C14.88884766 36.07349609 14.42027344 37.17628906 13.9375 38.3125 C13.46505859 39.43462891 12.99261719 40.55675781 12.50585938 41.71289062 C11.34139806 44.47701597 10.17124875 47.23874387 9 50 C3.72 50 -1.56 50 -7 50 C-8.57160076 46.35419238 -10.13982774 42.7072086 -11.69970703 39.05639648 C-12.23129273 37.81500279 -12.76480845 36.5744337 -13.30029297 35.3347168 C-14.06985843 33.55215191 -14.8319069 31.76634771 -15.59375 29.98046875 C-16.05458984 28.90692139 -16.51542969 27.83337402 -16.99023438 26.72729492 C-18 24 -18 24 -18 21 C-17.175 20.505 -16.35 20.01 -15.5 19.5 C-10.33148556 16.34010255 -7.33425801 10.91625703 -4 6 C-3.53851563 5.32324219 -3.07703125 4.64648438 -2.6015625 3.94921875 C-1.72139655 2.64145445 -0.85784605 1.32251266 0 0 Z " fill="#D8DDE7" transform="translate(255,447)"/>
<path d="M0 0 C3.70425081 1.34940565 6.7401943 3.04366809 10 5.25 C16.06516172 9.19690606 22.36685322 12.12106666 29 15 C24.25636346 20.60022644 19.37680714 26.03841132 14.30541992 31.34399414 C11.6302101 34.14594826 9.09406835 36.87528568 6.7578125 39.97265625 C4.12009872 43.31481969 2.13351132 45.65516177 -2.22949219 46.36035156 C-7.85192182 46.75532455 -13.39031137 46.46224291 -19 46 C-17.07250337 39.97561907 -14.90701905 34.11312995 -12.4609375 28.28125 C-12.13461334 27.49729858 -11.80828918 26.71334717 -11.47207642 25.90563965 C-10.78957228 24.26815302 -10.10550571 22.63131679 -9.41992188 20.99511719 C-8.36675168 18.48030425 -7.31977655 15.96297424 -6.2734375 13.4453125 C-5.60713373 11.84880683 -4.94047995 10.25244718 -4.2734375 8.65625 C-3.80313614 7.52515808 -3.80313614 7.52515808 -3.32333374 6.37121582 C-1.1153125 1.1153125 -1.1153125 1.1153125 0 0 Z " fill="#CCA086" transform="translate(299,451)"/>
<path d="M0 0 C3.71016569 1.2367219 4.08557768 2.33506322 6.1875 5.5625 C10.53870593 11.75771142 15.67583322 16.90226687 21.1003418 22.16430664 C27.52686654 28.41015656 33.27562846 35.11624664 39 42 C33.55571763 42.09916726 28.11196552 42.17160909 22.66699219 42.21972656 C20.81631304 42.23979339 18.96569691 42.26705345 17.11523438 42.30175781 C14.44906023 42.35049433 11.78372713 42.37301787 9.1171875 42.390625 C8.29507782 42.41127014 7.47296814 42.43191528 6.62594604 42.45318604 C1.26718915 42.45526074 -1.74168088 41.55349104 -6 38 C-9.42224608 33.02936016 -8.47941764 26.77912411 -7.5 21.1015625 C-5.79611112 13.72449815 -3.09356193 6.89631988 0 0 Z " fill="#AF856B" transform="translate(153,455)"/>
<path d="M0 0 C1.58468677 0.45363171 3.16769924 0.91311452 4.75 1.375 C5.63171875 1.63023437 6.5134375 1.88546875 7.421875 2.1484375 C12.18311763 3.72109037 14.50902662 5.28297033 17.5625 9.3125 C20.79822854 13.48997042 24.12983798 17.54784173 27.5625 21.5625 C28.94818258 23.19879748 30.33137812 24.8371547 31.71337891 26.4765625 C32.90206063 27.88403383 34.09722915 29.28601986 35.29296875 30.6875 C36.26169922 31.863125 36.26169922 31.863125 37.25 33.0625 C37.81203125 33.73410156 38.3740625 34.40570313 38.953125 35.09765625 C40 37 40 37 39.72900391 38.84838867 C38.30467625 43.05220637 35.57317306 46.58060712 33.125 50.25 C32.31095703 51.51070313 32.31095703 51.51070313 31.48046875 52.796875 C30.95324219 53.5909375 30.42601562 54.385 29.8828125 55.203125 C29.40215332 55.93176758 28.92149414 56.66041016 28.42626953 57.41113281 C27.95560059 57.93545898 27.48493164 58.45978516 27 59 C26.01 59 25.02 59 24 59 C23.52167725 57.84177734 23.04335449 56.68355469 22.55053711 55.49023438 C20.74247295 51.11340399 18.93220629 46.73748722 17.12133789 42.36181641 C16.34406218 40.4828257 15.56735118 38.60360127 14.79125977 36.72412109 C13.66317847 33.99251636 12.53338479 31.26163051 11.40234375 28.53125 C11.03249359 27.63833252 10.66264343 26.74541504 10.28158569 25.82543945 C7.62287041 19.43323864 4.8816259 13.08114509 2.03416443 6.77062988 C0 2.21205946 0 2.21205946 0 0 Z " fill="#EDF1F7" transform="translate(206,395)"/>
<path d="M0 0 C1.3671875 1.29296875 1.3671875 1.29296875 2.875 3.1875 C5.20881845 6.02429657 7.61588622 8.62229539 10.3125 11.109375 C11.19059326 11.93272339 11.19059326 11.93272339 12.08642578 12.77270508 C13.25693149 13.86220527 14.44247528 14.93582255 15.64404297 15.9909668 C19.5742105 19.7009941 20.74405495 22.54838949 21.16137695 27.93237305 C20.82552101 32.2354956 18.26644777 34.89619079 15.14453125 37.6171875 C11.94085647 39.68294501 9.45785298 39.78799484 5.703125 39.65625 C0.19114194 38.3180807 -3.20123241 33.98204147 -7 30 C-8.09557471 28.90675489 -9.19468779 27.81704695 -10.296875 26.73046875 C-13.22121484 23.84275769 -16.11630924 20.92828391 -19 18 C-17.59896549 14.71900591 -16.00653684 12.92585065 -13.25 10.6875 C-9.82974882 7.81970318 -7.03734435 4.82232572 -4.32421875 1.28515625 C-3 0 -3 0 0 0 Z " fill="#616776" transform="translate(427,436)"/>
<path d="M0 0 C1.39702148 0.03383789 1.39702148 0.03383789 2.82226562 0.06835938 C5.1123396 0.12707922 7.39907875 0.20913142 9.6875 0.3125 C13.39119684 15.90510632 13.39119684 15.90510632 9.9375 22.8125 C7.3708734 25.66430733 5.72924332 27.12724581 1.8248291 27.48150635 C-0.53104318 27.54447882 -2.87783951 27.5370347 -5.234375 27.5078125 C-6.09436096 27.5049826 -6.95434692 27.50215271 -7.84039307 27.49923706 C-10.58123821 27.4880615 -13.32175398 27.46296179 -16.0625 27.4375 C-17.92317236 27.4274668 -19.78384985 27.41834155 -21.64453125 27.41015625 C-26.20064732 27.38813076 -30.75651786 27.35361897 -35.3125 27.3125 C-29.05721262 19.96619557 -29.05721262 19.96619557 -25.83984375 16.5234375 C-24.95522461 15.57597656 -24.95522461 15.57597656 -24.05273438 14.609375 C-23.45783203 13.97515625 -22.86292969 13.3409375 -22.25 12.6875 C-21.65123047 12.04554688 -21.05246094 11.40359375 -20.43554688 10.7421875 C-19.26618922 9.49214033 -18.08812337 8.25017058 -16.90063477 7.01733398 C-15.12757521 5.16442792 -15.12757521 5.16442792 -13.0234375 2.37109375 C-8.88650435 -0.7703526 -5.0381826 -0.23143595 0 0 Z " fill="#AF856B" transform="translate(355.3125,469.6875)"/>
<path d="M0 0 C4.2502181 2.69620782 6.57224219 4.71672658 8.1875 9.5625 C8 13 8 13 6.5 15.9375 C4 18 4 18 0.625 18.625 C-4.07546426 17.81457513 -5.5489455 16.21575533 -9 13 C-13.09934581 11.6335514 -16.72285301 11.22802713 -21 12 C-23.20153752 13.39065814 -25.09269638 14.97290872 -27.0859375 16.64453125 C-29 18 -29 18 -32.75 18.6875 C-36 18 -36 18 -38.5 15.9375 C-40 13 -40 13 -40.1875 9.5625 C-38.13668536 3.41005609 -33.45985916 0.56168793 -27.875 -2.375 C-18.63593749 -6.12099127 -8.54407133 -4.83316119 0 0 Z " fill="#040404" transform="translate(272,303)"/>
<path d="M0 0 C-1.33232046 9.70406546 -4.43081851 16.54936767 -12.1640625 22.74609375 C-15.87029912 25.2773745 -19.4363375 27 -24 27 C-23.855625 25.783125 -23.71125 24.56625 -23.5625 23.3125 C-22.88136774 17.2212315 -22.44401931 11.11235086 -22 5 C-18.89743488 4.1606242 -15.79270556 3.3295495 -12.6875 2.5 C-11.80642578 2.26152344 -10.92535156 2.02304688 -10.01757812 1.77734375 C-9.17001953 1.55175781 -8.32246094 1.32617188 -7.44921875 1.09375 C-6.27879028 0.77954102 -6.27879028 0.77954102 -5.0847168 0.45898438 C-3 0 -3 0 0 0 Z " fill="#F7D7C8" transform="translate(430,252)"/>
<path d="M0 0 C7.23589973 0.60299164 13.99370876 2.1150587 21 4 C21.06058594 4.83402344 21.12117188 5.66804688 21.18359375 6.52734375 C21.66828087 13.03706466 22.23091353 19.51769975 23 26 C15.78716688 25.45903752 10.42047891 21.85920841 5.6875 16.5625 C1.38845133 11.13890453 -0.42257649 7.04294149 0 0 Z " fill="#F7C7B8" transform="translate(83,253)"/>
<path d="M0 0 C0.66 0 1.32 0 2 0 C3.19820784 1.85043427 4.30894982 3.75790262 5.375 5.6875 C7.18405216 8.95096634 8.83218003 11.80816491 11.29296875 14.62109375 C13 17 13 17 12.83984375 19.2109375 C12.54207031 19.92507813 12.24429687 20.63921875 11.9375 21.375 C11.63070313 22.14457031 11.32390625 22.91414063 11.0078125 23.70703125 C10.67523438 24.46371094 10.34265625 25.22039062 10 26 C9.70867187 26.70511719 9.41734375 27.41023438 9.1171875 28.13671875 C8.43552412 29.7680782 7.72125817 31.38575552 7 33 C4.39436724 32.63047901 3.23962757 32.25958102 1.4284668 30.29760742 C-0.16536701 27.93566094 -1.75457378 25.57336329 -3.3125 23.1875 C-3.87517578 22.36701172 -4.43785156 21.54652344 -5.01757812 20.70117188 C-5.54416016 19.90646484 -6.07074219 19.11175781 -6.61328125 18.29296875 C-7.09579346 17.5661792 -7.57830566 16.83938965 -8.07543945 16.09057617 C-9 14 -9 14 -8.76025391 11.89282227 C-7.64645132 9.11976143 -5.93606438 7.06739247 -4.0625 4.75 C-3.35222656 3.85796875 -2.64195312 2.9659375 -1.91015625 2.046875 C-1.27980469 1.37140625 -0.64945312 0.6959375 0 0 Z " fill="#ECF0F6" transform="translate(275,421)"/>
<path d="M0 0 C9.57 0 19.14 0 29 0 C27.50876168 2.98247665 26.47920645 4.81487622 24.3984375 7.234375 C23.90859375 7.80800781 23.41875 8.38164062 22.9140625 8.97265625 C22.40617187 9.55917969 21.89828125 10.14570313 21.375 10.75 C20.859375 11.35199219 20.34375 11.95398438 19.8125 12.57421875 C18.54530865 14.05260866 17.27314225 15.52673171 16 17 C12.98066566 15.66896999 11.11048187 14.29134068 8.984375 11.77734375 C8.45585937 11.15666016 7.92734375 10.53597656 7.3828125 9.89648438 C6.84398437 9.25001953 6.30515625 8.60355469 5.75 7.9375 C4.91855469 6.96200195 4.91855469 6.96200195 4.0703125 5.96679688 C0 1.14959206 0 1.14959206 0 0 Z " fill="#EFC0B2" transform="translate(241,403)"/>
</svg>
