<?xml version="1.0" encoding="UTF-8"?>
<svg version="1.1" xmlns="http://www.w3.org/2000/svg" width="512" height="512">
<path d="M0 0 C1.1088707 -0.01058945 1.1088707 -0.01058945 2.24014282 -0.02139282 C32.75204668 -0.24674869 32.75204668 -0.24674869 45.9765625 3.203125 C46.73114746 3.38584961 47.48573242 3.56857422 48.26318359 3.75683594 C76.13283922 10.62695141 103.59656289 26.04402895 124.9765625 45.203125 C125.9765625 47.203125 125.9765625 47.203125 125.4765625 50.890625 C125.44405634 53.84868594 125.78324573 54.95483663 127.625 57.3203125 C131.91451772 61.1122311 131.91451772 61.1122311 137.34375 62.1328125 C138.52324219 61.88917969 138.52324219 61.88917969 139.7265625 61.640625 C145.37741791 60.5663511 148.32843475 62.82973407 152.94165039 65.94360352 C167.32705281 75.59494289 182.52731048 76.48737239 199.2265625 76.703125 C234.22505405 77.15929142 234.22505405 77.15929142 243.81640625 85.875 C251.89125154 94.7987899 253.11380127 105.89245488 252.94238281 117.52197266 C251.84756839 139.20771981 244.32253309 158.84989927 229.9765625 175.203125 C229.37070312 175.91726562 228.76484375 176.63140625 228.140625 177.3671875 C226.7642457 178.98911804 225.37240111 180.5979106 223.9765625 182.203125 C224.66621094 182.60402344 225.35585938 183.00492188 226.06640625 183.41796875 C238.59885037 190.99932383 248.10673359 200.52648753 252.14453125 215.03125 C255.14075629 228.12430015 253.92559248 243.1286324 246.953125 254.67578125 C243.07154405 260.71670255 238.86207719 265.99918594 232.9765625 270.203125 C232.3165625 270.203125 231.6565625 270.203125 230.9765625 270.203125 C230.99976563 271.37230469 231.02296875 272.54148437 231.046875 273.74609375 C231.06564071 275.29426442 231.08384005 276.84244203 231.1015625 278.390625 C231.11832031 279.15955078 231.13507813 279.92847656 231.15234375 280.72070312 C231.18894482 284.98472761 231.07030371 288.36339198 228.9765625 292.203125 C226.7890625 294.140625 226.7890625 294.140625 223.9765625 295.203125 C220.2890625 294.578125 220.2890625 294.578125 216.9765625 293.203125 C214.62536851 289.67633401 214.76212798 288.17433015 214.8515625 284.015625 C214.86960937 282.92894531 214.88765625 281.84226562 214.90625 280.72265625 C214.94105469 279.47548828 214.94105469 279.47548828 214.9765625 278.203125 C214.16445313 278.44869141 214.16445313 278.44869141 213.3359375 278.69921875 C210.57433657 279.28903087 208.04838111 279.29921808 205.2265625 279.265625 C204.24171875 279.25660156 203.256875 279.24757813 202.2421875 279.23828125 C201.49453125 279.22667969 200.746875 279.21507812 199.9765625 279.203125 C199.87214844 279.87988281 199.76773437 280.55664062 199.66015625 281.25390625 C192.80072273 310.84746228 167.3012502 344.70121556 142.9765625 362.203125 C142.3165625 362.203125 141.6565625 362.203125 140.9765625 362.203125 C143.57314115 364.84769956 146.19105561 367.42724163 148.95703125 369.89453125 C160.34463099 380.05591001 169.37744011 390.86620372 176.9765625 404.203125 C177.63398438 405.33105469 178.29140625 406.45898438 178.96875 407.62109375 C191.56338367 429.77196698 199.13997854 455.79891327 200.9765625 481.203125 C201.04746094 482.18297363 201.11835938 483.16282227 201.19140625 484.17236328 C201.41864986 487.5565987 201.61041165 490.94099175 201.7890625 494.328125 C201.85456299 495.42068604 201.92006348 496.51324707 201.98754883 497.63891602 C202.05365356 499.19050415 202.05365356 499.19050415 202.12109375 500.7734375 C202.16596924 501.69914551 202.21084473 502.62485352 202.25708008 503.57861328 C201.88393255 507.06976729 200.46940755 509.71027995 197.9765625 512.203125 C195.98301446 512.30364262 193.98584263 512.33237058 191.98976326 512.33455276 C190.67986557 512.33839391 189.36996788 512.34223505 188.02037632 512.3461926 C186.54761126 512.34541221 185.07484625 512.3445334 183.6020813 512.34356689 C182.05243063 512.34614824 180.50278063 512.34916075 178.95313156 512.3525703 C174.67418767 512.36067061 170.39526053 512.36243154 166.11630988 512.36316776 C161.50954214 512.36501307 156.9027832 512.37255771 152.29602051 512.37930298 C142.21355641 512.39290818 132.13109627 512.39891438 122.04862452 512.40331364 C115.75843756 512.40607229 109.46825216 512.41030893 103.17806625 512.41481781 C85.77768869 512.42701318 68.37731237 512.43731206 50.97693062 512.4406929 C49.86239859 512.44091247 48.74786657 512.44113203 47.59956085 512.44135825 C46.48229488 512.44157653 45.36502892 512.44179481 44.21390641 512.4420197 C41.94973318 512.44246317 39.68555995 512.44290974 37.42138672 512.44335938 C36.298268 512.4435808 35.17514928 512.44380223 34.01799665 512.44403037 C15.81032995 512.44798026 -2.39729678 512.46543889 -20.60494803 512.4887189 C-39.27845069 512.51240271 -57.95193327 512.52489339 -76.62545121 512.52606082 C-87.11803813 512.52697924 -97.61057298 512.53277342 -108.1031456 512.55088043 C-117.03621225 512.56624139 -125.96921073 512.57142567 -134.90228806 512.56314233 C-139.46361823 512.55922159 -144.02481095 512.56023435 -148.58612442 512.57419968 C-152.75717559 512.58685385 -156.92798485 512.58581656 -161.09903528 512.57360896 C-162.61250998 512.57163713 -164.12600132 512.57479819 -165.63945256 512.58345333 C-167.68792619 512.59443165 -169.73647865 512.58532643 -171.78495598 512.5750618 C-173.49573226 512.57595743 -173.49573226 512.57595743 -175.24106967 512.57687116 C-178.0234375 512.203125 -178.0234375 512.203125 -179.8508426 510.86737895 C-187.49329069 500.02051754 -180.36964754 473.67822185 -178.25390625 461.44921875 C-173.35635915 435.42122276 -163.43063103 410.11698944 -147.0234375 389.203125 C-146.58628418 388.64496094 -146.14913086 388.08679688 -145.69873047 387.51171875 C-139.14257785 379.2464119 -131.91345405 372.19212114 -124.0234375 365.203125 C-123.01278879 364.21388834 -122.00669056 363.21959607 -121.0234375 362.203125 C-121.55839844 361.98398437 -122.09335938 361.76484375 -122.64453125 361.5390625 C-125.85881276 359.73399801 -128.41237545 357.33300556 -131.0859375 354.828125 C-131.94638672 354.0230249 -131.94638672 354.0230249 -132.82421875 353.20166016 C-153.86930972 333.29146762 -169.52827948 309.20323824 -180.0234375 282.203125 C-180.0234375 281.213125 -180.0234375 280.223125 -180.0234375 279.203125 C-180.66667969 279.24953125 -181.30992187 279.2959375 -181.97265625 279.34375 C-195.66575058 279.89069243 -206.28025474 274.66890107 -217.2109375 266.953125 C-226.45419946 257.91526886 -233.0683375 245.35059846 -233.26513672 232.33569336 C-233.31453149 216.29837326 -233.31453149 216.29837326 -230.0234375 209.203125 C-229.43755859 207.87474609 -229.43755859 207.87474609 -228.83984375 206.51953125 C-223.39602877 195.40057772 -214.88493386 187.88807841 -204.0234375 182.203125 C-204.8484375 181.254375 -205.6734375 180.305625 -206.5234375 179.328125 C-207.07386719 178.6784375 -207.62429687 178.02875 -208.19140625 177.359375 C-209.4069268 175.92874101 -210.63870585 174.51175428 -211.88671875 173.109375 C-227.26619581 155.11014733 -234.43082273 131.53842386 -232.69506836 107.98657227 C-231.76579232 98.67540078 -229.76112622 91.58874085 -222.8984375 84.890625 C-213.45541499 77.51646426 -201.81493968 77.23128878 -190.35546875 76.9921875 C-189.66712448 76.97777115 -188.97878021 76.9633548 -188.26957703 76.94850159 C-185.41472522 76.89168729 -182.56004231 76.83708402 -179.70483398 76.80175781 C-154.59764936 76.46649438 -135.6809054 69.0360561 -116.0234375 53.36328125 C-82.52001163 26.74610323 -44.53303925 0.28442931 0 0 Z " fill="#020101" transform="translate(246.0234375,-0.203125)"/>
<path d="M0 0 C0.78004395 0.22993652 1.56008789 0.45987305 2.36376953 0.69677734 C7.35036057 2.21565062 12.19269272 3.98632321 17 6 C17.62293945 6.26055176 18.24587891 6.52110352 18.88769531 6.78955078 C30.53200149 11.82122878 40.88170199 18.98672403 51.3359375 26.09765625 C52.75664551 27.06276123 52.75664551 27.06276123 54.20605469 28.04736328 C56.07824601 29.35580318 57.92314775 30.70412642 59.73925781 32.08935547 C60.60131836 32.7392041 61.46337891 33.38905273 62.3515625 34.05859375 C63.10518066 34.64825928 63.85879883 35.2379248 64.63525391 35.84545898 C67.79481057 37.38805071 69.65479514 36.86321368 73 36 C73.67546875 35.74476562 74.3509375 35.48953125 75.046875 35.2265625 C78.22427457 34.85798415 79.77765127 36.48820755 82.25 38.375 C86.83759602 42.1879801 86.83759602 42.1879801 87.47265625 45.36328125 C87.3125 47.6875 87.3125 47.6875 86.86328125 49.82421875 C86.80270971 52.26358429 86.80270971 52.26358429 89.08203125 54.51953125 C98.28477112 62.34247612 109.41503619 66.97783553 121 70 C121.70044434 70.18473877 122.40088867 70.36947754 123.12255859 70.55981445 C134.24345917 73.04285269 145.94396981 72.38592223 157.27734375 72.45629883 C160.21121884 72.47799768 163.14446817 72.51740094 166.078125 72.55859375 C166.96993469 72.55870956 167.86174438 72.55882538 168.78057861 72.5589447 C174.26768851 72.64557399 178.14323647 73.38798214 183 76 C189.14232138 82.46560145 188.32425431 89.61165358 188.21484375 97.9921875 C187.57202296 119.09747141 177.5704175 136.4295825 163 151 C162.22140625 151.79921875 161.4428125 152.5984375 160.640625 153.421875 C158.46098793 155.41601104 156.67674801 156.76174059 154 158 C151.86914063 157.76098633 151.86914063 157.76098633 149.59375 156.95703125 C148.71581787 156.65869385 147.83788574 156.36035645 146.93334961 156.05297852 C145.96534424 155.70549561 144.99733887 155.3580127 144 155 C141.80385881 154.25381361 139.60721313 153.50911094 137.41015625 152.765625 C136.22800537 152.35989258 135.04585449 151.95416016 133.82788086 151.53613281 C64.15264961 127.73731817 -13.54903825 116.69809247 -87 125 C-88.2566748 125.13954102 -89.51334961 125.27908203 -90.80810547 125.42285156 C-131.72210859 130.02390352 -172.57093935 137.82432686 -211.57421875 151.24609375 C-212.66935791 151.62113037 -213.76449707 151.99616699 -214.89282227 152.38256836 C-216.98827738 153.10701115 -219.07901926 153.84529258 -221.16381836 154.59985352 C-230.32677299 157.80205013 -230.32677299 157.80205013 -235 156 C-237.32109336 154.31087309 -239.2637557 152.71967321 -241.3125 150.75 C-242.15953491 149.94743774 -242.15953491 149.94743774 -243.02368164 149.12866211 C-257.57958837 134.90361844 -265.85532961 116.58363019 -266.29541016 96.23535156 C-266.3010498 95.49768555 -266.30668945 94.76001953 -266.3125 94 C-266.31813965 93.30616211 -266.3237793 92.61232422 -266.32958984 91.89746094 C-266.25173153 86.43154306 -265.5107953 81.32914275 -262.5 76.6875 C-254.92765456 71.57616683 -244.28369483 72.73513864 -235.48675537 72.65203857 C-203.30625748 72.27360528 -180.34954795 65.32361874 -154.96484375 45.125 C-109.2642817 8.91167292 -59.62480834 -17.69472765 0 0 Z " fill="#394649" transform="translate(295,20)"/>
<path d="M0 0 C0.82387207 0.03174316 1.64774414 0.06348633 2.49658203 0.09619141 C42.79277193 1.73356524 84.81589867 10.24754261 123 23 C123.07690479 30.25497542 123.12895333 37.50984338 123.16479492 44.76513672 C123.17975774 47.2264397 123.20013528 49.68771659 123.22631836 52.14892578 C123.70055136 97.91705925 106.35521751 130.64178908 76.58300781 164.20849609 C75.09232219 165.89551817 73.61928593 167.596473 72.1484375 169.30078125 C61.60122163 181.3614736 48.22276957 192.41969227 31.71484375 194.25390625 C21.42890332 194.52602108 12.47069463 191.20927955 3.1875 187.125 C-17.47969031 178.27147295 -34.13137727 173.59618302 -55.86083984 182.12255859 C-60.04186585 183.83396987 -64.20502594 185.58099728 -68.34814453 187.38232422 C-80.33989743 192.57207407 -91.578339 196.72856176 -104.5625 192.4375 C-115.79636303 187.80232442 -124.38486142 180.34333036 -133 172 C-133.80566406 171.23429688 -134.61132812 170.46859375 -135.44140625 169.6796875 C-141.12401135 164.16508986 -146.08642262 158.20027522 -151 152 C-151.90933567 150.88084318 -152.81952377 149.76237856 -153.73046875 148.64453125 C-166.0798982 133.37703907 -175.46735797 116.75831424 -182 98.25 C-182.30301025 97.39204834 -182.60602051 96.53409668 -182.91821289 95.65014648 C-184.22720157 91.79925317 -185 89.13833478 -185 85 C-180.87602052 84.0002474 -177.22515621 83.43298769 -173 84 C-170.88484983 86.11246353 -169.65292079 88.59856436 -168.3125 91.25 C-167.58496943 92.61234928 -166.85200937 93.97181491 -166.11328125 95.328125 C-165.76604004 95.96943359 -165.41879883 96.61074219 -165.06103516 97.27148438 C-163.68269302 99.51691979 -161.90363433 101.19519995 -160 103 C-160 103.66 -160 104.32 -160 105 C-159.42507812 105.26039063 -158.85015625 105.52078125 -158.2578125 105.7890625 C-155.83844347 107.08664797 -153.96992561 108.60474921 -151.875 110.375 C-140.47193792 119.40712838 -126.99816115 120.10933387 -113 119 C-108.98530487 118.17827878 -105.6274516 116.88439044 -102 115 C-101.1646875 114.5875 -100.329375 114.175 -99.46875 113.75 C-82.75556376 104.67123217 -74.23361155 88.58763022 -69 71 C-68.10574474 67.7701604 -68.03264813 65.60943165 -68.31640625 62.21484375 C-68.66092375 57.61357339 -68.8148106 53.32211472 -67 49 C-62.69872189 44.21966959 -56.75405905 41.30311452 -51.18017578 38.24316406 C-42.95783369 33.55467964 -35.89193106 26.41505939 -29 20 C-28.31035156 19.36449219 -27.62070312 18.72898438 -26.91015625 18.07421875 C-21.94924932 13.32943054 -18.39044738 8.23859811 -14.859375 2.34375 C-10.29974543 -1.39365129 -5.66708023 -0.41019375 0 0 Z " fill="#E2AF97" transform="translate(288,158)"/>
<path d="M0 0 C3.65393562 0.68795711 6.87178106 1.64033617 10.3125 3.0625 C11.19550781 3.42472656 12.07851563 3.78695312 12.98828125 4.16015625 C13.98408203 4.57587891 13.98408203 4.57587891 15 5 C15.075349 11.06076478 15.1291552 17.12124444 15.16479492 23.18237305 C15.17968524 25.23515586 15.20000422 27.28790802 15.22631836 29.34057617 C15.43602452 46.14585236 14.72822495 62.71846081 9.1875 78.75 C8.79848511 79.92054932 8.79848511 79.92054932 8.40161133 81.11474609 C7.62386427 83.41860728 6.8191784 85.71057976 6 88 C5.64615234 88.99725098 5.64615234 88.99725098 5.28515625 90.01464844 C-2.35152437 111.16652796 -14.09359312 130.22189379 -29.60546875 146.48828125 C-31.56268968 148.54128787 -33.39212711 150.62030615 -35.1875 152.8125 C-49.52156327 169.65704893 -71.11231391 181.94779877 -91 191 C-91.73637695 191.33773437 -92.47275391 191.67546875 -93.23144531 192.0234375 C-107.32748002 198.37053057 -121.84272772 202.09703919 -137 205 C-138.01666748 205.19795166 -139.03333496 205.39590332 -140.08081055 205.59985352 C-148.31272452 207.04562933 -156.40948817 207.27720076 -164.73803711 207.20581055 C-166.9315972 207.18754914 -169.12473098 207.18530197 -171.31835938 207.18554688 C-184.3030394 207.15538809 -197.01970717 206.56705166 -209.75 203.8125 C-210.7807666 203.59182861 -211.8115332 203.37115723 -212.87353516 203.14379883 C-241.06516957 196.89234432 -267.59476515 184.29249311 -290 166 C-290.54817383 165.55720703 -291.09634766 165.11441406 -291.66113281 164.65820312 C-323.33416974 138.93158037 -348.61532928 100.21590472 -353 59 C-348.05 59 -343.1 59 -338 59 C-337.67128906 60.20011719 -337.34257812 61.40023437 -337.00390625 62.63671875 C-328.64659247 92.28277821 -314.88927021 117.098948 -294.0703125 139.74609375 C-291.49280895 142.55216837 -288.99914727 145.42610738 -286.5078125 148.30859375 C-285.01648381 150.03080564 -285.01648381 150.03080564 -283.3046875 151.59765625 C-282 153 -282 153 -282 155 C-281.44054687 155.23460937 -280.88109375 155.46921875 -280.3046875 155.7109375 C-277.44456892 157.31066484 -275.46350486 159.32914265 -273.125 161.625 C-260.54801542 173.24485758 -245.01724471 180.49300741 -227.77734375 180.26171875 C-216.08449432 179.45156269 -205.39836337 174.24949946 -194.78955078 169.61767578 C-180.11117186 163.2757049 -168.30294542 160.90207872 -153.09765625 166.8046875 C-151.41636133 167.48767267 -149.73797421 168.1778576 -148.0625 168.875 C-147.23298828 169.21402344 -146.40347656 169.55304688 -145.54882812 169.90234375 C-142.15795703 171.28820093 -138.76952096 172.67950412 -135.38793945 174.08789062 C-120.79272019 180.07991713 -106.11188371 182.44391955 -91 177 C-81.17605096 172.71675822 -71.77853937 167.09498319 -64.359375 159.26953125 C-63 158 -63 158 -61 158 C-60.76410156 157.43410156 -60.52820313 156.86820313 -60.28515625 156.28515625 C-58.70585684 153.47697948 -56.77313994 151.65617519 -54.4375 149.4375 C-49.17291737 144.27096834 -44.56710674 138.78297542 -40 133 C-39.10379183 131.89377939 -38.20661876 130.78833997 -37.30859375 129.68359375 C-19.92819304 108.1554594 -7.49006345 84.22508385 -2 57 C-1.82581543 56.1742749 -1.65163086 55.3485498 -1.47216797 54.49780273 C-0.78721724 49.42371324 -0.76241175 44.37288449 -0.68359375 39.2578125 C-0.6524221 37.57254959 -0.6524221 37.57254959 -0.62062073 35.85324097 C-0.55542776 32.27722068 -0.49638116 28.70112923 -0.4375 25.125 C-0.394286 22.69530525 -0.3506708 20.2656176 -0.30664062 17.8359375 C-0.19977746 11.89069943 -0.09795573 5.94539114 0 0 Z " fill="#D85862" transform="translate(426,186)"/>
<path d="M0 0 C3.12698334 1.51343638 6.06909494 3.29090751 9.01171875 5.12890625 C15.88953922 9.40776937 22.9102563 13.14638801 30.07421875 17.00390625 C30.07421875 52.31390625 30.07421875 87.62390625 30.07421875 124.00390625 C19.84421875 124.00390625 9.61421875 124.00390625 -0.92578125 124.00390625 C-0.97476563 120.85085938 -1.02375 117.6978125 -1.07421875 114.44921875 C-1.12818739 111.40441022 -1.18551105 108.35968214 -1.24316406 105.31494141 C-1.28150967 103.19455935 -1.31635258 101.07411099 -1.34765625 98.95361328 C-1.39318591 95.91024027 -1.45119964 92.86732593 -1.51171875 89.82421875 C-1.52326996 88.87209503 -1.53482117 87.91997131 -1.54672241 86.93899536 C-1.5665921 86.05823334 -1.58646179 85.17747131 -1.60693359 84.27001953 C-1.62025726 83.49280548 -1.63358093 82.71559143 -1.64730835 81.91482544 C-1.76617701 79.76501155 -1.76617701 79.76501155 -3.92578125 78.00390625 C-7.98674083 77.53176952 -7.98674083 77.53176952 -11.92578125 78.00390625 C-14.70974109 80.50596774 -15.15281197 82.72899002 -15.3581543 86.31347656 C-15.39923826 88.06938004 -15.42512803 89.82569078 -15.4375 91.58203125 C-15.45413696 92.40364746 -15.47077393 93.22526367 -15.48791504 94.07177734 C-15.54561947 97.13222829 -15.57794332 100.19311534 -15.61328125 103.25390625 C-15.71640625 110.10140625 -15.81953125 116.94890625 -15.92578125 124.00390625 C-30.44578125 124.00390625 -44.96578125 124.00390625 -59.92578125 124.00390625 C-57.28138628 81.69358672 -47.05238879 38.44337834 -13.92578125 9.00390625 C-3.14822591 0.00638585 -3.14822591 0.00638585 0 0 Z " fill="#F67E82" transform="translate(139.92578125,372.99609375)"/>
<path d="M0 0 C5.28516916 3.31637197 9.58391019 7.89917968 13.73095703 12.52270508 C15.17621083 14.13255041 15.17621083 14.13255041 17.53515625 16.04296875 C20.9277379 15.73717771 22.53236122 14.38194603 24.8125 11.953125 C25.40869141 11.33373047 26.00488281 10.71433594 26.61914062 10.07617188 C27.85103472 8.76639196 29.08280632 7.45649683 30.31445312 6.14648438 C34.34425022 1.96019031 37.23188152 -0.58188058 43.18359375 -1.2578125 C49.93705722 -1.28683885 55.35772924 -1.0196115 60.48046875 3.91796875 C65.69696373 9.66244906 66.86612478 13.54073896 66.734375 21.2734375 C65.97412123 31.84245554 56.72611421 39.08397718 49.53515625 46.04296875 C51.11014276 49.99896429 53.87993659 52.49411889 56.91015625 55.35546875 C62.92985336 61.2776493 66.65103377 65.20052634 67.03515625 73.98046875 C66.79942237 80.26670549 65.43880342 84.93248644 61.109375 89.5703125 C55.64831067 94.43870318 50.41237122 95.60320341 43.2890625 95.39453125 C34.30855137 94.24808302 28.25243263 85.98452246 22.29296875 79.80859375 C19.85422813 77.07018415 19.85422813 77.07018415 17.53515625 76.04296875 C17.303125 76.59984375 17.07109375 77.15671875 16.83203125 77.73046875 C13.10597441 84.3745219 5.14536201 92.34605466 -2.36328125 94.6171875 C-8.93781092 95.94920188 -15.63330373 95.52961583 -21.46484375 92.04296875 C-26.36743862 87.7382513 -28.94806481 83.24091275 -29.75 76.7265625 C-30.14722702 70.05518557 -28.80223584 66.07468645 -24.46484375 61.04296875 C-20.26639357 56.57212074 -15.88736356 52.29065981 -11.46484375 48.04296875 C-12.75977668 45.16779181 -14.09364533 43.1986886 -16.3984375 41.0546875 C-16.96498047 40.51263672 -17.53152344 39.97058594 -18.11523438 39.41210938 C-19.29872798 38.2984613 -20.48618984 37.18901413 -21.67773438 36.08398438 C-26.3262652 31.61485202 -28.84815505 27.73796188 -29.93359375 21.234375 C-30.01338369 14.52204595 -28.89731681 10.16574499 -24.46484375 5.04296875 C-17.59756286 -1.32182817 -9.03867777 -3.50947077 0 0 Z " fill="#020202" transform="translate(237.46484375,34.95703125)"/>
<path d="M0 0 C6.93 1.98 13.86 3.96 21 6 C36.91662344 9.7768259 52.13943305 11.38519086 68.4375 11.3125 C69.26671967 11.31100952 70.09593933 11.30951904 70.95028687 11.3079834 C90.81834102 11.24402608 113.19085054 10.75623736 131.76953125 2.81640625 C134 2 134 2 137 3 C136.40574219 3.53367187 135.81148437 4.06734375 135.19921875 4.6171875 C134.37035156 5.36226563 133.54148437 6.10734375 132.6875 6.875 C131.77226562 7.69742187 130.85703125 8.51984375 129.9140625 9.3671875 C128.02647395 11.07259592 126.14578352 12.78568335 124.2734375 14.5078125 C118.02867897 20.24867121 111.61611606 25.69332357 105 31 C103.83300591 31.94751355 102.66635637 32.89545156 101.5 33.84375 C100.25032555 34.85456928 99.00031905 35.86497816 97.75 36.875 C97.12625488 37.38184326 96.50250977 37.88868652 95.85986328 38.41088867 C92.57226132 41.05245715 89.24850409 43.54925194 85.7421875 45.89453125 C85.05286133 46.36455566 84.36353516 46.83458008 83.65332031 47.31884766 C82.33813835 48.2062947 81.00719423 49.07098153 79.65917969 49.90771484 C76.08988947 52.30478484 76.08988947 52.30478484 74.56567383 56.17407227 C74.47814324 57.74654875 74.40207252 59.31970812 74.33789062 60.89331055 C74 63 74 63 71.49609375 65.62890625 C70.48675781 66.26699219 69.47742188 66.90507812 68.4375 67.5625 C67.42558594 68.22378906 66.41367188 68.88507813 65.37109375 69.56640625 C64.58863281 70.03949219 63.80617187 70.51257813 63 71 C62.484375 70.67 61.96875 70.34 61.4375 70 C57.89799565 68.54789565 55.84100276 68.49982966 52 69 C48.18723893 70.75801204 44.6832713 72.96702725 41.125 75.1875 C32.27358783 80.53271234 23.35968825 85.60147246 14.1875 90.375 C13.1145166 90.93985107 12.0415332 91.50470215 10.93603516 92.08666992 C9.94007324 92.60205322 8.94411133 93.11743652 7.91796875 93.6484375 C7.03906982 94.10395996 6.1601709 94.55948242 5.25463867 95.02880859 C3 96 3 96 0 96 C0 64.32 0 32.64 0 0 Z " fill="#EDEBEC" transform="translate(185,396)"/>
<path d="M0 0 C12.47128741 15.99227588 19.93573091 35.57519454 25 55 C25.34804688 56.25296875 25.69609375 57.5059375 26.0546875 58.796875 C27.40350966 64.26611819 27.97438356 69.85082928 28.625 75.4375 C28.7590625 76.51837891 28.893125 77.59925781 29.03125 78.71289062 C29.15757812 79.77572266 29.28390625 80.83855469 29.4140625 81.93359375 C29.5270166 82.88290771 29.6399707 83.83222168 29.75634766 84.81030273 C30.06588721 88.86254153 30 92.93595596 30 97 C15.48 97 0.96 97 -14 97 C-14.3125 76.25 -14.3125 76.25 -14.38793945 69.71582031 C-14.42023008 68.00323301 -14.4536039 66.29066564 -14.48828125 64.578125 C-14.49452515 63.6917334 -14.50076904 62.8053418 -14.50720215 61.89208984 C-14.60580959 56.95303246 -14.60580959 56.95303246 -16.40869141 52.43017578 C-18.40661389 50.63455905 -19.4055788 50.51574343 -22.0625 50.625 C-26.00314251 50.57855488 -26.00314251 50.57855488 -28 53 C-28.32956935 54.97760261 -28.32956935 54.97760261 -28.31884766 57.26611328 C-28.33871735 58.14687531 -28.35858704 59.02763733 -28.37905884 59.93508911 C-28.39638565 61.36327469 -28.39638565 61.36327469 -28.4140625 62.8203125 C-28.43342865 63.79410858 -28.4527948 64.76790466 -28.4727478 65.77120972 C-28.53264558 68.88905003 -28.57896971 72.00692706 -28.625 75.125 C-28.66317039 77.23569341 -28.70222156 79.34637108 -28.7421875 81.45703125 C-28.84001741 86.63794012 -28.91950519 91.81867641 -29 97 C-39.23 97 -49.46 97 -60 97 C-60.23071388 91.17831971 -60.42924245 85.37267495 -60.54931641 79.55004883 C-60.59937783 77.57391456 -60.6674543 75.5981465 -60.75439453 73.62329102 C-61.45702287 57.24378443 -61.45702287 57.24378443 -57.9206543 51.79785156 C-55.39762325 49.51346337 -52.91735839 47.7411758 -50 46 C-48.51693359 44.78183594 -48.51693359 44.78183594 -47.00390625 43.5390625 C-46.19824219 42.90742188 -45.39257812 42.27578125 -44.5625 41.625 C-39.54367827 37.57024572 -35.04182063 33.14329124 -30.5390625 28.5390625 C-28.48446927 26.48446927 -26.41962799 24.60219131 -24.1875 22.75 C-18.72914114 18.10869278 -14.01443689 12.69040438 -9.171875 7.42578125 C-2.30740314 0 -2.30740314 0 0 0 Z " fill="#F57E82" transform="translate(402,400)"/>
<path d="M0 0 C2.51651636 1.30287727 4.43962864 2.77734382 6.578125 4.640625 C7.49464844 5.42050781 8.41117188 6.20039063 9.35546875 7.00390625 C11.81544357 9.16716602 14.21318157 11.3744266 16.578125 13.640625 C14.96068764 17.52247465 12.34853596 20.35739308 9.515625 23.390625 C8.99540771 23.95064209 8.47519043 24.51065918 7.93920898 25.08764648 C1.46648707 31.95322418 -5.45077011 38.35167693 -12.37939453 44.75097656 C-14.26463553 46.49515123 -16.14002537 48.24912504 -18.01171875 50.0078125 C-23.77970398 55.41003128 -29.65827771 60.561297 -35.828125 65.5078125 C-38.34347639 67.57615868 -40.72518398 69.73582735 -43.109375 71.953125 C-49.13303431 77.42745689 -55.64693712 82.19008086 -62.20068359 87.00195312 C-64.46858676 88.67508634 -66.72165809 90.36670654 -68.97265625 92.0625 C-79.30965661 99.8171427 -89.83620145 107.25491297 -100.87329102 113.98925781 C-103.50540137 115.63208026 -103.50540137 115.63208026 -106.07788086 117.78417969 C-116.69479918 125.71115147 -127.51094595 124.55499891 -140.234375 124.140625 C-142.3912095 124.10042245 -144.54811658 124.06393371 -146.70507812 124.03125 C-151.94561609 123.94385072 -157.18339953 123.81062308 -162.421875 123.640625 C-160.13853662 121.27812089 -158.04960414 119.73671211 -155.140625 118.1875 C-154.30313721 117.73624756 -153.46564941 117.28499512 -152.6027832 116.82006836 C-151.7180835 116.34835205 -150.83338379 115.87663574 -149.921875 115.390625 C-137.1360002 109.64334536 -137.1360002 109.64334536 -127.421875 100.640625 C-127.628125 99.609375 -127.834375 98.578125 -128.046875 97.515625 C-127.421875 93.640625 -127.421875 93.640625 -125.046875 91.47265625 C-122.21724824 89.44991525 -119.33347643 87.54234666 -116.421875 85.640625 C-115.761875 84.980625 -115.101875 84.320625 -114.421875 83.640625 C-113.885625 84.32125 -113.349375 85.001875 -112.796875 85.703125 C-110.56349104 87.97182362 -110.56349104 87.97182362 -107.57519531 87.46899414 C-104.18714574 86.57896223 -102.33681564 85.47107598 -99.59375 83.32421875 C-98.71074219 82.64166016 -97.82773437 81.95910156 -96.91796875 81.25585938 C-96.01175781 80.53720703 -95.10554688 79.81855469 -94.171875 79.078125 C-93.28113281 78.38654297 -92.39039063 77.69496094 -91.47265625 76.98242188 C-88.77694903 74.88336973 -86.09686395 72.76600221 -83.421875 70.640625 C-82.53870605 69.93929443 -81.65553711 69.23796387 -80.74560547 68.51538086 C-70.12846477 60.05300673 -59.87036529 51.26650506 -49.92333984 42.02880859 C-48.38453881 40.60610572 -46.8364384 39.19423354 -45.28515625 37.78515625 C-38.17698952 31.32550442 -31.15448585 24.84814239 -24.859375 17.578125 C-23.71497536 16.26437474 -22.56918399 14.95183527 -21.421875 13.640625 C-20.90367187 13.0425 -20.38546875 12.444375 -19.8515625 11.828125 C-15.12530164 6.71371711 -7.44369398 -1.10454814 0 0 Z " fill="#394749" transform="translate(374.421875,373.359375)"/>
<path d="M0 0 C1.05574219 0.36351562 2.11148438 0.72703125 3.19921875 1.1015625 C14.14899671 5.19617187 14.14899671 5.19617187 17 11 C18.79860559 25.31690052 14.53318868 39.2767782 5.92578125 50.76953125 C0.13898063 57.50564995 -7.65867337 65.09934957 -16.92236328 66.23583984 C-29.88844515 67.05081708 -38.05257012 65.31320021 -48.1875 56.875 C-56.17589395 49.30044749 -60.84526597 40.46489728 -64 30 C-64.19078125 29.38769531 -64.3815625 28.77539062 -64.578125 28.14453125 C-65.74022381 22.23719563 -66.2441651 14.64600254 -64.26953125 8.859375 C-59.27524564 2.00800846 -47.9338323 -0.84279598 -40.0546875 -2.49609375 C-27.19354061 -4.39809435 -12.25667206 -4.59395505 0 0 Z " fill="#394749" transform="translate(189,197)"/>
<path d="M0 0 C-11.2780571 15.87059358 -26.83197027 26.560978 -43 37 C-45.66585173 35.73082276 -47.81287503 34.42160815 -50.25 32.6875 C-54.20598303 30.18820605 -58.37107908 28.70423588 -62.8125 27.3125 C-63.7710791 27.00928833 -63.7710791 27.00928833 -64.74902344 26.69995117 C-86.25510812 20.25617044 -111.12390844 20.44352994 -131.625 30.1875 C-138.48266066 33.89477363 -143.89624589 38.42811607 -147.1953125 45.59765625 C-148.32709147 50.38299355 -148.21126347 54.97788917 -148.125 59.875 C-148.11597656 60.84953125 -148.10695313 61.8240625 -148.09765625 62.828125 C-148.0742177 65.21885672 -148.03835089 67.60946099 -148 70 C-152.455 70.495 -152.455 70.495 -157 71 C-157 55.49 -157 39.98 -157 24 C-127.82158963 14.27386321 -97.46859633 8.03482649 -67 4 C-66.21753906 3.89349121 -65.43507813 3.78698242 -64.62890625 3.67724609 C-52.99254341 2.13454648 -41.27463848 1.54019783 -29.5625 0.875 C-28.78400696 0.83034607 -28.00551392 0.78569214 -27.20343018 0.73968506 C-18.12751357 0.22673073 -9.09458124 -0.13935513 0 0 Z " fill="#DFAD95" transform="translate(258,157)"/>
<path d="M0 0 C2.59463027 1.25258013 4.63835214 3.00281712 6.8125 4.875 C6.3278125 5.27589844 5.843125 5.67679687 5.34375 6.08984375 C-24.10089737 31.06116969 -37.98902357 71.30379595 -41.1875 108.875 C-41.58524013 113.87278756 -41.89590394 118.86926757 -42.1875 123.875 C-48.1275 123.875 -54.0675 123.875 -60.1875 123.875 C-57.93503354 82.20437057 -47.46461559 40.90312897 -16.43359375 10.87109375 C-3.94715327 -0.22555162 -3.94715327 -0.22555162 0 0 Z " fill="#D95963" transform="translate(140.1875,373.125)"/>
<path d="M0 0 C6.49463226 1.08243871 10.40672264 6.53551863 14.7890625 11.14453125 C15.39943359 11.7772998 16.00980469 12.41006836 16.63867188 13.06201172 C17.86589559 14.33977953 19.07864081 15.63163515 20.27539062 16.93798828 C23.02449069 19.80718714 24.54961368 21.39311102 28.515625 22.20703125 C32.00130365 21.421325 33.44068722 20.29265878 36 17.8125 C36.85335937 17.00425781 37.70671875 16.19601563 38.5859375 15.36328125 C40.57943304 13.36140968 42.53742492 11.34585463 44.4765625 9.29296875 C45.00040527 8.74672852 45.52424805 8.20048828 46.06396484 7.63769531 C47.087309 6.56409622 48.09617807 5.47646881 49.08837891 4.37402344 C51.58027372 1.74998915 52.97941771 0.61935301 56.609375 0.09765625 C59.375 0.5625 59.375 0.5625 61.375 2.5625 C61.86293763 6.19948315 61.83280359 7.92683573 59.66259766 10.94018555 C58.87933105 11.6856665 58.09606445 12.43114746 57.2890625 13.19921875 C56.44085938 14.02357422 55.59265625 14.84792969 54.71875 15.69726562 C53.8215625 16.53966797 52.924375 17.38207031 52 18.25 C50.24036224 19.93950727 48.48246863 21.63083352 46.7265625 23.32421875 C45.94104004 24.06631592 45.15551758 24.80841309 44.34619141 25.57299805 C41.81675728 28.12592828 40.47394802 29.84285586 39.97875977 33.44433594 C40.49079167 37.47370841 41.80119639 38.67187766 44.71484375 41.453125 C45.61267578 42.32710937 46.51050781 43.20109375 47.43554688 44.1015625 C48.85963867 45.44347656 48.85963867 45.44347656 50.3125 46.8125 C52.17750631 48.60758447 54.040875 50.40437241 55.90234375 52.203125 C56.73499756 52.99235352 57.56765137 53.78158203 58.42553711 54.59472656 C60.92327834 57.1159281 61.33934063 57.99195002 61.5625 61.5625 C61.375 64.5625 61.375 64.5625 59.375 66.5625 C55.63639534 67.08793777 53.97024823 66.99841116 50.88964844 64.74243164 C50.0959082 63.91090576 49.30216797 63.07937988 48.484375 62.22265625 C47.61039062 61.32482422 46.73640625 60.42699219 45.8359375 59.50195312 C44.94132812 58.55255859 44.04671875 57.60316406 43.125 56.625 C41.32991553 54.75999369 39.53312759 52.896625 37.734375 51.03515625 C36.94514648 50.20250244 36.15591797 49.36984863 35.34277344 48.51196289 C32.91478256 46.10656498 31.94842743 45.62252822 28.5390625 45.265625 C24.64315091 45.63116732 23.53164675 46.61688356 20.75 49.3125 C19.46802734 50.52292969 19.46802734 50.52292969 18.16015625 51.7578125 C16.16548561 53.76647101 14.22652534 55.78837381 12.30859375 57.8671875 C11.7892627 58.41793945 11.26993164 58.96869141 10.73486328 59.53613281 C9.7201697 60.61902763 8.72406083 61.71970756 7.74951172 62.83886719 C6.33203125 64.3515625 6.33203125 64.3515625 3.375 66.5625 C-0.48828125 66.3984375 -0.48828125 66.3984375 -3.625 65.5625 C-4.68721131 62.72482358 -5.10805455 61.49114178 -4.625 58.5625 C-1.95845035 54.86542619 1.34332361 51.89247456 4.6875 48.8125 C6.45605833 47.13192331 8.22305772 45.44970412 9.98828125 43.765625 C11.17611206 42.66202637 11.17611206 42.66202637 12.38793945 41.53613281 C14.82814986 39.11241234 16.22702221 37.26950498 16.9375 33.875 C15.84245316 27.42639085 10.37080595 23.50113517 5.79296875 19.1484375 C4.84381592 18.23288086 4.84381592 18.23288086 3.87548828 17.29882812 C2.59772047 16.07160441 1.30586485 14.85885919 -0.00048828 13.66210938 C-4.49682958 9.35397572 -4.49682958 9.35397572 -5.16015625 5.2578125 C-4.44311344 1.646429 -3.60158336 0.77176786 0 0 Z " fill="#EBE9EA" transform="translate(227.625,48.4375)"/>
<path d="M0 0 C0.01981934 1.0923999 0.03963867 2.1847998 0.06005859 3.31030273 C0.1374154 7.44998303 0.22590457 11.5893695 0.31738281 15.72875977 C0.35514559 17.50409045 0.39007891 19.27948407 0.421875 21.05493164 C0.69146369 35.93706979 1.55316038 50.47403303 5 65 C5 66.32 5 67.64 5 69 C-2.1031498 69.60452339 -7.49535893 67.61300094 -13.2109375 63.3515625 C-21.02841543 56.69653482 -27.0678115 49.01929972 -28.45703125 38.55859375 C-28.77025857 27.99007193 -26.73360775 19.8328554 -19.875 11.6875 C-14.97473097 6.5925183 -7.52354174 0 0 0 Z " fill="#DDAC94" transform="translate(56,194)"/>
<path d="M0 0 C10.19554808 3.14055638 17.87744544 8.00991989 24 17 C28.98351079 26.93762033 29.1785688 36.44914859 26 47 C21.814866 57.20020513 14.73994471 63.7014217 4.80859375 68.1875 C1.44865226 69.15949976 -1.52021098 69.13764308 -5 69 C-4.79503906 67.75605469 -4.59007812 66.51210938 -4.37890625 65.23046875 C-4.10657236 63.54951131 -3.83444829 61.86851987 -3.5625 60.1875 C-3.42779297 59.37345703 -3.29308594 58.55941406 -3.15429688 57.72070312 C-1.07325319 44.77762657 -0.72781047 31.89306042 -0.4375 18.8125 C-0.39421613 16.98371598 -0.35059904 15.15493981 -0.30664062 13.32617188 C-0.20058499 8.88419582 -0.09903971 4.44213779 0 0 Z " fill="#DEAC94" transform="translate(456,194)"/>
<path d="M0 0 C1.49439292 0.94526499 2.95120385 1.95141017 4.375 3 C8.35190348 5.86580949 11.04527295 6.75583369 15.9296875 6.3984375 C19.91398332 5.63164849 22.9049275 3.95377282 25.9375 1.3125 C29.06517233 -0.67783694 31.38257464 -0.45217817 35 0 C38.03496676 2.02331117 38.82358577 3.27830544 39.6875 6.8125 C38.63074592 11.7119962 35.93311473 14.04328788 32 17 C24.03902384 22.11043308 16.3256138 23.17122638 7 22 C-0.42405487 20.11064472 -5.6885496 15.3114504 -11 10 C-11.39152344 6.47628908 -11.41041808 4.62383549 -9.4375 1.625 C-5.9294859 -0.71367606 -4.16804365 -0.68328584 0 0 Z " fill="#040303" transform="translate(242,255)"/>
<path d="M0 0 C0 14.52 0 29.04 0 44 C-4.95 44 -9.9 44 -15 44 C-15 31.13 -15 18.26 -15 5 C-3 0 -3 0 0 0 Z " fill="#D45660" transform="translate(86,186)"/>
<path d="M0 0 C0 9.57 0 19.14 0 29 C-13.53 29 -27.06 29 -41 29 C-35.38314389 24.50651511 -35.38314389 24.50651511 -32.42578125 22.44140625 C-31.43674805 21.74772949 -31.43674805 21.74772949 -30.42773438 21.04003906 C-29.38069336 20.30865723 -29.38069336 20.30865723 -28.3125 19.5625 C-21.02844201 14.4546588 -13.80716749 9.26576345 -6.6262207 4.01391602 C-5.90394287 3.48854248 -5.18166504 2.96316895 -4.4375 2.421875 C-3.47650391 1.71949707 -3.47650391 1.71949707 -2.49609375 1.00292969 C-1 0 -1 0 0 0 Z " fill="#ECEAEB" transform="translate(327,468)"/>
<path d="M0 0 C1.26972656 -0.00064453 2.53945313 -0.00128906 3.84765625 -0.00195312 C5.16636719 0.01802734 6.48507812 0.03800781 7.84375 0.05859375 C9.82181641 0.04795898 9.82181641 0.04795898 11.83984375 0.03710938 C23.96477788 0.11712163 23.96477788 0.11712163 28.34375 4.49609375 C28.92695002 10.67801393 28.92695002 10.67801393 26.77734375 13.69335938 C23.45483346 16.15457687 21.20381637 16.01301583 17.09375 16.02734375 C16.39862305 16.03117065 15.70349609 16.03499756 14.98730469 16.03894043 C13.52146959 16.04165555 12.05558572 16.0343221 10.58984375 16.01757812 C8.35046025 15.99615794 6.11428413 16.01738818 3.875 16.04296875 C2.44790961 16.0403254 1.02082121 16.03520025 -0.40625 16.02734375 C-1.70046875 16.02283203 -2.9946875 16.01832031 -4.328125 16.01367188 C-7.65625 15.49609375 -7.65625 15.49609375 -10.07421875 13.68164062 C-11.65625 11.49609375 -11.65625 11.49609375 -12.21875 7.99609375 C-11.65625 4.49609375 -11.65625 4.49609375 -9.53710938 2.30834961 C-6.07081557 0.1278158 -4.06994996 -0.00651872 0 0 Z " fill="#F88084" transform="translate(344.65625,262.50390625)"/>
<path d="M0 0 C4.28019873 0.78615895 5.46642534 2.06495033 8.0625 5.5625 C8.75355364 9.24473743 8.67004028 12.82791948 8.5625 16.5625 C8.56507813 17.54734375 8.56765625 18.5321875 8.5703125 19.546875 C8.49421184 25.17832384 8.24415036 29.38084964 4.0625 33.5625 C-2.16130145 34.14965108 -2.16130145 34.14965108 -5.13476562 31.90039062 C-7.36783402 29.00441785 -7.45240404 27.4702181 -7.46875 23.84375 C-7.47390625 22.74675781 -7.4790625 21.64976562 -7.484375 20.51953125 C-7.46890625 19.37871094 -7.4534375 18.23789063 -7.4375 17.0625 C-7.45296875 15.92167969 -7.4684375 14.78085938 -7.484375 13.60546875 C-7.47921875 12.50847656 -7.4740625 11.41148437 -7.46875 10.28125 C-7.46423828 9.28029297 -7.45972656 8.27933594 -7.45507812 7.24804688 C-6.60012383 2.81196327 -4.37075512 0.83695311 0 0 Z " fill="#060504" transform="translate(352.9375,216.4375)"/>
</svg>
