<?xml version="1.0" encoding="UTF-8"?>
<svg version="1.1" xmlns="http://www.w3.org/2000/svg" width="512" height="512">
<path d="M0 0 C1.3383969 -0.00462134 2.6767887 -0.01098246 4.0151701 -0.01890898 C7.65495181 -0.03545658 11.29430876 -0.02742335 14.93409109 -0.0149641 C18.87418955 -0.0058555 22.81421863 -0.01991193 26.75430298 -0.03088379 C34.45791182 -0.04861203 42.16136422 -0.04485454 49.86497903 -0.03323323 C56.12934919 -0.02417666 62.3936757 -0.02298449 68.65805054 -0.02732849 C69.55175281 -0.02794142 70.44545509 -0.02855436 71.36623925 -0.02918586 C73.18213281 -0.03046484 74.99802636 -0.0317617 76.8139199 -0.03307623 C93.81659417 -0.04446534 110.81918199 -0.03139456 127.82184207 -0.00987476 C142.39111833 0.0079947 156.96026706 0.00489012 171.52954102 -0.0135498 C188.47396981 -0.03498605 205.41832295 -0.04336686 222.3627634 -0.03110075 C224.17174338 -0.02982664 225.98072337 -0.02856915 227.78970337 -0.02732849 C228.679611 -0.02671139 229.56951863 -0.02609429 230.48639315 -0.02545848 C236.73869921 -0.02201384 242.99095703 -0.02781477 249.24325562 -0.0372467 C256.86924582 -0.04849873 264.49507146 -0.0453596 272.12104297 -0.02412373 C276.00729722 -0.0136562 279.89327773 -0.0094174 283.77952957 -0.02272034 C287.34502974 -0.03474016 290.91000539 -0.02792639 294.47545874 -0.00681013 C296.359086 -0.00030616 298.2427504 -0.01319394 300.12633801 -0.02703905 C316.32782952 0.1203657 330.28922642 6.11862576 342.00512695 17.22277832 C356.7886249 32.44874012 359.37712333 50.26799657 359.36914062 70.65710449 C359.37213643 72.18709901 359.37553993 73.71709278 359.37931824 75.24708557 C359.38811497 79.38318335 359.39049439 83.51926042 359.39113402 87.65536666 C359.39184645 90.24113093 359.39398432 92.82688999 359.39663124 95.41265297 C359.40586705 104.43749957 359.40996793 113.46233144 359.40917969 122.48718262 C359.40857787 130.89536387 359.41915461 139.30348119 359.43492335 147.71164626 C359.44799403 154.93900516 359.45336385 162.16634314 359.45272428 169.39371377 C359.45246935 173.70691292 359.45531821 178.02005507 359.46590233 182.33324242 C359.47557651 186.38557019 359.47566721 190.43778634 359.4683857 194.49011803 C359.46733933 195.97641666 359.46970581 197.46272222 359.47574615 198.94900894 C359.48346067 200.97870246 359.47762434 203.00843397 359.47111511 205.03813171 C359.47165988 206.17352984 359.47220465 207.30892797 359.47276592 208.47873211 C359.1408552 212.51838395 358.32318229 215.40591617 355.43707275 218.29914856 C352.70458368 219.79155812 350.91909267 219.87028421 347.81274414 219.84851074 C346.19151642 219.84817085 346.19151642 219.84817085 344.53753662 219.8478241 C343.37699768 219.83234024 342.21645874 219.81685638 341.02075195 219.80090332 C339.82782532 219.79665848 338.63489868 219.79241364 337.40582275 219.78804016 C333.59494476 219.7712448 329.78459517 219.73358975 325.97387695 219.69543457 C323.39055126 219.6803889 320.80721727 219.66670029 318.22387695 219.65441895 C311.89036327 219.62133838 305.55715786 219.57112981 299.22387695 219.50793457 C299.55387695 222.14793457 299.88387695 224.78793457 300.22387695 227.50793457 C297.25387695 227.50793457 294.28387695 227.50793457 291.22387695 227.50793457 C291.31668945 229.42605957 291.31668945 229.42605957 291.41137695 231.38293457 C291.43035814 235.15163093 290.85346479 238.23957178 289.7121582 241.82824707 C289.29703979 243.15106689 289.29703979 243.15106689 288.87353516 244.50061035 C288.65914795 245.16302734 288.44476074 245.82544434 288.22387695 246.50793457 C289.44119507 245.95480591 289.44119507 245.95480591 290.68310547 245.39050293 C293.71697785 244.0218273 296.756939 242.66897845 299.80224609 241.3260498 C301.11520811 240.74331891 302.42549992 240.15453061 303.73291016 239.55944824 C305.62021607 238.70171264 307.51627035 237.86671501 309.4152832 237.03527832 C310.55167236 236.52730713 311.68806152 236.01933594 312.85888672 235.49597168 C316.83863408 234.327428 319.23253226 234.4178405 323.22387695 235.50793457 C326.81720148 238.44472653 328.23091619 241.37038012 329.83349609 245.67834473 C330.06334702 246.28709442 330.29319794 246.89584412 330.53001404 247.52304077 C331.28365763 249.52722749 332.02148631 251.53683692 332.7590332 253.54699707 C333.2833493 254.95254299 333.80854593 256.35776073 334.33457947 257.76266479 C335.43464409 260.70738771 336.52753313 263.65463439 337.61474609 266.60412598 C338.99919513 270.35978957 340.39574944 274.11079123 341.79709721 277.86017799 C343.14286724 281.4625241 344.48240006 285.06717969 345.8215332 288.67199707 C346.07322832 289.34795551 346.32492344 290.02391396 346.58424568 290.72035599 C347.30744673 292.66605377 348.0264471 294.61324222 348.74365234 296.56115723 C349.18170197 297.75041809 349.61975159 298.93967896 350.07107544 300.16497803 C351.11583941 303.19464141 351.95372231 306.2081282 352.74902344 309.31018066 C353.69091245 312.85842681 353.69091245 312.85842681 356.65576172 314.96228027 C357.92697876 315.23237915 357.92697876 315.23237915 359.22387695 315.50793457 C360.61689676 316.37188827 361.98061953 317.28458918 363.3137207 318.23840332 C364.08683594 318.78649658 364.85995117 319.33458984 365.65649414 319.89929199 C366.89641113 320.78838257 366.89641113 320.78838257 368.16137695 321.69543457 C369.95608557 322.96748821 371.75169107 324.23827719 373.5480957 325.50793457 C374.47928223 326.16664551 375.41046875 326.82535645 376.36987305 327.50402832 C381.03873364 330.78221547 385.75510054 333.98969928 390.47387695 337.19543457 C392.31893137 338.45063948 394.16398349 339.70584775 396.0090332 340.96105957 C396.88962402 341.5598291 397.77021484 342.15859863 398.67749023 342.7755127 C404.87764053 346.99375493 411.06653614 351.22740199 417.22387695 355.50793457 C418.27317383 356.23625488 419.3224707 356.9645752 420.40356445 357.71496582 C432.42999837 366.23776384 439.93794329 374.80952317 442.80772018 389.69053268 C443.51306579 394.46575728 443.48487308 399.19777869 443.45092773 404.01623535 C443.45121979 405.11984909 443.45151184 406.22346283 443.45181274 407.36051941 C443.45042967 410.97484453 443.43491679 414.58895837 443.41918945 418.20324707 C443.41545569 420.72244148 443.41261043 423.24163735 443.41061401 425.76083374 C443.40378201 431.69270888 443.38805114 437.62451727 443.36791503 443.55635822 C443.34547308 450.31582216 443.33454185 457.07528989 443.32452416 463.83478189 C443.30368221 477.72587521 443.26815013 491.61689793 443.22387695 505.50793457 C437.28387695 505.50793457 431.34387695 505.50793457 425.22387695 505.50793457 C425.22387695 502.53793457 425.22387695 499.56793457 425.22387695 496.50793457 C411.69387695 496.50793457 398.16387695 496.50793457 384.22387695 496.50793457 C384.22387695 499.14793457 384.22387695 501.78793457 384.22387695 504.50793457 C376.67777996 504.88523942 368.24153122 504.40248437 361.53271484 500.53234863 C353.27406945 495.95529283 343.83537454 496.83067024 334.66137695 496.75793457 C332.87163494 496.72973945 331.0819194 496.69980714 329.29223633 496.66809082 C324.93616432 496.59464451 320.58040574 496.54481389 316.22387695 496.50793457 C316.07950195 497.45668457 315.93512695 498.40543457 315.78637695 499.38293457 C315.22387695 502.50793457 315.22387695 502.50793457 314.22387695 504.50793457 C308.02030883 504.18980287 304.07178646 501.03779047 299.22387695 497.50793457 C297.92450195 496.64168457 297.92450195 496.64168457 296.59887695 495.75793457 C292.83249804 492.18978613 289.90422079 487.94170218 287.22387695 483.50793457 C287.22387695 482.84793457 287.22387695 482.18793457 287.22387695 481.50793457 C286.16104492 481.91406982 285.09821289 482.32020508 284.00317383 482.73864746 C282.48300822 483.31933894 280.96282428 483.89998239 279.44262695 484.48059082 C278.61826645 484.7954393 277.79390594 485.11028778 276.94456482 485.43467712 C272.31064498 487.20370815 267.67555927 488.96960889 263.03857422 490.73059082 C262.08103745 491.09425751 261.12350067 491.45792419 260.13694763 491.83261108 C258.1603856 492.58328268 256.18379207 493.33387136 254.20716858 494.0843811 C248.34016801 496.31466144 242.48116745 498.56440685 236.62887573 500.83299255 C233.00857183 502.233939 229.3837724 503.62298577 225.75805664 505.00985718 C224.03806086 505.6709664 222.32008101 506.33734643 220.60424805 507.00918579 C218.19999915 507.9497652 215.78922759 508.8713507 213.3762207 509.78918457 C212.68096786 510.06652939 211.98571503 510.34387421 211.26939392 510.62962341 C206.28926848 512.49311852 201.53071598 513.39037249 196.22387695 512.50793457 C191.72737445 509.70954943 190.47122845 504.66407598 188.77075195 499.87512207 C188.46566711 499.0420755 188.16058228 498.20902893 187.84625244 497.35073853 C187.20585444 495.59594601 186.57076448 493.83920835 185.94067383 492.08068848 C184.97341318 489.38164045 183.9907785 486.68859565 183.00512695 483.99621582 C182.38443778 482.28951071 181.76461566 480.58248996 181.14575195 478.87512207 C180.85206726 478.06678925 180.55838257 477.25845642 180.25579834 476.42562866 C178.22387695 470.74336624 178.22387695 470.74336624 178.22387695 468.50793457 C177.21067383 468.85727051 176.1974707 469.20660645 175.15356445 469.56652832 C173.80208466 470.02640686 172.45051748 470.48602866 171.09887695 470.94543457 C170.10114258 471.29058105 170.10114258 471.29058105 169.08325195 471.6427002 C155.57455093 476.21181966 142.07984776 475.30061599 129.03637695 469.38293457 C116.13603581 462.38826908 107.79744565 451.49485415 103.16918945 437.83996582 C101.74881559 432.83344142 101.08408607 428.14443075 101.09887695 422.94543457 C101.09629883 422.03664551 101.0937207 421.12785645 101.09106445 420.19152832 C101.22387695 417.50793457 101.22387695 417.50793457 102.22387695 412.50793457 C98.26387695 412.50793457 94.30387695 412.50793457 90.22387695 412.50793457 C90.22387695 415.14793457 90.22387695 417.78793457 90.22387695 420.50793457 C77.27966658 420.57767532 64.33550146 420.63086769 51.39114094 420.66337109 C45.37950785 420.67897696 39.36800403 420.70012197 33.35644531 420.73425293 C27.54683868 420.76702807 21.73735581 420.78482571 15.9276638 420.7925663 C13.71947471 420.79807736 11.51129181 420.80883846 9.3031559 420.82512474 C-12.52789707 420.97962823 -30.38325106 418.52250952 -46.77612305 402.50793457 C-59.56314836 387.77885251 -62.93051743 371.78967723 -62.91656494 352.83334351 C-62.91953606 351.56640124 -62.92250719 350.29945898 -62.92556834 348.99412453 C-62.93359507 345.49333436 -62.93542548 341.99256474 -62.93616581 338.49176645 C-62.93802393 334.70973066 -62.94557502 330.92770534 -62.95230103 327.14567566 C-62.96585382 318.88307765 -62.97190422 310.62048452 -62.97631168 302.35787725 C-62.97907914 297.1937344 -62.98331739 292.02959341 -62.98781586 286.86545181 C-63.00000426 272.55302231 -63.0103046 258.24059429 -63.01369095 243.92815971 C-63.01391051 243.01303545 -63.01413008 242.09791119 -63.0143563 241.15505589 C-63.01468372 239.7791845 -63.01468372 239.7791845 -63.01501775 238.37551773 C-63.01546121 236.5169874 -63.01590777 234.65845708 -63.01635742 232.79992676 C-63.01657885 231.87804192 -63.01680028 230.95615709 -63.01702842 230.00633635 C-63.02097474 215.07537091 -63.0384256 200.14445433 -63.06171694 185.21350776 C-63.08546486 169.86535652 -63.09789435 154.51722977 -63.09905887 139.16905987 C-63.09997366 130.55920125 -63.1056767 121.9494063 -63.12387848 113.33956528 C-63.13932593 106.00703453 -63.14437262 98.67458715 -63.13614038 91.34204321 C-63.13225032 87.60559872 -63.13308233 83.86932188 -63.14719772 80.13289833 C-63.16240536 76.06995544 -63.15402169 72.00738553 -63.14361572 67.94442749 C-63.15167213 66.78057931 -63.15972853 65.61673113 -63.16802907 64.41761482 C-63.06548944 47.20366503 -58.59007736 32.8554439 -47.77612305 19.50793457 C-47.25405273 18.85824707 -46.73198242 18.20855957 -46.1940918 17.53918457 C-34.56579292 4.58614279 -16.74792651 -0.1231039 0 0 Z M157.22387695 219.50793457 C157.1980957 224.06992676 157.17231445 228.63191895 157.14575195 233.33215332 C157.12057867 236.22608938 157.09424243 239.11992142 157.0637207 242.01379395 C157.01540926 246.60486213 156.97135617 251.19568947 156.95288086 255.7869873 C156.93771175 259.48959554 156.90326307 263.19157282 156.85556793 266.89389992 C156.8407565 268.30479249 156.83283607 269.71577516 156.8319931 271.12674522 C156.82962138 273.10637324 156.8002457 275.08591269 156.76977539 277.06530762 C156.75645172 278.75408272 156.75645172 278.75408272 156.74285889 280.47697449 C156.10379992 284.20920888 154.9369078 285.89736325 152.22387695 288.50793457 C147.9671284 288.98853521 145.41086417 288.92812151 141.38793945 287.50402832 C133.4275165 284.99796924 124.16554686 285.50783008 116.6027832 289.05871582 C107.67689843 294.49632379 101.67639707 301.44965417 98.62231445 311.48449707 C96.74030121 321.04217219 98.71712201 329.79059233 103.7668457 338.02355957 C107.51111315 343.19870268 111.56158423 346.58119106 117.22387695 349.50793457 C116.63571016 352.53279238 115.98317167 355.52180071 115.22387695 358.50793457 C122.72089396 360.94410257 129.34697438 361.91930086 137.22387695 361.50793457 C136.4909374 356.74057391 134.79025486 352.46313885 133.0637207 347.98840332 C132.42840137 346.3095763 131.79365353 344.63053291 131.15942383 342.95129395 C130.16233672 340.32256516 129.16141928 337.6955444 128.15039062 335.07214355 C127.17200803 332.52777483 126.2104802 329.97753265 125.2512207 327.42590332 C124.94812485 326.65167526 124.64502899 325.8774472 124.33274841 325.07975769 C122.0915221 319.06099603 121.13326196 313.77977954 123.22387695 307.50793457 C124.85275269 306.72406006 124.85275269 306.72406006 127.00854492 306.11437988 C130.7622164 304.97304773 134.42555866 303.71530438 138.09155273 302.31555176 C139.14939972 301.91213562 140.2072467 301.50871948 141.29714966 301.09307861 C142.96630936 300.45538544 142.96630936 300.45538544 144.66918945 299.80480957 C147.0685992 298.89768666 149.46834918 297.99146326 151.8684082 297.08605957 C155.6217484 295.66963044 159.37367416 294.25036605 163.11889648 292.81262207 C166.75526826 291.42027258 170.39878416 290.04830289 174.04418945 288.67980957 C175.16101105 288.24658386 176.27783264 287.81335815 177.42849731 287.36700439 C183.14124938 285.24385105 187.27881729 283.71425418 193.22387695 285.50793457 C196.78958922 288.57060029 196.71989704 292.13139268 197.09887695 296.63293457 C198.10830863 306.156703 201.54248958 314.77344509 209.05200195 321.03137207 C216.26000129 326.34662338 224.41551312 329.00418388 233.41137695 328.44543457 C243.24223401 326.9511443 250.82069087 322.02412113 256.9855957 314.30090332 C262.47676038 306.49626975 264.24663719 298.98717583 263.22387695 289.50793457 C261.48627192 282.41420681 258.6765987 275.92013211 255.22387695 269.50793457 C250.60387695 269.50793457 245.98387695 269.50793457 241.22387695 269.50793457 C240.56387695 271.81793457 239.90387695 274.12793457 239.22387695 276.50793457 C227.34770237 274.5610207 216.61008807 268.68219118 209.31762695 258.96887207 C200.58174769 245.82803675 199.23259735 235.64746093 198.22387695 219.50793457 C184.69387695 219.50793457 171.16387695 219.50793457 157.22387695 219.50793457 Z " fill="#010101" transform="translate(65.776123046875,-0.5079345703125)"/>
<path d="M0 0 C1.3383969 -0.00462134 2.6767887 -0.01098246 4.0151701 -0.01890898 C7.65495181 -0.03545658 11.29430876 -0.02742335 14.93409109 -0.0149641 C18.87418955 -0.0058555 22.81421863 -0.01991193 26.75430298 -0.03088379 C34.45791182 -0.04861203 42.16136422 -0.04485454 49.86497903 -0.03323323 C56.12934919 -0.02417666 62.3936757 -0.02298449 68.65805054 -0.02732849 C69.55175281 -0.02794142 70.44545509 -0.02855436 71.36623925 -0.02918586 C73.18213281 -0.03046484 74.99802636 -0.0317617 76.8139199 -0.03307623 C93.81659417 -0.04446534 110.81918199 -0.03139456 127.82184207 -0.00987476 C142.39111833 0.0079947 156.96026706 0.00489012 171.52954102 -0.0135498 C188.47396981 -0.03498605 205.41832295 -0.04336686 222.3627634 -0.03110075 C224.17174338 -0.02982664 225.98072337 -0.02856915 227.78970337 -0.02732849 C228.679611 -0.02671139 229.56951863 -0.02609429 230.48639315 -0.02545848 C236.73869921 -0.02201384 242.99095703 -0.02781477 249.24325562 -0.0372467 C256.86924582 -0.04849873 264.49507146 -0.0453596 272.12104297 -0.02412373 C276.00729722 -0.0136562 279.89327773 -0.0094174 283.77952957 -0.02272034 C287.34502974 -0.03474016 290.91000539 -0.02792639 294.47545874 -0.00681013 C296.359086 -0.00030616 298.2427504 -0.01319394 300.12633801 -0.02703905 C316.32782952 0.1203657 330.28922642 6.11862576 342.00512695 17.22277832 C356.7886249 32.44874012 359.37712333 50.26799657 359.36914062 70.65710449 C359.37213643 72.18709901 359.37553993 73.71709278 359.37931824 75.24708557 C359.38811497 79.38318335 359.39049439 83.51926042 359.39113402 87.65536666 C359.39184645 90.24113093 359.39398432 92.82688999 359.39663124 95.41265297 C359.40586705 104.43749957 359.40996793 113.46233144 359.40917969 122.48718262 C359.40857787 130.89536387 359.41915461 139.30348119 359.43492335 147.71164626 C359.44799403 154.93900516 359.45336385 162.16634314 359.45272428 169.39371377 C359.45246935 173.70691292 359.45531821 178.02005507 359.46590233 182.33324242 C359.47557651 186.38557019 359.47566721 190.43778634 359.4683857 194.49011803 C359.46733933 195.97641666 359.46970581 197.46272222 359.47574615 198.94900894 C359.48346067 200.97870246 359.47762434 203.00843397 359.47111511 205.03813171 C359.47165988 206.17352984 359.47220465 207.30892797 359.47276592 208.47873211 C359.1408552 212.51838395 358.32318229 215.40591617 355.43707275 218.29914856 C352.70458368 219.79155812 350.91909267 219.87028421 347.81274414 219.84851074 C346.19151642 219.84817085 346.19151642 219.84817085 344.53753662 219.8478241 C343.37699768 219.83234024 342.21645874 219.81685638 341.02075195 219.80090332 C339.82782532 219.79665848 338.63489868 219.79241364 337.40582275 219.78804016 C333.59494476 219.7712448 329.78459517 219.73358975 325.97387695 219.69543457 C323.39055126 219.6803889 320.80721727 219.66670029 318.22387695 219.65441895 C311.89036327 219.62133838 305.55715786 219.57112981 299.22387695 219.50793457 C299.55387695 222.14793457 299.88387695 224.78793457 300.22387695 227.50793457 C294.28387695 227.50793457 288.34387695 227.50793457 282.22387695 227.50793457 C282.10012695 226.12605957 281.97637695 224.74418457 281.84887695 223.32043457 C281.45850844 219.69962521 280.59187972 216.88234139 279.22387695 213.50793457 C278.66860955 209.7003867 278.83954914 208.10248177 280.94140625 204.85095215 C285.28198149 200.77337836 291.63160511 201.90236601 297.1809082 202.01965332 C298.43900803 202.02672806 299.69710785 202.0338028 300.99333191 202.04109192 C304.32637022 202.06431087 307.65767671 202.10916909 310.99023438 202.16461182 C314.39543751 202.21590723 317.80082009 202.23862766 321.20629883 202.26379395 C327.87930142 202.31889687 334.55148926 202.40255165 341.22387695 202.50793457 C341.18664814 182.87945745 341.12669616 163.25117372 341.03997421 143.62285137 C341.00022927 134.50828966 340.96781374 125.39381373 340.95288086 116.2791748 C340.93984073 108.33132374 340.91281602 100.38366175 340.86926389 92.4359172 C340.84670199 88.23080433 340.83096309 84.02592423 340.8319931 79.82074547 C340.83274285 75.85532765 340.81466699 71.89042332 340.78270912 67.92513847 C340.77425359 66.47686865 340.77243038 65.02854093 340.77807426 63.58025742 C340.82662131 49.19659776 337.67377446 39.07253657 327.49731445 28.75793457 C316.96631554 19.14058397 305.27118961 18.20892676 291.54614258 18.18908691 C290.06714334 18.17977673 288.5881493 18.16960646 287.10916138 18.15864563 C283.11390575 18.13145431 279.11868517 18.11622863 275.12336159 18.1032176 C270.94063952 18.08753927 266.75798852 18.06076414 262.57531738 18.03518677 C254.66368354 17.98848199 246.75203621 17.95169781 238.84033537 17.91851389 C229.82939456 17.88023371 220.81852527 17.83083906 211.80764484 17.78052974 C193.27976855 17.67733338 174.75186197 17.58950014 156.22387695 17.50793457 C156.22387695 31.69793457 156.22387695 45.88793457 156.22387695 60.50793457 C157.21387695 60.17793457 158.20387695 59.84793457 159.22387695 59.50793457 C173.95907914 58.41953895 187.11331861 62.0186988 198.41137695 71.69543457 C208.64001359 81.39417323 214.81799078 92.57519411 215.3449707 106.76965332 C215.60382263 121.09786868 211.78420999 133.25770928 202.47387695 144.44543457 C193.66449239 153.57732069 181.01584419 160.07556199 168.21606445 160.64074707 C167.18739258 160.63816895 166.1587207 160.63559082 165.09887695 160.63293457 C164.06504883 160.6355127 163.0312207 160.63809082 161.96606445 160.64074707 C159.22387695 160.50793457 159.22387695 160.50793457 156.22387695 159.50793457 C156.22387695 173.69793457 156.22387695 187.88793457 156.22387695 202.50793457 C160.35274414 202.44992676 164.48161133 202.39191895 168.7355957 202.33215332 C172.03409316 202.29998363 175.33254611 202.27287518 178.63111115 202.24918365 C182.10986463 202.22281212 185.58800606 202.18759232 189.06640625 202.1307373 C193.06036194 202.06586623 197.05367253 202.04172595 201.0480957 202.01965332 C202.29096848 201.99384689 203.53384125 201.96804047 204.81437683 201.94145203 C214.41863722 201.93832744 214.41863722 201.93832744 217.51611328 204.8626709 C219.66052407 208.18428503 219.83555916 209.60846052 219.22387695 213.50793457 C218.72887695 214.70418457 218.23387695 215.90043457 217.72387695 217.13293457 C214.92342606 224.15416073 215.26096955 231.71969267 217.84887695 238.75793457 C223.16975792 250.32667926 230.67910164 255.56017372 242.22387695 260.50793457 C241.56387695 265.78793457 240.90387695 271.06793457 240.22387695 276.50793457 C235.17563226 278.1906828 230.92462948 275.60185129 226.22387695 273.50793457 C212.23835221 266.18398589 203.53155248 254.59848815 198.78637695 239.63293457 C197.87963856 232.98351972 198.22387695 226.21888773 198.22387695 219.50793457 C184.69387695 219.50793457 171.16387695 219.50793457 157.22387695 219.50793457 C157.31088867 226.33352051 157.31088867 226.33352051 157.3996582 233.29699707 C157.42521762 236.18635581 157.44928763 239.07557443 157.46801758 241.96496582 C157.49786388 246.54745568 157.5331032 251.12944422 157.60107422 255.71154785 C157.65555351 259.40742851 157.68533039 263.10277135 157.69826317 266.79902267 C157.70747482 268.2064396 157.72546374 269.61382832 157.75252724 271.02101517 C157.98151974 283.42526242 157.98151974 283.42526242 154.93945312 287.38830566 C151.96856244 289.70721899 150.14662264 290.09960992 146.3840332 289.91418457 C144.22387695 289.50793457 144.22387695 289.50793457 141.3918457 288.50012207 C133.35939113 285.9844088 124.15216999 286.54269311 116.53637695 290.12512207 C107.9444678 295.26285153 102.55296673 301.88955705 99.6184082 311.48840332 C97.76665189 320.96719554 99.78600475 329.46814692 104.5090332 337.76574707 C108.13111443 343.07275188 112.72956964 346.28460761 118.22387695 349.50793457 C117.6255297 353.65092124 116.2172341 356.68987834 114.16137695 360.32043457 C113.33959961 361.78416504 113.33959961 361.78416504 112.5012207 363.27746582 C112.07969727 364.01352051 111.65817383 364.7495752 111.22387695 365.50793457 C98.81612313 360.22315053 89.11174592 350.18019578 84.03637695 337.70324707 C79.10440902 324.37744911 79.86964224 309.4695958 85.72387695 296.57043457 C92.95836209 283.02316553 104.17820938 274.13512779 118.72387695 269.50793457 C124.96169933 268.05771059 134.34245405 266.56722312 140.22387695 269.50793457 C140.22387695 252.67793457 140.22387695 235.84793457 140.22387695 218.50793457 C136.09500977 218.56594238 131.96614258 218.6239502 127.7121582 218.68371582 C124.41366075 218.71588551 121.1152078 218.74299396 117.81664276 218.76668549 C114.33788927 218.79305702 110.85974784 218.82827682 107.38134766 218.88513184 C103.38739197 218.95000291 99.39408138 218.97414319 95.3996582 218.99621582 C94.15678543 219.02202225 92.91391266 219.04782867 91.63337708 219.07441711 C82.02974308 219.07754149 82.02974308 219.07754149 78.92163086 216.11560059 C77.09499879 213.30998408 76.68542031 212.36526445 77.28637695 209.13293457 C77.4874707 207.95924316 77.4874707 207.95924316 77.69262695 206.76184082 C78.14460147 204.84427247 78.70458992 202.95268673 79.28637695 201.07043457 C81.84804546 191.33609425 79.78431872 182.95010889 74.97387695 174.24621582 C70.51767844 167.59989702 64.17164552 164.14663095 56.91137695 161.13293457 C47.51817528 159.54086649 38.5600716 159.48467027 30.22387695 164.50793457 C22.66866891 170.07320359 17.01551071 176.03550052 15.22387695 185.50793457 C15.10466908 187.96417123 15.0486479 190.42383749 15.03637695 192.88293457 C15.02219727 194.16941895 15.00801758 195.45590332 14.9934082 196.78137207 C15.21794604 200.4120348 15.96636897 203.12046151 17.22387695 206.50793457 C17.6983997 211.15825747 17.11043644 213.7966438 14.22387695 217.50793457 C11.01704562 219.55404263 8.4846937 219.75225024 4.72094727 219.73498535 C3.62010803 219.73483429 2.5192688 219.73468323 1.3850708 219.73452759 C0.20265808 219.72420502 -0.97975464 219.71388245 -2.19799805 219.70324707 C-4.02068207 219.69900223 -4.02068207 219.69900223 -5.88018799 219.69467163 C-9.76226639 219.68347411 -13.64411434 219.65836991 -17.52612305 219.63293457 C-20.15763013 219.62290423 -22.78914083 219.61377848 -25.4206543 219.60559082 C-31.87255588 219.58353614 -38.324323 219.55006261 -44.77612305 219.50793457 C-44.76228464 238.84112052 -44.71990177 258.17404618 -44.64403248 277.50709057 C-44.60945793 286.48485691 -44.58403688 295.46247091 -44.58056641 304.44030762 C-44.57751599 312.27027761 -44.55688146 320.09997576 -44.51559848 327.92984086 C-44.49436401 332.07135596 -44.48161824 336.21248553 -44.48996925 340.3540554 C-44.49757057 344.26211609 -44.4814437 348.16939955 -44.4480629 352.07731819 C-44.43990206 353.50217271 -44.43999292 354.9271056 -44.44952583 356.3519516 C-44.52424535 368.76075976 -41.98343417 379.87178789 -33.77612305 389.51184082 C-20.30252555 402.9591227 -4.84122098 403.11032504 13.05200195 403.11730957 C15.25446782 403.13231075 17.45692251 403.14904193 19.65936279 403.16741943 C25.41974438 403.21088732 31.17997427 403.23104635 36.94049072 403.24615479 C42.83322036 403.26580027 48.72578793 403.30776174 54.6184082 403.34777832 C66.15351421 403.42285756 77.68858355 403.4732837 89.22387695 403.50793457 C89.55387695 409.11793457 89.88387695 414.72793457 90.22387695 420.50793457 C77.27966658 420.57767532 64.33550146 420.63086769 51.39114094 420.66337109 C45.37950785 420.67897696 39.36800403 420.70012197 33.35644531 420.73425293 C27.54683868 420.76702807 21.73735581 420.78482571 15.9276638 420.7925663 C13.71947471 420.79807736 11.51129181 420.80883846 9.3031559 420.82512474 C-12.52789707 420.97962823 -30.38325106 418.52250952 -46.77612305 402.50793457 C-59.56314836 387.77885251 -62.93051743 371.78967723 -62.91656494 352.83334351 C-62.91953606 351.56640124 -62.92250719 350.29945898 -62.92556834 348.99412453 C-62.93359507 345.49333436 -62.93542548 341.99256474 -62.93616581 338.49176645 C-62.93802393 334.70973066 -62.94557502 330.92770534 -62.95230103 327.14567566 C-62.96585382 318.88307765 -62.97190422 310.62048452 -62.97631168 302.35787725 C-62.97907914 297.1937344 -62.98331739 292.02959341 -62.98781586 286.86545181 C-63.00000426 272.55302231 -63.0103046 258.24059429 -63.01369095 243.92815971 C-63.01391051 243.01303545 -63.01413008 242.09791119 -63.0143563 241.15505589 C-63.01468372 239.7791845 -63.01468372 239.7791845 -63.01501775 238.37551773 C-63.01546121 236.5169874 -63.01590777 234.65845708 -63.01635742 232.79992676 C-63.01657885 231.87804192 -63.01680028 230.95615709 -63.01702842 230.00633635 C-63.02097474 215.07537091 -63.0384256 200.14445433 -63.06171694 185.21350776 C-63.08546486 169.86535652 -63.09789435 154.51722977 -63.09905887 139.16905987 C-63.09997366 130.55920125 -63.1056767 121.9494063 -63.12387848 113.33956528 C-63.13932593 106.00703453 -63.14437262 98.67458715 -63.13614038 91.34204321 C-63.13225032 87.60559872 -63.13308233 83.86932188 -63.14719772 80.13289833 C-63.16240536 76.06995544 -63.15402169 72.00738553 -63.14361572 67.94442749 C-63.15167213 66.78057931 -63.15972853 65.61673113 -63.16802907 64.41761482 C-63.06548944 47.20366503 -58.59007736 32.8554439 -47.77612305 19.50793457 C-47.25405273 18.85824707 -46.73198242 18.20855957 -46.1940918 17.53918457 C-34.56579292 4.58614279 -16.74792651 -0.1231039 0 0 Z " fill="#020100" transform="translate(65.776123046875,-0.5079345703125)"/>
<path d="M0 0 C19.3848668 -0.06780357 38.76963711 -0.12303214 58.15459251 -0.15543652 C67.1560021 -0.17088446 76.15733259 -0.19193423 85.15869141 -0.22631836 C93.00718542 -0.2562843 100.85562214 -0.27559006 108.70417178 -0.28226548 C112.85729037 -0.28616558 117.01024509 -0.29528786 121.163311 -0.31719017 C125.07850346 -0.3376692 128.99346573 -0.34381093 132.90870667 -0.33932304 C134.33969502 -0.34014317 135.77069169 -0.34604056 137.20163345 -0.35761642 C151.49658174 -0.46751057 163.19066408 2.30494777 173.8125 12.375 C183.75353152 23.04114206 185.45379389 33.75015056 185.34057617 47.97485352 C185.33972864 49.47369876 185.3402075 50.97254525 185.34190369 52.47138977 C185.34276015 56.51629314 185.32519139 60.56092654 185.30418181 64.60576749 C185.28535643 68.84181406 185.28365997 73.07786764 185.28010559 77.31394958 C185.27080228 85.32480098 185.24621184 93.33552873 185.21605712 101.34632581 C185.18245959 110.47089 185.16601367 119.59546026 185.15097082 128.72007096 C185.11966066 147.48011726 185.06693369 166.24004867 185 185 C183.94217316 185.00546844 183.94217316 185.00546844 182.86297607 185.01104736 C176.21225402 185.04893673 169.56199532 185.10579939 162.91161728 185.18390274 C159.4926539 185.2233884 156.07394846 185.25557099 152.65478516 185.27099609 C148.72264629 185.28905691 144.79122235 185.33900351 140.859375 185.390625 C139.63321472 185.39185364 138.40705444 185.39308228 137.14373779 185.39434814 C136.00285706 185.41406677 134.86197632 185.4337854 133.68652344 185.45410156 C132.18094879 185.46742523 132.18094879 185.46742523 130.6449585 185.48101807 C127.29619709 186.13809706 126.08386004 187.34861671 124 190 C123.69360822 192.3045761 123.69360822 192.3045761 124.1875 194.625 C124.30480469 195.40101563 124.42210937 196.17703125 124.54296875 196.9765625 C124.92749053 199.05428575 124.92749053 199.05428575 126 201 C126.13559318 204.00474497 126.04299016 206.99068847 126 210 C128.97 210 131.94 210 135 210 C135.46386123 217.07388374 134.91997315 223.898155 131 230 C125.74497328 234.26091936 119.41885159 236.6635918 113.1875 239.125 C111.51151648 239.78721164 109.83820208 240.45622871 108.16796875 241.1328125 C107.07391724 241.56424561 107.07391724 241.56424561 105.95776367 242.00439453 C103.81375112 243.09471542 102.51261244 244.13349441 101 246 C100.2730774 249.10839021 100.2730774 249.10839021 100 252 C94.76528314 252.75612577 90.22745859 253.2063366 85 252 C85.33 249.03 85.66 246.06 86 243 C84.68 242.62875 83.36 242.2575 82 241.875 C72.56173671 238.68940093 66.43309913 232.31178473 61.7421875 223.6875 C58.5404682 216.70193062 57.48817678 209.14883795 59.68359375 201.671875 C60.44018182 199.77497477 61.21915413 197.88704418 62 196 C62.26649024 192.46900433 62.11890066 190.35670197 61 187 C57.87619227 185.95873076 55.61482146 185.84447668 52.33520508 185.79467773 C51.17422806 185.77473251 50.01325104 185.75478729 48.8170929 185.73423767 C47.56389755 185.71752518 46.31070221 185.70081268 45.01953125 185.68359375 C43.73640549 185.66281265 42.45327972 185.64203156 41.13127136 185.62062073 C37.72337185 185.56548094 34.31541259 185.51603611 30.90740967 185.46777344 C27.42845362 185.41749921 23.94958304 185.36189605 20.47070312 185.30664062 C13.64720102 185.19865448 6.82365095 185.09956895 0 185 C0 170.81 0 156.62 0 142 C4.95 142 9.9 142 15 142 C27.99364191 139.11252402 40.6625707 133.83132508 48.6875 122.6484375 C56.96108117 109.28660391 59.90006516 96.63752798 57.375 80.875 C54.29921166 67.93547665 46.47263382 57.398051 35.5 50.0625 C23.73138972 43.05737484 14.07162984 43 0 43 C0 28.81 0 14.62 0 0 Z " fill="#E75849" transform="translate(222,17)"/>
<path d="M0 0 C1.27603592 -0.00137466 2.55207184 -0.00274933 3.86677551 -0.00416565 C5.27847314 -0.00062673 6.69017052 0.00300808 8.10186768 0.00672913 C9.59012348 0.00701123 11.07837941 0.0068528 12.56663513 0.00628662 C16.60553784 0.00599957 20.64441088 0.01188147 24.68330669 0.01886058 C28.90471433 0.0251094 33.12612263 0.02569913 37.34753418 0.02688599 C45.34079135 0.02999479 53.33403485 0.03820211 61.32728601 0.04823548 C70.4275665 0.0594106 79.52784765 0.0649106 88.6281333 0.06993091 C107.34757594 0.08038508 126.06700587 0.09797582 144.78643799 0.12025452 C144.79190643 1.15595833 144.79190643 1.15595833 144.79748535 2.21258545 C144.83929608 9.39919186 144.90863244 16.58515878 144.99395752 23.77137756 C145.02439308 26.45335877 145.04507331 29.13515203 145.05743408 31.817276 C145.07884071 35.67261011 145.12548306 39.52693938 145.17706299 43.38197327 C145.17890594 45.18066109 145.17890594 45.18066109 145.18078613 47.01568604 C145.25379803 53.48367112 145.25379803 53.48367112 147.61358643 59.38905334 C149.7708663 61.41417885 149.7708663 61.41417885 153.16143799 61.55775452 C156.70282309 61.26713202 156.70282309 61.26713202 159.56768799 60.12025452 C168.98259597 57.19523456 178.38623624 58.63612935 187.20050049 62.63587952 C194.52202038 66.83856465 200.62768067 73.45809164 203.31378174 81.59681702 C205.10603896 91.16539692 204.99483848 101.6658254 199.78643799 110.12025452 C194.52956973 117.70251391 187.64958855 122.85098699 178.84893799 125.76087952 C170.61239995 127.19603387 163.37670016 126.37322402 155.78643799 123.12025452 C153.11472428 122.53415081 153.11472428 122.53415081 150.78643799 123.12025452 C148.14626817 125.21575974 146.92450396 126.41661005 146.26745605 129.76521301 C146.25857361 130.76892944 146.24969116 131.77264587 146.24053955 132.80677795 C146.22082092 133.94765869 146.20110229 135.08853943 146.18078613 136.26399231 C146.1795575 137.49015259 146.17832886 138.71631287 146.17706299 139.97962952 C146.16052673 141.23914429 146.14399048 142.49865906 146.12695312 143.79634094 C146.08660965 147.13708124 146.06328975 150.47705876 146.04821777 153.81794739 C146.02863295 157.23007026 145.98688025 160.64191735 145.94659424 164.05384827 C145.86924148 170.74282645 145.82883125 177.43059743 145.78643799 184.12025452 C131.59643799 184.12025452 117.40643799 184.12025452 102.78643799 184.12025452 C102.45643799 177.52025452 102.12643799 170.92025452 101.78643799 164.12025452 C99.21841464 156.26944029 95.84197681 149.6418996 90.78643799 143.12025452 C90.33268799 142.51697327 89.87893799 141.91369202 89.41143799 141.29212952 C82.53404869 133.34014814 69.26153352 126.90983458 58.78643799 126.12025452 C43.0281497 125.13186484 30.72669477 129.04976702 18.53643799 139.24525452 C5.30564138 151.73983827 3.73225783 166.14967747 2.78643799 184.12025452 C-11.07356201 184.12025452 -24.93356201 184.12025452 -39.21356201 184.12025452 C-39.30396351 164.47461812 -39.37760282 144.82915094 -39.4208107 125.18335915 C-39.44140885 116.06084861 -39.46947675 106.93847679 -39.51531982 97.8160553 C-39.55527189 89.86208544 -39.58101478 81.90821607 -39.58991599 73.95414865 C-39.59511662 69.74508428 -39.60728222 65.53630733 -39.63648224 61.32733536 C-39.66378392 57.35956757 -39.6719775 53.39220354 -39.66599274 49.42435074 C-39.66708642 47.97400208 -39.67495229 46.52363886 -39.69038391 45.07337189 C-39.82898709 31.3664102 -36.75008718 21.88822767 -27.17840576 12.02259827 C-19.27056825 4.56105846 -10.94721228 -0.00909237 0 0 Z " fill="#84AE35" transform="translate(60.21356201171875,16.879745483398438)"/>
<path d="M0 0 C6.96578535 4.61266016 11.14434335 11.71879385 14.22265625 19.34765625 C15.48076313 27.03608721 14.88709705 33.14502116 12.46875 40.52734375 C11.58192701 43.4563934 11.2804819 45.75711013 11.78515625 48.78515625 C13.88494181 51.46936507 15.08369701 52.64946665 18.46807861 53.30413818 C19.48955994 53.31302063 20.51104126 53.32190308 21.56347656 53.33105469 C22.72437805 53.35077332 23.88527954 53.37049194 25.08135986 53.39080811 C26.95341095 53.39265106 26.95341095 53.39265106 28.86328125 53.39453125 C30.14499207 53.4110675 31.42670288 53.42760376 32.74725342 53.44464111 C36.14698171 53.48828179 39.54645215 53.5083059 42.94641113 53.52337646 C46.41885441 53.54295982 49.89102662 53.58471265 53.36328125 53.625 C60.17074603 53.70235755 66.97702417 53.74276439 73.78515625 53.78515625 C73.78515625 70.61515625 73.78515625 87.44515625 73.78515625 104.78515625 C68.50515625 104.78515625 63.22515625 104.78515625 57.78515625 104.78515625 C43.81280461 108.01949691 32.29394449 113.97394722 23.78515625 125.78515625 C16.13182737 138.24444649 13.63115451 151.81932921 16.47265625 166.28515625 C20.6350753 180.99237024 28.61955362 191.24559814 41.87890625 198.75390625 C42.50796875 199.09421875 43.13703125 199.43453125 43.78515625 199.78515625 C44.44515625 198.79515625 45.10515625 197.80515625 45.78515625 196.78515625 C46.44515625 195.79515625 47.10515625 194.80515625 47.78515625 193.78515625 C54.34655976 194.68574105 54.34655976 194.68574105 57.12890625 195.31640625 C60.1667647 195.85249892 63.01477144 195.88153411 66.09765625 195.84765625 C67.16628906 195.83863281 68.23492187 195.82960938 69.3359375 195.8203125 C70.14417969 195.80871094 70.95242187 195.79710937 71.78515625 195.78515625 C72.45820643 197.38665511 73.12337852 198.99146654 73.78515625 200.59765625 C74.15640625 201.49097656 74.52765625 202.38429688 74.91015625 203.3046875 C75.78515625 205.78515625 75.78515625 205.78515625 75.78515625 208.78515625 C74.73457031 209.20925781 73.68398437 209.63335937 72.6015625 210.0703125 C64.51946909 213.41329896 57.20291292 216.67103538 50.78515625 222.78515625 C50.23730469 223.30464844 49.68945312 223.82414063 49.125 224.359375 C42.95839146 230.87295384 39.58011941 239.40026677 36.78515625 247.78515625 C32.16515625 247.78515625 27.54515625 247.78515625 22.78515625 247.78515625 C22.78515625 244.81515625 22.78515625 241.84515625 22.78515625 238.78515625 C21.57152405 238.7940387 20.35789185 238.80292114 19.10748291 238.81207275 C7.63268042 238.89339555 -3.84206308 238.95323513 -15.31708908 238.99240494 C-21.21558456 239.01321998 -27.11384613 239.04142621 -33.01220703 239.08691406 C-38.71159391 239.13058903 -44.41075675 239.15433904 -50.11029816 239.16466522 C-52.27746351 239.17201784 -54.44461754 239.18637518 -56.61168671 239.20807648 C-73.86098531 239.37383829 -86.91352913 238.00489974 -100.21484375 225.9765625 C-107.11675378 218.82178077 -111.34336798 208.62866401 -111.33509827 198.72981262 C-111.33647293 197.46356552 -111.3378476 196.19731842 -111.33926392 194.8927002 C-111.33572477 193.48681617 -111.33208996 192.08093238 -111.32836914 190.67504883 C-111.32808711 189.19679262 -111.32824531 187.71853628 -111.32881165 186.24028015 C-111.32909901 182.22404473 -111.32321209 178.20783907 -111.31623769 174.19161057 C-111.30999405 169.99555502 -111.30939955 165.79949881 -111.30821228 161.60343933 C-111.30510195 153.65618958 -111.29689257 145.70895357 -111.28686279 137.76170987 C-111.27569241 128.71465591 -111.27018887 119.6676013 -111.26516736 110.62054217 C-111.25470972 92.00873907 -111.23711604 73.39694877 -111.21484375 54.78515625 C-110.53468201 54.7770694 -109.85452026 54.76898254 -109.15374756 54.76065063 C-102.08098503 54.67466027 -95.00850454 54.57515878 -87.93603516 54.46777344 C-85.29578382 54.42946658 -82.65547999 54.39461676 -80.01513672 54.36328125 C-76.22213974 54.31766836 -72.4295047 54.25966669 -68.63671875 54.19921875 C-67.45430603 54.18766754 -66.27189331 54.17611633 -65.0536499 54.16421509 C-63.40239105 54.13441055 -63.40239105 54.13441055 -61.71777344 54.10400391 C-60.74958679 54.09068024 -59.78140015 54.07735657 -58.78387451 54.06362915 C-56.11318161 53.77413647 -54.47782444 53.20679683 -52.21484375 51.78515625 C-49.89905112 48.54304657 -49.90284516 45.68513858 -50.21484375 41.78515625 C-50.70597656 40.42777344 -50.70597656 40.42777344 -51.20703125 39.04296875 C-53.7911547 30.68963945 -53.288921 20.90659359 -49.53515625 12.9921875 C-38.54881019 -5.37256257 -18.57709817 -10.18955473 0 0 Z " fill="#FCB52E" transform="translate(132.21484375,164.21484375)"/>
<path d="M0 0 C1.3021407 2.62389312 2.30153552 5.06539806 3.2578125 7.81640625 C3.70820389 9.04906471 3.70820389 9.04906471 4.16769409 10.30662537 C5.16797279 13.05355732 6.14601085 15.80791634 7.125 18.5625 C7.82893044 20.50520999 8.53469394 22.44725666 9.2421875 24.38867188 C10.73762011 28.49427994 12.22645919 32.60219814 13.71191406 36.71142578 C17.02180968 45.83930708 20.4495112 54.92278588 23.8732605 64.00842285 C25.75226893 68.99732993 27.62426162 73.98886557 29.49609375 78.98046875 C30.05046867 80.458535 30.05046867 80.458535 30.61604309 81.96646118 C34.78105777 93.07577313 38.92430682 104.19317397 43.0625 115.3125 C43.41046631 116.24698975 43.75843262 117.18147949 44.11694336 118.14428711 C45.09029283 120.75872472 46.06288573 123.37344223 47.03515625 125.98828125 C47.46659691 127.14714592 47.46659691 127.14714592 47.90675354 128.329422 C49.93432367 133.78755365 51.12033381 137.84628499 51.0625 143.6875 C51.05347656 144.86699219 51.04445313 146.04648437 51.03515625 147.26171875 C51.01775391 148.61716797 51.01775391 148.61716797 51 150 C46.78183159 148.37031076 44.04692468 145.23016659 40.984375 142.0390625 C39.8036715 140.83305319 38.62267243 139.62733318 37.44140625 138.421875 C35.59665133 136.5276589 33.75523951 134.63043097 31.91943359 132.72753906 C30.1376241 130.8848171 28.34316549 129.05515632 26.546875 127.2265625 C26.01012146 126.66288971 25.47336792 126.09921692 24.92034912 125.51846313 C20.02017615 120.55546263 14.08712827 116.69142715 7 116 C6.35546875 115.93683594 5.7109375 115.87367188 5.046875 115.80859375 C-3.18893004 115.36224767 -10.00493534 118.08540212 -16.375 123.25 C-21.22835453 127.79940708 -24.61626519 133.86698736 -25.23828125 140.56640625 C-25.53556688 152.56735789 -22.04386051 159.4286008 -14 168 C-10.06310324 172.0430896 -6.06909181 176.02616299 -2.0625 180 C-0.98609346 181.07137887 0.09008014 182.14299182 1.16601562 183.21484375 C3.77466745 185.81259638 6.38644471 188.40717962 9 191 C7.61740573 193.76518855 6.22352205 193.85601286 3.34326172 194.91333008 C2.3376973 195.2865892 1.33213287 195.65984833 0.2960968 196.04441833 C-0.81481827 196.4487056 -1.92573334 196.85299286 -3.0703125 197.26953125 C-4.23057449 197.69859268 -5.39083649 198.12765411 -6.58625793 198.56971741 C-9.10842858 199.50174945 -11.63136555 200.43126561 -14.15597534 201.35662842 C-20.17472181 203.56290313 -26.18658507 205.78779567 -32.19818687 208.01345062 C-33.58019121 208.52505097 -34.96229384 209.03638587 -36.34449196 209.54746246 C-46.59632366 213.33921472 -56.81851996 217.20256422 -67.01953125 221.12890625 C-67.65587242 221.37357195 -68.29221359 221.61823765 -68.94783783 221.87031746 C-74.4863805 223.99982443 -80.02381323 226.13213364 -85.55548096 228.27944946 C-88.91901751 229.58500016 -92.28542614 230.88288692 -95.65234375 232.1796875 C-96.64756546 232.56923111 -97.64278717 232.95877472 -98.66816711 233.36012268 C-99.58067734 233.71033981 -100.49318756 234.06055695 -101.43334961 234.42138672 C-102.22358017 234.72809296 -103.01381073 235.03479919 -103.82798767 235.35079956 C-106 236 -106 236 -110 236 C-110.30180176 235.20005615 -110.60360352 234.4001123 -110.91455078 233.57592773 C-113.81431848 225.89535736 -116.72562174 218.21930424 -119.64941406 210.54785156 C-120.45621786 208.42846025 -121.26098251 206.3082883 -122.06152344 204.18652344 C-122.86521429 202.05818252 -123.67983047 199.93453031 -124.5 197.8125 C-124.9228125 196.70519531 -125.345625 195.59789062 -125.78125 194.45703125 C-126.88668602 191.71522489 -126.88668602 191.71522489 -130 190 C-133.7408613 189.31290303 -136.09566152 189.44095439 -139.36328125 191.4609375 C-141.06960402 192.71878664 -142.7739653 193.97930009 -144.4765625 195.2421875 C-152.19141319 200.61630949 -160.82767163 200.94702694 -170 200 C-173.34703245 199.11578397 -176.06625378 197.82153295 -179 196 C-180.04607422 195.36384766 -180.04607422 195.36384766 -181.11328125 194.71484375 C-188.28996344 189.86281191 -193.10169624 182.82383084 -195.52734375 174.515625 C-197.19022471 165.66525029 -196.71848769 157.74126886 -192 150 C-191.38125 148.96939453 -191.38125 148.96939453 -190.75 147.91796875 C-186.08826845 140.9915892 -179.42346626 135.40856455 -171.125 133.6875 C-169.41918004 133.44031908 -167.71047905 133.21255953 -166 133 C-163.79067187 132.63090608 -161.58233322 132.2558427 -159.375 131.875 C-157.58360035 131.58169779 -155.79202867 131.28943418 -154 131 C-151.44814767 121.36533651 -155.34274832 113.45122599 -158.9375 104.6875 C-159.53953021 103.17260767 -160.13928951 101.65681096 -160.73681641 100.14013672 C-162.20357869 96.4272641 -163.69070669 92.7230181 -165.18536377 89.02130127 C-167.11433009 84.23508881 -169.0012607 79.43302812 -170.875 74.625 C-171.21394287 73.78928467 -171.55288574 72.95356934 -171.90209961 72.0925293 C-174.48325824 65.50523373 -174.48325824 65.50523373 -173 62 C-170.27766364 60.63873628 -167.72845606 59.56680512 -164.87890625 58.546875 C-164.06381088 58.24179016 -163.24871552 57.93670532 -162.40892029 57.62237549 C-159.79870114 56.64999998 -157.18083034 55.70028761 -154.5625 54.75 C-152.80091871 54.09512985 -151.03984362 53.43889633 -149.27929688 52.78125 C-136.38492206 48 -136.38492206 48 -134 48 C-133.84144531 48.61746094 -133.68289062 49.23492187 -133.51953125 49.87109375 C-129.64119388 63.94881557 -121.67377079 75.04478466 -108.9375 82.52734375 C-95.49975979 89.26408319 -81.82571015 89.95064762 -67.6472168 85.26293945 C-55.46165861 80.83032429 -46.61909436 72.39457068 -40.625 61 C-35.44904157 49.77604666 -33.82039134 36.5857628 -36.8984375 24.4609375 C-37.5872445 22.60946336 -38.32269286 20.77394107 -39.125 18.96875 C-40 17 -40 17 -40 15 C-35.99846717 13.202776 -31.99658304 11.40633716 -27.99438477 9.6105957 C-26.63556617 9.0007805 -25.27684043 8.39075834 -23.91821289 7.78051758 C-21.95483947 6.89869397 -19.99112294 6.01763828 -18.02734375 5.13671875 C-16.25991821 4.34334106 -16.25991821 4.34334106 -14.45678711 3.53393555 C-13.31604736 3.02773682 -12.17530762 2.52153809 -11 2 C-10.38826935 1.70380768 -9.7765387 1.40761536 -9.14627075 1.10244751 C-3.61195136 -1.49360791 -3.61195136 -1.49360791 0 0 Z " fill="#4297D0" transform="translate(381,256)"/>
<path d="M0 0 C0.33 0 0.66 0 1 0 C1 41.58 1 83.16 1 126 C-27.215 126.495 -27.215 126.495 -56 127 C-60.18594523 130.3318933 -60.18594523 130.3318933 -60.20703125 133.2890625 C-60.07683594 134.05992187 -59.94664062 134.83078125 -59.8125 135.625 C-59.69519531 136.40101563 -59.57789063 137.17703125 -59.45703125 137.9765625 C-59.07250947 140.05428575 -59.07250947 140.05428575 -58 142 C-57.86440682 145.00474497 -57.95700984 147.99068847 -58 151 C-55.03 151 -52.06 151 -49 151 C-48.53613877 158.07388374 -49.08002685 164.898155 -53 171 C-58.25502672 175.26091936 -64.58114841 177.6635918 -70.8125 180.125 C-72.48848352 180.78721164 -74.16179792 181.45622871 -75.83203125 182.1328125 C-76.92608276 182.56424561 -76.92608276 182.56424561 -78.04223633 183.00439453 C-80.18624888 184.09471542 -81.48738756 185.13349441 -83 187 C-83.7269226 190.10839021 -83.7269226 190.10839021 -84 193 C-89.23471686 193.75612577 -93.77254141 194.2063366 -99 193 C-98.67 190.03 -98.34 187.06 -98 184 C-99.32 183.62875 -100.64 183.2575 -102 182.875 C-111.43826329 179.68940093 -117.56690087 173.31178473 -122.2578125 164.6875 C-125.4595318 157.70193062 -126.51182322 150.14883795 -124.31640625 142.671875 C-123.55981818 140.77497477 -122.78084587 138.88704418 -122 137 C-121.73350976 133.46900433 -121.88109934 131.35670197 -123 128 C-126.12380773 126.95873076 -128.38517854 126.84447668 -131.66479492 126.79467773 C-132.82577194 126.77473251 -133.98674896 126.75478729 -135.1829071 126.73423767 C-136.43610245 126.71752518 -137.68929779 126.70081268 -138.98046875 126.68359375 C-140.26359451 126.66281265 -141.54672028 126.64203156 -142.86872864 126.62062073 C-146.27662815 126.56548094 -149.68458741 126.51603611 -153.09259033 126.46777344 C-156.57154638 126.41749921 -160.05041696 126.36189605 -163.52929688 126.30664062 C-170.35279898 126.19865448 -177.17634905 126.09956895 -184 126 C-184 111.81 -184 97.62 -184 83 C-183.67 83 -183.34 83 -183 83 C-183 91.91 -183 100.82 -183 110 C-160.90218776 102.12099437 -138.97476094 94.23624206 -117.71533203 84.27099609 C-115.22366599 83.10469386 -112.72244595 81.96355558 -110.21484375 80.83203125 C-70.52566079 62.78505337 -30.86090431 36.47326126 -2.5 2.9375 C-1.675 1.968125 -0.85 0.99875 0 0 Z " fill="#D55144" transform="translate(406,76)"/>
<path d="M0 0 C2.07641337 3.11462005 3.20276913 5.93766206 4.50610352 9.44335938 C4.74862854 10.0924678 4.99115356 10.74157623 5.24102783 11.41035461 C6.04068965 13.55346093 6.83483366 15.69856714 7.62890625 17.84375 C8.18383575 19.33455208 8.73909242 20.82523241 9.29466248 22.3157959 C10.75592795 26.23917992 12.21245329 30.1643078 13.66809082 34.08978271 C14.85738931 37.29465565 16.04995108 40.49830927 17.24270725 43.70189667 C19.70630166 50.31887996 22.16775371 56.93666283 24.62329102 63.55664062 C25.05916031 64.73117798 25.4950296 65.90571533 25.94410706 67.11584473 C27.58981981 71.61108372 28.10998699 74.8913137 28.0625 79.6875 C28.05347656 80.86699219 28.04445313 82.04648437 28.03515625 83.26171875 C28.01775391 84.61716797 28.01775391 84.61716797 28 86 C23.78183159 84.37031076 21.04692468 81.23016659 17.984375 78.0390625 C16.8036715 76.83305319 15.62267243 75.62733318 14.44140625 74.421875 C12.59665133 72.5276589 10.75523951 70.63043097 8.91943359 68.72753906 C7.1376241 66.8848171 5.34316549 65.05515632 3.546875 63.2265625 C2.74174469 62.38105331 2.74174469 62.38105331 1.92034912 61.51846313 C-2.97982385 56.55546263 -8.91287173 52.69142715 -16 52 C-16.64453125 51.93683594 -17.2890625 51.87367188 -17.953125 51.80859375 C-26.18893004 51.36224767 -33.00493534 54.08540212 -39.375 59.25 C-44.22835453 63.79940708 -47.61626519 69.86698736 -48.23828125 76.56640625 C-48.53556688 88.56735789 -45.04386051 95.4286008 -37 104 C-33.06310324 108.0430896 -29.06909181 112.02616299 -25.0625 116 C-23.98609346 117.07137887 -22.90991986 118.14299182 -21.83398438 119.21484375 C-19.22533255 121.81259638 -16.61355529 124.40717962 -14 127 C-15.38259427 129.76518855 -16.77647795 129.85601286 -19.65673828 130.91333008 C-20.6623027 131.2865892 -21.66786713 131.65984833 -22.7039032 132.04441833 C-23.81481827 132.4487056 -24.92573334 132.85299286 -26.0703125 133.26953125 C-27.23057449 133.69859268 -28.39083649 134.12765411 -29.58625793 134.56971741 C-32.10842858 135.50174945 -34.63136555 136.43126561 -37.15597534 137.35662842 C-43.17472181 139.56290313 -49.18658507 141.78779567 -55.19818687 144.01345062 C-56.58019121 144.52505097 -57.96229384 145.03638587 -59.34449196 145.54746246 C-69.59632366 149.33921472 -79.81851996 153.20256422 -90.01953125 157.12890625 C-90.65587242 157.37357195 -91.29221359 157.61823765 -91.94783783 157.87031746 C-97.4863805 159.99982443 -103.02381323 162.13213364 -108.55548096 164.27944946 C-111.91901751 165.58500016 -115.28542614 166.88288692 -118.65234375 168.1796875 C-119.64756546 168.56923111 -120.64278717 168.95877472 -121.66816711 169.36012268 C-122.58067734 169.71033981 -123.49318756 170.06055695 -124.43334961 170.42138672 C-125.22358017 170.72809296 -126.01381073 171.03479919 -126.82798767 171.35079956 C-129 172 -129 172 -133 172 C-133.30180176 171.20005615 -133.60360352 170.4001123 -133.91455078 169.57592773 C-136.81431848 161.89535736 -139.72562174 154.21930424 -142.64941406 146.54785156 C-143.45621786 144.42846025 -144.26098251 142.3082883 -145.06152344 140.18652344 C-145.86521429 138.05818252 -146.67983047 135.93453031 -147.5 133.8125 C-147.9228125 132.70519531 -148.345625 131.59789062 -148.78125 130.45703125 C-149.88668602 127.71522489 -149.88668602 127.71522489 -153 126 C-156.7408613 125.31290303 -159.09566152 125.44095439 -162.36328125 127.4609375 C-164.06960402 128.71878664 -165.7739653 129.97930009 -167.4765625 131.2421875 C-175.19141319 136.61630949 -183.82767163 136.94702694 -193 136 C-202.46134483 133.5005104 -209.8883555 127.14668342 -215 119 C-215 118.67 -215 118.34 -215 118 C-214.05084717 117.79955078 -213.10169434 117.59910156 -212.1237793 117.39257812 C-174.91454886 109.49649938 -138.40283075 99.5873312 -104 83 C-102.7639502 82.4126709 -102.7639502 82.4126709 -101.50292969 81.81347656 C-78.68478527 70.93475308 -57.17153647 57.54194774 -38 41 C-37.24332031 40.35417969 -36.48664063 39.70835937 -35.70703125 39.04296875 C-15.35419322 21.6129601 -15.35419322 21.6129601 0 0 Z " fill="#3D8EC7" transform="translate(404,320)"/>
<path d="M0 0 C0.29132813 0.96679688 0.58265625 1.93359375 0.8828125 2.9296875 C6.02891012 19.49402244 13.43924994 30.58188931 29 39 C29.66 38.01 30.32 37.02 31 36 C31.66 35.01 32.32 34.02 33 33 C39.56140351 33.9005848 39.56140351 33.9005848 42.34375 34.53125 C45.38160845 35.06734267 48.22961519 35.09637786 51.3125 35.0625 C52.38113281 35.05347656 53.44976562 35.04445313 54.55078125 35.03515625 C55.76314453 35.01775391 55.76314453 35.01775391 57 35 C57.67305018 36.60149886 58.33822227 38.20631029 59 39.8125 C59.556875 41.15248047 59.556875 41.15248047 60.125 42.51953125 C61 45 61 45 61 48 C59.94941406 48.42410156 58.89882812 48.84820312 57.81640625 49.28515625 C49.73431284 52.62814271 42.41775667 55.88587913 36 62 C35.17822266 62.77923828 35.17822266 62.77923828 34.33984375 63.57421875 C28.17323521 70.08779759 24.79496316 78.61511052 22 87 C17.38 87 12.76 87 8 87 C8 84.03 8 81.06 8 78 C6.1795517 78.01332367 6.1795517 78.01332367 4.32232666 78.0269165 C-7.15247583 78.1082393 -18.62721933 78.16807888 -30.10224533 78.20724869 C-36.00074081 78.22806373 -41.89900238 78.25626996 -47.79736328 78.30175781 C-53.49675016 78.34543278 -59.195913 78.36918279 -64.89545441 78.37950897 C-67.06261976 78.38686159 -69.22977379 78.40121893 -71.39684296 78.42292023 C-88.64614156 78.58868204 -101.69868538 77.21974349 -115 65.19140625 C-121.10904459 58.85853891 -126.16482544 48.92178333 -126.09765625 39.98828125 C-126.09443359 39.23095703 -126.09121094 38.47363281 -126.08789062 37.69335938 C-126.07951172 36.90767578 -126.07113281 36.12199219 -126.0625 35.3125 C-126.05798828 34.51521484 -126.05347656 33.71792969 -126.04882812 32.89648438 C-126.0370585 30.93095743 -126.01912348 28.96546915 -126 27 C-125.16678223 26.93006836 -124.33356445 26.86013672 -123.47509766 26.78808594 C-82.44547462 23.28878174 -42.50117199 16.65390084 -4.22070312 0.8527832 C-2 0 -2 0 0 0 Z " fill="#FDA618" transform="translate(147,325)"/>
<path d="M0 0 C5.39317874 3.33813771 10.71284678 6.72493203 15.8125 10.5 C22.38190077 15.35812416 29.16354057 19.90071758 35.94458008 24.45703125 C58.02571786 39.38291617 58.02571786 39.38291617 61 49 C61.28786776 52.46363704 61.25247225 55.91617645 61.22705078 59.38989258 C61.22734283 60.43425476 61.22763489 61.47861694 61.22793579 62.55462646 C61.22654415 66.00134635 61.21099052 69.44784919 61.1953125 72.89453125 C61.19158179 75.28635032 61.18873509 77.67817092 61.18673706 80.06999207 C61.17910523 86.36152373 61.15946049 92.65296287 61.1373291 98.94445801 C61.11686105 105.36595407 61.10773328 111.78746509 61.09765625 118.20898438 C61.07621426 130.80603675 61.04103567 143.4029962 61 156 C47.14 156 33.28 156 19 156 C19 153.03 19 150.06 19 147 C17.741875 146.9175 16.48375 146.835 15.1875 146.75 C2.84591523 145.33343445 -6.52237716 139.62562641 -14.3984375 130.203125 C-19.08137363 123.76123237 -22.82110454 115.98402038 -23.06278992 107.89968872 C-23.25821969 102.29788764 -24.60800654 99.49295487 -28.58467102 95.58590698 C-29.2231749 94.99810455 -29.86167877 94.41030212 -30.51953125 93.8046875 C-31.50200081 92.84986984 -31.50200081 92.84986984 -32.50431824 91.87576294 C-34.58884641 89.85550595 -36.69846031 87.86431545 -38.8125 85.875 C-40.91127026 83.87444746 -43.00394625 81.86812821 -45.08854675 79.85281372 C-46.38268036 78.60435542 -47.68556393 77.36488082 -48.99848938 76.13619995 C-53.77790855 71.56528258 -57.55068699 67.2013552 -58.5 60.4375 C-57.90244849 56.32933338 -56.60509401 54.20054407 -54 51 C-50.83989643 48.89326429 -49.84087475 48.68111943 -46.1875 48.625 C-45.35605469 48.59664063 -44.52460938 48.56828125 -43.66796875 48.5390625 C-37.64451144 49.57971837 -33.32709807 54.38643171 -29.17822266 58.59472656 C-28.63114655 59.14151062 -28.08407043 59.68829468 -27.52041626 60.25164795 C-25.73017757 62.04326955 -23.94711012 63.8418491 -22.1640625 65.640625 C-20.91754233 66.89087899 -19.67057713 68.14068942 -18.42318726 69.39007568 C-15.153853 72.66701728 -11.89057176 75.94992204 -8.62854004 79.23413086 C-5.29377498 82.58941692 -1.95328516 85.93899284 1.38671875 89.2890625 C7.93007549 95.85381799 14.46704798 102.42489126 21 109 C24.18086518 107.49053489 26.29869906 105.92058175 28.75 103.375 C29.36359375 102.74335938 29.9771875 102.11171875 30.609375 101.4609375 C31.06828125 100.97882813 31.5271875 100.49671875 32 100 C30.69366608 97.05374131 29.38819688 95.21909922 26.92578125 93.15234375 C17.43047522 84.78833226 17.43047522 84.78833226 16.3671875 80.37109375 C16.6875 77.875 16.6875 77.875 17.30078125 75.1875 C20.23671487 61.80357912 17.6532797 48.61986689 13 36 C12.77989258 35.40183472 12.55978516 34.80366943 12.33300781 34.18737793 C9.95557349 27.73473868 7.5570023 21.29022555 5.10253906 14.86645508 C4.84098022 14.1809256 4.57942139 13.49539612 4.30993652 12.78909302 C3.58746127 10.89914005 2.8616991 9.01044453 2.13574219 7.12182617 C1.26955711 4.74093439 0.53434721 2.47001614 0 0 Z " fill="#FBC7A1" transform="translate(430,340)"/>
<path d="M0 0 C1.60546875 2.58984375 1.60546875 2.58984375 3.1875 5.9375 C7.78238949 15.09572935 14.10685313 22.12031024 22.56640625 27.94140625 C23.03949219 28.29074219 23.51257813 28.64007813 24 29 C24 29.33 24 29.66 24 30 C11.79 30 -0.42 30 -13 30 C-12.67 27.36 -12.34 24.72 -12 22 C-12.59167969 21.63648438 -13.18335938 21.27296875 -13.79296875 20.8984375 C-18.73997271 17.75107772 -22.7258348 14.91124781 -26 10 C-25 7 -25 7 -23.0222168 5.90917969 C-22.17312744 5.58336914 -21.32403809 5.25755859 -20.44921875 4.921875 C-19.52302734 4.56609375 -18.59683594 4.2103125 -17.64257812 3.84375 C-16.66740234 3.4828125 -15.69222656 3.121875 -14.6875 2.75 C-13.24213867 2.18539063 -13.24213867 2.18539063 -11.76757812 1.609375 C-3.53134412 -1.49562243 -3.53134412 -1.49562243 0 0 Z " fill="#F4B98E" transform="translate(395,466)"/>
</svg>
