<?xml version="1.0" encoding="UTF-8"?>
<svg version="1.1" xmlns="http://www.w3.org/2000/svg" width="512" height="512">
<path d="M0 0 C0.97055328 0.00215515 1.94110657 0.0043103 2.94107056 0.00653076 C17.26930898 0.0575666 31.29685782 0.40491562 45.375 3.3125 C46.35807129 3.51117676 47.34114258 3.70985352 48.35400391 3.91455078 C65.38025006 7.45560681 82.91008905 11.93833246 98.44677734 19.9152832 C104.58314888 22.71149914 109.79405004 22.91818241 116.453125 22.6953125 C118.14583527 22.67402786 118.14583527 22.67402786 119.8727417 22.65231323 C123.4577177 22.60489128 127.04077619 22.52422291 130.625 22.4375 C169.41616675 21.59932037 211.02580874 25.37565392 241.375 52.3125 C242.12136719 52.95316406 242.86773437 53.59382813 243.63671875 54.25390625 C257.21628743 66.74331759 266.67072935 85.94993057 267.52026367 104.48120117 C267.54497906 108.15422614 267.56065514 111.82688574 267.5625 115.5 C267.57474609 116.76392578 267.58699219 118.02785156 267.59960938 119.33007812 C267.62899863 138.2665559 267.62899863 138.2665559 263.0625 144.4375 C260.20355212 146.4321148 258.85087363 147.3125 255.375 147.3125 C251.66569021 146.16133489 249.13171499 145.06921499 246.375 142.3125 C245.32018811 139.14806434 245.41499515 137.65001999 245.79296875 134.39453125 C247.92430883 113.44955268 247.93229454 92.84347799 234.234375 75.62109375 C232.02250072 73.09699912 229.74781465 70.68531465 227.375 68.3125 C226.81039063 67.74789062 226.24578125 67.18328125 225.6640625 66.6015625 C205.99253881 48.46537724 174.10153406 42.95206565 148.25 43.25 C147.48429687 43.25451172 146.71859375 43.25902344 145.9296875 43.26367188 C144.07808963 43.27524436 142.22653312 43.29316845 140.375 43.3125 C141.26960938 43.92996094 142.16421875 44.54742187 143.0859375 45.18359375 C150.65420373 50.46331542 157.61923579 56.00712007 164.375 62.3125 C165.70403709 63.46331372 167.03718976 64.60939684 168.375 65.75 C176.91364652 73.22346325 184.37352512 81.39825105 191.375 90.3125 C192.16648437 91.29863281 192.95796875 92.28476563 193.7734375 93.30078125 C211.05757109 115.19219966 224.52196871 139.85091777 233.375 166.3125 C233.65424316 167.14587891 233.93348633 167.97925781 234.22119141 168.83789062 C237.2163823 177.94157856 239.70254123 187.11016209 241.625 196.5 C241.77614258 197.23420166 241.92728516 197.96840332 242.08300781 198.72485352 C245.03267558 214.10407499 245.75001267 229.31451526 245.6875 244.9375 C245.68534485 245.90805328 245.6831897 246.87860657 245.68096924 247.87857056 C245.6299334 262.20680898 245.28258438 276.23435782 242.375 290.3125 C242.17632324 291.29557129 241.97764648 292.27864258 241.77294922 293.29150391 C230.25221943 348.68593423 200.33282515 401.24166544 155.375 436.3125 C154.39144531 437.10140625 153.40789062 437.8903125 152.39453125 438.703125 C130.58779176 456.05165881 105.7946885 469.47348474 79.375 478.3125 C78.54162109 478.59174316 77.70824219 478.87098633 76.84960938 479.15869141 C67.74592144 482.1538823 58.57733791 484.64004123 49.1875 486.5625 C48.45329834 486.71364258 47.71909668 486.86478516 46.96264648 487.02050781 C31.58342501 489.97017558 16.37298474 490.68751267 0.75 490.625 C-0.22055328 490.62284485 -1.19110657 490.6206897 -2.19107056 490.61846924 C-16.51930898 490.5674334 -30.54685782 490.22008438 -44.625 487.3125 C-46.09960693 487.01448486 -46.09960693 487.01448486 -47.60400391 486.71044922 C-102.99843423 475.18971943 -155.55416544 445.27032515 -190.625 400.3125 C-191.41390625 399.32894531 -192.2028125 398.34539062 -193.015625 397.33203125 C-211.12105231 374.57389267 -224.41321826 348.85215147 -233.625 321.3125 C-233.88748535 320.52939453 -234.1499707 319.74628906 -234.42041016 318.93945312 C-237.07809094 310.84634023 -239.09223636 302.65268523 -240.8125 294.3125 C-241.0451355 293.19343262 -241.0451355 293.19343262 -241.2824707 292.05175781 C-244.28526554 276.62377433 -245.00023767 261.36671691 -244.9375 245.6875 C-244.93534485 244.71694672 -244.9331897 243.74639343 -244.93096924 242.74642944 C-244.8799334 228.41819102 -244.53258438 214.39064218 -241.625 200.3125 C-241.42632324 199.32942871 -241.22764648 198.34635742 -241.02294922 197.33349609 C-229.51629151 142.00672767 -199.61266442 89.28190301 -154.625 54.3125 C-153.15160156 53.13107422 -153.15160156 53.13107422 -151.6484375 51.92578125 C-128.89189174 33.81649736 -103.16529665 20.52449754 -75.625 11.3125 C-74.84189453 11.05001465 -74.05878906 10.7875293 -73.25195312 10.51708984 C-65.15884023 7.85940906 -56.96518523 5.84526364 -48.625 4.125 C-47.87895508 3.96990967 -47.13291016 3.81481934 -46.36425781 3.6550293 C-30.93627433 0.65223446 -15.67921691 -0.06273767 0 0 Z " fill="#162680" transform="translate(244.625,10.6875)"/>
<path d="M0 0 C1.55557617 -0.02416992 1.55557617 -0.02416992 3.14257812 -0.04882812 C10.36712793 -0.05340932 16.48965644 0.37917169 22.21484375 5.25 C22.76269531 5.930625 23.31054688 6.61125 23.875 7.3125 C24.44089844 7.993125 25.00679687 8.67375 25.58984375 9.375 C28.55780115 13.64197643 28.5638014 18.3168253 27.9375 23.3125 C21.44320506 46.31180792 -1.66473273 64.78757909 -19.80078125 78.76953125 C-20.34001221 79.19758057 -20.87924316 79.62562988 -21.43481445 80.06665039 C-23.0625 81.3125 -23.0625 81.3125 -24.78979492 82.41577148 C-27.17606946 84.0538823 -28.85656809 85.49512525 -29.5769043 88.35424805 C-29.77376865 90.83546712 -29.7902244 93.26146574 -29.75 95.75 C-29.78197044 97.55225179 -29.82237243 99.35437324 -29.87109375 101.15625 C-29.90565674 102.47689453 -29.90565674 102.47689453 -29.94091797 103.82421875 C-30.44705313 114.18271181 -34.08130969 123.83947008 -38.0625 133.3125 C-37.4540625 132.86261719 -36.845625 132.41273438 -36.21875 131.94921875 C-31.41018896 128.42058352 -26.57478116 124.96512431 -21.63208008 121.62817383 C-6.71882822 111.53809043 7.62086515 100.60465424 21.20019531 88.77905273 C22.54514455 87.64370843 23.91396669 86.53661196 25.29199219 85.44165039 C32.3855606 79.78667818 38.8741406 73.7169046 45.27148438 67.29418945 C46.92718034 65.63533932 48.59577497 63.99028956 50.265625 62.34570312 C57.83957295 54.8151825 64.52587569 46.84853336 70.9375 38.3125 C71.53304688 37.52012939 72.12859375 36.72775879 72.7421875 35.91137695 C73.13664062 35.38374756 73.53109375 34.85611816 73.9375 34.3125 C76.37624429 35.39638635 78.19035366 36.52435036 80.25 38.25 C83.38187763 40.65353399 86.27369552 41.87571393 89.9375 43.3125 C88.95925358 49.07763225 84.58345221 52.96629348 80.9375 57.3125 C80.12539063 58.31152344 79.31328125 59.31054688 78.4765625 60.33984375 C72.12386712 68.05174223 65.24780044 75.18355107 58.1875 82.25 C57.3003833 83.13792236 56.4132666 84.02584473 55.49926758 84.94067383 C50.46797191 89.92959078 45.33144033 94.71932628 39.9375 99.3125 C38.92810224 100.18977845 37.91896787 101.06736009 36.91015625 101.9453125 C28.18019689 109.42143877 19.13257671 116.4196389 9.9375 123.3125 C8.78773682 124.1777832 8.78773682 124.1777832 7.61474609 125.06054688 C-14.9373217 142.0015067 -38.61831295 157.24896409 -63.0625 171.3125 C-63.69655762 171.67907715 -64.33061523 172.0456543 -64.98388672 172.42333984 C-100.98356804 193.18486369 -138.54292286 210.85599671 -177.75 224.625 C-179.36201294 225.19408081 -179.36201294 225.19408081 -181.0065918 225.7746582 C-182.49412964 226.28258911 -182.49412964 226.28258911 -184.01171875 226.80078125 C-185.30082153 227.24224487 -185.30082153 227.24224487 -186.6159668 227.69262695 C-189.23755805 228.35685409 -191.37045882 228.57220818 -194.0625 228.3125 C-195.87890625 226.27734375 -195.87890625 226.27734375 -197.625 223.25 C-198.11818726 222.39692261 -198.11818726 222.39692261 -198.62133789 221.52661133 C-199.7934049 219.46836681 -200.9277439 217.3915385 -202.0625 215.3125 C-202.52108398 214.49201172 -202.97966797 213.67152344 -203.45214844 212.82617188 C-211.44726623 198.46349497 -217.69555799 183.83806698 -223.0625 168.3125 C-223.47242188 167.17941406 -223.88234375 166.04632813 -224.3046875 164.87890625 C-225.0625 162.3125 -225.0625 162.3125 -225.0625 158.3125 C-223.8765625 158.15394531 -222.690625 157.99539063 -221.46875 157.83203125 C-210.57934368 156.29630218 -200.43873032 153.9656153 -190.0625 150.3125 C-189.20817383 150.0119873 -188.35384766 149.71147461 -187.47363281 149.40185547 C-186.56709961 149.0823291 -185.66056641 148.76280273 -184.7265625 148.43359375 C-183.36325806 147.9535791 -183.36325806 147.9535791 -181.97241211 147.46386719 C-180.18703523 146.83175635 -178.40389087 146.19329625 -176.62329102 145.54785156 C-175.81303467 145.25749023 -175.00277832 144.96712891 -174.16796875 144.66796875 C-173.08745239 144.27581177 -173.08745239 144.27581177 -171.98510742 143.87573242 C-170.0625 143.3125 -170.0625 143.3125 -167.0625 143.3125 C-167.84173828 142.00539063 -167.84173828 142.00539063 -168.63671875 140.671875 C-180.70419129 120.17513095 -185.43531893 100.65165649 -180.09765625 77.12890625 C-177.11383348 66.12817099 -172.20989772 57.13090034 -165.0625 48.3125 C-164.24845703 47.25289062 -164.24845703 47.25289062 -163.41796875 46.171875 C-152.83906535 33.09624745 -136.4545426 24.47254002 -120.0625 21.3125 C-115.67666565 20.94242729 -111.33622368 20.93599063 -106.9375 21 C-105.82246094 20.99677734 -104.70742187 20.99355469 -103.55859375 20.99023438 C-97.80588658 21.02750162 -92.6166439 21.49459644 -87.03686523 22.86035156 C-79.42893312 24.60264045 -74.13119095 21.91184522 -67.375 18.75 C-52.38136198 11.98409536 -37.01787554 6.37351838 -21.0625 2.3125 C-20.41273193 2.13517334 -19.76296387 1.95784668 -19.09350586 1.77514648 C-12.71602049 0.16410549 -6.55644349 -0.02045054 0 0 Z " fill="#B16BDC" transform="translate(234.0625,163.6875)"/>
<path d="M0 0 C10.94417028 11.44955394 16.41301346 25.09309736 16.3125 40.875 C16.30750488 41.91906006 16.30250977 42.96312012 16.29736328 44.03881836 C16.07603453 54.05279963 14.07349211 63.00955104 10.8125 72.4375 C10.59851563 73.07913086 10.38453125 73.72076172 10.1640625 74.38183594 C-4.37886141 117.13533911 -41.26371774 157.91376978 -75.17578125 186.70703125 C-77.67033603 188.85283274 -80.07968982 191.08335677 -82.5 193.3125 C-87.38086809 197.75936477 -92.41125524 201.96178901 -97.55029297 206.10498047 C-99.41138068 207.61971604 -101.25507206 209.15421785 -103.09765625 210.69140625 C-112.57639816 218.58834397 -122.23511113 226.14806039 -132.1875 233.4375 C-132.88423828 233.95135254 -133.58097656 234.46520508 -134.29882812 234.99462891 C-146.33906535 243.86652628 -158.66188186 252.2670472 -171.1875 260.4375 C-172.07453613 261.0164502 -172.96157227 261.59540039 -173.87548828 262.19189453 C-186.22350487 270.22000983 -198.78093539 277.82572624 -211.5390625 285.18359375 C-212.90744263 285.98035522 -212.90744263 285.98035522 -214.3034668 286.79321289 C-216.36669694 287.96953178 -218.4517682 289.10786598 -220.55004883 290.22045898 C-221.64599365 290.81544189 -222.74193848 291.4104248 -223.87109375 292.0234375 C-224.87712646 292.55372559 -225.88315918 293.08401367 -226.91967773 293.63037109 C-229.43571651 295.24465437 -229.43571651 295.24465437 -229.75805664 298.06689453 C-229.66420855 299.87118867 -229.50985408 301.6728279 -229.3125 303.46875 C-229.03877737 309.96966239 -232.10319106 315.87701627 -236.13671875 320.83203125 C-242.40492395 326.89767326 -249.99215102 330.44322986 -258.75 330.9375 C-266.74734675 330.49478973 -273.65140094 326.91958778 -279.4296875 321.50390625 C-284.93069978 315.03716071 -287.59900698 307.34202502 -287.4609375 298.93359375 C-286.54408536 290.56404353 -282.19360211 284.10264435 -276.1875 278.4375 C-269.59052526 273.21489499 -262.46136987 271.51358453 -254.1875 272.4375 C-249.73359794 273.52983357 -246.01108208 274.88844528 -242.1875 277.4375 C-236.72424059 277.22247376 -232.67735336 274.79140492 -228.0625 272.125 C-227.2797168 271.6805957 -226.49693359 271.23619141 -225.69042969 270.77832031 C-223.18118729 269.3451779 -220.68272428 267.89490046 -218.1875 266.4375 C-217.3840918 265.96844238 -216.58068359 265.49938477 -215.75292969 265.01611328 C-196.78272365 253.88309338 -178.13760181 242.15600221 -160.1875 229.4375 C-159.12136475 228.68218994 -159.12136475 228.68218994 -158.03369141 227.91162109 C-143.04074082 217.25295449 -128.29094003 206.25556507 -114.1875 194.4375 C-113.6723584 194.00727539 -113.1572168 193.57705078 -112.62646484 193.13378906 C-106.22273182 187.7805646 -99.8945973 182.36117082 -93.72412109 176.73876953 C-92.13586897 175.29787786 -90.54100236 173.86420665 -88.93652344 172.44140625 C-82.80061637 166.99298856 -76.90074383 161.33700888 -71.10083008 155.53613281 C-69.62794028 154.0654359 -68.14719735 152.60296466 -66.66601562 151.140625 C-61.13044803 145.63676749 -55.96905267 139.95035116 -51.11425781 133.82568359 C-49.32258109 131.60493072 -47.45469205 129.51463859 -45.5 127.4375 C-34.93644191 115.64856918 -25.78286909 102.31238982 -18.1875 88.4375 C-17.83461914 87.79748047 -17.48173828 87.15746094 -17.11816406 86.49804688 C-11.84186424 76.80493499 -8.09662845 67.07517141 -5.1875 56.4375 C-5.00864258 55.80513428 -4.82978516 55.17276855 -4.64550781 54.52124023 C-3.75887079 50.48741987 -3.9178855 46.36414855 -3.875 42.25 C-3.83149414 40.8877832 -3.83149414 40.8877832 -3.78710938 39.49804688 C-3.68565298 28.5953869 -8.41685625 20.58512048 -15.7421875 12.78125 C-32.87963812 -3.29023479 -61.11584448 -3.36103708 -83.03436279 -2.820755 C-105.06309733 -2.09738085 -126.51363613 2.13478472 -147.81445312 7.57910156 C-150.87583311 8.35818466 -153.94285544 9.10336372 -157.015625 9.8359375 C-245.64516201 31.38578689 -334.14721521 78.38567777 -408.94921875 136.7421875 C-411.1875 138.4375 -411.1875 138.4375 -412.1875 138.4375 C-412.04553484 135.58309413 -411.89904174 132.72903804 -411.75 129.875 C-411.71068359 129.07513672 -411.67136719 128.27527344 -411.63085938 127.45117188 C-411.54626472 125.85688802 -411.44421642 124.26343407 -411.32470703 122.67138672 C-411.14147652 120.21303039 -411.14147652 120.21303039 -411.27734375 116.84765625 C-409.4664985 111.18146304 -404.94209732 108.73760804 -400.1875 105.4375 C-399.38502838 104.87678802 -399.38502838 104.87678802 -398.56634521 104.30474854 C-394.37804841 101.38892687 -390.1335135 98.56188671 -385.875 95.75 C-385.21720551 95.31374298 -384.55941101 94.87748596 -383.88168335 94.42800903 C-359.35729637 78.1658348 -334.11445994 63.34533944 -308.1875 49.4375 C-307.29643555 48.95700195 -306.40537109 48.47650391 -305.48730469 47.98144531 C-262.49504716 24.86547721 -217.13200853 5.88814861 -170.1875 -7.5625 C-169.24455078 -7.83400879 -168.30160156 -8.10551758 -167.33007812 -8.38525391 C-155.40016645 -11.77376741 -143.35541569 -14.44381095 -131.1875 -16.8125 C-129.92397705 -17.05887207 -128.6604541 -17.30524414 -127.35864258 -17.55908203 C-87.21665471 -25.15542761 -32.58500322 -30.30007922 0 0 Z " fill="#AF6ADC" transform="translate(412.1875,103.5625)"/>
<path d="M0 0 C0.97055328 0.00215515 1.94110657 0.0043103 2.94107056 0.00653076 C17.26930898 0.0575666 31.29685782 0.40491562 45.375 3.3125 C46.35807129 3.51117676 47.34114258 3.70985352 48.35400391 3.91455078 C67.89502792 7.97862105 87.91078135 13.3973307 105.375 23.3125 C105.375 23.6425 105.375 23.9725 105.375 24.3125 C104.68051758 24.39290527 103.98603516 24.47331055 103.27050781 24.55615234 C100.05497487 24.93021285 96.83999408 25.30883705 93.625 25.6875 C92.53316406 25.81382813 91.44132812 25.94015625 90.31640625 26.0703125 C34.96542225 32.62072481 -19.31107653 50.05584256 -70.625 71.3125 C-71.2586145 71.5746228 -71.892229 71.83674561 -72.54504395 72.10681152 C-93.28839598 80.7081693 -113.54284153 90.27142077 -133.625 100.3125 C-134.24242065 100.62121033 -134.85984131 100.92992065 -135.49597168 101.24798584 C-151.25117887 109.14246587 -166.61017112 117.57910688 -181.74609375 126.60107422 C-184.60458731 128.30036525 -187.47238035 129.98272888 -190.34375 131.66015625 C-200.30970526 137.49399145 -210.17063975 143.43748332 -219.8137207 149.79541016 C-220.55066162 150.27284668 -221.28760254 150.7502832 -222.046875 151.2421875 C-223.01512207 151.88003174 -223.01512207 151.88003174 -224.00292969 152.53076172 C-224.53821289 152.78873535 -225.07349609 153.04670898 -225.625 153.3125 C-226.285 152.9825 -226.945 152.6525 -227.625 152.3125 C-210.30187119 114.71017781 -187.67854915 80.00538484 -154.625 54.3125 C-153.15160156 53.13107422 -153.15160156 53.13107422 -151.6484375 51.92578125 C-128.89189174 33.81649736 -103.16529665 20.52449754 -75.625 11.3125 C-74.84189453 11.05001465 -74.05878906 10.7875293 -73.25195312 10.51708984 C-65.15884023 7.85940906 -56.96518523 5.84526364 -48.625 4.125 C-47.87895508 3.96990967 -47.13291016 3.81481934 -46.36425781 3.6550293 C-30.93627433 0.65223446 -15.67921691 -0.06273767 0 0 Z " fill="#162680" transform="translate(244.625,10.6875)"/>
<path d="M0 0 C1.44809555 0.00223572 1.44809555 0.00223572 2.92544556 0.0045166 C17.23786701 0.04421285 31.2359394 0.50263804 45.3125 3.3125 C46.05773926 3.45171875 46.80297852 3.5909375 47.57080078 3.734375 C68.80619743 7.78010437 89.01834683 15.85039813 105.3125 30.3125 C106.05886719 30.95316406 106.80523437 31.59382813 107.57421875 32.25390625 C121.15378743 44.74331759 130.60822935 63.94993057 131.45776367 82.48120117 C131.48247906 86.15422614 131.49815514 89.82688574 131.5 93.5 C131.51224609 94.76392578 131.52449219 96.02785156 131.53710938 97.33007812 C131.56649863 116.2665559 131.56649863 116.2665559 127 122.4375 C124.14105212 124.4321148 122.78837363 125.3125 119.3125 125.3125 C115.60319021 124.16133489 113.06921499 123.06921499 110.3125 120.3125 C109.25768811 117.14806434 109.35249515 115.65001999 109.73046875 112.39453125 C111.86180883 91.44955268 111.86979454 70.84347799 98.171875 53.62109375 C95.96000072 51.09699912 93.68531465 48.68531465 91.3125 46.3125 C90.74789063 45.74789062 90.18328125 45.18328125 89.6015625 44.6015625 C66.53856009 23.3385993 30.83365619 21.46337828 1.3125 20.3125 C0.48927246 20.27785645 -0.33395508 20.24321289 -1.18212891 20.20751953 C-22.44894735 19.41840735 -43.79399389 22.74121893 -64.6875 26.3125 C-65.59032715 26.46444824 -66.4931543 26.61639648 -67.42333984 26.77294922 C-133.70865807 38.0893448 -197.08886515 63.88157779 -257.0859375 93.53515625 C-260.1865315 95.06752132 -263.29496156 96.58319692 -266.40625 98.09375 C-278.18406086 103.84636721 -289.58772774 110.1938929 -300.94482422 116.73388672 C-303.50226791 118.2058852 -306.06475147 119.66864008 -308.62890625 121.12890625 C-326.88495043 131.56147129 -344.59136579 142.75641402 -361.97851562 154.57250977 C-362.54319046 154.95385071 -363.1078653 155.33519165 -363.68965149 155.72808838 C-365.23372679 156.77091541 -366.77456014 157.81853805 -368.31518555 158.86645508 C-370.6875 160.3125 -370.6875 160.3125 -372.6875 160.3125 C-371.64607889 153.75154703 -369.92028208 147.63665585 -367.75 141.375 C-367.49718262 140.62935791 -367.24436523 139.88371582 -366.98388672 139.11547852 C-364.78167806 132.91638121 -362.38866256 130.60729921 -356.91796875 127.1953125 C-355.95834229 126.59517334 -354.99871582 125.99503418 -354.01000977 125.37670898 C-352.97545654 124.73677002 -351.94090332 124.09683105 -350.875 123.4375 C-349.79984131 122.76984619 -348.72468262 122.10219238 -347.61694336 121.41430664 C-319.66456071 104.1211922 -291.03910572 88.09854317 -261.6875 73.3125 C-260.53330566 72.73000488 -259.37911133 72.14750977 -258.18994141 71.54736328 C-189.9666855 37.33439933 -115.63095216 11.5726023 -39.6875 2.3125 C-38.3360099 2.13344991 -36.98452927 1.95432836 -35.63305664 1.77514648 C-23.74382259 0.25939557 -11.97643106 -0.04585858 0 0 Z " fill="#9A49D1" transform="translate(380.6875,32.6875)"/>
<path d="M0 0 C1.08990234 -0.01160156 2.17980469 -0.02320313 3.30273438 -0.03515625 C23.22604187 0.03587158 41.25947227 8.43384078 55.7109375 21.921875 C59.68107388 26.06347906 62.93489985 30.57658476 66.0625 35.375 C66.89201172 36.64150391 66.89201172 36.64150391 67.73828125 37.93359375 C70.42914682 42.35067498 70.42914682 42.35067498 71.0625 44.375 C69.78752845 47.84592669 68.02900218 49.41283065 65.01953125 51.4765625 C64.20105713 52.04383057 63.38258301 52.61109863 62.53930664 53.19555664 C61.66008545 53.79102295 60.78086426 54.38648926 59.875 55 C58.96806396 55.62318115 58.06112793 56.2463623 57.12670898 56.88842773 C54.44483853 58.72657961 51.75461201 60.55189349 49.0625 62.375 C47.75506306 63.26931891 46.4477539 64.16382468 45.140625 65.05859375 C27.63049552 76.96307491 9.4126249 87.66279161 -9.14453125 97.84130859 C-11.52937799 99.15088964 -13.90619688 100.47357895 -16.28125 101.80078125 C-24.74797182 106.47131959 -33.47393864 110.60866503 -42.25744629 114.64450073 C-43.57915162 115.25343013 -44.89861085 115.8672601 -46.21569824 116.4861145 C-48.07047276 117.35457286 -49.93369705 118.20136442 -51.80078125 119.04296875 C-52.88657471 119.54078857 -53.97236816 120.0386084 -55.09106445 120.55151367 C-57.9375 121.375 -57.9375 121.375 -60.19604492 120.70947266 C-62.98614656 118.57142477 -64.36500666 115.62964426 -65.9375 112.5625 C-66.28562744 111.89686035 -66.63375488 111.2312207 -66.99243164 110.54541016 C-70.11201345 104.39097411 -72.28559812 98.07593529 -73.9375 91.375 C-74.12957031 90.60027344 -74.32164063 89.82554687 -74.51953125 89.02734375 C-77.58193443 69.59396284 -73.38735615 48.54381379 -62 32.5 C-60.66321098 30.77803448 -59.31012722 29.06853614 -57.9375 27.375 C-57.39480469 26.66859375 -56.85210937 25.9621875 -56.29296875 25.234375 C-42.64853867 8.36972663 -21.26949714 -0.22560457 0 0 Z " fill="#FAB262" transform="translate(126.9375,184.625)"/>
<path d="M0 0 C2.43874429 1.08388635 4.25285366 2.21185036 6.3125 3.9375 C9.44437763 6.34103399 12.33619552 7.56321393 16 9 C15.02175358 14.76513225 10.64595221 18.65379348 7 23 C6.18789063 23.99902344 5.37578125 24.99804688 4.5390625 26.02734375 C-1.81363288 33.73924223 -8.68969956 40.87105107 -15.75 47.9375 C-16.6371167 48.82542236 -17.5242334 49.71334473 -18.43823242 50.62817383 C-23.46952809 55.61709078 -28.60605967 60.40682628 -34 65 C-35.00939776 65.87727845 -36.01853213 66.75486009 -37.02734375 67.6328125 C-45.75730311 75.10893877 -54.80492329 82.1071389 -64 89 C-65.14976318 89.8652832 -65.14976318 89.8652832 -66.32275391 90.74804688 C-88.8748217 107.6890067 -112.55581295 122.93646409 -137 137 C-137.63405762 137.36657715 -138.26811523 137.7331543 -138.92138672 138.11083984 C-174.92106804 158.87236369 -212.48042286 176.54349671 -251.6875 190.3125 C-253.29951294 190.88158081 -253.29951294 190.88158081 -254.9440918 191.4621582 C-256.43162964 191.97008911 -256.43162964 191.97008911 -257.94921875 192.48828125 C-259.23832153 192.92974487 -259.23832153 192.92974487 -260.5534668 193.38012695 C-263.19570872 194.04958631 -265.28857874 194.31016994 -268 194 C-269.70823482 191.87682161 -270.95052107 190.03905707 -272.25 187.6875 C-272.600625 187.09259766 -272.95125 186.49769531 -273.3125 185.88476562 C-274.82017035 183.289833 -276.04892881 180.85321357 -277 178 C-272.52066835 176.28336991 -268.02731936 174.65434575 -263.48046875 173.125 C-236.10067963 163.90791123 -210.01693489 152.46797746 -184 140 C-185.16015625 139.76925781 -186.3203125 139.53851563 -187.515625 139.30078125 C-201.44371214 136.43534413 -214.21205075 132.29754584 -226 124 C-226 123.34 -226 122.68 -226 122 C-225.35377686 121.7097998 -224.70755371 121.41959961 -224.04174805 121.12060547 C-183.52791617 102.85433579 -145.22494866 81.13888465 -109.10546875 55.1953125 C-106 53 -106 53 -104 52 C-103.53270152 69.20350688 -105.24814626 82.93432431 -112 99 C-111.3915625 98.55011719 -110.783125 98.10023438 -110.15625 97.63671875 C-105.34768896 94.10808352 -100.51228116 90.65262431 -95.56958008 87.31567383 C-80.65632822 77.22559043 -66.31663485 66.29215424 -52.73730469 54.46655273 C-51.39235545 53.33120843 -50.02353331 52.22411196 -48.64550781 51.12915039 C-41.5519394 45.47417818 -35.0633594 39.4044046 -28.66601562 32.98168945 C-27.01031966 31.32283932 -25.34172503 29.67778956 -23.671875 28.03320312 C-16.09792705 20.5026825 -9.41162431 12.53603336 -3 4 C-2.40445312 3.20762939 -1.80890625 2.41525879 -1.1953125 1.59887695 C-0.80085938 1.07124756 -0.40640625 0.54361816 0 0 Z " fill="#B06BDC" transform="translate(308,198)"/>
<path d="M0 0 C10.39181552 6.45206128 17.86407944 14.29934583 21.1328125 26.32421875 C23.26592753 39.12290896 21.29255857 48.52067334 14.1328125 59.32421875 C8.35637961 66.80263632 -0.43487523 72.67223186 -9.8671875 74.32421875 C-22.08336821 75.36326207 -30.91229856 72.82576719 -41.8671875 67.32421875 C-42.46442627 67.74606445 -43.06166504 68.16791016 -43.67700195 68.60253906 C-56.85430741 77.89052987 -70.12746908 86.89128403 -83.8671875 95.32421875 C-84.90472168 95.96472168 -85.94225586 96.60522461 -87.01123047 97.26513672 C-110.95939024 112.0335718 -135.34858696 125.78418988 -160.43261719 138.546875 C-163.38144885 140.07285556 -166.30263663 141.63559394 -169.21574402 143.22779846 C-172.1086043 144.80278725 -175.02168669 146.33990981 -177.9296875 147.88671875 C-178.98148193 148.47783447 -180.03327637 149.0689502 -181.11694336 149.67797852 C-186.12176837 152.29571977 -189.54297617 153.96598018 -195.13671875 152.39453125 C-196.73429543 151.75393542 -198.31352652 151.06499661 -199.8671875 150.32421875 C-200.9022644 149.86631958 -200.9022644 149.86631958 -201.95825195 149.39916992 C-203.83661787 148.53214126 -205.66350213 147.60354027 -207.4921875 146.63671875 C-208.11480469 146.31638672 -208.73742187 145.99605469 -209.37890625 145.66601562 C-210.87890186 144.89294097 -212.37366121 144.10971889 -213.8671875 143.32421875 C-210.13911496 140.17821531 -205.92435742 138.33060459 -201.53515625 136.296875 C-199.84362307 135.50286396 -198.15213727 134.70875197 -196.46069336 133.91455078 C-195.13616653 133.29558929 -195.13616653 133.29558929 -193.78488159 132.66412354 C-177.9447421 125.25282994 -162.20925146 117.72971124 -146.8671875 109.32421875 C-145.9803125 108.83888672 -145.0934375 108.35355469 -144.1796875 107.85351562 C-137.35742199 104.09836238 -130.60176584 100.23411173 -123.8671875 96.32421875 C-122.77680176 95.69370605 -121.68641602 95.06319336 -120.56298828 94.41357422 C-104.20645341 84.91151573 -88.30127867 74.80615156 -72.5546875 64.32421875 C-71.2385144 63.45030991 -71.2385144 63.45030991 -69.89575195 62.55874634 C-67.40691743 60.90319874 -64.92313541 59.24039378 -62.44140625 57.57421875 C-61.31239143 56.82231514 -61.31239143 56.82231514 -60.16056824 56.05522156 C-56.4404023 53.73685744 -56.4404023 53.73685744 -53.8671875 50.32421875 C-54.3558771 48.64513142 -54.84770726 46.96685118 -55.36035156 45.29492188 C-57.77574895 35.90326113 -56.48344542 24.77210152 -51.8671875 16.32421875 C-41.29157006 -0.54700154 -18.68564789 -9.27771716 0 0 Z " fill="#C5237C" transform="translate(351.8671875,333.67578125)"/>
<path d="M0 0 C1.44809555 0.00223572 1.44809555 0.00223572 2.92544556 0.0045166 C17.23786701 0.04421285 31.2359394 0.50263804 45.3125 3.3125 C46.05773926 3.45171875 46.80297852 3.5909375 47.57080078 3.734375 C68.80619743 7.78010437 89.01834683 15.85039813 105.3125 30.3125 C106.43205078 31.27349609 106.43205078 31.27349609 107.57421875 32.25390625 C121.15378743 44.74331759 130.60822935 63.94993057 131.45776367 82.48120117 C131.48247906 86.15422614 131.49815514 89.82688574 131.5 93.5 C131.51224609 94.76392578 131.52449219 96.02785156 131.53710938 97.33007812 C131.56649863 116.2665559 131.56649863 116.2665559 127 122.4375 C124.14105212 124.4321148 122.78837363 125.3125 119.3125 125.3125 C115.60319021 124.16133489 113.06921499 123.06921499 110.3125 120.3125 C109.25768811 117.14806434 109.35249515 115.65001999 109.73046875 112.39453125 C111.86180883 91.44955268 111.86979454 70.84347799 98.171875 53.62109375 C95.96000072 51.09699912 93.68531465 48.68531465 91.3125 46.3125 C90.46558594 45.46558594 90.46558594 45.46558594 89.6015625 44.6015625 C66.53856009 23.3385993 30.83365619 21.46337828 1.3125 20.3125 C0.48927246 20.27785645 -0.33395508 20.24321289 -1.18212891 20.20751953 C-19.3778966 19.53235968 -37.72215819 21.86667923 -55.60693359 24.99121094 C-73.84048419 28.06450973 -73.84048419 28.06450973 -79.9375 24.3125 C-82.1818853 20.46498234 -82.75183376 17.65779653 -81.6875 13.3125 C-78.62818917 8.77287748 -75.6333917 7.87949524 -70.41918945 6.80810547 C-65.04997657 5.8339789 -59.6535167 5.06881508 -54.25 4.3125 C-52.53393555 4.065 -52.53393555 4.065 -50.78320312 3.8125 C-47.08742155 3.2889139 -43.38877748 2.79568029 -39.6875 2.3125 C-39.01171906 2.22102692 -38.33593811 2.12955383 -37.63967896 2.03530884 C-25.07689682 0.35716119 -12.66606421 -0.04849923 0 0 Z " fill="#B16BDD" transform="translate(380.6875,32.6875)"/>
<path d="M0 0 C-0.515625 0.680625 -1.03125 1.36125 -1.5625 2.0625 C-3.45332378 5.92635729 -3.19248952 7.90081728 -2 12 C0.28290813 14.37657725 0.28290813 14.37657725 3 16 C3.99 16.66 4.98 17.32 6 18 C4.72253906 18.30550781 3.44507813 18.61101562 2.12890625 18.92578125 C-86.80916944 40.83183334 -174.58201376 86.75557042 -251.76171875 146.3046875 C-254 148 -254 148 -255 148 C-254.85803484 145.14559413 -254.71154174 142.29153804 -254.5625 139.4375 C-254.52318359 138.63763672 -254.48386719 137.83777344 -254.44335938 137.01367188 C-254.35876472 135.41938802 -254.25671642 133.82593407 -254.13720703 132.23388672 C-253.95397652 129.77553039 -253.95397652 129.77553039 -254.08984375 126.41015625 C-252.2789985 120.74396304 -247.75459732 118.30010804 -243 115 C-242.19752838 114.43928802 -242.19752838 114.43928802 -241.37884521 113.86724854 C-237.19054841 110.95142687 -232.9460135 108.12438671 -228.6875 105.3125 C-228.02970551 104.87624298 -227.37191101 104.43998596 -226.69418335 103.99050903 C-202.16979637 87.7283348 -176.92695994 72.90783944 -151 59 C-150.10893555 58.51950195 -149.21787109 58.03900391 -148.29980469 57.54394531 C-105.27920826 34.41274003 -59.94064377 15.55616881 -13 2 C-11.97438965 1.69707031 -10.9487793 1.39414063 -9.89208984 1.08203125 C-8.90031738 0.79714844 -7.90854492 0.51226562 -6.88671875 0.21875 C-5.99557373 -0.03970703 -5.10442871 -0.29816406 -4.1862793 -0.56445312 C-2 -1 -2 -1 0 0 Z " fill="#9A49D1" transform="translate(255,94)"/>
<path d="M0 0 C0.33 0 0.66 0 1 0 C1.98384525 36.22008051 1.98384525 36.22008051 -9.23168945 48.42944336 C-11.95663655 50.95973421 -14.59584204 52.82402668 -17.76953125 54.75 C-18.89447998 55.43481445 -20.01942871 56.11962891 -21.1784668 56.82519531 C-22.38947442 57.55069266 -23.60082668 58.275615 -24.8125 59 C-25.73465805 59.55608948 -25.73465805 59.55608948 -26.67544556 60.12341309 C-38.08241556 67.00107172 -49.68838992 73.46632965 -61.49023438 79.64501953 C-63.14416647 80.5379498 -64.77720818 81.47087613 -66.38476562 82.44482422 C-71.43085241 85.48477855 -75.22437052 86.82650888 -81.125 86.625 C-81.85364258 86.61025635 -82.58228516 86.5955127 -83.33300781 86.58032227 C-97.08820538 85.97066949 -109.71710438 79.52193042 -121 72 C-121 71.34 -121 70.68 -121 70 C-120.35377686 69.7097998 -119.70755371 69.41959961 -119.04174805 69.12060547 C-55.30423109 41.14386551 -55.30423109 41.14386551 0 0 Z " fill="#FAB262" transform="translate(203,250)"/>
<path d="M0 0 C4.9654473 4.58348982 9.04145011 9.93441988 12 16 C-1.77084284 25.7267143 -15.63074061 35.18067614 -30 44 C-31.03753418 44.64050293 -32.07506836 45.28100586 -33.14404297 45.94091797 C-57.09220274 60.70935305 -81.48139946 74.45997113 -106.56542969 87.22265625 C-109.51426135 88.74863681 -112.43544913 90.31137519 -115.34855652 91.90357971 C-118.2414168 93.4785685 -121.15449919 95.01569106 -124.0625 96.5625 C-125.11429443 97.15361572 -126.16608887 97.74473145 -127.24975586 98.35375977 C-132.25458087 100.97150102 -135.67578867 102.64176143 -141.26953125 101.0703125 C-142.86710793 100.42971667 -144.44633902 99.74077786 -146 99 C-147.0350769 98.54210083 -147.0350769 98.54210083 -148.09106445 98.07495117 C-149.96943037 97.20792251 -151.79631463 96.27932152 -153.625 95.3125 C-154.24761719 94.99216797 -154.87023437 94.67183594 -155.51171875 94.34179688 C-157.01171436 93.56872222 -158.50647371 92.78550014 -160 92 C-156.27192746 88.85399656 -152.05716992 87.00638584 -147.66796875 84.97265625 C-145.97643557 84.17864521 -144.28494977 83.38453322 -142.59350586 82.59033203 C-141.26897903 81.97137054 -141.26897903 81.97137054 -139.91769409 81.33990479 C-124.0775546 73.92861119 -108.34206396 66.40549249 -93 58 C-92.113125 57.51466797 -91.22625 57.02933594 -90.3125 56.52929688 C-83.49023449 52.77414363 -76.73457834 48.90989298 -70 45 C-68.90961426 44.3694873 -67.81922852 43.73897461 -66.69580078 43.08935547 C-46.81173792 31.53803792 -27.6475567 18.99220794 -8.57421875 6.15234375 C-7.44520393 5.39269821 -7.44520393 5.39269821 -6.29338074 4.6177063 C-2.99164539 2.50398196 -2.99164539 2.50398196 0 0 Z " fill="#AF6ADC" transform="translate(298,385)"/>
<path d="M0 0 C2.60195277 1.35518373 5.1804472 2.74558339 7.73681641 4.18505859 C19.22388858 10.61627433 30.55223573 13.74111535 43.625 15.3671875 C40.37721541 18.0082431 36.99380937 19.75988231 33.21875 21.5546875 C32.59037735 21.8535788 31.9620047 22.15247009 31.31459045 22.4604187 C29.25450795 23.43611878 27.19040599 24.40281107 25.125 25.3671875 C24.41415253 25.70010803 23.70330505 26.03302856 22.97091675 26.3760376 C8.75750337 33.01332376 -5.67039199 38.89590272 -20.375 44.3671875 C-21.53870117 44.80353516 -22.70240234 45.23988281 -23.90136719 45.68945312 C-27.32580626 46.9689972 -30.75498494 48.23448364 -34.1875 49.4921875 C-35.21351318 49.87101074 -36.23952637 50.24983398 -37.29663086 50.64013672 C-38.25706299 50.9857666 -39.21749512 51.33139648 -40.20703125 51.6875 C-41.45577026 52.14020264 -41.45577026 52.14020264 -42.72973633 52.60205078 C-45.91918542 53.52459194 -49.08408675 53.95800456 -52.375 54.3671875 C-54.1997151 50.67327075 -56.01403744 46.97444248 -57.81933594 43.27099609 C-58.43343828 42.01476049 -59.05024577 40.75984321 -59.66992188 39.50634766 C-62.92104179 32.92545169 -66.01308857 26.6307151 -67.375 19.3671875 C-66.72990479 19.24827148 -66.08480957 19.12935547 -65.42016602 19.00683594 C-44.4071449 15.01485817 -24.23747012 8.67791869 -4.60107422 0.16455078 C-2.375 -0.6328125 -2.375 -0.6328125 0 0 Z " fill="#172680" transform="translate(82.375,321.6328125)"/>
<path d="M0 0 C1.08990234 -0.01160156 2.17980469 -0.02320313 3.30273438 -0.03515625 C23.22604187 0.03587158 41.25947227 8.43384078 55.7109375 21.921875 C59.68107388 26.06347906 62.93489985 30.57658476 66.0625 35.375 C66.89201172 36.64150391 66.89201172 36.64150391 67.73828125 37.93359375 C70.42914682 42.35067498 70.42914682 42.35067498 71.0625 44.375 C69.78752845 47.84592669 68.02900218 49.41283065 65.01953125 51.4765625 C64.20009033 52.0444751 63.38064941 52.6123877 62.53637695 53.19750977 C61.21899536 54.08974243 61.21899536 54.08974243 59.875 55 C58.97676514 55.61738037 58.07853027 56.23476074 57.15307617 56.87084961 C54.46266156 58.71523392 51.7636332 60.54636122 49.0625 62.375 C47.61457602 63.36327053 46.16665869 64.35155081 44.71875 65.33984375 C38.33874399 69.66698714 31.92572289 73.8410912 25.0625 77.375 C22.15950787 73.02051181 22.40485322 69.49105573 23.0625 64.375 C24.43284605 59.6899171 26.22411879 55.20643975 28.0625 50.6875 C29.01068209 48.33370204 29.94855386 45.97571891 30.875 43.61328125 C31.29394531 42.58243408 31.71289062 41.55158691 32.14453125 40.48950195 C33.19642832 36.92060542 33.43337435 34.07564455 33.0625 30.375 C29.60299822 28.06866548 28.60560008 28.20044092 24.57421875 28.42578125 C7.37458544 29.10164416 -2.7550137 28.05546038 -15.9375 16.375 C-17.44816488 14.7127634 -18.91131328 13.0055098 -20.3125 11.25 C-21.00085938 10.40179688 -21.68921875 9.55359375 -22.3984375 8.6796875 C-23.9375 6.375 -23.9375 6.375 -23.9375 3.375 C-15.84638085 0.70866598 -8.49245611 -0.09007909 0 0 Z " fill="#F8CC7A" transform="translate(126.9375,184.625)"/>
<path d="M0 0 C0.969375 0.886875 1.93875 1.77375 2.9375 2.6875 C10.16314126 8.87253166 17.00673354 12.2368415 26.59765625 11.9921875 C28.17063477 11.96705078 28.17063477 11.96705078 29.77539062 11.94140625 C31.97087291 11.89705307 34.16621184 11.84494035 36.36132812 11.78515625 C37.40869141 11.77097656 38.45605469 11.75679687 39.53515625 11.7421875 C40.487854 11.7201123 41.44055176 11.69803711 42.42211914 11.67529297 C45.48071588 12.06055044 46.81513074 12.85198092 49 15 C50.5495592 22.98453423 45.65428663 30.81119867 42.5546875 37.95703125 C39.30175102 45.88490216 38.36695539 52.45213936 39 61 C34.36735316 63.34248014 29.72654118 65.66706095 25.07373047 67.96923828 C23.25354824 68.87397214 21.44060907 69.79324753 19.62890625 70.71484375 C18.67886719 71.18019531 17.72882813 71.64554687 16.75 72.125 C15.91984375 72.54007812 15.0896875 72.95515625 14.234375 73.3828125 C12 74 12 74 9.953125 73.54296875 C7.08702794 71.27875207 5.63624158 68.37898503 4 65.1875 C3.65187256 64.52186035 3.30374512 63.8562207 2.94506836 63.17041016 C-0.17451345 57.01597411 -2.34809812 50.70093529 -4 44 C-4.19207031 43.22527344 -4.38414063 42.45054687 -4.58203125 41.65234375 C-6.68589595 28.30165091 -5.437684 12.41210477 0 0 Z " fill="#FB9849" transform="translate(57,232)"/>
<path d="M0 0 C6.76542487 4.63032881 12.20683795 11.64553722 13.8671875 19.78125 C14.93765728 27.91975315 13.01046161 34.73671369 8.8671875 41.78125 C3.04082559 48.95036065 -4.42379572 52.70959341 -13.48046875 54.15625 C-21.34041412 54.5998448 -28.37183018 51.48535342 -34.4453125 46.65625 C-40.51791096 40.96472553 -44.15375649 32.97326893 -44.4453125 24.65625 C-44.30652992 16.20439071 -40.64460826 9.50805999 -34.921875 3.46875 C-24.92285727 -5.9626379 -11.67038636 -6.66879221 0 0 Z " fill="#F95C20" transform="translate(169.1328125,380.21875)"/>
<path d="M0 0 C6.36967057 3.76183112 10.72320034 9.50513722 12.73828125 16.6171875 C13.74692636 25.50587255 12.63562935 33.35677725 7.23046875 40.65234375 C2.3159014 46.03550938 -3.1407643 49.06910573 -10.375 50.03125 C-19.12380312 50.42191336 -25.76857685 48.67715315 -32.328125 42.75 C-38.78963768 35.81635174 -40.92828624 29.34969927 -40.66796875 19.90234375 C-39.66480138 11.7901922 -35.61717461 6.0199357 -29.2890625 1.0234375 C-19.7982373 -5.55979385 -10.14769915 -4.65925486 0 0 Z " fill="#03C72F" transform="translate(344.26171875,158.3828125)"/>
<path d="M0 0 C10.57098393 6.59967055 10.57098393 6.59967055 12.15234375 11.34375 C12.90144683 18.257603 12.13035073 23.57628357 8.15234375 29.34375 C3.41644939 34.67163116 -1.41237519 38.8176339 -8.6796875 39.6796875 C-17.63597111 39.79706999 -22.99663912 38.12565076 -29.66015625 32.15625 C-35.04615378 26.37675493 -36.44029277 19.52323142 -36.2109375 11.7734375 C-35.43818624 6.60514415 -32.69536084 2.61530688 -29.84765625 -1.65625 C-21.1344491 -4.56065238 -8.21517021 -4.04261451 0 0 Z " fill="#F747B3" transform="translate(351.84765625,333.65625)"/>
<path d="M0 0 C0.84175781 -0.01417969 1.68351562 -0.02835938 2.55078125 -0.04296875 C4.6875 0.1875 4.6875 0.1875 6.6875 2.1875 C3.10134177 11.14298906 -2.67700279 17.42916534 -9.3125 24.1875 C-10.15425781 25.06792969 -10.99601562 25.94835937 -11.86328125 26.85546875 C-16.89445594 32.03107908 -22.17931788 36.70730009 -27.828125 41.19921875 C-29.88782899 42.84762965 -31.85152204 44.55053218 -33.8125 46.3125 C-35.05 47.240625 -35.05 47.240625 -36.3125 48.1875 C-40.25231221 46.87422926 -40.51424819 45.42672683 -42.4375 41.8125 C-47.34535711 33.10701984 -53.24525315 25.18622202 -61.3125 19.1875 C-58.97992378 16.52515066 -56.8353706 15.38881165 -53.54296875 14.13671875 C-52.58189209 13.770625 -51.62081543 13.40453125 -50.63061523 13.02734375 C-49.59751221 12.64707031 -48.56440918 12.26679688 -47.5 11.875 C-46.43789307 11.48054687 -45.37578613 11.08609375 -44.28149414 10.6796875 C-30.26766775 5.58261862 -15.0700502 0.11718546 0 0 Z " fill="#182781" transform="translate(236.3125,181.8125)"/>
<path d="M0 0 C1.24946461 22.13603717 1.24946461 22.13603717 -3.57421875 27.7265625 C-6.2445356 30.14545875 -9.19706153 32.09000684 -12.28076172 33.94238281 C-14.84500824 35.51982046 -17.11853016 37.39788109 -19.4375 39.3125 C-20.31664063 40.03050781 -21.19578125 40.74851562 -22.1015625 41.48828125 C-30.27506535 48.57124935 -38.55510105 56.07375183 -43.984375 65.5234375 C-44.31953125 66.01070313 -44.6546875 66.49796875 -45 67 C-45.66 67 -46.32 67 -47 67 C-47.67684298 63.96050698 -48.33961872 60.91810835 -49 57.875 C-49.19078125 57.0190625 -49.3815625 56.163125 -49.578125 55.28125 C-51.66472012 45.59348695 -51.66472012 45.59348695 -51 42 C-49.18220925 39.41735496 -46.99248229 37.33477767 -44.6875 35.1875 C-43.72734985 34.26348389 -43.72734985 34.26348389 -42.74780273 33.32080078 C-37.40497345 28.2370218 -31.80598865 23.54517074 -26 19 C-24.77701252 18.01243592 -23.55576543 17.02271406 -22.3359375 16.03125 C-2.56937141 0 -2.56937141 0 0 0 Z " fill="#9A49D1" transform="translate(53,247)"/>
<path d="M0 0 C6.40707795 4.06107437 13.46847449 9.58235804 16 17 C16.35915553 20.38285684 16.31204805 23.61601229 16 27 C9.8913944 30.93034313 -0.12526366 29.91945491 -7.05029297 28.61328125 C-17.42393026 26.01011003 -27.14235222 20.90509852 -36 15 C-36 14.34 -36 13.68 -36 13 C-35.23333008 12.64695801 -34.46666016 12.29391602 -33.67675781 11.93017578 C-30.82137679 10.6149359 -27.96626348 9.2991171 -25.11132812 7.98291016 C-23.87771056 7.4143199 -22.64398782 6.84595777 -21.41015625 6.27783203 C-19.63253314 5.45926526 -17.85532436 4.63979887 -16.078125 3.8203125 C-15.00981445 3.32805176 -13.94150391 2.83579102 -12.84082031 2.32861328 C-11.14061015 1.53344796 -9.45411647 0.70605339 -7.80151367 -0.18383789 C-4.92113055 -1.48877362 -2.98678678 -0.84744896 0 0 Z " fill="#F9984A" transform="translate(118,307)"/>
<path d="M0 0 C7.18049663 3.59024832 12.66059434 8.68135123 15.9140625 16.078125 C17.00469193 19.52083477 17.08011406 21.74463642 16 25.1875 C13.2895652 28.99904894 10.23709261 31.88145369 6 34 C0.14524289 34.49328755 -5.18984281 34.85744288 -10.5625 32.3125 C-15.76394916 27.37779182 -18.61233993 23.37818063 -19.4375 16.1875 C-19.30631838 11.23070863 -17.07438139 7.76778806 -14 4 C-9.2883624 -0.27334573 -6.24084355 -1.89116471 0 0 Z " fill="#FC7D31" transform="translate(165,378)"/>
<path d="M0 0 C-0.5259375 1.299375 -0.5259375 1.299375 -1.0625 2.625 C-2.09869349 6.35529658 -2.12146244 8.31519484 -1 12 C1.25796233 15.09424468 2.4895972 15.88221474 6.25 16.75 C7.1575 16.8325 8.065 16.915 9 17 C9 17.33 9 17.66 9 18 C8.46858398 18.13986328 7.93716797 18.27972656 7.38964844 18.42382812 C-3.92925424 21.43897051 -14.81955595 24.80560591 -25.51269531 29.63476562 C-31.31297893 32.14286677 -31.31297893 32.14286677 -34.5546875 31.46875 C-35.36164063 30.9840625 -36.16859375 30.499375 -37 30 C-38.29059718 29.3674489 -39.58528973 28.74322055 -40.8828125 28.125 C-42.29792287 27.41876242 -43.71196396 26.71037878 -45.125 26 C-45.84042969 25.64421875 -46.55585938 25.2884375 -47.29296875 24.921875 C-47.98261719 24.57640625 -48.67226562 24.2309375 -49.3828125 23.875 C-50.00559082 23.56304687 -50.62836914 23.25109375 -51.27001953 22.9296875 C-53 22 -53 22 -56 20 C-55.02740234 19.63261719 -55.02740234 19.63261719 -54.03515625 19.2578125 C-48.37609875 17.10127285 -42.74111599 14.90245019 -37.1328125 12.6171875 C-6.10881486 0 -6.10881486 0 0 0 Z " fill="#9A49D1" transform="translate(208,168)"/>
<path d="M0 0 C2.77573424 1.56727936 4.62921173 3.00327254 6.62890625 5.484375 C7.92077396 10.22419309 6.94367572 14.58548703 4.56640625 18.796875 C1.84795709 22.59058817 -0.84988442 25.13223763 -5.37109375 26.484375 C-10.69082532 27.2277436 -14.9161562 27.17216366 -19.80859375 24.859375 C-24.34992241 20.65033868 -27.14130291 16.47165596 -27.62109375 10.234375 C-27.28913949 5.25506113 -25.59279773 1.92778295 -23.37109375 -2.515625 C-15.08643333 -5.27717847 -7.79151718 -3.36145348 0 0 Z " fill="#9FEA01" transform="translate(344.37109375,158.515625)"/>
<path d="M0 0 C0.33 0 0.66 0 1 0 C1.43861967 16.14770191 1.71440198 34.13942424 -8.36328125 47.85546875 C-9.6875 49.25 -9.6875 49.25 -12 51 C-12.66 51 -13.32 51 -14 51 C-14.04125 49.700625 -14.0825 48.40125 -14.125 47.0625 C-15.00636172 39.74834238 -18.48790622 35.10247849 -24.06640625 30.43359375 C-26.9782372 28.19365732 -29.968345 26.07506483 -33 24 C-30.304602 21.13806711 -27.67405727 19.02643327 -24.3125 17 C-19.03459161 13.72010578 -13.9467094 10.21491318 -8.875 6.625 C-8.11614502 6.08875 -7.35729004 5.5525 -6.57543945 5 C-3.14133648 2.67833273 -3.14133648 2.67833273 0 0 Z " fill="#F8CC7A" transform="translate(203,250)"/>
<path d="M0 0 C4.01354942 1.66769898 7.03428774 3.97393073 10 7.125 C11.6036458 11.73548168 11.65108451 16.1805592 11 21 C9.1875 24.5 9.1875 24.5 7 27 C6.484375 27.598125 5.96875 28.19625 5.4375 28.8125 C1.82125864 31.79982982 -2.83588996 31.33003231 -7.2734375 31.27734375 C-12.4735721 30.74839023 -15.00085884 28.10431391 -18.375 24.375 C-20.57702931 19.80155451 -20.80465156 15.99046524 -20 11 C-15.73007055 2.46014109 -9.29951152 -1.3179244 0 0 Z " fill="#4272D1" transform="translate(425,292)"/>
<path d="M0 0 C-0.99 1.485 -0.99 1.485 -2 3 C-2.58369443 6.41538144 -2.58369443 6.41538144 -2 10 C0.45094228 12.98087575 2.79527998 14.86351998 6 17 C-14.6187291 23.2006689 -14.6187291 23.2006689 -24 23 C-24.84080019 20.58570231 -25.67281402 18.16896007 -26.5 15.75 C-26.73847656 15.06808594 -26.97695313 14.38617188 -27.22265625 13.68359375 C-28.39421287 10.23586997 -29 7.68297096 -29 4 C-27.72125 3.80664062 -26.4425 3.61328125 -25.125 3.4140625 C-23.41663655 3.15123735 -21.70830489 2.88820549 -20 2.625 C-18.74123047 2.43550781 -18.74123047 2.43550781 -17.45703125 2.2421875 C-13.4060432 1.61412734 -9.46065081 0.90130243 -5.5 -0.1640625 C-2 -1 -2 -1 0 0 Z " fill="#9848D0" transform="translate(38,318)"/>
<path d="M0 0 C3.48478389 1.24926215 5.43164611 2.35586559 7.875 5.125 C9.83136589 10.12460172 9.83136589 14.87539828 7.875 19.875 C4.58653613 23.60192572 1.38235744 24.82720532 -3.5 25.4375 C-7.76506 24.9043675 -9.75593838 23.80168958 -13 21 C-15.64201025 16.94891762 -16.70236884 13.8162435 -16 9 C-12.03571092 1.77933061 -8.39976054 -1.18146921 0 0 Z " fill="#D3F4B5" transform="translate(166,46)"/>
<path d="M0 0 C3.5386994 1.65139305 4.81070153 2.71605229 7 6 C7.46755969 9.00574088 7.59128296 11.05043034 5.94921875 13.6875 C3.20434676 17.05583849 1.5268026 18.83035527 -2.8125 19.3125 C-6.7307645 18.92835642 -8.21293267 17.70743683 -11 15 C-12.61469184 11.77061633 -12.58079278 8.49143247 -12 5 C-8.60369897 0.05992578 -5.86842367 -0.83834624 0 0 Z " fill="#CFF1B4" transform="translate(302,441)"/>
<path d="M0 0 C3.64575305 0.870234 5.12960019 2.43704001 7.16015625 5.515625 C7.97945873 10.02178865 7.47426996 11.95832648 5.22265625 15.953125 C1.65833115 18.93551947 -0.14339132 19.41963335 -4.6796875 19.1015625 C-8.67418426 18.01806428 -9.79638778 16.07519346 -11.83984375 12.515625 C-12.70802277 8.34836571 -12.03053259 6.84779266 -9.90234375 3.140625 C-6.97124844 -0.02428988 -4.18944745 -0.30773904 0 0 Z " fill="#F4C97A" transform="translate(364.83984375,291.484375)"/>
<path d="M0 0 C3.55956846 2.04345597 5.50243928 3.16565949 6.5859375 7.16015625 C6.81662528 10.4502034 6.73764431 12.91360549 4.8515625 15.69140625 C2.39115746 17.97606807 0.21237997 18.96099143 -3.0625 19.5625 C-6.67781108 18.87020639 -8.38108416 17.54408967 -11 15 C-12.62220646 11.75558709 -12.70159132 8.49459297 -12 5 C-8.37923712 0.86198528 -5.52333149 -1.15069406 0 0 Z " fill="#4272D1" transform="translate(295,122)"/>
</svg>
