<?xml version="1.0" encoding="UTF-8"?>
<svg version="1.1" xmlns="http://www.w3.org/2000/svg" width="512" height="512">
<path d="M0 0 C2.5522771 2.24502063 5.02906055 4.5522746 7.49609375 6.890625 C7.99222168 7.34888672 8.48834961 7.80714844 8.99951172 8.27929688 C35.13075062 32.50437893 54.35440551 69.50117567 55.72070312 105.49536133 C56.93556947 151.3410596 56.93556947 151.3410596 48.49609375 172.890625 C47.97450684 174.28474609 47.97450684 174.28474609 47.44238281 175.70703125 C35.56384134 207.07772481 14.75803625 234.52036238 -13.50390625 252.890625 C-10.75424115 254.72373507 -7.98349858 256.13309514 -5.00805664 257.55444336 C2.14216309 260.99222244 8.58964868 264.5117459 14.49609375 269.890625 C15.25277344 270.56738281 16.00945312 271.24414062 16.7890625 271.94140625 C31.62438259 285.93183374 38.63526931 304.65492715 39.45703125 324.703125 C39.88860722 344.57398468 32.45112002 363.24029539 18.79296875 377.5859375 C18.035 378.34648437 17.27703125 379.10703125 16.49609375 379.890625 C15.820625 380.58929688 15.14515625 381.28796875 14.44921875 382.0078125 C-0.14667223 396.10985755 -20.20126406 401.39977579 -40.046875 401.10546875 C-61.20374122 400.37435575 -79.46848675 389.75456976 -93.66015625 374.5859375 C-102.00921826 364.79184553 -106.89305063 353.13613535 -110.50390625 340.890625 C-111.17292969 341.42429687 -111.84195312 341.95796875 -112.53125 342.5078125 C-153.59190506 374.36426703 -208.74613914 389.02302744 -260.26806641 382.54296875 C-278.94265196 379.98981486 -297.04541434 375.77353152 -314.26538086 367.98706055 C-318.25931519 366.08926379 -318.25931519 366.08926379 -322.50390625 366.890625 C-323.84619924 368.55008427 -325.17822942 370.21786187 -326.50390625 371.890625 C-337.51405802 381.53729048 -350.06818733 388.16895854 -364.50390625 390.890625 C-365.61765625 391.1175 -366.73140625 391.344375 -367.87890625 391.578125 C-389.49832302 393.44186782 -409.63515262 388.76653524 -426.50390625 374.890625 C-427.220625 374.33632813 -427.93734375 373.78203125 -428.67578125 373.2109375 C-442.81751762 361.75503479 -451.04608598 343.62967563 -453.50390625 325.890625 C-455.01467566 304.7088101 -450.24114693 284.34535224 -436.2578125 267.828125 C-435.67902344 267.18875 -435.10023438 266.549375 -434.50390625 265.890625 C-433.93542969 265.230625 -433.36695313 264.570625 -432.78125 263.890625 C-426.95526158 257.55749109 -419.80136915 253.31829912 -412.50390625 248.890625 C-416.44516463 244.23370424 -416.44516463 244.23370424 -420.5546875 239.7265625 C-448.95869829 209.55676063 -457.75637099 170.18673174 -456.67871094 129.90722656 C-456.36561641 121.32863823 -454.84061625 113.13495659 -452.50390625 104.890625 C-452.15779297 103.66593506 -452.15779297 103.66593506 -451.8046875 102.41650391 C-444.98017852 79.24837917 -433.05348503 59.37180258 -416.50390625 41.890625 C-415.6840625 41.00632812 -414.86421875 40.12203125 -414.01953125 39.2109375 C-391.19496258 15.37344418 -357.35904129 -1.01435291 -324.15576172 -2.23217773 C-320.12513691 -2.31658738 -316.09778755 -2.35596587 -312.06640625 -2.359375 C-311.35048309 -2.36004974 -310.63455994 -2.36072449 -309.89694214 -2.36141968 C-299.12928799 -2.34529389 -288.97279218 -1.84182007 -278.50390625 0.890625 C-277.8190918 1.06223145 -277.13427734 1.23383789 -276.42871094 1.41064453 C-260.24893914 5.51985121 -245.76921485 12.31279238 -231.50390625 20.890625 C-230.07111328 21.74914062 -230.07111328 21.74914062 -228.609375 22.625 C-227.91457031 23.04265625 -227.21976563 23.4603125 -226.50390625 23.890625 C-225.9305957 23.271875 -225.9305957 23.271875 -225.34570312 22.640625 C-221.63921452 18.64421852 -217.91866452 14.66142594 -214.18652344 10.68896484 C-212.89961537 9.31354917 -211.62480231 7.92680741 -210.35546875 6.53515625 C-195.78099018 -8.92961852 -176.0655798 -19.41584529 -156.50390625 -27.109375 C-155.18224028 -27.65091627 -153.8606276 -28.19258762 -152.5390625 -28.734375 C-144.25818442 -32.05879345 -136.43697651 -34.22035242 -127.50390625 -35.109375 C-126.4823645 -35.23530029 -126.4823645 -35.23530029 -125.44018555 -35.36376953 C-80.14666495 -40.61505606 -35.17026553 -29.62861683 0 0 Z " fill="#020201" transform="translate(456.50390625,73.109375)"/>
<path d="M0 0 C0 59.07 0 118.14 0 179 C-20.33871347 184.35229302 -37.67455153 187.58953663 -58.3125 187.4375 C-59.20797546 187.43412628 -60.10345093 187.43075256 -61.02606201 187.42727661 C-74.69636878 187.35285077 -87.76035165 186.66830219 -101 183 C-102.00272949 182.72671875 -103.00545898 182.4534375 -104.03857422 182.171875 C-125.77711288 176.13578206 -125.77711288 176.13578206 -129 173 C-129.47467664 169.89274174 -129.61458744 167.40910364 -129.5 164.3125 C-129.48517578 163.4661499 -129.47035156 162.6197998 -129.45507812 161.74780273 C-129.26421883 155.53381965 -128.35749404 149.64185027 -127.08154297 143.57177734 C-125.34191088 135.17799967 -125.45700854 127.97594207 -127.50512695 119.66967773 C-129.89433816 108.69894257 -129.37168713 97.51326179 -129.29296875 86.34765625 C-129.28736225 83.99255139 -129.28309715 81.637443 -129.28010559 79.28233337 C-129.26873978 73.13227401 -129.23934503 66.98243268 -129.20599365 60.8324585 C-129.17511316 54.53742419 -129.16156209 48.2423541 -129.14648438 41.94726562 C-129.11446636 29.63141548 -129.06337177 17.31572598 -129 5 C-127.7283949 4.35508057 -126.45572704 3.71225635 -125.18261719 3.0703125 C-124.4740155 2.71211426 -123.76541382 2.35391602 -123.03533936 1.98486328 C-112.26678385 -3.22584268 -99.66919615 -4.89204759 -88 -7 C-86.20175781 -7.34417969 -86.20175781 -7.34417969 -84.3671875 -7.6953125 C-56.59205067 -12.27079908 -26.61355785 -8.87118595 0 0 Z " fill="#7B5E52" transform="translate(278,257)"/>
<path d="M0 0 C7.47161543 -0.11712809 14.74359092 -0.10016426 22.125 1.125 C22.91849854 1.25406738 23.71199707 1.38313477 24.52954102 1.51611328 C46.06782279 5.30813889 68.96174687 14.09122193 86 28 C82.98033792 32.71414871 79.63229393 37.00483068 76.0625 41.3125 C71.44350414 46.93571067 66.94990601 52.63200368 62.5625 58.4375 C57.56393702 65.04011903 52.3836441 71.46386515 47.09228516 77.83349609 C43.01482228 82.74712856 39.03731328 87.72624865 35.11279297 92.76245117 C31.63101546 97.22129056 28.07724558 101.61749383 24.5 106 C18.57488124 113.26293576 12.76209302 120.60729878 7 128 C6.26136719 128.94746094 5.52273438 129.89492187 4.76171875 130.87109375 C3.17250785 132.91254503 1.58495589 134.95524463 0 137 C-4.94137601 133.84707833 -9.42519057 130.29785549 -13.9375 126.5625 C-18.83904912 122.50974436 -23.78216061 118.63956203 -29 115 C-27.67175143 111.36988377 -26.03899168 108.38316212 -23.875 105.1875 C-14.51726488 90.69371068 -6.65511657 73.90491415 -3 57 C-2.7215625 55.82308594 -2.443125 54.64617187 -2.15625 53.43359375 C1.49517134 35.97888274 0.26489973 17.73198052 0 0 Z " fill="#C15A25" transform="translate(355,50)"/>
<path d="M0 0 C21.24924333 13.18269158 37.59038674 42.41746065 44 66 C44.54934613 69.04637399 44.83977354 71.90228846 45 75 C40.56948021 76.19283225 36.22692282 77.1421211 31.6875 77.8125 C-4.9326953 83.87757626 -34.36894078 102.78641671 -60 129 C-60.47308594 128.64373535 -60.94617188 128.2874707 -61.43359375 127.92041016 C-65.1055849 125.16015365 -68.78966852 122.41947948 -72.5 119.7109375 C-74.00032285 118.59939397 -75.50032171 117.48741301 -77 116.375 C-77.77472656 115.81554687 -78.54945313 115.25609375 -79.34765625 114.6796875 C-80.07855469 114.133125 -80.80945313 113.5865625 -81.5625 113.0234375 C-82.22378906 112.53794434 -82.88507813 112.05245117 -83.56640625 111.55224609 C-85 110 -85 110 -85 106 C-83.98120117 104.29931641 -83.98120117 104.29931641 -82.54296875 102.6015625 C-82.01316406 101.96476562 -81.48335938 101.32796875 -80.9375 100.671875 C-80.36 99.99640625 -79.7825 99.3209375 -79.1875 98.625 C-77.98203994 97.18054894 -76.7776295 95.73522134 -75.57421875 94.2890625 C-74.66615479 93.2047998 -74.66615479 93.2047998 -73.73974609 92.09863281 C-71.26473259 89.1130566 -68.87852284 86.06259168 -66.5 83 C-62.54221991 77.92646276 -58.50902524 72.92013578 -54.4375 67.9375 C-50.55018227 63.17826054 -46.72660109 58.38625653 -43 53.5 C-38.73792101 47.91163386 -34.33360701 42.45371487 -29.88671875 37.01171875 C-26.37663669 32.71063228 -22.91588737 28.3761946 -19.5 24 C-15.34762575 18.68317067 -11.12962135 13.4228793 -6.875 8.1875 C-6.30587891 7.48689453 -5.73675781 6.78628906 -5.15039062 6.06445312 C-1.13539567 1.13539567 -1.13539567 1.13539567 0 0 Z " fill="#C15A25" transform="translate(450,86)"/>
<path d="M0 0 C8.18030419 26.82369284 -1.64236364 63.60587435 -14.00512695 87.50561523 C-14.98660395 89.34693013 -15.98681072 91.175961 -17 93 C-17.4964502 93.8964624 -17.4964502 93.8964624 -18.00292969 94.81103516 C-23.30760072 104.30760072 -23.30760072 104.30760072 -26 107 C-29.26503842 106.65326283 -31.15699694 105.31545323 -33.6171875 103.2265625 C-34.29918213 102.65478271 -34.98117676 102.08300293 -35.68383789 101.49389648 C-36.40692139 100.87716064 -37.13000488 100.2604248 -37.875 99.625 C-39.41167701 98.33594695 -40.9494518 97.04820152 -42.48828125 95.76171875 C-43.25221191 95.12153809 -44.01614258 94.48135742 -44.80322266 93.82177734 C-47.84378093 91.30025636 -50.94346818 88.86079658 -54.0625 86.4375 C-59.09257537 82.51910747 -64.06046541 78.5319232 -69 74.5 C-76.26293576 68.57488124 -83.60729878 62.76209302 -91 57 C-91.94746094 56.26136719 -92.89492188 55.52273437 -93.87109375 54.76171875 C-95.91254503 53.17250785 -97.95524463 51.58495589 -100 50 C-83.11949538 24.50117868 -49.42858028 8.2897535 -20.49609375 1.67578125 C-13.63835651 0.35020746 -6.97237842 -0.15157344 0 0 Z " fill="#D45E2A" transform="translate(499,173)"/>
<path d="M0 0 C13.57010599 -0.88169441 13.57010599 -0.88169441 18.17294312 2.92572021 C19.82211304 4.71551514 19.82211304 4.71551514 21.35653687 6.64447021 C21.93186157 7.2894043 22.50718628 7.93433838 23.09994507 8.59881592 C24.7080242 10.41536245 26.25482511 12.26959644 27.79403687 14.14447021 C29.02061373 15.54257986 30.24915743 16.93897261 31.48153687 18.33197021 C31.98684937 18.93009521 32.49216187 19.52822021 33.01278687 20.14447021 C36.2467985 23.77564117 39.7671835 27.13378327 43.24325562 30.53118896 C44.08501343 31.39357178 44.92677124 32.25595459 45.79403687 33.14447021 C46.62548218 33.87279053 47.45692749 34.60111084 48.31356812 35.35150146 C50.03629013 38.60149155 49.86882299 39.0877388 48.89559937 42.48431396 C48.21849847 44.37956367 47.51465906 46.26533724 46.79403687 48.14447021 C46.14009932 49.98713533 45.48624953 51.82983232 44.83425903 53.67318726 C43.88236712 56.34279902 42.9037743 59.00222353 41.92294312 61.66131592 C41.15947785 63.73290771 40.40228758 65.80672277 39.64559937 67.88079834 C39.16159216 69.19929279 38.67723064 70.51765723 38.19247437 71.83587646 C37.75596558 73.02382812 37.31945679 74.21177979 36.86972046 75.43572998 C35.79403687 78.14447021 35.79403687 78.14447021 34.79403687 79.14447021 C32.27820132 79.50640077 29.77722937 79.81219649 27.25106812 80.08197021 C26.48985153 80.16696777 25.72863495 80.25196533 24.9443512 80.33953857 C22.49884848 80.61196468 20.05275048 80.87850959 17.60653687 81.14447021 C15.17829077 81.41135809 12.75019435 81.67950461 10.32228088 81.94940186 C8.80989397 82.1172206 7.29729777 82.28316715 5.7844696 82.44696045 C1.76038156 82.89021507 -2.21692504 83.45741774 -6.20596313 84.14447021 C-12.96109011 84.94945059 -12.96109011 84.94945059 -16.04238892 82.95697021 C-17.90404367 81.27234557 -19.5882079 79.50987233 -21.26846313 77.64447021 C-21.8784314 77.00098633 -22.48839966 76.35750244 -23.11685181 75.69451904 C-26.70129425 71.8873987 -30.19079213 67.991108 -33.56924438 63.99993896 C-35.52496401 61.78283438 -37.60152204 59.72071109 -39.70596313 57.64447021 C-41.20725235 56.14576054 -42.70727835 54.64578427 -44.20596313 53.14447021 C-45.27717407 52.08679443 -45.27717407 52.08679443 -46.37002563 51.00775146 C-47.01713501 50.33099365 -47.66424438 49.65423584 -48.33096313 48.95697021 C-48.91104126 48.36529053 -49.49111938 47.77361084 -50.08877563 47.16400146 C-51.7376456 44.18335191 -50.94996916 42.45095262 -50.20596313 39.14447021 C-49.26942623 36.29325831 -48.18444581 33.50893279 -47.08096313 30.71868896 C-46.77400513 29.93049271 -46.46704712 29.14229645 -46.15078735 28.33021545 C-45.50460124 26.6743738 -44.85562425 25.01961884 -44.20401001 23.36590576 C-43.20330119 20.82521181 -42.21176873 18.28108025 -41.22158813 15.73626709 C-40.59191186 14.12603289 -39.96172172 12.51599952 -39.33096313 10.90618896 C-39.03302856 10.14271652 -38.73509399 9.37924408 -38.4281311 8.59263611 C-36.32225699 3.26076407 -36.32225699 3.26076407 -35.20596313 2.14447021 C-32.95945498 1.91342142 -30.70614431 1.74813875 -28.45205688 1.60931396 C-27.75894913 1.56633682 -27.06584137 1.52335968 -26.35173035 1.4790802 C-24.871396 1.38858813 -23.39091409 1.30048442 -21.91030884 1.21453857 C-19.7043327 1.08552995 -17.49914839 0.94669706 -15.29385376 0.80657959 C-11.66095354 0.58174187 -8.02766574 0.40336996 -4.39117432 0.2479248 C-2.92675866 0.17859488 -1.46292197 0.09580788 0 0 Z " fill="#C4CBC7" transform="translate(173.20596313476563,109.85552978515625)"/>
<path d="M0 0 C3.19437675 23.95782559 0.27216196 47.38027084 -8 70 C-8.25765137 70.7213916 -8.51530273 71.4427832 -8.78076172 72.18603516 C-13.07737541 84.04015767 -19.16692522 94.43530029 -26 105 C-29.12151233 104.40571044 -30.97084717 103.47912631 -33.3984375 101.4453125 C-34.03523438 100.91873047 -34.67203125 100.39214844 -35.328125 99.84960938 C-36.00359375 99.28048828 -36.6790625 98.71136719 -37.375 98.125 C-38.81949294 96.92869721 -40.26481983 95.73340076 -41.7109375 94.5390625 C-42.4337793 93.9399707 -43.15662109 93.34087891 -43.90136719 92.72363281 C-46.89509153 90.26485037 -49.94242312 87.87855714 -53 85.5 C-57.99177281 81.60606193 -62.91398563 77.63548309 -67.8125 73.625 C-74.87443486 67.84957185 -82.08541091 62.28748519 -89.35546875 56.77734375 C-92.27447427 54.56347013 -95.15252455 52.30562576 -98 50 C-90.07406133 30.96003559 -60.54654926 16.64849583 -43 9 C-29.2870462 3.55405634 -14.83676209 -0.39044111 0 0 Z " fill="#D45E2A" transform="translate(344,51)"/>
<path d="M0 0 C12.66497991 7.14434764 21.46977889 21.36697462 25.34765625 35.09765625 C28.21120827 52.22752732 26.31428937 70.2829345 16.98828125 85.22265625 C6.39889546 99.8408136 -6.53088708 108.48714583 -24 113 C-24.62132812 113.19207031 -25.24265625 113.38414062 -25.8828125 113.58203125 C-41.56605238 116.67816901 -57.5904774 112.14409864 -71 104 C-82.82129383 95.92104511 -90.85516577 85.30710287 -96 72 C-96.4125 70.948125 -96.825 69.89625 -97.25 68.8125 C-101.97571112 51.09108329 -99.02093677 33.49800795 -90.10107422 17.82861328 C-85.85061923 10.76965366 -80.97667823 5.36042389 -74 1 C-73.39171989 12.18559542 -74.65571074 22.66523949 -76.57714844 33.68505859 C-78.58528157 45.46360059 -79.41441865 55.87837202 -72.4921875 66.26171875 C-64.9809905 75.43236625 -54.77607024 80.90699407 -42.96484375 82.22753906 C-30.07552141 83.17109443 -17.43660104 81.14503232 -7 73 C-0.85261533 67.5674275 4.61873067 61.00844439 5.1550293 52.55688477 C5.30115333 43.08142724 3.60083554 34.21843464 1.77734375 24.953125 C0.19475259 16.47043636 -0.29726978 8.61917198 0 0 Z " fill="#5E7015" transform="translate(457,348)"/>
<path d="M0 0 C3.86225539 1.67801873 6.98678695 4.20339947 10.25 6.8125 C11.16265625 7.53566406 11.16265625 7.53566406 12.09375 8.2734375 C17.44371739 12.52513923 22.74143971 16.84118672 28.03613281 21.16137695 C32.87985401 25.10813436 37.77513465 28.98235415 42.69995117 32.82714844 C47.97433233 36.95551158 53.16576085 41.1827452 58.35546875 45.41674805 C63.18219039 49.34978691 68.05189004 53.22019378 73 57 C71.86861527 65.74802838 59.24968213 73.6203118 52.6875 78.6875 C32.88204352 93.56622601 32.88204352 93.56622601 19.66796875 93.73046875 C13.97565028 94.14875413 8.86603301 96.00530016 3.49609375 97.84375 C0.64712569 98.78597854 -2.04863418 99.50149675 -5 100 C-5.24492187 99.30777344 -5.48984375 98.61554688 -5.7421875 97.90234375 C-8.19559158 91.48119306 -11.12262138 85.88850576 -14.9375 80.1875 C-15.5864624 79.2128479 -15.5864624 79.2128479 -16.24853516 78.21850586 C-18.50847947 74.91128067 -20.75189223 72.18106649 -23.75 69.5 C-25.77595796 67.20275992 -25.99403773 66.1119744 -26.16015625 62.9921875 C-23.95372768 40.03541384 -12.68408301 18.79123409 0 0 Z " fill="#D45E2A" transform="translate(391,232)"/>
<path d="M0 0 C6.75199454 1.12533242 6.75199454 1.12533242 9.69921875 2.63671875 C10.67858398 3.13268555 10.67858398 3.13268555 11.67773438 3.63867188 C12.34095703 3.98478516 13.00417969 4.33089844 13.6875 4.6875 C14.33138672 5.01427734 14.97527344 5.34105469 15.63867188 5.67773438 C21.49134512 8.66986351 27.22663319 11.85089083 33 15 C33 60.87 33 106.74 33 154 C4.25 169 4.25 169 0 169 C0 113.23 0 57.46 0 0 Z " fill="#B8A493" transform="translate(289,262)"/>
<path d="M0 0 C1.69661266 1.29911248 3.24372487 2.58799982 4.74829102 4.10546875 C5.28623291 4.64469971 5.8241748 5.18393066 6.37841797 5.73950195 C7.21699341 6.59741333 7.21699341 6.59741333 8.07250977 7.47265625 C8.65282959 8.05942139 9.23314941 8.64618652 9.83105469 9.25073242 C13.41128348 12.89520757 16.84811324 16.62417322 20.15063477 20.5234375 C22.51099057 23.19888934 25.08091526 25.64525807 27.67016602 28.09765625 C30.64863715 31.30438405 33.18293803 34.81510127 35.76000977 38.34765625 C27.54851787 53.08646288 19.26893277 67.77829625 10.76000977 82.34765625 C-0.10391307 81.90200349 -10.59345093 80.26194926 -21.27612305 78.33642578 C-24.02572994 77.8412195 -26.77716159 77.35733536 -29.52905273 76.875 C-31.28177152 76.56444827 -33.03438015 76.25327409 -34.78686523 75.94140625 C-35.60757507 75.79658813 -36.42828491 75.65177002 -37.27386475 75.50256348 C-43.00709373 74.4641045 -43.00709373 74.4641045 -45.23999023 73.34765625 C-45.71069336 71.484375 -45.71069336 71.484375 -46.02124023 69.03515625 C-46.14007568 68.13265137 -46.25891113 67.23014648 -46.38134766 66.30029297 C-46.55887573 64.83873779 -46.55887573 64.83873779 -46.73999023 63.34765625 C-46.86672119 62.3539502 -46.99345215 61.36024414 -47.12402344 60.33642578 C-47.38122349 58.30586475 -47.63422906 56.27476806 -47.88305664 54.24316406 C-48.20036173 51.66912961 -48.53454925 49.0981655 -48.87670898 46.52734375 C-49.92632903 38.44526941 -50.52309709 30.51057053 -50.23999023 22.34765625 C-44.93741805 19.61787813 -39.59490169 16.97313082 -34.23999023 14.34765625 C-33.63098877 14.04833191 -33.0219873 13.74900757 -32.39453125 13.44061279 C-28.1654628 11.36437124 -23.92661964 9.30980821 -19.67749023 7.27493286 C-18.21841158 6.57305659 -16.76201284 5.86558195 -15.30834961 5.15255737 C-13.23521601 4.13724184 -11.15325792 3.14271202 -9.06811523 2.15234375 C-8.43947571 1.83925766 -7.81083618 1.52617157 -7.16314697 1.20359802 C-2.8218531 -0.82179744 -2.8218531 -0.82179744 0 0 Z " fill="#221E1F" transform="translate(114.239990234375,163.65234375)"/>
<path d="M0 0 C1.70991025 0.73187935 3.39475341 1.52419887 5.0546875 2.36328125 C6.47201172 3.07581055 6.47201172 3.07581055 7.91796875 3.80273438 C8.89378906 4.30095703 9.86960937 4.79917969 10.875 5.3125 C11.84308594 5.79912109 12.81117187 6.28574219 13.80859375 6.78710938 C18.95833809 9.39000737 24.02237656 12.08136565 29 15 C28.02321096 18.34050779 27.01445255 21.67074662 26 25 C25.63213379 26.21977539 25.26426758 27.43955078 24.88525391 28.69628906 C22.69818572 35.81770069 20.29804815 42.84489086 17.5078125 49.75390625 C17.13660027 50.73177597 17.13660027 50.73177597 16.75788879 51.72940063 C14.67380607 56.69685147 11.80248348 59.49308456 7.1875 62.0625 C5.08385791 62.81333145 2.97088419 63.41513302 0.82324219 64.02880859 C-5.04401643 66.04713744 -10.52456566 69.05282081 -16.06723022 71.82077026 C-19.46280249 73.50909941 -22.87675235 75.15863547 -26.29296875 76.8046875 C-27.4636792 77.37171387 -28.63438965 77.93874023 -29.84057617 78.52294922 C-30.88318604 79.01037598 -31.9257959 79.49780273 -33 80 C-33.83958252 80.41652832 -34.67916504 80.83305664 -35.54418945 81.26220703 C-41.23411454 82.97161687 -45.97501078 80.27300728 -50.9296875 77.62109375 C-51.56488312 77.28956802 -52.20007874 76.9580423 -52.85452271 76.61647034 C-54.86554466 75.5645919 -56.87025598 74.50128596 -58.875 73.4375 C-60.24438986 72.7186351 -61.61417788 72.00052814 -62.984375 71.28320312 C-66.32758637 69.53086949 -69.66519068 67.76826726 -73 66 C-68.00017518 55.29351932 -62.63984331 46.03650217 -55 37 C-54.2575 36.11699219 -53.515 35.23398438 -52.75 34.32421875 C-40.99995691 20.83265142 -27.41151643 10.94176259 -11.875 2.3125 C-10.95219238 1.785354 -10.95219238 1.785354 -10.01074219 1.24755859 C-6.13501184 -0.82727331 -4.17929239 -1.16586015 0 0 Z " fill="#C4CBC7" transform="translate(97,94)"/>
<path d="M0 0 C-1.41791563 2.93446886 -2.98332607 5.43332409 -5 8 C-7.31 7.34 -9.62 6.68 -12 6 C-15.13706517 10.09947304 -15.13706517 10.09947304 -16 15 C-14.68 16.32 -13.36 17.64 -12 19 C-13.65 22.96 -15.3 26.92 -17 31 C-19.31 30.67 -21.62 30.34 -24 30 C-24.66 33.63 -25.32 37.26 -26 41 C-23.03 41.495 -23.03 41.495 -20 42 C-20 47.28 -20 52.56 -20 58 C-23.465 58.495 -23.465 58.495 -27 59 C-26.5247412 60.64696604 -26.04468109 62.29254728 -25.5625 63.9375 C-25.29566406 64.85402344 -25.02882812 65.77054687 -24.75390625 66.71484375 C-24.20973949 68.9402493 -24.20973949 68.9402493 -23 70 C-21.33382885 70.04063832 -19.66611905 70.042721 -18 70 C-17.1344953 72.26708325 -16.28240685 74.53775079 -15.4375 76.8125 C-15.19064453 77.45509766 -14.94378906 78.09769531 -14.68945312 78.75976562 C-12.88671875 83.66015625 -12.88671875 83.66015625 -14 87 C-14.99 87.99 -15.98 88.98 -17 90 C-14.525 93.465 -14.525 93.465 -12 97 C-9.03 96.505 -9.03 96.505 -6 96 C-4.96680187 97.2608012 -3.94875621 98.53403258 -2.9375 99.8125 C-2.08478516 100.87404297 -2.08478516 100.87404297 -1.21484375 101.95703125 C-0.81394531 102.63121094 -0.41304688 103.30539062 0 104 C-1 107 -1 107 -3.15234375 108.28125 C-4.07144531 108.6834375 -4.99054688 109.085625 -5.9375 109.5 C-7.28134766 110.10328125 -7.28134766 110.10328125 -8.65234375 110.71875 C-17.40778043 114.06972226 -24.96116805 115.52686277 -34.375 115.4375 C-35.47972656 115.43065186 -36.58445312 115.42380371 -37.72265625 115.41674805 C-45.5187737 115.26278626 -51.97357936 114.59357787 -59 111 C-59.89203125 110.54496094 -60.7840625 110.08992188 -61.703125 109.62109375 C-63.84301037 108.46910025 -65.93151786 107.2745193 -68 106 C-66.49087042 101.01987239 -63.44338151 97.75740058 -60 94 C-59.21625 94.495 -58.4325 94.99 -57.625 95.5 C-55.21447673 97.16537965 -55.21447673 97.16537965 -53 97 C-49.934191 93.32935973 -49.934191 93.32935973 -49 88.8125 C-50.26211055 86.52492463 -51.89585679 85.5059896 -54 84 C-53.79503906 83.25234375 -53.59007812 82.5046875 -53.37890625 81.734375 C-52.97478516 80.25710938 -52.97478516 80.25710938 -52.5625 78.75 C-52.29566406 77.77546875 -52.02882813 76.8009375 -51.75390625 75.796875 C-51.14493079 73.53767069 -50.56749476 71.26997905 -50 69 C-47.03 69.33 -44.06 69.66 -41 70 C-40.855625 68.7625 -40.71125 67.525 -40.5625 66.25 C-40.2271044 63.37518059 -39.70982076 60.83928302 -39 58 C-41.97 57.67 -44.94 57.34 -48 57 C-48 52.38 -48 47.76 -48 43 C-43.545 42.505 -43.545 42.505 -39 42 C-40.485 37.05 -40.485 37.05 -42 32 C-44.97 32 -47.94 32 -51 32 C-51.67305018 30.39850114 -52.33822227 28.79368971 -53 27.1875 C-53.37125 26.29417969 -53.7425 25.40085937 -54.125 24.48046875 C-55 22 -55 22 -55 19 C-52 16.8125 -52 16.8125 -49 15 C-49.28875 14.278125 -49.5775 13.55625 -49.875 12.8125 C-50.91666667 10.20833333 -51.95833333 7.60416667 -53 5 C-53.9075 5.680625 -54.815 6.36125 -55.75 7.0625 C-59 9 -59 9 -61.0625 9.125 C-64.22778344 7.28709348 -65.89702705 5.00424707 -68 2 C-66.69536669 -1.91389993 -65.37962904 -2.17568384 -61.75 -4 C-40.5380943 -14.06751605 -19.91456462 -10.89777524 0 0 Z " fill="#C2C9C5" transform="translate(112,337)"/>
<path d="M0 0 C-0.04640625 1.3096875 -0.0928125 2.619375 -0.140625 3.96875 C-0.49713892 18.95343229 0.86978515 33.57651878 4.54150391 48.14916992 C5.80884736 53.26510747 6.00531277 58.66264781 3.90625 63.54296875 C-0.72780005 70.90075566 -6.52646913 75.25408596 -14.92578125 77.4921875 C-24.74163586 79.11361202 -35.42322213 79.65406249 -44 74 C-44.72832031 73.52949219 -45.45664062 73.05898438 -46.20703125 72.57421875 C-50.7695857 69.39276187 -53.68375623 66.47009722 -55.6875 61.1875 C-56.74465903 53.78738681 -55.38799861 46.89063247 -54.0625 39.625 C-51.78155749 26.44016056 -51.19013718 13.36041538 -51 0 C-49.10546779 -0.64964023 -47.20931351 -1.29455115 -45.3125 -1.9375 C-44.25675781 -2.29714844 -43.20101563 -2.65679687 -42.11328125 -3.02734375 C-27.61027769 -7.55839505 -13.95766929 -4.89129837 0 0 Z " fill="#4B6411" transform="translate(446,341)"/>
<path d="M0 0 C6.13081494 0.92591591 11.34373228 3.89017176 16.80297852 6.67236328 C18.6822463 7.62234422 20.57552251 8.53930276 22.47070312 9.45703125 C23.67288117 10.06572519 24.87408904 10.67633984 26.07421875 11.2890625 C27.16307373 11.83256348 28.25192871 12.37606445 29.3737793 12.93603516 C33.88301966 16.47987805 33.93678603 21.27905857 34.68603516 26.66259766 C34.89320059 28.41236803 35.09390815 30.16291183 35.2890625 31.9140625 C35.39721283 32.84672943 35.50536316 33.77939636 35.61679077 34.74032593 C35.84300792 36.70156556 36.06639934 38.66313298 36.28710938 40.625 C36.6247979 43.62320563 36.97182785 46.62021948 37.3203125 49.6171875 C37.53961161 51.52858291 37.75837986 53.44003932 37.9765625 55.3515625 C38.13120468 56.69077255 38.13120468 56.69077255 38.28897095 58.05703735 C39.57641668 69.5764854 39.57641668 69.5764854 36.91796875 74.3984375 C36.48033203 75.20796875 36.04269531 76.0175 35.59179688 76.8515625 C35.12837891 77.68429688 34.66496094 78.51703125 34.1875 79.375 C31.19595145 84.8374567 28.34276398 90.22481438 26 96 C20.04180099 94.98655436 14.86189686 92.58323845 9.375 90.125 C8.32570313 89.69703125 7.27640625 89.2690625 6.1953125 88.828125 C-1.21918268 85.46308488 -1.21918268 85.46308488 -3.30761719 81.54980469 C-4.1158914 78.69904082 -4.59618737 75.93405909 -5 73 C-5.19368164 72.14349854 -5.38736328 71.28699707 -5.58691406 70.40454102 C-7.37406867 62.36612524 -7.3949396 54.25662471 -7.375 46.0625 C-7.37545319 45.33788574 -7.37590637 44.61327148 -7.37637329 43.86669922 C-7.34810086 28.44228262 -5.0489895 14.55334522 0 0 Z " fill="#C4CBC7" transform="translate(19,171)"/>
<path d="M0 0 C7.22179577 2.3316307 14.36876629 4.83546849 21.42211914 7.63916016 C22.68423157 8.13044349 23.95373328 8.60314285 25.22973633 9.05712891 C35.78697029 12.83191844 35.78697029 12.83191844 38.66455078 17.97509766 C39.71455567 21.31158459 40.41645236 24.55342982 41 28 C41.41375201 29.66089883 41.83478535 31.32001402 42.265625 32.9765625 C42.60554601 34.5234967 42.93363882 36.07307626 43.25 37.625 C43.41983398 38.45676758 43.58966797 39.28853516 43.76464844 40.14550781 C45.4379217 49.09768808 45.36930745 57.93145028 45 67 C38.68403788 70.25912636 32.25493573 73.09900859 25.6875 75.8125 C24.69943359 76.23208984 23.71136719 76.65167969 22.69335938 77.08398438 C21.74654297 77.47521484 20.79972656 77.86644531 19.82421875 78.26953125 C18.54164185 78.80477417 18.54164185 78.80477417 17.2331543 79.35083008 C15 80 15 80 12 79 C10.56469727 77.15258789 10.56469727 77.15258789 9.06640625 74.72265625 C8.22420532 73.3763916 8.22420532 73.3763916 7.36499023 72.00292969 C6.77016846 71.03258789 6.17534668 70.06224609 5.5625 69.0625 C0.16719513 60.31907735 0.16719513 60.31907735 -5.6953125 51.88671875 C-6.2632251 51.10095459 -6.8311377 50.31519043 -7.41625977 49.50561523 C-8.48673065 48.03889708 -9.58260453 46.59027424 -10.70678711 45.16430664 C-12.74385679 42.32787618 -14.11028578 40.31998298 -13.8125 36.75585938 C-13.04835886 34.07699886 -12.06353143 31.57498308 -11 29 C-10.18087366 26.73061443 -9.36602362 24.45968233 -8.5546875 22.1875 C-7.66466364 19.79047409 -6.77138138 17.39465574 -5.875 15 C-5.41996094 13.77410156 -4.96492187 12.54820312 -4.49609375 11.28515625 C-1.15094021 2.30188041 -1.15094021 2.30188041 0 0 Z " fill="#221E1F" transform="translate(233,155)"/>
<path d="M0 0 C1.72583008 1.94262695 1.72583008 1.94262695 3.26953125 4.48828125 C4.13263916 5.88191895 4.13263916 5.88191895 5.01318359 7.30371094 C5.60695801 8.29661133 6.20073242 9.28951172 6.8125 10.3125 C8.04971233 12.32487631 9.287987 14.3365999 10.52734375 16.34765625 C11.12144043 17.32105957 11.71553711 18.29446289 12.32763672 19.29736328 C14.99686529 23.61099252 17.85937532 27.77968142 20.7421875 31.953125 C22 34 22 34 22 36 C20.998479 36.01458252 19.99695801 36.02916504 18.96508789 36.04418945 C15.16073188 36.10325178 11.35690329 36.18044905 7.55297852 36.26245117 C5.92318437 36.29520363 4.29329024 36.32338024 2.66333008 36.34643555 C-8.85148318 36.51352299 -19.72463735 37.6627915 -31 40 C-31.97638428 40.19295654 -32.95276855 40.38591309 -33.95874023 40.5847168 C-36.39957775 41.08183381 -38.82483518 41.61913738 -41.25 42.1875 C-42.53765259 42.48853638 -42.53765259 42.48853638 -43.85131836 42.7956543 C-51.56547181 44.70232714 -58.89815268 47.40886643 -66.24902344 50.40893555 C-67.07563477 50.74449463 -67.90224609 51.08005371 -68.75390625 51.42578125 C-69.47908447 51.72911377 -70.2042627 52.03244629 -70.95141602 52.3449707 C-73 53 -73 53 -77 53 C-75.72556087 49.67957732 -74.30525446 46.55840492 -72.6015625 43.4375 C-72.12904053 42.56778564 -71.65651855 41.69807129 -71.16967773 40.80200195 C-70.11877248 38.89568939 -69.06070859 36.99330955 -67.99633789 35.09448242 C-65.21639161 30.12516101 -62.57502495 25.16832054 -60.20703125 19.98828125 C-53.90671452 6.70944581 -53.90671452 6.70944581 -49.0546875 3.85595703 C-44.43795678 2.24680159 -39.77673365 2.15784866 -34.92822266 2.10253906 C-30.34172114 1.94193121 -25.82722586 1.29119715 -21.27758789 0.71337891 C-17.76276025 0.2674767 -14.24829633 -0.15925068 -10.7265625 -0.546875 C-9.74252441 -0.65870117 -8.75848633 -0.77052734 -7.74462891 -0.88574219 C-4.85527635 -1.00602479 -2.73942441 -0.94430476 0 0 Z " fill="#C3CAC6" transform="translate(211,201)"/>
<path d="M0 0 C18.16704766 10.9002286 33.55581793 28.13122625 41.5390625 47.81640625 C42.1248411 50.59140824 41.89904601 52.31150664 41 55 C39.3984375 56.73828125 39.3984375 56.73828125 37.375 58.3125 C25.91966897 67.87219796 18.41740528 80.45013811 15 95 C14.80921875 95.68320312 14.6184375 96.36640625 14.421875 97.0703125 C13.66349887 99.83296842 13.0081897 102.33663458 12.97265625 105.21484375 C12.91227654 109.13952515 12.64019598 111.24352091 10.04296875 114.3125 C6.81808492 117.23000395 4.15535678 119.61488107 0 121 C0 81.07 0 41.14 0 0 Z " fill="#7A5D52" transform="translate(334,286)"/>
<path d="M0 0 C3.25065181 0.60006522 5.12341896 1.64986539 7.64453125 3.765625 C8.32193359 4.32636719 8.99933594 4.88710937 9.69726562 5.46484375 C10.74430664 6.34849609 10.74430664 6.34849609 11.8125 7.25 C16.75190011 11.3777616 21.71319759 15.3234263 27 19 C26.38864583 21.99518075 25.44702901 24.14308407 23.77734375 26.6953125 C23.32512451 27.40155762 22.87290527 28.10780273 22.40698242 28.83544922 C21.92205322 29.59100098 21.43712402 30.34655273 20.9375 31.125 C11.89036112 45.63863921 6.10739508 60.51896935 1.65087891 76.99560547 C0.95923685 79.12553094 0.04763995 81.02383305 -1 83 C-1.92039062 82.23816406 -2.84078125 81.47632813 -3.7890625 80.69140625 C-15.83701164 70.82290495 -28.47405496 62.70433866 -42 55 C-40.3731545 51.3461224 -38.13308374 48.40404253 -35.6875 45.25 C-35.25236084 44.68853271 -34.81722168 44.12706543 -34.36889648 43.54858398 C-30.29050992 38.31454729 -26.10118802 33.17173853 -21.90478516 28.03222656 C-14.40660966 18.84148563 -7.05625132 9.53547476 0 0 Z " fill="#C15A25" transform="translate(355,204)"/>
<path d="M0 0 C5.69051744 4.2109829 11.26986387 8.54777262 16.81103516 12.95239258 C20.7884576 16.09907329 24.85365797 19.0790737 29 22 C27.30782687 25.91972307 24.71210457 29.07239492 22.0625 32.375 C21.0610576 33.63530519 20.05975941 34.89572497 19.05859375 36.15625 C18.54796387 36.79691406 18.03733398 37.43757813 17.51123047 38.09765625 C16.09407084 39.8815832 14.68706625 41.67282571 13.28515625 43.46875 C7.29435513 51.14322594 1.1908886 58.71975698 -4.9609375 66.265625 C-8.67181716 70.818937 -12.34271053 75.40352744 -16 80 C-19.66172475 79.37321829 -22.8818995 78.35548154 -26.3125 76.9375 C-27.63701172 76.39416016 -27.63701172 76.39416016 -28.98828125 75.83984375 C-29.98408203 75.42412109 -29.98408203 75.42412109 -31 75 C-31.08741003 70.60218295 -30.8288916 66.62388754 -30 62.3125 C-29.1432602 57.13286396 -29.00423184 52.39480715 -29.25390625 47.14453125 C-29.30095703 45.91114014 -29.34800781 44.67774902 -29.39648438 43.40698242 C-29.50569985 40.9189576 -29.66075 38.43245107 -29.86523438 35.95043945 C-30.00665622 32.34393336 -29.97304973 29.48069631 -29 26 C-25.77771602 22.53755013 -22.04993189 20.38580821 -18 18 C-15.59380417 16.07469841 -13.36236083 13.99250222 -11.125 11.875 C-10.59648437 11.38902344 -10.06796875 10.90304688 -9.5234375 10.40234375 C-6.03904412 7.15081824 -2.98649182 3.71382931 0 0 Z " fill="#C15A25" transform="translate(318,173)"/>
<path d="M0 0 C3.96 0 7.92 0 12 0 C12 3.63 12 7.26 12 11 C15.3 11 18.6 11 22 11 C22 7.37 22 3.74 22 0 C25.96 0 29.92 0 34 0 C34 3.96 34 7.92 34 12 C37.63 12 41.26 12 45 12 C45 8.37 45 4.74 45 1 C48.63 1 52.26 1 56 1 C56 4.63 56 8.26 56 12 C58.64 12 61.28 12 64 12 C64 8.04 64 4.08 64 0 C67.96 0 71.92 0 76 0 C76 3.63 76 7.26 76 11 C78.97 11 81.94 11 85 11 C85 14.96 85 18.92 85 23 C82.03 23 79.06 23 76 23 C76 26.63 76 30.26 76 34 C72.04 34 68.08 34 64 34 C64 30.37 64 26.74 64 23 C61.36 23 58.72 23 56 23 C56 26.63 56 30.26 56 34 C52.37 34 48.74 34 45 34 C45 30.37 45 26.74 45 23 C41.37 23 37.74 23 34 23 C34 26.63 34 30.26 34 34 C30.04 34 26.08 34 22 34 C22 30.37 22 26.74 22 23 C18.7 23 15.4 23 12 23 C12 26.63 12 30.26 12 34 C8.04 34 4.08 34 0 34 C0 30.37 0 26.74 0 23 C-2.64 23 -5.28 23 -8 23 C-8 19.04 -8 15.08 -8 11 C-5.36 11 -2.72 11 0 11 C0 7.37 0 3.74 0 0 Z " fill="#030202" transform="translate(174,329)"/>
<path d="M0 0 C3.32302186 1.56377499 5.56184007 3.21353151 8 6 C8 6.66 8 7.32 8 8 C7.01 8.99 6.02 9.98 5 11 C6.65 13.64 8.3 16.28 10 19 C11.32 18.67 12.64 18.34 14 18 C17 22.625 17 22.625 17 26 C15.35 26.33 13.7 26.66 12 27 C12.33 28.0725 12.66 29.145 13 30.25 C14 34 14 34 14 38 C16.97 37.505 16.97 37.505 20 37 C20 39.64 20 42.28 20 45 C18.35 44.67 16.7 44.34 15 44 C14.34 47.96 13.68 51.92 13 56 C14.65 56 16.3 56 18 56 C17.91253716 57.43861294 17.80434652 58.87597508 17.6875 60.3125 C17.60048828 61.51326172 17.60048828 61.51326172 17.51171875 62.73828125 C16.90324968 65.42762166 16.28938222 66.46501375 14 68 C12.68 67.67 11.36 67.34 10 67 C8.35 69.64 6.7 72.28 5 75 C6.32 75.99 7.64 76.98 9 78 C7.6062718 82.43458973 5.39417765 84.87378374 2 88 C-6.28856499 84.47102582 -10.32690645 75.13529658 -13.7109375 67.30859375 C-20.28283499 50.44072352 -19.52064761 34.45862021 -12.6796875 17.78125 C-9.46815383 10.83170174 -5.3878672 5.41521678 0 0 Z " fill="#D1C3BD" transform="translate(33,346)"/>
<path d="M0 0 C8.28806968 3.52876329 12.32061561 12.86047131 15.7109375 20.68359375 C22.53309632 38.23514782 20.94478688 54.95824017 13.5234375 72.02734375 C10.20109816 78.51016488 6.60771837 84.69614081 0 88 C-1.98 85.69 -3.96 83.38 -6 81 C-5.154375 80.2575 -4.30875 79.515 -3.4375 78.75 C-0.7788975 76.36301205 -0.7788975 76.36301205 -1 74 C-2.21044415 71.57911171 -3.54291073 69.28066147 -5 67 C-5.763125 67.309375 -6.52625 67.61875 -7.3125 67.9375 C-9.18789677 68.67893593 -11.08684652 69.36228217 -13 70 C-13.99 66.04 -14.98 62.08 -16 58 C-13.69 57.34 -11.38 56.68 -9 56 C-9.33 52.37 -9.66 48.74 -10 45 C-12.64 45.33 -15.28 45.66 -18 46 C-18 42.7 -18 39.4 -18 36 C-15.36 36.33 -12.72 36.66 -10 37 C-9.34 33.37 -8.68 29.74 -8 26 C-9.98 25.67 -11.96 25.34 -14 25 C-13.51421457 21.87709365 -13.0013988 19.00419641 -12 16 C-9.69 16.66 -7.38 17.32 -5 18 C-2.03 13.545 -2.03 13.545 1 9 C-0.65 8.34 -2.3 7.68 -4 7 C-4 4 -4 4 -2 1.8125 C-1.34 1.214375 -0.68 0.61625 0 0 Z " fill="#D1C3BD" transform="translate(121,346)"/>
<path d="M0 0 C12.73928948 0.95808972 25.41861992 3.49000407 38 5.625 C39.95046921 5.95343175 41.90098977 6.28155863 43.8515625 6.609375 C48.56830609 7.40274691 53.2843415 8.20020488 58 9 C56.61701378 13.14895867 54.63576336 13.52993269 50.8125 15.5625 C33.00293738 25.37341394 11.80802246 40.01813003 1.328125 57.84375 C0.88984375 58.5553125 0.4515625 59.266875 0 60 C-0.66 60 -1.32 60 -2 60 C-3.40777923 55.80142704 -4.81356569 51.60219371 -6.2175293 47.40234375 C-6.69517516 45.97442721 -7.17335998 44.54669083 -7.65209961 43.11914062 C-8.34110865 41.06427668 -9.02816112 39.00876736 -9.71484375 36.953125 C-10.12855225 35.71723633 -10.54226074 34.48134766 -10.96850586 33.20800781 C-11.30889893 32.14936523 -11.64929199 31.09072266 -12 30 C-12.26353271 29.31671631 -12.52706543 28.63343262 -12.79858398 27.92944336 C-13.11608009 24.88802307 -11.84120639 22.88732959 -10.5078125 20.17578125 C-9.96769531 19.06525391 -9.42757812 17.95472656 -8.87109375 16.81054688 C-8.29488281 15.65619141 -7.71867187 14.50183594 -7.125 13.3125 C-6.55652344 12.14654297 -5.98804688 10.98058594 -5.40234375 9.77929688 C-1.19046429 1.19046429 -1.19046429 1.19046429 0 0 Z " fill="#C4CBC7" transform="translate(66,249)"/>
<path d="M0 0 C0 24.75 0 49.5 0 75 C-3.64726105 71.87377624 -7.11729536 68.89586898 -10.5625 65.625 C-17.11555944 59.84440336 -25.21417661 55.862317 -33 52 C-33.24850467 47.28643987 -33.42920182 42.57673554 -33.54931641 37.8581543 C-33.59940142 36.25624158 -33.66749983 34.6547815 -33.75439453 33.05444336 C-34.45396638 19.83253534 -34.45396638 19.83253534 -31.04589844 15.53710938 C-28.44891307 13.69317938 -25.88693932 12.33816632 -23 11 C-21.44939808 10.06941656 -19.90712141 9.1247684 -18.375 8.1640625 C-16.91920903 7.31334273 -15.46089872 6.46691829 -14 5.625 C-13.25105469 5.18800781 -12.50210938 4.75101562 -11.73046875 4.30078125 C-4.34058146 0 -4.34058146 0 0 0 Z " fill="#B8A593" transform="translate(137,268)"/>
<path d="M0 0 C4.82080334 0.59562049 8.47218691 2.63619728 12.625 5 C13.33213135 5.40081787 14.0392627 5.80163574 14.76782227 6.21459961 C21.0606277 9.87367269 26.55934066 14.16675079 32 19 C33.16595703 19.96873047 33.16595703 19.96873047 34.35546875 20.95703125 C45.4473587 30.33072826 55.38638275 43.04833288 62 56 C62 56.66 62 57.32 62 58 C59.85264237 57.28992518 57.70672651 56.57593382 55.5625 55.85644531 C53.96115359 55.32123921 52.35733519 54.79330963 50.75 54.27636719 C34.23540719 48.82802608 24.55401732 38.70936269 13.375 25.82421875 C9.61961733 21.50945602 5.56891575 17.58536422 1.453125 13.61328125 C-0.82051386 11.19120419 -2.42646019 8.91104864 -4 6 C-2.68 4.02 -1.36 2.04 0 0 Z " fill="#C2C8C5" transform="translate(200,96)"/>
<path d="M0 0 C-1.18844326 3.38249236 -2.18912682 5.73295184 -5 8 C-7.02876282 8.47465515 -7.02876282 8.47465515 -9.3762207 8.6159668 C-10.69823235 8.70572029 -10.69823235 8.70572029 -12.04695129 8.79728699 C-12.99696518 8.84742447 -13.94697906 8.89756195 -14.92578125 8.94921875 C-15.90612839 9.01156204 -16.88647552 9.07390533 -17.89653015 9.13813782 C-21.03454396 9.33431339 -24.17333 9.51089916 -27.3125 9.6875 C-29.41609214 9.81712361 -31.51960939 9.9479687 -33.62304688 10.08007812 C-39.08090632 10.41557995 -44.5378875 10.74201246 -50 11 C-51.08780762 11.06405029 -52.17561523 11.12810059 -53.29638672 11.1940918 C-56.58787089 10.95779688 -58.67139911 9.9858629 -61.58203125 8.4453125 C-62.59587891 7.91292969 -63.60972656 7.38054687 -64.65429688 6.83203125 C-66.21760742 5.98705078 -66.21760742 5.98705078 -67.8125 5.125 C-68.87404297 4.56941406 -69.93558594 4.01382813 -71.02929688 3.44140625 C-78.85791186 -0.71582372 -78.85791186 -0.71582372 -80 -3 C-78.21092846 -3.48876697 -76.4185408 -3.96539669 -74.625 -4.4375 C-73.62726563 -4.70433594 -72.62953125 -4.97117187 -71.6015625 -5.24609375 C-47.97749931 -10.19126099 -22.64434114 -7.89756342 0 0 Z " fill="#221E1F" transform="translate(190,90)"/>
<path d="M0 0 C10.93621243 8.0927972 21.53751788 16.59918856 32.07226562 25.20410156 C38.2849756 30.26371796 44.61687478 35.15800604 51 40 C49.70795512 42.84303661 48.35098217 44.89759844 46.13671875 47.09375 C45.30043945 47.92712891 45.30043945 47.92712891 44.44726562 48.77734375 C43.57618164 49.63005859 43.57618164 49.63005859 42.6875 50.5 C42.11837891 51.06847656 41.54925781 51.63695312 40.96289062 52.22265625 C34.43717439 58.68094258 34.43717439 58.68094258 31 61 C29.515 60.505 29.515 60.505 28 60 C27.13678609 57.34325331 26.44782193 54.77458822 25.8125 52.0625 C21.4277913 35.06389665 13.72585761 18.08380653 2.19921875 4.671875 C0 2 0 2 0 0 Z " fill="#D15D2A" transform="translate(258,125)"/>
<path d="M0 0 C4.12595008 1.33015704 8.15564491 2.75388983 12.125 4.5 C13.13820313 4.9228125 14.15140625 5.345625 15.1953125 5.78125 C19.36805334 9.08224832 20.36271239 13.05182984 22 18 C22.32323242 18.90685547 22.64646484 19.81371094 22.97949219 20.74804688 C23.95330703 23.48951562 24.88723359 26.24180626 25.8125 29 C26.13669922 29.93972656 26.46089844 30.87945312 26.79492188 31.84765625 C27.09591797 32.74355469 27.39691406 33.63945312 27.70703125 34.5625 C27.9800708 35.36816406 28.25311035 36.17382812 28.53442383 37.00390625 C29 39 29 39 28 41 C17.3619828 31.45931408 2.61024232 14.49742696 0 0 Z " fill="#211D1E" transform="translate(24,271)"/>
<path d="M0 0 C0 6.93 0 13.86 0 21 C-5.61 20.34 -11.22 19.68 -17 19 C-14.89928378 14.79856756 -5.40077913 0 0 0 Z " fill="#75594E" transform="translate(93,296)"/>
<path d="M0 0 C0 0.33 0 0.66 0 1 C-0.68924561 1.12528076 -1.37849121 1.25056152 -2.08862305 1.37963867 C-19.31468927 4.398469 -19.31468927 4.398469 -35.7421875 10.1796875 C-38 11 -38 11 -41 10 C-39.68 9.67 -38.36 9.34 -37 9 C-37 8.34 -37 7.68 -37 7 C-24.99324194 2.09865332 -13.16215386 -2.58081448 0 0 Z " fill="#C15526" transform="translate(337,39)"/>
<path d="M0 0 C-0.33 2.64 -0.66 5.28 -1 8 C-4.63 7.34 -8.26 6.68 -12 6 C-12 5.34 -12 4.68 -12 4 C-10.3767313 3.3291288 -8.75132422 2.66342971 -7.125 2 C-6.22007812 1.62875 -5.31515625 1.2575 -4.3828125 0.875 C-2 0 -2 0 0 0 Z " fill="#B4BAB7" transform="translate(276,236)"/>
</svg>
