<?xml version="1.0" encoding="UTF-8"?>
<svg version="1.1" xmlns="http://www.w3.org/2000/svg" width="512" height="512">
<path d="M0 0 C0.6581369 0.00021149 1.3162738 0.00042297 1.99435425 0.00064087 C26.07598914 0.0776653 52.43213479 7.46640831 70.4375 24.375 C71.58023574 26.66047148 71.66877257 28.14379905 71.75 30.6875 C71.80607422 31.82638672 71.80607422 31.82638672 71.86328125 32.98828125 C71.25427691 36.4020579 69.89494832 37.95810364 67.4375 40.375 C64.51953125 41.52734375 64.51953125 41.52734375 61.25 42.3125 C53.05166823 44.6312201 46.81683355 47.42325531 42.4375 55 C38.85031794 62.09963115 38.21159676 69.67772719 40.2265625 77.3984375 C41.82785434 81.95784099 43.53180312 85.52016431 46.4375 89.375 C46.4375 90.035 46.4375 90.695 46.4375 91.375 C50.6781475 90.87686092 52.63452943 88.50841139 55.53515625 85.53515625 C56.01069443 85.05300156 56.4862326 84.57084686 56.97618103 84.07408142 C58.49140046 82.53550379 59.99608716 80.98712448 61.5 79.4375 C63.00916212 77.89321312 64.52046244 76.35110734 66.03453064 74.81163025 C67.40761142 73.41387017 68.77440212 72.00993936 70.14086914 70.60571289 C73.33375606 67.50446831 75.58711571 66.00624766 80 65.6875 C84.52157806 65.87793593 86.54872323 66.85495238 89.8203125 69.94921875 C90.68567627 70.76543701 91.55104004 71.58165527 92.44262695 72.42260742 C99.33199807 79.16571607 106.07417106 86.06334005 112.79223633 92.9765625 C114.76521976 95.00388306 116.75056 97.01839166 118.73828125 99.03125 C119.33731766 99.6540686 119.93635406 100.27688721 120.55354309 100.9185791 C121.40549507 101.77582581 121.40549507 101.77582581 122.2746582 102.65039062 C123.01218071 103.40576111 123.01218071 103.40576111 123.76460266 104.1763916 C125.7919861 105.80269678 125.7919861 105.80269678 130.4375 106.375 C130.4375 91.195 130.4375 76.015 130.4375 60.375 C125.4875 60.375 120.5375 60.375 115.4375 60.375 C109.67940801 54.61690801 109.67940801 54.61690801 109.5625 50.6875 C109.93089566 46.32717234 110.94801379 44.27356531 113.9375 41.10546875 C114.75234863 40.23946045 115.56719727 39.37345215 116.40673828 38.48120117 C117.41465031 37.44352094 118.4251404 36.40834165 119.4375 35.375 C120.03769958 34.76089264 120.63789917 34.14678528 121.25628662 33.5140686 C125.49371494 29.1922443 129.76489732 24.90507703 134.05078125 20.63134766 C136.33190801 18.35563808 138.60756798 16.07455779 140.8828125 13.79296875 C142.33561649 12.34082461 143.78873014 10.88899018 145.2421875 9.4375 C145.92030487 8.7573584 146.59842224 8.0772168 147.29708862 7.37646484 C147.92849762 6.74820801 148.55990662 6.11995117 149.21044922 5.47265625 C150.03909988 4.64519897 150.03909988 4.64519897 150.88449097 3.80102539 C153.83629171 1.09058217 156.06425572 -0.0282167 160 -0.3125 C164.46867918 -0.11554959 166.48424155 0.79872608 169.71484375 3.86328125 C170.57972412 4.67982178 171.44460449 5.4963623 172.33569336 6.33764648 C173.37165412 7.34802532 174.40539295 8.3606849 175.4375 9.375 C176.05142609 9.9754715 176.66535217 10.57594299 177.29788208 11.1946106 C181.6198346 15.4318383 185.90745666 19.7024311 190.18115234 23.98828125 C192.45686192 26.26940801 194.73794221 28.54506798 197.01953125 30.8203125 C198.47167539 32.27311649 199.92350982 33.72623014 201.375 35.1796875 C202.0551416 35.85780487 202.7352832 36.53592224 203.43603516 37.23458862 C204.06429199 37.86599762 204.69254883 38.49740662 205.33984375 39.14794922 C205.89148193 39.700383 206.44312012 40.25281677 207.01147461 40.82199097 C209.88952718 43.95632621 210.76738077 46.08450275 210.875 50.25 C210.91496094 51.09304687 210.95492188 51.93609375 210.99609375 52.8046875 C210.4375 55.375 210.4375 55.375 205.4375 60.375 C200.4875 60.375 195.5375 60.375 190.4375 60.375 C190.4375 75.555 190.4375 90.735 190.4375 106.375 C195.18125 106.2925 199.925 106.21 204.8125 106.125 C216.82868198 106.06186879 227.98928123 106.47737914 239.4375 110.375 C240.1500293 110.61637695 240.86255859 110.85775391 241.59667969 111.10644531 C268.80428495 120.67302921 290.19313121 139.97251437 302.75 165.875 C313.25725466 189.69144389 314.13350617 218.26875806 304.859375 242.6328125 C294.33849053 268.71615304 274.49759555 289.04142985 248.66333008 300.05004883 C234.68208437 305.63889101 220.9594544 306.74121901 206.0234375 307.1875 C189.87093306 307.68466641 176.57455746 311.30289509 164.625 322.859375 C155.8086998 332.99812023 152.69771016 343.73344802 151.5 356.75 C150.13595896 371.36168704 145.52028021 384.47828124 134.5078125 394.75 C123.36042131 403.49965045 112.74997069 406.62318726 98.85546875 406.96875 C95.4375 406.375 95.4375 406.375 92.5859375 404.48046875 C89.60356542 400.16958548 89.35474205 396.32168416 88.875 391.1875 C87.46120555 379.31466703 85.03083782 368.67120334 75.40234375 360.6875 C64.80877327 353.21408167 53.37765826 350.03895722 40.53125 351.765625 C33.92789551 353.04053007 28.35286932 355.22732589 22.4375 358.3125 C6.67735323 366.46115944 -10.3684051 369.75124793 -27.8125 364.6875 C-29.74610657 363.96020311 -31.66521446 363.19237551 -33.5625 362.375 C-34.41457031 362.04757812 -35.26664062 361.72015625 -36.14453125 361.3828125 C-49.8390018 355.47370237 -61.12179201 342.06533964 -66.5625 328.375 C-68.59612869 322.4929798 -69.60956874 317.28901217 -69.625 311.0625 C-69.69264429 308.05564833 -69.69264429 308.05564833 -70.5625 305.375 C-72.89169389 303.34025138 -75.20890034 302.14502141 -77.984375 300.79296875 C-84.21337188 297.36702046 -87.18506277 290.81839521 -89.5625 284.375 C-90.97643332 273.81982338 -89.82950277 265.22090214 -83.5625 256.375 C-81.449422 253.88961778 -79.32197444 252.10396531 -76.5625 250.375 C-75.94117188 249.96507812 -75.31984375 249.55515625 -74.6796875 249.1328125 C-67.7829603 245.33043439 -59.22521594 245.00299811 -51.5625 246.375 C-48.16415459 247.71248628 -45.20812786 249.22970737 -42.11328125 251.16015625 C-38.92440127 252.67890307 -37.93613776 252.27308523 -34.5625 251.375 C-33.54220703 250.98546143 -32.52191406 250.59592285 -31.47070312 250.19458008 C-18.7626484 245.4205054 -6.48812069 245.80382692 6.9375 246.0625 C9.22523578 246.08763817 11.51299847 246.11044149 13.80078125 246.13085938 C19.3469516 246.18535982 24.8920961 246.2685396 30.4375 246.375 C30.53130028 242.97709603 30.52461384 239.58644704 30.5 236.1875 C30.54157227 234.74793945 30.54157227 234.74793945 30.58398438 233.27929688 C30.53618827 227.89580312 30.53618827 227.89580312 27.63937378 223.59571838 C22.69313002 220.60880352 18.36520986 219.7968281 12.5703125 220.02734375 C11.10221555 220.06518216 9.63411651 220.10293966 8.16601562 220.140625 C7.41360596 220.16962891 6.66119629 220.19863281 5.88598633 220.22851562 C-24.48122008 221.32616394 -51.08019852 213.6782875 -73.9375 192.875 C-75.84354936 191.06966411 -77.70282876 189.22928869 -79.5625 187.375 C-80.33980469 186.62089844 -81.11710937 185.86679688 -81.91796875 185.08984375 C-92.72423243 173.93930972 -101.00121233 159.17417379 -105.5625 144.375 C-105.87356689 143.37871582 -105.87356689 143.37871582 -106.19091797 142.36230469 C-112.21890088 121.97676249 -112.26054108 97.59230561 -105.5625 77.375 C-105.35351074 76.73643066 -105.14452148 76.09786133 -104.92919922 75.43994141 C-99.50208097 59.45128516 -90.95520157 45.73169939 -79.5625 33.375 C-78.99273437 32.72402344 -78.42296875 32.07304688 -77.8359375 31.40234375 C-58.09111754 9.98680825 -28.45413564 -0.03797501 0 0 Z M146.75390625 208.6171875 C145.07333887 211.473761 145.07333887 211.473761 143.80859375 214.53515625 C141.59081547 219.12867423 137.76208203 220.96966077 133.4375 223.375 C132.4475 224.035 131.4575 224.695 130.4375 225.375 C130.02179992 227.59998915 130.02179992 227.59998915 130.14453125 230.1640625 C130.15419922 231.10507813 130.16386719 232.04609375 130.17382812 233.015625 C130.19896484 234.00046875 130.22410156 234.9853125 130.25 236 C130.26353516 236.99257812 130.27707031 237.98515625 130.29101562 239.0078125 C130.32644257 241.46408072 130.37583804 243.91927285 130.4375 246.375 C135.98761716 246.42469113 141.53760282 246.46085685 147.08789062 246.48486328 C148.97333026 246.49487847 150.85875453 246.50849452 152.74414062 246.52587891 C155.46488249 246.55032532 158.18541777 246.56152816 160.90625 246.5703125 C162.15674133 246.58579636 162.15674133 246.58579636 163.43249512 246.60159302 C171.25944213 246.60307054 178.25770033 245.5934975 184.4375 240.375 C188.35654423 236.09403876 189.79909929 232.16981555 190.0625 226.375 C189.78536557 220.59164194 188.47858918 216.57151569 184.4375 212.375 C175.2673251 204.97969766 163.15286043 204.92035508 151.80810547 205.86425781 C149.17789473 206.23861326 149.17789473 206.23861326 146.75390625 208.6171875 Z " fill="#010000" transform="translate(155.5625,-0.375)"/>
<path d="M0 0 C1.04414063 0.350625 2.08828125 0.70125 3.1640625 1.0625 C12.13063628 4.39889954 21.47759238 9.91337027 28 17 C31.62737384 15.3964092 34.46292125 13.14322485 37.5625 10.6875 C56.50200937 -3.81080148 81.86736566 -6.74559855 105.02429199 -3.73699951 C114.01797572 -2.31920979 122.87657118 -0.10393881 131.72900391 1.99902344 C163.43128686 9.48880915 195.29600057 14.12141764 227.89453125 14.82421875 C239.01685173 15.16945687 239.01685173 15.16945687 242.43164062 18.05419922 C245.4101729 21.47045116 247.2510334 24.86791751 249.20703125 28.92578125 C249.57728928 29.67337204 249.9475473 30.42096283 250.32902527 31.19120789 C251.49972682 33.56041145 252.65626456 35.93620857 253.8125 38.3125 C254.60779541 39.92819177 255.4040102 41.54343133 256.20117188 43.15820312 C258.14478911 47.10031724 260.07574119 51.04840275 262 55 C263.24136719 55.01417969 264.48273438 55.02835937 265.76171875 55.04296875 C267.40368243 55.089882 269.04560837 55.13812932 270.6875 55.1875 C271.50412109 55.19330078 272.32074219 55.19910156 273.16210938 55.20507812 C277.56631835 55.36555537 279.47295849 55.58493471 283.04052734 58.39453125 C285.17148553 61.22802063 285.67967493 62.50080451 285.625 66 C285.63789062 66.825 285.65078125 67.65 285.6640625 68.5 C284.68109276 72.20059196 282.97707482 73.62395494 280 76 C277.02881667 76.45794752 274.65149582 76.60982376 271.69256592 76.52484131 C270.85907663 76.52120237 270.02558733 76.51756342 269.16684079 76.51381421 C266.37447152 76.4959568 263.58390088 76.44253765 260.79199219 76.38964844 C258.78932832 76.37026769 256.78663948 76.35333529 254.78393555 76.33866882 C250.46924116 76.3033948 246.1550245 76.25384975 241.84059906 76.19423676 C235.00539707 76.10302078 228.17048998 76.06272633 221.33477783 76.03302002 C201.89587848 75.94269954 182.45802015 75.81949677 163.02050781 75.56494141 C152.28584242 75.42477924 141.55253711 75.3460094 130.8169415 75.33481431 C125.14119923 75.32622995 119.46958741 75.28638395 113.79494476 75.17021942 C87.74905318 73.281863 87.74905318 73.281863 64.91902542 83.10341263 C62.33103333 85.97832041 60.10197547 88.89142855 58.16246414 92.23942947 C57 94 57 94 54 96 C51.80833435 96.30107117 51.80833435 96.30107117 49.22827148 96.36987305 C48.2597374 96.39877121 47.29120331 96.42766937 46.2933197 96.45744324 C45.24648514 96.47535416 44.19965057 96.49326508 43.12109375 96.51171875 C42.03925308 96.53023392 40.95741241 96.54874908 39.8427887 96.56782532 C37.5488358 96.59989089 35.25478546 96.62552713 32.96069336 96.64526367 C30.62410823 96.67327484 28.28767074 96.72092293 25.9519043 96.78881836 C4.04942162 97.42347053 4.04942162 97.42347053 -1.96484375 92.08203125 C-4.07910156 89.640625 -4.07910156 89.640625 -6 87 C-10.887036 80.27788705 -10.887036 80.27788705 -18.02398682 76.48919678 C-23.77015025 75.74043106 -29.53650949 75.97739488 -35.3125 76.1875 C-37.90473186 76.2543014 -40.4951819 76.3062307 -43.08818054 76.329422 C-44.69141615 76.34637931 -46.29465631 76.38939673 -47.89631653 76.46244812 C-51.87795949 76.53153342 -53.77595135 76.16349789 -57.02807617 73.7902832 C-59 71 -59 71 -59 66 C-67.25 66 -75.5 66 -84 66 C-84 67.65 -84 69.3 -84 71 C-86.07700457 74.11550686 -87.64967889 75.72329486 -91.3828125 76.48828125 C-95.95351093 76.72704908 -98.30997774 76.48301558 -102.125 73.8125 C-104 71 -104 71 -104 66 C-112.25 66 -120.5 66 -129 66 C-129 67.65 -129 69.3 -129 71 C-130.96459961 73.77206421 -130.96459961 73.77206421 -134 76 C-137.04413961 76.49451343 -139.52690318 76.68556989 -142.56640625 76.64697266 C-143.41741913 76.65573425 -144.26843201 76.66449585 -145.14523315 76.67352295 C-147.95151113 76.69548625 -150.75620669 76.68097551 -153.5625 76.6640625 C-155.51636049 76.66743153 -157.47021894 76.67228487 -159.42407227 76.67855835 C-163.51631653 76.68592551 -167.60801461 76.67522913 -171.70019531 76.65185547 C-176.94293186 76.62336786 -182.18438864 76.63977266 -187.42707825 76.66971779 C-191.46091333 76.68779494 -195.49444553 76.6820308 -199.52828979 76.66907883 C-201.46117301 76.66574597 -203.39408383 76.66982766 -205.32693481 76.68147659 C-208.02989417 76.69419223 -210.73078807 76.67479937 -213.43359375 76.64697266 C-214.62914383 76.66215439 -214.62914383 76.66215439 -215.84884644 76.67764282 C-219.91084737 76.60025979 -221.77585775 76.17849541 -224.99389648 73.61581421 C-227.17357912 70.77366535 -227.68017373 69.53111891 -227.625 66 C-227.63789063 65.175 -227.65078125 64.35 -227.6640625 63.5 C-226.6721752 59.76583606 -225.02756622 58.38432387 -222 56 C-218.89637769 55.26522032 -215.86757463 55.21008932 -212.6875 55.1875 C-211.85154297 55.16236328 -211.01558594 55.13722656 -210.15429688 55.11132812 C-208.10336591 55.0527301 -206.05163407 55.02343507 -204 55 C-203.51120361 53.99622314 -203.02240723 52.99244629 -202.51879883 51.95825195 C-200.69334713 48.21648282 -198.85442578 44.48146791 -197.01147461 40.74829102 C-196.21744906 39.13517905 -195.42703124 37.52028582 -194.64038086 35.90356445 C-193.505503 33.5727938 -192.35757421 31.24885128 -191.20703125 28.92578125 C-190.86098343 28.20787918 -190.51493561 27.48997711 -190.15840149 26.75032043 C-187.9986002 22.42831868 -185.75269488 19.17019826 -182 16 C-177.08694684 14.74862009 -172.02397557 14.8702906 -166.97192383 14.76098633 C-130.93626243 13.92281817 -96.00161168 7.37757273 -60.97143555 -0.7277832 C-59.75238525 -1.00968506 -58.53333496 -1.29158691 -57.27734375 -1.58203125 C-56.20734131 -1.83186768 -55.13733887 -2.0817041 -54.03491211 -2.33911133 C-36.75648149 -6.10169774 -16.72957123 -6.04013023 0 0 Z " fill="#000101" transform="translate(227,416)"/>
<path d="M0 0 C9.05938122 -0.11698458 18.11849381 -0.20525813 27.17847157 -0.25906086 C31.38756721 -0.28491222 35.59613797 -0.31984831 39.80493164 -0.37719727 C75.72759037 -0.85348102 75.72759037 -0.85348102 91 5 C91.94222412 5.34071533 92.88444824 5.68143066 93.85522461 6.0324707 C95.99118423 6.86663375 98.01652088 7.78035978 100.0625 8.8125 C100.75746582 9.1530542 101.45243164 9.4936084 102.16845703 9.84448242 C108.09806474 12.85216424 113.14025464 16.45010418 118 21 C119.36898437 22.23363281 119.36898437 22.23363281 120.765625 23.4921875 C127.60447563 29.93864506 132.55068939 36.73989033 137 45 C137.74056641 46.37478516 137.74056641 46.37478516 138.49609375 47.77734375 C147.89941638 66.77931026 146.84280651 88.27389154 140.35058594 107.97021484 C137.25710524 116.66303068 132.78343304 123.86444803 127 131 C126.45730469 131.70640625 125.91460937 132.4128125 125.35546875 133.140625 C113.58058467 147.69449632 94.42844743 157.28889496 76 160 C70.04749295 160.46188564 64.09087022 160.57599468 58.12353516 160.7043457 C39.02842152 161.13436901 22.41322612 165.96516973 8 179 C7.08541016 179.79470703 7.08541016 179.79470703 6.15234375 180.60546875 C-6.95707416 192.7352818 -13.57642514 210.61647794 -14.4375 228.125 C-15.0007081 237.68891119 -17.43587326 245.33015113 -24.12890625 252.33984375 C-27.68223661 255.49258989 -31.1024604 258 -36 258 C-36.20753906 256.99582031 -36.41507813 255.99164063 -36.62890625 254.95703125 C-40.19540866 238.72315852 -47.11865905 224.68409862 -61.3125 215.1875 C-77.21491218 205.73080608 -95.15960818 201.76871869 -113.46484375 205.83984375 C-122.12515529 208.21145954 -130.24001314 212.25752769 -138.2578125 216.23046875 C-147.27321072 220.58605714 -156.56609217 221.74111559 -166.36328125 219.08984375 C-177.82771117 214.55942735 -186.97531051 207.27963845 -192.1875 195.96484375 C-194.43041886 190.54086209 -196.94823234 183.82328788 -195 178 C-192.67354825 176.13165265 -190.26399768 174.88035029 -187.61328125 173.515625 C-181.4521177 169.94233433 -178.52877397 163.91787279 -176.4921875 157.3046875 C-175.97692033 154.89192851 -175.88515366 152.64965173 -175.8125 150.1875 C-175.5790525 147.50752266 -175.47706425 146.42432348 -173.4453125 144.6171875 C-166.43074087 140.93249034 -158.79019357 139.6964552 -150.95027161 139.7484436 C-150.18081717 139.74547346 -149.41136273 139.74250333 -148.61859149 139.73944318 C-146.06181211 139.73185583 -143.50526606 139.73827549 -140.94848633 139.74462891 C-139.10635219 139.74187647 -137.26421923 139.73819503 -135.42208862 139.73365784 C-131.4645356 139.72556524 -127.50703901 139.72337253 -123.54947853 139.72560501 C-117.28209985 139.72844675 -111.01483312 139.71405319 -104.7474823 139.69662476 C-86.92859579 139.6496825 -69.10971711 139.62566673 -51.29077148 139.61914062 C-41.44212594 139.61538143 -31.5936074 139.59728331 -21.74501628 139.56404626 C-15.52486093 139.5439095 -9.30503489 139.54142414 -3.08486044 139.55232644 C0.79886382 139.55494741 4.68239933 139.54086209 8.56607437 139.52224541 C10.35538988 139.51695665 12.14474088 139.51836284 13.93404198 139.52728081 C28.93888294 139.595983 42.06537379 137.84340869 53.70703125 127.48046875 C60.9471511 119.94707822 64.38209813 108.8898076 64.2109375 98.5859375 C63.3161165 87.61609485 59.34720681 77.87794483 51.375 70.1875 C43.58029496 63.83459011 33.94249918 61.03896151 24.04296875 60.68359375 C22.37524414 60.62075195 22.37524414 60.62075195 20.67382812 60.55664062 C18.9480957 60.49766602 18.9480957 60.49766602 17.1875 60.4375 C16.01767578 60.39431641 14.84785156 60.35113281 13.64257812 60.30664062 C10.76184907 60.20081792 7.88093951 60.09992927 5 60 C5 53.4 5 46.8 5 40 C7.96223958 39.8046875 10.92447917 39.609375 13.88671875 39.4140625 C16.94234107 39.00766856 19.253087 38.3832669 22 37 C24.12750152 33.35285453 24.35599648 30.16201765 24 26 C22.59341887 23.64572618 22.59341887 23.64572618 20.4375 21.5625 C19.2309375 20.29792969 19.2309375 20.29792969 18 19.0078125 C17.00251416 18.00270698 16.00222367 17.00038134 15 16 C14.37351562 15.3719043 13.74703125 14.74380859 13.1015625 14.09667969 C10.36918024 11.36037159 7.63679665 8.62468977 4.87866211 5.91430664 C3.93132202 4.98026001 3.93132202 4.98026001 2.96484375 4.02734375 C2.10814087 3.18804321 2.10814087 3.18804321 1.23413086 2.33178711 C0 1 0 1 0 0 Z " fill="#FEED7F" transform="translate(301,126)"/>
<path d="M0 0 C-0.70125 0.680625 -1.4025 1.36125 -2.125 2.0625 C-3.08567659 3.03936777 -4.04385652 4.01869485 -5 5 C-5.46921875 5.46148437 -5.9384375 5.92296875 -6.421875 6.3984375 C-16.93457054 17.53285159 -19.56564845 30.52010205 -19.3359375 45.25390625 C-18.83587382 57.83608704 -13.87329748 67.33652671 -6 77 C-5.01 78.485 -5.01 78.485 -4 80 C-4.76381485 80.76048393 -4.76381485 80.76048393 -5.5430603 81.53633118 C-10.34240594 86.31563632 -15.13934162 91.09734828 -19.93358421 95.88177204 C-22.39840872 98.3413789 -24.86415443 100.80004722 -27.33203125 103.2565918 C-30.16943855 106.08105142 -33.00278808 108.90955062 -35.8359375 111.73828125 C-36.72243988 112.61962234 -37.60894226 113.50096344 -38.52230835 114.40901184 C-39.34300812 115.22963608 -40.16370789 116.05026031 -41.00927734 116.89575195 C-41.73319672 117.61745071 -42.45711609 118.33914948 -43.20297241 119.0827179 C-46.03042137 122.09937569 -46.96578596 123.69696138 -47.4375 127.875 C-47.3070617 130.95447801 -46.92621204 132.13338593 -45.375 134.9375 C-40.66148066 138.17284917 -40.66148066 138.17284917 -28 138 C-28 149.22 -28 160.44 -28 172 C-56.3270306 172.55543197 -79.86587915 166.89483984 -100.87255859 147.15527344 C-111.09054888 137.2102697 -118.4966008 125.84130602 -123.3125 112.4375 C-123.55500488 111.76581787 -123.79750977 111.09413574 -124.04736328 110.40209961 C-131.73547203 87.80231987 -129.41670437 63.26864709 -119 42 C-107.13046185 19.0046291 -87.69162626 2.67237682 -63.10546875 -5.328125 C-42.05847245 -11.4521502 -19.78773814 -8.94253551 0 0 Z " fill="#FDEC7F" transform="translate(194,28)"/>
<path d="M0 0 C0.69577148 0.07009277 1.39154297 0.14018555 2.10839844 0.21240234 C14.92821258 1.65634332 26.42550669 6.23893857 36 15 C40.39000952 20.58131552 42.3894714 25.92680322 43.53515625 32.85546875 C43.92593787 35.19018976 43.92593787 35.19018976 45.5625 37.6875 C48.85746261 39.46171064 51.23365344 39.10108482 54.87890625 38.65234375 C57.44968482 37.86169914 58.41736759 37.17493496 60 35 C60.79421098 32.34780753 60.79421098 32.34780753 61.3125 29.375 C63.56757022 19.83697343 67.93810379 13.90077525 76.15625 8.56640625 C102.57043019 -5.98316278 129.44021401 0.97452235 157.04278564 7.48156738 C172.84083835 11.20560368 188.48329469 14.47132183 204.625 16.3125 C205.35175934 16.39816223 206.07851868 16.48382446 206.82730103 16.57208252 C214.75237399 17.49270692 222.54621461 18.09006653 230.52734375 18.015625 C249.63489466 17.97438101 249.63489466 17.97438101 254.24853516 21.92578125 C257.89120714 26.66756039 262 33.79026999 262 40 C261.11246851 39.9968576 260.22493702 39.99371519 259.31051064 39.99047756 C237.69282118 39.91703662 216.07557415 39.89339093 194.45777321 39.92484188 C184.00339644 39.93885676 173.54952775 39.93615536 163.09521484 39.89379883 C153.98081854 39.85691382 144.86704188 39.85170154 135.75261915 39.88417059 C130.9284578 39.90025931 126.10545834 39.9007265 121.28139114 39.86323357 C116.7352161 39.82840164 112.19104561 39.8361045 107.64492798 39.87562943 C105.981737 39.88273919 104.31839643 39.87466046 102.65537643 39.84977531 C94.60850891 39.73761715 88.44969977 39.75335531 82.09431458 45.38165283 C80.68480579 46.88024874 79.31237727 48.4156482 78 50 C77.13640869 50.99233643 76.27281738 51.98467285 75.38305664 53.00708008 C74.71137451 53.81556396 74.03969238 54.62404785 73.34765625 55.45703125 C68.32374227 60.50250289 63.56553301 61.57480904 56.6027832 61.74267578 C55.21427819 61.73155543 53.82581461 61.71304178 52.4375 61.6875 C51.73056 61.68925232 51.02362 61.69100464 50.29525757 61.69281006 C41.33243529 61.63617255 34.67894816 60.40215982 27.93579102 53.99536133 C25.30204656 51.0551492 22.85681726 48.04123573 20.62036133 44.78759766 C18.07122417 41.97536588 15.65687101 41.15543919 11.89143372 40.80218506 C9.27974104 40.68494334 6.67678438 40.64412918 4.0625 40.62890625 C2.62596069 40.61536354 2.62596069 40.61536354 1.16040039 40.60154724 C-0.86015711 40.58706971 -2.88076122 40.57816422 -4.90136719 40.57446289 C-7.9897327 40.56253964 -11.07611669 40.51330707 -14.1640625 40.46289062 C-16.13019861 40.45342881 -18.09634695 40.44619262 -20.0625 40.44140625 C-20.98345459 40.42187393 -21.90440918 40.40234161 -22.85327148 40.38221741 C-27.34087924 40.41377057 -29.36940982 40.52891974 -33.05859375 43.28491211 C-35.26477655 46.01929772 -35.26477655 46.01929772 -36 50 C-44.25 50 -52.5 50 -61 50 C-61 51.65 -61 53.3 -61 55 C-63.07700457 58.11550686 -64.64967889 59.72329486 -68.3828125 60.48828125 C-72.95351093 60.72704908 -75.30997774 60.48301558 -79.125 57.8125 C-81 55 -81 55 -81 50 C-89.25 50 -97.5 50 -106 50 C-106.99 47.69 -107.98 45.38 -109 43 C-113.31250517 40.03825812 -119.05150232 40.64836242 -124.11328125 40.5859375 C-125.56760811 40.55688828 -125.56760811 40.55688828 -127.05131531 40.5272522 C-130.13828828 40.46762564 -133.22529888 40.4211386 -136.3125 40.375 C-138.40952118 40.33680466 -140.50652694 40.29775202 -142.60351562 40.2578125 C-147.73555131 40.16193791 -152.86766043 40.07784423 -158 40 C-156.52430274 36.8525276 -155.04386446 33.70730861 -153.5625 30.5625 C-153.14162109 29.66466797 -152.72074219 28.76683594 -152.28710938 27.84179688 C-151.88427734 26.98779297 -151.48144531 26.13378906 -151.06640625 25.25390625 C-150.5086853 24.06776733 -150.5086853 24.06776733 -149.93969727 22.85766602 C-149 21 -149 21 -148 20 C-146.18866076 19.79411003 -144.37005731 19.65166864 -142.55078125 19.53515625 C-141.40375732 19.45861816 -140.2567334 19.38208008 -139.07495117 19.30322266 C-137.83334229 19.22378418 -136.5917334 19.1443457 -135.3125 19.0625 C-132.73167971 18.88543783 -130.15095085 18.70703816 -127.5703125 18.52734375 C-125.64106934 18.39368408 -125.64106934 18.39368408 -123.67285156 18.25732422 C-107.22114793 17.10469888 -91.20116462 15.10993728 -75 12 C-74.02756348 11.81566406 -73.05512695 11.63132812 -72.05322266 11.44140625 C-62.05223369 9.53489069 -52.08854089 7.53495555 -42.1953125 5.125 C-14.52562185 -1.57917111 -14.52562185 -1.57917111 0 0 Z " fill="#ECF8FD" transform="translate(204,432)"/>
<path d="M0 0 C33 0 66 0 100 0 C100 32 100 32 97 38 C93.28902924 40.21267422 89.94163795 40.21849754 85.6875 40.125 C84.61886719 40.10695312 83.55023438 40.08890625 82.44921875 40.0703125 C81.23685547 40.03550781 81.23685547 40.03550781 80 40 C79.97421875 39.03578125 79.9484375 38.0715625 79.921875 37.078125 C79.86515625 35.81484375 79.8084375 34.5515625 79.75 33.25 C79.70359375 31.99703125 79.6571875 30.7440625 79.609375 29.453125 C78.91604042 25.52422906 78.19710687 24.31244332 75 22 C71.97499673 20.91229757 69.19600097 20.71515143 66 21 C62.69563356 22.38140584 62.69563356 22.38140584 61 26 C60.29106548 30.71201592 60.13411234 35.21665998 60 40 C53.4 40 46.8 40 40 40 C39.86979167 36.484375 39.73958333 32.96875 39.609375 29.453125 C38.91604042 25.52422906 38.19710687 24.31244332 35 22 C31.97499673 20.91229757 29.19600097 20.71515143 26 21 C22.69563356 22.38140584 22.69563356 22.38140584 21 26 C20.29786736 30.6668064 20.07018842 35.28461466 20 40 C7.51464975 40.76027167 7.51464975 40.76027167 3.9921875 38.9921875 C1.86828044 36.86828044 0.94470973 34.83412918 0 32 C0 21.44 0 10.88 0 0 Z " fill="#EDF9FE" transform="translate(186,166)"/>
<path d="M0 0 C3.8584874 1.58755328 6.29948465 4.05200404 9.22753906 6.98461914 C9.73530884 7.49049057 10.24307861 7.996362 10.76623535 8.51756287 C12.43761968 10.18525238 14.10171212 11.86001474 15.765625 13.53515625 C16.92539607 14.69611958 18.08553721 15.85671333 19.24603271 17.01695251 C21.67331919 19.44580143 24.09721292 21.87796911 26.51855469 24.31274414 C29.62966205 27.44088833 32.74735935 30.56236167 35.86737442 33.68161869 C38.26104814 36.07556358 40.65211254 38.47209995 43.04228973 40.86953545 C44.19160334 42.02204059 45.34153189 43.17393281 46.49207306 44.32521248 C48.09393442 45.9292296 49.69246665 47.53648803 51.29003906 49.14477539 C52.65760345 50.51805748 52.65760345 50.51805748 54.05279541 51.91908264 C56 54 56 54 56 55 C19.7 55 -16.6 55 -54 55 C-50.34232756 50.73271548 -46.85869594 46.73473114 -42.91259766 42.79907227 C-42.44355011 42.32987869 -41.97450256 41.86068512 -41.49124146 41.37727356 C-39.96787788 39.85459669 -38.44102322 38.33547505 -36.9140625 36.81640625 C-35.84624655 35.75045891 -34.77865378 34.68428795 -33.71127319 33.61790466 C-30.92207682 30.83249861 -28.129889 28.05011071 -25.33703613 25.26837158 C-22.47936425 22.42098936 -19.62457498 19.57072014 -16.76953125 16.72070312 C-11.18248158 11.14432919 -5.59226366 5.57114506 0 0 Z " fill="#FE9155" transform="translate(235,91)"/>
<path d="M0 0 C3.58598889 2.54054385 6.15992797 5.04327701 8.4921875 8.765625 C8.90210938 9.38695312 9.31203125 10.00828125 9.734375 10.6484375 C13.58244889 17.62804738 13.74273274 26.02607545 12.4921875 33.765625 C10.09120579 41.34186763 6.27912589 47.51322792 -0.5078125 51.765625 C-1.12914062 52.17554688 -1.75046875 52.58546875 -2.390625 53.0078125 C-9.37023488 56.85588639 -17.76826295 57.01617024 -25.5078125 55.765625 C-33.08405513 53.36464329 -39.25541542 49.55256339 -43.5078125 42.765625 C-43.91773438 42.14429688 -44.32765625 41.52296875 -44.75 40.8828125 C-48.59807389 33.90320262 -48.75835774 25.50517455 -47.5078125 17.765625 C-45.10683079 10.18938237 -41.29475089 4.01802208 -34.5078125 -0.234375 C-33.88648438 -0.64429688 -33.26515625 -1.05421875 -32.625 -1.4765625 C-22.455808 -7.08315125 -9.72162164 -5.63801363 0 0 Z " fill="#000000" transform="translate(433.5078125,4.234375)"/>
<path d="M0 0 C0.825 -0.01289063 1.65 -0.02578125 2.5 -0.0390625 C6.22718733 0.95097163 7.70513824 2.55841482 10 5.625 C10.36771245 8.4637401 10.48630804 10.64320151 10.3125 13.4375 C10.28994141 14.13037109 10.26738281 14.82324219 10.24414062 15.53710938 C10.18562661 17.23401573 10.0959548 18.92979861 10 20.625 C11.02480469 20.56699219 12.04960937 20.50898438 13.10546875 20.44921875 C14.46610011 20.40230043 15.82678096 20.35680248 17.1875 20.3125 C17.86103516 20.27060547 18.53457031 20.22871094 19.22851562 20.18554688 C23.09109648 20.09133759 24.82831332 20.49651924 27.94921875 22.83203125 C30.11279978 25.77862256 30.68115816 27.03087758 30.625 30.625 C30.63789063 31.45 30.65078125 32.275 30.6640625 33.125 C29.67402837 36.85218733 28.06658518 38.33013824 25 40.625 C22.1612599 40.99271245 19.98179849 41.11130804 17.1875 40.9375 C16.49462891 40.91494141 15.80175781 40.89238281 15.08789062 40.86914062 C13.39098427 40.81062661 11.69520139 40.7209548 10 40.625 C10.05800781 41.64980469 10.11601562 42.67460937 10.17578125 43.73046875 C10.22269957 45.09110011 10.26819752 46.45178096 10.3125 47.8125 C10.35439453 48.48603516 10.39628906 49.15957031 10.43945312 49.85351562 C10.53366241 53.71609648 10.12848076 55.45331332 7.79296875 58.57421875 C4.84637744 60.73779978 3.59412242 61.30615816 0 61.25 C-0.825 61.26289063 -1.65 61.27578125 -2.5 61.2890625 C-6.22718733 60.29902837 -7.70513824 58.69158518 -10 55.625 C-10.36771245 52.7862599 -10.48630804 50.60679849 -10.3125 47.8125 C-10.28994141 47.11962891 -10.26738281 46.42675781 -10.24414062 45.71289062 C-10.18562661 44.01598427 -10.0959548 42.32020139 -10 40.625 C-11.02480469 40.68300781 -12.04960937 40.74101562 -13.10546875 40.80078125 C-14.46610011 40.84769957 -15.82678096 40.89319752 -17.1875 40.9375 C-18.19780273 41.0003418 -18.19780273 41.0003418 -19.22851562 41.06445312 C-23.09109648 41.15866241 -24.82831332 40.75348076 -27.94921875 38.41796875 C-30.11279978 35.47137744 -30.68115816 34.21912242 -30.625 30.625 C-30.63789063 29.8 -30.65078125 28.975 -30.6640625 28.125 C-29.67402837 24.39781267 -28.06658518 22.91986176 -25 20.625 C-22.1612599 20.25728755 -19.98179849 20.13869196 -17.1875 20.3125 C-16.49462891 20.33505859 -15.80175781 20.35761719 -15.08789062 20.38085938 C-13.39098427 20.43937339 -11.69520139 20.5290452 -10 20.625 C-10.05800781 19.60019531 -10.11601562 18.57539063 -10.17578125 17.51953125 C-10.22269957 16.15889989 -10.26819752 14.79821904 -10.3125 13.4375 C-10.35439453 12.76396484 -10.39628906 12.09042969 -10.43945312 11.39648438 C-10.53366241 7.53390352 -10.12848076 5.79668668 -7.79296875 2.67578125 C-4.84637744 0.51220022 -3.59412242 -0.05615816 0 0 Z " fill="#000000" transform="translate(376,325.375)"/>
<path d="M0 0 C0.825 -0.01289063 1.65 -0.02578125 2.5 -0.0390625 C6.22718733 0.95097163 7.70513824 2.55841482 10 5.625 C10.36771245 8.4637401 10.48630804 10.64320151 10.3125 13.4375 C10.28994141 14.13037109 10.26738281 14.82324219 10.24414062 15.53710938 C10.18562661 17.23401573 10.0959548 18.92979861 10 20.625 C11.02480469 20.56699219 12.04960938 20.50898438 13.10546875 20.44921875 C14.46610011 20.40230043 15.82678096 20.35680248 17.1875 20.3125 C17.86103516 20.27060547 18.53457031 20.22871094 19.22851562 20.18554688 C23.09109648 20.09133759 24.82831332 20.49651924 27.94921875 22.83203125 C30.11279978 25.77862256 30.68115816 27.03087758 30.625 30.625 C30.63789062 31.45 30.65078125 32.275 30.6640625 33.125 C29.67402837 36.85218733 28.06658518 38.33013824 25 40.625 C22.1612599 40.99271245 19.98179849 41.11130804 17.1875 40.9375 C16.49462891 40.91494141 15.80175781 40.89238281 15.08789062 40.86914062 C13.39098427 40.81062661 11.69520139 40.7209548 10 40.625 C10.05800781 41.64980469 10.11601563 42.67460937 10.17578125 43.73046875 C10.22269957 45.09110011 10.26819752 46.45178096 10.3125 47.8125 C10.35439453 48.48603516 10.39628906 49.15957031 10.43945312 49.85351562 C10.53366241 53.71609648 10.12848076 55.45331332 7.79296875 58.57421875 C4.84637744 60.73779978 3.59412242 61.30615816 0 61.25 C-0.825 61.26289063 -1.65 61.27578125 -2.5 61.2890625 C-6.22718733 60.29902837 -7.70513824 58.69158518 -10 55.625 C-10.36771245 52.7862599 -10.48630804 50.60679849 -10.3125 47.8125 C-10.28994141 47.11962891 -10.26738281 46.42675781 -10.24414062 45.71289062 C-10.18562661 44.01598427 -10.0959548 42.32020139 -10 40.625 C-11.02480469 40.68300781 -12.04960937 40.74101562 -13.10546875 40.80078125 C-14.46610011 40.84769957 -15.82678096 40.89319752 -17.1875 40.9375 C-18.19780273 41.0003418 -18.19780273 41.0003418 -19.22851562 41.06445312 C-23.09109648 41.15866241 -24.82831332 40.75348076 -27.94921875 38.41796875 C-30.11279978 35.47137744 -30.68115816 34.21912242 -30.625 30.625 C-30.63789063 29.8 -30.65078125 28.975 -30.6640625 28.125 C-29.67402837 24.39781267 -28.06658518 22.91986176 -25 20.625 C-22.1612599 20.25728755 -19.98179849 20.13869196 -17.1875 20.3125 C-16.49462891 20.33505859 -15.80175781 20.35761719 -15.08789062 20.38085938 C-13.39098427 20.43937339 -11.69520139 20.5290452 -10 20.625 C-10.05800781 19.60019531 -10.11601562 18.57539063 -10.17578125 17.51953125 C-10.22269957 16.15889989 -10.26819752 14.79821904 -10.3125 13.4375 C-10.35439453 12.76396484 -10.39628906 12.09042969 -10.43945312 11.39648438 C-10.53366241 7.53390352 -10.12848076 5.79668668 -7.79296875 2.67578125 C-4.84637744 0.51220022 -3.59412242 -0.05615816 0 0 Z " fill="#000000" transform="translate(30,185.375)"/>
<path d="M0 0 C0.825 -0.01289062 1.65 -0.02578125 2.5 -0.0390625 C6.22718733 0.95097163 7.70513824 2.55841482 10 5.625 C10.36771245 8.4637401 10.48630804 10.64320151 10.3125 13.4375 C10.28994141 14.13037109 10.26738281 14.82324219 10.24414062 15.53710938 C10.18562661 17.23401573 10.0959548 18.92979861 10 20.625 C11.02480469 20.56699219 12.04960937 20.50898437 13.10546875 20.44921875 C14.46610011 20.40230043 15.82678096 20.35680248 17.1875 20.3125 C17.86103516 20.27060547 18.53457031 20.22871094 19.22851562 20.18554688 C23.09109648 20.09133759 24.82831332 20.49651924 27.94921875 22.83203125 C30.11279978 25.77862256 30.68115816 27.03087758 30.625 30.625 C30.63789062 31.45 30.65078125 32.275 30.6640625 33.125 C29.67402837 36.85218733 28.06658518 38.33013824 25 40.625 C22.1612599 40.99271245 19.98179849 41.11130804 17.1875 40.9375 C16.49462891 40.91494141 15.80175781 40.89238281 15.08789062 40.86914062 C13.39098427 40.81062661 11.69520139 40.7209548 10 40.625 C10.05800781 41.64980469 10.11601562 42.67460938 10.17578125 43.73046875 C10.22269957 45.09110011 10.26819752 46.45178096 10.3125 47.8125 C10.35439453 48.48603516 10.39628906 49.15957031 10.43945312 49.85351562 C10.53366241 53.71609648 10.12848076 55.45331332 7.79296875 58.57421875 C4.84637744 60.73779978 3.59412242 61.30615816 0 61.25 C-0.825 61.26289063 -1.65 61.27578125 -2.5 61.2890625 C-6.22718733 60.29902837 -7.70513824 58.69158518 -10 55.625 C-10.36771245 52.7862599 -10.48630804 50.60679849 -10.3125 47.8125 C-10.28994141 47.11962891 -10.26738281 46.42675781 -10.24414062 45.71289062 C-10.18562661 44.01598427 -10.0959548 42.32020139 -10 40.625 C-11.02480469 40.68300781 -12.04960937 40.74101563 -13.10546875 40.80078125 C-14.46610011 40.84769957 -15.82678096 40.89319752 -17.1875 40.9375 C-18.19780273 41.0003418 -18.19780273 41.0003418 -19.22851562 41.06445312 C-23.09109648 41.15866241 -24.82831332 40.75348076 -27.94921875 38.41796875 C-30.11279978 35.47137744 -30.68115816 34.21912242 -30.625 30.625 C-30.63789063 29.8 -30.65078125 28.975 -30.6640625 28.125 C-29.67402837 24.39781267 -28.06658518 22.91986176 -25 20.625 C-22.1612599 20.25728755 -19.98179849 20.13869196 -17.1875 20.3125 C-16.49462891 20.33505859 -15.80175781 20.35761719 -15.08789062 20.38085938 C-13.39098427 20.43937339 -11.69520139 20.5290452 -10 20.625 C-10.05800781 19.60019531 -10.11601562 18.57539062 -10.17578125 17.51953125 C-10.22269957 16.15889989 -10.26819752 14.79821904 -10.3125 13.4375 C-10.35439453 12.76396484 -10.39628906 12.09042969 -10.43945312 11.39648438 C-10.53366241 7.53390352 -10.12848076 5.79668668 -7.79296875 2.67578125 C-4.84637744 0.51220022 -3.59412242 -0.05615816 0 0 Z " fill="#000000" transform="translate(482,79.375)"/>
<path d="M0 0 C19.8 0 39.6 0 60 0 C60 6.6 60 13.2 60 20 C40.2 20 20.4 20 0 20 C0 13.4 0 6.8 0 0 Z " fill="#EEFAFF" transform="translate(206,226)"/>
<path d="M0 0 C6.6 0 13.2 0 20 0 C20 15.18 20 30.36 20 46 C13.4 46 6.8 46 0 46 C0 30.82 0 15.64 0 0 Z " fill="#EEFAFF" transform="translate(306,60)"/>
<path d="M0 0 C3.125 1.875 3.125 1.875 5 5 C5.98876625 10.02622846 5.7769173 13.70513784 3.125 18.125 C-1.29486216 20.7769173 -4.97377154 20.98876625 -10 20 C-13.125 18.125 -13.125 18.125 -15 15 C-15.98876625 9.97377154 -15.7769173 6.29486216 -13.125 1.875 C-8.70513784 -0.7769173 -5.02622846 -0.98876625 0 0 Z " fill="#000000" transform="translate(61,326)"/>
<path d="M0 0 C3.125 1.875 3.125 1.875 5 5 C5.98876625 10.02622846 5.7769173 13.70513784 3.125 18.125 C-1.29486216 20.7769173 -4.97377154 20.98876625 -10 20 C-13.125 18.125 -13.125 18.125 -15 15 C-15.98876625 9.97377154 -15.7769173 6.29486216 -13.125 1.875 C-8.70513784 -0.7769173 -5.02622846 -0.98876625 0 0 Z " fill="#000000" transform="translate(441,306)"/>
<path d="M0 0 C4.13618341 0.31500735 6.63956604 0.74787348 10.171875 3.0546875 C12.45061757 6.5830631 12.85442719 8.75690588 12.578125 12.89453125 C12.109375 15.0546875 12.109375 15.0546875 10.234375 18.1171875 C5.82911558 20.84844834 2.16014666 21.05656188 -2.890625 20.0546875 C-6.015625 18.1171875 -6.015625 18.1171875 -7.890625 15.0546875 C-8.57531721 11.89939754 -8.62653879 9.20371397 -7.890625 6.0546875 C-5.453125 3.0546875 -5.453125 3.0546875 -2.890625 1.0546875 C-1.890625 0.0546875 -1.890625 0.0546875 0 0 Z " fill="#040404" transform="translate(130.890625,471.9453125)"/>
<path d="M0 0 C3.67123639 0.01977327 4.15668193 0.29756585 7.1875 2.8125 C8.2084375 4.0809375 8.2084375 4.0809375 9.25 5.375 C9.58 5.705 9.91 6.035 10.25 6.375 C10.96194379 13.49443794 10.96194379 13.49443794 7.875 17.3125 C3.81128027 20.50542265 1.45217933 20.90403519 -3.75 20.375 C-6.625 17.9375 -6.625 17.9375 -8.75 15.375 C-9.08 15.045 -9.41 14.715 -9.75 14.375 C-10.04322866 11.44271337 -10.25004247 9.23008117 -9.75 6.375 C-7.3125 3.4375 -7.3125 3.4375 -4.75 1.375 C-3.75 0.375 -3.75 0.375 0 0 Z " fill="#E3EFF4" transform="translate(95.75,265.625)"/>
<path d="M0 0 C3.67123639 0.01977327 4.15668193 0.29756585 7.1875 2.8125 C8.2084375 4.0809375 8.2084375 4.0809375 9.25 5.375 C9.58 5.705 9.91 6.035 10.25 6.375 C10.29249593 10.56509901 9.92028061 14.25786566 7.75 17.875 C4.0593602 20.08938388 0.54600964 20.85743959 -3.75 20.375 C-6.75 18 -6.75 18 -8.75 15.375 C-9.08 15.045 -9.41 14.715 -9.75 14.375 C-10.04322866 11.44271337 -10.25004247 9.23008117 -9.75 6.375 C-7.3125 3.4375 -7.3125 3.4375 -4.75 1.375 C-3.75 0.375 -3.75 0.375 0 0 Z " fill="#F5E47A" transform="translate(415.75,19.625)"/>
<path d="M0 0 C4.21991975 0.32138462 6.62477605 0.71843517 10.171875 3.1796875 C12.62942904 6.82638059 12.72695581 8.73162183 12.109375 13.0546875 C10.75690611 16.25790328 9.82378782 17.64920996 6.796875 19.3671875 C3.62182807 20.17940881 1.37132147 20.53038803 -1.890625 20.0546875 C-4.85978717 18.00926467 -6.46450923 16.35657712 -7.59765625 12.89453125 C-8.03087255 10.46932972 -8.20954117 8.49971148 -7.890625 6.0546875 C-5.515625 3.0546875 -5.515625 3.0546875 -2.890625 1.0546875 C-1.890625 0.0546875 -1.890625 0.0546875 0 0 Z " fill="#080804" transform="translate(133.890625,85.9453125)"/>
<path d="M0 0 C4.30577504 1.66169474 7.09011855 4.83080306 10.25 8.0625 C10.80429687 8.61744141 11.35859375 9.17238281 11.9296875 9.74414062 C16 13.85956743 16 13.85956743 16 15 C6.1 15 -3.8 15 -14 15 C-7.25 7.125 -7.25 7.125 -3.625 3.5625 C-2.93664062 2.88316406 -2.24828125 2.20382813 -1.5390625 1.50390625 C-1.03117187 1.00761719 -0.52328125 0.51132812 0 0 Z " fill="#FE9155" transform="translate(315,25)"/>
</svg>
