<?xml version="1.0" encoding="UTF-8"?>
<svg version="1.1" xmlns="http://www.w3.org/2000/svg" width="512" height="512">
<path d="M0 0 C1.36289658 0.00456207 1.36289658 0.00456207 2.75332642 0.00921631 C26.82378024 0.12765902 53.19912797 2.15417512 75.44921875 12.15625 C86.75635452 17.1643604 97.5755343 16.75635963 109.70703125 16.5480957 C138.68722632 16.06556068 166.35241131 22.72911788 188.4375 42.4375 C189.25734375 43.16324219 190.0771875 43.88898437 190.921875 44.63671875 C213.45645184 65.80662401 222.37957245 97.58350324 223.56542969 127.68481445 C224.42999803 166.83460226 217.59218305 204.75071404 207.4375 242.4375 C208.18 242.70820313 208.9225 242.97890625 209.6875 243.2578125 C216.47096371 246.16776426 220.46772887 250.71285547 223.375 257.4375 C228.40674239 270.26417891 227.01502753 284.58213697 222.01171875 297.18359375 C215.65510334 310.32270204 205.20617951 320.40822185 191.4375 325.4375 C188.98222589 325.75388782 186.52362167 326.04538142 184.0625 326.3125 C180.49269788 326.80679071 180.49269788 326.80679071 177.4375 328.4375 C174.74356355 332.88721215 173.41860762 337.42221225 172.04101562 342.40869141 C164.80916916 366.7196316 142.13358905 386.67312868 120.9296875 398.70703125 C105.2501779 406.47663165 88.89844847 410.59635796 71.4375 411.4375 C71.4375 413.7475 71.4375 416.0575 71.4375 418.4375 C72.58412109 418.39822388 72.58412109 418.39822388 73.75390625 418.3581543 C102.30861096 417.50984591 102.30861096 417.50984591 115.4375 423.4375 C116.42105469 423.87191406 117.40460938 424.30632812 118.41796875 424.75390625 C133.76161166 432.34998335 146.84752899 445.89756419 152.71826172 462.11572266 C155.37544691 470.69339785 157.01952344 479.59941097 158.80810547 488.38989258 C159.50761353 491.77699852 160.26879897 495.14670358 161.06005859 498.51342773 C161.74188308 501.98914491 161.79800539 504.89253029 161.4375 508.4375 C159.85976404 510.6361593 159.85976404 510.6361593 157.4375 512.4375 C154.21493489 512.94119799 154.21493489 512.94119799 150.30627537 512.94645119 C149.58391078 512.95286414 148.8615462 512.9592771 148.11729178 512.96588439 C145.68371524 512.98255851 143.25111374 512.97061186 140.81752014 512.95889282 C139.06045981 512.9649309 137.30340472 512.97270737 135.546359 512.98207796 C130.70788892 513.00271971 125.86971386 512.99825381 121.03121912 512.98971677 C115.81706994 512.98479706 110.60299317 513.00279209 105.38887024 513.01779175 C95.17009864 513.04333095 84.95143203 513.04686755 74.7326339 513.04219122 C66.42946024 513.03862973 58.12631855 513.04211369 49.82314873 513.05064011 C48.64283041 513.05183048 47.4625121 513.05302086 46.24642656 513.05424731 C43.84885935 513.05667073 41.45129214 513.059099 39.05372494 513.06153207 C16.553725 513.08330043 -5.94621504 513.07894978 -28.44621838 513.06676237 C-49.04501504 513.05642165 -69.64362261 513.07893801 -90.24238186 513.11695881 C-111.37717251 513.15567093 -132.51187361 513.17223554 -153.64669997 513.16471231 C-165.5187458 513.16088151 -177.39063064 513.16592893 -189.26264763 513.19414139 C-199.3689763 513.21791419 -209.4750449 513.22084084 -219.58137696 513.19656105 C-224.74054717 513.18474484 -229.89924104 513.18268979 -235.05838013 513.20656586 C-239.77798399 513.22815449 -244.49671016 513.22223411 -249.21627183 513.19404249 C-250.92686195 513.18871257 -252.63751945 513.19359398 -254.34804379 513.20951422 C-256.66824404 513.22961606 -258.98536017 513.21299214 -261.30543423 513.18696022 C-263.24046422 513.18712527 -263.24046422 513.18712527 -265.21458572 513.18729365 C-270.69568311 511.95975565 -272.32406723 508.33937889 -275.3125 503.75 C-278.68978633 494.80019123 -278.07126219 486.10655367 -274.25390625 477.48046875 C-270.09746719 469.23736299 -264.80839782 462.30508097 -258.98974609 455.19140625 C-256.64051651 452.30449805 -254.34669793 449.37596567 -252.0625 446.4375 C-251.2684375 445.426875 -250.474375 444.41625 -249.65625 443.375 C-245.05947803 436.92579754 -243.67414971 432.2671889 -244.5625 424.4375 C-245.48608636 420.09491456 -246.71203155 415.87201926 -248 411.625 C-248.64592869 409.43140059 -249.29051143 407.2374043 -249.93359375 405.04296875 C-250.3656311 403.60667114 -250.3656311 403.60667114 -250.80639648 402.14135742 C-253.32172713 393.14643107 -254.52693719 382.56262187 -250.5 373.875 C-245.46402445 365.41624441 -238.85484148 362.11007609 -229.5625 359.4375 C-208.81098161 354.62265548 -183.22276859 358.46646403 -163.5625 366.4375 C-161.6328125 367.89453125 -161.6328125 367.89453125 -160.5625 369.4375 C-160.375 372.625 -160.375 372.625 -160.5625 375.4375 C-159.00490657 375.97282823 -157.44111955 376.49015378 -155.875 377 C-155.00488281 377.29003906 -154.13476562 377.58007812 -153.23828125 377.87890625 C-150.25394113 378.50191448 -148.46432385 378.31815301 -145.5625 377.4375 C-144.5725 376.7775 -143.5825 376.1175 -142.5625 375.4375 C-136.80431218 375.71092505 -132.23816663 377.12832112 -127.0390625 379.61328125 C-126.34406647 379.93450958 -125.64907043 380.25573792 -124.93301392 380.58670044 C-122.6796542 381.631038 -120.4337884 382.69055091 -118.1875 383.75 C-116.61478578 384.48103602 -115.04153732 385.21092371 -113.46777344 385.93969727 C-108.82643208 388.09237297 -104.19335813 390.26238016 -99.5625 392.4375 C-80.54984895 401.36648971 -80.54984895 401.36648971 -61.1875 409.5 C-60.29063477 409.85827881 -59.39376953 410.21655762 -58.46972656 410.58569336 C-47.55417183 414.80473237 -36.97491326 416.87458498 -25.3125 417.625 C-23.60513672 417.7477832 -23.60513672 417.7477832 -21.86328125 417.87304688 C-19.09686869 418.07064777 -16.33017762 418.25866051 -13.5625 418.4375 C-13.5625 416.1275 -13.5625 413.8175 -13.5625 411.4375 C-15.35880859 411.29054688 -15.35880859 411.29054688 -17.19140625 411.140625 C-48.82927619 408.33396071 -76.1957074 395.43716752 -97.5625 371.4375 C-103.20261521 364.5947924 -107.88520181 357.2881314 -111.875 349.375 C-112.21096191 348.70871582 -112.54692383 348.04243164 -112.89306641 347.35595703 C-114.98348141 343.0457254 -116.2922041 338.81759893 -117.5625 334.1875 C-118.56200951 330.97164989 -118.56200951 330.97164989 -120.5625 328.4375 C-125.15693097 326.48099513 -129.70640704 325.7141141 -134.60009766 324.85644531 C-145.43559223 322.54321955 -154.17029503 313.43093652 -160.48046875 304.8203125 C-168.37086027 292.31258075 -170.3157352 277.92267638 -168.1015625 263.41796875 C-165.91102001 255.23564828 -161.49253394 248.21318497 -154.46875 243.41015625 C-151.92350358 242.11145469 -149.28483268 241.29014071 -146.5625 240.4375 C-146.79324219 239.30699219 -147.02398437 238.17648438 -147.26171875 237.01171875 C-148.17152717 232.52945592 -149.06202857 228.04352026 -149.94628906 223.55615234 C-150.35902583 221.46728566 -150.77507299 219.37907049 -151.19433594 217.29150391 C-161.32500466 166.61503091 -165.66493604 110.41285548 -137.5625 64.4375 C-122.33968376 42.09208167 -102.97103658 26.54402987 -78.5625 15.4375 C-76.81259766 14.63699219 -76.81259766 14.63699219 -75.02734375 13.8203125 C-67.63235497 10.65922095 -60.13323466 8.3334881 -52.375 6.25 C-51.50415771 6.01200684 -50.63331543 5.77401367 -49.73608398 5.52880859 C-33.3179979 1.31768091 -16.89900982 -0.12120132 0 0 Z " fill="#020101" transform="translate(281.5625,-0.43750000000000006)"/>
<path d="M0 0 C0.92167969 0.30744141 1.84335937 0.61488281 2.79296875 0.93164062 C9.46711077 3.17105539 9.46711077 3.17105539 11.75 4.3125 C14.48025295 4.36315056 17.1853171 4.35485961 19.9140625 4.3046875 C21.61197276 4.28712942 23.30988988 4.27022532 25.0078125 4.25390625 C27.66881753 4.22332556 30.3294696 4.18830758 32.99023438 4.14111328 C47.89186841 3.89087829 61.715629 5.13632426 75.9375 10 C76.68451172 10.25418701 77.43152344 10.50837402 78.20117188 10.77026367 C89.72094726 14.89275399 99.11403438 21.69184637 107.75 30.3125 C108.37390625 30.92480469 108.9978125 31.53710938 109.640625 32.16796875 C129.18259083 52.81027049 132.9779139 82.53559858 132.9375 109.625 C132.93656342 110.43228546 132.93562683 111.23957092 132.93466187 112.07131958 C132.9039834 124.26396821 132.60522057 136.24131693 130.75 148.3125 C130.58870605 149.37919922 130.42741211 150.44589844 130.26123047 151.54492188 C127.75716555 167.73742743 124.64678193 183.77292326 120.45727539 199.61914062 C119.97419405 201.45875172 119.52422766 203.30729605 119.10327148 205.16210938 C117.4271376 211.90288565 117.4271376 211.90288565 114.05078125 213.9453125 C111.28385417 214.40104167 108.51692708 214.85677083 105.75 215.3125 C105.73541748 214.66176514 105.72083496 214.01103027 105.70581055 213.34057617 C105.63135451 210.39311694 105.53468734 207.44679358 105.4375 204.5 C105.41494141 203.47583984 105.39238281 202.45167969 105.36914062 201.39648438 C105.3159668 199.92211914 105.3159668 199.92211914 105.26171875 198.41796875 C105.23553467 197.51199951 105.20935059 196.60603027 105.18237305 195.67260742 C104.67046263 192.87834543 104.00491229 191.99423626 101.75 190.3125 C99.50377101 189.64062416 97.22634191 189.07059894 94.9375 188.5625 C82.52330816 185.52352275 72.40150089 179.68634246 62.75 171.3125 C61.91984375 170.673125 61.0896875 170.03375 60.234375 169.375 C45.66038893 157.27584175 36.7809854 138.45304912 29.93310547 121.26171875 C28.64961171 117.60912144 28.64961171 117.60912144 25.75 115.3125 C21.77704734 114.9198788 19.57098233 114.73086361 16.2578125 117.078125 C15.47148437 117.89796875 14.68515625 118.7178125 13.875 119.5625 C-12.74867924 145.49731481 -50.50659907 158.36349167 -85.25 169.3125 C-86.00651855 169.55307129 -86.76303711 169.79364258 -87.54248047 170.04150391 C-92.41564743 171.57867738 -97.31546258 172.98609125 -102.25 174.3125 C-103.05663086 174.53083496 -103.86326172 174.74916992 -104.69433594 174.97412109 C-119.48383741 178.90526243 -134.45410337 181.75911591 -149.5 184.5 C-150.41995758 184.66835358 -151.33991516 184.83670715 -152.28775024 185.01016235 C-155.00858969 185.50575065 -157.7304837 185.99488169 -160.453125 186.48046875 C-161.77977425 186.71855003 -161.77977425 186.71855003 -163.13322449 186.96144104 C-167.78158622 187.77576475 -172.42143568 188.47979555 -177.10742188 189.04150391 C-178.06106628 189.15988113 -179.01471069 189.27825836 -179.99725342 189.40022278 C-181.81279508 189.61945214 -183.6306363 189.82068031 -185.45050049 190.00053406 C-189.67574709 190.51371549 -191.82735631 190.9923082 -195.29663086 193.62060547 C-197.30583449 196.38944426 -197.8885548 197.60168504 -197.95703125 200.95703125 C-197.98603516 201.79814453 -198.01503906 202.63925781 -198.04492188 203.50585938 C-198.05072266 204.37017578 -198.05652344 205.23449219 -198.0625 206.125 C-198.08763672 207.00865234 -198.11277344 207.89230469 -198.13867188 208.80273438 C-198.19730558 210.97218134 -198.22657386 213.14238727 -198.25 215.3125 C-201.0546875 214.9765625 -201.0546875 214.9765625 -204.25 213.3125 C-205.90568423 209.93112719 -206.59411264 206.35518297 -207.375 202.6875 C-207.62016357 201.62893799 -207.86532715 200.57037598 -208.11791992 199.47973633 C-210.49982482 188.89652641 -212.27331048 178.20271896 -213.86450195 167.4753418 C-214.22669326 165.14099594 -214.22669326 165.14099594 -215.25 162.3125 C-216.99625563 149.96478803 -217.57137777 137.700413 -217.51074219 125.2409668 C-217.49996095 122.61549034 -217.51075296 119.99069124 -217.5234375 117.36523438 C-217.53681049 103.25565245 -216.6798341 89.48325862 -212.625 75.875 C-212.36630127 74.99521484 -212.10760254 74.11542969 -211.84106445 73.20898438 C-202.98713486 44.33010892 -184.0301873 21.12778397 -157.63842773 6.52587891 C-144.91398059 -0.19870653 -131.22121605 -5.27634595 -117.25 -8.6875 C-116.44304687 -8.88859375 -115.63609375 -9.0896875 -114.8046875 -9.296875 C-112.29430695 -9.85851946 -109.79193661 -10.29098621 -107.25 -10.6875 C-105.52136719 -10.9659375 -105.52136719 -10.9659375 -103.7578125 -11.25 C-68.43826723 -16.33341431 -33.59241052 -11.35413581 0 0 Z " fill="#B06D3C" transform="translate(356.25,27.6875)"/>
<path d="M0 0 C2.66768919 3.26852008 4.38369397 6.69529749 6.1875 10.5 C13.63471758 25.70969278 23.96149532 39.0707398 36.80859375 50.09765625 C38.97461827 51.97796631 40.99540402 53.94974124 43 56 C41.55367188 56.05607422 41.55367188 56.05607422 40.078125 56.11328125 C38.81484375 56.17902344 37.5515625 56.24476563 36.25 56.3125 C34.99703125 56.37050781 33.7440625 56.42851562 32.453125 56.48828125 C28.9393804 57.00898322 27.3846321 57.40181876 25 60 C24.33740346 62.83568858 24.71832307 65.04239226 25 68 C27.42005138 70.42005138 28.04311221 70.26329238 31.35791016 70.31884766 C32.2712915 70.33890869 33.18467285 70.35896973 34.12573242 70.37963867 C35.08713135 70.39099854 36.04853027 70.4023584 37.0390625 70.4140625 C38.36296997 70.44052856 38.36296997 70.44052856 39.71362305 70.4675293 C43.0172285 70.53069521 46.32114211 70.57681351 49.625 70.625 C57.00875 70.74875 64.3925 70.8725 72 71 C72 91.46 72 111.92 72 133 C47.28406038 133.12032643 47.28406038 133.12032643 36.74609375 133.14648438 C29.55641028 133.16441559 22.36684146 133.1856253 15.17724609 133.22631836 C9.38063933 133.25892168 3.58415553 133.2768552 -2.21253586 133.28463173 C-4.42371939 133.29017345 -6.63489621 133.30099504 -8.84602737 133.31719017 C-11.94388609 133.33897699 -15.04123712 133.34196635 -18.13916016 133.34057617 C-19.05266235 133.351362 -19.96616455 133.36214783 -20.90734863 133.3732605 C-26.0313963 133.34839002 -29.57158006 132.8670436 -34 130 C-35.85583323 128.07278857 -37.5512519 126.17591611 -39.25 124.125 C-45.33299458 117.29302967 -50.2703474 113.32270836 -59.6875 112.50390625 C-69.46328296 111.98953691 -78.31671337 112.21198329 -86 119 C-88.13095534 121.45968711 -90.05325007 123.9231535 -91.85546875 126.6328125 C-95.88259859 131.07805965 -100.77900136 133.18269621 -106.75842285 133.48101807 C-108.53489781 133.49247757 -110.31160232 133.48228722 -112.08789062 133.45410156 C-113.55267853 133.45497772 -113.55267853 133.45497772 -115.04705811 133.45587158 C-118.25049324 133.4531017 -121.45297893 133.42206107 -124.65625 133.390625 C-126.88683565 133.38315873 -129.11742789 133.37746762 -131.34802246 133.37347412 C-137.20070712 133.35824833 -143.05299069 133.3189925 -148.90551758 133.2746582 C-155.93733432 133.22641984 -162.96928564 133.20815698 -170.0012207 133.18484497 C-180.66775887 133.14614006 -191.3334181 133.06946399 -202 133 C-202 112.54 -202 92.08 -202 71 C-195.7398291 70.98018066 -189.4796582 70.96036133 -183.02978516 70.93994141 C-162.39824601 70.87318 -141.76675793 70.79564009 -121.1352787 70.71247292 C-108.62047175 70.66229015 -96.10567154 70.61584799 -83.59082031 70.578125 C-72.6865104 70.5452472 -61.78225193 70.50543954 -50.87799871 70.45720994 C-45.10100666 70.43190294 -39.32404891 70.41013419 -33.54701614 70.39665604 C-28.11505487 70.38387367 -22.683211 70.36186104 -17.25131416 70.33261681 C-15.25259605 70.32351097 -13.25385902 70.31784385 -11.25512123 70.31578636 C-8.53628891 70.31248494 -5.8177938 70.2970657 -3.09902954 70.2784729 C-1.89962862 70.281375 -1.89962862 70.281375 -0.67599738 70.28433573 C3.62575601 70.39871068 3.62575601 70.39871068 7 68 C7.47213673 63.93904042 7.47213673 63.93904042 7 60 C3.95941106 57.14081279 1.85523557 56.62178902 -2.26446533 56.60127258 C-3.3301474 56.58873444 -4.39582947 56.57619629 -5.49380493 56.5632782 C-7.23952286 56.56543083 -7.23952286 56.56543083 -9.02050781 56.56762695 C-10.25004181 56.5574353 -11.47957581 56.54724365 -12.74636841 56.53674316 C-16.11391972 56.51172965 -19.48103487 56.4998879 -22.8486414 56.49388909 C-26.36943821 56.48450718 -29.8901088 56.45830398 -33.41082764 56.43388367 C-40.07595444 56.39020983 -46.74105677 56.36166837 -53.40628314 56.33856028 C-60.99517953 56.3115133 -68.58394899 56.26760152 -76.17275476 56.22227156 C-91.78177127 56.12941266 -107.39081168 56.0577377 -123 56 C-120.00152156 53.00152156 -116.20721737 52.72820311 -112.1875 51.8125 C-72.47631342 42.25583594 -31.86686161 25.95516467 0 0 Z " fill="#DB626D" transform="translate(375,162)"/>
<path d="M0 0 C1.18464844 -0.01933594 2.36929688 -0.03867187 3.58984375 -0.05859375 C11.41505813 1.05929402 15.2804214 6.8387026 19.9140625 12.68359375 C30.21000324 22.77087044 45.06717101 21.17198287 58.328125 21.14453125 C60.57543264 21.15766372 62.82272852 21.17297266 65.07000732 21.19035339 C70.94881477 21.23003451 76.82731224 21.24038298 82.70623779 21.24438477 C88.71961774 21.25374807 94.73281797 21.29118159 100.74609375 21.32617188 C112.51822089 21.3905758 124.29021207 21.42395686 136.0625 21.4375 C135.92351627 22.84856088 135.77933792 24.25911056 135.63305664 25.66943359 C135.51348351 26.8477626 135.51348351 26.8477626 135.39149475 28.04989624 C134.86537649 31.86807853 133.74082544 35.4233929 132.5 39.0625 C132.23751465 39.8359375 131.9750293 40.609375 131.70458984 41.40625 C127.49901651 53.31756622 121.60626839 64.06019323 113.0625 73.4375 C112.17820312 74.41460937 111.29390625 75.39171875 110.3828125 76.3984375 C99.04298973 88.51734668 83.96556555 98.54814575 67.77854919 102.73139954 C66.01976213 103.18863734 64.26919189 103.67930666 62.53089905 104.20915222 C51.51049882 107.25390193 40.46772861 106.85363099 29.12109375 106.80078125 C26.90397644 106.80026149 24.68685868 106.80078366 22.46974182 106.80229187 C17.8427942 106.80220259 13.21602243 106.79186384 8.58911133 106.77368164 C2.6862703 106.7509831 -3.21631467 106.75045779 -9.11918736 106.75719929 C-13.69107806 106.76055537 -18.2629114 106.75387861 -22.83479118 106.74407005 C-25.0102909 106.74024701 -27.18579703 106.73905769 -29.36129951 106.7406559 C-50.90313837 106.7433029 -50.90313837 106.7433029 -60.9375 104.4375 C-62.13761719 104.18871094 -63.33773437 103.93992187 -64.57421875 103.68359375 C-90.62075489 96.78009442 -111.51438876 79.00732623 -124.953125 55.984375 C-128.16930855 49.85964284 -130.7407193 43.63034403 -132.875 37.0625 C-133.08680908 36.42070801 -133.29861816 35.77891602 -133.5168457 35.11767578 C-134.95634285 30.36678319 -135.00645501 26.33552977 -134.9375 21.4375 C-133.10705894 21.42870064 -133.10705894 21.42870064 -131.23963928 21.41972351 C-119.7195727 21.36242242 -108.19969355 21.28962202 -96.67981815 21.20178509 C-90.75783216 21.15712542 -84.83591427 21.11785942 -78.91381836 21.09106445 C-73.19487496 21.06498782 -67.47619424 21.02455412 -61.75741386 20.97431374 C-59.57946486 20.95767458 -57.40147045 20.94614198 -55.22346687 20.93988609 C-52.16440652 20.93021305 -49.10601374 20.90211486 -46.04711914 20.86987305 C-45.15375351 20.87130814 -44.26038788 20.87274323 -43.33995056 20.8742218 C-33.64498674 20.73043102 -25.37077343 17.73259734 -17.9375 11.4375 C-16.27776541 9.45033477 -14.81548401 7.45027128 -13.421875 5.26953125 C-9.69128553 0.66519846 -5.72273021 0.00621361 0 0 Z " fill="#FECABD" transform="translate(309.9375,288.5625)"/>
<path d="M0 0 C2.33132706 0.67392813 4.66541605 1.33739827 7 2 C7 2.33 7 2.66 7 3 C5.94425781 3.08636719 4.88851562 3.17273437 3.80078125 3.26171875 C-29.83755768 6.32604901 -60.2409977 17.6925305 -85 41 C-85.67675781 41.60070312 -86.35351562 42.20140625 -87.05078125 42.8203125 C-101.45114338 56.15291231 -110.87529899 76.37586513 -116 95 C-116.19609863 95.66757324 -116.39219727 96.33514648 -116.59423828 97.02294922 C-123.79849669 122.3350493 -123.94460318 159.11079365 -112 183 C-128.31885956 186.24250276 -144.66533715 189.19095545 -161.08203125 191.88671875 C-162.22752441 192.0779834 -163.37301758 192.26924805 -164.55322266 192.46630859 C-166.89503654 192.82890989 -169.24482086 193.14270433 -171.59912109 193.41259766 C-178.25854645 194.21355501 -178.25854645 194.21355501 -184.26171875 197.01171875 C-186.73425967 201.26226662 -186.78000017 204.97002568 -186.8125 209.8125 C-186.83763672 210.69615234 -186.86277344 211.57980469 -186.88867188 212.49023438 C-186.94730558 214.65968134 -186.97657386 216.82988727 -187 219 C-189.8046875 218.6640625 -189.8046875 218.6640625 -193 217 C-194.65568423 213.61862719 -195.34411264 210.04268297 -196.125 206.375 C-196.37016357 205.31643799 -196.61532715 204.25787598 -196.86791992 203.16723633 C-199.24982482 192.58402641 -201.02331048 181.89021896 -202.61450195 171.1628418 C-202.97669326 168.82849594 -202.97669326 168.82849594 -204 166 C-205.74625563 153.65228803 -206.32137777 141.387913 -206.26074219 128.9284668 C-206.24996095 126.30299034 -206.26075296 123.67819124 -206.2734375 121.05273438 C-206.28681049 106.94315245 -205.4298341 93.17075862 -201.375 79.5625 C-201.11630127 78.68271484 -200.85760254 77.80292969 -200.59106445 76.89648438 C-191.73713486 48.01760892 -172.7801873 24.81528397 -146.38842773 10.21337891 C-133.66398059 3.48879347 -119.97121605 -1.58884595 -106 -5 C-105.19304687 -5.20109375 -104.38609375 -5.4021875 -103.5546875 -5.609375 C-101.04430695 -6.17101946 -98.54193661 -6.60348621 -96 -7 C-94.27136719 -7.2784375 -94.27136719 -7.2784375 -92.5078125 -7.5625 C-61.53225794 -12.02069945 -29.85814947 -9.01941373 0 0 Z " fill="#975D32" transform="translate(345,24)"/>
<path d="M0 0 C4.34170671 1.10902291 7.97780091 1.9767105 12.4375 1.3125 C14.41989527 -0.54874923 14.41989527 -0.54874923 15.4375 -2.6875 C17.66938537 -2.23042544 19.89108881 -1.75016158 22.109375 -1.23046875 C23.85597491 -0.82312414 25.61353242 -0.4623023 27.375 -0.125 C29.4375 1.3125 29.4375 1.3125 29.828125 3.265625 C29.92609375 4.04421875 30.0240625 4.8228125 30.125 5.625 C30.74686139 9.20704113 30.74686139 9.20704113 33.28295898 11.65307617 C34.07516846 12.00861572 34.86737793 12.36415527 35.68359375 12.73046875 C37.04303101 13.35538208 37.04303101 13.35538208 38.42993164 13.99291992 C39.4224292 14.42838135 40.41492676 14.86384277 41.4375 15.3125 C42.45642334 15.77567627 43.47534668 16.23885254 44.52514648 16.71606445 C47.94658842 18.26593522 51.37845198 19.7907773 54.8125 21.3125 C65.0290843 25.85528267 75.1882502 30.50524539 85.3125 35.25 C94.57819364 39.58627273 103.8479985 43.74089995 113.4375 47.3125 C112.16600418 51.12698747 110.66907711 51.7661898 107.375 54 C90.74141895 65.86270897 82.58149696 81.80133883 78.75 101.5625 C78.53794922 102.61179687 78.32589844 103.66109375 78.10742188 104.7421875 C77.13456486 109.59112783 76.25083351 114.43249892 75.4375 119.3125 C22.9675 119.3125 -29.5025 119.3125 -83.5625 119.3125 C-85.22223906 115.99302187 -85.15247146 112.88737658 -84.5625 109.3125 C-80.78510983 99.69732502 -73.70564703 91.6350403 -67.24658203 83.69482422 C-54.77403253 68.54248941 -54.77403253 68.54248941 -50.9296875 49.91015625 C-52.29399671 42.15380573 -54.53192829 34.61701959 -56.75415039 27.0703125 C-57.59676594 24.19559634 -58.42521131 21.31791358 -59.234375 18.43359375 C-59.47897461 17.56790771 -59.72357422 16.70222168 -59.97558594 15.81030273 C-61.20051471 10.59722193 -61.59344436 6.20943762 -59 1.4375 C-44.35904986 -11.32640525 -16.75911196 -4.35032572 0 0 Z " fill="#DC626D" transform="translate(104.5625,377.6875)"/>
<path d="M0 0 C1.80597656 0.01353516 1.80597656 0.01353516 3.6484375 0.02734375 C6.5991679 0.05076225 9.54947689 0.08356007 12.5 0.125 C12.79132813 0.970625 13.08265625 1.81625 13.3828125 2.6875 C18.75256813 17.5472011 25.94174533 25.23822782 40.12109375 32.0234375 C40.90613281 32.38695312 41.69117188 32.75046875 42.5 33.125 C41.11766177 37.44848339 39.74834261 41.70113903 37.8125 45.8125 C36.43052737 49.30033568 35.92419738 51.42341174 36.5 55.125 C38.06304526 57.60481752 38.06304526 57.60481752 40.5 59.125 C43.66374283 59.5108223 45.45713516 59.13928828 48.5 58.125 C49.23519522 56.14916285 49.89072482 54.14322402 50.5 52.125 C51.47004121 50.11029902 52.46244882 48.10577953 53.5 46.125 C55.47967481 49.09451221 56.91633146 52.05443317 58.40234375 55.28515625 C59.51078617 57.44299605 59.51078617 57.44299605 62.5 59.125 C65.60857 59.35814275 67.51413769 59.12028744 70.5 58.125 C71.91129974 51.33842203 70.92712689 47.35057332 68.0625 41.125 C67.72412109 40.35027344 67.38574219 39.57554687 67.03710938 38.77734375 C66.20810856 36.88582077 65.3563604 35.00429465 64.5 33.125 C65.44101562 32.67769531 66.38203125 32.23039062 67.3515625 31.76953125 C68.60958875 31.15929463 69.86738929 30.54859253 71.125 29.9375 C72.05119141 29.49954102 72.05119141 29.49954102 72.99609375 29.05273438 C79.45215342 25.89266307 84.27750462 22.10781905 88.1875 15.9375 C88.74824219 15.07769531 89.30898438 14.21789062 89.88671875 13.33203125 C92.02357697 9.08418477 93.254327 4.70148203 94.5 0.125 C123.14995941 -0.70905995 123.14995941 -0.70905995 133.5 4.125 C134.43199219 4.52589844 135.36398437 4.92679687 136.32421875 5.33984375 C149.28439908 11.57591378 158.23246819 22.81773871 163.625 35.9375 C166.51828918 44.33776396 169.5 55.18210217 169.5 64.125 C93.27 64.125 17.04 64.125 -61.5 64.125 C-59.19250614 43.35755526 -54.85335781 24.90558613 -38.015625 11.0859375 C-25.94122009 2.2738718 -14.7616364 -0.21088052 0 0 Z " fill="#7FB3F9" transform="translate(256.5,432.875)"/>
<path d="M0 0 C5.445 1.98 5.445 1.98 11 4 C9.72850418 7.81448747 8.23157711 8.4536898 4.9375 10.6875 C-11.69608105 22.55020897 -19.85600304 38.48883883 -23.6875 58.25 C-23.89955078 59.29929687 -24.11160156 60.34859375 -24.33007812 61.4296875 C-25.30293514 66.27862783 -26.18666649 71.11999892 -27 76 C-79.47 76 -131.94 76 -186 76 C-187.65973906 72.68052187 -187.58997146 69.57487658 -187 66 C-183.71142032 57.62906991 -177.89511674 50.65677368 -172.34082031 43.69238281 C-170.06683884 40.82216439 -167.84955 37.9085783 -165.625 35 C-162.78695172 31.30221722 -159.92332641 27.6307981 -157 24 C-140.67189071 25.81724804 -128.75433688 31.51362925 -114.83813477 39.82617188 C-98.44729211 49.57717866 -81.74277529 56.18993804 -62.43359375 52.27734375 C-44.11223681 46.93451593 -29.26036457 34.93759136 -17.09765625 20.4140625 C-15.27431286 18.31568966 -13.40669726 16.29171591 -11.49609375 14.2734375 C-10.8616333 13.60272217 -10.22717285 12.93200684 -9.57348633 12.2409668 C-8.28916174 10.88744541 -7.00131222 9.53725879 -5.7097168 8.19067383 C-4.82086792 7.25130981 -4.82086792 7.25130981 -3.9140625 6.29296875 C-3.3773291 5.7311792 -2.8405957 5.16938965 -2.28759766 4.59057617 C-0.7762411 2.91392214 -0.7762411 2.91392214 0 0 Z " fill="#D94953" transform="translate(207,421)"/>
<path d="M0 0 C23.76 0 47.52 0 72 0 C68.1461228 4.81734651 67.49121596 5.62719601 62 7 C66.96742333 25.7596546 74.17197087 42.20389985 87 57 C87.64839844 57.84046875 88.29679687 58.6809375 88.96484375 59.546875 C97.70624425 70.08353433 111.68842291 78.33667454 124 84 C124 84.33 124 84.66 124 85 C118.80795648 85.04996785 113.61605731 85.08598438 108.42382812 85.10986328 C106.66273557 85.11983294 104.90165917 85.13341356 103.140625 85.15087891 C93.22589729 85.24664616 83.73181197 85.176304 74 83 C72.79988281 82.75121094 71.59976563 82.50242187 70.36328125 82.24609375 C44.31674511 75.34259442 23.42311124 57.56982623 9.984375 34.546875 C6.76819145 28.42214284 4.1967807 22.19284403 2.0625 15.625 C1.85069092 14.98320801 1.63888184 14.34141602 1.4206543 13.68017578 C-0.08123379 8.72336916 0 5.50834838 0 0 Z " fill="#E9AB9C" transform="translate(175,310)"/>
<path d="M0 0 C67.65 0 135.3 0 205 0 C205 0.33 205 0.66 205 1 C157.81 1 110.62 1 62 1 C62 2.98 62 4.96 62 7 C63.0828125 7.12375 63.0828125 7.12375 64.1875 7.25 C68.33612324 8.35629953 70.89881641 10.20643342 73.16796875 13.90234375 C77.80714995 22.89599107 78.28435397 31.54316779 75.4375 41.3125 C73.53598441 46.51629179 71.07015821 50.4649209 66 53 C64.68 53 63.36 53 62 53 C62 55.64 62 58.28 62 61 C74.54 61 87.08 61 100 61 C100 61.33 100 61.66 100 62 C67 62 34 62 0 62 C0 41.54 0 21.08 0 0 Z " fill="#CF4750" transform="translate(173,233)"/>
<path d="M0 0 C2.66768919 3.26852008 4.38369397 6.69529749 6.1875 10.5 C13.63471758 25.70969278 23.96149532 39.0707398 36.80859375 50.09765625 C38.97461827 51.97796631 40.99540402 53.94974124 43 56 C42.04738281 56.01417969 41.09476563 56.02835938 40.11328125 56.04296875 C32.26448382 55.91072522 32.26448382 55.91072522 25.6875 59.4375 C24.02372331 61.85386442 24.02372331 61.85386442 23 64 C10.2393624 64.9212225 10.2393624 64.9212225 7.25 62.69921875 C6.25 61.0625 6.25 61.0625 5 58 C2.49595517 56.74797759 0.77920834 56.86128674 -2.0239563 56.84178162 C-3.08688904 56.8319928 -4.14982178 56.82220398 -5.2449646 56.81211853 C-6.4159671 56.80636307 -7.5869696 56.8006076 -8.79345703 56.79467773 C-10.02269897 56.78477814 -11.25194092 56.77487854 -12.51843262 56.76467896 C-15.89423445 56.73845605 -19.27001218 56.71660855 -22.64585352 56.69667697 C-26.17195863 56.67483336 -29.69802041 56.64743674 -33.22409058 56.62062073 C-39.90345171 56.57067182 -46.58283687 56.52574117 -53.26224506 56.48259836 C-60.86556106 56.43324475 -68.46883359 56.37831968 -76.07210755 56.32291877 C-91.71469821 56.209065 -107.35732882 56.10223337 -123 56 C-120.00152156 53.00152156 -116.20721737 52.72820311 -112.1875 51.8125 C-72.47631342 42.25583594 -31.86686161 25.95516467 0 0 Z " fill="#FCC9BC" transform="translate(375,162)"/>
<path d="M0 0 C-0.37511719 0.47308594 -0.75023437 0.94617188 -1.13671875 1.43359375 C-13.4784311 17.38144875 -17.64375138 34.55997065 -19.35400391 54.33544922 C-19.42538574 55.15674316 -19.49676758 55.97803711 -19.5703125 56.82421875 C-19.62977051 57.55729248 -19.68922852 58.29036621 -19.75048828 59.0456543 C-20 61 -20 61 -21 64 C-34.86 64 -48.72 64 -63 64 C-60.69250614 43.23255526 -56.35335781 24.78058613 -39.515625 10.9609375 C-26.92568405 1.77262656 -15.24265902 -0.35724982 0 0 Z " fill="#538FF7" transform="translate(258,433)"/>
<path d="M0 0 C2.64703232 2.02420118 4.08102641 4.12694138 5.875 6.9375 C9.18614671 11.70944673 13.23327788 15.52479202 19 17 C25.87499285 17.89018832 32.06507894 16.6297047 38 13 C40.38659337 10.55208089 42.2029063 7.89946427 44 5 C45.9375 2 45.9375 2 48 0 C51.99900698 -0.64269755 54.04129157 -0.63913895 57.4375 1.625 C59.5848256 4.88893492 59.71842864 6.12048534 59 10 C54.86896986 19.29092061 48.18919783 26.51854733 38.75 30.4375 C29.06541954 33.96635857 18.87351526 34.61649336 9.37890625 30.2578125 C0.03634525 25.3180676 -7.22935103 19.20293251 -11 9 C-10.93099783 5.4808891 -10.678653 3.75405889 -8.3125 1.125 C-5.26389315 -0.35810604 -3.35257076 -0.48891657 0 0 Z " fill="#040303" transform="translate(286,314)"/>
<path d="M0 0 C3.93483696 2.86169961 6.16543747 5.3474547 7.75 10 C9.16939773 21.67608917 7.54136946 32.02130064 0.625 41.75 C-6.04650355 49.68752448 -13.43293076 53.32489943 -23.25 56 C-23.22721619 51.7488096 -23.14992734 47.50031378 -23.0625 43.25 C-23.05669922 42.0434375 -23.05089844 40.836875 -23.04492188 39.59375 C-23.01591797 38.43359375 -22.98691406 37.2734375 -22.95703125 36.078125 C-22.9413208 35.00981445 -22.92561035 33.94150391 -22.90942383 32.84082031 C-22.03626762 29.07923364 -20.42259689 28.06844553 -17.25 26 C-13.83577319 24.2928866 -9.94459849 25.15741064 -6.1953125 25.35546875 C-3.14866369 25.24289899 -3.14866369 25.24289899 -0.89453125 23.1796875 C0.99618011 21.03891408 0.99618011 21.03891408 1.1875 17.9375 C0.97696161 15.04452363 0.97696161 15.04452363 -0.5 13.1875 C-4.13285994 10.72234504 -7.96697736 10.86429244 -12.25 10.875 C-13.28125 10.87242187 -14.3125 10.86984375 -15.375 10.8671875 C-17.84657009 10.98136329 -19.8942958 11.28649344 -22.25 12 C-21.81562648 7.07710011 -19.606381 4.51249175 -16.25 1 C-11.10108664 -2.1424296 -5.61533702 -1.72779601 0 0 Z " fill="#E4A899" transform="translate(484.25,256)"/>
<path d="M0 0 C3.68153207 1.62611841 6.14795001 3.82843126 8.5 7.0625 C9.09954248 9.3857271 8.79940524 10.76166534 8 13 C7.34 12.67 6.68 12.34 6 12 C3.73255726 11.85056144 1.4596825 11.77855098 -0.8125 11.75 C-2.03582031 11.72421875 -3.25914062 11.6984375 -4.51953125 11.671875 C-8.25005409 12.02357412 -10.1308051 12.60990143 -13 15 C-13.70990939 16.92911172 -13.70990939 16.92911172 -13.5 19 C-13.4896875 19.680625 -13.479375 20.36125 -13.46875 21.0625 C-12.84549412 23.6386243 -12.21424839 24.5238344 -10 26 C-6.73388559 26.130819 -3.58175632 25.86689421 -0.32421875 25.6171875 C3.1023783 26.01178975 5.2866336 26.70133032 7.84155273 29.08789062 C10.47767122 33.4390139 9.88605336 38.87993647 9.875 43.8125 C9.895625 44.98232422 9.91625 46.15214844 9.9375 47.35742188 C9.98454606 50.23899309 10.00444587 53.11812364 10 56 C0.722116 54.9316376 -5.7241149 51.13298112 -12.140625 44.3828125 C-19.33553642 35.16244282 -21.8869668 25.49831504 -21 14 C-19.78687687 8.3355747 -17.47136563 4.78346323 -13 1 C-9.0243899 -0.98780505 -4.32172721 -0.53575131 0 0 Z " fill="#E3A798" transform="translate(149,255)"/>
<path d="M0 0 C3.23734144 0.69089604 4.7190594 1.96258336 6.921875 4.41015625 C12.14537235 12.86304555 13.53184275 22.4756566 11.2734375 32.203125 C9.25732881 37.89820125 6.46582715 42.62074636 0.921875 45.41015625 C-3.41200115 45.63432226 -5.29832044 44.99047593 -8.765625 42.41015625 C-15.74629125 33.3541568 -16.1553636 24.49809696 -15.078125 13.41015625 C-13.03746041 5.86951866 -8.26508246 -0.6058989 0 0 Z " fill="#040102" transform="translate(386.078125,240.58984375)"/>
<path d="M0 0 C5.37682012 2.93281098 7.85539858 8.24024965 9.58984375 13.9375 C11.31463419 22.61073193 9.89744808 31.11339919 6 39 C3.98498621 41.7132859 2.07625297 43.56828478 -1 45 C-5.3684152 45.22595251 -7.22920612 44.59153949 -10.6875 41.9375 C-15.63274783 35.65569871 -17.71674564 30.119209 -17.5625 22.125 C-17.55444336 21.33923584 -17.54638672 20.55347168 -17.53808594 19.74389648 C-17.320829 13.40483633 -16.05564533 8.04821117 -12 3 C-8.27883523 -0.33621669 -4.87718656 -0.84693659 0 0 Z " fill="#040101" transform="translate(240,241)"/>
<path d="M0 0 C16.5 0 33 0 50 0 C48.77964202 6.10178991 46.51537549 8.87313674 42 13 C34.96459483 17.50163036 28.28735451 18.79081945 20 18 C11.14804954 15.59037174 5.68399887 11.57698278 0.91796875 3.8046875 C0 2 0 2 0 0 Z " fill="#E5A899" transform="translate(285,410)"/>
<path d="M0 0 C0.89203125 0.42152344 1.7840625 0.84304688 2.703125 1.27734375 C3.87359375 1.82519531 5.0440625 2.37304688 6.25 2.9375 C7.41015625 3.48277344 8.5703125 4.02804687 9.765625 4.58984375 C19.94794071 9.02923502 30.75528423 7.59932502 41.0625 4.16796875 C44.14147598 2.94374825 47.06056 1.52658417 50 0 C49.00432536 5.71874665 44.69854759 10.06695876 40.0859375 13.37109375 C32.67213011 17.67741166 25.33305592 17.87362683 17 17 C10.42211115 14.60181136 4.70207166 9.98342209 1 4 C0.34765625 1.7890625 0.34765625 1.7890625 0 0 Z " fill="#D45F69" transform="translate(285,435)"/>
<path d="M0 0 C14.52 0 29.04 0 44 0 C39.47851535 5.65185581 36.34197201 8.35874736 29.06787109 9.23193359 C20.76503466 9.83852478 12.00536642 10.13628756 5 5 C3.35 3.35 1.7 1.7 0 0 Z " fill="#E490B6" transform="translate(203,310)"/>
<path d="M0 0 C14.52 0 29.04 0 44 0 C39.50750626 5.61561717 36.82961816 7.37139875 30 9 C20.06909672 9.95083117 10.47618224 9.79478095 2.4375 3.375 C1.633125 2.59125 0.82875 1.8075 0 1 C0 0.67 0 0.34 0 0 Z " fill="#E491B7" transform="translate(373,310)"/>
<path d="M0 0 C9.57 0 19.14 0 29 0 C29 0.66 29 1.32 29 2 C27.730447 2.64834654 26.45930294 3.29357815 25.1875 3.9375 C24.47980469 4.29714844 23.77210938 4.65679687 23.04296875 5.02734375 C17.40924407 7.70955684 10.72759991 8.09973788 4.72265625 6.328125 C3.11236687 5.63000363 1.54862502 4.82593334 0 4 C0 2.68 0 1.36 0 0 Z " fill="#F9C6B9" transform="translate(298,421)"/>
</svg>
