<?xml version="1.0" encoding="UTF-8"?>
<svg version="1.1" xmlns="http://www.w3.org/2000/svg" width="512" height="512">
<path d="M0 0 C2.6875 0.5625 2.6875 0.5625 4.6875 2.5625 C4.50129594 7.20208454 2.49988382 9.13070135 -0.8125 12.1875 C-6.14116055 17.31179431 -10.74871166 22.75617339 -15.3125 28.5625 C-16.1271875 29.57183594 -16.941875 30.58117187 -17.78125 31.62109375 C-24.08028429 39.50767962 -29.34890363 47.78355105 -34.3125 56.5625 C-34.82659424 57.45509521 -34.82659424 57.45509521 -35.35107422 58.36572266 C-41.44414462 68.99140742 -45.96531233 80.1266707 -50.3125 91.5625 C-49.07628906 91.541875 -47.84007812 91.52125 -46.56640625 91.5 C-40.96216243 91.5098688 -36.84744681 92.54899846 -32.39453125 96.0859375 C-24.65064353 103.91238266 -22.83518455 114.93764817 -22.3125 125.5625 C-22.33700913 129.94486816 -22.52863731 134.31113411 -22.75 138.6875 C-22.80220703 139.83476562 -22.85441406 140.98203125 -22.90820312 142.1640625 C-23.03652945 144.96390963 -23.17141889 147.76327156 -23.3125 150.5625 C-22.61108887 149.94544189 -22.61108887 149.94544189 -21.89550781 149.31591797 C-21.27514648 148.77596191 -20.65478516 148.23600586 -20.015625 147.6796875 C-19.09765137 146.87700439 -19.09765137 146.87700439 -18.16113281 146.05810547 C-12.91759681 141.81591034 -7.64644724 141.03779101 -1.11328125 141.19140625 C3.24401064 141.76873223 6.86819231 143.45009279 10.6875 145.5625 C11.1739712 143.4391603 11.65124872 141.31371387 12.125 139.1875 C12.39183594 138.00414062 12.65867187 136.82078125 12.93359375 135.6015625 C15.18871608 124.25288772 14.97527091 112.62789444 15.16430664 101.10375977 C15.31199335 92.47160412 15.614482 83.92070387 16.61328125 75.33984375 C16.69170761 74.66396713 16.77013397 73.98809052 16.85093689 73.29173279 C18.61851326 59.34703574 23.35285988 44.61503293 34.30859375 35.1640625 C39.5283066 31.1417448 44.58698899 29.2410671 51.25 29.6875 C57.39070985 30.62421845 61.08175048 33.43740586 64.8125 38.3125 C83.78787717 69.02982075 75.90331667 120.22284238 68.43017578 153.51513672 C66.60722468 160.99510898 64.20887058 168.2929814 61.6875 175.5625 C75.92219109 170.02379488 75.92219109 170.02379488 89.6875 163.4375 C97.71716633 159.43055452 106.80883031 158.45712345 115.6875 159.5625 C116.30124481 160.05829559 116.91498962 160.55409119 117.54733276 161.06491089 C120.19639479 162.91860081 121.641297 162.92159615 124.84814453 162.88720703 C125.87666534 162.88375275 126.90518616 162.88029846 127.96487427 162.8767395 C129.62581619 162.84880814 129.62581619 162.84880814 131.3203125 162.8203125 C132.46732635 162.81369598 133.61434021 162.80707947 134.79611206 162.80026245 C138.46851316 162.77684713 142.14031405 162.73318592 145.8125 162.6875 C149.4631917 162.65229518 153.11384396 162.6214415 156.76461792 162.59616089 C159.03528521 162.57935876 161.30591808 162.55636603 163.57644653 162.52615356 C170.01874185 162.46613276 176.29332126 162.76246128 182.6875 163.5625 C183.0175 162.5725 183.3475 161.5825 183.6875 160.5625 C190.46402364 157.17423818 200.81272589 159.5761604 207.79296875 161.515625 C211.72873957 162.93908867 215.20627893 164.90068914 218.8125 167.0078125 C222.9968173 169.27052756 227.37737822 170.85771685 231.83984375 172.484375 C234.22175373 173.38616808 236.44048522 174.37131144 238.6875 175.5625 C238.66429687 175.01464844 238.64109375 174.46679688 238.6171875 173.90234375 C238.17814112 154.61566364 242.16479698 130.25422174 255.6875 115.5625 C261.28259212 110.00044977 265.88150788 106.28516186 274.0625 106.25 C279.69613693 106.38611472 284.04152138 107.19214416 288.375 111.07421875 C294.45770999 117.58096381 295.17813649 124.51048317 295.0859375 133.16796875 C294.73225386 138.6552285 293.44391209 143.95817617 292.25 149.3125 C285.69344361 179.05749521 291.74775871 204.9349392 300.55859375 233.703125 C305.96807557 251.4532574 309.34501027 269.04344228 310.6875 287.5625 C315.73637726 274.34467458 315.73637726 274.34467458 318.6875 260.5625 C318.82027344 259.52222656 318.95304687 258.48195313 319.08984375 257.41015625 C320.73896655 240.93745772 316.71473761 225.53012813 313.02734375 209.58984375 C307.91206228 186.99377806 309.51954872 164.61797702 321.6875 144.5625 C328.49359535 134.6190224 336.90791728 126.84533453 348.6875 123.5625 C351.02046527 123.52105757 353.3546501 123.51500485 355.6875 123.5625 C352.28920156 109.42384073 348.75601271 95.55753749 343.17773438 82.10083008 C340.0329293 74.43108641 340.0329293 74.43108641 340.6875 70.5625 C342.6875 68.5625 342.6875 68.5625 345 68.4375 C349.71812487 70.41252902 351.71363687 75.28553261 353.6652832 79.84863281 C354.56813608 82.29934256 355.39307659 84.76204561 356.1875 87.25 C356.48084229 88.14976562 356.77418457 89.04953125 357.07641602 89.9765625 C359.18698532 96.60895898 360.99590727 103.29664449 362.625 110.0625 C362.83640625 110.93994873 363.0478125 111.81739746 363.265625 112.72143555 C364.18727925 116.72976944 364.96767954 120.41923894 364.6875 124.5625 C365.42742187 124.66304688 366.16734375 124.76359375 366.9296875 124.8671875 C372.60878538 126.29902804 376.52500694 130.81876042 379.6875 135.5625 C382.73955947 144.49780567 381.4401583 154.67128236 377.51171875 163.0234375 C376.49304113 164.99971571 375.47366609 166.97563624 374.45166016 168.95019531 C373.02410987 171.71368838 371.60318833 174.48041084 370.1875 177.25 C369.70321533 178.19617188 369.21893066 179.14234375 368.7199707 180.1171875 C355.44063104 206.6532097 357.16066334 233.40927023 363.22851562 261.8371582 C363.67219194 264.47160435 363.77248796 266.89721676 363.6875 269.5625 C364.55761719 268.83933594 364.55761719 268.83933594 365.4453125 268.1015625 C371.09947598 263.52971415 375.42437563 260.24726401 382.9375 260.5625 C390.18842017 261.62629436 396.43336959 265.6248986 401.125 271.1875 C407.7842973 281.05382433 407.504874 292.61957489 405.5 303.8125 C400.78908202 326.64123847 388.26214737 343.26587129 372.03930664 359.18188477 C362.7644832 368.34472633 349.95958885 381.24360371 349.62890625 395 C349.83364778 399.43826807 350.20805595 402.52194803 353.25 405.875 C355.6875 408.5625 355.6875 408.5625 356.0625 411.375 C355.6875 413.5625 355.6875 413.5625 354.6875 414.5625 C353.32230715 414.66001636 351.95212139 414.68881605 350.58345032 414.68948364 C349.69884628 414.69230347 348.81424225 414.69512329 347.90283203 414.69802856 C346.92467529 414.69600433 345.94651855 414.6939801 344.9387207 414.69189453 C343.40214058 414.69452301 343.40214058 414.69452301 341.83451843 414.69720459 C338.42742243 414.70162737 335.02037783 414.69868254 331.61328125 414.6953125 C329.25253794 414.69598568 326.8917947 414.69695582 324.53105164 414.69821167 C319.57188256 414.69968943 314.61273145 414.69753255 309.65356445 414.69287109 C303.29920416 414.68718931 296.94488625 414.69044246 290.59052753 414.69644356 C285.71005434 414.70006035 280.82959116 414.69890516 275.94911766 414.69631577 C273.60677269 414.69564879 271.26442681 414.69646693 268.9220829 414.69879532 C265.64244821 414.70133841 262.36288159 414.6974571 259.08325195 414.69189453 C258.11521637 414.69391876 257.14718079 414.69594299 256.14981079 414.69802856 C252.38892629 414.68622819 248.91231581 414.60085103 245.19572449 413.96684265 C241.78148439 413.41644419 240.52825226 414.72560362 237.6875 416.5625 C234.99609375 417.02661133 234.99609375 417.02661133 232.125 417.14453125 C231.08085937 417.18900391 230.03671875 417.23347656 228.9609375 417.27929688 C227.88070313 417.31087891 226.80046875 417.34246094 225.6875 417.375 C224.60726563 417.42591797 223.52703125 417.47683594 222.4140625 417.52929688 C217.22933006 417.71812355 213.47031637 417.77325053 208.6875 415.5625 C208.6875 414.9025 208.6875 414.2425 208.6875 413.5625 C208.00679443 413.72097412 207.32608887 413.87944824 206.62475586 414.04272461 C200.26719148 415.16775616 193.69589023 414.9720314 187.25 415.125 C186.40321686 415.14684357 185.55643372 415.16868713 184.68399048 415.19119263 C171.30161359 415.52717434 157.92462148 415.58731511 144.5390625 415.5546875 C143.75240393 415.55305288 142.96574535 415.55141827 142.15524864 415.54973412 C134.16931587 415.5329742 126.18360083 415.5078483 118.19783401 415.45259857 C115.16747536 415.43337913 112.13711852 415.42200625 109.10671616 415.41225052 C107.67961348 415.40569757 106.25252245 415.39548975 104.82547379 415.38145065 C102.85596605 415.36229791 100.88634212 415.35648749 98.91674805 415.35131836 C97.25025459 415.34013222 97.25025459 415.34013222 95.5500946 415.32872009 C92.68725228 415.56252023 91.14502851 416.1620368 88.6875 417.5625 C85.02320687 417.9234237 81.36329783 417.70843738 77.6875 417.5625 C76.56601563 417.52125 75.44453125 417.48 74.2890625 417.4375 C65.35180284 416.94666652 65.35180284 416.94666652 62.07997131 415.05456543 C57.69522124 413.12607926 54.09822387 413.14385242 49.36499023 413.17773438 C48.44555634 413.1723616 47.52612244 413.16698883 46.5788269 413.16145325 C44.59001703 413.15169742 42.6011647 413.14872444 40.6123333 413.15180969 C37.46401075 413.15629571 34.31624787 413.14226595 31.16798401 413.12341309 C23.35184503 413.08043381 15.53571885 413.06937742 7.71948242 413.05718994 C1.10804933 413.0456639 -5.50312802 413.02211257 -12.11445427 412.98249817 C-15.21496678 412.96892052 -18.31513406 412.97309964 -21.41566467 412.97790527 C-23.31690919 412.96856545 -25.21814989 412.95839683 -27.11938477 412.94726562 C-28.41076103 412.95648796 -28.41076103 412.95648796 -29.72822571 412.96589661 C-34.4290672 412.91754906 -37.47381822 412.57412519 -41.3125 409.5625 C-46.0816621 404.30034586 -49.18889396 397.96719413 -52.25 391.625 C-56.98704504 381.86171996 -63.15375802 373.84712047 -70.25 365.6875 C-81.77564241 352.41807226 -91.73661708 338.94090678 -91.3125 320.5625 C-90.73578137 314.72540837 -89.26339021 310.03324419 -85.3125 305.5625 C-80.34651145 302.02009483 -75.4105617 300.62522676 -69.3125 301.5625 C-64.02413784 302.72382817 -59.62955812 304.86101668 -55.0234375 307.6796875 C-54.1370459 308.21964355 -53.2506543 308.75959961 -52.33740234 309.31591797 C-51.33507568 309.93297607 -51.33507568 309.93297607 -50.3125 310.5625 C-50.55782471 310.04268555 -50.80314941 309.52287109 -51.0559082 308.98730469 C-75.26996615 257.39475638 -97.80453576 198.32587007 -85.3125 140.5625 C-85.06306641 139.40766113 -85.06306641 139.40766113 -84.80859375 138.22949219 C-81.51582136 123.67421868 -76.42918353 109.52921262 -65.390625 99.06640625 C-61.04412114 93.8293593 -59.07343773 87.02836757 -56.67578125 80.7265625 C-46.28929521 53.64281409 -30.7502413 30.68316336 -11.63427734 9.05859375 C-10.48284343 7.75530837 -9.34382959 6.44107081 -8.20703125 5.125 C-4.17362174 0.70872822 -4.17362174 0.70872822 0 0 Z " fill="#3B3345" transform="translate(98.3125,79.4375)"/>
<path d="M0 0 C29.86766715 10.20101139 64.38335813 28.34628816 84.45703125 53.5234375 C87.0883689 55.58274523 90.22900465 55.69988069 93.44921875 56.1640625 C109.97036284 58.96450922 124.91425153 66.00922672 135.07421875 79.7890625 C136.06421875 81.0575 136.06421875 81.0575 137.07421875 82.3515625 C138.52025762 85.87628224 138.45065153 88.32201011 137.07421875 91.7890625 C128.29227682 106.52707396 115.47220029 115.31475611 99.07421875 119.7890625 C84.05151926 123.06674239 67.76852166 120.32149149 54.55859375 112.515625 C50.40344845 109.62792968 46.69670052 106.31315588 43.07421875 102.7890625 C40.02363559 104.25138333 37.19072606 105.93271318 34.32421875 107.7265625 C23.7679391 114.06965837 23.7679391 114.06965837 18.07421875 113.4765625 C17.41421875 113.2496875 16.75421875 113.0228125 16.07421875 112.7890625 C15.32898203 108.89727073 14.98812043 105.59832207 15.51171875 101.6640625 C17.01587213 89.61050905 16.48484075 76.58040398 10.921875 65.4921875 C9.6902397 63.01756543 10.30770052 61.36735109 11.07421875 58.7890625 C12.07421875 57.7890625 12.07421875 57.7890625 15.82421875 57.4765625 C25.44083482 57.61416114 34.10512487 61.27048926 41.953125 66.6171875 C44.25386752 68.11145491 44.25386752 68.11145491 48.07421875 67.7890625 C50.38399232 66.39857105 50.38399232 66.39857105 52.69921875 64.5390625 C58.93927456 59.99497459 65.18775464 56.44010391 73.07421875 56.7890625 C69.60318607 52.36608616 66.03509818 48.88121355 61.57421875 45.4765625 C60.9611084 45.0036377 60.34799805 44.53071289 59.71630859 44.04345703 C48.70076672 35.61547755 37.34473435 28.24769067 25.07421875 21.7890625 C24.43597168 21.4502002 23.79772461 21.11133789 23.14013672 20.76220703 C-7.9113834 4.52730917 -41.38653009 -0.7558471 -75.92578125 -2.2109375 C-78.05078125 -6.8359375 -78.05078125 -6.8359375 -76.92578125 -10.2109375 C-58.22396207 -19.56184709 -18.37913065 -5.92549199 0 0 Z " fill="#3A3347" transform="translate(317.92578125,31.2109375)"/>
<path d="M0 0 C4.4937586 3.98310421 8.41087058 9.39133516 8.92700195 15.54931641 C9.29202829 30.38014755 8.28953467 44.7217374 6.26098633 59.38720703 C3.96575804 76.23969956 3.51836093 93.0680095 3.5 110.0625 C3.49799591 110.97461243 3.49599182 111.88672485 3.493927 112.82647705 C3.48593501 127.73365802 3.58887693 142.98876535 7.28222656 157.53344727 C9.43699084 166.30432753 7.29438901 174.39933207 3.75 182.4375 C0.22351681 178.09996265 -1.03558259 173.60568525 -2.625 168.3125 C-3.08181152 166.79789185 -3.08181152 166.79789185 -3.54785156 165.25268555 C-6.98014915 153.47694533 -9.19224218 141.51675458 -11.25 129.4375 C-11.40452637 128.57092773 -11.55905273 127.70435547 -11.71826172 126.81152344 C-16.64037674 99.09486673 -16.84227399 70.50828081 -18.25 42.4375 C-19.24 42.4375 -20.23 42.4375 -21.25 42.4375 C-21.82328859 88.468164 -20.92047682 135.38973791 -4.12915039 178.97314453 C-2.7747422 182.54956604 -1.63614781 185.60264812 -2.25 189.4375 C-7.22297297 193.4375 -7.22297297 193.4375 -10.25 193.4375 C-16.43297446 178.8942219 -22.44873086 164.32815795 -27.75 149.4375 C-28.14622559 148.32536133 -28.54245117 147.21322266 -28.95068359 146.06738281 C-37.0645837 122.9630436 -41.72942901 101.54712368 -41.75 77.0625 C-41.7543103 76.18220123 -41.75862061 75.30190247 -41.76306152 74.39492798 C-41.81181055 51.14137206 -39.41240822 24.95507898 -24.75 5.9375 C-17.2809655 -1.5315345 -10.10005729 -4.85579677 0 0 Z " fill="#8EDA7B" transform="translate(59.25,180.5625)"/>
<path d="M0 0 C1.38711719 1.14404759 2.72433729 2.34827941 4.046875 3.56640625 C8.12630266 2.03566416 11.88468546 0.10118057 15.734375 -1.93359375 C23.36294983 -5.84504132 30.42415164 -7.8874213 39.046875 -7.43359375 C40.45635351 -5.04277185 41.15900703 -3.21471039 40.75927734 -0.43017578 C40.15094482 1.90666732 39.46520765 4.20244097 38.734375 6.50390625 C34.83298243 19.32276754 34.58443299 30.61444358 36.0234375 43.94921875 C36.03503906 45.24472656 36.03503906 45.24472656 36.046875 46.56640625 C35.056875 47.55640625 35.056875 47.55640625 34.046875 48.56640625 C26.06774905 48.42392186 19.29116147 45.24646898 13.171875 40.19140625 C11.2454013 38.33917612 11.2454013 38.33917612 9.19921875 38.73046875 C6.4438918 39.80059573 4.70587398 41.36939232 2.484375 43.31640625 C-10.61418027 54.03689292 -26.44520697 56.89631243 -42.953125 55.56640625 C-58.56183935 53.49147536 -72.6406258 45.09055294 -82.1875 32.65625 C-87.72083839 24.43370915 -87.72083839 24.43370915 -86.953125 19.56640625 C-78.3631397 5.21855614 -63.42015818 -4.18307233 -47.515625 -8.43359375 C-31.26300876 -11.53893234 -13.67206174 -10.03529332 0 0 Z " fill="#3B3447" transform="translate(167.953125,24.43359375)"/>
<path d="M0 0 C6.09407988 3.11475194 7.67321368 9.2837698 9.84375 15.36328125 C13.96552044 28.61477322 14.22806514 42.91031444 14.46133423 56.67733765 C14.49927222 58.64966402 14.56419375 60.62141225 14.62963867 62.59301758 C14.67960943 69.59946809 14.33779425 74.17604131 9.54150391 79.48120117 C8.77845947 80.23300659 8.77845947 80.23300659 8 81 C7.35933594 81.72832031 6.71867187 82.45664063 6.05859375 83.20703125 C-1.81021898 91 -1.81021898 91 -6 91 C-5.9285376 89.69466309 -5.8570752 88.38932617 -5.78344727 87.04443359 C-5.05089546 72.89425804 -4.87763439 58.79168841 -4.9375 44.625 C-4.9425355 42.50911567 -4.94709471 40.39323015 -4.95117188 38.27734375 C-4.96199112 33.18486545 -4.97913721 28.09244664 -5 23 C-6.32 23.33 -7.64 23.66 -9 24 C-9.01458252 24.77561279 -9.02916504 25.55122559 -9.04418945 26.3503418 C-9.98133874 71.77393456 -13.11659485 115.96919498 -32 158 C-32.26256592 158.62849854 -32.52513184 159.25699707 -32.7956543 159.90454102 C-35.53313374 165.6290774 -40.22998114 168.18019522 -45.5625 171.3125 C-46.42552734 171.83650391 -47.28855469 172.36050781 -48.17773438 172.90039062 C-49.77345788 173.86873566 -51.37335464 174.83026275 -52.97875977 175.7824707 C-54.68158 176.80819416 -56.34597581 177.89731721 -58 179 C-56.19125829 164.95801264 -51.32338507 151.75771417 -46.5625 138.5 C-45.99616666 136.9129666 -45.43040956 135.32572746 -44.86523438 133.73828125 C-44.58779388 132.95904297 -44.31035339 132.17980469 -44.02450562 131.37695312 C-42.93265667 128.30270581 -41.84809585 125.22590633 -40.76397705 122.14892578 C-40.04968587 120.13975715 -39.31741036 118.13806047 -38.58154297 116.13671875 C-32.54962508 99.17237312 -31.55512143 82.67415472 -31.4375 64.8125 C-31.0675714 20.87320324 -31.0675714 20.87320324 -17 6 C-11.49635747 0.77279614 -7.56684916 -0.89330858 0 0 Z " fill="#4B9C5D" transform="translate(152,117)"/>
<path d="M0 0 C40.26 0 80.52 0 122 0 C120 28 120 28 118 38 C104.40159959 38.93323912 90.86931615 39.13342599 77.2421875 39.09765625 C75.11557041 39.09578571 72.98895288 39.09436482 70.86233521 39.09336853 C65.32890585 39.08959337 59.79550373 39.07980728 54.26208496 39.06866455 C48.59009164 39.05834143 42.91809381 39.05384782 37.24609375 39.04882812 C26.16405069 39.0381793 15.08202763 39.02116484 4 39 C3.67969267 36.60288555 3.35956938 34.20574675 3.03955078 31.80859375 C2.90441826 30.79750549 2.90441826 30.79750549 2.76655579 29.76599121 C2.11007294 24.84696132 1.46780678 19.92709897 0.875 15 C0.78863281 14.31550781 0.70226562 13.63101562 0.61328125 12.92578125 C0.08583557 8.53040062 0 4.47650527 0 0 Z " fill="#BD4C4C" transform="translate(188,449)"/>
<path d="M0 0 C11.88 0 23.76 0 36 0 C36.04125 4.021875 36.0825 8.04375 36.125 12.1875 C36.14320801 13.40590576 36.16141602 14.62431152 36.18017578 15.87963867 C36.23251788 26.81829319 35.0564412 36.90736743 34 48 C-2.63 48 -39.26 48 -77 48 C-83.14649682 18.49681529 -83.14649682 18.49681529 -83 10 C-79.41673499 9.94185915 -75.83359162 9.90635643 -72.25 9.875 C-71.23421875 9.85824219 -70.2184375 9.84148437 -69.171875 9.82421875 C-68.1921875 9.81777344 -67.2125 9.81132812 -66.203125 9.8046875 C-65.30239258 9.79421387 -64.40166016 9.78374023 -63.47363281 9.77294922 C-60.79235806 10.01905912 -59.20372436 10.4533839 -57 12 C-56.47339552 14.66892723 -56.16410607 17.05672983 -56 19.75 C-55.63807619 25.5620706 -54.97221384 29.41048266 -51 34 C-46.42385271 36.80014253 -42.95315553 37.3842525 -37.625 37.3984375 C-36.59366943 37.40274277 -36.59366943 37.40274277 -35.54150391 37.40713501 C-34.09602021 37.40916541 -32.65050838 37.40370751 -31.20507812 37.39111328 C-29.00587917 37.37504296 -26.80851752 37.39099482 -24.609375 37.41015625 C-23.19791265 37.40817363 -21.78645144 37.40432957 -20.375 37.3984375 C-19.10398437 37.39505371 -17.83296875 37.39166992 -16.5234375 37.38818359 C-11.37356032 36.82081215 -8.1212553 35.30813118 -4.75 31.375 C-1.09959875 24.33494045 -0.66690256 16.75038967 -0.375 8.9375 C-0.25125 5.988125 -0.1275 3.03875 0 0 Z " fill="#BC4D4D" transform="translate(277,395)"/>
<path d="M0 0 C1.37671875 0.01353516 1.37671875 0.01353516 2.78125 0.02734375 C5.02111556 0.05067568 7.26041183 0.08340765 9.5 0.125 C8.73044011 3.34697059 7.68985144 6.30471906 6.4375 9.375 C6.07527344 10.26703125 5.71304688 11.1590625 5.33984375 12.078125 C4.92412109 13.09132813 4.92412109 13.09132813 4.5 14.125 C3.76136719 13.8053125 3.02273438 13.485625 2.26171875 13.15625 C-1.81036065 11.63569984 -5.21665286 11.33029094 -9.5 12.125 C-13.94601524 14.19557281 -18.02344436 16.64844436 -21.5 20.125 C-21.1829557 23.65672599 -19.50629252 25.61051216 -17.1875 28.1875 C-16.59324219 28.85910156 -15.99898438 29.53070313 -15.38671875 30.22265625 C-11.94282976 33.89332056 -11.94282976 33.89332056 -7.31640625 35.26953125 C-3.12041175 34.65140381 0.63818926 33.9936181 4.5 32.125 C4.75394531 32.66769531 5.00789063 33.21039063 5.26953125 33.76953125 C5.61371094 34.48496094 5.95789063 35.20039063 6.3125 35.9375 C6.64894531 36.64519531 6.98539062 37.35289062 7.33203125 38.08203125 C8.53313072 40.18295105 9.60969487 41.61561278 11.5 43.125 C12.49 43.125 13.48 43.125 14.5 43.125 C13.9381925 38.77099191 12.26665258 35.15168533 10.4375 31.2109375 C7.26256747 24.14671262 7.88983702 17.28376342 10.59375 10.1484375 C11.90671791 7.21689707 13.01223591 5.19813674 15.5 3.125 C24.08571823 2.78157127 31.69611914 8.16501691 37.875 13.625 C41.07561795 16.58583224 43.83756127 19.67233973 46.5 23.125 C43.20829303 32.76010062 34.27003778 40.38508932 25.5 45.125 C11.79011872 51.25632035 -2.18404027 52.30563736 -16.5 47.125 C-24.0666239 43.98292736 -29.7398887 39.50287375 -35.35351562 33.64453125 C-36.91313591 32.02117378 -36.91313591 32.02117378 -39.5 30.125 C-43.26348448 30.13611812 -45.18244563 31.35965514 -47.8125 33.9375 C-51.23103825 37.28715083 -55.21608249 39.10793774 -59.5 41.125 C-59.48428955 40.4858667 -59.4685791 39.8467334 -59.45239258 39.18823242 C-59.3891737 36.22974877 -59.3507382 33.27140796 -59.3125 30.3125 C-59.28736328 29.30767578 -59.26222656 28.30285156 -59.23632812 27.26757812 C-59.17490486 20.90003333 -59.930251 15.47464204 -61.8503418 9.39575195 C-62.5 7.125 -62.5 7.125 -62.5 4.125 C-53.91767172 5.48727433 -48.22341251 8.82470255 -41.75 14.5625 C-39.62054221 16.32239174 -39.62054221 16.32239174 -37.0625 16.3125 C-34.36793037 15.063797 -33.60930274 14.20873942 -31.8125 11.9375 C-23.6738678 1.76944024 -12.29992242 -0.23241132 0 0 Z " fill="#698CC4" transform="translate(401.5,93.875)"/>
<path d="M0 0 C15.01870123 -0.52955264 27.2645609 -0.59557305 39 10 C40.04834511 11.13972628 41.09040544 12.28527712 42.125 13.4375 C44.72724076 16.27250121 44.72724076 16.27250121 47.9375 16.25 C51.35348584 14.85572007 53.25930158 13.10568292 55.9375 10.63671875 C59.78202464 7.58585544 64.31809477 5.44113775 69 4 C71.33203125 4.37109375 71.33203125 4.37109375 73 5 C72.71125 5.92296875 72.4225 6.8459375 72.125 7.796875 C68.86369967 18.98179805 68.57230758 29.40478339 69 41 C65.54032953 39.7402942 62.78936973 38.30827902 59.875 36.0625 C59.21242188 35.55847656 58.54984375 35.05445313 57.8671875 34.53515625 C56 33 56 33 54.5703125 31.24609375 C53.01726663 29.74164093 53.01726663 29.74164093 50.57421875 30.05078125 C47.416076 31.21531644 46.04690765 32.68479575 43.8125 35.1875 C34.6024273 44.81064905 23.70086489 49.34103256 10.4921875 50.23828125 C-3.52319314 50.52585385 -15.80720249 47.19777321 -26.4765625 37.82421875 C-30.5644231 33.86285547 -34.10676337 29.90592298 -37 25 C-32.24383513 14.73669686 -23.04319194 8.78585244 -13.125 4 C-8.17073171 2.41463415 -8.17073171 2.41463415 -5 4 C0.4569234 10.921352 1.83215123 17.3012458 1 26 C-0.36413217 31.06862378 -2.08500714 35.62751071 -5 40 C-5 40.99 -5 41.98 -5 43 C-2.62766389 42.96219702 -2.62766389 42.96219702 0 42 C2.31308125 39.04439618 3.81355048 36.55934855 5 33 C7.16874252 33.50603992 8.99967627 33.99983813 11 35 C15.51352187 35.37612682 18.02502888 35.46798614 22.125 33.5 C25.62891296 30.45311917 28.89857192 27.18650264 31 23 C30.83765184 20.37783124 30.3817234 19.36312661 28.4765625 17.55078125 C27.86554688 17.14214844 27.25453125 16.73351562 26.625 16.3125 C25.71621094 15.68794922 25.71621094 15.68794922 24.7890625 15.05078125 C21.32870731 13.01838923 18.42248931 12.86445567 14.5 12.875 C13.5409375 12.87242188 12.581875 12.86984375 11.59375 12.8671875 C8.88428848 12.89007028 8.88428848 12.89007028 6 14 C4.9923048 12.2335343 3.99408286 10.46166177 3 8.6875 C2.443125 7.70136719 1.88625 6.71523438 1.3125 5.69921875 C0 3 0 3 0 0 Z " fill="#698CC4" transform="translate(126,22)"/>
<path d="M0 0 C6.24288022 3.60166167 9.04336896 9.16428049 11 16 C12.84872259 30.35573277 9.17373042 46.95648959 1 59 C-3.58948202 63.79324338 -9.74371168 66.90223074 -16 69 C-16.99 69 -17.98 69 -19 69 C-17.48228612 65.7617095 -15.62306669 62.89969931 -13.625 59.9375 C-7.33836012 50.04162011 -4.11260513 40.46896411 -6.4609375 28.6875 C-6.9017544 27.1031146 -7.43798105 25.54555211 -8 24 C-8.99 24 -9.98 24 -11 24 C-11.01417969 25.23234375 -11.02835937 26.4646875 -11.04296875 27.734375 C-11.41323075 43.43475504 -15.13201128 53.58163646 -25 66 C-25.69996094 66.92941406 -26.39992188 67.85882813 -27.12109375 68.81640625 C-27.74113281 69.53699219 -28.36117187 70.25757813 -29 71 C-29.66 71 -30.32 71 -31 71 C-31.20625 71.53753906 -31.4125 72.07507813 -31.625 72.62890625 C-33.54511745 75.94001788 -36.25069589 78.32407065 -39 80.9375 C-52.82127415 94.46319351 -63.94227766 109.43381821 -64.625 129.375 C-64.66367187 130.30183594 -64.70234375 131.22867188 -64.7421875 132.18359375 C-64.83587591 134.4555377 -64.92159348 136.72748596 -65 139 C-67.64590014 139.02684679 -70.29153096 139.04676357 -72.9375 139.0625 C-73.69224609 139.07087891 -74.44699219 139.07925781 -75.22460938 139.08789062 C-77.14994313 139.09652441 -79.07535581 139.05224333 -81 139 C-82.57515373 137.42484627 -82.20813951 135.87471081 -82.25 133.6875 C-81.90648662 111.73387218 -66.06347746 94.73620872 -51.12890625 80.17578125 C-50.59136719 79.66402344 -50.05382812 79.15226562 -49.5 78.625 C-35.71566086 64.97352196 -27.21190254 49.51320737 -25.0625 30.125 C-23.80702529 19.08309338 -21.94890689 8.4770472 -13 1 C-8.62937926 -1.72066753 -4.85374976 -1.2599455 0 0 Z " fill="#4B9A5D" transform="translate(486,348)"/>
<path d="M0 0 C1.14138428 -0.00960754 2.28276855 -0.01921509 3.45874023 -0.02911377 C4.67762939 -0.03336365 5.89651855 -0.03761353 7.15234375 -0.04199219 C9.04932007 -0.0505423 9.04932007 -0.0505423 10.98461914 -0.05926514 C13.65417067 -0.06869513 16.32361032 -0.07560298 18.99316406 -0.07910156 C22.40266536 -0.08459518 25.81176915 -0.10866013 29.22114563 -0.13707352 C32.48984789 -0.16023594 35.75857092 -0.16215056 39.02734375 -0.16699219 C40.24623291 -0.17933899 41.46512207 -0.19168579 42.72094727 -0.20440674 C51.86095896 -0.18037445 57.22004932 1.81919322 63.99609375 7.93066406 C69.88683747 14.20606456 76.08984375 22.30228553 76.08984375 31.16113281 C54.46311836 31.26054318 32.84390451 30.98532091 11.21960449 30.6975708 C6.56568977 30.63601217 1.9117501 30.57640107 -2.7421875 30.51660156 C-11.7982018 30.399964 -20.85418751 30.28125207 -29.91015625 30.16113281 C-28.26623356 19.36956075 -22.77102265 10.6364983 -14.91015625 3.16113281 C-10.23402655 0.04371301 -5.50827809 0.03765034 0 0 Z " fill="#F4958C" transform="translate(226.91015625,248.8388671875)"/>
<path d="M0 0 C4.47933553 3.19952538 6.93800716 5.21193786 8.3203125 10.5703125 C9.59110018 24.09279678 1.3284106 35.99724083 -4.77709961 47.52148438 C-7.41588152 52.61518468 -9.27156745 57.28283806 -10.5625 62.875 C-10.72339111 63.56722656 -10.88428223 64.25945312 -11.05004883 64.97265625 C-11.50250195 66.93764799 -11.93928825 68.90622839 -12.375 70.875 C-12.5915625 71.761875 -12.808125 72.64875 -13.03125 73.5625 C-14.06892147 78.07942288 -14.40456325 82.27079919 -14.45800781 86.9140625 C-14.6314941 95.79010508 -14.6314941 95.79010508 -17.14453125 99.45703125 C-22.13836558 103.875 -22.13836558 103.875 -25.375 103.875 C-31.52795121 53.4566425 -31.52795121 53.4566425 -19.125 29.375 C-17.63803653 26.40107307 -16.78329302 24.14134412 -16.375 20.875 C-21.0489002 23.15140735 -22.73370264 25.73501286 -25.1875 30.25 C-28.41350872 35.85221701 -31.4179213 39.26579953 -37.375 41.875 C-38.01953125 42.18824219 -38.6640625 42.50148437 -39.328125 42.82421875 C-42.16700683 44.14227103 -44.21806547 44.875 -47.375 44.875 C-46.44817676 29.85407165 -41.58611829 17.24772162 -30.375 6.875 C-21.19362 0.2337545 -11.24039961 -3.74679987 0 0 Z " fill="#8EDA7B" transform="translate(464.375,211.125)"/>
<path d="M0 0 C0.2184479 38.76610013 -1.44528718 77.24882535 -5.5625 115.8125 C-5.67706543 116.92028809 -5.79163086 118.02807617 -5.90966797 119.16943359 C-6.08006592 120.67304443 -6.08006592 120.67304443 -6.25390625 122.20703125 C-6.39807983 123.49830933 -6.39807983 123.49830933 -6.54516602 124.81567383 C-7 127 -7 127 -9 130 C-12.58150417 131.46440007 -16.43970507 131.09778051 -20.25 131.0625 C-21.51328125 131.05347656 -22.7765625 131.04445313 -24.078125 131.03515625 C-25.04234375 131.02355469 -26.0065625 131.01195312 -27 131 C-28.20460641 126.61662994 -27.76940973 122.77204823 -27.109375 118.3515625 C-26.89312692 116.79384188 -26.67732741 115.23605893 -26.46191406 113.67822266 C-26.34561646 112.85670715 -26.22931885 112.03519165 -26.10949707 111.18878174 C-21.25073249 76.53811852 -19.49128611 41.9627428 -19 7 C-17.10435574 6.20788071 -15.20847629 5.41632424 -13.3125 4.625 C-12.25675781 4.18414062 -11.20101563 3.74328125 -10.11328125 3.2890625 C-8.57220703 2.65097656 -8.57220703 2.65097656 -7 2 C-5.62908203 1.42378906 -5.62908203 1.42378906 -4.23046875 0.8359375 C-2 0 -2 0 0 0 Z " fill="#8AA3C1" transform="translate(344,359)"/>
<path d="M0 0 C4.31931387 0.61611835 8.25208775 1.64238578 12.375 3.0625 C13.43460938 3.42472656 14.49421875 3.78695313 15.5859375 4.16015625 C16.38257813 4.43730469 17.17921875 4.71445312 18 5 C18.01458252 6.0430127 18.02916504 7.08602539 18.04418945 8.16064453 C18.56988419 43.26497761 20.9564068 77.82727045 25.46191406 112.64819336 C25.57120239 113.51164871 25.68049072 114.37510406 25.79309082 115.26472473 C25.99823328 116.88174569 26.20937942 118.49802068 26.4276123 120.11332703 C26.88070859 123.71142827 27.01857433 126.52693364 26 130 C23.04019468 129.91329863 20.08353131 129.80646977 17.125 129.6875 C16.28324219 129.66494141 15.44148437 129.64238281 14.57421875 129.61914062 C13.76855469 129.58369141 12.96289062 129.54824219 12.1328125 129.51171875 C11.38918457 129.48553467 10.64555664 129.45935059 9.87939453 129.43237305 C8 129 8 129 6 126 C5.54516602 123.72729492 5.54516602 123.72729492 5.25390625 120.98046875 C5.14022705 119.92069824 5.02654785 118.86092773 4.90942383 117.76904297 C4.79493896 116.58713379 4.6804541 115.40522461 4.5625 114.1875 C4.43834717 112.9205127 4.31419434 111.65352539 4.1862793 110.34814453 C3.76243671 105.90115323 3.37685153 101.45119286 3 97 C2.92998779 96.17771912 2.85997559 95.35543823 2.7878418 94.50823975 C0.13445191 62.98082943 -0.38102918 31.6273759 0 0 Z " fill="#CEDFEA" transform="translate(155,360)"/>
<path d="M0 0 C1.49237585 -0.00067677 2.98475159 -0.00164987 4.47712708 -0.00289917 C7.59600887 -0.00436455 10.71486183 -0.0022632 13.83374023 0.00244141 C17.75081665 0.00807416 21.6678241 0.00480692 25.58489799 -0.00101089 C43.54723037 -0.02347149 61.45134986 0.19945944 79.39453125 1.1328125 C81.19228145 5.30371737 81.6117239 8.38177641 81.51953125 12.9453125 C81.50148438 14.10675781 81.4834375 15.26820313 81.46484375 16.46484375 C81.44164062 17.34527344 81.4184375 18.22570312 81.39453125 19.1328125 C76.12740917 21.19151342 71.09557979 21.76911918 65.51171875 22.234375 C64.02235306 22.35989243 64.02235306 22.35989243 62.50289917 22.48794556 C49.90615568 23.44672127 37.29035739 23.50732574 24.66455078 23.50341797 C21.17384991 23.50321167 17.68393496 23.53093598 14.19342232 23.56496239 C10.8047182 23.59261306 7.41615895 23.59137723 4.02734375 23.59375 C2.17098801 23.61530655 2.17098801 23.61530655 0.27713013 23.63729858 C-8.34906466 23.59179054 -15.03640974 22.54324666 -21.41796875 16.4453125 C-24.50322192 11.77335769 -27.60546875 6.84509542 -27.60546875 1.1328125 C-18.39284761 0.18296003 -9.25527062 -0.01508308 0 0 Z " fill="#F6968C" transform="translate(225.60546875,284.8671875)"/>
<path d="M0 0 C7.3010318 7.73050426 8.69362353 14.96352738 8.46875 25.40625 C7.86251978 32.18500609 5.28173294 37.63091697 0.1875 42.1875 C-7.8715334 47.61501229 -15.56705366 49.60240433 -25.17578125 47.82421875 C-31.95469133 45.91582092 -37.33912644 42.11244325 -41.2265625 36.19140625 C-45.28127491 28.47578443 -45.92350832 20.68108232 -43.8125 12.25 C-41.51935436 5.28483802 -37.24003288 0.23540959 -30.75 -3.1875 C-20.00661548 -7.85943158 -9.84173507 -5.99062135 0 0 Z " fill="#3B3447" transform="translate(295.875,169.75)"/>
<path d="M0 0 C6.09407988 3.11475194 7.67321368 9.2837698 9.84375 15.36328125 C13.96552044 28.61477322 14.22806514 42.91031444 14.46133423 56.67733765 C14.49927222 58.64966402 14.56419375 60.62141225 14.62963867 62.59301758 C14.67960943 69.59946809 14.33779425 74.17604131 9.54150391 79.48120117 C8.77845947 80.23300659 8.77845947 80.23300659 8 81 C7.35933594 81.72832031 6.71867187 82.45664063 6.05859375 83.20703125 C-1.81021898 91 -1.81021898 91 -6 91 C-5.9285376 89.69466309 -5.8570752 88.38932617 -5.78344727 87.04443359 C-5.05089546 72.89425804 -4.87763439 58.79168841 -4.9375 44.625 C-4.9425355 42.50911567 -4.94709471 40.39323015 -4.95117188 38.27734375 C-4.96199112 33.18486545 -4.97913721 28.09244664 -5 23 C-6.32 23.33 -7.64 23.66 -9 24 C-8.94457031 25.09957031 -8.88914063 26.19914062 -8.83203125 27.33203125 C-8.71162558 34.37137738 -8.60720709 40.48419882 -13.60083008 45.87841797 C-25.45289694 57 -25.45289694 57 -30 57 C-30.63509529 31.37471942 -30.63509529 31.37471942 -27 22 C-26.67128906 21.14792969 -26.34257813 20.29585937 -26.00390625 19.41796875 C-22.830053 12.2685623 -17.70778533 4.96075562 -11 0.7421875 C-7.35319502 -0.61111904 -3.82116403 -0.52729324 0 0 Z " fill="#8DD87B" transform="translate(152,117)"/>
<path d="M0 0 C1 2 1 2 0.4765625 3.84765625 C-0.08436928 5.3065935 -0.6468316 6.76494335 -1.2109375 8.22265625 C-3.23441047 15.34488042 -3.19282522 22.83271102 -3.1875 30.1875 C-3.18814453 31.15179932 -3.18878906 32.11609863 -3.18945312 33.10961914 C-3.14405242 39.44869234 -2.70167761 45.6419095 -2 51.9375 C-0.97169726 61.67398497 -0.71519564 71.39036834 -0.64550781 81.17337036 C-0.63208733 82.85953786 -0.61184959 84.54566829 -0.58398438 86.23165894 C-0.34862843 101.68173155 -2.65169642 116.22117597 -8.25 130.6875 C-8.6982312 131.86481689 -8.6982312 131.86481689 -9.15551758 133.06591797 C-14.81684028 147.52803748 -22.93643904 162.93643904 -34 174 C-37.03989923 174.32339354 -39.14368353 174.45670212 -41.875 173 C-43.70569436 169.74543225 -43.62792464 166.58138307 -43 163 C-41.39671486 159.62241265 -39.28709455 156.66680408 -37.125 153.625 C-35.92151837 151.84793158 -34.72236518 150.06792488 -33.52734375 148.28515625 C-32.92905762 147.39715332 -32.33077148 146.50915039 -31.71435547 145.59423828 C-25.12307945 135.6200288 -19.81529324 125.20645457 -15.5 114.0625 C-15.17346436 113.22275635 -14.84692871 112.3830127 -14.51049805 111.51782227 C-11.0643033 102.18510471 -9.62332907 92.92829681 -9.6875 83 C-9.69096436 82.1042627 -9.69442871 81.20852539 -9.69799805 80.28564453 C-9.89183772 68.10051842 -11.91943984 56.31301298 -15.3046875 44.625 C-18.66726072 31.93034156 -18.22986204 19.01726423 -18 6 C-17.67 6.66 -17.34 7.32 -17 8 C-15.10213071 7.23419309 -13.20678756 6.46212423 -11.3125 5.6875 C-10.25675781 5.25824219 -9.20101562 4.82898438 -8.11328125 4.38671875 C-5.2462191 3.10967099 -2.64909614 1.67595878 0 0 Z " fill="#4B9B5D" transform="translate(434,248)"/>
<path d="M0 0 C34.75698071 -0.17769418 69.30802915 0.87391758 104 3 C103.8595017 5.7920301 103.71284617 8.58349796 103.5625 11.375 C103.52318359 12.1690625 103.48386719 12.963125 103.44335938 13.78125 C103.11328125 19.7734375 103.11328125 19.7734375 102 22 C91.4964154 23.69018519 80.37149788 23.23975478 69.75 23.25 C68.92383179 23.25133942 68.09766357 23.25267883 67.24645996 23.25405884 C19.28727904 23.23729959 19.28727904 23.23729959 5.3125 10.5625 C2.24952658 7.16839431 0 4.66762928 0 0 Z " fill="#F5958B" transform="translate(205,457)"/>
<path d="M0 0 C1.26735489 -0.00292557 2.53470978 -0.00585114 3.84046936 -0.00886536 C5.21974338 0.00829383 6.59901074 0.02599439 7.97827148 0.04418945 C9.42479498 0.04913047 10.87132495 0.05241816 12.31785583 0.05415344 C16.1390687 0.0637445 19.95968996 0.09811261 23.78070068 0.13702393 C26.8106719 0.16374325 29.8405605 0.17273911 32.87063026 0.18070793 C52.10996258 0.23278902 71.31308253 0.68651018 90.53686523 1.4699707 C90.53686523 7.7399707 90.53686523 14.0099707 90.53686523 20.4699707 C72.71686523 20.4699707 54.89686523 20.4699707 36.53686523 20.4699707 C35.54686523 17.4999707 34.55686523 14.5299707 33.53686523 11.4699707 C31.65151647 9.16565554 30.54327463 8.63182623 27.64233398 8.1652832 C24.13652101 7.9441373 22.13830179 8.07428876 19.16186523 10.0324707 C16.9979519 13.01007456 16.9979519 13.01007456 15.53686523 19.4699707 C3.32686523 19.4699707 -8.88313477 19.4699707 -21.46313477 19.4699707 C-19.8808285 14.72305191 -19.10099069 12.52633659 -16.21313477 8.8449707 C-15.65110352 8.11020508 -15.08907227 7.37543945 -14.51000977 6.6184082 C-10.11268869 2.00289944 -6.39106825 -0.033861 0 0 Z " fill="#F5958C" transform="translate(221.463134765625,319.530029296875)"/>
<path d="M0 0 C1.60145637 -0.02157772 3.20279487 -0.055679 4.80371094 -0.10253906 C7.11698844 -0.1696148 9.4278301 -0.19700567 11.74194336 -0.21606445 C12.8093853 -0.25781044 12.8093853 -0.25781044 13.89839172 -0.30039978 C16.70924502 -0.28882678 18.93393724 -0.12320952 21.17749023 1.66304016 C24.61836781 5.5770384 25.18071618 8.34215287 24.97241211 13.4675293 C24.92342773 14.7772168 24.87444336 16.0869043 24.82397461 17.4362793 C24.74920898 18.7459668 24.67444336 20.0556543 24.59741211 21.4050293 C24.56389648 22.6115918 24.53038086 23.8181543 24.49584961 25.0612793 C24.19295558 32.01190012 23.61398491 36.3884565 18.59741211 41.4050293 C16.19591284 41.54306838 13.82516012 41.61809528 11.42163086 41.64331055 C10.70006302 41.65138229 9.97849518 41.65945404 9.23506165 41.66777039 C7.70425835 41.68162601 6.17342397 41.69234153 4.64257812 41.70019531 C2.30465741 41.71738413 -0.03184026 41.76125013 -2.36938477 41.80541992 C-3.85570247 41.81554878 -5.34203223 41.82406428 -6.82836914 41.83081055 C-7.52642166 41.84831863 -8.22447418 41.86582672 -8.94367981 41.88386536 C-12.17496572 41.8694801 -14.08161147 41.63077059 -16.75097656 39.75341797 C-21.35953737 33.20060993 -20.76913843 25.96058518 -20.77758789 18.2800293 C-20.80208008 17.10053711 -20.82657227 15.92104492 -20.85180664 14.70581055 C-20.85567383 13.57272461 -20.85954102 12.43963867 -20.86352539 11.2722168 C-20.87174316 10.24209473 -20.87996094 9.21197266 -20.88842773 8.15063477 C-20.27980379 4.71114487 -19.07997417 3.57101172 -16.40258789 1.4050293 C-11.81265911 -0.88993509 -5.09638706 0.05164728 0 0 Z " fill="#CEDFE9" transform="translate(246.402587890625,384.594970703125)"/>
<path d="M0 0 C0.33 0 0.66 0 1 0 C1.06731323 1.16680298 1.06731323 1.16680298 1.13598633 2.35717773 C2.68433665 28.62899985 5.39157377 54.23742275 11 80 C11.17144531 80.8146875 11.34289062 81.629375 11.51953125 82.46875 C13.39605201 91.37840953 15.79890249 99.87524923 19.07006836 108.3828125 C21.62611883 115.15284763 21.62611883 115.15284763 21 119 C16.02702703 123 16.02702703 123 13 123 C6.81702554 108.4567219 0.80126914 93.89065795 -4.5 79 C-4.89622559 77.88786133 -5.29245117 76.77572266 -5.70068359 75.62988281 C-9.77988383 64.0143558 -13.35415216 52.45971679 -15.75 40.375 C-15.97042969 39.3334375 -16.19085937 38.291875 -16.41796875 37.21875 C-19.14470591 23.63587298 -19.14470591 23.63587298 -18 17 C-15.83984375 14.4921875 -15.83984375 14.4921875 -12.9375 12.875 C-7.8465857 9.70877975 -4.68622695 6.56518266 -1.2421875 1.6875 C-0.83226563 1.130625 -0.42234375 0.57375 0 0 Z " fill="#8DD97B" transform="translate(36,251)"/>
<path d="M0 0 C0 0.66 0 1.32 0 2 C-1.3203125 3.2265625 -1.3203125 3.2265625 -3.125 4.625 C-19.54443121 18.40677158 -26.12423779 43.38475648 -28 64 C-28.33059025 70.01309833 -28.52278147 76.02883172 -28.62207031 82.05004883 C-28.64495117 83.16661865 -28.66783203 84.28318848 -28.69140625 85.43359375 C-28.70373291 86.43447021 -28.71605957 87.43534668 -28.72875977 88.46655273 C-29 91 -29 91 -31 94 C-33.32250977 94.35644531 -33.32250977 94.35644531 -36.19140625 94.328125 C-37.21814453 94.32296875 -38.24488281 94.3178125 -39.30273438 94.3125 C-40.37845703 94.291875 -41.45417969 94.27125 -42.5625 94.25 C-44.18188477 94.24226563 -44.18188477 94.24226563 -45.83398438 94.234375 C-53.8462004 94.1537996 -53.8462004 94.1537996 -55 93 C-55.51249688 87.52216448 -55.96124183 82.63411112 -53.125 77.8125 C-49.17420597 74.44270509 -45.36832373 74.68473437 -40.375 74.4375 C-39.57320312 74.39431641 -38.77140625 74.35113281 -37.9453125 74.30664062 C-35.9637489 74.20048543 -33.98189729 74.09973145 -32 74 C-31.67 72.68 -31.34 71.36 -31 70 C-36.61 69.67 -42.22 69.34 -48 69 C-46.87585947 60.00687577 -46.87585947 60.00687577 -45.94921875 57.02734375 C-45.7476416 56.36323486 -45.54606445 55.69912598 -45.33837891 55.01489258 C-45.12358887 54.32935303 -44.90879883 53.64381348 -44.6875 52.9375 C-42.72113239 46.5339517 -42.72113239 46.5339517 -41.02734375 40.0546875 C-37.84792906 26.86906296 -32.88642263 13.20194412 -21.25 5.25 C-14.59361237 1.39362246 -7.67094059 -0.50027873 0 0 Z " fill="#CDDEE9" transform="translate(208,246)"/>
<path d="M0 0 C10.87577894 0.04281803 19.82242223 3.82100434 28 11 C38.16587015 22.69505825 41.06038181 37.48465366 44.5703125 52.1328125 C45.92745796 57.79042448 47.44428252 63.39389383 49 69 C43.06 69.33 37.12 69.66 31 70 C31.33 71.32 31.66 72.64 32 74 C33.16917969 74.02578125 34.33835937 74.0515625 35.54296875 74.078125 C37.09118226 74.13442367 38.6393579 74.19177062 40.1875 74.25 C40.95642578 74.26417969 41.72535156 74.27835937 42.51757812 74.29296875 C47.5598785 74.50937649 50.3390129 75.21816478 54 79 C55.37252731 81.74505463 55.13229255 84.00327412 55.125 87.0625 C55.12886719 88.68865234 55.12886719 88.68865234 55.1328125 90.34765625 C55 93 55 93 54 94 C52.30441274 94.09932153 50.60474253 94.13080007 48.90625 94.1328125 C47.87628906 94.13410156 46.84632813 94.13539063 45.78515625 94.13671875 C44.15900391 94.13091797 44.15900391 94.13091797 42.5 94.125 C41.41589844 94.12886719 40.33179688 94.13273437 39.21484375 94.13671875 C38.18488281 94.13542969 37.15492188 94.13414062 36.09375 94.1328125 C35.14177734 94.13168457 34.18980469 94.13055664 33.20898438 94.12939453 C31 94 31 94 30 93 C29.80647673 91.05643557 29.67558956 89.10658604 29.5703125 87.15625 C29.49893066 85.93760254 29.42754883 84.71895508 29.35400391 83.46337891 C29.27843262 82.15546387 29.20286133 80.84754883 29.125 79.5 C28.43709121 68.49178405 27.4225695 57.77076676 25 47 C24.73574219 45.74832031 24.47148437 44.49664062 24.19921875 43.20703125 C20.8287669 28.87889895 14.1584066 13.15949617 2.26171875 3.859375 C1.51535156 3.24578125 0.76898438 2.6321875 0 2 C0 1.34 0 0.68 0 0 Z " fill="#CBDDE7" transform="translate(290,246)"/>
<path d="M0 0 C2.97433417 4.46150126 5.12317715 9.29479245 7.4375 14.125 C7.96738525 15.23069336 8.49727051 16.33638672 9.04321289 17.47558594 C14.62590283 29.20296489 19.90226479 41.05459464 25 53 C25.28456055 53.6585498 25.56912109 54.31709961 25.86230469 54.99560547 C34.35891303 74.81529174 38.4050423 95.53275828 38 117 C32.72 117 27.44 117 22 117 C21.896875 114.56625 21.79375 112.1325 21.6875 109.625 C20.13158115 81.78775751 11.70608427 54.53668213 1.078125 28.90234375 C0.82464294 28.28988297 0.57116089 27.67742218 0.30999756 27.04640198 C-0.95267671 24.00074457 -2.23067408 20.9631204 -3.53222656 17.93383789 C-3.9959668 16.83160889 -4.45970703 15.72937988 -4.9375 14.59375 C-5.35902344 13.61083984 -5.78054687 12.62792969 -6.21484375 11.61523438 C-7.04761295 8.8414086 -7.17596907 7.62399068 -6 5 C-3.5 3.375 -3.5 3.375 -1 2 C-0.67 1.34 -0.34 0.68 0 0 Z " fill="#4B9B5D" transform="translate(57,368)"/>
<path d="M0 0 C4.34410317 3.95242174 6.26060856 9.60523922 7.09765625 15.3046875 C7.34494747 21.51922332 6.08237349 27.01195498 2.16796875 31.921875 C-2.01803876 36.33587857 -5.3799697 38.67902944 -11.58984375 39.23828125 C-12.77707031 39.24214844 -13.96429688 39.24601562 -15.1875 39.25 C-16.37214844 39.26675781 -17.55679688 39.28351563 -18.77734375 39.30078125 C-25.16840362 38.63220018 -29.08278516 35.66785198 -33.25 30.9375 C-37.36909472 24.90596845 -37.98848118 19.12186686 -37.25 11.9375 C-35.48485542 5.29162433 -32.09331584 0.57416281 -26.25 -3.0625 C-16.59123545 -6.92600582 -8.49746625 -5.39262281 0 0 Z " fill="#3B3446" transform="translate(249.25,117.0625)"/>
<path d="M0 0 C8.29271778 9.5045476 7.86282971 25.84128168 7.20654297 37.7265625 C6.75930013 42.64940569 5.59366014 47.33285245 4 52 C3.67 52 3.34 52 3 52 C2.01 46.555 2.01 46.555 1 41 C0.01 41 -0.98 41 -2 41 C-1.98839844 41.79583496 -1.97679688 42.59166992 -1.96484375 43.41162109 C-1.93511163 47.06707887 -1.96713418 50.71959016 -2 54.375 C-1.97099609 56.25251953 -1.97099609 56.25251953 -1.94140625 58.16796875 C-2.06905975 66.29524185 -3.36956759 70.91045076 -8.86401367 76.97875977 C-12.86597353 80.76573264 -16.72698669 84.2423289 -22 86 C-22.63278851 52.18313328 -22.63278851 52.18313328 -19 36 C-18.86078125 35.33129883 -18.7215625 34.66259766 -18.578125 33.97363281 C-15.97066494 21.63044805 -10.97274599 7.31516399 0 0 Z " fill="#D7FCCC" transform="translate(40,182)"/>
<path d="M0 0 C1.75632364 3.12888264 2.79777535 6.38427976 3.86030579 9.80070496 C6.96940756 19.73591554 11.04065797 28.95382911 15.63192749 38.28149414 C17.66538615 42.42568131 19.64874661 46.59371236 21.6328125 50.76171875 C22.2127018 51.97938431 22.2127018 51.97938431 22.80430603 53.22164917 C35.65850827 80.30444488 45.5869652 111.68497379 45 142 C41.37 142 37.74 142 34 142 C33.94392578 140.34677734 33.94392578 140.34677734 33.88671875 138.66015625 C32.50589199 104.46662518 20.60538177 74.06559717 4.91015625 43.96655273 C-5.66923164 23.4493637 -5.66923164 23.4493637 -4.38891602 16.8503418 C-3.375 14.1875 -3.375 14.1875 -2.1328125 11.5546875 C-0.43473715 7.72523481 -0.27235517 4.15341629 0 0 Z " fill="#4B9B5D" transform="translate(67,343)"/>
<path d="M0 0 C14.52 0 29.04 0 44 0 C44 11.22 44 22.44 44 34 C38.65952076 34.13785176 33.32521702 34.25723378 27.984375 34.32958984 C26.16840701 34.35974788 24.35258451 34.40068198 22.53710938 34.45263672 C19.92541645 34.52550124 17.31564942 34.55946367 14.703125 34.5859375 C13.89256653 34.61690521 13.08200806 34.64787292 12.24688721 34.67977905 C10.01353787 34.68110994 8.14974449 34.6072517 6 34 C2.8306251 30.55234454 1.51029857 27.72513172 1.42578125 23.06640625 C1.39806641 22.16986328 1.37035156 21.27332031 1.34179688 20.34960938 C1.33212891 19.42986328 1.32246094 18.51011719 1.3125 17.5625 C1.2699529 15.73039598 1.22444042 13.89835813 1.17578125 12.06640625 C1.16458252 11.26146729 1.15338379 10.45652832 1.1418457 9.62719727 C0.96762352 6.40033848 0.4570114 3.1990798 0 0 Z " fill="#BA4E4E" transform="translate(270,355)"/>
<path d="M0 0 C6.24288022 3.60166167 9.04336896 9.16428049 11 16 C12.84872259 30.35573277 9.17373042 46.95648959 1 59 C-3.58948202 63.79324338 -9.74371168 66.90223074 -16 69 C-16.99 69 -17.98 69 -19 69 C-17.48228612 65.7617095 -15.62306669 62.89969931 -13.625 59.9375 C-7.33836012 50.04162011 -4.11260513 40.46896411 -6.4609375 28.6875 C-6.9017544 27.1031146 -7.43798105 25.54555211 -8 24 C-9.65 24 -11.3 24 -13 24 C-12.88785156 24.74636719 -12.77570313 25.49273437 -12.66015625 26.26171875 C-13 29 -13 29 -15.37109375 31.01953125 C-16.38300781 31.61121094 -17.39492188 32.20289063 -18.4375 32.8125 C-19.44683594 33.41707031 -20.45617187 34.02164063 -21.49609375 34.64453125 C-24 36 -24 36 -25 36 C-24.62948613 23.6433623 -23.58235621 11.82945534 -14.78125 2.48828125 C-9.96452536 -1.53621894 -5.92554516 -1.53816416 0 0 Z " fill="#8DDA7B" transform="translate(486,348)"/>
<path d="M0 0 C0.33 0 0.66 0 1 0 C1.70529855 25.79765079 -5.30758306 52.67722382 -23 72 C-32.43012259 81.47670753 -32.43012259 81.47670753 -37 83 C-35.44914167 77.52786572 -33.70765199 72.19256137 -31.6875 66.875 C-25.77163161 50.44997567 -22.32135183 33.26759954 -20 16 C-19.67 16.66 -19.34 17.32 -19 18 C-11.2045727 13.17425929 -4.4616486 8.1796891 0 0 Z " fill="#4B9B5D" transform="translate(165,190)"/>
<path d="M0 0 C15.01870123 -0.52955264 27.2645609 -0.59557305 39 10 C40.04834511 11.13972628 41.09040544 12.28527712 42.125 13.4375 C44.72724076 16.27250121 44.72724076 16.27250121 47.9375 16.25 C51.35348584 14.85572007 53.25930158 13.10568292 55.9375 10.63671875 C59.78202464 7.58585544 64.31809477 5.44113775 69 4 C71.33203125 4.37109375 71.33203125 4.37109375 73 5 C72.3808361 7.584859 71.75492318 10.16776172 71.125 12.75 C70.95097656 13.47960938 70.77695313 14.20921875 70.59765625 14.9609375 C69.72091402 18.53285028 68.87313177 21.79373841 67 25 C60.98970147 25.28620469 56.61915641 24.84391656 51.04296875 22.55859375 C48.48917905 21.86033003 47.43135193 21.93657632 45 23 C42.68551701 25.13987416 42.68551701 25.13987416 40.375 27.75 C33.65079503 34.6927168 26.52376763 38.73146719 16.7734375 39.1328125 C15.65195313 39.13023438 14.53046875 39.12765625 13.375 39.125 C12.24835938 39.12757812 11.12171875 39.13015625 9.9609375 39.1328125 C7 39 7 39 4 38 C4.33 36.35 4.66 34.7 5 33 C7.16874252 33.50603992 8.99967627 33.99983813 11 35 C15.51352187 35.37612682 18.02502888 35.46798614 22.125 33.5 C25.62891296 30.45311917 28.89857192 27.18650264 31 23 C30.83765184 20.37783124 30.3817234 19.36312661 28.4765625 17.55078125 C27.86554688 17.14214844 27.25453125 16.73351562 26.625 16.3125 C26.01914063 15.89613281 25.41328125 15.47976562 24.7890625 15.05078125 C21.32870731 13.01838923 18.42248931 12.86445567 14.5 12.875 C13.5409375 12.87242188 12.581875 12.86984375 11.59375 12.8671875 C8.88428848 12.89007028 8.88428848 12.89007028 6 14 C4.9923048 12.2335343 3.99408286 10.46166177 3 8.6875 C2.443125 7.70136719 1.88625 6.71523438 1.3125 5.69921875 C0 3 0 3 0 0 Z " fill="#90CAF4" transform="translate(126,22)"/>
<path d="M0 0 C3.58326501 -0.05814085 7.16640838 -0.09364357 10.75 -0.125 C11.76578125 -0.14175781 12.7815625 -0.15851563 13.828125 -0.17578125 C14.8078125 -0.18222656 15.7875 -0.18867188 16.796875 -0.1953125 C17.69760742 -0.20578613 18.59833984 -0.21625977 19.52636719 -0.22705078 C22.20764194 0.01905912 23.79627564 0.4533839 26 2 C26.52660448 4.66892723 26.83589393 7.05672983 27 9.75 C27.50324805 17.83157164 30.1345821 22.31232204 36 28 C36.804375 28.99 37.60875 29.98 38.4375 31 C41.17964609 34.40067958 41.17964609 34.40067958 46 38 C32.8 38 19.6 38 6 38 C5.195625 34.16375 4.39125 30.3275 3.5625 26.375 C3.31056885 25.17665527 3.0586377 23.97831055 2.79907227 22.74365234 C2.59854248 21.78410645 2.3980127 20.82456055 2.19140625 19.8359375 C1.98717041 18.86188965 1.78293457 17.8878418 1.57250977 16.88427734 C0.42675128 11.11199984 -0.10119133 5.8690974 0 0 Z " fill="#F6968C" transform="translate(194,405)"/>
<path d="M0 0 C0.99 0.020625 1.98 0.04125 3 0.0625 C1.85064741 12.01576689 -1.04920373 24.06744603 -7.6875 34.1875 C-11.44089989 40.55446362 -10.81883303 47.87621003 -11 55.0625 C-19.91 55.0625 -28.82 55.0625 -38 55.0625 C-38 50.1125 -38 45.1625 -38 40.0625 C-25.625 38.5775 -25.625 38.5775 -13 37.0625 C-13 35.7425 -13 34.4225 -13 33.0625 C-18.94 33.0625 -24.88 33.0625 -31 33.0625 C-30.14148438 31.825 -29.28296875 30.5875 -28.3984375 29.3125 C-25.98636395 25.70217055 -23.86211488 22.03530293 -21.8515625 18.1875 C-21.32046875 17.18332031 -20.789375 16.17914063 -20.2421875 15.14453125 C-19.1528462 13.06846776 -18.08283631 10.98215912 -17.03125 8.88671875 C-13.08649383 1.54032502 -13.08649383 1.54032502 -9.94433594 0.15844727 C-6.65351185 -0.2778651 -3.32351186 0.06623695 0 0 Z " fill="#F2948B" transform="translate(157,284.9375)"/>
<path d="M0 0 C4.49025202 1.92073518 7.42438458 4.69277939 9.76171875 8.9765625 C11.79071428 14.67442667 11.86995623 20.46290532 9.47265625 26.04296875 C6.64139662 30.62975875 3.94890339 33.92480192 -1.3828125 35.37890625 C-7.78172042 36.18190646 -13.55633335 36.60022765 -19.0078125 32.75390625 C-24.17713412 28.03172005 -25.56865663 23.952005 -25.9453125 17.00390625 C-25.817732 11.41588051 -24.77251889 8.21220218 -21.18359375 3.96484375 C-14.88413323 -1.58305424 -8.01948842 -2.09032567 0 0 Z " fill="#A4F0F4" transform="translate(285.3828125,173.62109375)"/>
<path d="M0 0 C2.43715754 3.49679125 2.03274926 7.03130699 1.4375 11.0625 C-0.21476093 17.34915135 -2.40368941 23.37664094 -5.5625 29.0625 C-5.8925 29.0625 -6.2225 29.0625 -6.5625 29.0625 C-6.8925 27.0825 -7.2225 25.1025 -7.5625 23.0625 C-8.8825 23.0625 -10.2025 23.0625 -11.5625 23.0625 C-11.50707031 24.16207031 -11.45164063 25.26164062 -11.39453125 26.39453125 C-11.27412558 33.43387738 -11.16970709 39.54669882 -16.16333008 44.94091797 C-28.01539694 56.0625 -28.01539694 56.0625 -32.5625 56.0625 C-33.19759529 30.43721942 -33.19759529 30.43721942 -29.5625 21.0625 C-29.23378906 20.21042969 -28.90507813 19.35835937 -28.56640625 18.48046875 C-25.38999392 11.32529771 -20.2681602 4.03691927 -13.56640625 -0.19921875 C-9.15901225 -1.82299549 -4.37274345 -1.59978419 0 0 Z " fill="#D8FCCD" transform="translate(154.5625,117.9375)"/>
<path d="M0 0 C-3.22277917 9.06304397 -9.98936984 16.58089176 -17 23 C-17.66 22.01 -18.32 21.02 -19 20 C-20.87361067 19.98741422 -20.87361067 19.98741422 -23 21 C-24.55343192 23.2308684 -25.90880235 25.39919997 -27.25 27.75 C-30.71808106 33.47484684 -33.69535889 37.30351398 -40 40 C-40.64324219 40.31195313 -41.28648437 40.62390625 -41.94921875 40.9453125 C-44.78896362 42.26695477 -46.84086164 43 -50 43 C-49.07317676 27.97907165 -44.21111829 15.37272162 -33 5 C-23.3573438 -1.97490433 -11.02399961 -7.15070245 0 0 Z " fill="#D7FCCD" transform="translate(467,213)"/>
<path d="M0 0 C5.28 0 10.56 0 16 0 C16.72445313 1.33933594 17.44890625 2.67867188 18.1953125 4.05859375 C19.17165416 5.85168276 20.14822917 7.64464473 21.125 9.4375 C21.599375 10.31599609 22.07375 11.19449219 22.5625 12.09960938 C25.76029131 17.95502455 29.22682452 23.49698592 33 29 C27.06 29 21.12 29 15 29 C15 30.32 15 31.64 15 33 C17.99791501 33.82837125 20.88883919 34.25202797 23.984375 34.53515625 C24.91894531 34.62216797 25.85351562 34.70917969 26.81640625 34.79882812 C27.78449219 34.88583984 28.75257813 34.97285156 29.75 35.0625 C30.73355469 35.15337891 31.71710938 35.24425781 32.73046875 35.33789062 C35.15339191 35.56136412 37.57666393 35.78104946 40 36 C40 40.95 40 45.9 40 51 C31.09 51 22.18 51 13 51 C12.938125 48.56625 12.87625 46.1325 12.8125 43.625 C12.46559329 36.31486371 10.68765979 31.33715142 7 25 C3.42069804 17.03762301 0 8.78988603 0 0 Z " fill="#BC4B4B" transform="translate(339,289)"/>
<path d="M0 0 C1.37671875 0.01353516 1.37671875 0.01353516 2.78125 0.02734375 C5.02111556 0.05067568 7.26041183 0.08340765 9.5 0.125 C8.73044011 3.34697059 7.68985144 6.30471906 6.4375 9.375 C6.07527344 10.26703125 5.71304688 11.1590625 5.33984375 12.078125 C4.92412109 13.09132813 4.92412109 13.09132813 4.5 14.125 C3.76136719 13.8053125 3.02273438 13.485625 2.26171875 13.15625 C-1.81036065 11.63569984 -5.21665286 11.33029094 -9.5 12.125 C-13.94601524 14.19557281 -18.02344436 16.64844436 -21.5 20.125 C-21.1829557 23.65672599 -19.50629252 25.61051216 -17.1875 28.1875 C-16.59324219 28.85910156 -15.99898438 29.53070313 -15.38671875 30.22265625 C-11.94282976 33.89332056 -11.94282976 33.89332056 -7.31640625 35.26953125 C-3.12041175 34.65140381 0.63818926 33.9936181 4.5 32.125 C5.75664978 35.03100261 6.5 36.92104584 6.5 40.125 C-8.45278252 39.09882865 -19.39561243 33.96618854 -31.29296875 24.7265625 C-35.11337031 21.95423571 -38.91779281 21.48927035 -43.5 22.125 C-46.37150581 23.0550917 -49.15413693 24.11140939 -51.94921875 25.25 C-54.5 26.125 -54.5 26.125 -58.5 26.125 C-59.83333333 18.79166667 -61.16666667 11.45833333 -62.5 4.125 C-53.91767172 5.48727433 -48.22341251 8.82470255 -41.75 14.5625 C-39.62054221 16.32239174 -39.62054221 16.32239174 -37.0625 16.3125 C-34.36793037 15.063797 -33.60930274 14.20873942 -31.8125 11.9375 C-23.6738678 1.76944024 -12.29992242 -0.23241132 0 0 Z " fill="#91CAF5" transform="translate(401.5,93.875)"/>
<path d="M0 0 C3.7499837 -0.02905924 7.49993837 -0.04681874 11.25 -0.0625 C12.84521484 -0.07506836 12.84521484 -0.07506836 14.47265625 -0.08789062 C15.49746094 -0.09111328 16.52226562 -0.09433594 17.578125 -0.09765625 C18.99206543 -0.10551147 18.99206543 -0.10551147 20.43457031 -0.11352539 C22.78123437 -0.00968082 24.75644478 0.33293471 27 1 C27.02960631 4.27081354 27.04699806 7.54159161 27.0625 10.8125 C27.07087891 11.72193359 27.07925781 12.63136719 27.08789062 13.56835938 C27.09111328 14.48037109 27.09433594 15.39238281 27.09765625 16.33203125 C27.10289307 17.15421143 27.10812988 17.9763916 27.11352539 18.82348633 C26.94422854 23.56052157 26.42914483 28.27940692 26 33 C13.13 33 0.26 33 -13 33 C-11.35 31.35 -9.7 29.7 -8 28 C-4.15038747 22.39683773 -2.91834492 16.08869921 -1.75 9.5 C-1.57726562 8.5821875 -1.40453125 7.664375 -1.2265625 6.71875 C-0.80696941 4.48092021 -0.39837956 2.24168562 0 0 Z " fill="#F6958C" transform="translate(285,409)"/>
<path d="M0 0 C0.66 0.33 1.32 0.66 2 1 C-4.62638256 10.99250023 -12.74234726 19.36436428 -21 28 C-32.38536897 39.95708764 -42.83337587 53.85508122 -43.625 70.875 C-43.66367187 71.56335938 -43.70234375 72.25171875 -43.7421875 72.9609375 C-43.83548166 74.64023246 -43.91878238 76.32007767 -44 78 C-47.96 78 -51.92 78 -56 78 C-56.64466706 60.52235973 -53.52414036 47.1694331 -41.5 33.75 C-40.00251923 32.16428383 -38.50268689 30.58078352 -37 29 C-35.86832785 27.69324853 -34.74293572 26.38102227 -33.625 25.0625 C-29.02806988 19.77495127 -23.98680332 14.9153364 -19 10 C-18.484375 9.41605469 -17.96875 8.83210938 -17.4375 8.23046875 C-15.5754593 6.63660239 -14.15984742 6.47046764 -11.75 6.125 C-6.78906706 5.18315349 -3.89972148 3.1529663 0 0 Z " fill="#4B9A5D" transform="translate(483,409)"/>
<path d="M0 0 C4.41889613 1.35021826 6.34345343 3.26115668 9 7 C8.484375 7.391875 7.96875 7.78375 7.4375 8.1875 C6.7259375 9.0846875 6.7259375 9.0846875 6 10 C6.23043864 12.65466049 6.23043864 12.65466049 7 15 C8.32 15.33 9.64 15.66 11 16 C11.02504287 20.47997691 11.04301921 24.95991485 11.05493164 29.43994141 C11.05990685 30.95850333 11.06668941 32.4770606 11.07543945 33.99560547 C11.19103015 54.59794817 11.19103015 54.59794817 10 61 C9.34 61.66 8.68 62.32 8 63 C5.375 62.625 5.375 62.625 3 62 C2.67 63.32 2.34 64.64 2 66 C5.58327753 67.00217064 5.58327753 67.00217064 9 66 C8.56964861 75.29558994 6.30952887 81.15635542 -0.625 87.5 C-4.67692308 91 -4.67692308 91 -7 91 C-7.15271549 83.98235948 -6.53341534 77.27287821 -5.6875 70.3125 C-3.89884747 54.79362547 -2.95038401 39.23099014 -2.00268555 23.6418457 C-1.94289017 22.66844742 -1.88309479 21.69504913 -1.82148743 20.69215393 C-1.70975203 18.86307676 -1.60043648 17.03384942 -1.49406433 15.20445251 C-1.18438968 10.09997122 -0.68813642 5.06778466 0 0 Z " fill="#CDDEE9" transform="translate(326,380)"/>
<path d="M0 0 C6.6 0 13.2 0 20 0 C20.20427383 15.85391913 20.03033286 31.26492034 18 47 C11.4 47 4.8 47 -2 47 C-2.20941847 31.18890567 -1.4665987 15.73974675 0 0 Z " fill="#BD4B4B" transform="translate(350,396)"/>
<path d="M0 0 C1.48831242 0.00667405 2.97660807 0.01863442 4.46484375 0.03515625 C5.22345703 0.03966797 5.98207031 0.04417969 6.76367188 0.04882812 C8.64326246 0.06064945 10.52281274 0.07858547 12.40234375 0.09765625 C12.40234375 0.42765625 12.40234375 0.75765625 12.40234375 1.09765625 C8.44234375 1.09765625 4.48234375 1.09765625 0.40234375 1.09765625 C1.14173597 2.99765182 1.89436719 4.89249792 2.65234375 6.78515625 C3.07 7.84089844 3.48765625 8.89664062 3.91796875 9.984375 C6.75240587 15.92923391 9.67639321 18.71140391 15.64160156 21.25889587 C21.00970174 22.8898159 26.47042534 22.62321304 32.03515625 22.55859375 C33.9984639 22.55721909 33.9984639 22.55721909 36.00143433 22.55581665 C38.7702172 22.55270163 41.53847769 22.53626686 44.30712891 22.50927734 C47.78178337 22.47576107 51.25585947 22.4678128 54.73065567 22.46891403 C72.96489037 22.46745543 91.40835665 22.38370718 109.40234375 19.09765625 C109.40234375 16.78765625 109.40234375 14.47765625 109.40234375 12.09765625 C109.73234375 12.09765625 110.06234375 12.09765625 110.40234375 12.09765625 C110.484377 13.80516308 110.54199717 15.51384973 110.58984375 17.22265625 C110.64205078 18.64964844 110.64205078 18.64964844 110.6953125 20.10546875 C110.34861639 23.64639164 109.04821201 25.97297441 107.40234375 29.09765625 C92.6862481 29.12098619 77.9701549 29.13863589 63.25404453 29.14946842 C56.42155401 29.15463118 49.58907496 29.16167348 42.7565918 29.1730957 C36.1689907 29.18410332 29.58139844 29.18993248 22.99378777 29.19253349 C20.47426096 29.19438825 17.95473484 29.19800982 15.43521309 29.20338631 C11.9197661 29.21059301 8.40436914 29.21164735 4.88891602 29.21118164 C3.83587784 29.21477692 2.78283966 29.21837219 1.69789124 29.22207642 C0.74571716 29.22070175 -0.20645691 29.21932709 -1.18748474 29.21791077 C-2.43605334 29.21929346 -2.43605334 29.21929346 -3.70984554 29.22070408 C-5.59765625 29.09765625 -5.59765625 29.09765625 -6.59765625 28.09765625 C-6.72653659 25.4391245 -6.78768513 22.81941167 -6.78515625 20.16015625 C-6.78507568 19.39123047 -6.78499512 18.62230469 -6.78491211 17.83007812 C-6.60862788 0.17938729 -6.60862788 0.17938729 0 0 Z " fill="#BD4D4D" transform="translate(197.59765625,284.90234375)"/>
<path d="M0 0 C0.33 0 0.66 0 1 0 C1.20692447 10.66410765 0.68011312 21.15219458 -0.22680664 31.77490234 C-0.44074877 34.28816464 -0.6438337 36.80214812 -0.84570312 39.31640625 C-0.97854135 40.92453094 -1.11198164 42.53260604 -1.24609375 44.140625 C-1.33678383 45.26081024 -1.33678383 45.26081024 -1.42930603 46.40362549 C-1.69309465 49.44721424 -2.02965821 52.08897464 -3 55 C-5.82743299 56.04665142 -8.53741042 56.90770337 -11.4375 57.6875 C-12.22705078 57.91244141 -13.01660156 58.13738281 -13.83007812 58.36914062 C-19.64466185 60 -19.64466185 60 -22 60 C-21.93433838 59.25476074 -21.86867676 58.50952148 -21.80102539 57.74169922 C-20.87554723 46.21273982 -20.66645279 34.68477966 -20.4375 23.125 C-20.3942005 21.06900365 -20.35058305 19.01301396 -20.30664062 16.95703125 C-20.20076528 11.97142341 -20.09917915 6.98574536 -20 2 C-19.67 2 -19.34 2 -19 2 C-18.67 6.29 -18.34 10.58 -18 15 C-11.77802278 11.14829982 -6.79255493 7.0630005 -1.75 1.7578125 C-0.88375 0.88769531 -0.88375 0.88769531 0 0 Z " fill="#8ED97B" transform="translate(141,158)"/>
<path d="M0 0 C11.7310385 2.75141628 20.68521592 10.80126175 27.875 20.125 C27.02106534 23.86096412 25.84071281 25.15228981 22.8125 27.5625 C18.48845375 30.06757477 13.8747699 31.74932433 9.1875 33.4375 C8.45072021 33.70425537 7.71394043 33.97101074 6.95483398 34.24584961 C3.19394269 35.54210603 -0.09244378 36.62434092 -4.125 36.125 C-8.18859482 32.53028151 -9.74368101 26.07895115 -10.41796875 20.85546875 C-10.67424052 13.88731726 -8.75474793 8.03526416 -5.375 2 C-3.125 0.125 -3.125 0.125 0 0 Z " fill="#91CBF5" transform="translate(420.125,96.875)"/>
<path d="M0 0 C3.3134921 0.47246708 6.62558794 0.95409125 9.9375 1.4375 C10.88302734 1.57220703 11.82855469 1.70691406 12.80273438 1.84570312 C14.15141602 2.04389648 14.15141602 2.04389648 15.52734375 2.24609375 C16.35999756 2.36654053 17.19265137 2.4869873 18.05053711 2.61108398 C20 3 20 3 21 4 C21.15797205 5.40916331 21.25113365 6.82570033 21.31640625 8.2421875 C21.35838135 9.13534668 21.40035645 10.02850586 21.44360352 10.94873047 C21.48283936 11.91439941 21.5220752 12.88006836 21.5625 13.875 C21.6049585 14.85484863 21.64741699 15.83469727 21.69116211 16.84423828 C22.06718704 26.23653912 22.07229995 35.60100685 22 45 C15.4 45 8.8 45 2 45 C0.68957363 29.9651975 -0.32736537 15.09518074 0 0 Z " fill="#F5968C" transform="translate(128,398)"/>
<path d="M0 0 C11.37473908 -0.13947228 22.64906646 0.26429134 34 1 C34.11698258 4.20802233 34.18750607 7.41549025 34.25 10.625 C34.28351563 11.52863281 34.31703125 12.43226563 34.3515625 13.36328125 C34.36445313 14.24628906 34.37734375 15.12929688 34.390625 16.0390625 C34.41157227 16.84553223 34.43251953 17.65200195 34.45410156 18.48291016 C33.79216079 22.15205498 32.45276841 24.20940122 30 27 C26.88378906 27.68115234 26.88378906 27.68115234 23.265625 27.5859375 C21.97011719 27.56660156 20.67460937 27.54726563 19.33984375 27.52734375 C17.97653835 27.477215 16.61325711 27.42642536 15.25 27.375 C13.87115135 27.34489131 12.4922401 27.31751703 11.11328125 27.29296875 C7.74060269 27.22221326 4.37109173 27.12351802 1 27 C0.11097088 20.95180188 -0.12348383 15.10776514 -0.0625 9 C-0.05798828 8.12988281 -0.05347656 7.25976562 -0.04882812 6.36328125 C-0.0371736 4.24215707 -0.01924357 2.1210689 0 0 Z " fill="#F6968C" transform="translate(190,362)"/>
<path d="M0 0 C5.48901996 6.96206204 6.6956601 13.26946579 6 22 C5.23281338 25.10888996 4.22621116 28.04395523 3 31 C-1.21244358 32.1840382 -3.88479491 31.73829008 -8.03515625 30.453125 C-9.74348633 29.9271875 -9.74348633 29.9271875 -11.48632812 29.390625 C-12.66646484 29.01421875 -13.84660156 28.6378125 -15.0625 28.25 C-16.24650391 27.8890625 -17.43050781 27.528125 -18.65039062 27.15625 C-28.24238493 24.15637416 -28.24238493 24.15637416 -32 21 C-27.24383513 10.73669686 -18.04319194 4.78585244 -8.125 0 C-3.17073171 -1.58536585 -3.17073171 -1.58536585 0 0 Z " fill="#90CAF4" transform="translate(121,26)"/>
<path d="M0 0 C2.23560002 2.23560002 2.62379524 3.51030684 3.5078125 6.5 C3.77207031 7.386875 4.03632813 8.27375 4.30859375 9.1875 C4.57800781 10.115625 4.84742188 11.04375 5.125 12 C5.54072266 13.3921875 5.54072266 13.3921875 5.96484375 14.8125 C8 21.70997537 8 21.70997537 8 24 C2.06 24.33 -3.88 24.66 -10 25 C-9.67 26.32 -9.34 27.64 -9 29 C-7.24623047 29.03867187 -7.24623047 29.03867187 -5.45703125 29.078125 C-3.90881774 29.13442367 -2.3606421 29.19177062 -0.8125 29.25 C-0.04357422 29.26417969 0.72535156 29.27835937 1.51757812 29.29296875 C6.5598785 29.50937649 9.3390129 30.21816478 13 34 C14.37252731 36.74505463 14.13229255 39.00327412 14.125 42.0625 C14.12886719 43.68865234 14.12886719 43.68865234 14.1328125 45.34765625 C14 48 14 48 13 49 C11.30441274 49.09932153 9.60474253 49.13080007 7.90625 49.1328125 C6.87628906 49.13410156 5.84632813 49.13539063 4.78515625 49.13671875 C3.15900391 49.13091797 3.15900391 49.13091797 1.5 49.125 C0.41589844 49.12886719 -0.66820312 49.13273437 -1.78515625 49.13671875 C-2.81511719 49.13542969 -3.84507812 49.13414062 -4.90625 49.1328125 C-5.85822266 49.13168457 -6.81019531 49.13055664 -7.79101562 49.12939453 C-10 49 -10 49 -11 48 C-11.21758839 45.96313087 -11.37193595 43.91945106 -11.5 41.875 C-11.5825 40.61042969 -11.665 39.34585938 -11.75 38.04296875 C-11.8336352 36.6953312 -11.91696637 35.34767475 -12 34 C-12.50798893 25.97536237 -13.01970494 17.98240261 -14 10 C-12.989375 9.46375 -11.97875 8.9275 -10.9375 8.375 C-6.85583696 6.05928097 -3.45686901 3.15216019 0 0 Z " fill="#8AA5C2" transform="translate(331,291)"/>
<path d="M0 0 C0 3.32548857 -0.59668054 4.34360429 -2.1875 7.1875 C-11.41698323 25.25427878 -13.29271681 45.07691879 -13.62207031 65.05004883 C-13.64495117 66.16661865 -13.66783203 67.28318848 -13.69140625 68.43359375 C-13.70373291 69.43447021 -13.71605957 70.43534668 -13.72875977 71.46655273 C-14 74 -14 74 -16 77 C-18.32250977 77.35644531 -18.32250977 77.35644531 -21.19140625 77.328125 C-22.21814453 77.32296875 -23.24488281 77.3178125 -24.30273438 77.3125 C-25.37845703 77.291875 -26.45417969 77.27125 -27.5625 77.25 C-29.18188477 77.24226563 -29.18188477 77.24226563 -30.83398438 77.234375 C-38.8462004 77.1537996 -38.8462004 77.1537996 -40 76 C-40.51249688 70.52216448 -40.96124183 65.63411112 -38.125 60.8125 C-34.17420597 57.44270509 -30.36832373 57.68473437 -25.375 57.4375 C-24.57320312 57.39431641 -23.77140625 57.35113281 -22.9453125 57.30664062 C-20.9637489 57.20048543 -18.98189729 57.09973145 -17 57 C-16.67 55.68 -16.34 54.36 -16 53 C-21.61 52.67 -27.22 52.34 -33 52 C-32.67 49.36 -32.34 46.72 -32 44 C-31.67 44.66 -31.34 45.32 -31 46 C-29.80375 45.484375 -28.6075 44.96875 -27.375 44.4375 C-26.70210937 44.14746094 -26.02921875 43.85742188 -25.3359375 43.55859375 C-18.67427953 39.11377514 -15.85720655 33.08908561 -13.4375 25.6875 C-12.8490808 23.998591 -12.25666245 22.31106973 -11.66015625 20.625 C-11.23694092 19.42423828 -11.23694092 19.42423828 -10.80517578 18.19921875 C-8.2581573 11.24241386 -5.01029626 5.43975023 0 0 Z " fill="#8CA5C2" transform="translate(193,263)"/>
<path d="M0 0 C1 2 1 2 0.4765625 3.84765625 C-0.08436928 5.3065935 -0.6468316 6.76494335 -1.2109375 8.22265625 C-3.30218451 15.58343163 -3.1618042 23.28018965 -3.125 30.875 C-3.12209961 32.34114746 -3.12209961 32.34114746 -3.11914062 33.83691406 C-3.08616353 39.31660837 -2.857507 44.68349625 -2.22265625 50.12890625 C-1.68520272 57.05922803 -1.93122431 64.05365486 -2 71 C-4.31 71 -6.62 71 -9 71 C-9.96923566 67.12848074 -10.92896976 63.25472772 -11.88085938 59.37890625 C-12.36116128 57.43112067 -12.84844695 55.48506136 -13.3359375 53.5390625 C-16.393276 41.05493031 -18.35638552 28.99359447 -18.125 16.125 C-18.11597656 15.13886719 -18.10695313 14.15273438 -18.09765625 13.13671875 C-18.07455734 10.75753068 -18.04200748 8.37891581 -18 6 C-17.67 6.66 -17.34 7.32 -17 8 C-15.10213071 7.23419309 -13.20678756 6.46212423 -11.3125 5.6875 C-10.25675781 5.25824219 -9.20101563 4.82898438 -8.11328125 4.38671875 C-5.2462191 3.10967099 -2.64909614 1.67595878 0 0 Z " fill="#8CD87A" transform="translate(434,248)"/>
<path d="M0 0 C0 11.88 0 23.76 0 36 C-6.93 36 -13.86 36 -21 36 C-21 24.45 -21 12.9 -21 1 C-16 0 -16 0 0 0 Z " fill="#B94A4B" transform="translate(371,354)"/>
<path d="M0 0 C11.22 0 22.44 0 34 0 C34.495 5.94 34.495 5.94 35 12 C33.68 11.67 32.36 11.34 31 11 C29.2683761 10.8562677 27.53301667 10.75425068 25.796875 10.68359375 C24.8171875 10.64169922 23.8375 10.59980469 22.828125 10.55664062 C21.81234375 10.51732422 20.7965625 10.47800781 19.75 10.4375 C18.71875 10.39431641 17.6875 10.35113281 16.625 10.30664062 C14.0834613 10.20074318 11.54182804 10.09866557 9 10 C9.14622803 10.86689453 9.29245605 11.73378906 9.44311523 12.62695312 C9.99051698 15.87705597 10.53640249 19.12740623 11.08129883 22.37792969 C11.31637894 23.77842065 11.55204382 25.17881359 11.78833008 26.57910156 C14.20381042 40.898355 14.20381042 40.898355 15 48 C10.71 48 6.42 48 2 48 C0.7636439 31.96048737 -0.26162636 16.09002087 0 0 Z " fill="#BB4C4C" transform="translate(185,395)"/>
<path d="M0 0 C3.93032591 2.0738741 6.28529802 4.18524237 7.9609375 8.28125 C9.32406057 14.3179379 9.18707087 17.76560262 5.9609375 23.28125 C2.31518316 27.12568305 -0.99540221 29.12701149 -6.3515625 29.53125 C-11.95927538 29.15106608 -14.85998915 27.43412172 -18.8515625 23.53125 C-21.74608863 19.23081117 -22.58745027 16.11939723 -21.59375 10.9765625 C-20.17045861 5.9868628 -18.63917009 3.04131456 -14.0390625 0.28125 C-9.42516126 -1.25671708 -4.65557058 -1.64104404 0 0 Z " fill="#3B3346" transform="translate(286.0390625,72.71875)"/>
<path d="M0 0 C10.06968967 -0.1006969 19.96800905 -0.02892215 30 1 C30 8.59 30 16.18 30 24 C21.09 24 12.18 24 3 24 C2.67 20.7 2.34 17.4 2 14 C1.649375 13.154375 1.29875 12.30875 0.9375 11.4375 C-0.06690746 8.8260406 -0.0960001 7.12320771 -0.05859375 4.34765625 C-0.05013428 3.53433838 -0.0416748 2.72102051 -0.03295898 1.88305664 C-0.02208252 1.26164795 -0.01120605 0.64023926 0 0 Z " fill="#F6968C" transform="translate(283,364)"/>
<path d="M0 0 C6.93 0 13.86 0 21 0 C21.23420745 11.24195757 21.07326249 19.82718121 14 29 C8.58286958 34.1462739 4.34310542 35.10318181 -3 35 C-2.38548095 23.27562347 -1.28714334 11.67009964 0 0 Z " fill="#BD4B4B" transform="translate(346,450)"/>
<path d="M0 0 C6.93 0 13.86 0 21 0 C21.92305931 2.76917794 22.2720039 4.97360587 22.53515625 7.859375 C22.62216797 8.81070312 22.70917969 9.76203125 22.79882812 10.7421875 C22.88583984 11.73476563 22.97285156 12.72734375 23.0625 13.75 C23.15337891 14.72710937 23.24425781 15.70421875 23.33789062 16.7109375 C23.79667713 21.83002908 24.10766535 26.86077395 24 32 C10.48862602 32.25386715 10.48862602 32.25386715 5 31 C2.49060665 28.49060665 2.56500588 27.21303868 2.1484375 23.73046875 C2.01953125 22.67666016 1.890625 21.62285156 1.7578125 20.53710938 C1.63148438 19.43173828 1.50515625 18.32636719 1.375 17.1875 C1.2409375 16.09373047 1.106875 14.99996094 0.96875 13.87304688 C0.40889727 9.18570844 0 4.73297593 0 0 Z " fill="#F2948A" transform="translate(131,454)"/>
<path d="M0 0 C3.81883489 1.77303048 5.49439614 3.29867851 7.9375 6.6875 C9.35197764 11.09734204 9.30298612 14.55872415 8 19 C6.19342497 22.27268014 3.92098563 24.45238692 0.6875 26.375 C-3.90860674 27.44386203 -7.8206799 28.27268889 -12 25.83203125 C-15.43472302 23.04847447 -18.1694956 20.46396116 -19 16 C-19.05069037 11.37872803 -18.63778944 7.99920346 -16.125 4.0625 C-11.100606 -0.81411771 -6.70311237 -0.76716594 0 0 Z " fill="#A4EEF2" transform="translate(239,121)"/>
<path d="M0 0 C6.6 0 13.2 0 20 0 C20 9.57 20 19.14 20 29 C13.4 29 6.8 29 0 29 C0 19.43 0 9.86 0 0 Z " fill="#F6968C" transform="translate(128,360)"/>
<path d="M0 0 C2.5625 1.5625 2.5625 1.5625 4 3 C2.93242904 10.20288843 -1.7943764 17.95705214 -7 23 C-10.25 23.8125 -10.25 23.8125 -13 24 C-12.88785156 24.74636719 -12.77570313 25.49273437 -12.66015625 26.26171875 C-13 29 -13 29 -15.37109375 31.01953125 C-16.38300781 31.61121094 -17.39492188 32.20289063 -18.4375 32.8125 C-19.44683594 33.41707031 -20.45617187 34.02164063 -21.49609375 34.64453125 C-24 36 -24 36 -25 36 C-24.62948613 23.6433623 -23.58235621 11.82945534 -14.78125 2.48828125 C-9.94508932 -1.55245826 -5.95627437 -1.37704692 0 0 Z " fill="#D6FACB" transform="translate(486,348)"/>
<path d="M0 0 C0.33 0 0.66 0 1 0 C1.82138357 17.44983771 -0.9232156 28.06042837 -12 42 C-12.63808594 42.90234375 -13.27617187 43.8046875 -13.93359375 44.734375 C-16.32173582 47.35275383 -17.54815159 47.79156556 -21 48.3125 C-21.845625 48.45300781 -22.69125 48.59351563 -23.5625 48.73828125 C-26 49 -26 49 -30 49 C-28.35206044 45.32518291 -26.06803356 42.29922546 -23.6875 39.0625 C-18.49121146 31.7754156 -14.88605992 23.99415592 -13.3125 15.125 C-11.19158986 10.07521396 -6.68893824 7.60584574 -2 5 C-1.34 5 -0.68 5 0 5 C0 3.35 0 1.7 0 0 Z " fill="#8DD97B" transform="translate(473,372)"/>
<path d="M0 0 C13.53 0 27.06 0 41 0 C41 8.91 41 17.82 41 27 C40.67 27 40.34 27 40 27 C40 20.73 40 14.46 40 8 C37.36 8.020625 34.72 8.04125 32 8.0625 C23.28842275 8.09543146 14.68809634 7.63186155 6 7 C6.33 15.91 6.66 24.82 7 34 C4.69 34 2.38 34 0 34 C0 22.78 0 11.56 0 0 Z " fill="#B74C4D" transform="translate(184,355)"/>
<path d="M0 0 C0.33 0 0.66 0 1 0 C1.10217798 7.04332967 1.17178927 14.08646525 1.21972656 21.13037109 C1.23972977 23.52204532 1.26694124 25.91367133 1.30175781 28.30517578 C1.35077466 31.76086386 1.37308262 35.21590033 1.390625 38.671875 C1.41127014 39.72550232 1.43191528 40.77912964 1.45318604 41.86468506 C1.45647843 52.98179779 -1.67494714 63.45123242 -9 72 C-10.63752718 73.36896322 -12.29908453 74.71064275 -14 76 C-13.71125 74.93910156 -13.4225 73.87820313 -13.125 72.78515625 C-11.04154895 64.30984866 -9.83178025 56.19409936 -9.9453125 47.46484375 C-9.95471863 46.7273439 -9.96412476 45.98984406 -9.97381592 45.22999573 C-10.03668957 41.50776947 -10.15446893 37.79327771 -10.32421875 34.07446289 C-10.36486669 32.68506685 -10.40524317 31.29566284 -10.4453125 29.90625 C-10.50219238 28.67197266 -10.55907227 27.43769531 -10.61767578 26.16601562 C-10 23 -10 23 -7.08666992 20.64575195 C-5.55876831 19.83110474 -5.55876831 19.83110474 -4 19 C-2.07974408 17.87161219 -2.07974408 17.87161219 -1 16 C-0.62325482 13.20748417 -0.39808059 10.61220799 -0.3125 7.8125 C-0.27833984 7.06291016 -0.24417969 6.31332031 -0.20898438 5.54101562 C-0.12665706 3.69453162 -0.06164719 1.84729006 0 0 Z " fill="#4B995D" transform="translate(449,292)"/>
<path d="M0 0 C0.33 0 0.66 0 1 0 C2.32 12.87 3.64 25.74 5 39 C0.92930072 40.01767482 -2.50062247 40.01073651 -6.625 39.75 C-7.305625 39.72292969 -7.98625 39.69585937 -8.6875 39.66796875 C-10.6640625 39.546875 -10.6640625 39.546875 -14 39 C-16.8747942 34.6878087 -17.4028514 30.85867249 -17.76953125 25.73046875 C-16.57134472 19.92200105 -12.93872261 17.68463373 -8.20703125 14.46484375 C-7.57539063 14.04976563 -6.94375 13.6346875 -6.29296875 13.20703125 C-3.12998516 11.08711935 -1.35902071 9.77139464 -0.5859375 5.95703125 C-0.51632813 5.24933594 -0.44671875 4.54164063 -0.375 3.8125 C-0.25125 2.554375 -0.1275 1.29625 0 0 Z " fill="#8BA5C3" transform="translate(177,450)"/>
<path d="M0 0 C4.75043103 -0.14870119 9.49949856 -0.25737512 14.25170898 -0.32958984 C15.86685796 -0.35970087 17.48184423 -0.40060063 19.09643555 -0.45263672 C21.42277163 -0.52571534 23.74694148 -0.5595088 26.07421875 -0.5859375 C26.79212082 -0.61690521 27.51002289 -0.64787292 28.24967957 -0.67977905 C31.07647977 -0.68166207 33.32245409 -0.5369723 35.58453369 1.25578308 C39.0233221 5.16765429 39.58313517 7.94127937 39.375 13.0625 C39.32601562 14.3721875 39.27703125 15.681875 39.2265625 17.03125 C39.15179688 18.3409375 39.07703125 19.650625 39 21 C38.96648437 22.2065625 38.93296875 23.413125 38.8984375 24.65625 C38.59554347 31.60687082 38.0165728 35.9834272 33 41 C31.65732587 41.08631874 30.31025678 41.10706473 28.96484375 41.09765625 C28.15595703 41.09443359 27.34707031 41.09121094 26.51367188 41.08789062 C25.66353516 41.07951172 24.81339844 41.07113281 23.9375 41.0625 C23.08349609 41.05798828 22.22949219 41.05347656 21.34960938 41.04882812 C19.23304337 41.03700373 17.11651315 41.01906769 15 41 C17.91464535 39.0569031 20.77452695 37.70064225 23.96484375 36.29296875 C26.78941647 34.49847054 28.23816674 32.86539915 30 30 C30.56389322 27.16889975 30.56002012 24.44096489 30.5 21.5625 C30.51546875 20.82451172 30.5309375 20.08652344 30.546875 19.32617188 C30.50978197 14.10996385 29.38970666 11.14711365 26 7 C22.1469199 3.60561991 19.74539135 1.9214516 14.6484375 1.68359375 C13.37226563 1.62075195 13.37226563 1.62075195 12.0703125 1.55664062 C11.18085938 1.51732422 10.29140625 1.47800781 9.375 1.4375 C8.4778125 1.39431641 7.580625 1.35113281 6.65625 1.30664062 C4.43765717 1.20043139 2.2189512 1.09838806 0 1 C0 0.67 0 0.34 0 0 Z " fill="#8AA2BF" transform="translate(232,385)"/>
<path d="M0 0 C0 0.66 0 1.32 0 2 C-1.64434012 3.37028343 -3.28935311 4.73976639 -4.9375 6.10546875 C-9.50941385 10.30504871 -13.34553704 15.4427593 -16.7109375 20.64453125 C-20.78519376 26.71765971 -20.78519376 26.71765971 -24.5546875 27.59375 C-28.34568085 27.63770355 -31.40060972 27.19979676 -35 26 C-34.10135037 18.35593094 -30.35103708 13.00360514 -24.6640625 7.90625 C-17.14627871 2.30941412 -9.39840511 -0.61293946 0 0 Z " fill="#F6F6F7" transform="translate(208,246)"/>
<path d="M0 0 C1.15242188 0.00902344 2.30484375 0.01804688 3.4921875 0.02734375 C4.36101562 0.03894531 5.22984375 0.05054688 6.125 0.0625 C4.23564302 5.90233065 1.07877704 9.80632625 -4.00390625 13.07421875 C-11.50805914 16.73665515 -18.61143525 19.47335293 -26.875 21.0625 C-25.68061214 13.1600966 -20.63506249 7.32137866 -14.78125 2.15625 C-10.29775943 -0.41624459 -5.02658472 -0.05129168 0 0 Z " fill="#FBE6E3" transform="translate(227.875,248.9375)"/>
<path d="M0 0 C-0.74443359 0.44085938 -0.74443359 0.44085938 -1.50390625 0.890625 C-6.44780656 4.15528782 -8.62921069 6.97490344 -11.125 12.375 C-12.79296875 15.5390625 -12.79296875 15.5390625 -15 18 C-20.0431825 19.098515 -23.78061151 18.59650154 -29 18 C-29 12.06 -29 6.12 -29 0 C-24.91689067 -0.19457632 -20.83369152 -0.38095279 -16.75 -0.5625 C-15.59113281 -0.61857422 -14.43226563 -0.67464844 -13.23828125 -0.73242188 C-12.12324219 -0.78076172 -11.00820312 -0.82910156 -9.859375 -0.87890625 C-8.31975098 -0.94960327 -8.31975098 -0.94960327 -6.74902344 -1.02172852 C-4.28119317 -1.00222257 -2.34329535 -0.72799029 0 0 Z " fill="#BD4C4C" transform="translate(215,321)"/>
<path d="M0 0 C4.31931387 0.61611835 8.25208775 1.64238578 12.375 3.0625 C15.159375 4.0215625 15.159375 4.0215625 18 5 C18 13.25 18 21.5 18 30 C16.35 28.35 14.7 26.7 13 25 C11.3230886 23.72829971 9.61498582 22.49643531 7.875 21.3125 C7.02679688 20.73113281 6.17859375 20.14976562 5.3046875 19.55078125 C3.53933162 18.36290619 1.77043578 17.18029052 0 16 C-0.22107787 13.2114711 -0.28107535 10.65346819 -0.1875 7.875 C-0.17396484 7.12089844 -0.16042969 6.36679687 -0.14648438 5.58984375 C-0.11109985 3.72625873 -0.05729167 1.86304022 0 0 Z " fill="#8AA4C2" transform="translate(155,360)"/>
<path d="M0 0 C2.23560002 2.23560002 2.62379524 3.51030684 3.5078125 6.5 C3.77207031 7.386875 4.03632813 8.27375 4.30859375 9.1875 C4.57800781 10.115625 4.84742188 11.04375 5.125 12 C5.54072266 13.3921875 5.54072266 13.3921875 5.96484375 14.8125 C8 21.70997537 8 21.70997537 8 24 C6.08574219 24.05607422 6.08574219 24.05607422 4.1328125 24.11328125 C2.46351162 24.17892791 0.79424211 24.2453757 -0.875 24.3125 C-1.71675781 24.33505859 -2.55851562 24.35761719 -3.42578125 24.38085938 C-4.63427734 24.4340332 -4.63427734 24.4340332 -5.8671875 24.48828125 C-6.61081543 24.51446533 -7.35444336 24.54064941 -8.12060547 24.56762695 C-10.40733826 24.86729591 -10.40733826 24.86729591 -12 28 C-12.66 22.06 -13.32 16.12 -14 10 C-11.69 8.68 -9.38 7.36 -7 6 C-4.82573554 4.37277372 -4.82573554 4.37277372 -3.0625 2.75 C-2.47597656 2.22921875 -1.88945312 1.7084375 -1.28515625 1.171875 C-0.86105469 0.78515625 -0.43695313 0.3984375 0 0 Z " fill="#8CA6C4" transform="translate(331,291)"/>
<path d="M0 0 C3.81006417 2.33799392 6.25941182 4.87755431 8 9 C8.08046991 10.55671164 8.10096911 12.11722071 8.07421875 13.67578125 C8.06350342 14.48571533 8.05278809 15.29564941 8.04174805 16.13012695 C8.02797119 16.74718506 8.01419434 17.36424316 8 18 C5.02077407 18.02683987 2.04178705 18.04676037 -0.9375 18.0625 C-2.21270508 18.07506836 -2.21270508 18.07506836 -3.51367188 18.08789062 C-4.32255859 18.09111328 -5.13144531 18.09433594 -5.96484375 18.09765625 C-6.7137085 18.10289307 -7.46257324 18.10812988 -8.23413086 18.11352539 C-10 18 -10 18 -11 17 C-11.50382481 11.61485608 -11.80758826 6.67978357 -9.4375 1.75 C-6.04352048 -0.68670324 -4.09269986 -0.64621577 0 0 Z " fill="#CBDCE7" transform="translate(164,322)"/>
<path d="M0 0 C3.9730268 1.69273325 5.54301033 5.11205801 7.21875 8.9453125 C7.53125 12.4453125 7.53125 12.4453125 7.21875 14.9453125 C-1.9917643 15.5756899 -9.05154826 14.098447 -16.78125 8.9453125 C-16.78125 8.2853125 -16.78125 7.6253125 -16.78125 6.9453125 C-14.56015472 5.7400903 -12.3314635 4.55643846 -10.09375 3.3828125 C-9.46791016 3.04056641 -8.84207031 2.69832031 -8.19726562 2.34570312 C-5.35731486 0.87368676 -3.22574202 -0.06342751 0 0 Z " fill="#D0ECFA" transform="translate(118.78125,25.0546875)"/>
<path d="M0 0 C6.49142565 0.42335385 11.33492989 2.91099799 17 6 C17 7.32 17 8.64 17 10 C10.40188345 14.06037942 4.72409859 14.98410738 -3 14 C-3.99 13.34 -4.98 12.68 -6 12 C-5.54300722 6.97307937 -3.00758252 3.85103739 0 0 Z " fill="#D3EEFB" transform="translate(417,97)"/>
<path d="M0 0 C2 2 2 2 2.265625 3.875 C2.26046875 4.57625 2.2553125 5.2775 2.25 6 C2.25515625 6.70125 2.2603125 7.4025 2.265625 8.125 C2 10 2 10 0 12 C-0.6837613 14.88717605 -0.6837613 14.88717605 -1.125 18.125 C-1.37636719 19.76855469 -1.37636719 19.76855469 -1.6328125 21.4453125 C-1.81457031 22.70988281 -1.81457031 22.70988281 -2 24 C-3.32 24 -4.64 24 -6 24 C-7.52118633 20.95762735 -7.33511418 17.77519668 -7.5234375 14.41015625 C-8.08007812 11.59501477 -8.968288 10.91943318 -11 9 C-11.36555039 5.58819639 -11.55461098 3.10922196 -10 0 C-6.75617529 -1.62191235 -3.42479288 -0.96708589 0 0 Z " fill="#3E3749" transform="translate(253,393)"/>
<path d="M0 0 C2.375 0.3125 2.375 0.3125 5 1 C7.82406919 5.23610378 7.3302978 8.83267518 7.3125 13.8125 C7.32861328 14.70259766 7.34472656 15.59269531 7.36132812 16.50976562 C7.36523879 21.785247 6.88093462 25.40114659 4 30 C3.01 30 2.02 30 1 30 C-1.57254819 25.11927617 -1.26139414 20.36704827 -1.1875 15 C-1.18685547 14.11054688 -1.18621094 13.22109375 -1.18554688 12.3046875 C-1.15721006 8.08565089 -1.07044075 4.11049247 0 0 Z " fill="#8195AF" transform="translate(245,333)"/>
<path d="M0 0 C3.29164829 -0.02895225 6.58326399 -0.0467823 9.875 -0.0625 C10.81214844 -0.07087891 11.74929687 -0.07925781 12.71484375 -0.08789062 C14.05869141 -0.09272461 14.05869141 -0.09272461 15.4296875 -0.09765625 C16.67081299 -0.10551147 16.67081299 -0.10551147 17.93701172 -0.11352539 C20 0 20 0 22 1 C20.00434546 5.71700164 17.41387163 9.91051767 12.671875 12.05078125 C10.46090039 12.78429641 8.26033785 13.4386089 6 14 C4.9923048 12.2335343 3.99408286 10.46166177 3 8.6875 C2.443125 7.70136719 1.88625 6.71523438 1.3125 5.69921875 C0 3 0 3 0 0 Z " fill="#D2ECFA" transform="translate(126,22)"/>
<path d="M0 0 C3 2 3 2 5 4 C4.75232426 7.34362255 3.72075548 8.28573857 1.3125 10.75 C-1.0586426 12.59232662 -2.03968637 13.00634982 -5.125 13.5 C-8.40552654 12.92947365 -9.84962597 12.5639075 -12 10 C-12.5 6.5 -12.5 6.5 -12 3 C-9.03236215 -0.83319889 -4.50469528 -0.84741792 0 0 Z " fill="#8FC7F1" transform="translate(145,39)"/>
<path d="M0 0 C16 0 16 0 21 1 C21 2.65 21 4.3 21 6 C14.4 6 7.8 6 1 6 C1 15.57 1 25.14 1 35 C7.6 35 14.2 35 21 35 C21 35.33 21 35.66 21 36 C14.07 36 7.14 36 0 36 C0 24.12 0 12.24 0 0 Z " fill="#B35657" transform="translate(127,354)"/>
<path d="M0 0 C0.14256667 9.39355936 -0.27507668 18.64072209 -1 28 C-2.98 28 -4.96 28 -7 28 C-7.05811773 24.25006521 -7.09363593 20.50024648 -7.125 16.75 C-7.14175781 15.68652344 -7.15851563 14.62304688 -7.17578125 13.52734375 C-7.18222656 12.50253906 -7.18867188 11.47773438 -7.1953125 10.421875 C-7.20578613 9.47924805 -7.21625977 8.53662109 -7.22705078 7.56542969 C-6.98804611 4.86493393 -6.46364181 3.26707135 -5 1 C-3 0 -3 0 0 0 Z " fill="#8BA5C3" transform="translate(238,351)"/>
<path d="M0 0 C4.91511194 1.34048507 4.91511194 1.34048507 6.4375 3.9375 C6.9375 6.8125 6.9375 6.8125 6.4375 9.9375 C4.12012395 12.98319423 2.65924087 14.66931298 -1.125 15.5 C-4.45834898 14.73076562 -5.61452434 13.75124263 -7.5625 10.9375 C-8.12895882 6.97228823 -8.13840314 4.85894502 -6 1.4375 C-3.5625 -0.0625 -3.5625 -0.0625 0 0 Z " fill="#FAFEFE" transform="translate(273.5625,178.0625)"/>
<path d="M0 0 C2.5 1 2.5 1 4 2 C4.43155765 7.26500337 4.43155765 7.26500337 4 10 C1.58614842 12.20695002 -0.25289748 12.80339407 -3.375 13.625 C-7.68953974 12.59772863 -10.13096791 9.24109677 -13 6 C-10.33321231 -0.15412543 -6.27749149 -0.65679991 0 0 Z " fill="#90CAF4" transform="translate(400,111)"/>
<path d="M0 0 C4.21779303 1.50635465 5.7747674 4.24012422 8 8 C9.25433458 11.76300374 9.10695422 15.27210909 9.0625 19.1875 C9.05798828 19.93708984 9.05347656 20.68667969 9.04882812 21.45898438 C9.03706354 23.30602383 9.01912865 25.15302213 9 27 C7.02 27 5.04 27 3 27 C2.92652344 25.69675781 2.92652344 25.69675781 2.8515625 24.3671875 C2.77679688 23.21476562 2.70203125 22.06234375 2.625 20.875 C2.55539062 19.73804688 2.48578125 18.60109375 2.4140625 17.4296875 C2.00450863 14.03734503 1.09746174 11.22158125 0 8 C-0.22663986 5.28938725 -0.0940868 2.72851708 0 0 Z " fill="#849CB9" transform="translate(257,352)"/>
<path d="M0 0 C-1.62996896 4.13822218 -3.36655355 8.22768778 -5.125 12.3125 C-5.40214844 12.95767578 -5.67929688 13.60285156 -5.96484375 14.26757812 C-6.64267554 15.84529005 -7.32126074 17.42267826 -8 19 C-11.96 19 -15.92 19 -20 19 C-17.10788168 11.76970421 -8.78306696 0 0 0 Z " fill="#F2958C" transform="translate(170,260)"/>
<path d="M0 0 C3.375 0.9375 3.375 0.9375 5.375 3.9375 C5.69662076 7.0250593 5.86224515 9.07765561 4.3125 11.8125 C1.2680714 13.58023274 -1.1881012 13.30573916 -4.625 12.9375 C-6.5625 11.8125 -6.5625 11.8125 -7.625 9.9375 C-8.16352618 6.32168138 -8.04736225 4.59638511 -6.0625 1.5 C-3.625 -0.0625 -3.625 -0.0625 0 0 Z " fill="#F8F7F8" transform="translate(280.625,80.0625)"/>
<path d="M0 0 C3.69297856 1.32921037 6.62142186 2.94506923 9.75 5.3125 C10.52859375 5.88613281 11.3071875 6.45976562 12.109375 7.05078125 C14.41671235 9.42962699 14.89469588 10.70047085 15 14 C14.00390625 16.45703125 14.00390625 16.45703125 12.5625 18.8125 C12.08941406 19.60269531 11.61632812 20.39289063 11.12890625 21.20703125 C10.75636719 21.79871094 10.38382812 22.39039063 10 23 C7.96619508 19.94929262 6.84183757 17.17750876 5.5625 13.75 C3.81118288 9.11263662 2.00318706 4.53352861 0 0 Z " fill="#EE9189" transform="translate(328,260)"/>
<path d="M0 0 C0.66 0.66 1.32 1.32 2 2 C1.81752046 5.3454582 1.57445993 8.01065234 -0.125 10.9375 C-3.09825923 12.6223469 -5.66669094 12.3030281 -9 12 C-11 10 -11 10 -11.5 7.6875 C-11 5 -11 5 -8.3125 2.1875 C-5.02580962 0.01704409 -3.80164443 -0.73920864 0 0 Z " fill="#F8FBFB" transform="translate(233,121)"/>
<path d="M0 0 C0 3.63 0 7.26 0 11 C-3.63 11 -7.26 11 -11 11 C-11 7.7 -11 4.4 -11 1 C-9.88625 1.020625 -8.7725 1.04125 -7.625 1.0625 C-4.58237918 1.01004102 -2.83730029 0 0 0 Z " fill="#B4494B" transform="translate(254,368)"/>
<path d="M0 0 C5 1 5 1 6 2 C6.43839853 5.38193154 6.4861401 8.62315586 6 12 C3.5625 15.125 3.5625 15.125 1 17 C0.67 17 0.34 17 0 17 C0 11.39 0 5.78 0 0 Z " fill="#CCDEE8" transform="translate(245,333)"/>
<path d="M0 0 C6.93 0 13.86 0 21 0 C21 1.32 21 2.64 21 4 C14.07 4 7.14 4 0 4 C0 2.68 0 1.36 0 0 Z " fill="#BD4B4B" transform="translate(131,450)"/>
<path d="M0 0 C4.11847031 4.11847031 5.60034805 6.85788868 8 12 C3.71 12 -0.58 12 -5 12 C-3.35 8.04 -1.7 4.08 0 0 Z " fill="#BA4C4C" transform="translate(343,271)"/>
<path d="M0 0 C6.6 0 13.2 0 20 0 C20 1.65 20 3.3 20 5 C6.3667426 4.22095672 6.3667426 4.22095672 0 2 C0 1.34 0 0.68 0 0 Z " fill="#C04E4D" transform="translate(128,396)"/>
<path d="M0 0 C3.63 0 7.26 0 11 0 C9.90309312 4.38762753 8.29817473 7.14499723 6 11 C3.34730103 8.52414762 1.31989897 6.40973899 0 3 C0 2.01 0 1.02 0 0 Z " fill="#D1ECF9" transform="translate(400,94)"/>
<path d="M0 0 C1.25664978 2.90600261 2 4.79604584 2 8 C-5.425 7.01 -5.425 7.01 -13 6 C-10.87838666 3.87838666 -9.2266841 3.07013751 -6.5 1.875 C-5.7059375 1.52179688 -4.911875 1.16859375 -4.09375 0.8046875 C-2 0 -2 0 0 0 Z " fill="#8BC1EB" transform="translate(406,126)"/>
<path d="M0 0 C0.598125 0.20625 1.19625 0.4125 1.8125 0.625 C2.9375 5.375 2.9375 5.375 1.8125 7.625 C-0.0625 8.375 -0.0625 8.375 -2.1875 8.625 C-3.1775 7.965 -4.1675 7.305 -5.1875 6.625 C-5.5625 4.125 -5.5625 4.125 -5.1875 1.625 C-2.1875 -0.375 -2.1875 -0.375 0 0 Z " fill="#3A3344" transform="translate(467.1875,486.375)"/>
<path d="M0 0 C0.598125 0.226875 1.19625 0.45375 1.8125 0.6875 C2.4375 3.0625 2.4375 3.0625 2.8125 5.6875 C2.1525 6.3475 1.4925 7.0075 0.8125 7.6875 C-1.8125 7.3125 -1.8125 7.3125 -4.1875 6.6875 C-4.875 4.875 -4.875 4.875 -5.1875 2.6875 C-3.58493056 0.24147296 -2.95482043 -0.4221172 0 0 Z " fill="#494355" transform="translate(177.1875,278.3125)"/>
<path d="M0 0 C1.67542976 0.28604898 3.34385343 0.61781233 5 1 C5.6875 2.8125 5.6875 2.8125 6 5 C4.5625 6.75 4.5625 6.75 3 8 C0.525 7.01 0.525 7.01 -2 6 C-1.125 1.125 -1.125 1.125 0 0 Z " fill="#50495A" transform="translate(188,253)"/>
<path d="M0 0 C0.86431641 0.22042969 0.86431641 0.22042969 1.74609375 0.4453125 C3.17045231 0.79584788 4.59993829 1.12666643 6.03515625 1.4296875 C7.03869141 1.65011719 7.03869141 1.65011719 8.0625 1.875 C8.73410156 2.01679687 9.40570313 2.15859375 10.09765625 2.3046875 C12.33358618 3.12192678 13.44483175 4.22681751 15 6 C12.89590361 6.02701408 10.79170822 6.04640223 8.6875 6.0625 C7.51574219 6.07410156 6.34398437 6.08570313 5.13671875 6.09765625 C2 6 2 6 -1 5 C-0.67 3.35 -0.34 1.7 0 0 Z " fill="#8BC1EC" transform="translate(131,55)"/>
<path d="M0 0 C-1.19899698 3.0831351 -2.47700477 6.06279492 -4 9 C-6.31 9 -8.62 9 -11 9 C-9.55936614 4.67809842 -4.74032109 0 0 0 Z " fill="#F4DFDD" transform="translate(170,260)"/>
<path d="M0 0 C2.625 0.375 2.625 0.375 5 1 C5.125 3.375 5.125 3.375 5 6 C4.34 6.66 3.68 7.32 3 8 C0.875 7.625 0.875 7.625 -1 7 C-1.625 4.625 -1.625 4.625 -2 2 C-1.34 1.34 -0.68 0.68 0 0 Z " fill="#3F394D" transform="translate(331,329)"/>
<path d="M0 0 C0.78375 0.04125 1.5675 0.0825 2.375 0.125 C3 2.5 3 2.5 3.375 5.125 C2.715 5.785 2.055 6.445 1.375 7.125 C-1.25 6.75 -1.25 6.75 -3.625 6.125 C-4.25 4.25 -4.25 4.25 -4.625 2.125 C-2.625 0.125 -2.625 0.125 0 0 Z " fill="#3F3C50" transform="translate(427.625,111.875)"/>
<path d="M0 0 C2.5 0.125 2.5 0.125 3.5 1.125 C3.625 3.625 3.625 3.625 3.5 6.125 C2.5 7.125 2.5 7.125 0 7.25 C-2.5 7.125 -2.5 7.125 -3.5 6.125 C-3.625 3.625 -3.625 3.625 -3.5 1.125 C-2.5 0.125 -2.5 0.125 0 0 Z " fill="#413B4D" transform="translate(323.5,280.875)"/>
<path d="M0 0 C2.125 0.375 2.125 0.375 4 1 C4.625 3.375 4.625 3.375 5 6 C4.34 6.66 3.68 7.32 3 8 C0.875 7.625 0.875 7.625 -1 7 C-1.625 4.625 -1.625 4.625 -2 2 C-1.34 1.34 -0.68 0.68 0 0 Z " fill="#40394B" transform="translate(162,388)"/>
<path d="M0 0 C2.125 0.375 2.125 0.375 4 1 C4.625 3.375 4.625 3.375 5 6 C4.34 6.66 3.68 7.32 3 8 C0.875 7.625 0.875 7.625 -1 7 C-1.625 4.625 -1.625 4.625 -2 2 C-1.34 1.34 -0.68 0.68 0 0 Z " fill="#40394C" transform="translate(164,329)"/>
<path d="M0 0 C2.625 0.375 2.625 0.375 5 1 C5.625 2.875 5.625 2.875 6 5 C5.34 5.66 4.68 6.32 4 7 C1.375 6.625 1.375 6.625 -1 6 C-1.625 4.125 -1.625 4.125 -2 2 C-1.34 1.34 -0.68 0.68 0 0 Z " fill="#3D384C" transform="translate(108,40)"/>
<path d="M0 0 C2.625 0.375 2.625 0.375 5 1 C5.042721 2.66611905 5.04063832 4.33382885 5 6 C4 7 4 7 1.4375 7.0625 C0.2309375 7.0315625 0.2309375 7.0315625 -1 7 C-1.625 4.625 -1.625 4.625 -2 2 C-1.34 1.34 -0.68 0.68 0 0 Z " fill="#40394B" transform="translate(308,255)"/>
<path d="M0 0 C2.00720923 0.28674418 4.0085944 0.61866701 6 1 C5.67 2.65 5.34 4.3 5 6 C3.34385343 6.38218767 1.67542976 6.71395102 0 7 C-1 6 -1 6 -1.125 3.5 C-1 1 -1 1 0 0 Z " fill="#413A4C" transform="translate(165,441)"/>
<path d="M0 0 C3.53571429 0.53571429 3.53571429 0.53571429 5 2 C5.04063832 3.66617115 5.042721 5.33388095 5 7 C3.02 7 1.04 7 -1 7 C-1.625 4.625 -1.625 4.625 -2 2 C-1.34 1.34 -0.68 0.68 0 0 Z " fill="#3E374A" transform="translate(333,388)"/>
<path d="M0 0 C1.67542976 0.28604898 3.34385343 0.61781233 5 1 C5 2.65 5 4.3 5 6 C2.625 6.625 2.625 6.625 0 7 C-0.66 6.34 -1.32 5.68 -2 5 C-1.46428571 1.46428571 -1.46428571 1.46428571 0 0 Z " fill="#3F384A" transform="translate(329,441)"/>
<path d="M0 0 C0 3.43034721 -0.8182926 4.97656828 -2.375 8 C-2.81585938 8.86625 -3.25671875 9.7325 -3.7109375 10.625 C-5 13 -5 13 -7 16 C-7.95772637 13.43633001 -8.13203743 12.33414736 -7.109375 9.74609375 C-6.66078125 8.98425781 -6.2121875 8.22242188 -5.75 7.4375 C-5.31171875 6.67308594 -4.8734375 5.90867187 -4.421875 5.12109375 C-3.09907839 3.147801 -1.74242913 1.60405975 0 0 Z " fill="#879EBA" transform="translate(193,263)"/>
</svg>
