<?xml version="1.0" encoding="UTF-8"?>
<svg version="1.1" xmlns="http://www.w3.org/2000/svg" width="512" height="512">
<path d="M0 0 C0.87047974 0.00332336 1.74095947 0.00664673 2.63781738 0.0100708 C37.89042387 0.16780239 37.89042387 0.16780239 46.3125 5.375 C46.625 7.625 46.625 7.625 46.3125 10.375 C43.875 12.5 43.875 12.5 41.3125 14.375 C40.9825 15.365 40.6525 16.355 40.3125 17.375 C40.90675781 17.52195312 41.50101562 17.66890625 42.11328125 17.8203125 C52.02267307 20.50185865 59.72000479 24.60649599 67.0625 31.8125 C72.15749244 36.74953369 77.38335095 39.64294775 83.9140625 42.4375 C97.63698232 48.33069951 111.26653687 55.52490464 123.3125 64.375 C123.91046387 64.80748047 124.50842773 65.23996094 125.12451172 65.68554688 C143.80937338 79.2222069 161.11308048 94.09178049 175.3125 112.375 C176.31847354 113.62933701 177.32502341 114.88321195 178.33203125 116.13671875 C212.50347465 159.15259613 229.84370583 212.34166944 229.625 267 C229.62284485 267.97055328 229.6206897 268.94110657 229.61846924 269.94107056 C229.5674334 284.26930898 229.22008438 298.29685782 226.3125 312.375 C226.11382324 313.35807129 225.91514648 314.34114258 225.71044922 315.35400391 C214.59958689 368.77769324 186.22284865 420.86578208 143.046875 455.19921875 C141.24419855 456.63363415 139.46206347 458.09430634 137.703125 459.58203125 C125.62871066 469.78098182 112.2864832 478.04600947 98.3125 485.375 C97.54760254 485.7771875 96.78270508 486.179375 95.99462891 486.59375 C75.06161722 497.43943102 52.44805298 504.9001854 29.3125 509.375 C28.51247559 509.53726074 27.71245117 509.69952148 26.88818359 509.86669922 C-33.07771014 521.49972245 -99.72880476 506.98281821 -150.33203125 473.37109375 C-169.94843833 460.00200549 -188.68289961 444.7573394 -203.51171875 426.109375 C-204.94613415 424.30669855 -206.40680634 422.52456347 -207.89453125 420.765625 C-218.61199607 408.07734791 -226.99131647 394.04868163 -234.6875 379.375 C-235.0676123 378.65957031 -235.44772461 377.94414062 -235.83935547 377.20703125 C-253.61845172 343.33033245 -261.14160604 305.50365919 -261.0625 267.5 C-261.06195618 266.51288025 -261.06141235 265.5257605 -261.06085205 264.50872803 C-261.02039301 248.48856458 -260.15269504 233.0718359 -256.6875 217.375 C-256.46787598 216.37968262 -256.24825195 215.38436523 -256.02197266 214.35888672 C-254.48262914 207.62303323 -252.67679679 200.99090961 -250.6875 194.375 C-250.44725098 193.56111816 -250.20700195 192.74723633 -249.95947266 191.90869141 C-241.23111752 162.99342962 -225.99933875 135.50602139 -206.6875 112.375 C-206.21344727 111.79943359 -205.73939453 111.22386719 -205.25097656 110.63085938 C-194.81721974 97.9876831 -183.65082173 86.4515316 -170.6875 76.375 C-169.70523438 75.58738281 -168.72296875 74.79976563 -167.7109375 73.98828125 C-144.1553333 55.24311982 -117.20805029 41.25014377 -88.45239258 32.37670898 C-87.38529053 32.04356689 -86.31818848 31.7104248 -85.21875 31.3671875 C-84.24873047 31.07569824 -83.27871094 30.78420898 -82.27929688 30.48388672 C-78.60953917 28.9138001 -76.76582416 26.55184222 -74.3671875 23.453125 C-57.54589346 2.64166354 -24.73953962 -0.22454058 0 0 Z " fill="#FFB231" transform="translate(271.6875,-0.375)"/>
<path d="M0 0 C0.87047974 0.00332336 1.74095947 0.00664673 2.63781738 0.0100708 C37.89042387 0.16780239 37.89042387 0.16780239 46.3125 5.375 C46.625 7.625 46.625 7.625 46.3125 10.375 C43.875 12.5 43.875 12.5 41.3125 14.375 C40.9825 15.365 40.6525 16.355 40.3125 17.375 C40.90675781 17.52195312 41.50101562 17.66890625 42.11328125 17.8203125 C61.9968726 23.2009422 75.06427855 37.1559258 85.3125 54.375 C95.0544552 72.4000239 95.0544552 72.4000239 94.3125 81.375 C93.15511947 84.73737093 91.63811184 87.91004665 90.125 91.125 C81.59433868 110.28110537 78.83059369 129.72406883 76.3125 150.375 C73.3425 151.035 70.3725 151.695 67.3125 152.375 C66.98636719 151.42238281 66.66023438 150.46976563 66.32421875 149.48828125 C65.88310497 148.22125231 65.44168229 146.95433087 65 145.6875 C64.35611328 143.82544922 64.35611328 143.82544922 63.69921875 141.92578125 C62.4775859 138.79771291 61.04765108 136.22803553 59.3125 133.375 C58.24504313 130.08035769 58.17431442 126.98449119 58.13671875 123.53515625 C57.9103652 98.98069545 57.9103652 98.98069545 45.5 78.5625 C35.48400036 71.68877476 23.26121345 71.18801395 11.51953125 72.94140625 C5.79494712 74.0559787 0.20666915 75.37595249 -5.375 77.0625 C-15.06533188 79.75346365 -23.06543313 78.55282147 -32.47265625 75.3984375 C-46.0819736 71.06594522 -61.04497488 70.28735385 -74.08984375 76.5234375 C-81.86920499 81.00207142 -86.00089551 88.56032433 -88.32299805 97.10961914 C-89.00431017 101.34397629 -88.85452341 105.61858191 -88.86303711 109.89794922 C-88.89739342 121.31966921 -88.96748011 131.32369337 -94.99609375 141.3671875 C-97.05342469 145.02572057 -97.80787283 148.28186052 -98.6875 152.375 C-99.326875 152.21 -99.96625 152.045 -100.625 151.875 C-104.69621121 151.21031246 -108.58936006 150.69197668 -112.6875 151.375 C-115.44319447 153.55659145 -117.12338747 155.24677494 -118.6875 158.375 C-119.45174659 165.60601483 -118.06762611 171.30661117 -115.3125 177.9375 C-113.10989231 183.39477393 -111.25236408 188.59981209 -110.18676758 194.40234375 C-109.03104961 198.96870128 -106.5061732 201.82921787 -102.6875 204.375 C-100.6382906 204.82639459 -100.6382906 204.82639459 -98.5 205 C-97.241875 205.12375 -95.98375 205.2475 -94.6875 205.375 C-94.52894531 206.64472656 -94.37039062 207.91445312 -94.20703125 209.22265625 C-90.67441834 235.92973129 -80.3043965 258.74355874 -61.6875 278.375 C-63.33818154 284.00673702 -65.4399362 288.93193016 -68.1875 294.125 C-76.35964698 310.01102281 -76.74534752 326.59017507 -71.5625 343.3984375 C-70.6875 346.375 -70.6875 346.375 -70.6875 349.375 C-71.27128418 349.3843457 -71.85506836 349.39369141 -72.45654297 349.40332031 C-87.67188702 349.28161421 -87.67188702 349.28161421 -101.6875 354.375 C-102.27402344 354.72433594 -102.86054688 355.07367188 -103.46484375 355.43359375 C-108.05272222 358.67539541 -110.22691734 363.1061966 -111.6875 368.375 C-112.26728871 372.7063627 -112.55252405 377.00852799 -112.6875 381.375 C-111.68203125 381.74625 -111.68203125 381.74625 -110.65625 382.125 C-106.34718862 383.93934163 -102.31414388 386.21271543 -98.21484375 388.453125 C-97.25771484 388.97132813 -97.25771484 388.97132813 -96.28125 389.5 C-95.71083984 389.81195313 -95.14042969 390.12390625 -94.55273438 390.4453125 C-92.31419943 391.56106395 -90.01280062 392.45607454 -87.6875 393.375 C-87.68607498 394.2283342 -87.68464996 395.0816684 -87.68318176 395.96086121 C-87.66533999 404.00930763 -87.62369196 412.05720488 -87.55540943 420.10538769 C-87.52114237 424.24293938 -87.49602998 428.38012196 -87.49194336 432.51782227 C-87.48765966 436.51226411 -87.45919243 440.50587337 -87.41406822 444.50005531 C-87.40109526 446.02259786 -87.39678488 447.54524006 -87.40134621 449.06783104 C-87.40625433 451.2039272 -87.38015847 453.33759181 -87.34692383 455.47338867 C-87.33693108 457.29540047 -87.33693108 457.29540047 -87.32673645 459.15422058 C-86.51028599 463.26788908 -84.90406209 464.77344269 -81.6875 467.375 C-79.58402029 467.9466918 -79.58402029 467.9466918 -77.5625 467.5 C-76.89992187 467.42007812 -76.23734375 467.34015625 -75.5546875 467.2578125 C-72.7550543 465.93413655 -72.05492658 464.1136258 -70.6875 461.375 C-70.22078823 458.45258375 -70.22078823 458.45258375 -70.25512695 455.29956055 C-70.22543571 453.49825935 -70.22543571 453.49825935 -70.19514465 451.66056824 C-70.18875473 450.37394791 -70.18236481 449.08732758 -70.17578125 447.76171875 C-70.15892442 446.42363343 -70.14077282 445.08556384 -70.12138367 443.74751282 C-70.07398579 440.23771076 -70.04411091 436.72797253 -70.01794434 433.21795654 C-69.98808685 429.6315043 -69.94157448 426.04527173 -69.89648438 422.45898438 C-69.81056792 415.43111496 -69.74317106 408.40317232 -69.6875 401.375 C-67.94266262 401.85009257 -66.19788201 402.32539362 -64.453125 402.80078125 C-62.99567871 403.19777222 -62.99567871 403.19777222 -61.50878906 403.6027832 C-59.81587333 404.06615223 -58.12452778 404.53540434 -56.43652344 405.01635742 C-52.06253238 406.21135229 -48.20360022 406.9604204 -43.6875 406.375 C-41.7075 404.725 -39.7275 403.075 -37.6875 401.375 C-37.6875 437.675 -37.6875 473.975 -37.6875 511.375 C-44.74289652 511.375 -50.56512685 510.97073716 -57.375 509.75 C-58.37176758 509.57251221 -59.36853516 509.39502441 -60.39550781 509.2121582 C-115.05027014 499.06875074 -168.60505748 470.00620659 -203.51171875 426.109375 C-204.94613415 424.30669855 -206.40680634 422.52456347 -207.89453125 420.765625 C-218.61199607 408.07734791 -226.99131647 394.04868163 -234.6875 379.375 C-235.0676123 378.65957031 -235.44772461 377.94414062 -235.83935547 377.20703125 C-253.61845172 343.33033245 -261.14160604 305.50365919 -261.0625 267.5 C-261.06195618 266.51288025 -261.06141235 265.5257605 -261.06085205 264.50872803 C-261.02039301 248.48856458 -260.15269504 233.0718359 -256.6875 217.375 C-256.46787598 216.37968262 -256.24825195 215.38436523 -256.02197266 214.35888672 C-254.48262914 207.62303323 -252.67679679 200.99090961 -250.6875 194.375 C-250.44725098 193.56111816 -250.20700195 192.74723633 -249.95947266 191.90869141 C-241.23111752 162.99342962 -225.99933875 135.50602139 -206.6875 112.375 C-206.21344727 111.79943359 -205.73939453 111.22386719 -205.25097656 110.63085938 C-194.81721974 97.9876831 -183.65082173 86.4515316 -170.6875 76.375 C-169.70523438 75.58738281 -168.72296875 74.79976563 -167.7109375 73.98828125 C-144.1553333 55.24311982 -117.20805029 41.25014377 -88.45239258 32.37670898 C-87.38529053 32.04356689 -86.31818848 31.7104248 -85.21875 31.3671875 C-84.24873047 31.07569824 -83.27871094 30.78420898 -82.27929688 30.48388672 C-78.60953917 28.9138001 -76.76582416 26.55184222 -74.3671875 23.453125 C-57.54589346 2.64166354 -24.73953962 -0.22454058 0 0 Z " fill="#FFB231" transform="translate(271.6875,-0.375)"/>
<path d="M0 0 C10.49732683 3.67603018 20.58798583 0.45699079 30.83203125 -2.49609375 C41.32205326 -5.44778287 52.83043439 -6.16068854 63.25 -2.6875 C63.98863281 -2.44257812 64.72726562 -2.19765625 65.48828125 -1.9453125 C72.85544805 0.8529727 77.24204732 5.30179659 80.7578125 12.32421875 C83.69071941 19.13694252 85.3370987 24.99374909 85.4609375 32.42578125 C85.48929688 33.59173828 85.51765625 34.75769531 85.546875 35.95898438 C85.59870542 38.3911267 85.64305075 40.82344074 85.6796875 43.25585938 C85.90525423 51.78510131 87.27739958 57.8900652 91.3125 65.4375 C92.96847298 68.64793038 94.20946459 71.84404863 95.25 75.3125 C96.24 74.9825 97.23 74.6525 98.25 74.3125 C102.05585475 73.8050527 105.69834189 73.45153857 109.13671875 75.359375 C112.11261877 77.80926848 114.03174264 79.71562969 114.55859375 83.5703125 C114.93000378 91.83137201 112.82829265 97.90847426 109.76953125 105.3984375 C108.37296046 108.85475987 107.43434144 112.29320277 106.625 115.9375 C105.37788 121.30522119 103.97136534 125.24801595 99.4375 128.6875 C96.34681682 129.57055234 93.4427746 129.43529902 90.25 129.3125 C90.21132813 130.3334375 90.21132813 130.3334375 90.171875 131.375 C88.63267566 157.68131591 76.84654743 182.71595257 58.25 201.3125 C58.54322881 206.03865854 60.96277219 209.95663157 63.125 214.0625 C71.7448698 230.85036852 74.22326936 248.32704198 68.6484375 266.61328125 C61.80268511 284.72201732 50.82664473 300.72473701 36.58984375 313.84765625 C33.65906079 317.05186503 33.00032777 319.96523855 33.00949097 324.23529053 C33.00674164 325.22524521 33.00399231 326.21519989 33.00115967 327.2351532 C33.00835022 328.3148085 33.01554077 329.39446381 33.02294922 330.50683594 C33.02265717 331.6485878 33.02236511 332.79033966 33.02206421 333.96669006 C33.02345841 337.74349547 33.03902413 341.52010402 33.0546875 345.296875 C33.0584173 347.91432589 33.06126443 350.53177817 33.06326294 353.14923096 C33.06947694 359.3363012 33.08588666 365.52330069 33.10596192 371.71033978 C33.12832342 378.75502856 33.13931498 385.79972073 33.14935279 392.84443617 C33.17025298 407.33383245 33.20692822 421.82315217 33.25 436.3125 C18.73 436.3125 4.21 436.3125 -10.75 436.3125 C-11.245 382.3575 -11.245 382.3575 -11.75 327.3125 C-13.4 328.6325 -15.05 329.9525 -16.75 331.3125 C-22.40296389 332.00981171 -27.23131575 330.55342141 -32.5625 328.875 C-33.32498047 328.64490234 -34.08746094 328.41480469 -34.87304688 328.17773438 C-40.37797619 326.4985119 -40.37797619 326.4985119 -42.75 325.3125 C-42.74111755 326.0508609 -42.73223511 326.7892218 -42.7230835 327.54995728 C-42.64278741 334.52345089 -42.58195943 341.49687501 -42.54275131 348.47071266 C-42.52191577 352.05570901 -42.49367349 355.64032194 -42.44824219 359.22509766 C-42.40463808 362.6875419 -42.38083257 366.14961841 -42.37049103 369.61231613 C-42.35955179 371.56992482 -42.32834872 373.52738648 -42.29681396 375.48477173 C-42.29400823 386.63617123 -42.29400823 386.63617123 -46.75 391.3125 C-49.4064772 392.59056656 -51.83605691 392.67674289 -54.75 392.3125 C-57.60993478 390.54785939 -59.24782849 389.31684303 -60.75 386.3125 C-60.84188942 384.12709189 -60.86750236 381.93880031 -60.86352539 379.75146484 C-60.86367142 379.07817642 -60.86381744 378.404888 -60.8639679 377.7111969 C-60.86327027 375.48191119 -60.85548489 373.25270865 -60.84765625 371.0234375 C-60.84579154 369.47929937 -60.84436789 367.93516066 -60.84336853 366.39102173 C-60.83954754 362.32379528 -60.82972082 358.25660445 -60.81866455 354.18939209 C-60.80844144 350.0403288 -60.80386898 345.89125975 -60.79882812 341.7421875 C-60.78809819 333.59894197 -60.77102677 325.45572542 -60.75 317.3125 C-61.34888535 317.12217697 -61.94777069 316.93185394 -62.56480408 316.73576355 C-70.46897655 314.17292536 -70.46897655 314.17292536 -74.12890625 312.05078125 C-74.82177734 311.65439453 -75.51464844 311.25800781 -76.22851562 310.84960938 C-76.91623047 310.44548828 -77.60394531 310.04136719 -78.3125 309.625 C-79.3962793 309.00141602 -79.3962793 309.00141602 -80.50195312 308.36523438 C-82.25550223 307.35491138 -84.00337989 306.33475496 -85.75 305.3125 C-86.37519688 296.44859755 -85.97456299 289.71280937 -80.75 282.3125 C-75.74208406 276.95519458 -69.61193565 273.63713382 -62.24169922 273.14501953 C-56.0745782 272.97237017 -49.91447144 273.09130726 -43.75 273.3125 C-44.1109375 272.21035156 -44.471875 271.10820312 -44.84375 269.97265625 C-50.29584989 252.5158437 -51.19398508 234.89518614 -42.73828125 218.15234375 C-41.3734251 215.56860207 -39.931018 213.04204579 -38.45703125 210.51953125 C-36.33773295 206.60684153 -36.33773295 206.60684153 -35.75 202.3125 C-37.26248045 200.0346923 -37.26248045 200.0346923 -39.5625 197.9375 C-56.70753718 179.88729005 -68.19005929 154.39587958 -67.75 129.3125 C-68.94625 129.415625 -70.1425 129.51875 -71.375 129.625 C-74.95246109 129.61233642 -75.83421124 129.26006659 -79.0625 127.25 C-84.13068895 121.71035162 -85.18949474 115.68966154 -86.85546875 108.5625 C-87.80041403 105.12933636 -89.06313466 101.97049102 -90.4375 98.6875 C-92.63646856 93.12344318 -93.93497505 88.26969276 -92.75 82.3125 C-90.75342873 78.45705202 -89.35292362 76.71444908 -85.75 74.3125 C-80.78635538 73.6804254 -76.2451086 73.99244395 -71.75 76.3125 C-71.6571875 75.11882812 -71.564375 73.92515625 -71.46875 72.6953125 C-70.94810015 68.50994767 -69.46037716 65.80201018 -67.25 62.1875 C-62.50997998 53.43922775 -63.00383113 43.88318562 -63.1015625 34.18701172 C-63.13733007 22.69519014 -60.69921595 12.04304914 -52.75 3.3125 C-37.82491113 -8.35711646 -16.92452575 -6.4270351 0 0 Z " fill="#FED8A0" transform="translate(244.75,75.6875)"/>
<path d="M0 0 C5.20906092 1.07701958 9.56475659 3.83663084 14.1875 6.375 C15.1669458 6.91229736 16.1463916 7.44959473 17.15551758 8.00317383 C38.00997802 19.57314907 60.46234985 32.23065184 67.74609375 56.484375 C68.77315359 60.70594509 69.22379994 64.63590111 69 69 C69.54672363 69.17885742 70.09344727 69.35771484 70.65673828 69.54199219 C76.10473046 71.33900433 81.49876662 73.2494346 86.875 75.25 C91.89537219 77.11665706 96.91581926 78.97761633 101.96484375 80.765625 C115.22384279 85.48618974 128.45070748 90.33862389 139 100 C139.61230469 100.55816406 140.22460938 101.11632812 140.85546875 101.69140625 C146.89820358 107.86753478 153.59008825 119.22223453 154 128 C147.61366593 143.86907255 134.62714335 158.69441167 123 171 C121.82770322 172.34929564 120.66084179 173.70333672 119.5 175.0625 C113.15476388 182.31004033 106.32828115 188.74128362 98.8046875 194.75390625 C96.97789738 196.21686491 95.16933051 197.70296955 93.3828125 199.21484375 C81.30818012 209.40841322 67.97125113 217.67244237 54 225 C53.23510254 225.4021875 52.47020508 225.804375 51.68212891 226.21875 C26.29364698 239.37287138 -5.17340062 251.11542563 -34.20629883 251.01635742 C-35.10463943 251.01399582 -36.00298004 251.01163422 -36.92854309 251.00920105 C-37.61212387 251.0061647 -38.29570465 251.00312836 -39 251 C-39.09350696 235.97917134 -39.16401032 220.95836527 -39.20724869 205.93730736 C-39.22786011 198.96250037 -39.2559532 191.98787439 -39.30175781 185.01318359 C-39.34593628 178.28288914 -39.36913441 171.55282164 -39.37950897 164.82237625 C-39.38690285 162.25392318 -39.40134118 159.68548046 -39.42292023 157.11710739 C-39.45193365 153.52104147 -39.45595669 149.92575387 -39.45410156 146.32958984 C-39.46848267 145.26647583 -39.48286377 144.20336182 -39.49768066 143.10803223 C-39.45595524 135.63895238 -38.17441951 132.31646552 -32.9921875 126.90234375 C-32.29351562 126.25394531 -31.59484375 125.60554688 -30.875 124.9375 C-14.88356182 109.23490554 -0.95949999 87.02485188 -0.66992188 64.0637207 C-0.78954504 47.89299426 -5.1258724 35.65523724 -13.30859375 21.78125 C-14.24074425 19.37977753 -14.00533908 18.36254683 -13 16 C-11.328125 13.88671875 -11.328125 13.88671875 -9.25 11.6875 C-5.819765 7.96112961 -2.84836214 4.18353189 0 0 Z " fill="#94522F" transform="translate(316,260)"/>
<path d="M0 0 C1.67299024 1.66068884 3.33862022 3.32774732 5 5 C5.49242187 5.49048828 5.98484375 5.98097656 6.4921875 6.48632812 C15.73783564 15.86371478 15.73783564 15.86371478 16.2890625 20.35546875 C15.4952336 22.84435582 14.3809099 24.7783807 13 27 C11.81552546 29.2406765 10.6503559 31.4916173 9.5 33.75 C9.19199463 34.35150879 8.88398926 34.95301758 8.56665039 35.57275391 C0.9887743 50.73659994 1.2325798 67.157047 6.125 83.0234375 C7 86 7 86 7 89 C6.41621582 89.0093457 5.83243164 89.01869141 5.23095703 89.02832031 C-9.98438702 88.90661421 -9.98438702 88.90661421 -24 94 C-24.58652344 94.34933594 -25.17304688 94.69867188 -25.77734375 95.05859375 C-30.36522222 98.30039541 -32.53941734 102.7311966 -34 108 C-34.57978871 112.3313627 -34.86502405 116.63352799 -35 121 C-34.3296875 121.2475 -33.659375 121.495 -32.96875 121.75 C-28.65968862 123.56434163 -24.62664388 125.83771543 -20.52734375 128.078125 C-19.88925781 128.42359375 -19.25117188 128.7690625 -18.59375 129.125 C-18.02333984 129.43695313 -17.45292969 129.74890625 -16.86523438 130.0703125 C-14.62669943 131.18606395 -12.32530062 132.08107454 -10 133 C-9.99857498 133.8533342 -9.99714996 134.7066684 -9.99568176 135.58586121 C-9.97783999 143.63430763 -9.93619196 151.68220488 -9.86790943 159.73038769 C-9.83364237 163.86793938 -9.80852998 168.00512196 -9.80444336 172.14282227 C-9.80015966 176.13726411 -9.77169243 180.13087337 -9.72656822 184.12505531 C-9.71359526 185.64759786 -9.70928488 187.17024006 -9.71384621 188.69283104 C-9.71875433 190.8289272 -9.69265847 192.96259181 -9.65942383 195.09838867 C-9.64943108 196.92040047 -9.64943108 196.92040047 -9.63923645 198.77922058 C-8.82278599 202.89288908 -7.21656209 204.39844269 -4 207 C-1.89652029 207.5716918 -1.89652029 207.5716918 0.125 207.125 C0.78757813 207.04507813 1.45015625 206.96515625 2.1328125 206.8828125 C4.9324457 205.55913655 5.63257342 203.7386258 7 201 C7.46671177 198.07758375 7.46671177 198.07758375 7.43237305 194.92456055 C7.46206429 193.12325935 7.46206429 193.12325935 7.49235535 191.28556824 C7.49874527 189.99894791 7.50513519 188.71232758 7.51171875 187.38671875 C7.52857558 186.04863343 7.54672718 184.71056384 7.56611633 183.37251282 C7.61351421 179.86271076 7.64338909 176.35297253 7.66955566 172.84295654 C7.69941315 169.2565043 7.74592552 165.67027173 7.79101562 162.08398438 C7.87693208 155.05611496 7.94432894 148.02817232 8 141 C9.74483738 141.47509257 11.48961799 141.95039362 13.234375 142.42578125 C14.20600586 142.69044189 15.17763672 142.95510254 16.17871094 143.2277832 C17.87162667 143.69115223 19.56297222 144.16040434 21.25097656 144.64135742 C25.62496762 145.83635229 29.48389978 146.5854204 34 146 C35.98 144.35 37.96 142.7 40 141 C40 177.3 40 213.6 40 251 C32.94460348 251 27.12237315 250.59573716 20.3125 249.375 C19.31573242 249.19751221 18.31896484 249.02002441 17.29199219 248.8371582 C-37.36277014 238.69375074 -90.91755748 209.63120659 -125.82421875 165.734375 C-127.25863415 163.93169855 -128.71930634 162.14956347 -130.20703125 160.390625 C-136.02333578 153.50477236 -141.0808095 146.27101316 -145.91357422 138.67724609 C-146.85435098 137.2248559 -147.84665611 135.80608958 -148.84765625 134.39453125 C-150.8230578 131.41825957 -152.07355547 129.31731162 -151.87109375 125.69140625 C-151.17277567 122.94644526 -150.196585 120.5688155 -149 118 C-148.50628906 116.93007813 -148.01257813 115.86015625 -147.50390625 114.7578125 C-133.47890034 86.70780068 -98.3139353 79.43992469 -70.82421875 70.26953125 C-69.54960983 69.84596076 -68.2749233 69.42262326 -67 69 C-67.0825 68.113125 -67.165 67.22625 -67.25 66.3125 C-67.17193426 53.43165208 -60.02286868 42.02667225 -51.5 32.9375 C-40.89075606 22.83724528 -27.72745183 15.97711106 -15.04296875 8.859375 C-9.96789253 6.00595045 -4.9768763 3.0207972 0 0 Z " fill="#753616" transform="translate(194,260)"/>
<path d="M0 0 C0.73863281 0.24492188 1.47726562 0.48984375 2.23828125 0.7421875 C9.60544805 3.5404727 13.99204732 7.98929659 17.5078125 15.01171875 C20.44071941 21.82444252 22.0870987 27.68124909 22.2109375 35.11328125 C22.23929687 36.27923828 22.26765625 37.44519531 22.296875 38.64648438 C22.34870542 41.0786267 22.39305075 43.51094074 22.4296875 45.94335938 C22.65525423 54.47260131 24.02739958 60.5775652 28.0625 68.125 C29.71847298 71.33543038 30.95946459 74.53154863 32 78 C32.99 77.67 33.98 77.34 35 77 C38.80585475 76.4925527 42.44834189 76.13903857 45.88671875 78.046875 C48.86261877 80.49676848 50.78174264 82.40312969 51.30859375 86.2578125 C51.68000378 94.51887201 49.57829265 100.59597426 46.51953125 108.0859375 C45.12296046 111.54225987 44.18434144 114.98070277 43.375 118.625 C42.12788 123.99272119 40.72136534 127.93551595 36.1875 131.375 C33.09681682 132.25805234 30.1927746 132.12279902 27 132 C26.97421875 132.680625 26.9484375 133.36125 26.921875 134.0625 C25.21099811 163.30294136 11.00479538 188.69664582 -9.66015625 208.92578125 C-13.51061067 212.33912231 -17.69510853 215.19482704 -22 218 C-22.99 218.66 -23.98 219.32 -25 220 C-35.09352789 219.34826558 -45.73083597 207.67823027 -52.2421875 200.54296875 C-69.88263843 179.69793764 -80.24017597 154.95193377 -81.375 127.5 C-81.70249777 120.62938558 -82.53917344 113.92374819 -83.5625 107.125 C-85.85685339 91.18104727 -87.13210025 77.61076665 -78.95532227 63.15283203 C-75.40959211 56.26430195 -75.44156448 49.75810187 -75.4375 42.125 C-75.39677223 31.26814035 -75.0025249 20.95362054 -69.0625 11.5 C-68.57910156 10.7059375 -68.09570312 9.911875 -67.59765625 9.09375 C-65.84187445 6.79277434 -64.5481593 5.39072075 -62 4 C-58.99609375 3.8828125 -58.99609375 3.8828125 -55.4375 4.125 C-47.26697248 4.45178013 -40.09879889 2.47560779 -32.3125 0.19140625 C-21.89138242 -2.81633796 -10.35959046 -3.45319682 0 0 Z " fill="#FBE5C9" transform="translate(308,73)"/>
<path d="M0 0 C1.22700119 -0.01031754 1.22700119 -0.01031754 2.47879028 -0.02084351 C5.10830171 -0.03793989 7.73762343 -0.04429852 10.3671875 -0.046875 C11.26014526 -0.04854675 12.15310303 -0.05021851 13.07312012 -0.05194092 C48.73620593 -0.05594963 48.73620593 -0.05594963 57.2421875 5.203125 C57.5546875 7.453125 57.5546875 7.453125 57.2421875 10.203125 C54.8046875 12.328125 54.8046875 12.328125 52.2421875 14.203125 C51.9121875 15.193125 51.5821875 16.183125 51.2421875 17.203125 C51.83644531 17.35007812 52.43070313 17.49703125 53.04296875 17.6484375 C72.9265601 23.0290672 85.99396605 36.9840508 96.2421875 54.203125 C105.9841427 72.2281489 105.9841427 72.2281489 105.2421875 81.203125 C104.08480697 84.56549593 102.56779934 87.73817165 101.0546875 90.953125 C92.52402618 110.10923037 89.76028119 129.55219383 87.2421875 150.203125 C82.7871875 151.193125 82.7871875 151.193125 78.2421875 152.203125 C77.91605469 151.25050781 77.58992187 150.29789063 77.25390625 149.31640625 C76.81279247 148.04937731 76.37136979 146.78245587 75.9296875 145.515625 C75.28580078 143.65357422 75.28580078 143.65357422 74.62890625 141.75390625 C73.4072734 138.62583791 71.97733858 136.05616053 70.2421875 133.203125 C69.17473063 129.90848269 69.10400192 126.81261619 69.06640625 123.36328125 C68.8400527 98.80882045 68.8400527 98.80882045 56.4296875 78.390625 C46.41368786 71.51689976 34.19090095 71.01613895 22.44921875 72.76953125 C16.72463462 73.8841037 11.13635665 75.20407749 5.5546875 76.890625 C-4.13564438 79.58158865 -12.13574563 78.38094647 -21.54296875 75.2265625 C-35.1522861 70.89407022 -50.11528738 70.11547885 -63.16015625 76.3515625 C-70.93951749 80.83019642 -75.07120801 88.38844933 -77.39331055 96.93774414 C-78.07462267 101.17210129 -77.92483591 105.44670691 -77.93334961 109.72607422 C-77.96770592 121.14779421 -78.03779261 131.15181837 -84.06640625 141.1953125 C-86.12373719 144.85384557 -86.87818533 148.10998552 -87.7578125 152.203125 C-90.7278125 151.543125 -93.6978125 150.883125 -96.7578125 150.203125 C-96.85280029 149.53595459 -96.94778809 148.86878418 -97.0456543 148.18139648 C-99.83671614 128.79635392 -102.83849382 109.56699818 -109.0703125 90.953125 C-113.97398512 76.01481509 -113.97398512 76.01481509 -110.45703125 68.37890625 C-103.60511896 56.83304025 -95.16877611 50.34594928 -82.77734375 45.41503906 C-77.02443594 42.92984765 -74.70238247 39.87308552 -71.7578125 34.453125 C-61.40102831 16.83296193 -45.37424855 8.51110736 -26.1328125 3.203125 C-17.42130175 1.10590945 -8.94044581 0.05126875 0 0 Z " fill="#56415D" transform="translate(260.7578125,-0.203125)"/>
<path d="M0 0 C0.33 0.66 0.66 1.32 1 2 C-1.72691368 8.0904609 -4.94572035 12.97286018 -11 16 C-11.88945312 16.33773437 -12.77890625 16.67546875 -13.6953125 17.0234375 C-25.02746013 21.34182624 -31.98557152 27.9145393 -38.8203125 37.8359375 C-41.97380633 46.29398387 -39.64946993 54.42550931 -36.8125 62.625 C-30.74965241 81.36149245 -27.46819975 100.38748099 -26 120 C-27.10472656 120.2784375 -28.20945313 120.556875 -29.34765625 120.84375 C-33.10906249 121.71847129 -33.10906249 121.71847129 -35.4375 124.5 C-38.13650827 130.54577852 -37.71514922 136.61235294 -35.5390625 142.81640625 C-34.91770126 144.40505463 -34.27952475 145.98722516 -33.625 147.5625 C-31.42239231 153.01977393 -29.56486408 158.22481209 -28.49926758 164.02734375 C-27.34354961 168.59370128 -24.8186732 171.45421787 -21 174 C-18.9507906 174.45139459 -18.9507906 174.45139459 -16.8125 174.625 C-15.554375 174.74875 -14.29625 174.8725 -13 175 C-12.84144531 176.26972656 -12.68289062 177.53945312 -12.51953125 178.84765625 C-10.22988544 196.1577165 -5.11228384 210.58128834 3 226 C3.66931377 227.33200649 4.33661313 228.6650318 5 230 C-1.02023669 234.16494362 -7.16434392 237.81710175 -13.625 241.25 C-32.05718832 251.24508782 -52.64063703 263.07356712 -60 284 C-60.1882674 286.54160994 -60.3757202 289.08328031 -60.5625 291.625 C-61.73709183 298.01786043 -61.73709183 298.01786043 -64.68017578 300.30664062 C-69.51313165 302.90576264 -74.73788905 304.47619363 -79.97167969 306.06542969 C-85.29017165 307.70677016 -90.51342788 309.61645531 -95.75 311.5 C-96.81041504 311.87672852 -97.87083008 312.25345703 -98.96337891 312.64160156 C-111.19237475 317.04123098 -123.35110813 322.03734397 -133 331 C-133.53625 331.48339844 -134.0725 331.96679688 -134.625 332.46484375 C-140.15803261 338.12755681 -142.84533067 345.86947165 -146 353 C-146.65557554 354.33882147 -147.31595387 355.67549892 -148 357 C-157.43902004 345.02226796 -170 320.478968 -170 305 C-147.62611078 283.81329674 -118.78654674 271.00924056 -90.84057617 259.08276367 C-64.26442274 247.96681944 -64.26442274 247.96681944 -46.76953125 226.09375 C-41.68306555 212.25443217 -47.89827287 199.44292068 -53.67651367 186.8581543 C-54.55721578 184.95622114 -55.44018393 183.05533562 -56.32543945 181.15551758 C-59.82289568 173.58659262 -62.67891638 166.01043742 -65 158 C-65.19722656 157.35546875 -65.39445312 156.7109375 -65.59765625 156.046875 C-67.41020419 146.82575734 -66.30833169 138.00800743 -63.5 129.1875 C-59.45992704 116.24604804 -58.71973987 102.34597722 -65 90 C-65.65355469 88.63681641 -65.65355469 88.63681641 -66.3203125 87.24609375 C-73.19787482 73.73525412 -84.12299217 62.30900614 -96 53 C-92.80069596 48.56771481 -89.16879438 45.57369985 -84.8125 42.375 C-84.10472412 41.85284912 -83.39694824 41.33069824 -82.66772461 40.79272461 C-57.41617759 22.35583828 -30.06851706 8.69362581 0 0 Z " fill="#FE9100" transform="translate(190,30)"/>
<path d="M0 0 C25.7611433 4.22974433 52.72662241 26.16713044 72 43 C69.69444699 46.17013538 67.21052644 48.77157573 64.25 51.3125 C51.88798652 62.00644142 38.73850407 77.08359968 36.76049805 94.05493164 C36.62248288 96.31208138 36.56999806 98.55113253 36.5625 100.8125 C36.55863281 101.63709717 36.55476563 102.46169434 36.55078125 103.3112793 C36.67578422 110.14803052 38.17810657 116.07702681 40.20336914 122.56616211 C46.64033116 143.75829769 36.08130673 164.88314938 27.15966797 183.82226562 C22.16442802 194.58259756 18.44055318 205.34667882 22.4375 217.0625 C31.5874587 237.2887245 56.70954642 246.37780139 75.83886719 254.20068359 C101.80780063 264.85492059 125.39207355 277.71426352 146 297 C140.65764273 314.95358067 133.462028 331.35491195 125 348 C121.70725316 346.35362658 121.07931288 342.70758052 119.75 339.4375 C113.42599128 324.50032315 103.52989232 315.22982618 88.46142578 308.94042969 C81.36356651 306.14186639 74.18355161 303.56855018 67 301 C63.92017756 299.89166539 60.84114188 298.7812257 57.76318359 297.66772461 C55.88762141 296.990588 54.01042341 296.31795914 52.13134766 295.65063477 C49.74301299 294.79410201 47.37059468 293.90424194 45 293 C43.83597656 292.57074219 42.67195313 292.14148438 41.47265625 291.69921875 C39 290 39 290 38.00390625 286.91796875 C37.85824219 285.68691406 37.71257812 284.45585937 37.5625 283.1875 C35.17535512 267.645502 26.8387323 256.11630345 14.4375 246.75 C5.34670513 240.12342836 -4.57438865 234.83896138 -14.41601562 229.43017578 C-19.32988571 226.71046197 -24.16599632 223.85881938 -29 221 C-27.52742722 217.09479473 -25.70463466 213.49725046 -23.75 209.8125 C-16.64598702 195.86592561 -13.08085207 181.44211275 -11 166 C-10.39671875 165.90203125 -9.7934375 165.8040625 -9.171875 165.703125 C-5.59781865 165.03443059 -2.68583801 164.45120922 0.375 162.4375 C2.75806723 158.86289915 3.82454063 155.10764924 5 151 C5.47718709 149.37441759 5.95638107 147.74942306 6.4375 146.125 C6.67984375 145.2896875 6.9221875 144.454375 7.171875 143.59375 C8.04167316 140.86947652 9.10734729 138.27213482 10.1875 135.625 C12.35059101 129.74540128 12.91111742 124.21047383 12 118 C10.0191169 114.19060943 8.87643265 113.31099223 4.8515625 111.8828125 C3.91054688 111.59148437 2.96953125 111.30015625 2 111 C2.28227781 106.66183576 2.628486 102.33141621 3 98 C3.09925781 96.79472656 3.19851563 95.58945313 3.30078125 94.34765625 C4.95287966 78.17711729 9.17046349 62.45201797 16.45947266 47.89697266 C19.3412796 41.99987674 19.89580926 37.72199276 17.78515625 31.30859375 C17.22777484 30.01086732 16.65272634 28.7206215 16.0625 27.4375 C15.75473633 26.75002686 15.44697266 26.06255371 15.12988281 25.35424805 C12.28620924 19.21385776 8.8020066 13.58462254 5.015625 7.98828125 C3.2498729 5.3704511 1.59653955 2.72321145 0 0 Z " fill="#FE9100" transform="translate(346,39)"/>
<path d="M0 0 C1.57270596 0.9166629 3.1468856 1.83080296 4.72265625 2.7421875 C5.41238525 3.15065918 6.10211426 3.55913086 6.81274414 3.97998047 C9.12763905 5.22746491 11.49124167 6.16555748 13.9375 7.125 C13.93892502 7.9783342 13.94035004 8.8316684 13.94181824 9.71086121 C13.95966001 17.75930763 14.00130804 25.80720488 14.06959057 33.85538769 C14.10385763 37.99293938 14.12897002 42.13012196 14.13305664 46.26782227 C14.13734034 50.26226411 14.16580757 54.25587337 14.21093178 58.25005531 C14.22390474 59.77259786 14.22821512 61.29524006 14.22365379 62.81783104 C14.21874567 64.9539272 14.24484153 67.08759181 14.27807617 69.22338867 C14.28806892 71.04540047 14.28806892 71.04540047 14.29826355 72.90422058 C15.11471401 77.01788908 16.72093791 78.52344269 19.9375 81.125 C22.04097971 81.6966918 22.04097971 81.6966918 24.0625 81.25 C25.05636719 81.13011719 25.05636719 81.13011719 26.0703125 81.0078125 C28.8699457 79.68413655 29.57007342 77.8636258 30.9375 75.125 C31.40421177 72.20258375 31.40421177 72.20258375 31.36987305 69.04956055 C31.38966721 67.84869308 31.40946136 66.64782562 31.42985535 65.41056824 C31.43624527 64.12394791 31.44263519 62.83732758 31.44921875 61.51171875 C31.46607558 60.17363343 31.48422718 58.83556384 31.50361633 57.49751282 C31.55101421 53.98771076 31.58088909 50.47797253 31.60705566 46.96795654 C31.63691315 43.3815043 31.68342552 39.79527173 31.72851562 36.20898438 C31.81443208 29.18111496 31.88182894 22.15317232 31.9375 15.125 C33.68233738 15.60009257 35.42711799 16.07539362 37.171875 16.55078125 C38.62932129 16.94777222 38.62932129 16.94777222 40.11621094 17.3527832 C41.80912667 17.81615223 43.50047222 18.28540434 45.18847656 18.76635742 C49.56246762 19.96135229 53.42139978 20.7104204 57.9375 20.125 C59.9175 18.475 61.8975 16.825 63.9375 15.125 C63.9375 51.425 63.9375 87.725 63.9375 125.125 C56.88210348 125.125 51.05987315 124.72073716 44.25 123.5 C43.25323242 123.32251221 42.25646484 123.14502441 41.22949219 122.9621582 C7.73061175 116.74508252 -25.22719005 103.96883647 -53.0625 84.125 C-54.39812988 83.38080811 -54.39812988 83.38080811 -55.76074219 82.62158203 C-59.37675436 78.69950519 -58.7408705 74.73650889 -58.65625 69.5859375 C-58.65629028 68.54990387 -58.65633057 67.51387024 -58.65637207 66.44644165 C-58.65101114 64.25248153 -58.63340416 62.05852226 -58.60449219 59.86474609 C-58.56291084 56.53291956 -58.56340263 53.20313413 -58.5703125 49.87109375 C-58.55980953 47.73436114 -58.54686551 45.59763886 -58.53125 43.4609375 C-58.53104858 42.47515717 -58.53084717 41.48937683 -58.53063965 40.47372437 C-58.35211232 29.84490783 -55.62398094 21.48736474 -49.0625 13.125 C-48.59457031 12.51914062 -48.12664062 11.91328125 -47.64453125 11.2890625 C-36.01212393 -1.92822294 -15.35819134 -9.14688016 0 0 Z " fill="#93512F" transform="translate(170.0625,385.875)"/>
<path d="M0 0 C5.20906092 1.07701958 9.56475659 3.83663084 14.1875 6.375 C15.1669458 6.91229736 16.1463916 7.44959473 17.15551758 8.00317383 C38.29924605 19.73363388 59.59060887 32.12096022 67.74609375 56.203125 C71.61102926 70.59667793 68.85088895 84.93285812 61.89453125 97.74609375 C52.87222571 113.24213605 35.43427102 121.9833755 20 130 C19.32348389 130.37116943 18.64696777 130.74233887 17.94995117 131.12475586 C16 132 16 132 13 132 C13.00666183 132.8533342 13.01332367 133.7066684 13.02018738 134.58586121 C13.08033832 142.63400417 13.12599466 150.68207147 13.15543652 158.73038769 C13.17108182 162.86796356 13.19229917 167.00535343 13.22631836 171.14282227 C13.25895259 175.13691851 13.27686156 179.13083602 13.28463173 183.12505531 C13.29016797 184.64767584 13.300979 186.17028675 13.31719017 187.69283104 C13.33901914 189.8282307 13.34196474 191.9628951 13.34057617 194.09838867 C13.34723801 195.3130632 13.35389984 196.52773773 13.36076355 197.77922058 C12.96561168 201.30700775 12.09009049 203.16433941 10 206 C7.34500276 208.08606926 5.93249496 207.99879455 2.5 207.9375 C-1.76473532 206.79516018 -2.65605059 205.66895795 -5 202 C-5.48101807 199.04496765 -5.48101807 199.04496765 -5.45410156 195.7409668 C-5.45379944 194.50005783 -5.45349731 193.25914886 -5.45318604 191.9806366 C-5.43276278 190.63682404 -5.41189885 189.29301811 -5.390625 187.94921875 C-5.38315866 186.56631795 -5.37746758 185.18340652 -5.37347412 183.80049133 C-5.3582483 180.17197123 -5.31899424 176.54409812 -5.2746582 172.91583252 C-5.23363873 169.20895132 -5.21544895 165.50196493 -5.1953125 161.79492188 C-5.15249579 154.52965391 -5.084283 147.26491783 -5 140 C-6.34022217 140.51856567 -6.34022217 140.51856567 -7.70751953 141.04760742 C-8.87911621 141.49982666 -10.05071289 141.9520459 -11.2578125 142.41796875 C-12.41941895 142.8668042 -13.58102539 143.31563965 -14.77783203 143.77807617 C-20.57073821 145.97488595 -25.69595505 147.70044944 -32 147 C-33.65 145.68 -35.3 144.36 -37 143 C-37.33 178.64 -37.66 214.28 -38 251 C-38.33 251 -38.66 251 -39 251 C-39.09350696 235.97917134 -39.16401032 220.95836527 -39.20724869 205.93730736 C-39.22786011 198.96250037 -39.2559532 191.98787439 -39.30175781 185.01318359 C-39.34593628 178.28288914 -39.36913441 171.55282164 -39.37950897 164.82237625 C-39.38690285 162.25392318 -39.40134118 159.68548046 -39.42292023 157.11710739 C-39.45193365 153.52104147 -39.45595669 149.92575387 -39.45410156 146.32958984 C-39.46848267 145.26647583 -39.48286377 144.20336182 -39.49768066 143.10803223 C-39.45595524 135.63895238 -38.17441951 132.31646552 -32.9921875 126.90234375 C-32.29351562 126.25394531 -31.59484375 125.60554688 -30.875 124.9375 C-14.88356182 109.23490554 -0.95949999 87.02485188 -0.66992188 64.0637207 C-0.78954504 47.89299426 -5.1258724 35.65523724 -13.30859375 21.78125 C-14.24074425 19.37977753 -14.00533908 18.36254683 -13 16 C-11.328125 13.88671875 -11.328125 13.88671875 -9.25 11.6875 C-5.819765 7.96112961 -2.84836214 4.18353189 0 0 Z " fill="#B26946" transform="translate(316,260)"/>
<path d="M0 0 C0.73049561 -0.00298096 1.46099121 -0.00596191 2.21362305 -0.0090332 C5.46177038 -0.00726579 8.70907764 0.01921228 11.95703125 0.0546875 C9.09382318 2.9624784 6.21221359 5.75004334 3.08203125 8.3671875 C-6.28918878 16.61526506 -14.46807026 27.51538893 -17.04296875 40.0546875 C-17.54946825 49.42492822 -17.72801735 58.26607786 -14.04296875 67.0546875 C-13.68332031 67.91320312 -13.32367188 68.77171875 -12.953125 69.65625 C-12.01737219 71.80748244 -11.05088608 73.9365262 -10.04296875 76.0546875 C-13.26131243 75.54312979 -16.44682383 74.96996573 -19.63671875 74.30078125 C-34.00460323 71.32662916 -47.60189592 69.96049249 -60.79296875 77.5546875 C-67.11718358 82.04320103 -70.67423135 89.41030444 -72.6784668 96.78930664 C-73.35977892 101.02366379 -73.20999216 105.29826941 -73.21850586 109.57763672 C-73.25286217 120.99935671 -73.32294886 131.00338087 -79.3515625 141.046875 C-81.40889344 144.70540807 -82.16334158 147.96154802 -83.04296875 152.0546875 C-86.01296875 151.3946875 -88.98296875 150.7346875 -92.04296875 150.0546875 C-92.13795654 149.38751709 -92.23294434 148.72034668 -92.33081055 148.03295898 C-95.12187239 128.64791642 -98.12365007 109.41856068 -104.35546875 90.8046875 C-109.25914137 75.86637759 -109.25914137 75.86637759 -105.7421875 68.23046875 C-98.89027521 56.68460275 -90.45393236 50.19751178 -78.0625 45.26660156 C-72.30959219 42.78141015 -69.98753872 39.72464802 -67.04296875 34.3046875 C-56.68618456 16.68452443 -40.6594048 8.36266986 -21.41796875 3.0546875 C-14.29966559 1.34102192 -7.32941399 0.0298479 0 0 Z " fill="#46314C" transform="translate(256.04296875,-0.0546875)"/>
<path d="M0 0 C0.99 0.495 0.99 0.495 2 1 C-0.01740481 3.35717826 -2.03879176 5.71074268 -4.0625 8.0625 C-4.62388672 8.71927734 -5.18527344 9.37605469 -5.76367188 10.05273438 C-9.18293899 14.01908422 -12.70604906 17.76371163 -16.51733398 21.35717773 C-19.50375544 24.66618975 -20.24996426 27.51665274 -20.24050903 31.92279053 C-20.24325836 32.91274521 -20.24600769 33.90269989 -20.24884033 34.9226532 C-20.24164978 36.0023085 -20.23445923 37.08196381 -20.22705078 38.19433594 C-20.22734283 39.3360878 -20.22763489 40.47783966 -20.22793579 41.65419006 C-20.22654159 45.43099547 -20.21097587 49.20760402 -20.1953125 52.984375 C-20.1915827 55.60182589 -20.18873557 58.21927817 -20.18673706 60.83673096 C-20.18052306 67.0238012 -20.16411334 73.21080069 -20.14403808 79.39783978 C-20.12167658 86.44252856 -20.11068502 93.48722073 -20.10064721 100.53193617 C-20.07974702 115.02133245 -20.04307178 129.51065217 -20 144 C-34.19 144 -48.38 144 -63 144 C-63.02187378 138.82944946 -63.02187378 138.82944946 -63.04418945 133.55444336 C-63.09453584 122.16296518 -63.16098149 110.77161254 -63.23571491 99.38027096 C-63.28063116 92.47398851 -63.32005532 85.56775714 -63.34643555 78.66137695 C-63.3719115 71.9958111 -63.41284416 65.33050353 -63.46318626 58.66507149 C-63.47986571 56.12262365 -63.49137325 53.58013642 -63.49761391 51.03764153 C-63.50724287 47.47529127 -63.53528945 43.91352487 -63.56762695 40.35131836 C-63.56547432 38.77606636 -63.56547432 38.77606636 -63.5632782 37.16899109 C-63.64797842 30.5672722 -64.29436269 25.49126211 -68.45458984 20.12304688 C-68.95168457 19.65962891 -69.4487793 19.19621094 -69.9609375 18.71875 C-70.51523438 18.18636719 -71.06953125 17.65398437 -71.640625 17.10546875 C-72.21296875 16.57566406 -72.7853125 16.04585938 -73.375 15.5 C-77.8640714 11.28765218 -81.55084607 7.11559908 -85 2 C-84.34 1.67 -83.68 1.34 -83 1 C-80.67754363 2.02152027 -78.44591231 3.10173551 -76.1875 4.25 C-58.19384851 12.8631658 -36.80941069 13.94450458 -17.60546875 8.359375 C-12.40298378 6.39787471 -7.55891223 3.97958136 -2.6953125 1.29296875 C-1.36113281 0.65294922 -1.36113281 0.65294922 0 0 Z " fill="#FEC838" transform="translate(298,368)"/>
<path d="M0 0 C1.67299024 1.66068884 3.33862022 3.32774732 5 5 C5.49242187 5.49048828 5.98484375 5.98097656 6.4921875 6.48632812 C15.73783564 15.86371478 15.73783564 15.86371478 16.2890625 20.35546875 C15.4952336 22.84435582 14.3809099 24.7783807 13 27 C11.81552546 29.2406765 10.6503559 31.4916173 9.5 33.75 C9.19199463 34.35150879 8.88398926 34.95301758 8.56665039 35.57275391 C0.9887743 50.73659994 1.2325798 67.157047 6.125 83.0234375 C7 86 7 86 7 89 C6.41621582 89.0093457 5.83243164 89.01869141 5.23095703 89.02832031 C-9.98438702 88.90661421 -9.98438702 88.90661421 -24 94 C-24.58652344 94.34933594 -25.17304688 94.69867188 -25.77734375 95.05859375 C-30.35976217 98.29653733 -32.50779096 102.7499242 -34 108 C-34.57186797 111.9982702 -34.86344344 115.96475356 -35 120 C-49.44772464 113.26446404 -59.57314608 101.82726868 -65 87 C-69.3456458 73.43822614 -67.92397755 58.70428466 -61.52734375 46.09765625 C-50.85131296 28.10236086 -32.69795749 18.76624698 -15.04296875 8.859375 C-9.96789253 6.00595045 -4.9768763 3.0207972 0 0 Z " fill="#945230" transform="translate(194,260)"/>
<path d="M0 0 C1.85791441 2.78687161 3.20080661 5.4765727 4.625 8.5 C10.3564429 20.01839615 18.61280593 29.13808205 27.3125 38.484375 C28.034375 39.27328125 28.75625 40.0621875 29.5 40.875 C30.1496875 41.57367188 30.799375 42.27234375 31.46875 42.9921875 C34.05293897 46.38063936 34.12480236 49.68104074 34.12025452 53.84686279 C34.12231651 55.30655235 34.12231651 55.30655235 34.12442017 56.79573059 C34.11902725 58.38716133 34.11902725 58.38716133 34.11352539 60.01074219 C34.11367142 61.13298691 34.11381744 62.25523163 34.1139679 63.41148376 C34.11327087 67.12330046 34.10548822 70.83506706 34.09765625 74.546875 C34.09579133 77.11948621 34.09436777 79.69209778 34.09336853 82.26470947 C34.08993965 88.34550734 34.082057 94.42628452 34.07201904 100.50707459 C34.06083784 107.43085416 34.05534239 114.35463458 34.05032361 121.27842093 C34.03987385 135.51895695 34.02228691 149.75947783 34 164 C33.67 164 33.34 164 33 164 C32.505 110.045 32.505 110.045 32 55 C30.35 56.32 28.7 57.64 27 59 C21.34703611 59.69731171 16.51868425 58.24092141 11.1875 56.5625 C10.42501953 56.33240234 9.66253906 56.10230469 8.87695312 55.86523438 C3.37202381 54.1860119 3.37202381 54.1860119 1 53 C1.00888245 53.7383609 1.01776489 54.4767218 1.0269165 55.23745728 C1.10721259 62.21095089 1.16804057 69.18437501 1.20724869 76.15821266 C1.22808423 79.74320901 1.25632651 83.32782194 1.30175781 86.91259766 C1.34536192 90.3750419 1.36916743 93.83711841 1.37950897 97.29981613 C1.39044821 99.25742482 1.42165128 101.21488648 1.45318604 103.17227173 C1.45599177 114.32367123 1.45599177 114.32367123 -3 119 C-5.6564772 120.27806656 -8.08605691 120.36424289 -11 120 C-13.85993478 118.23535939 -15.49782849 117.00434303 -17 114 C-17.09188942 111.81459189 -17.11750236 109.62630031 -17.11352539 107.43896484 C-17.11367142 106.76567642 -17.11381744 106.092388 -17.1139679 105.3986969 C-17.11327027 103.16941119 -17.10548489 100.94020865 -17.09765625 98.7109375 C-17.09579154 97.16679937 -17.09436789 95.62266066 -17.09336853 94.07852173 C-17.08954754 90.01129528 -17.07972082 85.94410445 -17.06866455 81.87689209 C-17.05844144 77.7278288 -17.05386898 73.57875975 -17.04882812 69.4296875 C-17.03809819 61.28644197 -17.02102677 53.14322542 -17 45 C-17.59888535 44.80967697 -18.19777069 44.61935394 -18.81480408 44.42326355 C-26.71897655 41.86042536 -26.71897655 41.86042536 -30.37890625 39.73828125 C-31.41821289 39.14370117 -31.41821289 39.14370117 -32.47851562 38.53710938 C-33.51008789 37.93092773 -33.51008789 37.93092773 -34.5625 37.3125 C-35.28501953 36.89677734 -36.00753906 36.48105469 -36.75195312 36.05273438 C-38.50550223 35.04241138 -40.25337989 34.02225496 -42 33 C-42.62519688 24.13609755 -42.22456299 17.40030937 -37 10 C-29.4963619 1.97285227 -20.48994106 0.65308412 -10 0.0625 C-9.05503662 0.00481445 -8.11007324 -0.05287109 -7.13647461 -0.11230469 C-6.24581299 -0.14614258 -5.35515137 -0.17998047 -4.4375 -0.21484375 C-3.63183594 -0.24698975 -2.82617188 -0.27913574 -1.99609375 -0.31225586 C-1.33738281 -0.20921143 -0.67867187 -0.10616699 0 0 Z " fill="#B36B47" transform="translate(201,348)"/>
<path d="M0 0 C0.33 0.66 0.66 1.32 1 2 C2.32872005 2.67581451 3.66286818 3.34098503 5 4 C6.35313287 5.0584991 7.68513803 6.14432062 9 7.25 C19.6436504 15.61162388 31.68033896 19.48640215 45 21 C46.20407761 40.83383394 39.05392664 60.10540623 26 75 C19.57855401 81.74831762 12.36393504 86.88420285 4 91 C3.34 91 2.68 91 2 91 C0.4416702 88.84160607 -0.95015572 86.71683365 -2.3125 84.4375 C-2.71476807 83.76581787 -3.11703613 83.09413574 -3.53149414 82.40209961 C-7.47672434 75.56736022 -9.90935738 68.59852037 -12 61 C-12.18401367 60.36046387 -12.36802734 59.72092773 -12.55761719 59.06201172 C-17.17474534 42.1778078 -13.31002858 24.85815782 -4.81835938 9.95849609 C-4.48384766 9.3805127 -4.14933594 8.8025293 -3.8046875 8.20703125 C-2.28240008 5.50184084 -1.06263727 2.90855872 0 0 Z " fill="#F8C889" transform="translate(210,278)"/>
<path d="M0 0 C3.21888693 1.71597193 6.08905519 3.8102115 9 6 C10.010625 6.721875 11.02125 7.44375 12.0625 8.1875 C20.96513492 15.95572715 26.07071538 27.06872394 30.08203125 37.9296875 C29.96936394 42.14666402 28.24697648 43.52715945 25.31347656 46.40380859 C24.6325293 47.03367676 23.95158203 47.66354492 23.25 48.3125 C22.56131836 48.97330566 21.87263672 49.63411133 21.16308594 50.31494141 C15.67585941 55.52283213 9.95468904 60.33519909 4 65 C1.16486775 67.34631635 -1.6643624 69.69957346 -4.4921875 72.0546875 C-6.90570451 73.9268549 -9.37080249 75.453381 -12 77 C-12.09273712 67.82917151 -12.16378355 58.65850478 -12.20724869 49.48730946 C-12.22811132 45.2285943 -12.25640431 40.97020027 -12.30175781 36.71166992 C-12.34526351 32.6008508 -12.36914707 28.4903403 -12.37950897 24.3793087 C-12.38689193 22.81200999 -12.40130936 21.24472791 -12.42292023 19.67756081 C-12.45201852 17.47973952 -12.45595354 15.28318843 -12.45410156 13.08520508 C-12.46298401 11.83500076 -12.47186646 10.58479645 -12.48101807 9.29670715 C-11.91259265 5.40094467 -10.7404029 3.77053848 -8 1 C-5.00818583 -0.49590709 -3.3583794 -0.42743011 0 0 Z " fill="#753616" transform="translate(408,392)"/>
<path d="M0 0 C0.99 0.495 0.99 0.495 2 1 C-0.01740481 3.35717826 -2.03879176 5.71074268 -4.0625 8.0625 C-4.62388672 8.71927734 -5.18527344 9.37605469 -5.76367188 10.05273438 C-9.18293899 14.01908422 -12.70604906 17.76371163 -16.51733398 21.35717773 C-19.38918366 24.53924203 -20.25393782 27.54462868 -20.625 31.75 C-20.75 33.16666667 -20.875 34.58333333 -21 36 C-28.28882365 37.9314233 -35.04056671 38.30382421 -42.5625 38.25 C-43.64724609 38.25773437 -44.73199219 38.26546875 -45.84960938 38.2734375 C-51.92003652 38.25869451 -57.18898758 37.77500016 -63 36 C-63.03996094 35.32195312 -63.07992187 34.64390625 -63.12109375 33.9453125 C-64.10703705 25.15702778 -67.86060341 21.05618188 -74 15 C-75.85793446 13.04300194 -77.67986324 11.05459736 -79.5 9.0625 C-80.3353125 8.16660156 -81.170625 7.27070313 -82.03125 6.34765625 C-84 4 -84 4 -85 1 C-81.11274359 2.15567082 -77.574279 3.67227978 -73.9375 5.4375 C-55.78774993 13.6060959 -32.65526894 14.03362253 -14 7 C-10.13320899 5.26540025 -6.40489335 3.34211079 -2.6953125 1.29296875 C-1.36113281 0.65294922 -1.36113281 0.65294922 0 0 Z " fill="#FEDC40" transform="translate(298,368)"/>
<path d="M0 0 C4.43691178 0.87153624 5.71248682 2.16623481 8.5 5.6875 C8.98614495 8.42352157 9.16720498 10.53380249 9.11523438 13.26000977 C9.12078339 14.00533966 9.1263324 14.75066956 9.13204956 15.51858521 C9.14382332 17.97268759 9.11959863 20.42493415 9.09375 22.87890625 C9.09203837 24.58853572 9.09210511 26.29816782 9.09387207 28.00779724 C9.0922202 31.58642774 9.07354542 35.16443075 9.04199219 38.74291992 C9.00228464 43.32863208 8.99795115 47.91352386 9.00545502 52.49937534 C9.00852498 56.02788298 8.99640382 59.55620636 8.97932434 63.08466911 C8.97229675 64.77554099 8.96916952 66.46643375 8.97001648 68.15732002 C8.96821778 70.52005878 8.94683215 72.88181588 8.91992188 75.24438477 C8.92285248 75.9421553 8.92578308 76.63992584 8.92880249 77.35884094 C8.85783841 81.39894497 8.40537062 83.79815697 5.5 86.6875 C2.85160857 87.75128903 0.33609601 87.93628035 -2.5 87.6875 C-5.35993478 85.92285939 -6.99782849 84.69184303 -8.5 81.6875 C-8.61801102 79.35072736 -8.66989961 77.01053629 -8.69287109 74.67089844 C-8.70104858 73.94872635 -8.70922607 73.22655426 -8.71765137 72.48249817 C-8.74250728 70.08729889 -8.75902321 67.69215895 -8.7734375 65.296875 C-8.77876118 64.47875587 -8.78408485 63.66063675 -8.78956985 62.81772614 C-8.81630436 58.48607825 -8.83567686 54.1544592 -8.85009766 49.82275391 C-8.8667319 45.35250351 -8.91149781 40.88299231 -8.9624691 36.41302109 C-8.99615994 32.97285129 -9.00767712 29.5328564 -9.01332474 26.09253693 C-9.02003392 24.44511527 -9.0352475 22.79770499 -9.05921555 21.15044403 C-9.0909071 18.8402477 -9.09089889 16.53203715 -9.08349609 14.22167969 C-9.09158295 12.90866882 -9.0996698 11.59565796 -9.10800171 10.24285889 C-8.16358904 4.72029881 -5.76990028 1.13337327 0 0 Z " fill="#DCEBFB" transform="translate(192.5,380.3125)"/>
<path d="M0 0 C4.46850696 0.79794767 5.70518437 2.09131471 8.5 5.625 C8.99118218 8.3597593 9.17691624 10.47141594 9.13110352 13.19750977 C9.13825882 13.94283966 9.14541412 14.68816956 9.15278625 15.45608521 C9.16964177 17.91015646 9.15029328 20.36239284 9.12890625 22.81640625 C9.12973516 24.52603812 9.13219538 26.2356699 9.13621521 27.94529724 C9.13907091 31.52391621 9.12439324 35.1019085 9.09692383 38.68041992 C9.06281512 43.26625996 9.0688697 47.85098151 9.0875864 52.43687534 C9.09815622 55.96540138 9.08921928 59.49366727 9.07420158 63.02216911 C9.06902088 64.71304489 9.06950024 66.40394784 9.07574654 68.09482002 C9.08119978 70.45776915 9.06082381 72.81911804 9.03344727 75.18188477 C9.03997314 75.8796553 9.04649902 76.57742584 9.05322266 77.29634094 C8.98807208 80.6047631 8.70116533 82.35920966 6.6815033 85.0276947 C3.57723145 87.30065476 1.32519065 87.625 -2.5 87.625 C-5.30189446 85.85858828 -7.01524911 84.59450178 -8.5 81.625 C-8.61864523 79.24121428 -8.6782656 76.88567514 -8.69287109 74.50073242 C-8.70104858 73.76720047 -8.70922607 73.03366852 -8.71765137 72.27790833 C-8.74250522 69.84543679 -8.7590213 67.41302362 -8.7734375 64.98046875 C-8.77876118 64.15006891 -8.78408485 63.31966908 -8.78956985 62.46410561 C-8.81630148 58.06877185 -8.83567626 53.67346649 -8.85009766 49.27807617 C-8.86674535 44.738231 -8.91152341 40.19911181 -8.9624691 35.65954113 C-8.996126 32.16879951 -9.00767332 28.67823053 -9.01332474 25.18734169 C-9.02004163 23.51397465 -9.03527523 21.84061915 -9.05921555 20.1674099 C-9.09083868 17.8234887 -9.09090926 15.48152971 -9.08349609 13.13745117 C-9.09990143 12.44791351 -9.11630676 11.75837585 -9.13320923 11.04794312 C-9.08430651 7.26517536 -8.55819525 5.69858063 -6.18228149 2.6945343 C-3.5 0.625 -3.5 0.625 0 0 Z " fill="#DDEBFC" transform="translate(319.5,380.375)"/>
<path d="M0 0 C0.75023437 -0.00515625 1.50046875 -0.0103125 2.2734375 -0.015625 C4.98605509 0.29078363 7.14066036 1.14389825 9.625 2.25 C9.59019531 3.36632812 9.55539063 4.48265625 9.51953125 5.6328125 C9.30844162 15.79040167 10.02750423 25.45383373 11.55126953 35.49707031 C12.5430337 42.15895672 13.00911857 48.50658515 12.625 55.25 C8.24545284 55.68795472 6.1433357 55.57894381 2.375 53.1875 C-2.91472239 48.13630621 -3.87994853 41.34714533 -5.48046875 34.5 C-6.42541403 31.06683636 -7.68813466 27.90799102 -9.0625 24.625 C-11.26146856 19.06094318 -12.55997505 14.20719276 -11.375 8.25 C-8.66691991 3.02060396 -6.07758031 -0.04148519 0 0 Z " fill="#F8C888" transform="translate(163.375,149.75)"/>
<path d="M0 0 C3.07061968 1.71368609 5.40450726 3.80901452 7 7 C8.23466395 16.03336411 5.85810372 22.91080325 2.51953125 31.0859375 C1.12296046 34.54225987 0.18434144 37.98070277 -0.625 41.625 C-1.87212 46.99272119 -3.27863466 50.93551595 -7.8125 54.375 C-10.88218724 55.2520535 -13.82347924 55.03689339 -17 55 C-16.65698812 45.3128715 -15.93414544 35.83237285 -14.4375 26.25 C-13.16426295 18.06918948 -12.62363015 10.29407635 -13 2 C-8.68846464 -0.42889662 -4.86590548 -0.85027068 0 0 Z " fill="#FED8A0" transform="translate(352,150)"/>
</svg>
