<?xml version="1.0" encoding="UTF-8"?>
<svg version="1.1" xmlns="http://www.w3.org/2000/svg" width="512" height="512">
<path d="M0 0 C1.01790619 0.00215515 2.03581238 0.0043103 3.08456421 0.00653076 C17.69363523 0.05620146 32.02575853 0.30709809 46.375 3.3125 C47.34985352 3.51117676 48.32470703 3.70985352 49.32910156 3.91455078 C97.7109774 14.03517194 141.69928269 35.9516877 177.375 70.3125 C178.3640332 71.26068604 178.3640332 71.26068604 179.37304688 72.22802734 C188.86130305 81.37247479 197.6012044 90.66984009 205.375 101.3125 C206.23306152 102.46355017 207.09113451 103.61459177 207.94921875 104.765625 C213.98736829 112.95680614 219.34595521 121.47054105 224.375 130.3125 C224.73948242 130.94430176 225.10396484 131.57610352 225.47949219 132.22705078 C247.08534998 169.97532572 256.85198095 212.74189997 256.6875 255.9375 C256.68534485 256.95540619 256.6831897 257.97331238 256.68096924 259.02206421 C256.63129854 273.63113523 256.38040191 287.96325853 253.375 302.3125 C253.07698486 303.77478027 253.07698486 303.77478027 252.77294922 305.26660156 C242.65232806 353.6484774 220.7358123 397.63678269 186.375 433.3125 C185.74287598 433.97185547 185.11075195 434.63121094 184.45947266 435.31054688 C175.31502521 444.79880305 166.01765991 453.5387044 155.375 461.3125 C154.22394983 462.17056152 153.07290823 463.02863451 151.921875 463.88671875 C143.73224019 469.92427396 135.22961724 475.30707302 126.375 480.3125 C125.66778809 480.7146875 124.96057617 481.116875 124.23193359 481.53125 C101.09654164 494.5566741 75.92537591 503.30551461 49.9375 508.625 C49.21860596 508.77235596 48.49971191 508.91971191 47.7590332 509.0715332 C32.11274391 512.04539088 16.63931954 512.68550362 0.75 512.625 C-0.77685928 512.62176727 -0.77685928 512.62176727 -2.33456421 512.61846924 C-16.94363523 512.56879854 -31.27575853 512.31790191 -45.625 509.3125 C-47.08728027 509.01448486 -47.08728027 509.01448486 -48.57910156 508.71044922 C-91.84881524 499.65920074 -132.05019334 481.27479329 -165.625 452.3125 C-166.37007813 451.67828125 -167.11515625 451.0440625 -167.8828125 450.390625 C-181.38779833 438.57948485 -194.05918743 425.82889772 -204.625 411.3125 C-205.48149066 410.16255169 -206.33826433 409.01281411 -207.1953125 407.86328125 C-213.23534209 399.67315742 -218.61867614 391.16870382 -223.625 382.3125 C-224.0271875 381.60528809 -224.429375 380.89807617 -224.84375 380.16943359 C-237.8691741 357.03404164 -246.61801461 331.86287591 -251.9375 305.875 C-252.08485596 305.15610596 -252.23221191 304.43721191 -252.3840332 303.6965332 C-255.35789088 288.05024391 -255.99800362 272.57681954 -255.9375 256.6875 C-255.93534485 255.66959381 -255.9331897 254.65168762 -255.93096924 253.60293579 C-255.88129854 238.99386477 -255.63040191 224.66174147 -252.625 210.3125 C-252.42632324 209.33764648 -252.22764648 208.36279297 -252.02294922 207.35839844 C-241.90232806 158.9765226 -219.9858123 114.98821731 -185.625 79.3125 C-184.99287598 78.65314453 -184.36075195 77.99378906 -183.70947266 77.31445312 C-174.56502521 67.82619695 -165.26765991 59.0862956 -154.625 51.3125 C-153.47394983 50.45443848 -152.32290823 49.59636549 -151.171875 48.73828125 C-142.98224019 42.70072604 -134.47961724 37.31792698 -125.625 32.3125 C-124.91778809 31.9103125 -124.21057617 31.508125 -123.48193359 31.09375 C-100.34654164 18.0683259 -75.17537591 9.31948539 -49.1875 4 C-48.46860596 3.85264404 -47.74971191 3.70528809 -47.0090332 3.5534668 C-31.36274391 0.57960912 -15.88931954 -0.06050362 0 0 Z " fill="#FEC94F" transform="translate(255.625,-0.3125)"/>
<path d="M0 0 C1.00269928 -0.01929062 2.00539856 -0.03858124 3.03848267 -0.05845642 C7.66672731 -0.11688069 12.2948224 -0.16559351 16.92333984 -0.19628906 C19.34373374 -0.21771561 21.76405348 -0.25163132 24.18408203 -0.29882812 C53.65885609 -0.86751884 73.04966493 6.8823977 94.52880859 27.45874023 C117.75139613 51.38379038 134.32737781 84.99237997 141.96630859 117.20874023 C142.26408203 118.4475293 142.56185547 119.68631836 142.86865234 120.96264648 C151.60039199 160.93297962 137.21235249 198.86333402 119.7980957 234.21875 C115.57828207 242.79936257 111.81241412 251.41764188 107.96630859 260.20874023 C93.11630859 260.20874023 78.26630859 260.20874023 62.96630859 260.20874023 C58.36630859 246.40874023 58.36630859 246.40874023 57.96630859 240.20874023 C57.83353516 239.41854492 57.70076172 238.62834961 57.56396484 237.81420898 C57.24685447 234.98627952 57.23048961 232.96698566 57.96630859 230.20874023 C60.17879002 227.61494939 62.59166953 225.60721553 65.23974609 223.46264648 C76.70265226 213.98686302 82.67932492 199.66379727 87.34130859 185.89624023 C87.57994629 185.19241211 87.81858398 184.48858398 88.06445312 183.76342773 C91.47730207 173.12264345 92.3153478 162.7200458 92.28198242 151.609375 C92.27878853 149.38224772 92.30248842 147.15641068 92.32763672 144.92944336 C92.32990731 143.49520022 92.33061433 142.06095356 92.32958984 140.62670898 C92.3325708 139.34562256 92.33555176 138.06453613 92.33862305 136.74462891 C91.83522679 131.96384989 90.36881575 128.61124739 86.96630859 125.20874023 C84.00356015 124.21017251 81.22562644 124.07457711 78.11474609 124.03295898 C77.18017578 124.00911133 76.24560547 123.98526367 75.28271484 123.96069336 C73.34542788 123.91824285 71.40786597 123.88671531 69.47021484 123.86694336 C59.31606715 123.56829196 50.3523852 120.34064012 42.96630859 113.20874023 C35.56073864 104.77219878 29.52425093 93.88256723 25.96630859 83.20874023 C25.67498047 83.73193848 25.38365234 84.25513672 25.08349609 84.79418945 C14.09723235 104.42177149 14.09723235 104.42177149 6.96630859 112.20874023 C5.90669922 113.38823242 5.90669922 113.38823242 4.82568359 114.59155273 C-5.31939431 125.33965974 -17.31450804 130.99203118 -32.11962891 131.63916016 C-33.69725626 131.68463182 -35.27572244 131.7078814 -36.85400391 131.70605469 C-40.32943959 131.75939894 -42.82280549 132.10216348 -45.93994141 133.67749023 C-52.34007276 141.41496247 -50.61026754 154.76583513 -50.03369141 164.20874023 C-47.72252292 185.36643716 -37.06328871 211.48281941 -20.39306641 225.41577148 C-19.57322266 226.04870117 -18.75337891 226.68163086 -17.90869141 227.33374023 C-15.3563322 229.47646154 -14.19967563 230.528308 -13.40478516 233.78686523 C-13.34398505 236.68905685 -13.5858697 239.34188166 -14.03369141 242.20874023 C-14.15744141 243.08143555 -14.28119141 243.95413086 -14.40869141 244.85327148 C-15.36085828 250.38774143 -17.00705152 254.80436721 -19.03369141 260.20874023 C-33.88369141 260.20874023 -48.73369141 260.20874023 -64.03369141 260.20874023 C-66.67369141 254.26874023 -69.31369141 248.32874023 -72.03369141 242.20874023 C-74.08738016 237.82040206 -76.14480348 233.43554936 -78.22122192 229.05819702 C-86.17322056 212.2497504 -93.633299 195.3438161 -98.03369141 177.20874023 C-98.22060547 176.44416504 -98.40751953 175.67958984 -98.60009766 174.8918457 C-100.48580807 166.05762913 -100.43194258 157.19998195 -100.40869141 148.20874023 C-100.40781525 147.38415314 -100.40693909 146.55956604 -100.40603638 145.70999146 C-100.36297152 133.4406802 -99.78447731 121.97393268 -96.03369141 110.20874023 C-95.6955542 109.07154541 -95.6955542 109.07154541 -95.35058594 107.91137695 C-87.36721725 81.3380866 -73.97045417 55.41032294 -56.03369141 34.20874023 C-54.83292969 32.76047852 -54.83292969 32.76047852 -53.60791016 31.28295898 C-40.71630511 16.36583171 -20.5467537 0.37138648 0 0 Z " fill="#666666" transform="translate(234.03369140625,41.791259765625)"/>
<path d="M0 0 C10.3807683 2.45601224 20.57539835 5.25947332 30.7019043 8.61694336 C32.82463976 9.31650072 34.95387834 9.99319101 37.08398438 10.66992188 C49.04510274 14.56245275 61.1393205 19.85268386 68 31 C72.66687929 43.6635823 74.18870385 57.6367305 76.4375 70.875 C77.18182284 75.22732473 77.93113969 79.57876156 78.68359375 83.9296875 C78.95881363 85.53236481 78.95881363 85.53236481 79.23959351 87.16741943 C80.80781994 96.182454 82.60471496 105.14541669 84.542099 114.08834839 C84.74742752 115.06869049 84.95275604 116.04903259 85.16430664 117.05908203 C85.34997696 117.91921906 85.53564728 118.77935608 85.72694397 119.66555786 C86.01665094 122.14235416 85.88336748 123.67687728 85 126 C56.06263054 153.44575247 12.8911631 169.46696602 -25.4375 177.3125 C-26.15639404 177.45985596 -26.87528809 177.60721191 -27.6159668 177.7590332 C-43.26225609 180.73289088 -58.73568046 181.37300362 -74.625 181.3125 C-75.64290619 181.31034485 -76.66081238 181.3081897 -77.70956421 181.30596924 C-92.31863523 181.25629854 -106.65075853 181.00540191 -121 178 C-122.46228027 177.70198486 -122.46228027 177.70198486 -123.95410156 177.39794922 C-161.70640073 169.50084496 -197.3459161 154.64466729 -228.21337891 131.32910156 C-229.39405678 130.45077274 -230.6056863 129.61245052 -231.84521484 128.81933594 C-233.54296875 127.6484375 -233.54296875 127.6484375 -236 125 C-236.03138928 121.96919107 -235.68501081 119.90718813 -235 117 C-234.61558109 114.78915642 -234.24025567 112.57672353 -233.87109375 110.36328125 C-233.3957517 107.6792057 -232.91828865 104.99559716 -232.4375 102.3125 C-231.89660061 99.29176204 -231.3561882 96.27093785 -230.81640625 93.25 C-230.6728772 92.44786575 -230.52934814 91.64573151 -230.38146973 90.81929016 C-229.38778803 85.24284471 -228.42844588 79.66121029 -227.48530579 74.07600403 C-226.79442124 69.99277894 -226.09291359 65.91141005 -225.39041138 61.83016968 C-225.04848418 59.82822836 -224.71125683 57.8254783 -224.37887573 55.82192993 C-223.90826565 52.98967959 -223.4207358 50.16079951 -222.9296875 47.33203125 C-222.79437119 46.49168335 -222.65905487 45.65133545 -222.51963806 44.78552246 C-220.78047726 34.99797385 -215.68471554 28.2270847 -208 22 C-198.79988614 15.82548212 -188.58516342 12.07996394 -178 9 C-177.14970215 8.74976074 -176.2994043 8.49952148 -175.42333984 8.24169922 C-166.65399494 5.66979317 -157.87801634 3.17063899 -149 1 C-153.26524639 5.71899601 -158.59036401 9.00425647 -163.80078125 12.578125 C-167.51427722 15.15350925 -170.95002699 17.62556178 -174 21 C-173.32066406 21.21011719 -172.64132813 21.42023438 -171.94140625 21.63671875 C-168.03172767 23.4487743 -165.15294684 25.97604606 -161.9375 28.8125 C-161.2784668 29.3892749 -160.61943359 29.9660498 -159.94042969 30.56030273 C-154.02312494 35.82401818 -148.6661866 41.48839413 -143.41748047 47.40917969 C-141.08110036 50.03126939 -138.69338697 52.60588543 -136.3125 55.1875 C-132.93602179 58.85870724 -129.61218857 62.5720996 -126.3125 66.3125 C-114.90437541 78.94795369 -98.79688923 92.15074648 -81.12890625 93.23828125 C-71.40001767 93.47465816 -63.12169731 92.76254543 -54 89 C-53.14277344 88.649375 -52.28554688 88.29875 -51.40234375 87.9375 C-34.3095887 80.13605237 -20.34358791 65.01087947 -7.96875 51.23828125 C17.9413677 22.68816206 17.9413677 22.68816206 28 21 C28 20.34 28 19.68 28 19 C27.34902344 18.79117187 26.69804687 18.58234375 26.02734375 18.3671875 C21.82069129 16.46740897 18.29038748 13.82617998 14.5625 11.125 C13.08514166 10.06439864 11.60728609 9.00448952 10.12890625 7.9453125 C9.42910645 7.44161133 8.72930664 6.93791016 8.00830078 6.41894531 C6.18447532 5.13033924 4.33708224 3.89634028 2.46484375 2.6796875 C1.65144531 2.12539063 0.83804688 1.57109375 0 1 C0 0.67 0 0.34 0 0 Z " fill="#FE5B62" transform="translate(331,331)"/>
<path d="M0 0 C3.26371726 1.63185863 3.87442711 5.19554312 5.1875 8.4375 C7.71667901 14.47849413 10.52177986 19.75162032 14.51953125 24.984375 C16 27 16 27 16.94921875 29.140625 C18.29996237 31.53078843 19.50186538 31.92490992 22 33 C24.53490895 34.53150749 27.04933533 36.09325937 29.5625 37.66015625 C33.37127519 39.75376184 36.7168631 40.12739067 41.02734375 40.24609375 C41.98447266 40.27896484 42.94160156 40.31183594 43.92773438 40.34570312 C45.93022672 40.40677849 47.93283763 40.46408557 49.93554688 40.51757812 C50.89396484 40.55173828 51.85238281 40.58589844 52.83984375 40.62109375 C54.14489868 40.65867798 54.14489868 40.65867798 55.47631836 40.69702148 C59.740964 41.20901 62.32896379 42.27304411 65.25 45.4375 C69.17061268 51.17839714 68.22275639 57.82050559 68.24023438 64.50146484 C68.24978547 66.70060365 68.28073957 68.89874306 68.3125 71.09765625 C68.41620799 84.57132979 66.28840745 97.01961406 61.3125 109.625 C60.96437256 110.51743408 60.61624512 111.40986816 60.25756836 112.3293457 C55.17809295 124.95207626 47.94207267 137.70396017 36.4375 145.5 C33.69441665 148.31341882 33.59995844 148.87361842 33.5 152.625 C33.61934239 154.42043995 33.78782763 156.21315079 34 158 C34.09667969 158.87011719 34.19335938 159.74023438 34.29296875 160.63671875 C35.85033899 171.19908126 39.60921477 183.03680772 47 191 C49.11682745 192.46230937 51.24974851 193.59306022 53.55859375 194.7265625 C56.17367139 196.090587 58.39218108 197.66633333 60.75 199.4375 C66.19010533 203.48113259 71.79153148 207.2500842 77.4375 211 C78.34943115 211.60674561 79.2613623 212.21349121 80.20092773 212.83862305 C84.12960133 215.44795804 88.06329814 218.0480098 92.0234375 220.609375 C93.10882813 221.31578125 94.19421875 222.0221875 95.3125 222.75 C96.23675781 223.34296875 97.16101563 223.9359375 98.11328125 224.546875 C98.73589844 225.02640625 99.35851562 225.5059375 100 226 C100 226.66 100 227.32 100 228 C98.47675109 229.01956941 96.90257299 229.96314644 95.3125 230.875 C88.03111329 235.39800424 82.08916061 241.03786654 76 247 C74.99767334 247.97960693 74.99767334 247.97960693 73.97509766 248.97900391 C71.85142312 251.06241455 69.73597244 253.15372281 67.625 255.25 C66.97120361 255.8989624 66.31740723 256.5479248 65.64379883 257.21655273 C62.46583625 260.40584639 59.40164867 263.64460934 56.4609375 267.0546875 C42.51847785 283.17259419 26.10054017 296.26656128 5 301 C-12.26115116 302.05293022 -26.26690413 298.93706242 -39.91796875 287.5703125 C-42.65344034 285.08763622 -45.32666715 282.54918427 -48 280 C-49.36843209 278.82563646 -50.7428392 277.65817427 -52.125 276.5 C-55.91068145 273.2047712 -59.19980975 269.56642273 -62.515625 265.8046875 C-65.80648535 262.08953383 -69.18023638 258.454582 -72.56201172 254.82226562 C-74.8469787 252.36119748 -77.09289795 249.8911402 -79.2734375 247.3359375 C-85.46132631 240.0898967 -93.37023436 232.31488282 -102 228 C-100.89834743 224.69504228 -100.41945873 224.31363354 -97.67578125 222.43359375 C-96.98395752 221.95325684 -96.29213379 221.47291992 -95.5793457 220.97802734 C-94.83128662 220.46965332 -94.08322754 219.9612793 -93.3125 219.4375 C-91.74972364 218.35586794 -90.18722746 217.27383095 -88.625 216.19140625 C-87.84253906 215.65273926 -87.06007812 215.11407227 -86.25390625 214.55908203 C-83.08214061 212.36509423 -79.94517742 210.12428674 -76.8125 207.875 C-75.68373632 207.06620723 -74.5548302 206.25761324 -73.42578125 205.44921875 C-72.86842285 205.05009277 -72.31106445 204.6509668 -71.73681641 204.23974609 C-69.90490664 202.932122 -68.06818127 201.63148583 -66.23046875 200.33203125 C-65.29400513 199.6680835 -65.29400513 199.6680835 -64.33862305 198.99072266 C-63.15787781 198.15380617 -61.97585492 197.31868769 -60.79223633 196.48583984 C-48.97652818 188.09617571 -43.21148939 177.85640245 -40.3125 163.625 C-40.1578125 161.830625 -40.1578125 161.830625 -40 160 C-39.8659375 159.154375 -39.731875 158.30875 -39.59375 157.4375 C-39.28595947 154.35959468 -39.27305892 152.0146674 -40 149 C-42.17757162 146.40024612 -44.56249243 144.4626821 -47.2109375 142.34765625 C-62.74066193 129.27571734 -72.76129017 104.76497798 -75.7578125 85.04296875 C-76.09397674 80.81922771 -76.20838479 76.61118347 -76.25 72.375 C-76.25950684 71.58681885 -76.26901367 70.7986377 -76.27880859 69.98657227 C-76.23907703 62.94010534 -76.13107379 56.48678686 -71.40234375 50.96875 C-67.17406683 48.52207771 -64.33649939 48.41635366 -59.5625 48.5 C-42.94558069 48.16456265 -30.0921527 41.90109882 -18.55078125 29.96484375 C-10.81715353 20.97583389 -4.92539876 10.7517851 0 0 Z " fill="#FDD197" transform="translate(259,124)"/>
<path d="M0 0 C0.99 0.495 0.99 0.495 2 1 C2.8219231 3.64147024 3.55463994 6.26286436 4.25 8.9375 C6.20251659 16.0390457 8.7169747 21.94598771 13 28 C13.99 29.485 13.99 29.485 15 31 C16.80736225 32.16190327 16.80736225 32.16190327 18.9375 33.1875 C22.42261589 35.0535463 25.58235267 37.07313166 28.75 39.4375 C34.19010533 43.48113259 39.79153148 47.2500842 45.4375 51 C46.80539673 51.91011841 46.80539673 51.91011841 48.20092773 52.83862305 C52.12960133 55.44795804 56.06329814 58.0480098 60.0234375 60.609375 C61.10882813 61.31578125 62.19421875 62.0221875 63.3125 62.75 C64.23675781 63.34296875 65.16101563 63.9359375 66.11328125 64.546875 C66.73589844 65.02640625 67.35851562 65.5059375 68 66 C68 66.66 68 67.32 68 68 C66.47675109 69.01956941 64.90257299 69.96314644 63.3125 70.875 C56.03111329 75.39800424 50.08916061 81.03786654 44 87 C43.33178223 87.65307129 42.66356445 88.30614258 41.97509766 88.97900391 C39.85142312 91.06241455 37.73597244 93.15372281 35.625 95.25 C34.97120361 95.8989624 34.31740723 96.5479248 33.64379883 97.21655273 C30.46583625 100.40584639 27.40164867 103.64460934 24.4609375 107.0546875 C10.51847785 123.17259419 -5.89945983 136.26656128 -27 141 C-44.26115116 142.05293022 -58.26690413 138.93706242 -71.91796875 127.5703125 C-74.65344034 125.08763622 -77.32666715 122.54918427 -80 120 C-81.36843209 118.82563646 -82.7428392 117.65817427 -84.125 116.5 C-87.91068145 113.2047712 -91.19980975 109.56642273 -94.515625 105.8046875 C-97.80648535 102.08953383 -101.18023638 98.454582 -104.56201172 94.82226562 C-106.8469787 92.36119748 -109.09289795 89.8911402 -111.2734375 87.3359375 C-117.46132631 80.0898967 -125.37023436 72.31488282 -134 68 C-132.89834743 64.69504228 -132.41945873 64.31363354 -129.67578125 62.43359375 C-128.98395752 61.95325684 -128.29213379 61.47291992 -127.5793457 60.97802734 C-126.83128662 60.46965332 -126.08322754 59.9612793 -125.3125 59.4375 C-123.74972364 58.35586794 -122.18722746 57.27383095 -120.625 56.19140625 C-119.84253906 55.65273926 -119.06007812 55.11407227 -118.25390625 54.55908203 C-115.08214061 52.36509423 -111.94517742 50.12428674 -108.8125 47.875 C-107.68373632 47.06620723 -106.5548302 46.25761324 -105.42578125 45.44921875 C-104.86842285 45.05009277 -104.31106445 44.6509668 -103.73681641 44.23974609 C-101.90490664 42.932122 -100.06818127 41.63148583 -98.23046875 40.33203125 C-97.60615967 39.88939941 -96.98185059 39.44676758 -96.33862305 38.99072266 C-95.15787781 38.15380617 -93.97585492 37.31868769 -92.79223633 36.48583984 C-79.73983349 27.21806896 -75.58865467 15.86236821 -71 1 C-70.46632812 1.36351562 -69.93265625 1.72703125 -69.3828125 2.1015625 C-63.70129412 5.93511297 -57.96371063 9.6192978 -52 13 C-51.29359375 13.41765625 -50.5871875 13.8353125 -49.859375 14.265625 C-42.34089545 18.21978832 -33.93530586 18.37024462 -25.8203125 16.1171875 C-16.30832424 12.38651159 -7.61230112 6.78934965 0 0 Z " fill="#FDD298" transform="translate(291,284)"/>
<path d="M0 0 C4.20160064 1.59413671 7.37608662 3.56759353 11 6.25 C17.10283453 10.70495246 23.33029862 14.94607524 29.625 19.125 C30.97501099 20.0231543 30.97501099 20.0231543 32.35229492 20.93945312 C36.22658445 23.5126197 40.10645065 26.07562747 44.01171875 28.6015625 C45.10097656 29.31054688 46.19023437 30.01953125 47.3125 30.75 C48.23675781 31.34296875 49.16101563 31.9359375 50.11328125 32.546875 C51.04720703 33.26617187 51.04720703 33.26617187 52 34 C52 34.66 52 35.32 52 36 C50.47675109 37.01956941 48.90257299 37.96314644 47.3125 38.875 C40.03111329 43.39800424 34.08916061 49.03786654 28 55 C27.33178223 55.65307129 26.66356445 56.30614258 25.97509766 56.97900391 C23.85142312 59.06241455 21.73597244 61.15372281 19.625 63.25 C18.64430542 64.2234436 18.64430542 64.2234436 17.64379883 65.21655273 C14.46583625 68.40584639 11.40164867 71.64460934 8.4609375 75.0546875 C-5.32402594 90.99052379 -21.96118468 104.62249703 -43 109 C-45.33300933 109.03888349 -47.66709801 109.0448635 -50 109 C-47.46798464 106.46798464 -44.89289529 105.53774191 -41.625 104.0625 C-23.91427452 95.5367243 -14.33746508 80.05045856 -8 62 C-2.41316243 45.73568667 -0.99965797 29.90763177 -0.4375 12.8125 C-0.37272461 10.9552832 -0.37272461 10.9552832 -0.30664062 9.06054688 C-0.20169508 6.04044738 -0.09953456 3.02028184 0 0 Z " fill="#FEFDFC" transform="translate(307,316)"/>
<path d="M0 0 C0.66 0 1.32 0 2 0 C2.01401855 1.01477417 2.01401855 1.01477417 2.02832031 2.05004883 C2.59679891 35.23080719 4.74837813 71.51229274 30 96 C35.25833295 100.66710642 40.60800374 104.09454716 47 107 C47 107.33 47 107.66 47 108 C33.78678113 109.10110157 22.97235739 102.0961505 13 94 C5.88044559 87.89132467 -1.06368878 81.47039742 -7.0703125 74.25 C-10.51593624 70.23243062 -14.18810411 66.41962795 -17.81665039 62.56762695 C-20.97864931 59.20124827 -24.04049566 55.79756999 -27 52.25 C-32.32159407 46.16153866 -39.74198213 39.62900893 -47 36 C-45.89834743 32.69504228 -45.41945873 32.31363354 -42.67578125 30.43359375 C-41.98395752 29.95325684 -41.29213379 29.47291992 -40.5793457 28.97802734 C-39.83128662 28.46965332 -39.08322754 27.9612793 -38.3125 27.4375 C-36.74972364 26.35586794 -35.18722746 25.27383095 -33.625 24.19140625 C-32.84253906 23.65273926 -32.06007812 23.11407227 -31.25390625 22.55908203 C-28.08213784 20.36509232 -24.94526678 18.1241659 -21.8125 15.875 C-20.69021448 15.07146049 -19.56781858 14.26807512 -18.4453125 13.46484375 C-17.88875977 13.0663623 -17.33220703 12.66788086 -16.75878906 12.25732422 C-14.85927703 10.89939988 -12.95721137 9.54510728 -11.0546875 8.19140625 C-10.40781982 7.73072754 -9.76095215 7.27004883 -9.09448242 6.79541016 C-7.84775773 5.90765151 -6.60054468 5.02057818 -5.3527832 4.13427734 C-2.55707485 2.21298209 -2.55707485 2.21298209 0 0 Z " fill="#FEFDFC" transform="translate(204,316)"/>
<path d="M0 0 C0.495 6.435 0.495 6.435 1 13 C-0.32 13.66 -1.64 14.32 -3 15 C-4.5357139 16.06213368 -6.05541622 17.14761911 -7.5625 18.25 C-18.91876929 26.28493794 -29.74194073 32.08343411 -44 30 C-52.76084879 27.0832019 -60.81934408 21.85014432 -68.08203125 16.25 C-70.03733251 14.72699624 -70.03733251 14.72699624 -73 15 C-72.67 10.38 -72.34 5.76 -72 1 C-71.12859375 1.51949219 -70.2571875 2.03898437 -69.359375 2.57421875 C-55.72125703 10.60900421 -42.08516434 17.89831668 -25.73828125 13.9921875 C-18.88355243 11.50844838 -6.259511 0 0 0 Z " fill="#EFBA7D" transform="translate(292,272)"/>
</svg>
