<?xml version="1.0" encoding="UTF-8"?>
<svg version="1.1" xmlns="http://www.w3.org/2000/svg" width="512" height="512">
<path d="M0 0 C1.11975471 -0.00627663 1.11975471 -0.00627663 2.26213074 -0.01268005 C4.68429371 -0.01897579 7.10529797 -0.00009575 9.52734375 0.0234375 C10.34851685 0.02775787 11.16968994 0.03207825 12.01574707 0.03652954 C23.73724854 0.10939013 35.06333747 0.44689934 46.46484375 3.3984375 C47.12709961 3.56472656 47.78935547 3.73101562 48.47167969 3.90234375 C63.61496975 7.80190342 77.24195221 14.63695441 89.46484375 24.3984375 C90.07972656 24.8728125 90.69460938 25.3471875 91.328125 25.8359375 C93.66428553 27.6909533 95.48907699 29.43299431 97.20703125 31.8828125 C100.0090253 35.00475742 102.17211467 35.67931219 106.15234375 36.9609375 C146.72590414 51.0455882 185.07965671 78.42478344 211.46484375 112.3984375 C212.47081729 113.65277451 213.47736716 114.90664945 214.484375 116.16015625 C248.67761892 159.20347668 265.99055977 212.39865765 265.77734375 267.0859375 C265.77460953 268.5426889 265.77460953 268.5426889 265.77182007 270.02886963 C265.72755803 284.0309578 265.31356145 297.64708025 262.46484375 311.3984375 C262.30387207 312.24744629 262.14290039 313.09645508 261.97705078 313.97119141 C255.72448345 346.75963048 243.06230793 379.22412827 223.46484375 406.3984375 C222.99369141 407.06053223 222.52253906 407.72262695 222.03710938 408.40478516 C184.2011593 461.28166197 128.70481706 497.81958524 64.44140625 509.4609375 C62.45074875 509.78303999 60.45841501 510.09489026 58.46484375 510.3984375 C57.30259277 510.58172607 56.1403418 510.76501465 54.94287109 510.95385742 C43.57314354 512.57697212 32.31183424 512.75654353 20.83984375 512.7109375 C19.86484924 512.70878235 18.88985474 512.7066272 17.88531494 512.70440674 C3.86227035 512.65462963 -9.76884805 512.28395188 -23.53515625 509.3984375 C-24.52435059 509.20507812 -25.51354492 509.01171875 -26.53271484 508.8125 C-82.26345762 497.79724262 -135.36861567 467.53074039 -170.53515625 422.3984375 C-171.5426414 421.1429664 -172.55047702 419.8877765 -173.55859375 418.6328125 C-207.80795393 375.50952035 -225.02415683 322.29092849 -224.91015625 267.5234375 C-224.90961243 266.53631775 -224.9090686 265.549198 -224.9085083 264.53216553 C-224.86804926 248.51200208 -224.00035129 233.0952734 -220.53515625 217.3984375 C-220.31553223 216.40312012 -220.0959082 215.40780273 -219.86962891 214.38232422 C-218.33028539 207.64647073 -216.52445304 201.01434711 -214.53515625 194.3984375 C-214.29490723 193.58455566 -214.0546582 192.77067383 -213.80712891 191.93212891 C-205.05274173 162.93062826 -189.67653913 135.76043586 -170.53515625 112.3984375 C-170.07818359 111.83995117 -169.62121094 111.28146484 -169.15039062 110.70605469 C-158.71885596 98.03717463 -147.51089946 86.48462445 -134.53515625 76.3984375 C-133.55289063 75.61082031 -132.570625 74.82320313 -131.55859375 74.01171875 C-109.47185512 56.43545633 -84.74967092 43.72272486 -58.18798828 34.34985352 C-48.94004614 31.06311062 -48.94004614 31.06311062 -40.53515625 26.0859375 C-35.01990318 22.41959238 -29.26732632 20.14114442 -23.08007812 17.88354492 C-18.02901745 16.03620753 -13.30961717 13.88029205 -8.53515625 11.3984375 C-9.12296875 9.51125 -9.12296875 9.51125 -9.72265625 7.5859375 C-10.390625 5.44140625 -10.390625 5.44140625 -10.53515625 3.3984375 C-8.01793865 -0.55693195 -4.2265474 -0.03503988 0 0 Z " fill="#88CD64" transform="translate(235.53515625,-0.3984375)"/>
<path d="M0 0 C0.12375 0.6084375 0.2475 1.216875 0.375 1.84375 C4.98937267 21.45483384 16.98439276 38.32841639 33.46875 49.80859375 C35 51 35 51 36 53 C36.23333333 59.53333333 36.23333333 59.53333333 35 62 C34.84504237 64.24974161 34.74989072 66.50371536 34.68359375 68.7578125 C34.6524221 69.75238968 34.6524221 69.75238968 34.62062073 70.76705933 C34.55520769 72.88626694 34.49627895 75.005599 34.4375 77.125 C34.39430691 78.56121081 34.35069236 79.99740902 34.30664062 81.43359375 C34.19953501 84.95559594 34.09824425 88.47773825 34 92 C40.89360011 93.42615007 47.46030381 94.32122795 54.5 94.25 C55.26441406 94.25773437 56.02882813 94.26546875 56.81640625 94.2734375 C63.03222784 94.2526835 68.92271821 93.25726989 75 92 C75.02469321 87.7641643 75.04285671 83.52836658 75.05493164 79.29248047 C75.05996474 77.8510668 75.06679173 76.40965824 75.07543945 74.96826172 C75.08754983 72.89809915 75.09323847 70.82800399 75.09765625 68.7578125 C75.10289307 67.5114502 75.10812988 66.26508789 75.11352539 64.98095703 C75.20816587 62.07228894 75.20816587 62.07228894 74 60 C73.63847442 56.16782886 73.53175573 53.79991729 75.5 50.4375 C77.51912621 48.46885194 79.42402611 46.89903786 81.6875 45.25 C96.7404758 34.25405299 105.25794973 18.77305019 110 1 C112.11328125 0.2578125 112.11328125 0.2578125 115 0 C117.98046875 1.5546875 117.98046875 1.5546875 121.1875 3.875 C121.75484863 4.28484131 122.32219727 4.69468262 122.90673828 5.11694336 C144.12758831 20.71805437 144.12758831 20.71805437 145.33255005 28.01339722 C145.79906812 30.13749423 145.79906812 30.13749423 147.7026062 30.95584106 C148.44640533 31.1716684 149.19020447 31.38749573 149.95654297 31.60986328 C150.8056424 31.86686005 151.65474182 32.12385681 152.52957153 32.38864136 C153.4659848 32.65484283 154.40239807 32.92104431 155.3671875 33.1953125 C157.39206696 33.80477098 159.41646042 34.41584592 161.44042969 35.02832031 C162.5128894 35.3480481 163.58534912 35.66777588 164.69030762 35.99719238 C170.2412528 37.67907984 175.74852529 39.49177556 181.2578125 41.3046875 C182.3899115 41.67708557 183.5220105 42.04948364 184.68841553 42.4331665 C187.00340487 43.19574691 189.31803986 43.95940387 191.63232422 44.72412109 C193.96294438 45.49208862 196.29498616 46.25575508 198.62841797 47.01513672 C239.16354606 60.21327922 239.16354606 60.21327922 252 71 C252.61488281 71.47050781 253.22976563 71.94101562 253.86328125 72.42578125 C260.90495037 78.46818912 265.15801247 88.34298692 267.98828125 97.03515625 C268.00501393 101.26852377 266.1026067 103.98080223 263.8125 107.375 C263.13344604 108.41611938 263.13344604 108.41611938 262.44067383 109.47827148 C226.45182815 163.88771563 172.0592282 203.63974951 107.78955078 217.36523438 C102.87224189 218.35157931 97.9583616 219.24502474 93 220 C91.83774902 220.18328857 90.67549805 220.36657715 89.47802734 220.55541992 C78.10829979 222.17853462 66.84699049 222.35810603 55.375 222.3125 C54.40000549 222.31034485 53.42501099 222.3081897 52.42047119 222.30596924 C38.3974266 222.25619213 24.7663082 221.88551438 11 219 C10.01080566 218.80664062 9.02161133 218.61328125 8.00244141 218.4140625 C-47.69703956 207.40498406 -100.87556151 177.14372726 -136 132 C-136.4964502 131.37464355 -136.99290039 130.74928711 -137.50439453 130.10498047 C-143.47936678 122.57834725 -149.28471793 114.97252545 -154.375 106.8125 C-154.95604492 105.9138623 -154.95604492 105.9138623 -155.54882812 104.99707031 C-157.21451875 102.22248772 -158.00594952 100.31957429 -157.9453125 97.0625 C-153.482499 82.60445959 -145.59953803 71.48974334 -132.21728516 64.07470703 C-115.59089451 55.41275065 -97.5480287 49.71635208 -79.8125 43.8125 C-78.89872589 43.5079187 -77.98495178 43.2033374 -77.04348755 42.88952637 C-68.59310732 40.07939515 -60.14743902 37.2862961 -51.5859375 34.83203125 C-50.56008545 34.53256592 -49.5342334 34.23310059 -48.47729492 33.92456055 C-46.70123267 33.41553772 -44.91780669 32.93109099 -43.1262207 32.47973633 C-38.77892943 31.23442572 -36.67023746 30.06717976 -34.28125 26.15234375 C-33.90121826 25.44851563 -33.52118652 24.7446875 -33.12963867 24.01953125 C-28.38200655 15.53186908 -18.96987807 9.16358297 -11 4 C-10.4121875 3.566875 -9.824375 3.13375 -9.21875 2.6875 C-5.94864622 0.28497478 -3.99743409 -0.16739674 0 0 Z " fill="#6C5475" transform="translate(201,290)"/>
<path d="M0 0 C6.38656156 5.90645291 11.8585077 13.9950919 12.49682617 22.87744141 C12.62215894 26.98354895 12.68263658 31.08738433 12.703125 35.1953125 C12.86577828 42.37012926 14.21076041 47.8563074 17.3125 54.3125 C17.70614746 55.16682617 18.09979492 56.02115234 18.50537109 56.90136719 C19.18624911 58.37382487 19.87647378 59.84201458 20.578125 61.3046875 C21.3125 63.3125 21.3125 63.3125 21.3125 67.3125 C22.3025 66.9825 23.2925 66.6525 24.3125 66.3125 C29.44026758 65.82829904 33.82835923 65.46441956 38.375 68.0625 C41.95968323 72.22535794 42.71507478 75.44238612 42.58837891 80.82861328 C42.1014806 85.21242155 40.57458454 89.15354564 39 93.25 C38.37661834 94.92493151 37.75552112 96.60071503 37.13671875 98.27734375 C36.67519409 99.51278931 36.67519409 99.51278931 36.2043457 100.77319336 C35.01323193 104.16459067 34.05964717 107.60865893 33.13818359 111.08203125 C31.55816483 115.35023097 28.41063131 119.26343435 24.3125 121.3125 C21.9795134 121.35272391 19.64543334 121.35570247 17.3125 121.3125 C17.374375 122.323125 17.43625 123.33375 17.5 124.375 C17.32559211 144.36214407 7.7615159 167.53581083 -5.43359375 182.47265625 C-7.96915563 185.61585338 -7.96915563 185.61585338 -8.0625 189.375 C-8.00642578 190.53128906 -8.00642578 190.53128906 -7.94921875 191.7109375 C-7.76172738 193.57465769 -7.53000029 195.43413344 -7.26953125 197.2890625 C-6.14515011 206.43996646 -7.92751878 212.95264565 -11.6875 221.3125 C-12.11160156 222.2715625 -12.53570312 223.230625 -12.97265625 224.21875 C-18.97677073 236.40202603 -29.41757818 245.25423182 -39.6875 253.8125 C-42.01942199 256.26402842 -42.01942199 256.26402842 -42.0625 260 C-41.89405408 263.18586008 -41.89405408 263.18586008 -40.6875 265.3125 C-40.60176606 267.56370742 -40.58037812 269.81749303 -40.58984375 272.0703125 C-40.5912587 272.73336395 -40.59267365 273.39641541 -40.59413147 274.07955933 C-40.59973246 276.19891863 -40.612285 278.31817259 -40.625 280.4375 C-40.63001488 281.87369639 -40.63457781 283.30989444 -40.63867188 284.74609375 C-40.64970218 288.26826345 -40.66696741 291.79037145 -40.6875 295.3125 C-47.7112322 298.25136564 -54.5510454 298.49400044 -62.0625 298.5 C-62.86171875 298.51224609 -63.6609375 298.52449219 -64.484375 298.53710938 C-70.65874276 298.5520957 -77.08050715 298.11599643 -82.6875 295.3125 C-82.71219321 291.0766643 -82.73035671 286.84086658 -82.74243164 282.60498047 C-82.74746474 281.1635668 -82.75429173 279.72215824 -82.76293945 278.28076172 C-82.77504983 276.21059915 -82.78073847 274.14050399 -82.78515625 272.0703125 C-82.79039307 270.8239502 -82.79562988 269.57758789 -82.80102539 268.29345703 C-82.6875 265.3125 -82.6875 265.3125 -81.6875 263.3125 C-81.23431795 259.30939193 -81.01539434 257.16383384 -83.5625 253.9375 C-84.59025374 253.04619944 -85.63471188 252.17408669 -86.6875 251.3125 C-98.69899095 240.82860285 -107.49919065 231.0560676 -113.6875 216.3125 C-114.14406982 215.26340454 -114.14406982 215.26340454 -114.60986328 214.19311523 C-117.02379712 208.007324 -116.56174826 202.99649624 -115.8125 196.5 C-115.24813834 189.44868923 -114.97631141 184.69490478 -119.625 178.9375 C-120.45386719 178.04160156 -121.28273437 177.14570313 -122.13671875 176.22265625 C-134.13187373 162.53752537 -141.61062971 139.15967446 -140.6875 121.3125 C-142.2034375 121.498125 -142.2034375 121.498125 -143.75 121.6875 C-148.98401828 121.18902207 -151.38419344 119.30759851 -154.6875 115.3125 C-156.02108241 112.54275192 -156.85365479 110.23534688 -157.6875 107.3125 C-158.29659935 105.3561213 -158.90602509 103.3998396 -159.52026367 101.44506836 C-159.96524058 100.0228681 -160.40550905 98.59918613 -160.84106445 97.17407227 C-161.91716207 93.66638026 -163.06639863 90.25177668 -164.5 86.875 C-165.94389707 82.5433088 -166.4641852 78.8306365 -165.6875 74.3125 C-163.94766146 71.12279602 -162.24054507 68.86554507 -159.6875 66.3125 C-157.2265625 66.08203125 -157.2265625 66.08203125 -154.3125 66.125 C-153.35601562 66.13144531 -152.39953125 66.13789063 -151.4140625 66.14453125 C-149.02155932 66.29192041 -146.97708203 66.63430627 -144.6875 67.3125 C-144.64625 66.405 -144.605 65.4975 -144.5625 64.5625 C-143.89118698 59.58868082 -141.39860967 55.45662124 -139.0625 51.08203125 C-137.09481871 47.11871865 -136.57062792 43.86429235 -136.51171875 39.4609375 C-136.48787109 38.52636719 -136.46402344 37.59179688 -136.43945312 36.62890625 C-136.39700261 34.69161929 -136.36547508 32.75405738 -136.34570312 30.81640625 C-135.97258297 18.13032107 -130.67225015 8.98776754 -121.75 0.25 C-92.5715605 -24.62742999 -29.19794392 -24.11372483 0 0 Z " fill="#FEC6AA" transform="translate(317.6875,86.6875)"/>
<path d="M0 0 C6.59825944 1.26433714 12.29302783 3.17405159 18.375 6 C19.23351562 6.39372803 20.09203125 6.78745605 20.9765625 7.19311523 C34.5425891 13.4914505 47.85800091 20.21240533 60 29 C60.60376465 29.43538086 61.2075293 29.87076172 61.82958984 30.31933594 C80.5065219 43.85442174 97.80527048 58.72281934 112 77 C113.00597354 78.25433701 114.01252341 79.50821195 115.01953125 80.76171875 C149.21277517 123.80503918 166.52571602 177.00022015 166.3125 231.6875 C166.31067719 232.6586676 166.30885437 233.62983521 166.30697632 234.63043213 C166.26271428 248.6325203 165.8487177 262.24864275 163 276 C162.83902832 276.84900879 162.67805664 277.69801758 162.51220703 278.57275391 C157.39163752 305.42500074 147.37637407 329.80007558 135 354 C133.15674232 351.23511348 131.75596951 348.44901657 130.33642578 345.45288086 C120.20247593 324.26920456 102.77712681 316.17044733 81.3347168 308.58666992 C74.06088473 306.08496607 66.75066617 303.69618114 59.4375 301.3125 C56.94304249 300.48989258 54.44890012 299.6663289 51.95507812 298.84179688 C49.51043755 298.03639493 47.06577641 297.23105544 44.62109375 296.42578125 C43.44259857 296.03552765 42.26410339 295.64527405 41.04989624 295.24319458 C35.76964537 293.50684513 30.49599875 291.82895258 25.13330078 290.36474609 C24.25207047 290.1160527 23.37084015 289.86735931 22.46290588 289.61112976 C20.86897649 289.1674595 19.2677927 288.74862949 17.65904236 288.36213684 C14.69432178 287.52578091 12.49759357 286.71562905 10.70527649 284.13795471 C9.64794922 281.99707031 9.64794922 281.99707031 8.82321167 279.92779541 C4.7757925 270.44955745 -7.71122198 263.35709375 -16 258 C-16.99 257.34 -17.98 256.68 -19 256 C-21.62531524 255.83286431 -21.62531524 255.83286431 -24 256 C-24.77577707 252.68216772 -25.41919345 249.35734519 -26 246 C-26.14824219 245.25878906 -26.29648437 244.51757812 -26.44921875 243.75390625 C-27.05527897 238.33910591 -25.31709797 235.6680845 -22 231.4375 C-21.18015625 230.42429687 -20.3603125 229.41109375 -19.515625 228.3671875 C-14.95871096 222.52973177 -12.04637579 215.70548853 -9 209 C-8.5153125 207.97648438 -8.030625 206.95296875 -7.53125 205.8984375 C-3.01344577 195.45790212 -1.68865213 184.1760412 0 173 C0.59167969 172.92523438 1.18335938 172.85046875 1.79296875 172.7734375 C6.12827474 172.05206521 8.51732354 171.42882684 11.87109375 168.44921875 C14.58834552 164.60782771 15.80209558 160.29818772 17.0625 155.8125 C17.56418276 154.11262345 18.06807881 152.4133985 18.57421875 150.71484375 C18.81446777 149.90128418 19.0547168 149.08772461 19.30224609 148.24951172 C20.18644174 145.39892435 21.26352683 142.64386425 22.375 139.875 C24.0972646 135.20751822 24.97892201 130.94259644 24 126 C21.77561281 121.72596143 21.77561281 121.72596143 18 119 C18.50188057 112.16963729 19.18011889 105.40943555 20.15551758 98.63085938 C25.29746757 62.23313297 20.74865813 30.60427074 0 0 Z " fill="#B3D566" transform="translate(335,35)"/>
<path d="M0 0 C0.12375 0.6084375 0.2475 1.216875 0.375 1.84375 C4.98937267 21.45483384 16.98439276 38.32841639 33.46875 49.80859375 C35 51 35 51 36 53 C36.23333333 59.53333333 36.23333333 59.53333333 35 62 C34.89380218 64.09022318 34.85331722 66.18387647 34.84178162 68.27676392 C34.83684364 68.92775759 34.83190566 69.57875127 34.82681805 70.24947202 C34.81140543 72.44056334 34.8030723 74.63162527 34.79467773 76.82275391 C34.78510216 78.3895341 34.77509227 79.9563117 34.76467896 81.52308655 C34.73758903 85.78521228 34.71660164 90.04734913 34.69667697 94.30951357 C34.67484258 98.76051147 34.64744146 103.21147493 34.62062073 107.66244507 C34.57065933 116.09490146 34.52573331 124.52737693 34.48259836 132.9598707 C34.43325541 142.55830613 34.37832639 152.15670703 34.32291877 161.75510907 C34.20904582 181.50337388 34.10221837 201.25167165 34 221 C32.39469665 221.00779513 30.78938239 221.01336528 29.18406677 221.01799011 C27.84313036 221.02299923 27.84313036 221.02299923 26.47510433 221.02810955 C23.81122447 220.99785609 21.28533461 220.75173706 18.66015625 220.30078125 C17.75257568 220.14641602 16.84499512 219.99205078 15.90991211 219.83300781 C14.97026611 219.66124023 14.03062012 219.48947266 13.0625 219.3125 C11.55925171 219.04131348 11.55925171 219.04131348 10.02563477 218.76464844 C-46.44318408 208.25590732 -100.49649592 177.63092177 -136 132 C-136.4964502 131.37464355 -136.99290039 130.74928711 -137.50439453 130.10498047 C-143.47936678 122.57834725 -149.28471793 114.97252545 -154.375 106.8125 C-154.95604492 105.9138623 -154.95604492 105.9138623 -155.54882812 104.99707031 C-157.21451875 102.22248772 -158.00594952 100.31957429 -157.9453125 97.0625 C-153.482499 82.60445959 -145.59953803 71.48974334 -132.21728516 64.07470703 C-115.59089451 55.41275065 -97.5480287 49.71635208 -79.8125 43.8125 C-78.89872589 43.5079187 -77.98495178 43.2033374 -77.04348755 42.88952637 C-68.59310732 40.07939515 -60.14743902 37.2862961 -51.5859375 34.83203125 C-50.56008545 34.53256592 -49.5342334 34.23310059 -48.47729492 33.92456055 C-46.70123267 33.41553772 -44.91780669 32.93109099 -43.1262207 32.47973633 C-38.77892943 31.23442572 -36.67023746 30.06717976 -34.28125 26.15234375 C-33.90121826 25.44851563 -33.52118652 24.7446875 -33.12963867 24.01953125 C-28.38200655 15.53186908 -18.96987807 9.16358297 -11 4 C-10.4121875 3.566875 -9.824375 3.13375 -9.21875 2.6875 C-5.94864622 0.28497478 -3.99743409 -0.16739674 0 0 Z " fill="#6B5475" transform="translate(201,290)"/>
<path d="M0 0 C0.99 0.495 0.99 0.495 2 1 C2.13019531 1.556875 2.26039062 2.11375 2.39453125 2.6875 C3.23162704 5.88466585 4.90177443 8.22447226 6.6875 11 C16.7116227 26.9390756 22.59939024 42.77351679 23.4375 61.625 C24.44665482 81.83937194 30.58636067 99.9864071 37 119 C37.38978027 120.15741699 37.77956055 121.31483398 38.18115234 122.50732422 C38.54805176 123.59674316 38.91495117 124.68616211 39.29296875 125.80859375 C39.98744074 127.87224056 40.6814709 129.93603612 41.375 132 C41.70209961 132.97324219 42.02919922 133.94648438 42.36621094 134.94921875 C46.96126528 148.73914348 50.17081705 161.75331972 50.3125 176.375 C50.34150391 177.365 50.37050781 178.355 50.40039062 179.375 C50.48311993 189.02250936 47.62309944 196.14680766 41.046875 203.21484375 C37.4368714 206.36326292 33.41248857 208.21579 29 210 C27.98873047 210.40992188 27.98873047 210.40992188 26.95703125 210.828125 C22.22027331 212.55058243 17.34437241 213.63409797 12.4375 214.75 C-12.44062901 220.41886286 -40.71915549 227.28246721 -60 245 C-60.70511719 245.63679687 -61.41023438 246.27359375 -62.13671875 246.9296875 C-67.22414479 251.75547448 -71.1629085 257.14843546 -75 263 C-77 262 -77 262 -77.73022461 260.06079102 C-77.95202393 259.21701904 -78.17382324 258.37324707 -78.40234375 257.50390625 C-78.65153564 256.56119873 -78.90072754 255.61849121 -79.1574707 254.6472168 C-79.41488037 253.62926025 -79.67229004 252.61130371 -79.9375 251.5625 C-80.33618286 250.00752808 -80.33618286 250.00752808 -80.74291992 248.42114258 C-84.64018793 232.85955819 -87.09459482 217.18884825 -87.23828125 201.12890625 C-87.25297203 199.76113792 -87.25297203 199.76113792 -87.26795959 198.36573792 C-87.43941378 178.26313497 -87.35475179 158.72640022 -83 139 C-82.78037598 138.00468262 -82.56075195 137.00936523 -82.33447266 135.98388672 C-80.79512914 129.24803323 -78.98929679 122.61590961 -77 116 C-76.75975098 115.18611816 -76.51950195 114.37223633 -76.27197266 113.53369141 C-67.51758548 84.53219076 -52.14138288 57.36199836 -33 34 C-32.54302734 33.44151367 -32.08605469 32.88302734 -31.61523438 32.30761719 C-22.01630667 20.64992082 -11.62980932 9.66222829 0 0 Z " fill="#B3D566" transform="translate(98,78)"/>
<path d="M0 0 C0 0.33 0 0.66 0 1 C-0.82242188 0.96777344 -1.64484375 0.93554688 -2.4921875 0.90234375 C-9.18437711 0.97189306 -13.4048819 1.59173027 -18.5 6.125 C-20.03865397 7.7134486 -21.54334683 9.33603289 -23 11 C-23.78503906 11.83917969 -23.78503906 11.83917969 -24.5859375 12.6953125 C-31.65260822 21.21814567 -32.17148776 31.84523164 -32.3125 42.375 C-32.45143141 51.46140798 -33.8418046 57.84761691 -38.30859375 65.74609375 C-44.62836731 77.90399532 -42.48701221 92.4091654 -40.27636719 105.41967773 C-39.36848798 110.95930623 -38.73580517 116.48848091 -38.2734375 122.08203125 C-38.18365379 123.15552322 -38.18365379 123.15552322 -38.09205627 124.2507019 C-37.79739213 127.82026653 -37.52112793 131.39026866 -37.26635742 134.96289062 C-35.27007156 160.92452212 -25.19688541 185.45507832 -8 205 C-7.30390625 205.91072266 -7.30390625 205.91072266 -6.59375 206.83984375 C-3.27295662 211.14270102 0.79232476 214.47613647 5 217.875 C5.89078247 218.60879883 5.89078247 218.60879883 6.79956055 219.35742188 C10.42215146 222.20291913 13.22067227 223.98690595 18 224 C27.35393145 219.83579131 35.87450757 210.24626349 43 203 C43.36692116 205.49870275 43.7187099 207.99809525 44.0625 210.5 C44.16626953 211.19609375 44.27003906 211.8921875 44.37695312 212.609375 C46.19513299 226.15168017 40.83068684 239.07965441 33 250 C26.7597005 257.72664683 19.53270544 264.2073281 11.9375 270.5625 C9.33994529 273.83039141 9.53945878 275.93188591 10 280 C10.33 280.66 10.66 281.32 11 282 C11.08573394 284.25120742 11.10712188 286.50499303 11.09765625 288.7578125 C11.0962413 289.42086395 11.09482635 290.08391541 11.09336853 290.76705933 C11.08776754 292.88641863 11.075215 295.00567259 11.0625 297.125 C11.05748512 298.56119639 11.05292219 299.99739444 11.04882812 301.43359375 C11.03779782 304.95576345 11.02053259 308.47787145 11 312 C3.9762678 314.93886564 -2.8635454 315.18150044 -10.375 315.1875 C-11.17421875 315.19974609 -11.9734375 315.21199219 -12.796875 315.22460938 C-18.97124276 315.2395957 -25.39300715 314.80349643 -31 312 C-31.02469321 307.7641643 -31.04285671 303.52836658 -31.05493164 299.29248047 C-31.05996474 297.8510668 -31.06679173 296.40965824 -31.07543945 294.96826172 C-31.08754983 292.89809915 -31.09323847 290.82800399 -31.09765625 288.7578125 C-31.10289307 287.5114502 -31.10812988 286.26508789 -31.11352539 284.98095703 C-31 282 -31 282 -30 280 C-29.54681795 275.99689193 -29.32789434 273.85133384 -31.875 270.625 C-32.90275374 269.73369944 -33.94721188 268.86158669 -35 268 C-47.01149095 257.51610285 -55.81169065 247.7435676 -62 233 C-62.45656982 231.95090454 -62.45656982 231.95090454 -62.92236328 230.88061523 C-65.33629712 224.694824 -64.87424826 219.68399624 -64.125 213.1875 C-63.56063834 206.13618923 -63.28881141 201.38240478 -67.9375 195.625 C-68.76636719 194.72910156 -69.59523437 193.83320313 -70.44921875 192.91015625 C-82.44437373 179.22502537 -89.92312971 155.84717446 -89 138 C-90.5159375 138.185625 -90.5159375 138.185625 -92.0625 138.375 C-97.29651828 137.87652207 -99.69669344 135.99509851 -103 132 C-104.33358241 129.23025192 -105.16615479 126.92284688 -106 124 C-106.60909935 122.0436213 -107.21852509 120.0873396 -107.83276367 118.13256836 C-108.27774058 116.7103681 -108.71800905 115.28668613 -109.15356445 113.86157227 C-110.22966207 110.35388026 -111.37889863 106.93927668 -112.8125 103.5625 C-114.25639707 99.2308088 -114.7766852 95.5181365 -114 91 C-112.26016146 87.81029602 -110.55304507 85.55304507 -108 83 C-105.5390625 82.76953125 -105.5390625 82.76953125 -102.625 82.8125 C-101.66851562 82.81894531 -100.71203125 82.82539063 -99.7265625 82.83203125 C-97.33405932 82.97942041 -95.28958203 83.32180627 -93 84 C-92.95875 83.0925 -92.9175 82.185 -92.875 81.25 C-92.20368698 76.27618082 -89.71110967 72.14412124 -87.375 67.76953125 C-85.40731871 63.80621865 -84.88312792 60.55179235 -84.82421875 56.1484375 C-84.80037109 55.21386719 -84.77652344 54.27929688 -84.75195312 53.31640625 C-84.70950261 51.37911929 -84.67797508 49.44155738 -84.65820312 47.50390625 C-84.28508297 34.81782107 -78.98475015 25.67526754 -70.0625 16.9375 C-51.26974524 0.91486654 -23.56267188 -0.64261832 0 0 Z " fill="#FEA97B" transform="translate(266,70)"/>
<path d="M0 0 C6.59825944 1.26433714 12.29302783 3.17405159 18.375 6 C19.23351562 6.39372803 20.09203125 6.78745605 20.9765625 7.19311523 C40.30577085 16.16713822 57.45542957 26.87945426 74.38110352 39.79833984 C75.88534247 40.91489302 77.44128178 41.96085452 79 43 C77.53928535 47.0467758 75.56464107 50.44250903 73.25 54.0625 C62.63908944 71.01437099 57.45610845 87.55083367 56 107.4375 C55.07899889 119.96482062 53.14756724 131.4385299 49.14630127 143.38220215 C48.48002043 145.37217267 47.825438 147.36569137 47.17333984 149.36035156 C45.33867375 154.96318707 43.48017565 160.55805819 41.61816406 166.15185547 C28.14932662 201.83594878 28.14932662 201.83594878 33.03125 238.1796875 C37.94629264 246.98027061 45.79713666 250.77448041 55 254 C58.14187008 254.87825336 61.31010438 255.57011397 64.5 256.25 C97.4089508 263.69978431 129.14821178 272.95690297 151 300 C151.86625 300.928125 152.7325 301.85625 153.625 302.8125 C156.02882181 308.38499601 153.07094729 314.11595299 151.03222656 319.60620117 C150.00017547 322.15323758 148.91997812 324.67237719 147.8125 327.1875 C147.42392822 328.08299561 147.03535645 328.97849121 146.63500977 329.90112305 C143.04589021 338.08187298 139.11496702 346.07280195 135 354 C133.15674232 351.23511348 131.75596951 348.44901657 130.33642578 345.45288086 C120.20247593 324.26920456 102.77712681 316.17044733 81.3347168 308.58666992 C74.06088473 306.08496607 66.75066617 303.69618114 59.4375 301.3125 C56.94304249 300.48989258 54.44890012 299.6663289 51.95507812 298.84179688 C49.51043755 298.03639493 47.06577641 297.23105544 44.62109375 296.42578125 C43.44259857 296.03552765 42.26410339 295.64527405 41.04989624 295.24319458 C35.76964537 293.50684513 30.49599875 291.82895258 25.13330078 290.36474609 C24.25207047 290.1160527 23.37084015 289.86735931 22.46290588 289.61112976 C20.86897649 289.1674595 19.2677927 288.74862949 17.65904236 288.36213684 C14.69432178 287.52578091 12.49759357 286.71562905 10.70527649 284.13795471 C9.64794922 281.99707031 9.64794922 281.99707031 8.82321167 279.92779541 C4.7757925 270.44955745 -7.71122198 263.35709375 -16 258 C-16.99 257.34 -17.98 256.68 -19 256 C-21.62531524 255.83286431 -21.62531524 255.83286431 -24 256 C-24.77577707 252.68216772 -25.41919345 249.35734519 -26 246 C-26.14824219 245.25878906 -26.29648437 244.51757812 -26.44921875 243.75390625 C-27.05527897 238.33910591 -25.31709797 235.6680845 -22 231.4375 C-21.18015625 230.42429687 -20.3603125 229.41109375 -19.515625 228.3671875 C-14.95871096 222.52973177 -12.04637579 215.70548853 -9 209 C-8.5153125 207.97648438 -8.030625 206.95296875 -7.53125 205.8984375 C-3.01344577 195.45790212 -1.68865213 184.1760412 0 173 C0.59167969 172.92523438 1.18335938 172.85046875 1.79296875 172.7734375 C6.12827474 172.05206521 8.51732354 171.42882684 11.87109375 168.44921875 C14.58834552 164.60782771 15.80209558 160.29818772 17.0625 155.8125 C17.56418276 154.11262345 18.06807881 152.4133985 18.57421875 150.71484375 C18.81446777 149.90128418 19.0547168 149.08772461 19.30224609 148.24951172 C20.18644174 145.39892435 21.26352683 142.64386425 22.375 139.875 C24.0972646 135.20751822 24.97892201 130.94259644 24 126 C21.77561281 121.72596143 21.77561281 121.72596143 18 119 C18.50188057 112.16963729 19.18011889 105.40943555 20.15551758 98.63085938 C25.29746757 62.23313297 20.74865813 30.60427074 0 0 Z " fill="#88CD65" transform="translate(335,35)"/>
<path d="M0 0 C1.11975471 -0.00627663 1.11975471 -0.00627663 2.26213074 -0.01268005 C4.68429371 -0.01897579 7.10529797 -0.00009575 9.52734375 0.0234375 C10.34851685 0.02775787 11.16968994 0.03207825 12.01574707 0.03652954 C23.73724854 0.10939013 35.06333747 0.44689934 46.46484375 3.3984375 C47.12709961 3.56472656 47.78935547 3.73101562 48.47167969 3.90234375 C63.58030259 7.79297626 77.30329306 14.60271902 89.46484375 24.3984375 C90.42390625 25.13191406 91.38296875 25.86539062 92.37109375 26.62109375 C109.92738936 41.38752217 120.00220955 67.65391331 122.1484375 89.828125 C123.82835768 111.33684657 121.4182012 132.27375791 117.46484375 153.3984375 C112.84484375 153.7284375 108.22484375 154.0584375 103.46484375 154.3984375 C102.88734375 152.5628125 102.30984375 150.7271875 101.71484375 148.8359375 C100.08405597 143.90875307 98.13621702 139.82002084 95.46484375 135.3984375 C94.45281057 132.27824116 94.3288098 129.37780381 94.2890625 126.109375 C94.26521484 125.08457031 94.24136719 124.05976562 94.21679688 123.00390625 C94.17429963 120.87389261 94.14279668 118.74362724 94.12304688 116.61328125 C93.81784673 105.24280126 90.25498589 96.69940863 82.46484375 88.3984375 C71.61864584 78.28757504 56.60981966 74.47513917 42.27734375 72.7109375 C41.26631592 72.58501221 40.25528809 72.45908691 39.21362305 72.3293457 C12.78430575 69.21617068 -15.6395178 71.81264493 -38.109375 87.15625 C-45.52385189 93.22905965 -51.78538096 102.23811786 -52.80151367 111.94213867 C-52.94578609 115.65925528 -52.9720299 119.37024334 -52.97460938 123.08984375 C-53.11361445 129.96340492 -54.61881558 135.19804943 -57.53515625 141.3984375 C-58.26441434 143.02339647 -58.9935935 144.64839088 -59.72265625 146.2734375 C-60.04621094 146.97210938 -60.36976563 147.67078125 -60.703125 148.390625 C-61.71037588 150.68185687 -61.71037588 150.68185687 -62.53515625 154.3984375 C-66.82515625 154.0684375 -71.11515625 153.7384375 -75.53515625 153.3984375 C-79.39907413 140.65652734 -79.91511604 127.74426188 -79.84765625 114.5234375 C-79.84583344 113.77830902 -79.84401062 113.03318054 -79.84213257 112.26547241 C-79.79734191 101.3822179 -79.43721348 90.95350049 -76.53515625 80.3984375 C-76.19484375 79.15320313 -75.85453125 77.90796875 -75.50390625 76.625 C-70.17792811 59.1716257 -61.7378104 45.03526362 -48.53515625 32.3984375 C-47.93316406 31.75261719 -47.33117187 31.10679688 -46.7109375 30.44140625 C-37.66801913 21.9504793 -24.91084578 18.00343044 -13.39770508 14.14111328 C-11.25503459 13.36124198 -11.25503459 13.36124198 -8.53515625 11.3984375 C-9.12296875 9.51125 -9.12296875 9.51125 -9.72265625 7.5859375 C-10.390625 5.44140625 -10.390625 5.44140625 -10.53515625 3.3984375 C-8.01793865 -0.55693195 -4.2265474 -0.03503988 0 0 Z " fill="#45304C" transform="translate(235.53515625,-0.3984375)"/>
<path d="M0 0 C0.31710938 1.03253906 0.63421875 2.06507813 0.9609375 3.12890625 C4.26289898 13.57502358 8.25984864 23.56211132 12.74755859 33.55688477 C13.16859863 34.49717529 13.58963867 35.43746582 14.0234375 36.40625 C14.40419434 37.24478516 14.78495117 38.08332031 15.17724609 38.94726562 C16 41 16 41 16 43 C15.030625 43.08636719 14.06125 43.17273438 13.0625 43.26171875 C-5.91667291 45.16417708 -23.66815891 50.59888155 -37 65 C-46.07738568 76.42498543 -48.59500407 88.86545615 -48.609375 103.17578125 C-48.62591125 104.46695358 -48.64244751 105.75812592 -48.65948486 107.08842468 C-48.70262189 110.47322606 -48.72303576 113.85777115 -48.73822021 117.24279785 C-48.75798837 120.71605258 -48.79993384 124.18903804 -48.83984375 127.66210938 C-48.91456166 134.44130337 -48.96520344 141.22048637 -49 148 C-55.21531318 144.49004825 -60.51216773 140.58192817 -66 136 C-66.5357666 135.55591797 -67.0715332 135.11183594 -67.62353516 134.65429688 C-79.93896225 124.41901194 -91.14051859 113.67191046 -101 101 C-101.4964502 100.37464355 -101.99290039 99.74928711 -102.50439453 99.10498047 C-108.47936678 91.57834725 -114.28471793 83.97252545 -119.375 75.8125 C-119.95604492 74.9138623 -119.95604492 74.9138623 -120.54882812 73.99707031 C-122.21451875 71.22248772 -123.00594952 69.31957429 -122.9453125 66.0625 C-118.482499 51.60445959 -110.59953803 40.48974334 -97.21728516 33.07470703 C-75.00828953 21.50434547 -50.30531973 14.5095997 -26.55773926 6.82983398 C-23.92257071 5.97487881 -21.29094732 5.1095011 -18.65917969 4.24414062 C-16.94743279 3.68828703 -15.23552471 3.13292952 -13.5234375 2.578125 C-12.73869049 2.31795593 -11.95394348 2.05778687 -11.14541626 1.78973389 C-7.31659608 0.56068581 -4.07709608 -0.33393937 0 0 Z " fill="#56415E" transform="translate(166,321)"/>
<path d="M0 0 C22.58769916 0.38166619 44.55550953 6.77723743 63 20 C64.31677734 20.89525391 64.31677734 20.89525391 65.66015625 21.80859375 C84.30308579 35.56948994 95.45498876 59.31738331 99.6796875 81.58203125 C103.2753027 105.49533508 100.41473022 129.40998504 96 153 C91.38 153.33 86.76 153.66 82 154 C81.4225 152.164375 80.845 150.32875 80.25 148.4375 C78.61921222 143.51031557 76.67137327 139.42158334 74 135 C72.98796682 131.87980366 72.86396605 128.97936631 72.82421875 125.7109375 C72.78844727 124.17373047 72.78844727 124.17373047 72.75195312 122.60546875 C72.70945588 120.47545511 72.67795293 118.34518974 72.65820312 116.21484375 C72.35300298 104.84436376 68.79014214 96.30097113 61 88 C50.05295305 77.79512572 35.01722515 74.0766934 20.5625 72.375 C19.12293945 72.19324219 19.12293945 72.19324219 17.65429688 72.0078125 C11.81052419 71.28373561 5.96896625 70.71445715 0.09741211 70.26806641 C-2 70 -2 70 -3 69 C-3.65715925 61.06022346 -4.20692217 53.4178343 1 47 C3.50273203 44.31784753 6.0889948 41.72624758 8.75878906 39.21044922 C12.66159555 35.52121094 14.74626335 33.1567615 15.375 27.8125 C14.31954536 17.08204448 6.88190489 7.89394972 0 0 Z " fill="#56415E" transform="translate(257,0)"/>
<path d="M0 0 C3.63 0.66 7.26 1.32 11 2 C14.18683798 2.17603979 17.25907456 2.28235039 20.4375 2.25 C21.57155273 2.26160156 21.57155273 2.26160156 22.72851562 2.2734375 C29.47818682 2.25080658 35.1206584 1.14655693 42 0 C42 42.9 42 85.8 42 130 C27.81 130 13.62 130 -1 130 C-0.67 87.1 -0.34 44.2 0 0 Z " fill="#72C2F8" transform="translate(235,382)"/>
<path d="M0 0 C0.12375 0.6084375 0.2475 1.216875 0.375 1.84375 C4.98937267 21.45483384 16.98439276 38.32841639 33.46875 49.80859375 C35 51 35 51 36 53 C36.43811186 57.55636334 36.24984052 60.56667353 33.453125 64.2890625 C30.85178021 67.35193621 28.14956964 70.31998893 25.43359375 73.28125 C22.98559797 76.01608958 20.67388264 78.82666827 18.375 81.6875 C7.87711029 94.64899254 7.87711029 94.64899254 3.046875 95.23828125 C2.28890625 95.26277344 1.5309375 95.28726563 0.75 95.3125 C-0.37148437 95.36857422 -0.37148437 95.36857422 -1.515625 95.42578125 C-5.66412452 94.71479627 -8.72130569 92.74166106 -11.2265625 89.3293457 C-12.36427012 87.42123176 -13.38313146 85.48759649 -14.375 83.5 C-14.90673828 82.50419922 -14.90673828 82.50419922 -15.44921875 81.48828125 C-17.24726915 78.01019921 -18 75.98560436 -18 72 C-18.66 72 -19.32 72 -20 72 C-21.65887946 68.17923594 -23.31270504 64.35633383 -24.9621582 60.53149414 C-25.52234382 59.23436608 -26.08383545 57.93780115 -26.64672852 56.6418457 C-35 37.40333333 -35 37.40333333 -35 31 C-35.66 30.67 -36.32 30.34 -37 30 C-30.88421442 18.82287462 -21.57493574 10.85136682 -11 4 C-10.4121875 3.566875 -9.824375 3.13375 -9.21875 2.6875 C-5.94864622 0.28497478 -3.99743409 -0.16739674 0 0 Z " fill="#6C5474" transform="translate(201,290)"/>
<path d="M0 0 C11.17113819 1.28225238 20.32669622 11.47189702 28 19 C29.03447266 19.96292969 29.03447266 19.96292969 30.08984375 20.9453125 C33.06814479 23.95865238 33.94653962 25.53884614 34.44921875 29.875 C34.26787208 36.5015416 31.56073196 42.3257832 29.0625 48.375 C28.55907111 49.62004535 28.05622856 50.86532793 27.55395508 52.11083984 C11.94479363 90.52085749 11.94479363 90.52085749 3 95 C-0.20264868 95.92692615 -2.77902314 95.8654135 -6 95 C-12.75029765 90.58104533 -17.74181834 84.12066339 -22.69140625 77.84765625 C-25.92409361 73.86012819 -29.41683664 70.14705465 -32.93359375 66.41015625 C-35.81824331 63.04564061 -36.89374544 60.97400011 -37.375 56.5625 C-36.91907141 52.23117838 -36.09887497 51.02140309 -33 48 C-31.78229232 47.068165 -30.55181736 46.15289588 -29.3125 45.25 C-14.90232316 34.72360688 -6.2085722 19.96648125 -1.578125 2.8984375 C-1 1 -1 1 0 0 Z " fill="#A98ABB" transform="translate(312,290)"/>
<path d="M0 0 C4.19923672 3.49936393 6.97418055 5.94174411 10.1875 10.0625 C13.63212362 14.37413773 17.19787545 18.50851769 20.9375 22.5625 C21.41018311 23.07498291 21.88286621 23.58746582 22.36987305 24.11547852 C24.21749838 26.1086601 26.07806995 28.07806995 28 30 C28.23047829 32.18264961 28.23047829 32.18264961 28.20254517 34.94802856 C28.19688034 35.994133 28.19121552 37.04023743 28.18537903 38.11804199 C28.16056709 39.84649353 28.16056709 39.84649353 28.13525391 41.60986328 C28.12579239 42.81959808 28.11633087 44.02933289 28.10658264 45.27572632 C28.07862428 48.59797315 28.04170555 51.91989687 28.00085878 55.24199533 C27.9602937 58.71195448 27.93110488 62.18200851 27.90072632 65.65206909 C27.84144362 72.2253035 27.77188119 78.79838761 27.69865549 85.37147987 C27.61579935 92.85377716 27.54435722 100.33616968 27.47388959 107.81859231 C27.3286566 123.2125366 27.16903858 138.60629761 27 154 C24.37581903 154.48404266 21.75078403 154.96229498 19.125 155.4375 C18.39796875 155.57220703 17.6709375 155.70691406 16.921875 155.84570312 C11.25562668 156.86463374 5.77317949 157.42268205 0 158 C0 105.86 0 53.72 0 0 Z " fill="#876D93" transform="translate(277,354)"/>
<path d="M0 0 C3.21888693 1.71597193 6.08905519 3.8102115 9 6 C10.010625 6.721875 11.02125 7.44375 12.0625 8.1875 C19.4873377 14.64298389 24.70244506 23.83586475 28 33 C28.40436279 33.9137439 28.40436279 33.9137439 28.81689453 34.84594727 C29.6295715 37.0404944 30.06148378 38.65447702 30 41 C28.22123464 44.0680796 25.76259499 46.22529777 23.125 48.5625 C22.46757812 49.18318359 21.81015625 49.80386719 21.1328125 50.44335938 C19.11763159 52.33062353 17.06684625 54.16957453 15 56 C14.35248779 56.58128662 13.70497559 57.16257324 13.0378418 57.76147461 C8.0426944 62.20167491 2.84660714 66.34783477 -2.4375 70.4375 C-3.65856445 71.39172852 -3.65856445 71.39172852 -4.90429688 72.36523438 C-5.67708984 72.96529297 -6.44988281 73.56535156 -7.24609375 74.18359375 C-7.94404053 74.72556396 -8.6419873 75.26753418 -9.36108398 75.82592773 C-11 77 -11 77 -12 77 C-12.09273712 67.82917151 -12.16378355 58.65850478 -12.20724869 49.48730946 C-12.22811132 45.2285943 -12.25640431 40.97020027 -12.30175781 36.71166992 C-12.34526351 32.6008508 -12.36914707 28.4903403 -12.37950897 24.3793087 C-12.38689193 22.81200999 -12.40130936 21.24472791 -12.42292023 19.67756081 C-12.45201852 17.47973952 -12.45595354 15.28318843 -12.45410156 13.08520508 C-12.46298401 11.83500076 -12.47186646 10.58479645 -12.48101807 9.29670715 C-11.91259265 5.40094467 -10.7404029 3.77053848 -8 1 C-5.00818583 -0.49590709 -3.3583794 -0.42743011 0 0 Z " fill="#56415E" transform="translate(408,392)"/>
<path d="M0 0 C1.14242592 0.92090978 2.28794665 1.8380028 3.4375 2.75 C6.56632826 5.49726383 6.91595322 6.12591353 7.3125 10.25 C6.69896183 17.612458 1.23095587 22.05062857 -3.56640625 27.28125 C-6.01440203 30.01608958 -8.32611736 32.82666827 -10.625 35.6875 C-21.12288971 48.64899254 -21.12288971 48.64899254 -25.953125 49.23828125 C-26.71109375 49.26277344 -27.4690625 49.28726563 -28.25 49.3125 C-29.37148437 49.36857422 -29.37148437 49.36857422 -30.515625 49.42578125 C-34.65001284 48.71721478 -37.68262558 46.71983359 -40.24267578 43.37768555 C-41.40478594 41.52037102 -42.4324377 39.63396422 -43.4375 37.6875 C-43.80037109 37.04876953 -44.16324219 36.41003906 -44.53710938 35.75195312 C-46.97884314 31.14393931 -47.35535358 28.19952016 -46 23 C-41.52802093 11.14693437 -34.55299409 2.30631705 -23 -3 C-21.7934375 -3.61875 -21.7934375 -3.61875 -20.5625 -4.25 C-11.54715774 -6.88863676 -6.94326294 -6.45262552 0 0 Z " fill="#866C92" transform="translate(230,336)"/>
<path d="M0 0 C0.71929687 0.72445313 1.43859375 1.44890625 2.1796875 2.1953125 C17.32566257 17.25737635 30.5856375 25.62409993 52 28 C53.23953501 40.14744307 47.23170168 52.57975702 40 62 C38.08549382 64.15801793 36.14568844 66.06364701 34 68 C16.99632377 59.91014523 5.43609291 43.23657499 -1 26 C-2.05731142 22.0809834 -1.9823767 18.72006137 -1.625 14.6875 C-1.52574219 13.553125 -1.42648438 12.41875 -1.32421875 11.25 C-0.94891736 7.48794273 -0.51408877 3.7455039 0 0 Z " fill="#FB9460" transform="translate(203,273)"/>
<path d="M0 0 C3.63 0.66 7.26 1.32 11 2 C14.18683798 2.17603979 17.25907456 2.28235039 20.4375 2.25 C21.57155273 2.26160156 21.57155273 2.26160156 22.72851562 2.2734375 C29.47818682 2.25080658 35.1206584 1.14655693 42 0 C42 8.91 42 17.82 42 27 C29.7439487 31.90242052 14.73180423 31.01774598 2 28 C1.34 27.67 0.68 27.34 0 27 C0 18.09 0 9.18 0 0 Z " fill="#49B1F6" transform="translate(235,382)"/>
<path d="M0 0 C3.70894417 2.11939667 5.35713618 4.13336285 7 8 C8.05647276 14.81122961 6.10508058 20.64789902 3.6875 26.9375 C3.06411834 28.61243151 2.44302112 30.28821503 1.82421875 31.96484375 C1.51653564 32.78847412 1.20885254 33.61210449 0.8918457 34.46069336 C-0.29926807 37.85209067 -1.25285283 41.29615893 -2.17431641 44.76953125 C-3.75433517 49.03773097 -6.90186869 52.95093435 -11 55 C-13.3329866 55.04022391 -15.66706666 55.04320247 -18 55 C-18.21470297 48.72590217 -17.93465772 43.03002628 -16.578125 36.90625 C-14.20864115 24.99479063 -13.70672633 13.10568518 -14 1 C-9.37939044 -0.54020319 -4.82536624 -0.51574193 0 0 Z " fill="#FDAA7B" transform="translate(353,153)"/>
<path d="M0 0 C0.96164063 0.00515625 1.92328125 0.0103125 2.9140625 0.015625 C4.34878906 0.00789062 4.34878906 0.00789062 5.8125 0 C8.54964908 0.26665636 10.19893707 0.86820413 12.5390625 2.265625 C12.46945313 3.52826172 12.46945313 3.52826172 12.3984375 4.81640625 C12.09353936 15.30272438 13.38840309 25.25370453 15.11621094 35.5949707 C16.20068312 42.22697238 16.81285731 48.54434274 16.5390625 55.265625 C13.22885643 55.67095636 10.61003401 55.85455027 7.62109375 54.2109375 C3.04340228 50.59953912 1.12233649 46.81541697 -0.4609375 41.265625 C-1.07003685 39.3092463 -1.67946259 37.3529646 -2.29370117 35.39819336 C-2.73867808 33.9759931 -3.17894655 32.55231113 -3.61450195 31.12719727 C-4.69059957 27.61950526 -5.83983613 24.20490168 -7.2734375 20.828125 C-8.71733457 16.4964338 -9.2376227 12.7837615 -8.4609375 8.265625 C-4.19966795 0.45329749 -4.19966795 0.45329749 0 0 Z " fill="#FA9460" transform="translate(160.4609375,152.734375)"/>
</svg>
