<?xml version="1.0" encoding="UTF-8"?>
<svg version="1.1" xmlns="http://www.w3.org/2000/svg" width="512" height="512">
<path d="M0 0 C1.22905563 -0.01038551 1.22905563 -0.01038551 2.48294067 -0.02098083 C5.12279053 -0.03821793 7.76244023 -0.04457045 10.40234375 -0.046875 C11.74602524 -0.04888412 11.74602524 -0.04888412 13.11685181 -0.05093384 C23.64497245 -0.04751113 34.07917894 0.06584875 44.52734375 1.515625 C45.3788501 1.63325195 46.23035645 1.75087891 47.10766602 1.87207031 C51.45755656 2.58259029 54.68423559 3.58779011 58.33984375 6.203125 C57.79897057 9.98923727 56.22262043 11.75713267 53.33984375 14.203125 C52.67984375 14.203125 52.01984375 14.203125 51.33984375 14.203125 C51.33984375 15.193125 51.33984375 16.183125 51.33984375 17.203125 C51.93410156 17.35007812 52.52835937 17.49703125 53.140625 17.6484375 C65.51554795 20.99717248 75.0549175 27.32711943 83.74804688 36.72558594 C86.4564714 39.23960208 89.96891554 40.35517085 93.33984375 41.765625 C107.69935933 47.97356538 121.64050711 55.01216541 134.33984375 64.203125 C134.9436084 64.63850586 135.54737305 65.07388672 136.16943359 65.52246094 C154.84636565 79.05754674 172.14511423 93.92594434 186.33984375 112.203125 C187.34581729 113.45746201 188.35236716 114.71133695 189.359375 115.96484375 C223.5308184 158.98072113 240.87104958 212.16979444 240.65234375 266.828125 C240.6501886 267.79867828 240.64803345 268.76923157 240.64581299 269.76919556 C240.59477715 284.09743398 240.24742813 298.12498282 237.33984375 312.203125 C237.14116699 313.18619629 236.94249023 314.16926758 236.73779297 315.18212891 C230.01940115 347.48576718 217.75183037 379.31971697 198.33984375 406.203125 C197.84742188 406.89180664 197.355 407.58048828 196.84765625 408.29003906 C190.79382303 416.70625009 184.40967781 424.61163328 177.33984375 432.203125 C176.16842921 433.55318664 175.00154955 434.90720014 173.83984375 436.265625 C166.68609887 444.43664553 158.86197906 451.48768237 150.33984375 458.203125 C148.85871094 459.39228516 148.85871094 459.39228516 147.34765625 460.60546875 C126.24883067 477.25828246 102.63709504 490.13469038 77.33984375 499.203125 C76.57816895 499.47850098 75.81649414 499.75387695 75.03173828 500.03759766 C49.42970466 509.12678528 22.75677853 512.62058136 -4.28515625 512.515625 C-5.74565399 512.51289078 -5.74565399 512.51289078 -7.23565674 512.51010132 C-21.25626859 512.4658718 -34.89057975 512.05561698 -48.66015625 509.203125 C-49.50916504 509.04215332 -50.35817383 508.88118164 -51.23291016 508.71533203 C-107.01955136 498.07713941 -160.60195781 467.35001363 -195.66015625 422.203125 C-196.459375 421.19765625 -197.25859375 420.1921875 -198.08203125 419.15625 C-215.39858586 397.2375023 -228.83660367 372.74679085 -237.66015625 346.203125 C-237.93794922 345.37264648 -238.21574219 344.54216797 -238.50195312 343.68652344 C-242.5403165 331.4146498 -245.63523493 318.96650261 -247.66015625 306.203125 C-247.83893311 305.08301025 -248.01770996 303.96289551 -248.2019043 302.80883789 C-249.85309479 291.25197541 -250.01795708 279.80110626 -249.97265625 268.140625 C-249.9705011 267.14389771 -249.96834595 266.14717041 -249.96612549 265.12023926 C-249.91582202 250.63225758 -249.6178435 236.43616444 -246.66015625 222.203125 C-246.36214111 220.73069336 -246.36214111 220.73069336 -246.05810547 219.22851562 C-237.91355183 180.0614487 -221.37590599 143.00451917 -195.66015625 112.203125 C-195.18610352 111.62755859 -194.71205078 111.05199219 -194.22363281 110.45898438 C-183.78987599 97.8158081 -172.62347798 86.2796566 -159.66015625 76.203125 C-158.67789063 75.41550781 -157.695625 74.62789063 -156.68359375 73.81640625 C-133.19664849 55.12588247 -106.19984029 40.89881903 -77.44921875 32.2355957 C-69.83181188 29.98717027 -69.83181188 29.98717027 -64.28515625 24.515625 C-49.50810198 6.50194483 -22.27886259 0.1270469 0 0 Z " fill="#9589E7" transform="translate(260.66015625,-0.203125)"/>
<path d="M0 0 C37.16457124 6.10208299 78.58493226 44.13828468 101 73 C102.00597354 74.25433701 103.01252341 75.50821195 104.01953125 76.76171875 C138.19097465 119.77759613 155.53120583 172.96666944 155.3125 227.625 C155.31034485 228.59555328 155.3081897 229.56610657 155.30596924 230.56607056 C155.2549334 244.89430898 154.90758438 258.92185782 152 273 C151.80132324 273.98307129 151.60264648 274.96614258 151.39794922 275.97900391 C146.0649927 301.62113716 136.74364139 324.72511366 125 348 C124.34 348 123.68 348 123 348 C122.63648438 347.02160156 122.27296875 346.04320312 121.8984375 345.03515625 C115.18257201 327.34898997 106.27364368 317.31815044 88.93457031 309.26855469 C66.38655413 299.52150876 42.31563368 292.7486012 18.96289062 285.25561523 C17.92639877 284.92130997 16.88990692 284.5870047 15.82200623 284.24256897 C13.86334883 283.61101569 11.90348945 282.98317436 9.942276 282.35960388 C8.63389015 281.93675865 8.63389015 281.93675865 7.29907227 281.50537109 C6.53780533 281.26176849 5.77653839 281.01816589 4.99220276 280.7671814 C3 280 3 280 0 278 C-0.37125 276.989375 -0.7425 275.97875 -1.125 274.9375 C-5.67616613 263.75595479 -20.66443862 254.50554413 -31 249 C-32.65 248.67 -34.3 248.34 -36 248 C-36.66 243.05 -37.32 238.1 -38 233 C-38.81082031 233.85722656 -39.62164062 234.71445312 -40.45703125 235.59765625 C-54.93813806 250.64604602 -54.93813806 250.64604602 -65 254 C-72.78960242 250.71264485 -78.9822283 244.76951379 -85 239 C-85.67804688 238.38511719 -86.35609375 237.77023437 -87.0546875 237.13671875 C-101.66653026 223.43444853 -111.19121938 204.26183793 -116 185 C-116.21140625 184.22527344 -116.4228125 183.45054687 -116.640625 182.65234375 C-118.15735976 176.33622686 -118.27823559 169.99346615 -118.53588867 163.53295898 C-118.90975789 155.5139738 -120.25491191 147.76878362 -121.67431641 139.88134766 C-122.35781706 135.93302979 -122.77968876 131.99898282 -123 128 C-123.05285156 127.07316406 -123.10570312 126.14632812 -123.16015625 125.19140625 C-123.46202172 115.09859984 -121.87049407 106.32556481 -116.921875 97.49609375 C-113.34091488 90.49581031 -113.24451811 84.30578451 -113.375 76.5625 C-113.51514961 63.29733932 -112.35168628 51.12475902 -103 41 C-102.59265625 40.43667969 -102.1853125 39.87335938 -101.765625 39.29296875 C-98.92654867 37.21391064 -96.25427217 37.79596273 -92.8125 37.9375 C-87.0562739 38.16494966 -82.46145085 37.58176797 -77 36 C-62.41049938 32.02235248 -45.85574245 28.21589427 -31.875 36.125 C-23.08158955 42.09258394 -18.64845092 50.03693979 -16.4128418 60.26831055 C-15.7699444 64.52223071 -15.83373457 68.74288473 -15.82421875 73.03808594 C-15.78849805 84.1621079 -15.49437625 92.79691772 -9.58984375 102.3359375 C-7.41843915 105.97450737 -7.08364338 108.81783105 -7 113 C-6.46375 112.67 -5.9275 112.34 -5.375 112 C-2.4608939 110.77300796 -0.13132292 110.85766714 3 111 C2.96519531 110.43796875 2.93039062 109.8759375 2.89453125 109.296875 C2.23039611 88.67706027 7.64511687 67.04017238 16.40893555 48.49194336 C19.37087096 42.01835439 20.16484847 37.29981391 17.71484375 30.359375 C17.13984801 29.14781229 16.5467078 27.94472597 15.9375 26.75 C15.62312988 26.10740234 15.30875977 25.46480469 14.98486328 24.80273438 C10.66576594 16.10864296 5.82807837 7.77077115 0 0 Z " fill="#FFDC3F" transform="translate(346,39)"/>
<path d="M0 0 C-0.90901174 1.5877405 -1.82757924 3.17001197 -2.75 4.75 C-3.51570313 6.07257812 -3.51570313 6.07257812 -4.296875 7.421875 C-7.6208823 12.45362917 -10.46490889 14.43231774 -16.1875 16.3125 C-27.72835809 20.56439509 -34.37902346 27.84493955 -40.9375 38 C-43.71052298 45.82971196 -41.37578083 52.99099311 -38.8125 60.5625 C-32.91519987 78.89518344 -27.2276379 99.60512957 -28 119 C-29.8871875 119.5878125 -29.8871875 119.5878125 -31.8125 120.1875 C-34.60849584 121.26136035 -35.91032138 121.90471647 -38 124.125 C-40.61167731 131.63357226 -38.6011464 138.22733984 -35.6875 145.3125 C-33.52606064 150.80137603 -31.60190121 156.08488725 -30.375 161.875 C-29.28765651 166.73406624 -27.95141092 168.98444956 -24 172 C-23.67 172.33 -23.34 172.66 -23 173 C-21.65252916 173.23075082 -20.29622435 173.41153063 -18.9375 173.5625 C-17.638125 173.706875 -16.33875 173.85125 -15 174 C-14.85304687 175.16273438 -14.70609375 176.32546875 -14.5546875 177.5234375 C-11.79260354 197.84295436 -5.73282887 217.71415219 7.625 233.6875 C11.7701704 239.04990298 11.50118731 243.37670322 10.6953125 249.93359375 C9.56504681 254.91819246 9.56504681 254.91819246 8 257 C6.33741226 257.35311598 4.66973621 257.68239983 3 258 C0.66713323 259.43561032 -1.49353531 260.87849189 -3.6875 262.5 C-4.29964355 262.94561279 -4.91178711 263.39122559 -5.54248047 263.8503418 C-17.8500159 272.42009467 -17.8500159 272.42009467 -25.78540039 284.5168457 C-27 287 -27 287 -29.34399414 288.31445312 C-30.31457764 288.63349609 -31.28516113 288.95253906 -32.28515625 289.28125 C-33.90284912 289.82724854 -33.90284912 289.82724854 -35.55322266 290.38427734 C-36.71128418 290.75246582 -37.8693457 291.1206543 -39.0625 291.5 C-40.84986572 292.09288818 -40.84986572 292.09288818 -42.67333984 292.69775391 C-49.41832305 294.91562062 -56.19439106 296.97991504 -63.02587891 298.9128418 C-106.56647891 309.75710536 -106.56647891 309.75710536 -140.03173828 335.77441406 C-143.58628948 342.30137368 -146.81236321 348.88185187 -149 356 C-149.66 356 -150.32 356 -151 356 C-164.31764316 330.2257411 -174.46954809 303.83676043 -179 275 C-179.27493286 273.27970581 -179.27493286 273.27970581 -179.55541992 271.5246582 C-181.20608344 259.99785434 -181.35768364 248.56781637 -181.3125 236.9375 C-181.31034485 235.94077271 -181.3081897 234.94404541 -181.30596924 233.91711426 C-181.25566577 219.42913258 -180.95768725 205.23303944 -178 191 C-177.70198486 189.52756836 -177.70198486 189.52756836 -177.39794922 188.02539062 C-169.25339558 148.8583237 -152.71574974 111.80139417 -127 81 C-126.52594727 80.42443359 -126.05189453 79.84886719 -125.56347656 79.25585938 C-115.12971974 66.6126831 -103.96332173 55.0765316 -91 45 C-89.52660156 43.81857422 -89.52660156 43.81857422 -88.0234375 42.61328125 C-72.57561266 30.32015695 -19.40686783 -9.70343392 0 0 Z " fill="#FFDC3F" transform="translate(192,31)"/>
<path d="M0 0 C0.87081207 0.0036557 1.74162415 0.0073114 2.63882446 0.01107788 C38.66499863 0.18831064 38.66499863 0.18831064 47.3125 6.375 C46.77162682 10.16111227 45.19527668 11.92900767 42.3125 14.375 C41.6525 14.375 40.9925 14.375 40.3125 14.375 C40.3125 15.365 40.3125 16.355 40.3125 17.375 C40.90675781 17.52195312 41.50101563 17.66890625 42.11328125 17.8203125 C62.5282715 23.34474221 75.92142081 38.24660517 86.44921875 55.96875 C95.61820544 72.73050345 95.61820544 72.73050345 94.3125 81.375 C93.32747183 84.4338276 91.996399 87.28499555 90.625 90.1875 C82.14536682 109.27837135 78.83749214 129.6351069 77.3125 150.375 C74.0125 151.035 70.7125 151.695 67.3125 152.375 C66.94125 150.9725 66.57 149.57 66.1875 148.125 C64.98561185 144.00239054 63.37318006 140.60694238 61.23828125 136.890625 C57.73898886 130.00444174 57.52108965 123.98955046 57.625 116.375 C57.67808361 102.48226167 56.65930178 90.40040355 46.87109375 79.81640625 C39.0919488 72.67315871 28.61265419 72.03287143 18.57421875 72.08203125 C10.65211601 72.44488971 2.87400786 74.74096608 -4.70336914 76.96728516 C-9.41961281 78.28703354 -13.31711129 78.38064001 -18.25 78 C-23.47035933 77.85815697 -23.47035933 77.85815697 -28.10546875 79.90234375 C-36.2623272 88.96358736 -37.83894111 99.9881755 -37.86303711 111.68017578 C-37.89857666 123.02817305 -37.98951269 131.78830748 -44.03125 141.59375 C-46.65366377 145.99742595 -47.28827965 150.32560186 -47.6875 155.375 C-47.75710937 156.22449219 -47.82671875 157.07398438 -47.8984375 157.94921875 C-48.3233253 169.40484764 -46.19975483 181.24152135 -44.109375 192.484375 C-43.65133814 195.62277568 -43.53601098 198.67820518 -43.44824219 201.8449707 C-43.14369604 211.84525115 -41.6192461 220.82701608 -38.6875 230.375 C-38.3265625 231.55578125 -37.965625 232.7365625 -37.59375 233.953125 C-29.95839244 256.96237819 -14.52369978 279.80143957 7.3125 291.375 C10.19228046 292.70170794 10.19228046 292.70170794 12.44140625 291.4765625 C19.10399959 287.43409014 24.63747797 282.69000394 30.3125 277.375 C32.62641059 275.35084566 34.96747864 273.36317029 37.3125 271.375 C37.65051152 273.91612232 37.98303379 276.45776746 38.3125 279 C38.40789062 279.71285156 38.50328125 280.42570312 38.6015625 281.16015625 C40.45187587 295.56616752 34.98948473 307.92204506 26.3125 319.375 C20.83472243 326.1795976 15.05581321 332.10285543 7.6015625 336.77734375 C4.84544141 338.70098458 2.68610207 340.99782323 0.3125 343.375 C-1.70298403 344.95074206 -3.74549058 346.49248185 -5.8125 348 C-10.49945828 351.40148036 -10.49945828 351.40148036 -14.6875 355.375 C-17.82018007 353.93297267 -20.41024118 352.18443454 -23.125 350.0625 C-23.86621094 349.48886719 -24.60742188 348.91523438 -25.37109375 348.32421875 C-27.6875 346.375 -27.6875 346.375 -29.98828125 344 C-33.23709477 340.84051709 -36.76248332 338.32262947 -40.4375 335.6875 C-54.11685834 325.62120568 -62.1008899 313.9108086 -68.6875 298.375 C-69.24630859 297.09882812 -69.24630859 297.09882812 -69.81640625 295.796875 C-71.51095205 291.08558173 -70.98674603 286.02185736 -70.10546875 281.171875 C-69.126934 274.89235702 -68.88133905 270.68345332 -72.73828125 265.36767578 C-73.63152119 264.2343282 -74.53009706 263.10516848 -75.43359375 261.97998047 C-87.62134489 246.69042978 -95.12437245 224.88863592 -94.6875 205.375 C-95.904375 205.4575 -97.12125 205.54 -98.375 205.625 C-101.56439165 205.61373006 -102.63349606 205.40620228 -105.5 203.75 C-110.10991326 198.74495132 -111.23231093 193.31427055 -112.7265625 186.86328125 C-113.83560389 182.83737085 -115.32755716 179.05995421 -116.875 175.1875 C-119.16082278 169.32089963 -120.70473295 164.68184432 -119.6875 158.375 C-117.90075424 154.73533271 -116.69995189 152.91826687 -113.125 151 C-110.6875 150.375 -110.6875 150.375 -107.6875 150.375 C-110.21428963 129.50330676 -113.69821263 109.08550078 -120.45214844 89.12329102 C-122.5746522 82.65389483 -123.98551996 76.54301385 -121.91015625 69.87890625 C-114.3414084 57.2133585 -104.94775964 49.12143679 -90.9140625 44.52734375 C-85.98970418 41.97877234 -83.70741428 36.78455112 -81.0625 32.125 C-73.06306938 18.74090062 -60.46168342 11.10871378 -46 6.125 C-45.33097656 5.89079346 -44.66195312 5.65658691 -43.97265625 5.4152832 C-29.54503766 0.75803456 -15.03789902 -0.13808397 0 0 Z " fill="#FEA97B" transform="translate(271.6875,-0.375)"/>
<path d="M0 0 C1.984375 0.9140625 1.984375 0.9140625 2.96875 3.328125 C3.22140625 4.38773437 3.4740625 5.44734375 3.734375 6.5390625 C9.19447058 25.9693245 21.29108507 40.04612106 37.7421875 51.296875 C40.45285665 53.25195693 42.6535681 55.52349132 44.984375 57.9140625 C46.51618638 59.09363917 48.05882002 60.25923503 49.609375 61.4140625 C55.62437964 66.04330647 55.62437964 66.04330647 56.984375 69.9140625 C56.67687632 70.4936031 56.36937763 71.07314369 56.05256081 71.67024612 C54.65610587 74.60362011 54.72207704 76.8818541 54.7059021 80.12762451 C54.69473862 81.40366043 54.68357513 82.67969635 54.67207336 83.99440002 C54.66970847 85.40609712 54.66753281 86.81779454 54.66552734 88.22949219 C54.65622805 89.71775355 54.64605938 91.20600969 54.63508606 92.69425964 C54.60777202 96.7331391 54.59263251 100.77198365 54.57965803 104.81093121 C54.56403364 109.03238112 54.53724121 113.2537597 54.5116272 117.47515869 C54.46482716 125.46838248 54.42808898 133.46161967 54.39495432 141.45491052 C54.35674159 150.55523695 54.30732921 159.65549175 54.25697017 168.75575781 C54.1536321 187.47514029 54.06437779 206.19456648 53.984375 224.9140625 C50.94049712 224.92708234 47.89667557 224.93659038 44.8527832 224.9440918 C43.99596199 224.9481176 43.13914078 224.9521434 42.25635529 224.9562912 C36.14856006 224.96757356 30.21490998 224.65867813 24.171875 223.7265625 C22.80615356 223.52474365 22.80615356 223.52474365 21.4128418 223.31884766 C-38.63366426 214.02538344 -96.40821267 183.34375175 -134.015625 134.9140625 C-135.21445313 133.40585937 -135.21445313 133.40585937 -136.4375 131.8671875 C-142.76106714 123.85306421 -148.49750027 115.50006207 -154.015625 106.9140625 C-154.62277344 106.03621094 -155.22992188 105.15835938 -155.85546875 104.25390625 C-157.26839963 101.40425777 -157.14120301 100.45250843 -156.140625 97.4765625 C-150.01728432 80.04458413 -141.73205207 70.19788763 -125.015625 61.9140625 C-112.05917792 55.92316733 -98.65960775 51.19707448 -85.140625 46.6640625 C-83.36177742 46.06049009 -81.58313099 45.45632452 -79.8046875 44.8515625 C-68.90770299 41.15739411 -57.98114867 37.61186234 -46.9140625 34.45703125 C-45.40596967 34.00614489 -43.89814882 33.55434768 -42.390625 33.1015625 C-41.61589844 32.89208984 -40.84117187 32.68261719 -40.04296875 32.46679688 C-37.83908844 31.78500721 -35.97855053 31.12820567 -34.015625 29.9140625 C-32.16627719 26.55031755 -32.16627719 26.55031755 -31.015625 22.9140625 C-25.60683999 15.87815337 -9.46327224 -0.40347285 0 0 Z " fill="#7D6CD1" transform="translate(199.015625,287.0859375)"/>
<path d="M0 0 C8.36272874 6.7446855 12.33254452 15.05644824 13.91796875 25.546875 C14.0693295 28.89641777 14.08632201 32.23215098 14.09375 35.58496094 C14.1294707 46.7089829 14.4235925 55.34379272 20.328125 64.8828125 C22.4995296 68.52138237 22.83432537 71.36470605 22.91796875 75.546875 C23.48644531 75.22332031 24.05492187 74.89976562 24.640625 74.56640625 C28.35230758 72.9047439 31.92645728 73.09702666 35.91796875 73.546875 C39.39930868 74.90913845 40.61082958 76.10205276 42.73046875 79.171875 C45.42466867 86.82907477 43.76265572 93.14689708 40.60546875 100.359375 C38.39904019 105.65513279 36.46950894 110.73496783 35.23046875 116.359375 C33.9176112 122.18266341 31.92610954 125.20811447 26.91796875 128.546875 C24.875 128.7421875 24.875 128.7421875 22.73046875 128.671875 C21.47234375 128.630625 20.21421875 128.589375 18.91796875 128.546875 C18.86898437 129.28550781 18.82 130.02414063 18.76953125 130.78515625 C16.52878624 161.18974801 2.84353187 186.67734178 -19.45947266 207.15332031 C-24.09975942 211.13868848 -29.26493312 214.60784229 -35.08203125 216.546875 C-42.87163367 213.25951985 -49.06425955 207.31638879 -55.08203125 201.546875 C-55.76007813 200.93199219 -56.438125 200.31710937 -57.13671875 199.68359375 C-71.74856151 185.98132353 -81.27325063 166.80871293 -86.08203125 147.546875 C-86.2934375 146.77214844 -86.50484375 145.99742187 -86.72265625 145.19921875 C-88.23939101 138.88310186 -88.36026684 132.54034115 -88.61791992 126.07983398 C-88.99178914 118.0608488 -90.33694316 110.31565862 -91.75634766 102.42822266 C-92.43984831 98.47990479 -92.86172001 94.54585782 -93.08203125 90.546875 C-93.13488281 89.62003906 -93.18773437 88.69320312 -93.2421875 87.73828125 C-93.54405297 77.64547484 -91.95252532 68.87243981 -87.00390625 60.04296875 C-83.42294613 53.04268531 -83.32654936 46.85265951 -83.45703125 39.109375 C-83.59718086 25.84421432 -82.43371753 13.67163402 -73.08203125 3.546875 C-72.6746875 2.98355469 -72.26734375 2.42023438 -71.84765625 1.83984375 C-69.00857992 -0.23921436 -66.33630342 0.34283773 -62.89453125 0.484375 C-57.13830515 0.71182466 -52.5434821 0.12864297 -47.08203125 -1.453125 C-31.76784343 -5.62834955 -14.12051122 -9.58278206 0 0 Z " fill="#FEC6AA" transform="translate(316.08203125,76.453125)"/>
<path d="M0 0 C-0.90901174 1.5877405 -1.82757924 3.17001197 -2.75 4.75 C-3.51570313 6.07257812 -3.51570313 6.07257812 -4.296875 7.421875 C-7.6208823 12.45362917 -10.46490889 14.43231774 -16.1875 16.3125 C-27.72835809 20.56439509 -34.37902346 27.84493955 -40.9375 38 C-43.71052298 45.82971196 -41.37578083 52.99099311 -38.8125 60.5625 C-32.91519987 78.89518344 -27.2276379 99.60512957 -28 119 C-29.8871875 119.5878125 -29.8871875 119.5878125 -31.8125 120.1875 C-34.60849584 121.26136035 -35.91032138 121.90471647 -38 124.125 C-40.61167731 131.63357226 -38.6011464 138.22733984 -35.6875 145.3125 C-33.52606064 150.80137603 -31.60190121 156.08488725 -30.375 161.875 C-29.28765651 166.73406624 -27.95141092 168.98444956 -24 172 C-23.67 172.33 -23.34 172.66 -23 173 C-21.65252916 173.23075082 -20.29622435 173.41153063 -18.9375 173.5625 C-17.638125 173.706875 -16.33875 173.85125 -15 174 C-14.85304687 175.16273438 -14.70609375 176.32546875 -14.5546875 177.5234375 C-11.79260354 197.84295436 -5.73282887 217.71415219 7.625 233.6875 C11.7701704 239.04990298 11.50118731 243.37670322 10.6953125 249.93359375 C9.56504681 254.91819246 9.56504681 254.91819246 8 257 C6.33741226 257.35311598 4.66973621 257.68239983 3 258 C0.66713323 259.43561032 -1.49353531 260.87849189 -3.6875 262.5 C-4.29964355 262.94561279 -4.91178711 263.39122559 -5.54248047 263.8503418 C-17.8500159 272.42009467 -17.8500159 272.42009467 -25.78540039 284.5168457 C-27 287 -27 287 -29.34399414 288.31445312 C-30.31457764 288.63349609 -31.28516113 288.95253906 -32.28515625 289.28125 C-33.90284912 289.82724854 -33.90284912 289.82724854 -35.55322266 290.38427734 C-36.71128418 290.75246582 -37.8693457 291.1206543 -39.0625 291.5 C-40.84986572 292.09288818 -40.84986572 292.09288818 -42.67333984 292.69775391 C-49.41832305 294.91562062 -56.19439106 296.97991504 -63.02587891 298.9128418 C-106.56647891 309.75710536 -106.56647891 309.75710536 -140.03173828 335.77441406 C-143.58628948 342.30137368 -146.81236321 348.88185187 -149 356 C-149.66 356 -150.32 356 -151 356 C-152.80368302 352.32306936 -154.59980036 348.64254466 -156.3894043 344.95874023 C-156.99743197 343.70971857 -157.6074106 342.46164446 -158.21948242 341.21459961 C-161.62703079 334.26855048 -164.78004217 327.42924515 -167 320 C-148.67229468 300.05117087 -125.02217086 286.75158696 -100.66873169 275.54020691 C-98.68561606 274.62716839 -96.70363611 273.71169425 -94.72167969 272.79614258 C-92.09292727 271.58219266 -89.45907181 270.38046066 -86.82128906 269.1862793 C-70.86073466 261.89445183 -54.45207538 252.63018844 -47.625 235.5625 C-45.18708234 221.66636933 -49.83726702 209.63491058 -55.4375 197.0625 C-63.58461996 178.69024974 -69.86491654 160.03108407 -64 140.0625 C-59.44732782 124.24042409 -61.28370745 108.93908951 -68.75 94.3125 C-71.9609984 88.74784786 -75.83969131 83.87816588 -80 79 C-80.55429688 78.31164062 -81.10859375 77.62328125 -81.6796875 76.9140625 C-87.91504196 69.36600184 -95.69990867 63.15951624 -104 58 C-102.49000582 54.23766813 -100.33607897 52.37357951 -97.1875 49.875 C-96.19363281 49.08609375 -95.19976562 48.2971875 -94.17578125 47.484375 C-93.65193848 47.07509766 -93.1280957 46.66582031 -92.58837891 46.24414062 C-91.04318207 45.03382353 -89.51159434 43.80619469 -87.98046875 42.578125 C-72.49088721 30.34232977 -19.43773225 -9.71886613 0 0 Z " fill="#FEC739" transform="translate(192,31)"/>
<path d="M0 0 C28.40530582 4.66389165 56.8398131 29.59353605 78 48 C74.7914689 51.24849502 71.52514733 54.39040311 68.125 57.4375 C67.25101562 58.22511719 66.37703125 59.01273438 65.4765625 59.82421875 C63.52396963 61.53966706 61.54281576 63.14769664 59.5 64.75 C48.35410425 74.34858317 37.18628833 91.40709311 35.78417969 106.29101562 C35.65921629 108.88578415 35.62123173 111.46475024 35.625 114.0625 C35.62371094 114.99497559 35.62242187 115.92745117 35.62109375 116.88818359 C35.70351987 122.31051096 36.27317914 126.93841394 38 132.125 C44.74886889 152.44391599 36.71866396 171.8066329 29.00048828 190.54296875 C27.46277563 194.31933287 26.00131808 198.12253325 24.5625 201.9375 C24.31580566 202.58130615 24.06911133 203.2251123 23.81494141 203.88842773 C20.07963232 213.83285738 19.7789129 223.13480781 24 233 C33.35929177 249.34876287 52.49497028 257.65097647 69.00552368 264.88812256 C90.75497216 274.45117292 110.69369693 285.4453872 129 300.6875 C129.5161084 301.11482422 130.0322168 301.54214844 130.56396484 301.98242188 C134.46622285 305.3137728 137.7516783 309.03534849 141 313 C136.02620956 324.86305907 130.96125188 336.59503257 125 348 C124.34 348 123.68 348 123 348 C122.63648438 347.02160156 122.27296875 346.04320312 121.8984375 345.03515625 C115.18257201 327.34898997 106.27364368 317.31815044 88.93457031 309.26855469 C66.38655413 299.52150876 42.31563368 292.7486012 18.96289062 285.25561523 C17.92639877 284.92130997 16.88990692 284.5870047 15.82200623 284.24256897 C13.86334883 283.61101569 11.90348945 282.98317436 9.942276 282.35960388 C8.63389015 281.93675865 8.63389015 281.93675865 7.29907227 281.50537109 C6.53780533 281.26176849 5.77653839 281.01816589 4.99220276 280.7671814 C3 280 3 280 0 278 C-0.37125 276.989375 -0.7425 275.97875 -1.125 274.9375 C-5.67616613 263.75595479 -20.66443862 254.50554413 -31 249 C-33.69254991 248.29329272 -33.69254991 248.29329272 -36 248 C-38.80029041 233.4023571 -38.80029041 233.4023571 -34.86328125 226.8359375 C-32.98920622 224.11609701 -30.96168637 221.52409031 -28.93359375 218.91796875 C-24.45754059 213.16263349 -21.78308206 206.69010111 -19 200 C-18.61328125 199.15050781 -18.2265625 198.30101562 -17.828125 197.42578125 C-13.69556217 187.55531387 -12.64748869 176.50605128 -11 166 C-9.0082194 165.80672201 -7.0164388 165.61344401 -5.0246582 165.42016602 C-1.50732516 164.69023352 -0.09238851 162.80977885 2 160 C4.55477366 154.27730701 6.15518739 148.24076339 7.94921875 142.2421875 C8.89880011 139.31225244 10.00900537 136.5652599 11.25 133.75 C13.71234021 127.75473689 13.87913448 122.79254481 11.9375 116.625 C9.33014546 113.09245514 7.11699787 112.39822569 3 111 C1.69740216 89.96545707 7.47803181 67.3938004 16.40893555 48.49194336 C19.37087096 42.01835439 20.16484847 37.29981391 17.71484375 30.359375 C17.13984801 29.14781229 16.5467078 27.94472597 15.9375 26.75 C15.62312988 26.10740234 15.30875977 25.46480469 14.98486328 24.80273438 C10.66576594 16.10864296 5.82807837 7.77077115 0 0 Z " fill="#FEC739" transform="translate(346,39)"/>
<path d="M0 0 C0.87081207 0.0036557 1.74162415 0.0073114 2.63882446 0.01107788 C38.66499863 0.18831064 38.66499863 0.18831064 47.3125 6.375 C46.77162682 10.16111227 45.19527668 11.92900767 42.3125 14.375 C41.6525 14.375 40.9925 14.375 40.3125 14.375 C40.3125 15.365 40.3125 16.355 40.3125 17.375 C40.90675781 17.52195312 41.50101563 17.66890625 42.11328125 17.8203125 C62.5282715 23.34474221 75.92142081 38.24660517 86.44921875 55.96875 C95.61820544 72.73050345 95.61820544 72.73050345 94.3125 81.375 C93.32747183 84.4338276 91.996399 87.28499555 90.625 90.1875 C82.14536682 109.27837135 78.83749214 129.6351069 77.3125 150.375 C74.0125 151.035 70.7125 151.695 67.3125 152.375 C66.94125 150.9725 66.57 149.57 66.1875 148.125 C64.98561185 144.00239054 63.37318006 140.60694238 61.23828125 136.890625 C57.73898886 130.00444174 57.52108965 123.98955046 57.625 116.375 C57.67808361 102.48226167 56.65930178 90.40040355 46.87109375 79.81640625 C39.0919488 72.67315871 28.61265419 72.03287143 18.57421875 72.08203125 C10.59524714 72.44749449 2.89742855 74.85677971 -4.76928711 76.94091797 C-14.81038756 79.58137746 -22.84941331 78.65691177 -32.61328125 75.3984375 C-44.84585011 71.32609564 -59.65109968 70.02548875 -71.6875 75.375 C-79.84582717 79.7679454 -84.59857872 86.4183849 -87.24047852 95.21655273 C-88.7006167 100.98836856 -88.85029587 106.47649004 -88.86303711 112.41308594 C-88.90498008 125.20826035 -89.96301139 133.55872351 -96.6875 144.375 C-97.62528939 147.0671023 -98.18179241 149.56551338 -98.6875 152.375 C-101.6575 151.715 -104.6275 151.055 -107.6875 150.375 C-107.84605469 149.0653125 -108.00460938 147.755625 -108.16796875 146.40625 C-110.62398087 126.87588225 -114.13209084 107.80311254 -120.45214844 89.12329102 C-122.5746522 82.65389483 -123.98551996 76.54301385 -121.91015625 69.87890625 C-114.3414084 57.2133585 -104.94775964 49.12143679 -90.9140625 44.52734375 C-85.98970418 41.97877234 -83.70741428 36.78455112 -81.0625 32.125 C-73.06306938 18.74090062 -60.46168342 11.10871378 -46 6.125 C-45.33097656 5.89079346 -44.66195312 5.65658691 -43.97265625 5.4152832 C-29.54503766 0.75803456 -15.03789902 -0.13808397 0 0 Z " fill="#56415E" transform="translate(271.6875,-0.375)"/>
<path d="M0 0 C1.21690198 2.84872728 2.16639616 5.54872282 3.0625 8.5 C7.13775768 21.06179287 12.54174462 32.9891691 18 45 C15.26600385 47.73399615 12.12345022 48.23153678 8.5 49.25 C-4.31060618 53.07876867 -15.80609645 59.78066294 -22.5 71.75 C-25.53182243 77.64521028 -26.1548445 82.38276926 -26.20532227 88.98144531 C-26.21522186 89.7818222 -26.22512146 90.5821991 -26.23532104 91.40682983 C-26.26685942 94.04723166 -26.29166313 96.68765147 -26.31640625 99.328125 C-26.3369824 101.16087303 -26.35797904 102.99361639 -26.37937927 104.82635498 C-26.43453171 109.64644582 -26.48397108 114.466579 -26.53222656 119.28674316 C-26.58249146 124.20682537 -26.63815148 129.12684621 -26.69335938 134.046875 C-26.80085743 143.69786422 -26.90232093 153.34890676 -27 163 C-44.28902388 159.06783934 -61.44298273 142.86339156 -74 131 C-75.32861796 129.84870242 -76.66184718 128.70270122 -78 127.5625 C-86.53767371 120.0898882 -94.00327666 111.91692185 -101 103 C-101.80308594 101.99066406 -102.60617188 100.98132813 -103.43359375 99.94140625 C-109.75032672 91.92900557 -115.4848458 83.58137754 -121 75 C-121.60714844 74.12214844 -122.21429688 73.24429688 -122.83984375 72.33984375 C-124.25277463 69.49019527 -124.12557801 68.53844593 -123.125 65.5625 C-117.00165932 48.13052163 -108.71642707 38.28382513 -92 30 C-79.04355292 24.00910483 -65.64398275 19.28301198 -52.125 14.75 C-50.34615242 14.14642759 -48.56750599 13.54226202 -46.7890625 12.9375 C-38.45867009 10.11383716 -30.11513007 7.37716323 -21.6953125 4.83154297 C-16.81538251 3.32601384 -12.02264135 1.57578248 -7.21484375 -0.14453125 C-4.0364439 -0.99030229 -2.94859085 -1.21066208 0 0 Z " fill="#7255CD" transform="translate(166,319)"/>
<path d="M0 0 C-3.12360307 3.19006271 -6.32788821 6.13705681 -9.75 9 C-20.21077638 18.43184755 -27.78984374 30.59481719 -29.4375 44.76171875 C-29.80785919 56.02295273 -26.70369454 65.88705674 -22 76 C-26.19414813 75.35135547 -30.25567829 74.45020736 -34.375 73.4375 C-47.00048457 70.72822583 -59.6390771 70.49796459 -71.25 76.75 C-79.50440869 83.50360711 -83.42181293 91.51002887 -85 102 C-85.15111114 105.34954321 -85.16834126 108.68528455 -85.17553711 112.03808594 C-85.21748008 124.83326035 -86.27551139 133.18372351 -93 144 C-93.93778939 146.6921023 -94.49429241 149.19051338 -95 152 C-97.97 151.34 -100.94 150.68 -104 150 C-104.15855469 148.6903125 -104.31710938 147.380625 -104.48046875 146.03125 C-106.93648087 126.50088225 -110.44459084 107.42811254 -116.76464844 88.74829102 C-118.8871522 82.27889483 -120.29801996 76.16801385 -118.22265625 69.50390625 C-110.6539084 56.8383585 -101.26025964 48.74643679 -87.2265625 44.15234375 C-82.30220418 41.60377234 -80.01991428 36.40955112 -77.375 31.75 C-67.5550646 15.31995671 -50.82122151 7.77293557 -33 3 C-21.98288163 0.26944846 -11.31487412 -0.41117308 0 0 Z " fill="#46304C" transform="translate(268,0)"/>
<path d="M0 0 C1.64751251 -0.02882263 1.64751251 -0.02882263 3.32830811 -0.05822754 C4.51579651 -0.06672729 5.70328491 -0.07522705 6.92675781 -0.08398438 C8.14888977 -0.09538452 9.37102173 -0.10678467 10.63018799 -0.11853027 C13.21924371 -0.13743783 15.80834764 -0.15050125 18.39746094 -0.15820312 C22.35079474 -0.17759172 26.30203843 -0.2396151 30.25488281 -0.30273438 C32.77049546 -0.31579708 35.28612299 -0.32629699 37.80175781 -0.33398438 C39.57084503 -0.37102478 39.57084503 -0.37102478 41.37567139 -0.40881348 C47.82852957 -0.37395024 51.76914371 0.11248271 56.45196533 4.73986816 C58.91072781 8.04293443 58.7517016 11.21470559 58.7434082 15.1706543 C58.74329491 16.97218208 58.74329491 16.97218208 58.74317932 18.81010437 C58.73801804 20.10704727 58.73285675 21.40399017 58.72753906 22.74023438 C58.72567359 24.08116096 58.72425029 25.42208823 58.72325134 26.76301575 C58.71943637 30.28935636 58.7096148 33.81565567 58.69854736 37.34197998 C58.68831131 40.94152264 58.68374902 44.54107198 58.67871094 48.140625 C58.66799161 55.20118875 58.65092743 62.26172449 58.62988281 69.32226562 C37.71673931 78.29340345 37.71673931 78.29340345 29.00488281 81.00976562 C28.11881348 81.28957275 27.23274414 81.56937988 26.31982422 81.85766602 C14.43644111 85.4680295 1.11098909 89.32226562 -11.37011719 89.32226562 C-12.8704266 86.3216468 -12.53486047 83.23048028 -12.54711914 79.93847656 C-12.55369034 79.17729019 -12.56026154 78.41610382 -12.56703186 77.6318512 C-12.58678019 75.10678004 -12.59843175 72.58176845 -12.60839844 70.05664062 C-12.61247396 69.19439125 -12.61654949 68.33214188 -12.62074852 67.44376373 C-12.6416173 62.87868997 -12.65591466 58.31364632 -12.6652832 53.74853516 C-12.67634032 49.03627415 -12.71072965 44.32448631 -12.7504549 39.61239243 C-12.77662135 35.98692964 -12.78497513 32.36157949 -12.78856468 28.73603058 C-12.79343176 26.99931905 -12.80504927 25.26261259 -12.82360268 23.52599335 C-12.847992 21.09149408 -12.84702976 18.65821725 -12.84008789 16.22363281 C-12.85289795 15.50963821 -12.86570801 14.79564362 -12.87890625 14.06001282 C-12.82677134 9.02901284 -11.53997684 6.18692373 -8.37011719 2.32226562 C-5.03490766 0.09879261 -3.89864817 0.0550535 0 0 Z " fill="#B4AFF6" transform="translate(301.3701171875,420.677734375)"/>
<path d="M0 0 C1.984375 0.9140625 1.984375 0.9140625 2.96875 3.328125 C3.22140625 4.38773437 3.4740625 5.44734375 3.734375 6.5390625 C9.15607528 25.83269122 21.20350314 40.41996759 37.8828125 51.23828125 C40.08325068 52.99290575 40.95788709 54.32528255 41.984375 56.9140625 C35.79285079 64.184651 29.58041884 71.41522611 23.13671875 78.46484375 C20.76753908 81.16080683 18.57242375 83.96397328 16.359375 86.7890625 C12.10416341 92.02112267 8.78430107 95.29366641 1.921875 96.4140625 C-2.47374659 95.66587159 -5.38290779 93.9219348 -8.22265625 90.4296875 C-9.62088814 88.31597241 -10.82069443 86.149955 -12.015625 83.9140625 C-12.58925781 82.84671875 -13.16289062 81.779375 -13.75390625 80.6796875 C-18.02035362 72.52651749 -21.71153374 64.14908482 -25.265625 55.6640625 C-25.67772217 54.68308594 -26.08981934 53.70210938 -26.5144043 52.69140625 C-35.26948181 31.47902303 -35.26948181 31.47902303 -33.265625 25.95703125 C-28.23935826 17.74222655 -10.2104472 -0.43532914 0 0 Z " fill="#7E6DD0" transform="translate(199.015625,287.0859375)"/>
<path d="M0 0 C4.75493649 0.49958057 7.94183767 2.73153409 11.6875 5.5 C12.60680298 6.16950684 12.60680298 6.16950684 13.54467773 6.85253906 C19.01384835 10.89531112 24.14267219 15.23466703 29 20 C29.556875 20.54398437 30.11375 21.08796875 30.6875 21.6484375 C34.07187676 25.28279664 34.79044704 28.10230868 35 33 C34.19447955 36.36307573 32.9365727 39.49260529 31.625 42.6875 C31.26140381 43.60305664 30.89780762 44.51861328 30.52319336 45.46191406 C25.32373037 58.39678466 19.627535 71.10199679 13.25 83.5 C12.72128296 84.5504248 12.72128296 84.5504248 12.18188477 85.62207031 C10.03628901 89.68486781 8.02896028 92.55210141 4 95 C1.28125 95.56640625 1.28125 95.56640625 -1.5 95.5625 C-2.4178125 95.58441406 -3.335625 95.60632813 -4.28125 95.62890625 C-8.07905438 94.75039116 -9.43230089 92.90244516 -12 90 C-13.00222921 88.94248115 -14.00759375 87.88792729 -15.015625 86.8359375 C-20.90621921 80.55444672 -26.60121356 74.20966885 -31.98828125 67.48828125 C-34.88884018 63.90059962 -37.93111561 60.44386061 -41 57 C-38.71931803 52.36480103 -35.58883542 50.06376498 -31.375 47.3125 C-14.32510464 35.61744371 -6.24937811 19.15889158 0 0 Z " fill="#B5AFF6" transform="translate(312,287)"/>
<path d="M0 0 C0.33 0.66 0.66 1.32 1 2 C2.11761719 2.42539062 2.11761719 2.42539062 3.2578125 2.859375 C6.45726692 4.1902022 8.354759 5.88274487 10.875 8.25 C13.67719209 10.86297654 16.48962685 13.40503283 19.44921875 15.8359375 C34.92231438 29.05306417 44.28356271 49.13344036 47 69 C47.55117603 76.03396909 47.38624472 83.07754881 47.25 90.125 C47.22986411 91.97003226 47.21162612 93.81508624 47.1953125 95.66015625 C47.15197027 100.10732428 47.08335354 104.55340945 47 109 C42.31180058 106.38511606 38.49990647 103.90258634 34.5625 100.1875 C31.39695009 97.23327427 28.23298424 94.30849973 24.9375 91.5 C16.4154429 84.05624401 8.97718746 75.8920245 2 67 C1.19691406 65.99066406 0.39382812 64.98132813 -0.43359375 63.94140625 C-6.75032672 55.92900557 -12.4848458 47.58137754 -18 39 C-18.60714844 38.12214844 -19.21429688 37.24429688 -19.83984375 36.33984375 C-21.25277463 33.49019527 -21.12557801 32.53844593 -20.125 29.5625 C-15.9475205 17.6700158 -10.74132605 7.16088403 0 0 Z " fill="#7D6CD0" transform="translate(63,355)"/>
<path d="M0 0 C11.48848831 6.60588078 16.59586674 17.00033257 21 29 C21.48726562 30.23556641 21.48726562 30.23556641 21.984375 31.49609375 C22.01038815 35.66470154 19.61911065 38.46260454 17.3125 41.8125 C16.81572754 42.55443604 16.31895508 43.29637207 15.80712891 44.06079102 C7.93754341 55.68793743 -0.42662117 66.72023594 -10 77 C-11.17141454 78.35006164 -12.3382942 79.70407514 -13.5 81.0625 C-22.75919539 91.63836996 -33.37384695 101.07307747 -45 109 C-45.33 109 -45.66 109 -46 109 C-46.10042637 103.47230057 -46.17218673 97.94515574 -46.21972656 92.41674805 C-46.23958703 90.54425789 -46.26668486 88.67182755 -46.30175781 86.79956055 C-46.57995361 71.54379398 -45.79879682 56.39889909 -38.3125 42.6875 C-37.9721875 42.0370874 -37.631875 41.3866748 -37.28125 40.71655273 C-33.8237141 34.31146748 -29.64073073 28.6082329 -25 23 C-24.35289062 22.20078125 -23.70578125 21.4015625 -23.0390625 20.578125 C-17.98993362 14.6016051 -12.17608689 9.77591812 -6 5 C-5.27296875 4.41992188 -4.5459375 3.83984375 -3.796875 3.2421875 C-2 2 -2 2 0 2 C0 1.34 0 0.68 0 0 Z " fill="#B4AFF6" transform="translate(448,355)"/>
<path d="M0 0 C4.31434811 2.64143762 8.13873762 5.74273397 12 9 C12.92296875 9.69609375 13.8459375 10.3921875 14.796875 11.109375 C17 13 17 13 18 16 C16.28283102 18.33304408 14.55978467 20.42203912 12.625 22.5625 C11.79778442 23.50186401 11.79778442 23.50186401 10.95385742 24.46020508 C9.31373019 26.31714577 7.66010202 28.16091262 6 30 C5.17886719 30.91007812 4.35773438 31.82015625 3.51171875 32.7578125 C2.06244541 34.35896351 0.6094024 35.95671166 -0.84765625 37.55078125 C-3.21683592 40.24674433 -5.41195125 43.04991078 -7.625 45.875 C-11.88021159 51.10706017 -15.20007393 54.37960391 -22.0625 55.5 C-26.64668 54.71971404 -29.62372682 52.85019645 -32.41796875 49.09375 C-33.69005049 47.09423149 -34.87558417 45.08587284 -36 43 C-36.36867187 42.37351562 -36.73734375 41.74703125 -37.1171875 41.1015625 C-39.59967019 35.19193557 -38.58670825 27.71252907 -36.5 21.8125 C-32.40581373 12.87711803 -25.86243822 6.97873547 -17 3 C-16.3296875 2.68160156 -15.659375 2.36320312 -14.96875 2.03515625 C-10.09409351 -0.06365418 -5.22286991 -1.43628923 0 0 Z " fill="#9488E7" transform="translate(223,328)"/>
<path d="M0 0 C3.60605595 3.01731212 7.04002844 6.00213092 10.25 9.4375 C21.38533422 20.72263692 34.92149074 24.55783654 50 27 C48.26363022 37.73807628 45.19903548 46.713696 38 55 C37.34386719 55.76183594 36.68773437 56.52367187 36.01171875 57.30859375 C32.04982557 61.61370178 32.04982557 61.61370178 30 63 C23.48457459 62.88551169 19.24082897 57.38348682 15 53 C8.22967826 45.18622365 4.02333331 36.41677473 0 27 C-0.38929688 26.11054688 -0.77859375 25.22109375 -1.1796875 24.3046875 C-3.88675375 16.69912041 -1.32957008 7.68064145 0 0 Z " fill="#FB9460" transform="translate(203,271)"/>
<path d="M0 0 C3.48133993 1.36226345 4.69286083 2.55517776 6.8125 5.625 C9.50669992 13.28219977 7.84468697 19.60002208 4.6875 26.8125 C2.48107144 32.10825779 0.55154019 37.18809283 -0.6875 42.8125 C-2.00035755 48.63578841 -3.99185921 51.66123947 -9 55 C-11.04296875 55.1953125 -11.04296875 55.1953125 -13.1875 55.125 C-14.445625 55.08375 -15.70375 55.0425 -17 55 C-17.31185693 47.25663581 -16.3322833 40.05135255 -15 32.4375 C-13.2970635 22.17460569 -12.47936362 12.38380327 -13 2 C-8.65831349 -0.47111862 -4.89642517 -0.55183325 0 0 Z " fill="#FEAA7A" transform="translate(352,150)"/>
<path d="M0 0 C-0.06960937 1.38832031 -0.06960937 1.38832031 -0.140625 2.8046875 C-0.48409743 13.35438943 0.75903146 23.3455013 2.57714844 33.73583984 C3.69094208 40.23694016 4.2656666 46.40353533 4 53 C-3.15985998 53.48541424 -3.15985998 53.48541424 -6.8125 51.375 C-11.42241326 46.36995132 -12.54481093 40.93927055 -14.0390625 34.48828125 C-15.14810389 30.46237085 -16.64005716 26.68495421 -18.1875 22.8125 C-20.47332278 16.94589963 -22.01723295 12.30684432 -21 6 C-19.28416355 2.50477761 -18.03312564 0.61429092 -14.6875 -1.375 C-9.20479705 -2.6500472 -5.10809957 -2.20417995 0 0 Z " fill="#FB945F" transform="translate(173,152)"/>
</svg>
