<?xml version="1.0" encoding="UTF-8"?>
<svg version="1.1" xmlns="http://www.w3.org/2000/svg" width="512" height="512">
<path d="M0 0 C6.81692301 4.25781923 13.79432622 10.41269016 16.8137207 18.0612793 C17.82882243 20.16135848 17.82882243 20.16135848 19.95410156 20.75439453 C20.7581543 20.87927246 21.56220703 21.00415039 22.390625 21.1328125 C23.77278198 21.37354492 23.77278198 21.37354492 25.18286133 21.61914062 C26.19501709 21.78607422 27.20717285 21.95300781 28.25 22.125 C82.98344643 32.47042389 135.71124316 63.84968334 170 108 C171.00597354 109.25433701 172.01252341 110.50821195 173.01953125 111.76171875 C207.19097465 154.77759613 224.53120583 207.96666944 224.3125 262.625 C224.31034485 263.59555328 224.3081897 264.56610657 224.30596924 265.56607056 C224.2549334 279.89430898 223.90758438 293.92185782 221 308 C220.80132324 308.98307129 220.60264648 309.96614258 220.39794922 310.97900391 C212.29172978 349.95565002 195.83716816 387.47076689 170 418 C169.48969238 418.61037109 168.97938477 419.22074219 168.45361328 419.84960938 C157.93813788 432.39528449 146.94305755 443.91492724 134 454 C132.7445289 455.00748515 131.489339 456.01532077 130.234375 457.0234375 C87.18778579 491.21187871 34.00039893 508.52571843 -20.6875 508.3125 C-21.6586676 508.31067719 -22.62983521 508.30885437 -23.63043213 508.30697632 C-37.6325203 508.26271428 -51.24864275 507.8487177 -65 505 C-65.84900879 504.83902832 -66.69801758 504.67805664 -67.57275391 504.51220703 C-123.45128355 493.85649182 -176.81277827 463.10702361 -212 418 C-212.78890625 417.01644531 -213.5778125 416.03289062 -214.390625 415.01953125 C-231.73915881 393.21279176 -245.16098474 368.4196885 -254 342 C-254.41886475 340.74993164 -254.41886475 340.74993164 -254.84619141 339.47460938 C-258.88265558 327.20603903 -261.97606926 314.75970918 -264 302 C-264.17805176 300.88278564 -264.35610352 299.76557129 -264.53955078 298.61450195 C-266.19999482 286.97729697 -266.39874308 275.42965447 -266.375 263.6875 C-266.37445618 262.67420624 -266.37391235 261.66091248 -266.37335205 260.61691284 C-266.3334907 244.43272474 -265.51949935 228.85503863 -262 213 C-261.67056396 211.50919922 -261.67056396 211.50919922 -261.33447266 209.98828125 C-259.79510912 203.25125074 -257.99768061 196.61481232 -256 190 C-255.62367432 188.74727295 -255.62367432 188.74727295 -255.23974609 187.46923828 C-245.20185838 154.87676557 -227.42841831 123.79822503 -204 99 C-202.84870242 97.67138204 -201.70270122 96.33815282 -200.5625 95 C-193.08903675 86.46135348 -184.91424895 79.00147488 -176 72 C-175.01386719 71.20851563 -174.02773437 70.41703125 -173.01171875 69.6015625 C-150.16493622 51.56313146 -124.58491994 38.22692366 -97 29 C-96.21689453 28.73751465 -95.43378906 28.4750293 -94.62695312 28.20458984 C-85.39480218 25.17286269 -76.08876086 23.05837146 -66.50878906 21.43041992 C-65.7040918 21.28580322 -64.89939453 21.14118652 -64.0703125 20.9921875 C-63.35633301 20.87214355 -62.64235352 20.75209961 -61.90673828 20.62841797 C-58.01215896 19.34485239 -56.38585897 16.11319103 -54.375 12.75 C-43.04403449 -4.35753616 -17.94523065 -10.0755614 0 0 Z " fill="#FFDC3F" transform="translate(277,4)"/>
<path d="M0 0 C0.33 0 0.66 0 1 0 C1.10957031 1.00675781 1.21914063 2.01351562 1.33203125 3.05078125 C1.84964421 7.70536809 2.42164005 12.35263099 3 17 C3.08588379 17.72155273 3.17176758 18.44310547 3.26025391 19.18652344 C4.77135499 31.53145091 7.79554365 43.37510002 11.13134766 55.33081055 C14.55679262 67.65151991 16.31520382 78.82592511 16.20581055 91.59936523 C16.18738728 93.82612432 16.18530273 96.05246892 16.18554688 98.27929688 C16.16498756 104.28324375 16.14227236 110.08126305 15 116 C15.78761719 116.17015625 16.57523437 116.3403125 17.38671875 116.515625 C23.10471394 117.78779434 28.72707982 119.16668383 34.3125 120.9375 C39.15679908 122.46666429 44.01119519 123.8309238 48.9375 125.0625 C49.61329102 125.23144775 50.28908203 125.40039551 50.98535156 125.57446289 C55.32371896 126.63826716 59.67574034 127.52834548 64.0625 128.375 C84.17266091 132.67126165 101.33735264 143.32884359 112.6875 160.75 C114.16804978 163.1425788 115.58660768 165.56735967 117 168 C117.35384766 168.5789502 117.70769531 169.15790039 118.07226562 169.75439453 C120.27151235 173.39806178 122.06216722 176.83491913 123 181 C122.03604081 184.87511595 119.70046251 187.14428442 117 190 C116.1409866 191.02374185 115.28986949 192.05414355 114.4453125 193.08984375 C111.69253482 196.44879664 108.85999546 199.73216205 106 203 C105.20980469 203.90363281 104.41960937 204.80726563 103.60546875 205.73828125 C95.86377277 214.45616307 87.83185881 222.49109635 78.65185547 229.69873047 C77.48722976 230.61617874 76.32786739 231.54032782 75.17236328 232.46923828 C31.56557975 267.49226728 -21.96706013 285.52974413 -77.6875 285.3125 C-78.6586676 285.31067719 -79.62983521 285.30885437 -80.63043213 285.30697632 C-94.6325203 285.26271428 -108.24864275 284.8487177 -122 282 C-122.84900879 281.83902832 -123.69801758 281.67805664 -124.57275391 281.51220703 C-188.47548118 269.32632334 -240.17353454 232.98506633 -279 182 C-273.98027249 168.95333495 -267.92615888 157.94351231 -258 148 C-257.38640625 147.37480469 -256.7728125 146.74960937 -256.140625 146.10546875 C-243.12815243 133.78810689 -226.61753644 129.30704265 -209.57763672 125.73168945 C-202.08886178 124.11538997 -194.73944149 122.0418305 -187.375 119.9375 C-186.17713867 119.59678467 -184.97927734 119.25606934 -183.74511719 118.9050293 C-178.8823664 117.50057659 -174.07120145 116.08860402 -169.3515625 114.25390625 C-166 113 -166 113 -163 113 C-163.16822266 111.56333984 -163.16822266 111.56333984 -163.33984375 110.09765625 C-163.32770155 104.72405608 -160.37317218 100.83312818 -157.5625 96.4375 C-157.01770996 95.562146 -156.47291992 94.68679199 -155.91162109 93.78491211 C-154.80723853 92.01598976 -153.69596833 90.25134772 -152.57763672 88.49121094 C-151.16475216 86.26015646 -149.7814498 84.01456368 -148.41015625 81.7578125 C-147.64953498 80.52536367 -146.88789324 79.29354376 -146.125 78.0625 C-145.46757812 77.00160156 -144.81015625 75.94070313 -144.1328125 74.84765625 C-141.64921064 71.53163838 -139.35692225 69.42738079 -136 67 C-129.22979228 66.09730564 -121.60738225 67.27826249 -116.04296875 71.4765625 C-114.77120078 72.64926644 -113.51128183 73.83491375 -112.26171875 75.03125 C-100.55920868 85.21789089 -87.40786417 91.10850337 -71.95751953 90.20898438 C-54.84124692 88.3816547 -37.4668878 72.92117448 -27.0625 60.25 C-13.72693483 42.68346185 -5.73855602 21.11075011 0 0 Z " fill="#71A9FB" transform="translate(334,227)"/>
<path d="M0 0 C9.31773102 5.81981258 15.84189245 13.67583648 19.3828125 24.09375 C20.06407564 27.30172327 19.99852451 30.04493907 19.8125 33.3125 C19.56723569 37.49705279 19.56723569 37.49705279 21.54296875 41.01953125 C23.45026917 42.64265144 23.45026917 42.64265144 25.46875 43.9140625 C25.9740625 44.27242187 26.479375 44.63078125 27 45 C27 45.66 27 46.32 27 47 C28.27230469 47.33837891 28.27230469 47.33837891 29.5703125 47.68359375 C33.63309688 49.2429996 36.51478229 51.34956196 39.875 54.0625 C40.48996338 54.55492187 41.10492676 55.04734375 41.73852539 55.5546875 C58.79923242 69.48583584 69.10223952 89.26814673 72 111 C72.58207163 119.03041184 72.38370409 127.08131142 72.25 135.125 C72.22987619 137.25909756 72.21163597 139.39321374 72.1953125 141.52734375 C72.15184787 146.68536763 72.08315502 151.84246963 72 157 C66.06 157.99 66.06 157.99 60 159 C54.22562677 150.76617151 51.63375338 144.67105652 50.8125 134.73046875 C49.74919699 122.43602772 44.81108951 109.81108951 36 101 C27.71118781 95.55479491 20.84009551 93.6115648 11 93.625 C9.97430908 93.62443604 8.94861816 93.62387207 7.8918457 93.62329102 C-0.76971783 93.74848382 -8.17744919 95.08872459 -16 99 C-22.34983924 99.58794808 -27.11770684 98.17527824 -33.0703125 95.97265625 C-43.89314292 92.37947655 -59.47833252 91.60165359 -69.875 96.5625 C-81.03414289 103.39430481 -86.56216752 112.76508219 -89.78588867 125.35180664 C-91.10720362 130.89863412 -92.12419459 136.22560897 -92.375 141.9375 C-92.72570477 147.97331372 -95.64442855 152.12870167 -99 157 C-99.33 157.66 -99.66 158.32 -100 159 C-100.845625 158.855625 -101.69125 158.71125 -102.5625 158.5625 C-103.696875 158.376875 -104.83125 158.19125 -106 158 C-107.7015625 157.62875 -107.7015625 157.62875 -109.4375 157.25 C-113.85743529 156.9398291 -116.17958568 157.79591481 -120 160 C-124.37592479 165.83115037 -123.87335707 172.02002025 -123 179 C-121.82520317 183.22705389 -120.13289268 187.2392322 -118.453125 191.28515625 C-117.19838915 194.49282774 -116.41760088 197.30629266 -115.875 200.6875 C-115.14053789 204.81711713 -114.3571055 207.23038796 -111 210 C-108.44901283 210.69115416 -105.95425664 211.2474802 -103.33984375 211.640625 C-99.47359924 213.88679043 -99.12378974 217.92080054 -98 222 C-97.27651283 224.2960113 -96.54261062 226.58875543 -95.80078125 228.87890625 C-95.40028564 230.12236816 -94.99979004 231.36583008 -94.5871582 232.64697266 C-90.59645483 244.94263242 -86.41837175 256.72739752 -80 268 C-79.42765625 269.07765625 -78.8553125 270.1553125 -78.265625 271.265625 C-74.77132658 277.64512395 -70.7471343 282.87737361 -65.72265625 288.13671875 C-64 290 -64 290 -64 291 C-65.01320312 290.94199219 -66.02640625 290.88398438 -67.0703125 290.82421875 C-68.42182864 290.77729111 -69.77339499 290.73179417 -71.125 290.6875 C-71.79015625 290.64560547 -72.4553125 290.60371094 -73.140625 290.56054688 C-76.87898882 290.46892031 -78.93184382 290.95799875 -82.125 292.92578125 C-85.89000938 296.51515782 -88.32140235 301.01683095 -90.875 305.5 C-91.91958888 307.29614557 -92.96516362 309.09171814 -94.01171875 310.88671875 C-94.51751465 311.75989746 -95.02331055 312.63307617 -95.54443359 313.53271484 C-96.82673384 315.70630194 -98.14926282 317.83823639 -99.51953125 319.95703125 C-100.59267578 321.61798828 -100.59267578 321.61798828 -101.6875 323.3125 C-102.31011719 324.25738281 -102.93273437 325.20226562 -103.57421875 326.17578125 C-105.23580591 329.46708951 -105.65984557 332.34900912 -106 336 C-124.32613686 342.43645995 -142.88098693 348.10991981 -161.921875 352.04296875 C-176.49221856 355.06602311 -188.91608703 360.88618742 -200 371 C-200.62003906 371.52851563 -201.24007812 372.05703125 -201.87890625 372.6015625 C-210.99699211 380.88331386 -216.19663755 392.88312706 -221 404 C-246.23559382 380.01969301 -258.69244172 335.46107596 -264 302 C-264.17805176 300.88278564 -264.35610352 299.76557129 -264.53955078 298.61450195 C-266.19999482 286.97729697 -266.39874308 275.42965447 -266.375 263.6875 C-266.37445618 262.67420624 -266.37391235 261.66091248 -266.37335205 260.61691284 C-266.3334907 244.43272474 -265.51949935 228.85503863 -262 213 C-261.67056396 211.50919922 -261.67056396 211.50919922 -261.33447266 209.98828125 C-259.79510912 203.25125074 -257.99768061 196.61481232 -256 190 C-255.62367432 188.74727295 -255.62367432 188.74727295 -255.23974609 187.46923828 C-245.20185838 154.87676557 -227.42841831 123.79822503 -204 99 C-202.84870242 97.67138204 -201.70270122 96.33815282 -200.5625 95 C-193.08903675 86.46135348 -184.91424895 79.00147488 -176 72 C-175.01386719 71.20851563 -174.02773437 70.41703125 -173.01171875 69.6015625 C-150.16493622 51.56313146 -124.58491994 38.22692366 -97 29 C-96.21689453 28.73751465 -95.43378906 28.4750293 -94.62695312 28.20458984 C-85.39480218 25.17286269 -76.08876086 23.05837146 -66.50878906 21.43041992 C-65.7040918 21.28580322 -64.89939453 21.14118652 -64.0703125 20.9921875 C-63.35633301 20.87214355 -62.64235352 20.75209961 -61.90673828 20.62841797 C-58.01215896 19.34485239 -56.38585897 16.11319103 -54.375 12.75 C-43.04403449 -4.35753616 -17.94523065 -10.0755614 0 0 Z " fill="#FEC739" transform="translate(277,4)"/>
<path d="M0 0 C6.75693287 2.61415764 12.47131381 0.44374377 18.8671875 -2.10546875 C24.75367171 -4.3814541 30.31493663 -4.33150046 36.5703125 -4.390625 C37.57384766 -4.41962891 38.57738281 -4.44863281 39.61132812 -4.47851562 C49.79515243 -4.56465077 57.98184929 -1.1192105 65.3828125 5.921875 C73.93655175 16.39180987 77.39379538 28.45394484 78.50585938 41.69335938 C78.9741939 46.38092382 79.9840315 49.77472874 82.3828125 53.921875 C82.76824219 54.62054688 83.15367187 55.31921875 83.55078125 56.0390625 C83.88722656 56.61914062 84.22367188 57.19921875 84.5703125 57.796875 C85.1684375 58.828125 85.7665625 59.859375 86.3828125 60.921875 C87.0015625 60.756875 87.6203125 60.591875 88.2578125 60.421875 C93.67328218 59.55539985 99.08135074 59.02130301 104.2578125 61.046875 C107.55180643 63.95334023 110.07036854 66.54988444 110.66625977 71.07373047 C110.75843824 77.79388266 109.32943089 83.21508408 107.0078125 89.484375 C106.37057081 91.25492255 105.73770703 93.02705228 105.109375 94.80078125 C104.80612305 95.65365723 104.50287109 96.5065332 104.19042969 97.38525391 C103.40029879 99.86695283 102.86265236 102.29919298 102.375 104.85546875 C101.64943726 108.37013197 100.87837303 110.23866987 97.8828125 112.421875 C97.274375 112.8859375 96.6659375 113.35 96.0390625 113.828125 C92.69078942 116.03924873 90.37092784 116.00857316 86.3828125 115.921875 C86.17527344 116.91703125 85.96773437 117.9121875 85.75390625 118.9375 C78.44213467 152.65516557 64.06696212 187.20944361 34.3828125 206.921875 C30.79783626 209.1189603 27.16027766 211.0779788 23.3828125 212.921875 C22.59648437 213.33566406 21.81015625 213.74945313 21 214.17578125 C13.04611523 217.94272008 4.15295311 218.30115896 -4.37890625 216.26171875 C-6.92073766 215.31620658 -9.22982008 214.20854838 -11.6171875 212.921875 C-13.06544922 212.15810547 -13.06544922 212.15810547 -14.54296875 211.37890625 C-20.65459849 207.98528211 -25.98695644 204.12494321 -31.34765625 199.65625 C-34.30893146 197.3932445 -37.11204842 196.14105381 -40.6171875 194.921875 C-39.9571875 194.261875 -39.2971875 193.601875 -38.6171875 192.921875 C-39.15085938 192.39722656 -39.68453125 191.87257813 -40.234375 191.33203125 C-58.43519077 172.40696156 -68.91900979 143.96484929 -74.08325195 118.63598633 C-74.25945068 118.07032959 -74.43564941 117.50467285 -74.6171875 116.921875 C-76.77362676 115.99608891 -76.77362676 115.99608891 -79.3671875 115.546875 C-83.3480693 114.45653362 -86.1764844 113.49172606 -88.67578125 109.96484375 C-90.37053798 106.28701068 -91.01696816 102.37031985 -91.79296875 98.4140625 C-92.62911069 94.87135684 -93.85088535 91.8154959 -95.3046875 88.484375 C-98.15722715 81.36166993 -99.59032155 73.18037303 -96.8125 65.77734375 C-95.13112043 63.09886699 -93.24670065 61.67488376 -90.6171875 59.921875 C-89.2971875 59.921875 -87.9771875 59.921875 -86.6171875 59.921875 C-86.6171875 45.401875 -86.6171875 30.881875 -86.6171875 15.921875 C-86.2871875 15.921875 -85.9571875 15.921875 -85.6171875 15.921875 C-85.6171875 30.441875 -85.6171875 44.961875 -85.6171875 59.921875 C-83.6371875 59.921875 -81.6571875 59.921875 -79.6171875 59.921875 C-76.2421875 60.921875 -76.2421875 60.921875 -73.6171875 61.921875 C-73.2459375 60.6225 -73.2459375 60.6225 -72.8671875 59.296875 C-71.6171875 55.921875 -71.6171875 55.921875 -69.59765625 53.203125 C-67.32080949 49.43083452 -66.94256779 46.32806826 -66.6796875 42.046875 C-65.55789943 29.77698251 -62.7025718 17.56444443 -54.6171875 7.921875 C-54.10542969 7.28894531 -53.59367187 6.65601562 -53.06640625 6.00390625 C-40.19679311 -8.40146024 -16.64638481 -6.85731673 0 0 Z " fill="#FEC6AA" transform="translate(250.6171875,101.078125)"/>
<path d="M0 0 C0.33 0 0.66 0 1 0 C1.10957031 1.00675781 1.21914063 2.01351562 1.33203125 3.05078125 C1.84964421 7.70536809 2.42164005 12.35263099 3 17 C3.08588379 17.72155273 3.17176758 18.44310547 3.26025391 19.18652344 C4.77135499 31.53145091 7.79554365 43.37510002 11.13134766 55.33081055 C14.64567556 67.97121589 16.44500898 79.62523527 16.4375 92.75 C16.43790283 93.47609467 16.43830566 94.20218933 16.4387207 94.95028687 C16.39666752 108.18489526 14.63850626 120.24974948 11 133 C10.67338379 134.17594727 10.34676758 135.35189453 10.01025391 136.56347656 C8.30695231 142.68967673 6.56563458 148.80271005 4.76953125 154.90234375 C4.45975342 155.97049316 4.14997559 157.03864258 3.83081055 158.13916016 C3.34893844 159.79845413 2.85959749 161.45568771 2.35083008 163.10693359 C0.18529671 170.65889486 0.26892742 178.64318088 -0.12304688 186.44140625 C-0.19458984 187.61058594 -0.26613281 188.77976562 -0.33984375 189.984375 C-0.42286743 191.57330566 -0.42286743 191.57330566 -0.50756836 193.19433594 C-1.05550472 196.31624208 -1.7728823 197.76602762 -4 200 C-7.3125 200.75 -7.3125 200.75 -11 200 C-16.00617479 195.06323067 -19.06654868 188.41658145 -22 182.125 C-22.42933838 181.21314941 -22.85867676 180.30129883 -23.30102539 179.36181641 C-27.25090639 170.78675938 -30.33349658 162.04722965 -33 153 C-33.32742188 151.90558594 -33.65484375 150.81117188 -33.9921875 149.68359375 C-35.3896188 144.79258421 -36.29754408 140.04377336 -37 135 C-38.13518066 135.21003662 -39.27036133 135.42007324 -40.43994141 135.63647461 C-52.47665959 137.75949685 -64.1700153 138.47308194 -76.375 138.5625 C-87.42240513 138.66527139 -98.11475115 138.8588486 -109 141 C-109.75361816 141.14042725 -110.50723633 141.28085449 -111.28369141 141.42553711 C-138.53304744 146.75977331 -168.70254887 158.84009919 -185.2578125 182.18359375 C-195.33874828 197.98176885 -195.62861181 214.84823055 -195.75 233 C-195.7782263 235.14325253 -195.80816274 237.28648325 -195.83984375 239.4296875 C-195.91290716 244.61975154 -195.96296191 249.80955902 -196 255 C-229.85560214 242.0044821 -257.71089932 209.95583366 -279 182 C-273.98027249 168.95333495 -267.92615888 157.94351231 -258 148 C-257.38640625 147.37480469 -256.7728125 146.74960937 -256.140625 146.10546875 C-243.12815243 133.78810689 -226.61753644 129.30704265 -209.57763672 125.73168945 C-202.08886178 124.11538997 -194.73944149 122.0418305 -187.375 119.9375 C-186.17713867 119.59678467 -184.97927734 119.25606934 -183.74511719 118.9050293 C-178.8823664 117.50057659 -174.07120145 116.08860402 -169.3515625 114.25390625 C-166 113 -166 113 -163 113 C-163.16822266 111.56333984 -163.16822266 111.56333984 -163.33984375 110.09765625 C-163.32770155 104.72405608 -160.37317218 100.83312818 -157.5625 96.4375 C-157.01770996 95.562146 -156.47291992 94.68679199 -155.91162109 93.78491211 C-154.80723853 92.01598976 -153.69596833 90.25134772 -152.57763672 88.49121094 C-151.16475216 86.26015646 -149.7814498 84.01456368 -148.41015625 81.7578125 C-147.64953498 80.52536367 -146.88789324 79.29354376 -146.125 78.0625 C-145.46757812 77.00160156 -144.81015625 75.94070313 -144.1328125 74.84765625 C-141.64921064 71.53163838 -139.35692225 69.42738079 -136 67 C-129.22979228 66.09730564 -121.60738225 67.27826249 -116.04296875 71.4765625 C-114.77120078 72.64926644 -113.51128183 73.83491375 -112.26171875 75.03125 C-100.55920868 85.21789089 -87.40786417 91.10850337 -71.95751953 90.20898438 C-54.84124692 88.3816547 -37.4668878 72.92117448 -27.0625 60.25 C-13.72693483 42.68346185 -5.73855602 21.11075011 0 0 Z " fill="#548BEC" transform="translate(334,227)"/>
<path d="M0 0 C11.8200696 8.01627061 21.99060155 19.96714388 25.55859375 34.08203125 C27.17167556 44.7455013 26.40297902 54.30374497 23.5 64.625 C17.12793655 88.30217621 21.26795354 114.2187357 24.29043579 138.16229248 C27.98826223 167.74936833 27.22983499 197.59982523 8.125 222.25 C-6.97521644 240.16698758 -26.32312334 252.35537521 -50 255 C-62.98632501 255.71965943 -75.31377484 254.79329728 -88 252 C-88.63402316 249.16844026 -89.25715007 246.33509863 -89.875 243.5 C-90.13603516 242.34177734 -90.13603516 242.34177734 -90.40234375 241.16015625 C-93.74566344 225.68182434 -94.40690462 210.46594572 -94.375 194.6875 C-94.37445618 193.67420624 -94.37391235 192.66091248 -94.37335205 191.61691284 C-94.3334907 175.43272474 -93.51949935 159.85503863 -90 144 C-89.67056396 142.50919922 -89.67056396 142.50919922 -89.33447266 140.98828125 C-87.79510912 134.25125074 -85.99768061 127.61481232 -84 121 C-83.74911621 120.16484863 -83.49823242 119.32969727 -83.23974609 118.46923828 C-73.20185838 85.87676557 -55.42841831 54.79822503 -32 30 C-30.84870242 28.67138204 -29.70270122 27.33815282 -28.5625 26 C-19.99038177 16.2061086 -10.44334601 7.74750553 0 0 Z " fill="#FFDC3F" transform="translate(105,73)"/>
<path d="M0 0 C7.56673914 0.47332096 14.62443581 1.64432553 21.9375 3.625 C22.93620117 3.89368896 23.93490234 4.16237793 24.96386719 4.43920898 C56.30902679 13.05092624 85.15051692 27.24983315 111 47 C109.62716373 50.20788374 108.19549906 51.83696334 105.4375 53.9375 C97.20530877 60.92511587 91.17914817 70.72453894 88 81 C87.81179688 81.598125 87.62359375 82.19625 87.4296875 82.8125 C85.51283779 92.57100761 86.81328301 102.07284149 89.5 111.5 C95.89010293 135.22990192 91.8503498 161.26308216 88.70942688 185.24414062 C85.171939 212.73635322 85.16240023 243.43657322 102.10546875 266.91796875 C104.32742103 269.69062866 106.62445333 272.35822828 109 275 C109.60328125 275.69738281 110.2065625 276.39476562 110.828125 277.11328125 C124.34849993 291.77994883 144.71604873 300.98211132 164.51220703 302.14794922 C173.98011323 302.49477793 183.32501702 302.43035349 192.625 300.4375 C195.13195919 299.97569173 197.45661228 299.92733178 200 300 C192.83853102 326.31244978 183.24144496 350.73841457 168.875 374.0625 C168.31868896 374.96701904 167.76237793 375.87153809 167.18920898 376.8034668 C164.24822471 381.4462848 164.24822471 381.4462848 163 383 C162.34 383 161.68 383 161 383 C160.52691406 381.91203125 160.05382812 380.8240625 159.56640625 379.703125 C155.319647 370.174289 150.8040965 361.98795944 144 354 C143.46117187 353.34902344 142.92234375 352.69804687 142.3671875 352.02734375 C129.80348405 338.16938944 111.39120268 332.65249134 93.71484375 328.9921875 C88.71974901 327.95770663 83.76500031 326.783462 78.8125 325.5625 C78.05420898 325.38130615 77.29591797 325.2001123 76.51464844 325.01342773 C68.86754066 323.11783172 61.44936198 320.54629809 54 318 C54.01571045 316.90236328 54.0314209 315.80472656 54.04760742 314.67382812 C54.10275024 310.52139912 54.13664998 306.36900091 54.16479492 302.21630859 C54.17969266 300.43402631 54.20001783 298.6517794 54.22631836 296.86962891 C54.45882331 280.6854605 52.27705034 266.53997808 47.5625 251 C34.92389199 207.40765454 34.92389199 207.40765454 42 192 C45.75 190.9375 45.75 190.9375 47.734375 190.71484375 C51.17779124 189.62838656 53.68501453 187.71055164 56 185 C56.96198078 182.3830614 57.57438775 180.25492719 58.0625 177.5625 C59.23446182 172.01546939 60.68367075 166.9094779 62.75 161.625 C65.3848126 154.46287784 66.66835267 148.67037588 63.4375 141.5625 C61.19412975 139.20408512 60.21812264 138.48870019 57.34765625 137.33984375 C56.24292969 136.89769531 55.13820313 136.45554688 54 136 C53.9906543 134.70078613 53.98130859 133.40157227 53.97167969 132.06298828 C53.93122508 127.15348402 53.86532501 122.24457068 53.79248047 117.33544922 C53.76458761 115.22745465 53.743219 113.11936164 53.72900391 111.01123047 C53.61258748 94.70516924 52.94979163 78.11824211 45.4375 63.25 C44.93041504 62.21734009 44.93041504 62.21734009 44.41308594 61.16381836 C36.9225897 46.57414554 25.55034543 34.57820571 10.90234375 27.08203125 C8.1151053 25.49668207 6.12437561 23.37430215 4 21 C3.46375 20.57589844 2.9275 20.15179688 2.375 19.71484375 C0.36997762 17.21426186 0.74012892 15.34110319 0.875 12.1875 C0.98745903 7.97028641 0.92088426 4.14397916 0 0 Z " fill="#FEC739" transform="translate(295,25)"/>
<path d="M0 0 C9.98349885 8.19758143 17.77220499 17.95693122 23.47070312 29.54907227 C23.77661377 30.15444824 24.08252441 30.75982422 24.39770508 31.38354492 C31.5373005 47.02303532 31.56287535 63.59888575 31.28320312 80.42407227 C31.26307932 82.55816982 31.24483909 84.69228601 31.22851562 86.82641602 C31.185051 91.9844399 31.11635815 97.1415419 31.03320312 102.29907227 C27.07320312 102.95907227 23.11320313 103.61907227 19.03320312 104.29907227 C13.2588299 96.06524377 10.6669565 89.97012878 9.84570312 80.02954102 C8.78240012 67.73509998 3.84429263 55.11016177 -4.96679688 46.29907227 C-13.25560906 40.85386718 -20.12670136 38.91063707 -29.96679688 38.92407227 C-30.99248779 38.9235083 -32.01817871 38.92294434 -33.07495117 38.92236328 C-41.73651471 39.04755609 -49.14424606 40.38779686 -56.96679688 44.29907227 C-63.31663612 44.88702034 -68.08450372 43.4743505 -74.03710938 41.27172852 C-84.85993979 37.67854882 -100.4451294 36.90072586 -110.84179688 41.86157227 C-122.00093976 48.69337707 -127.52896439 58.06415446 -130.75268555 70.65087891 C-132.0740005 76.19770639 -133.09099146 81.52468124 -133.34179688 87.23657227 C-133.69250165 93.27238598 -136.61122542 97.42777393 -139.96679688 102.29907227 C-140.46179688 103.28907227 -140.46179688 103.28907227 -140.96679688 104.29907227 C-142.96679688 103.96573893 -144.96679688 103.6324056 -146.96679688 103.29907227 C-148.02640625 103.1224707 -149.08601562 102.94586914 -150.17773438 102.76391602 C-151.55832031 102.53381836 -151.55832031 102.53381836 -152.96679688 102.29907227 C-153.06929312 95.31067623 -153.13871591 88.32247815 -153.18652344 81.33349609 C-153.20648032 78.96232867 -153.23365565 76.59120943 -153.26855469 74.22021484 C-153.50738032 57.56212689 -153.1560705 42.93694288 -145.15429688 27.92407227 C-144.81027832 27.25835205 -144.46625977 26.59263184 -144.11181641 25.90673828 C-141.27236574 20.55847578 -137.9432161 15.86813089 -133.96679688 11.29907227 C-133.53367188 10.72415039 -133.10054687 10.14922852 -132.65429688 9.55688477 C-123.8212461 -1.85247249 -110.98548654 -8.28700663 -97.96679688 -13.70092773 C-97.14695313 -14.04897461 -96.32710937 -14.39702148 -95.48242188 -14.75561523 C-65.19636218 -26.14223458 -25.34951792 -19.81824122 0 0 Z " fill="#57425E" transform="translate(317.966796875,58.700927734375)"/>
<path d="M0 0 C0 0.66 0 1.32 0 2 C-1.010625 2.639375 -2.02125 3.27875 -3.0625 3.9375 C-12.89953027 10.66179858 -16.89714607 23.53933439 -19.39453125 34.59375 C-19.97042737 37.83363008 -20.18978708 40.90387156 -20.3125 44.1875 C-20.58575531 48.55389218 -21.38598016 51.11628654 -23.8125 54.75 C-34.25835459 70.75858679 -33.11342996 94.49766761 -29.54931641 112.59619141 C-29.07281997 114.74276367 -28.54744623 116.87038893 -28 119 C-27.65340332 120.34843994 -27.65340332 120.34843994 -27.29980469 121.72412109 C-20.96242571 145.75434617 -12.70345666 171.06461594 4 190 C4.45375 190.59554687 4.9075 191.19109375 5.375 191.8046875 C11.71238642 199.99047829 21.01399665 206.05826617 30 211 C28.1232838 214.75343239 23.57281456 215.55182381 19.81640625 216.94140625 C9.77253951 219.72737133 0.14019458 218.92611441 -9 214 C-10.44826172 213.23623047 -10.44826172 213.23623047 -11.92578125 212.45703125 C-18.03741099 209.06340711 -23.36976894 205.20306821 -28.73046875 200.734375 C-31.69174396 198.4713695 -34.49486092 197.21917881 -38 196 C-37.34 195.34 -36.68 194.68 -36 194 C-36.53367188 193.47535156 -37.06734375 192.95070313 -37.6171875 192.41015625 C-55.81800327 173.48508656 -66.30182229 145.04297429 -71.46606445 119.71411133 C-71.64226318 119.14845459 -71.81846191 118.58279785 -72 118 C-74.15643926 117.07421391 -74.15643926 117.07421391 -76.75 116.625 C-80.7308818 115.53465862 -83.5592969 114.56985106 -86.05859375 111.04296875 C-87.75335048 107.36513568 -88.39978066 103.44844485 -89.17578125 99.4921875 C-90.01192319 95.94948184 -91.23369785 92.8936209 -92.6875 89.5625 C-95.54003965 82.43979493 -96.97313405 74.25849803 -94.1953125 66.85546875 C-92.51393293 64.17699199 -90.62951315 62.75300876 -88 61 C-86.68 61 -85.36 61 -84 61 C-84 46.48 -84 31.96 -84 17 C-83.67 17 -83.34 17 -83 17 C-83 31.52 -83 46.04 -83 61 C-81.02 61 -79.04 61 -77 61 C-73.625 62 -73.625 62 -71 63 C-70.62875 61.700625 -70.62875 61.700625 -70.25 60.375 C-69 57 -69 57 -66.98046875 54.28125 C-64.70362199 50.50895952 -64.32538029 47.40619326 -64.0625 43.125 C-62.94071193 30.85510751 -60.0853843 18.64256943 -52 9 C-51.48824219 8.36707031 -50.97648437 7.73414062 -50.44921875 7.08203125 C-37.81715942 -7.05743373 -16.67591434 -5.19768759 0 0 Z " fill="#FEA97B" transform="translate(248,100)"/>
<path d="M0 0 C0.33 0 0.66 0 1 0 C1.10957031 1.00675781 1.21914063 2.01351562 1.33203125 3.05078125 C1.84964421 7.70536809 2.42164005 12.35263099 3 17 C3.08588379 17.72155273 3.17176758 18.44310547 3.26025391 19.18652344 C4.77135499 31.53145091 7.79554365 43.37510002 11.13134766 55.33081055 C14.64567556 67.97121589 16.44500898 79.62523527 16.4375 92.75 C16.43810425 93.839142 16.43810425 93.839142 16.4387207 94.95028687 C16.39666752 108.18489526 14.63850626 120.24974948 11 133 C10.67338379 134.17594727 10.34676758 135.35189453 10.01025391 136.56347656 C8.30695231 142.68967673 6.56563458 148.80271005 4.76953125 154.90234375 C4.3048645 156.50456787 4.3048645 156.50456787 3.83081055 158.13916016 C3.34893844 159.79845413 2.85959749 161.45568771 2.35083008 163.10693359 C0.18529671 170.65889486 0.26892742 178.64318088 -0.12304688 186.44140625 C-0.19458984 187.61058594 -0.26613281 188.77976562 -0.33984375 189.984375 C-0.39519287 191.04366211 -0.45054199 192.10294922 -0.50756836 193.19433594 C-1.05550472 196.31624208 -1.7728823 197.76602762 -4 200 C-7.3125 200.75 -7.3125 200.75 -11 200 C-16.00617479 195.06323067 -19.06654868 188.41658145 -22 182.125 C-22.42933838 181.21314941 -22.85867676 180.30129883 -23.30102539 179.36181641 C-27.25259869 170.78308544 -30.31429297 162.0442362 -33 153 C-33.45632813 151.53240234 -33.45632813 151.53240234 -33.921875 150.03515625 C-38.38647812 134.88739565 -39.44241013 120.16436157 -39.28125 104.44873047 C-39.24969098 101.34460541 -39.240222 98.24098955 -39.234375 95.13671875 C-39.22521702 93.14061883 -39.21484513 91.14452402 -39.203125 89.1484375 C-39.19887512 88.23170258 -39.19462524 87.31496765 -39.19024658 86.37045288 C-39.04568041 73.34631353 -39.04568041 73.34631353 -35.8125 69.18359375 C-34.884375 68.27738281 -33.95625 67.37117188 -33 66.4375 C-15.26941333 48.19661839 -7.46042136 23.7672659 0 0 Z " fill="#46314D" transform="translate(334,227)"/>
<path d="M0 0 C4.57153173 1.48453382 7.30646772 3.6831192 10.73828125 6.96875 C22.44079132 17.15539089 35.59213583 23.04600337 51.04248047 22.14648438 C63.77979469 20.78665138 75.09617938 11.40198904 85 3.9375 C84.99777939 4.58150253 84.99555878 5.22550507 84.99327087 5.88902283 C84.97106247 12.62172895 84.95602873 19.35442458 84.94506836 26.0871582 C84.94005497 28.59627709 84.93324258 31.10539308 84.92456055 33.61450195 C84.91236348 37.23128985 84.9067416 40.84803896 84.90234375 44.46484375 C84.89718246 45.57770248 84.89202118 46.69056122 84.88670349 47.83714294 C84.88626754 53.95776461 85.1943689 59.86878409 86 65.9375 C74.24531116 71.10430687 60.29521895 70.34325669 47.6875 70.3125 C46.80871185 70.31162384 45.92992371 70.31074768 45.02450562 70.30984497 C19.20805531 70.22519511 -4.68264075 66.14458842 -28.0625 54.8125 C-28.71162354 54.50022461 -29.36074707 54.18794922 -30.02954102 53.86621094 C-34.03534692 51.80279326 -36.83492173 49.92210789 -39 45.9375 C-40.46071791 38.89841884 -38.51184563 34.04570389 -34.73266602 28.1484375 C-34.14026123 27.27445312 -33.54785645 26.40046875 -32.9375 25.5 C-32.3405835 24.58347656 -31.74366699 23.66695313 -31.12866211 22.72265625 C-29.95461036 20.92168677 -28.77235706 19.1260311 -27.58105469 17.33642578 C-26.27137438 15.34925489 -25.01087163 13.35028549 -23.7890625 11.30859375 C-17.48776539 0.83019245 -12.3584404 -3.01379145 0 0 Z " fill="#3E7FDC" transform="translate(211,295.0625)"/>
<path d="M0 0 C-0.52787109 0.65742187 -0.52787109 0.65742187 -1.06640625 1.328125 C-8.84445464 11.3197694 -15.40399262 21.27580056 -15.375 34.25 C-15.37338867 35.00071777 -15.37177734 35.75143555 -15.37011719 36.52490234 C-15.23466987 42.68244379 -13.99502257 47.57658075 -11 53 C-10.6184375 53.7115625 -10.236875 54.423125 -9.84375 55.15625 C-8.93449137 56.79291554 -7.97348529 58.40070274 -7 60 C-7.69480469 59.855625 -8.38960938 59.71125 -9.10546875 59.5625 C-22.51501505 57.11513033 -38.52275481 54.83690671 -50.625 62.24609375 C-63.19062677 71.52564378 -67.57248534 85.0459112 -70 100 C-70.15785399 101.9768176 -70.28800675 103.95629888 -70.375 105.9375 C-70.72570477 111.97331372 -73.64442855 116.12870167 -77 121 C-77.495 121.99 -77.495 121.99 -78 123 C-80 122.66666667 -82 122.33333333 -84 122 C-85.05960938 121.82339844 -86.11921875 121.64679688 -87.2109375 121.46484375 C-88.59152344 121.23474609 -88.59152344 121.23474609 -90 121 C-90.10249624 114.01160396 -90.17191904 107.02340588 -90.21972656 100.03442383 C-90.23968345 97.6632564 -90.26685877 95.29213716 -90.30175781 92.92114258 C-90.54058345 76.26305463 -90.18927363 61.63787061 -82.1875 46.625 C-81.84348145 45.95927979 -81.49946289 45.29355957 -81.14501953 44.60766602 C-78.30556886 39.25940351 -74.97641922 34.56905863 -71 30 C-70.566875 29.42507812 -70.13375 28.85015625 -69.6875 28.2578125 C-59.44542078 15.02846018 -42.01397381 6.00349345 -26 2 C-25.19046875 1.79761719 -24.3809375 1.59523437 -23.546875 1.38671875 C-15.68385706 -0.30314037 -8.00309968 -0.19440728 0 0 Z " fill="#46314C" transform="translate(255,40)"/>
<path d="M0 0 C0.33 0 0.66 0 1 0 C0.99777939 0.64400253 0.99555878 1.28800507 0.99327087 1.95152283 C0.97106247 8.68422895 0.95602873 15.41692458 0.94506836 22.1496582 C0.94005497 24.65877709 0.93324258 27.16789308 0.92456055 29.67700195 C0.91236348 33.29378985 0.9067416 36.91053896 0.90234375 40.52734375 C0.89718246 41.64020248 0.89202118 42.75306122 0.88670349 43.89964294 C0.88626754 50.02026461 1.1943689 55.93128409 2 62 C-10.0338217 67.27847809 -24.01113665 66.25385745 -36.875 66.125 C-38.64192196 66.11494039 -40.40884952 66.10581986 -42.17578125 66.09765625 C-46.45066254 66.07590126 -50.72526707 66.04153949 -55 66 C-59.69947052 55.96717688 -61.13082822 47.4132072 -59.4375 36.3125 C-56.49018975 29.52087204 -51.12263224 21.82810398 -44 19 C-40.8161362 18.61932063 -37.65575446 18.48973851 -34.453125 18.33984375 C-22.15609602 17.12961579 -8.47987991 8.94773536 0 0 Z " fill="#548AEB" transform="translate(295,299)"/>
<path d="M0 0 C2.30118275 3.45177413 3.10993611 6.78038012 4.0625 10.75 C4.23587891 11.4409375 4.40925781 12.131875 4.58789062 12.84375 C10.06952855 35.1903506 8.2455815 60.0664862 2 82 C1.59143639 83.50493409 1.18382796 85.01012793 0.77734375 86.515625 C-0.09599223 89.69385163 -1.0233279 92.85173296 -2 96 C-7.86411876 95.15296062 -11.5727315 93.79558536 -15.5703125 89.19140625 C-26.89867273 73.67895317 -27.3934424 51.4604389 -26 33 C-23.91739727 21.47709628 -16.00983449 12.98451455 -7 6 C-2.5483871 3 -2.5483871 3 0 3 C0 2.01 0 1.02 0 0 Z " fill="#56415D" transform="translate(343,278)"/>
<path d="M0 0 C8.88046445 6.38561825 15.21400295 14.71066684 17.5859375 25.4921875 C17.87102644 29.52082144 17.83906345 33.4632662 17.5859375 37.4921875 C14.08875499 36.16498351 10.76821077 34.6019321 7.42480469 32.92797852 C-7.50251333 25.58123866 -26.17679581 23.56948972 -42.35546875 28.296875 C-48.94322701 30.87140122 -55.17714332 34.17277705 -61.4140625 37.4921875 C-62.4040625 37.9871875 -62.4040625 37.9871875 -63.4140625 38.4921875 C-64.39926865 26.34131168 -61.30686467 15.79868315 -53.35546875 6.421875 C-50.04201604 3.12842301 -46.50129984 0.72962691 -42.4140625 -1.5078125 C-41.71152344 -1.92160156 -41.00898438 -2.33539063 -40.28515625 -2.76171875 C-28.1455712 -8.82095512 -11.23324355 -7.01623303 0 0 Z " fill="#57425E" transform="translate(279.4140625,5.5078125)"/>
<path d="M0 0 C13.59108681 7.44319833 22.70359607 19.5303366 28.37109375 33.7109375 C29.10474903 36.38126043 29.41936207 38.24793639 29 41 C27.19140625 43 27.19140625 43 24.5625 45 C23.56476563 45.76957031 22.56703125 46.53914063 21.5390625 47.33203125 C20.97864258 47.75307129 20.41822266 48.17411133 19.84082031 48.60791016 C17.82029349 50.13590007 15.82779429 51.69655831 13.8359375 53.26171875 C-6.29745616 69 -6.29745616 69 -12 69 C-12.09277517 60.8722326 -12.16380244 52.74468728 -12.20724869 44.61652088 C-12.22810327 40.84205707 -12.2563809 37.06795615 -12.30175781 33.29370117 C-12.3452932 29.6497155 -12.36915313 26.00607836 -12.37950897 22.36185265 C-12.38688669 20.97317711 -12.40129401 19.58452015 -12.42292023 18.19599342 C-12.45205017 16.24779569 -12.45363471 14.29924553 -12.45410156 12.35083008 C-12.46298401 11.2427449 -12.47186646 10.13465973 -12.48101807 8.99299622 C-11.88850376 5.30624678 -10.5711494 3.65571043 -8 1 C-5.15630359 -0.42184821 -3.15840217 -0.28014989 0 0 Z " fill="#548BED" transform="translate(393,408)"/>
<path d="M0 0 C0.33 0 0.66 0 1 0 C1 14.52 1 29.04 1 44 C2.98 44 4.96 44 7 44 C10.375 45 10.375 45 13 46 C12.67475342 47.143479 12.34950684 48.28695801 12.0144043 49.46508789 C10.91368868 53.88669912 10.72545037 58.02011701 10.76953125 62.55859375 C10.76998947 63.34718277 10.77044769 64.13577179 10.7709198 64.94825745 C10.77392059 66.60459918 10.78174095 68.26093865 10.79418945 69.91723633 C10.81242626 72.42734999 10.81469876 74.9370926 10.81445312 77.44726562 C10.81937076 79.06771146 10.82520015 80.68815485 10.83203125 82.30859375 C10.83314407 83.04637558 10.8342569 83.78415741 10.83540344 84.54429626 C10.88195801 89.75638733 11.35999224 94.82663052 12 100 C5.4972508 99.6636509 2.57436573 98.6832792 -2 94 C-3.77063534 91.04272835 -4.34787173 88.45786041 -4.8125 85.0625 C-5.54256016 80.58717186 -6.82157894 76.84298852 -8.625 72.6875 C-11.50905701 65.51586861 -12.99698603 57.32206471 -10.1953125 49.85546875 C-8.51393293 47.17699199 -6.62951315 45.75300876 -4 44 C-2.68 44 -1.36 44 0 44 C0 29.48 0 14.96 0 0 Z " fill="#F8935E" transform="translate(164,117)"/>
<path d="M0 0 C-0.3609375 0.59425781 -0.721875 1.18851562 -1.09375 1.80078125 C-4.69983975 8.24165823 -6.26299349 13.62502017 -5 21 C-3.92302737 23.68281574 -2.68053191 25.60651516 -1 28 C-0.505 28.99 -0.505 28.99 0 30 C-1.23234375 30.23074219 -2.4646875 30.46148438 -3.734375 30.69921875 C-16.96626639 33.26873905 -28.34799637 37.08530088 -40 44 C-40.98520615 31.84912418 -37.89280217 21.30649565 -29.94140625 11.9296875 C-21.73486216 3.77267989 -11.53434674 -0.7441514 0 0 Z " fill="#46314C" transform="translate(256,0)"/>
<path d="M0 0 C3.29399393 2.90646523 5.81255604 5.50300944 6.40844727 10.02685547 C6.50062574 16.74700766 5.07161839 22.16820908 2.75 28.4375 C2.11275831 30.20804755 1.47989453 31.98017728 0.8515625 33.75390625 C0.54831055 34.60678223 0.24505859 35.4596582 -0.06738281 36.33837891 C-0.85751371 38.82007783 -1.39516014 41.25231798 -1.8828125 43.80859375 C-2.60837524 47.32325697 -3.37943947 49.19179487 -6.375 51.375 C-6.9834375 51.8390625 -7.591875 52.303125 -8.21875 52.78125 C-11.56702308 54.99237373 -13.88688466 54.96169816 -17.875 54.875 C-17.730625 53.80765625 -17.58625 52.7403125 -17.4375 51.640625 C-15.46634418 36.20107352 -14.80103422 20.92503626 -17.4375 5.52734375 C-17.875 2.875 -17.875 2.875 -17.875 -0.125 C-12.11248232 -1.66167138 -5.60194203 -2.19206427 0 0 Z " fill="#FEAA7A" transform="translate(354.875,162.125)"/>
<path d="M0 0 C2.3019294 1.83501322 4.52963676 3.69819867 6.69140625 5.6953125 C6.03140625 6.0253125 5.37140625 6.3553125 4.69140625 6.6953125 C2.23039618 5.84296267 -0.15071936 4.9291661 -2.55859375 3.9453125 C-29.42680913 -6.60299491 -57.92225673 -5.69782499 -84.30859375 5.6953125 C-85.29859375 6.0253125 -86.28859375 6.3553125 -87.30859375 6.6953125 C-87.30859375 6.0353125 -87.30859375 5.3753125 -87.30859375 4.6953125 C-85.40296291 3.15323603 -83.5180777 1.75788572 -81.49609375 0.3828125 C-80.90513916 -0.02018066 -80.31418457 -0.42317383 -79.70532227 -0.83837891 C-55.82181034 -16.76072019 -23.49655552 -17.15066409 0 0 Z " fill="#CED5F3" transform="translate(297.30859375,43.3046875)"/>
</svg>
