<?xml version="1.0" encoding="UTF-8"?>
<svg version="1.1" xmlns="http://www.w3.org/2000/svg" width="512" height="512">
<path d="M0 0 C1.05356689 0.00081573 1.05356689 0.00081573 2.12841797 0.00164795 C13.60780619 0.04240356 24.43811298 0.9085424 35.4375 4.375 C36.13713867 4.59462402 36.83677734 4.81424805 37.55761719 5.04052734 C55.31336297 10.81339177 71.16021961 20.08116148 83.4375 34.375 C83.4375 35.035 83.4375 35.695 83.4375 36.375 C84.23800781 36.45878906 85.03851563 36.54257812 85.86328125 36.62890625 C90.44956691 37.58626205 94.38333805 39.35851761 98.625 41.3125 C99.49705078 41.71073975 100.36910156 42.10897949 101.26757812 42.51928711 C114.89158486 48.81757028 128.25253557 55.55630979 140.4375 64.375 C141.04126465 64.81038086 141.6450293 65.24576172 142.26708984 65.69433594 C160.9440219 79.22942174 178.24277048 94.09781934 192.4375 112.375 C193.44347354 113.62933701 194.45002341 114.88321195 195.45703125 116.13671875 C229.62847465 159.15259613 246.96870583 212.34166944 246.75 267 C246.74784485 267.97055328 246.7456897 268.94110657 246.74346924 269.94107056 C246.6924334 284.26930898 246.34508438 298.29685782 243.4375 312.375 C243.23882324 313.35807129 243.04014648 314.34114258 242.83544922 315.35400391 C231.32606525 370.69388083 201.41549751 423.37950888 156.4375 458.375 C155.49946533 459.11967529 155.49946533 459.11967529 154.54248047 459.87939453 C144.91500167 467.52211034 135.21143818 474.45125107 124.4375 480.375 C123.59445312 480.84292969 122.75140625 481.31085938 121.8828125 481.79296875 C99.28856424 494.24220752 75.56193859 503.44267856 50.25 508.625 C49.51579834 508.77614258 48.78159668 508.92728516 48.02514648 509.08300781 C32.76674356 512.0095031 17.62711092 512.78315745 2.125 512.75 C0.68225204 512.74918427 0.68225204 512.74918427 -0.78964233 512.74835205 C-60.93246527 512.5926723 -119.36484071 490.53556878 -163.5625 449.375 C-164.91256164 448.20358546 -166.26657514 447.0367058 -167.625 445.875 C-175.24431415 439.20427516 -182.00843497 431.99072859 -188.26123047 424.02685547 C-189.17867874 422.86222976 -190.10282782 421.70286739 -191.03173828 420.54736328 C-217.44123053 387.66519847 -235.01244961 348.07472496 -241.5625 306.375 C-241.74506348 305.2310376 -241.92762695 304.0870752 -242.11572266 302.90844727 C-243.77568722 291.3012596 -243.96118215 279.77451978 -243.9375 268.0625 C-243.93695618 267.04920624 -243.93641235 266.03591248 -243.93585205 264.99191284 C-243.8959907 248.80772474 -243.08199935 233.23003863 -239.5625 217.375 C-239.23306396 215.88419922 -239.23306396 215.88419922 -238.89697266 214.36328125 C-237.35752652 207.62588926 -235.55223724 200.99237442 -233.5625 194.375 C-233.32225098 193.56111816 -233.08200195 192.74723633 -232.83447266 191.90869141 C-224.10611752 162.99342962 -208.87433875 135.50602139 -189.5625 112.375 C-189.08844727 111.79943359 -188.61439453 111.22386719 -188.12597656 110.63085938 C-177.69221974 97.9876831 -166.52582173 86.4515316 -153.5625 76.375 C-152.58023438 75.58738281 -151.59796875 74.79976563 -150.5859375 73.98828125 C-128.4362321 56.3619109 -103.55286404 43.41365813 -76.82299805 34.22192383 C-72.37385028 32.55499505 -70.21403699 31.31316424 -67.75 27.1875 C-57.97615517 12.08027317 -42.01195788 5.47930724 -24.9465332 1.81298828 C-16.64175573 0.24741937 -8.43367035 -0.02466131 0 0 Z " fill="#DAA682" transform="translate(254.5625,-0.375)"/>
<path d="M0 0 C2.87935419 1.93690191 3.12718114 4.65052848 4.04296875 7.9140625 C9.16808445 24.75372838 18.55012375 37.77427671 32.73046875 48.1640625 C34.18952304 49.24642463 35.64791248 50.3296839 37.10546875 51.4140625 C37.75257813 51.89359375 38.3996875 52.373125 39.06640625 52.8671875 C41.12741433 54.47341915 42.88379244 56.31738619 44.73046875 58.1640625 C46.73828959 59.71201435 48.77424084 61.21301082 50.828125 62.69921875 C52.61880997 64.07808294 54.17365483 65.52965037 55.73046875 67.1640625 C58.62358547 65.84095223 60.81628008 64.36100511 63.16796875 62.2265625 C65.23116587 60.40142659 67.02065232 58.99535112 69.41796875 57.6015625 C71.85628348 56.27964373 71.85628348 56.27964373 73.41796875 53.9140625 C76.28276763 50.50727465 79.55904522 48.39977334 83.21484375 45.8984375 C97.69327704 35.91641207 107.23002047 20.03636523 110.9296875 2.921875 C111.73046875 1.1640625 111.73046875 1.1640625 113.4921875 0.22265625 C121.35421449 0.01684403 131.04162302 10.24589819 136.73046875 15.1640625 C137.31054688 15.83308594 137.890625 16.50210937 138.48828125 17.19140625 C141.68725167 20.00583145 145.19844627 21.0947731 149.16796875 22.5390625 C157.91053714 25.87765112 166.32863233 29.73649726 174.73046875 33.8515625 C177.20949796 35.06408338 179.68863183 36.27638968 182.16796875 37.48828125 C182.7888588 37.79197632 183.40974884 38.09567139 184.04945374 38.40856934 C190.90115179 41.7509421 197.81137832 44.96407638 204.73046875 48.1640625 C205.84421875 48.67928467 206.95796875 49.19450684 208.10546875 49.7253418 C210.24431294 50.71330401 212.38378265 51.69991334 214.52392578 52.68505859 C216.75617915 53.71467569 218.98615908 54.74923003 221.21435547 55.78759766 C222.35146973 56.31659668 223.48858398 56.8455957 224.66015625 57.390625 C225.67835449 57.86580566 226.69655273 58.34098633 227.74560547 58.83056641 C230.7485619 60.17214567 233.78178235 61.37001531 236.85546875 62.5390625 C253.12673212 69.28307298 264.05255671 82.36575315 272.73046875 97.1640625 C273.2203125 97.98777344 273.71015625 98.81148438 274.21484375 99.66015625 C275.65114358 102.26221998 276.78332979 104.33884293 276.58984375 107.359375 C275.36148746 111.36828326 273.41196926 114.835086 271.35546875 118.4765625 C270.691521 119.65992188 270.691521 119.65992188 270.01416016 120.8671875 C263.27895935 132.6709043 255.48305708 143.76936744 246.73046875 154.1640625 C246.29653809 154.68677734 245.86260742 155.20949219 245.41552734 155.74804688 C235.16982128 168.07804237 224.416804 179.29335777 211.73046875 189.1640625 C211.1051123 189.6605127 210.47975586 190.15696289 209.83544922 190.66845703 C200.20797042 198.31117284 190.50440693 205.24031357 179.73046875 211.1640625 C178.88742187 211.63199219 178.044375 212.09992188 177.17578125 212.58203125 C154.58153299 225.03127002 130.85490734 234.23174106 105.54296875 239.4140625 C104.80876709 239.56520508 104.07456543 239.71634766 103.31811523 239.87207031 C88.05971231 242.7985656 72.92007967 243.57221995 57.41796875 243.5390625 C55.97522079 243.53824677 55.97522079 243.53824677 54.50332642 243.53741455 C-5.63949652 243.3817348 -64.07187196 221.32463128 -108.26953125 180.1640625 C-109.61959289 178.99264796 -110.97360639 177.8257683 -112.33203125 176.6640625 C-119.9513454 169.99333766 -126.71546622 162.77979109 -132.96826172 154.81591797 C-133.88570999 153.65129226 -134.80985907 152.49192989 -135.73876953 151.33642578 C-144.66207827 140.22611341 -152.33100368 128.61219852 -159.26953125 116.1640625 C-159.6857373 115.44105957 -160.10194336 114.71805664 -160.53076172 113.97314453 C-163.28679399 108.93398069 -163.28679399 108.93398069 -163.2109375 105.55078125 C-159.46610529 96.05662158 -154.03537931 87.75501399 -147.26953125 80.1640625 C-146.59277344 79.39320313 -145.91601562 78.62234375 -145.21875 77.828125 C-136.47445979 68.46038449 -125.91951792 63.23335193 -114.24438477 58.50439453 C-107.1348311 55.60211382 -100.23528402 52.33733048 -93.33203125 48.9765625 C-83.96825418 44.42641828 -74.58450654 39.9292765 -65.14453125 35.5390625 C-63.99170654 35.00095947 -62.83888184 34.46285645 -61.65112305 33.90844727 C-55.90655737 31.24459914 -50.14197515 28.66409215 -44.30078125 26.21875 C-43.18074707 25.74518066 -42.06071289 25.27161133 -40.90673828 24.78369141 C-38.8162218 23.90599365 -36.71869165 23.0447108 -34.61279297 22.20458984 C-28.17085531 19.49489457 -23.60871053 16.12771594 -18.56005859 11.30859375 C-15.55491004 8.49499058 -12.36359139 6.23587052 -8.89453125 4.0390625 C-8.30542969 3.64203125 -7.71632812 3.245 -7.109375 2.8359375 C-4.74111571 1.31386524 -2.83836902 0.2051833 0 0 Z " fill="#D2DBFA" transform="translate(199.26953125,268.8359375)"/>
<path d="M0 0 C0.33 0.66 0.66 1.32 1 2 C0.71125 2.825 0.4225 3.65 0.125 4.5 C-1.09128852 8.28400874 -1.41041437 11.6871507 -1.65625 15.6328125 C-2.02605622 18.17943258 -2.62903636 19.82891765 -4 22 C-6 23.33333333 -8 24.66666667 -10 26 C-20.82003211 37.07765192 -21.35175444 51.3180237 -21.25 66 C-21.24822754 66.73145233 -21.24645508 67.46290466 -21.24462891 68.21652222 C-21.21409914 78.91617794 -20.80713894 89.43146426 -19 100 C-20.10472656 100.27714844 -21.20945313 100.55429688 -22.34765625 100.83984375 C-26.12158094 101.71567507 -26.12158094 101.71567507 -28.4375 104.5625 C-31.04985358 110.30967787 -30.66416858 115.70170887 -28.57421875 121.61328125 C-27.95878505 123.18502963 -27.3294732 124.75140358 -26.6875 126.3125 C-24.52606064 131.80137603 -22.60190121 137.08488725 -21.375 142.875 C-20.28765651 147.73406624 -18.95141092 149.98444956 -15 153 C-14.67 153.33 -14.34 153.66 -14 154 C-12.65252916 154.23075082 -11.29622435 154.41153063 -9.9375 154.5625 C-8.638125 154.706875 -7.33875 154.85125 -6 155 C-5.98582031 155.70640625 -5.97164062 156.4128125 -5.95703125 157.140625 C-4.92875352 179.26249191 2.98193885 200.19340989 16 218 C16.75152344 218.66515625 17.50304687 219.3303125 18.27734375 220.015625 C20 222 20 222 20.2421875 224.875 C20.12101563 225.90625 19.99984375 226.9375 19.875 228 C19.76929688 229.03125 19.66359375 230.0625 19.5546875 231.125 C18.65722354 235.7766442 18.65722354 235.7766442 17 238 C15.34107351 238.36993483 13.67240869 238.69678709 12 239 C8.9626706 240.75179248 8.9626706 240.75179248 5.875 243 C5.29862793 243.40226807 4.72225586 243.80453613 4.12841797 244.21899414 C0.55944224 246.74820893 -2.64746797 249.47892897 -5.875 252.4375 C-11.58132577 257.15914155 -17.76138174 259.74961963 -24.57006836 262.56835938 C-34.86095522 266.84734108 -44.88769895 271.62456972 -54.9375 276.4375 C-58.4121677 278.0975971 -61.88760225 279.75608389 -65.36328125 281.4140625 C-66.61891624 282.01325752 -66.61891624 282.01325752 -67.8999176 282.6245575 C-74.78456786 285.90616067 -81.69098835 289.13625337 -88.625 292.3125 C-89.56939941 292.74594727 -90.51379883 293.17939453 -91.48681641 293.62597656 C-95.35508915 295.38907164 -99.22701494 297.11617698 -103.16796875 298.7109375 C-124.63283103 307.40731257 -136.5312826 323.1146976 -147 343 C-161.42566772 326.0442921 -166.73499793 295.43265664 -170 274 C-170.17515137 272.89148682 -170.35030273 271.78297363 -170.53076172 270.64086914 C-172.19437174 258.99337293 -172.39876489 247.44043717 -172.375 235.6875 C-172.37445618 234.67420624 -172.37391235 233.66091248 -172.37335205 232.61691284 C-172.3334907 216.43272474 -171.51949935 200.85503863 -168 185 C-167.67056396 183.50919922 -167.67056396 183.50919922 -167.33447266 181.98828125 C-165.79502652 175.25088926 -163.98973724 168.61737442 -162 162 C-161.75975098 161.18611816 -161.51950195 160.37223633 -161.27197266 159.53369141 C-152.54361752 130.61842962 -137.31183875 103.13102139 -118 80 C-117.52594727 79.42443359 -117.05189453 78.84886719 -116.56347656 78.25585938 C-106.12971974 65.6126831 -94.96332173 54.0765316 -82 44 C-80.52660156 42.81857422 -80.52660156 42.81857422 -79.0234375 41.61328125 C-55.34721656 22.77213501 -28.63257613 9.54419204 0 0 Z " fill="#FFDC3F" transform="translate(183,32)"/>
<path d="M0 0 C5.59427856 0.58555251 10.13962379 2.61212346 15.1875 4.9375 C16.05955078 5.33573975 16.93160156 5.73397949 17.83007812 6.14428711 C31.45408486 12.44257028 44.81503557 19.18130979 57 28 C57.60376465 28.43538086 58.2075293 28.87076172 58.82958984 29.31933594 C77.5065219 42.85442174 94.80527048 57.72281934 109 76 C110.00597354 77.25433701 111.01252341 78.50821195 112.01953125 79.76171875 C146.19097465 122.77759613 163.53120583 175.96666944 163.3125 230.625 C163.30926727 232.08082993 163.30926727 232.08082993 163.30596924 233.56607056 C163.2549334 247.89430898 162.90758438 261.92185782 160 276 C159.80132324 276.98307129 159.60264648 277.96614258 159.39794922 278.97900391 C155.06386633 299.81831332 148.61387207 319.9825593 139 339 C136.00296898 336.41697326 134.5734985 333.44694832 132.8125 329.9375 C129.4846166 323.6452835 125.71881465 318.31323898 121 313 C120.39671875 312.30261719 119.7934375 311.60523438 119.171875 310.88671875 C111.92400293 303.04500842 102.87604273 297.9589446 92.984375 294.19921875 C85.88312852 291.43552652 79.05135386 288.25528875 72.22064209 284.87969971 C68.87095082 283.22569388 65.51121161 281.59229955 62.15234375 279.95703125 C61.47105408 279.62495667 60.7897644 279.29288208 60.08782959 278.95074463 C44.07577011 271.15915149 27.92444589 263.63836151 11.47998047 256.80126953 C5.60023766 254.34163537 0.69680843 251.83494831 -3.9375 247.375 C-7.83593426 243.84409489 -11.91744388 240.86606779 -16.3125 238 C-16.91118896 237.60216309 -17.50987793 237.20432617 -18.12670898 236.79443359 C-21.46115909 234.66897362 -22.92946846 234 -27 234 C-27.34087334 232.45998293 -27.67230953 230.91787594 -28 229.375 C-28.185625 228.51648438 -28.37125 227.65796875 -28.5625 226.7734375 C-29.75921285 219.18713282 -29.75921285 219.18713282 -27.49609375 215.6484375 C-26.81675781 214.89820313 -26.13742187 214.14796875 -25.4375 213.375 C-10.33955245 195.50776401 -4.96816991 173.8012333 -3 151 C-2.03646606 150.84180786 -2.03646606 150.84180786 -1.0534668 150.68041992 C-0.31394775 150.55900635 0.42557129 150.43759277 1.1875 150.3125 C2.35345703 150.12107422 2.35345703 150.12107422 3.54296875 149.92578125 C7.05100974 148.60399156 8.66033105 146.92943625 11 144 C12.14734667 141.23354408 12.82696603 138.41351651 13.5 135.5 C14.93942713 129.75973908 16.53978282 124.34232527 18.8125 118.875 C21.0365386 113.27267492 22.46559556 108.92904343 20.265625 103.03125 C18.17887713 98.85775427 16.28960262 97.46543638 12 96 C11.62752139 73.64268796 11.62752139 73.64268796 13 66.5 C17.45193068 42.61857187 12.76041274 20.40930567 0 0 Z " fill="#FFDC3F" transform="translate(338,36)"/>
<path d="M0 0 C5.11454481 0.58337777 9.37657827 2.29108704 14 4.4375 C14.83321777 4.81801514 15.66643555 5.19853027 16.52490234 5.59057617 C27.60306898 10.68322304 38.6013806 15.95125862 49.61474609 21.18212891 C59.26661016 25.76547995 68.92720225 30.32699815 78.625 34.8125 C79.61709473 35.27309814 80.60918945 35.73369629 81.63134766 36.20825195 C86.50022043 38.45217813 91.39083221 40.579157 96.359375 42.59375 C112.56061411 49.29377676 123.35121903 62.25136742 132 77 C132.48984375 77.82371094 132.9796875 78.64742188 133.484375 79.49609375 C134.92067483 82.09815748 136.05286104 84.17478043 135.859375 87.1953125 C134.63101871 91.20422076 132.68150051 94.6710235 130.625 98.3125 C129.96105225 99.49585938 129.96105225 99.49585938 129.28369141 100.703125 C122.5484906 112.5068418 114.75258833 123.60530494 106 134 C105.56606934 134.52271484 105.13213867 135.04542969 104.68505859 135.58398438 C94.43935253 147.91397987 83.68633525 159.12929527 71 169 C70.37464355 169.4964502 69.74928711 169.99290039 69.10498047 170.50439453 C59.47750167 178.14711034 49.77393818 185.07625107 39 191 C38.15695312 191.46792969 37.31390625 191.93585938 36.4453125 192.41796875 C26.00807559 198.16879758 15.50952147 203.47631155 4.375 207.75 C3.06958252 208.25285522 3.06958252 208.25285522 1.73779297 208.76586914 C-2.4200518 210.29447643 -5.54420508 211.06400139 -10 211 C-10.10818964 198.53718394 -9.79970349 186.14257313 -9.1953125 173.6953125 C-9.11010038 171.87915532 -9.02521889 170.06298259 -8.94064331 168.24679565 C-8.7632875 164.45655886 -8.58321235 160.66646539 -8.40087891 156.87646484 C-8.17292658 152.13746653 -7.94986424 147.39825568 -7.72863293 142.65893936 C-6.81102582 123.01815584 -5.82625258 103.38272979 -4.7141571 83.75198364 C-4.17172398 74.16943845 -3.66213752 64.58597065 -3.18359375 55 C-3.1208728 53.74557098 -3.05815186 52.49114197 -2.99353027 51.19869995 C-2.7432592 46.1776263 -2.49441103 41.1564848 -2.24731445 36.13525391 C-2.061148 32.36091383 -1.87252114 28.58670274 -1.68359375 24.8125 C-1.62940781 23.69681641 -1.57522186 22.58113281 -1.51939392 21.43164062 C-1.15926544 14.27283794 -0.63927281 7.13925604 0 0 Z " fill="#548BEC" transform="translate(340,289)"/>
<path d="M0 0 C0.60822677 10.874776 1.21183839 21.74980375 1.8125 32.625 C1.88013235 33.84882133 1.88013235 33.84882133 1.94913101 35.09736633 C3.42917228 61.89660683 4.80394028 88.69901453 6.0480957 115.51025391 C6.13415573 117.34473587 6.13415573 117.34473587 6.22195435 119.21627808 C6.32689589 121.45702018 6.43023934 123.69783811 6.53146362 125.93875122 C6.82737363 132.25093001 7.26438443 138.54046005 7.76542664 144.83947754 C8.12147059 149.63663308 8.33699023 154.43629297 8.53515625 159.2421875 C8.57813339 160.25362823 8.62111053 161.26506897 8.66539001 162.30715942 C8.75471765 164.42624183 8.84288878 166.54537329 8.92993164 168.66455078 C9.06192952 171.86118459 9.19969703 175.05753501 9.33789062 178.25390625 C9.79875403 189.17659163 10.14810156 200.06681352 10 211 C3.71661867 210.47638489 -1.43938356 208.9659954 -7.25 206.5625 C-8.11407471 206.20905518 -8.97814941 205.85561035 -9.8684082 205.49145508 C-36.22990859 194.50650265 -60.08139825 179.48115715 -81 160 C-82.35006164 158.82858546 -83.70407514 157.6617058 -85.0625 156.5 C-92.68181415 149.82927516 -99.44593497 142.61572859 -105.69873047 134.65185547 C-106.61617874 133.48722976 -107.54032782 132.32786739 -108.46923828 131.17236328 C-117.39254702 120.06205091 -125.06147243 108.44813602 -132 96 C-132.41620605 95.27699707 -132.83241211 94.55399414 -133.26123047 93.80908203 C-136.01726274 88.76991819 -136.01726274 88.76991819 -135.94140625 85.38671875 C-132.19657404 75.89255908 -126.76584806 67.59095149 -120 60 C-119.32324219 59.22914063 -118.64648438 58.45828125 -117.94921875 57.6640625 C-109.20492854 48.29632199 -98.64998667 43.06928943 -86.97485352 38.34033203 C-79.86529804 35.43805059 -72.96576474 32.17324766 -66.0625 28.8125 C-48.16950557 20.11839192 -30.19384694 11.59613287 -11.9375 3.6875 C-10.63449951 3.11854004 -10.63449951 3.11854004 -9.30517578 2.53808594 C-8.51224121 2.19938477 -7.71930664 1.86068359 -6.90234375 1.51171875 C-6.21648193 1.21740967 -5.53062012 0.92310059 -4.82397461 0.61987305 C-3 0 -3 0 0 0 Z " fill="#3E7FDC" transform="translate(172,289)"/>
<path d="M0 0 C0.33 0.66 0.66 1.32 1 2 C0.71125 2.825 0.4225 3.65 0.125 4.5 C-1.09128852 8.28400874 -1.41041437 11.6871507 -1.65625 15.6328125 C-2.02605622 18.17943258 -2.62903636 19.82891765 -4 22 C-6 23.33333333 -8 24.66666667 -10 26 C-20.82003211 37.07765192 -21.35175444 51.3180237 -21.25 66 C-21.24822754 66.73145233 -21.24645508 67.46290466 -21.24462891 68.21652222 C-21.21409914 78.91617794 -20.80713894 89.43146426 -19 100 C-20.10472656 100.27714844 -21.20945313 100.55429688 -22.34765625 100.83984375 C-26.12158094 101.71567507 -26.12158094 101.71567507 -28.4375 104.5625 C-31.04985358 110.30967787 -30.66416858 115.70170887 -28.57421875 121.61328125 C-27.95878505 123.18502963 -27.3294732 124.75140358 -26.6875 126.3125 C-24.52606064 131.80137603 -22.60190121 137.08488725 -21.375 142.875 C-20.28765651 147.73406624 -18.95141092 149.98444956 -15 153 C-14.67 153.33 -14.34 153.66 -14 154 C-12.65252916 154.23075082 -11.29622435 154.41153063 -9.9375 154.5625 C-8.638125 154.706875 -7.33875 154.85125 -6 155 C-5.98582031 155.70640625 -5.97164062 156.4128125 -5.95703125 157.140625 C-4.92875352 179.26249191 2.98193885 200.19340989 16 218 C16.75152344 218.66515625 17.50304687 219.3303125 18.27734375 220.015625 C20 222 20 222 20.2421875 224.875 C20.12101563 225.90625 19.99984375 226.9375 19.875 228 C19.76929688 229.03125 19.66359375 230.0625 19.5546875 231.125 C18.65722354 235.7766442 18.65722354 235.7766442 17 238 C15.34107351 238.36993483 13.67240869 238.69678709 12 239 C8.9626706 240.75179248 8.9626706 240.75179248 5.875 243 C5.29862793 243.40226807 4.72225586 243.80453613 4.12841797 244.21899414 C0.55944224 246.74820893 -2.64746797 249.47892897 -5.875 252.4375 C-11.58132577 257.15914155 -17.76138174 259.74961963 -24.57006836 262.56835938 C-34.86095522 266.84734108 -44.88769895 271.62456972 -54.9375 276.4375 C-58.4121677 278.0975971 -61.88760225 279.75608389 -65.36328125 281.4140625 C-66.61891624 282.01325752 -66.61891624 282.01325752 -67.8999176 282.6245575 C-74.78456786 285.90616067 -81.69098835 289.13625337 -88.625 292.3125 C-89.56939941 292.74594727 -90.51379883 293.17939453 -91.48681641 293.62597656 C-95.35508915 295.38907164 -99.22701494 297.11617698 -103.16796875 298.7109375 C-124.63283103 307.40731257 -136.5312826 323.1146976 -147 343 C-150.2313676 339.24841223 -151.92897446 334.95805256 -153.8125 330.4375 C-154.15853271 329.60919678 -154.50456543 328.78089355 -154.86108398 327.92749023 C-157.33561278 321.88212241 -159.55253671 315.77736693 -161.5625 309.5625 C-161.82587158 308.76448975 -162.08924316 307.96647949 -162.3605957 307.14428711 C-163.53753743 303.36675606 -164.3313465 300.76229018 -163 297 C-145.31527141 275.38533172 -117.70026338 261.75734925 -92.9375 250.3125 C-75.03987718 241.9873853 -59.32889473 230.68466598 -51.96875 211.8125 C-48.52042827 201.80124338 -49.74955859 190.83648245 -51.49609375 180.58203125 C-51.72559471 179.168899 -51.72559471 179.168899 -51.95973206 177.72721863 C-52.44417257 174.7542402 -52.94037751 171.7833814 -53.4375 168.8125 C-53.92849646 165.83053578 -54.41703802 162.84818107 -54.90455627 159.86564636 C-55.20694638 158.02091342 -55.51175798 156.17657513 -55.81944275 154.3327179 C-57.22129439 145.87771357 -58.19386956 137.64389353 -58.1875 129.0625 C-58.18814453 128.1451709 -58.18878906 127.2278418 -58.18945312 126.28271484 C-58.14533095 120.49569104 -57.76936531 114.85850797 -57 109.125 C-54.62743803 91.34540491 -55.8470422 75.06604607 -67.07421875 60.265625 C-71.84150754 54.77450702 -77.089133 50.22005162 -83 46 C-73.39636129 36.07975782 -61.99608226 28.67984411 -50 22 C-49.16710449 21.53303711 -48.33420898 21.06607422 -47.47607422 20.58496094 C-32.20235129 12.10109457 -16.56680461 5.5222682 0 0 Z " fill="#FEC739" transform="translate(183,32)"/>
<path d="M0 0 C5.59427856 0.58555251 10.13962379 2.61212346 15.1875 4.9375 C16.05955078 5.33573975 16.93160156 5.73397949 17.83007812 6.14428711 C31.45809931 12.44442614 44.80402159 19.19093024 57 28 C57.67820801 28.4832373 58.35641602 28.96647461 59.05517578 29.46435547 C61.29686473 31.06696427 63.52525288 32.6864698 65.75 34.3125 C66.46696045 34.8286084 67.1839209 35.3447168 67.92260742 35.87646484 C68.58236572 36.36711426 69.24212402 36.85776367 69.921875 37.36328125 C70.51581055 37.79938721 71.10974609 38.23549316 71.72167969 38.68481445 C73 40 73 40 73 43 C71.3125 44.5078125 71.3125 44.5078125 69 46.125 C58.26629501 54.21733871 49.47777959 66.05041652 47.20703125 79.625 C46.48088199 87.95516511 46.91901385 96.04858315 48 104.3125 C50.97716931 127.73639598 47.39158937 151.23778172 42.8671875 174.2578125 C39.96530126 189.36955113 39.21668004 205.63221548 48 219 C59.77647893 234.26752999 75.72860119 242.61125896 92.79907227 250.65649414 C115.32242502 261.27256681 133.90013812 273.96154977 152 291 C152.55985596 291.44964111 153.11971191 291.89928223 153.6965332 292.36254883 C155 294 155 294 154.9675293 296.13989258 C154.77586182 296.94579834 154.58419434 297.7517041 154.38671875 298.58203125 C154.1757959 299.47100098 153.96487305 300.3599707 153.74755859 301.27587891 C152.59490767 305.47616597 151.27733863 309.5861149 149.8125 313.6875 C149.51077881 314.54311523 149.20905762 315.39873047 148.89819336 316.28027344 C146.08224668 324.09305239 142.70250529 331.57248179 139 339 C136.00296898 336.41697326 134.5734985 333.44694832 132.8125 329.9375 C129.4846166 323.6452835 125.71881465 318.31323898 121 313 C120.39671875 312.30261719 119.7934375 311.60523438 119.171875 310.88671875 C111.92400293 303.04500842 102.87604273 297.9589446 92.984375 294.19921875 C85.88312852 291.43552652 79.05135386 288.25528875 72.22064209 284.87969971 C68.87095082 283.22569388 65.51121161 281.59229955 62.15234375 279.95703125 C61.47105408 279.62495667 60.7897644 279.29288208 60.08782959 278.95074463 C44.07577011 271.15915149 27.92444589 263.63836151 11.47998047 256.80126953 C5.60023766 254.34163537 0.69680843 251.83494831 -3.9375 247.375 C-7.83593426 243.84409489 -11.91744388 240.86606779 -16.3125 238 C-16.91118896 237.60216309 -17.50987793 237.20432617 -18.12670898 236.79443359 C-21.46115909 234.66897362 -22.92946846 234 -27 234 C-27.34087334 232.45998293 -27.67230953 230.91787594 -28 229.375 C-28.185625 228.51648438 -28.37125 227.65796875 -28.5625 226.7734375 C-29.75921285 219.18713282 -29.75921285 219.18713282 -27.49609375 215.6484375 C-26.81675781 214.89820313 -26.13742187 214.14796875 -25.4375 213.375 C-10.33955245 195.50776401 -4.96816991 173.8012333 -3 151 C-2.03646606 150.84180786 -2.03646606 150.84180786 -1.0534668 150.68041992 C-0.31394775 150.55900635 0.42557129 150.43759277 1.1875 150.3125 C2.35345703 150.12107422 2.35345703 150.12107422 3.54296875 149.92578125 C7.05100974 148.60399156 8.66033105 146.92943625 11 144 C12.14734667 141.23354408 12.82696603 138.41351651 13.5 135.5 C14.93942713 129.75973908 16.53978282 124.34232527 18.8125 118.875 C21.0365386 113.27267492 22.46559556 108.92904343 20.265625 103.03125 C18.17887713 98.85775427 16.28960262 97.46543638 12 96 C11.62752139 73.64268796 11.62752139 73.64268796 13 66.5 C17.45193068 42.61857187 12.76041274 20.40930567 0 0 Z " fill="#FEC739" transform="translate(338,36)"/>
<path d="M0 0 C2.01953125 0.984375 2.01953125 0.984375 3.2578125 3.90625 C3.61230469 5.16953125 3.96679688 6.4328125 4.33203125 7.734375 C9.45714695 24.57404088 18.83918625 37.59458921 33.01953125 47.984375 C34.47858554 49.06673713 35.93697498 50.1499964 37.39453125 51.234375 C38.36519531 51.95367187 38.36519531 51.95367187 39.35546875 52.6875 C41.41647683 54.29373165 43.17285494 56.13769869 45.01953125 57.984375 C46.32186447 58.97702388 47.63560063 59.95479449 48.95703125 60.921875 C52.3040152 63.3805006 55.17594948 65.96306937 58.01953125 68.984375 C57.532755 69.66464595 57.04597876 70.3449169 56.54445171 71.04580212 C54.69248278 74.61460838 54.63569424 76.99006606 54.62080383 81.00154114 C54.61415701 81.69593361 54.60751018 82.39032608 54.60066193 83.10576075 C54.58205188 85.42588199 54.58463578 87.74548661 54.5871582 90.06567383 C54.5781398 91.73142219 54.56781238 93.39716391 54.55627441 95.06289673 C54.52868744 99.5810691 54.51941759 104.09911562 54.51342034 108.61736131 C54.50404111 113.34063601 54.47783807 118.06381653 54.45341492 122.78703308 C54.40973385 131.72937965 54.38119675 140.67170795 54.35809153 149.61412877 C54.33104849 159.79548363 54.28713642 169.97674382 54.24180281 180.15803111 C54.14893351 201.10009483 54.07726321 222.04218688 54.01953125 242.984375 C51.00225147 243.00241783 47.98508149 243.01553387 44.96777344 243.02587891 C43.69859573 243.03422508 43.69859573 243.03422508 42.40377808 243.04273987 C35.23480837 243.06113294 28.3619071 242.4534257 21.26953125 241.359375 C19.51104858 241.09858154 19.51104858 241.09858154 17.71704102 240.83251953 C-10.95077318 236.33750538 -10.95077318 236.33750538 -18.98046875 230.984375 C-18.32046875 230.984375 -17.66046875 230.984375 -16.98046875 230.984375 C-17.03581787 230.07075195 -17.09116699 229.15712891 -17.14819336 228.21582031 C-18.98581968 197.64353144 -18.98581968 197.64353144 -19.41796875 183.109375 C-19.85103 169.23413324 -20.67355719 155.3873188 -21.48403931 141.5300293 C-22.98876163 115.71109573 -24.24764828 89.88091399 -25.49511623 64.04848385 C-25.66111087 60.614686 -25.82802376 57.18093304 -25.99500084 53.74718285 C-26.10908076 51.39142788 -26.22157007 49.03560091 -26.3339386 46.67976379 C-26.36976579 45.94522759 -26.40559298 45.21069139 -26.44250584 44.45389652 C-26.51150267 43.02460332 -26.57776231 41.59517492 -26.64105892 40.16561794 C-26.80428841 36.67709233 -27.04240107 33.21939857 -27.41937256 29.74700928 C-27.48647871 29.06664549 -27.55358486 28.3862817 -27.62272453 27.68530083 C-27.81094044 25.83245152 -28.02641935 23.98242864 -28.24386597 22.13278198 C-27.89754671 17.99320149 -26.45896331 16.76042663 -23.35546875 14.109375 C-21.25951493 12.69049249 -19.13173366 11.31790763 -16.98046875 9.984375 C-15.78822789 9.15707897 -14.6020988 8.3209136 -13.421875 7.4765625 C-2.91093052 -0.02296592 -2.91093052 -0.02296592 0 0 Z " fill="#BDC7F6" transform="translate(198.98046875,269.015625)"/>
<path d="M0 0 C0.99 0.66 1.98 1.32 3 2 C3 2.66 3 3.32 3 4 C3.66 4 4.32 4 5 4 C5.66 2.68 6.32 1.36 7 0 C13.65674401 -0.34216908 19.13879028 0.8516763 25.5 2.75 C26.39847656 3.00265625 27.29695313 3.2553125 28.22265625 3.515625 C39.16485082 6.7011256 47.72088266 10.92692536 53.80078125 20.9765625 C56.4148109 26.0049823 58.27008921 30.34528884 59 36 C69.33483476 30.32311893 75.76691668 24.63497579 81 14 C81.33 14 81.66 14 82 14 C81.13873393 34.32587925 73.93317834 58.10048365 59.23046875 72.76171875 C56.18405093 77.18462659 56.77372053 79.98173345 57.4375 85.125 C58.16650305 93.35299343 57.62297523 99.42850684 54 107 C53.52433594 108.04285156 53.04867187 109.08570313 52.55859375 110.16015625 C46.42607957 122.55817889 38.06906111 132.17337023 26.7265625 140 C23.85011157 142.10994682 21.51551308 144.47661364 19 147 C17.17349558 148.39125231 15.31884043 149.74634668 13.4375 151.0625 C9.97047822 153.49085783 6.91250669 155.92302235 4 159 C1.13814644 157.6877964 -1.04577974 156.23551413 -3.375 154.125 C-5.58161186 152.17771218 -7.65111682 150.5702629 -10.125 148.9375 C-13 147 -13 147 -15.28515625 144.67578125 C-18.1072562 141.89428706 -21.1272792 139.58341945 -24.3125 137.25 C-37.77674971 127.0538823 -48.57777624 111.85112992 -52 95 C-51.91064453 92.92871094 -51.91064453 92.92871094 -51.6328125 90.734375 C-50.35826884 81.9069264 -50.35826884 81.9069264 -52.20703125 73.46484375 C-53.92733405 71.6484474 -53.92733405 71.6484474 -55.8984375 69.984375 C-66.05770089 60.39161328 -71.17154732 43.25429495 -74.375 30.0625 C-74.54290039 29.37696045 -74.71080078 28.6914209 -74.88378906 27.98510742 C-75.95006616 23.23925316 -76.14124211 18.86198803 -76 14 C-74.1603956 16.26412849 -72.33780115 18.5259102 -70.64453125 20.90234375 C-65.18925462 28.52218054 -59.51909592 33.1140966 -51 37 C-50.95875 35.906875 -50.9175 34.81375 -50.875 33.6875 C-49.74613399 24.95038635 -44.38891219 17.83564143 -38.3203125 11.75390625 C-32.24403547 7.1608955 -25.22824572 4.89656994 -18 2.75 C-17.14921875 2.481875 -16.2984375 2.21375 -15.421875 1.9375 C-10.09605367 0.33648622 -5.56360416 -0.46363368 0 0 Z " fill="#57415E" transform="translate(253,178)"/>
<path d="M0 0 C0.69963867 0.21962402 1.39927734 0.43924805 2.12011719 0.66552734 C20.36141238 6.59625678 40.87799718 17.00528802 50.6875 34.3125 C51.47210286 35.86813127 52.24190943 37.43127792 53 39 C53.75603516 40.44439453 53.75603516 40.44439453 54.52734375 41.91796875 C61.2506068 54.88778427 63.1995406 65.73384704 63.1875 80.25 C63.18669434 81.27287109 63.18588867 82.29574219 63.18505859 83.34960938 C63.13521225 89.49928036 62.72459868 95.33497553 61.578125 101.38671875 C60.73264457 106.67097143 60.32005615 111.98151894 59.875 117.3125 C59.74375732 118.88257812 59.74375732 118.88257812 59.60986328 120.484375 C59.40319808 122.98930698 59.20111534 125.49461633 59 128 C55.7 128.33 52.4 128.66 49 129 C48.65388672 127.98292969 48.65388672 127.98292969 48.30078125 126.9453125 C47.97464844 126.01460937 47.64851562 125.08390625 47.3125 124.125 C46.99925781 123.22007813 46.68601562 122.31515625 46.36328125 121.3828125 C45.15258815 118.14489855 45.15258815 118.14489855 43.76171875 115.87353516 C39.6098304 108.61811027 39.3217058 102.37671864 39.375 94.125 C39.375 81.07473469 38.52718132 68.54269691 30 58 C21.95990177 50.66517354 10.20970004 49.13931769 -0.26953125 49.49609375 C-7.14088696 50.02075023 -13.79607062 51.97633432 -20.39916992 53.86499023 C-30.94548259 56.81872931 -39.22249554 56.32768388 -49.75 53.5625 C-64.06321997 49.92820446 -78.17378388 47.12117182 -92 54 C-92.99966797 54.47373047 -92.99966797 54.47373047 -94.01953125 54.95703125 C-100.47014076 58.70934659 -103.44044487 66.05764173 -105.60644531 72.921875 C-107.08497727 78.59609992 -107.13810896 84.04667597 -107.125 89.88671875 C-107.125 103.70886015 -109.12303605 113.14316561 -116 125 C-116.495 126.98 -116.495 126.98 -117 129 C-119.97 128.67 -122.94 128.34 -126 128 C-128.87507466 116.79063154 -129.332744 105.69377791 -129.375 94.1875 C-129.38249268 93.47957306 -129.38998535 92.77164612 -129.39770508 92.04226685 C-129.51174242 78.88672924 -128.57369918 64.8649953 -118.96875 54.890625 C-113.5695 50 -113.5695 50 -111 50 C-110.82984375 48.88882813 -110.6596875 47.77765625 -110.484375 46.6328125 C-107.89808599 30.42382064 -103.91667337 19.40147439 -90.1875 9.1875 C-65.49984166 -6.99241147 -27.74411238 -8.743559 0 0 Z " fill="#56415E" transform="translate(290,4)"/>
<path d="M0 0 C0.74056641 0.00451172 1.48113281 0.00902344 2.24414062 0.01367188 C4.05862899 0.02537825 5.87307534 0.04331102 7.6875 0.0625 C7.74054543 1.12793282 7.74054543 1.12793282 7.79466248 2.21488953 C8.13107971 8.96563962 8.46919702 15.71630273 8.80914211 22.46687603 C8.98378028 25.93596172 9.15780053 29.40507594 9.33032227 32.87426758 C9.52948112 36.87851644 9.73148284 40.88261779 9.93359375 44.88671875 C9.9940538 46.11017502 10.05451385 47.33363129 10.11680603 48.59416199 C10.46253942 55.39648755 10.91716824 62.17970735 11.45787048 68.96913147 C11.81230758 73.74379887 12.02541907 78.52131902 12.22265625 83.3046875 C12.26563339 84.31612823 12.30861053 85.32756897 12.35289001 86.36965942 C12.44221765 88.48874183 12.53038878 90.60787329 12.61743164 92.72705078 C12.74942952 95.92368459 12.88719703 99.12003501 13.02539062 102.31640625 C13.48625403 113.23909163 13.83560156 124.12931352 13.6875 135.0625 C7.40411867 134.53888489 2.24811644 133.0284954 -3.5625 130.625 C-4.42657471 130.27155518 -5.29064941 129.91811035 -6.1809082 129.55395508 C-28.31702721 120.32973754 -48.77302544 108.32684379 -67.3125 93.0625 C-67.83091965 92.64166641 -68.34933929 92.22083282 -68.88346863 91.7872467 C-70.7774644 89.50131861 -70.69823668 88.14550384 -70.71655273 85.19897461 C-70.72923691 84.21041977 -70.74192108 83.22186493 -70.75498962 82.20335388 C-70.75205399 81.13464554 -70.74911835 80.06593719 -70.74609375 78.96484375 C-70.7513356 77.86080704 -70.75657745 76.75677032 -70.76197815 75.61927795 C-70.76840824 73.27817628 -70.76704866 70.93704233 -70.75854492 68.59594727 C-70.75009024 65.03797552 -70.77869473 61.4816389 -70.81054688 57.92382812 C-70.8121605 55.64583381 -70.81157827 53.36783668 -70.80859375 51.08984375 C-70.81982773 50.03530502 -70.83106171 48.9807663 -70.84263611 47.89427185 C-70.73991595 36.82811873 -67.01742129 28.0202855 -59.3125 20.0625 C-46.18799185 8.63224654 -29.93513378 4.46037777 -13.3125 1.0625 C-12.56500488 0.87929199 -11.81750977 0.69608398 -11.04736328 0.50732422 C-7.36209811 -0.09208242 -3.72096555 -0.04322838 0 0 Z " fill="#548BED" transform="translate(168.3125,364.9375)"/>
<path d="M0 0 C0 0.66 0 1.32 0 2 C-0.86625 2.61875 -1.7325 3.2375 -2.625 3.875 C-10.00920497 9.80686134 -12.84133193 19.95116594 -14 29 C-14.14104676 32.12466937 -14.16820121 35.23582741 -14.17553711 38.36352539 C-14.22084128 50.95161206 -15.9302968 59.07739731 -22 70 C-25.89229289 80.78769107 -23.85204396 92.49027972 -22.0625 103.5 C-20.76396686 111.65827535 -19.62385591 119.75968617 -19 128 C-20.175625 128.515625 -21.35125 129.03125 -22.5625 129.5625 C-32.44204783 134.62402891 -36.83341564 143.04256957 -41 153 C-41.7027805 155.77253351 -41.7027805 155.77253351 -42 158 C-52.29931094 155.42517227 -59.99513124 147.09667413 -65.4375 138.3125 C-66.93276893 135.14252987 -67.41596566 133.43171668 -67 130 C-68.216875 130.0825 -69.43375 130.165 -70.6875 130.25 C-73.87689165 130.23873006 -74.94599606 130.03120228 -77.8125 128.375 C-81.95617837 123.8761492 -83.4601758 118.79086561 -84.875 112.9375 C-86.14846255 107.80679311 -87.71365253 103.02028728 -89.75 98.125 C-91.76510775 93.01839154 -93.36149574 88.46725634 -92 83 C-90.29717363 79.68199273 -88.42550655 76.71275328 -85 75 C-83.37731009 74.90388248 -81.75052694 74.87017648 -80.125 74.875 C-79.26132813 74.87242187 -78.39765625 74.86984375 -77.5078125 74.8671875 C-75.19334029 74.98976079 -73.21710884 75.35033555 -71 76 C-70.86078125 74.44345703 -70.86078125 74.44345703 -70.71875 72.85546875 C-69.95909936 68.78060364 -68.73802923 66.74750797 -66.5 63.3125 C-61.82826238 55.19855173 -62.22872001 46.43629688 -62.26367188 37.30200195 C-62.27022644 25.56522659 -60.64877347 14.34850091 -53 5 C-37.60579418 -8.71272948 -18.24952988 -4.1501469 0 0 Z " fill="#CB8B5F" transform="translate(244,57)"/>
<path d="M0 0 C5.871932 0.55923162 10.66470292 2.91202309 15.9375 5.375 C17.67554562 6.1749913 19.41382268 6.97447997 21.15234375 7.7734375 C22.38573486 8.34336426 22.38573486 8.34336426 23.64404297 8.92480469 C26.74072596 10.33804737 29.86373027 11.67721957 33 13 C32.67 13.66 32.34 14.32 32 15 C31.75605522 17.99178653 31.57030194 20.96780651 31.421875 23.96484375 C31.37028229 24.9358905 31.31868958 25.90693726 31.26553345 26.90740967 C31.08924316 30.25055624 30.91962288 33.59400892 30.75 36.9375 C30.62481035 39.34287038 30.49931108 41.74822466 30.37353516 44.15356445 C29.95444128 52.2096598 29.54480779 60.26622401 29.13597107 68.32284546 C28.94018131 72.17777901 28.74373514 76.03267905 28.54734039 79.88758183 C27.4375734 101.67279188 26.33335886 123.45828426 25.23771286 145.24420929 C25.1386806 147.21311113 25.03956588 149.18200883 24.94035721 151.15090179 C24.80157642 153.90616909 24.66321725 156.66145733 24.52490234 159.41674805 C24.4807123 160.29168222 24.43652225 161.1666164 24.39099312 162.06806374 C24.16299781 166.61255098 23.94623808 171.15725905 23.74542236 175.70303345 C23.70325403 176.64049062 23.6610857 177.57794779 23.61763954 178.54381275 C23.53860682 180.31214856 23.46190979 182.08059115 23.38814354 183.84915447 C23.14421184 189.26958175 22.64906854 194.61259603 22 200 C18.62673771 201.46237616 15.25109276 202.91917164 11.875 204.375 C10.44800781 204.99375 10.44800781 204.99375 8.9921875 205.625 C-3.76710727 211.11858525 -3.76710727 211.11858525 -10 211 C-10.10818964 198.53718394 -9.79970349 186.14257313 -9.1953125 173.6953125 C-9.11010038 171.87915532 -9.02521889 170.06298259 -8.94064331 168.24679565 C-8.7632875 164.45655886 -8.58321235 160.66646539 -8.40087891 156.87646484 C-8.17292658 152.13746653 -7.94986424 147.39825568 -7.72863293 142.65893936 C-6.81102582 123.01815584 -5.82625258 103.38272979 -4.7141571 83.75198364 C-4.17172398 74.16943845 -3.66213752 64.58597065 -3.18359375 55 C-3.1208728 53.74557098 -3.05815186 52.49114197 -2.99353027 51.19869995 C-2.7432592 46.1776263 -2.49441103 41.1564848 -2.24731445 36.13525391 C-2.061148 32.36091383 -1.87252114 28.58670274 -1.68359375 24.8125 C-1.62940781 23.69681641 -1.57522186 22.58113281 -1.51939392 21.43164062 C-1.15926544 14.27283794 -0.63927281 7.13925604 0 0 Z " fill="#72AAFB" transform="translate(340,289)"/>
<path d="M0 0 C0.66 0.33 1.32 0.66 2 1 C2 1.66 2 2.32 2 3 C2.59425781 3.268125 3.18851563 3.53625 3.80078125 3.8125 C6.01965705 5.01061411 7.4025848 6.23628332 9.1875 8 C18.32550298 16.16259817 30.23115703 22.67629479 42 26 C42.64582031 26.18820312 43.29164063 26.37640625 43.95703125 26.5703125 C59.29663498 29.79661539 74.2819019 22.98796802 87 15 C93.7177968 10.50041588 99.95479161 5.35825289 106 0 C109.39458353 18.15120284 105.3975125 30.63864558 95 46 C89.33198277 53.43346522 82.89170883 58.91495157 75.265625 64.20922852 C71.45179491 66.85744166 68.25079311 69.65569846 65 73 C63.64961413 74.07338364 62.27647505 75.11923555 60.875 76.125 C58.36456599 77.93212176 56.13535264 79.75854288 54 82 C51.13814644 80.6877964 48.95422026 79.23551413 46.625 77.125 C44.41838814 75.17771218 42.34888318 73.5702629 39.875 71.9375 C37 70 37 70 34.71484375 67.67578125 C31.8927438 64.89428706 28.8727208 62.58341945 25.6875 60.25 C12.72668575 50.43512056 4.12141709 37.45105495 -1 22 C-1.20496094 21.38253906 -1.40992188 20.76507813 -1.62109375 20.12890625 C-2.14259001 17.19884993 -1.87832979 14.52371983 -1.625 11.5625 C-1.53476563 10.45003906 -1.44453125 9.33757812 -1.3515625 8.19140625 C-1.04485864 5.40721676 -0.6028087 2.73307336 0 0 Z " fill="#CB8C60" transform="translate(203,255)"/>
<path d="M0 0 C0.77923828 0.00451172 1.55847656 0.00902344 2.36132812 0.01367188 C4.26175268 0.02533092 6.16213706 0.04326123 8.0625 0.0625 C5.71404762 2.47248389 3.35665151 4.64490988 0.6875 6.6875 C-6.4595247 12.77399845 -10.04508348 20.90922383 -11.1875 30.06640625 C-11.73438978 39.34644217 -7.85492066 48.40222876 -4.9375 57.0625 C-9.35787227 56.5620805 -13.64729123 55.91876038 -18 55 C-29.14002521 52.97594549 -39.67465899 52.95652455 -49.9375 58.0625 C-50.93716797 58.53623047 -50.93716797 58.53623047 -51.95703125 59.01953125 C-58.40764076 62.77184659 -61.37794487 70.12014173 -63.54394531 76.984375 C-65.02247727 82.65859992 -65.07560896 88.10917597 -65.0625 93.94921875 C-65.0625 107.77136015 -67.06053605 117.20566561 -73.9375 129.0625 C-74.4325 131.0425 -74.4325 131.0425 -74.9375 133.0625 C-77.9075 132.7325 -80.8775 132.4025 -83.9375 132.0625 C-86.81257466 120.85313154 -87.270244 109.75627791 -87.3125 98.25 C-87.31999268 97.54207306 -87.32748535 96.83414612 -87.33520508 96.10476685 C-87.44924242 82.94922924 -86.51119918 68.9274953 -76.90625 58.953125 C-71.507 54.0625 -71.507 54.0625 -68.9375 54.0625 C-68.76734375 52.95132813 -68.5971875 51.84015625 -68.421875 50.6953125 C-65.83558599 34.48632064 -61.85417337 23.46397439 -48.125 13.25 C-34.11758401 4.06975506 -16.60616074 -0.18498722 0 0 Z " fill="#46304C" transform="translate(247.9375,-0.0625)"/>
<path d="M0 0 C1.10281311 0.00592163 1.10281311 0.00592163 2.22790527 0.01196289 C4.02305804 0.02217506 5.81817826 0.03786467 7.61328125 0.0546875 C7.64864487 0.76497604 7.68400848 1.47526459 7.72044373 2.20707703 C8.05686096 8.95782712 8.39497827 15.70849023 8.73492336 22.45906353 C8.90956153 25.92814922 9.08358178 29.39726344 9.25610352 32.86645508 C9.45526237 36.87070394 9.65726409 40.87480529 9.859375 44.87890625 C9.91983505 46.10236252 9.9802951 47.32581879 10.04258728 48.58634949 C10.38832067 55.38867505 10.84294949 62.17189485 11.38365173 68.96131897 C11.73808883 73.73598637 11.95120032 78.51350652 12.1484375 83.296875 C12.19141464 84.30831573 12.23439178 85.31975647 12.27867126 86.36184692 C12.3679989 88.48092933 12.45617003 90.60006079 12.54321289 92.71923828 C12.67521077 95.91587209 12.81297828 99.11222251 12.95117188 102.30859375 C13.41203528 113.23127913 13.76138281 124.12150102 13.61328125 135.0546875 C6.9378142 134.55014639 1.51376253 132.69509694 -4.63671875 130.1171875 C-5.96316406 129.57674805 -5.96316406 129.57674805 -7.31640625 129.02539062 C-9.68289558 128.05484402 -12.04307634 127.07917136 -14.38671875 126.0546875 C-15.11858398 125.82966553 -15.85044922 125.60464355 -16.60449219 125.37280273 C-18.38671875 124.0546875 -18.38671875 124.0546875 -19.09399414 121.28735352 C-19.21868222 119.87860209 -19.31132765 118.46693531 -19.38671875 117.0546875 C-19.44495819 116.09674286 -19.50319763 115.13879822 -19.5632019 114.15182495 C-19.75990964 110.54607019 -19.91819143 106.93993882 -20.0703125 103.33203125 C-20.13045979 101.96384389 -20.19091203 100.5956699 -20.25164795 99.22750854 C-20.4131267 95.57097182 -20.57040857 91.91426579 -20.72686386 88.25751114 C-20.88941323 84.47519545 -21.05586246 80.6930515 -21.22192383 76.91088867 C-21.52047328 70.09862298 -21.81576656 63.28622111 -22.10950184 56.4737463 C-22.41264132 49.44591618 -22.71969035 42.41825889 -23.02734375 35.390625 C-23.48412477 24.94546927 -23.93713019 14.50015519 -24.38671875 4.0546875 C-16.35265979 0.77707805 -8.61871896 -0.08883768 0 0 Z " fill="#72A9FB" transform="translate(168.38671875,364.9453125)"/>
<path d="M0 0 C6.46357534 0.5570047 11.30739664 5.01381886 16.33105469 8.76367188 C17.8897387 9.91832018 19.47910124 11.03123089 21.0703125 12.140625 C24.73523953 14.95979964 27.5611569 17.13623863 28.6484375 21.75390625 C28.69272822 25.2218699 28.3569253 28.54972209 28 32 C27.95755553 33.59604689 27.92980741 35.19252897 27.9140625 36.7890625 C27.75906639 47.35817615 26.55366035 56.33089371 22 66 C21.59362305 66.87043945 21.18724609 67.74087891 20.76855469 68.63769531 C9.73542074 92.00151637 9.73542074 92.00151637 3.82421875 95.1640625 C-1.11049651 96.22858974 -4.57280654 96.24588196 -8.984375 93.640625 C-12.35310253 90.89863748 -14.86673869 87.55895247 -17.51171875 84.1328125 C-20.16720811 80.71382946 -23.09597012 77.58621376 -26.0625 74.4375 C-29.71158891 70.51480188 -33.34221401 66.58304628 -36.8125 62.5 C-37.45832031 61.7471875 -38.10414063 60.994375 -38.76953125 60.21875 C-40 58 -40 58 -40.05078125 55.49609375 C-38.57757282 51.99653914 -36.47282681 50.7186797 -33.375 48.5625 C-32.2712025 47.76952616 -31.16833217 46.97526007 -30.06640625 46.1796875 C-29.05449219 45.46039063 -28.04257812 44.74109375 -27 44 C-13.65696468 34.2168148 -5.61098731 18.49530577 -1.5078125 2.7578125 C-1 1 -1 1 0 0 Z " fill="#DDEDFE" transform="translate(312,269)"/>
<path d="M0 0 C2.01953125 0.984375 2.01953125 0.984375 3.2578125 3.90625 C3.61230469 5.16953125 3.96679688 6.4328125 4.33203125 7.734375 C9.46060997 24.58541935 18.84590349 37.57526277 33.01953125 47.984375 C33.81488281 48.58636719 34.61023438 49.18835938 35.4296875 49.80859375 C37.28473637 51.21214925 39.14736881 52.60378594 41.01953125 53.984375 C40.49853536 58.39705234 38.99549454 60.68354999 36.14453125 64.046875 C35.33371094 65.0059375 34.52289063 65.965 33.6875 66.953125 C30.54810163 70.55299955 27.3106375 74.06197164 24.05078125 77.55273438 C20.39501062 81.49169851 17.08138822 85.61946114 13.87109375 89.92578125 C11.14195976 92.96007157 8.57024606 94.7154229 4.51953125 95.41796875 C3.69453125 95.41925781 2.86953125 95.42054688 2.01953125 95.421875 C1.19453125 95.44121094 0.36953125 95.46054687 -0.48046875 95.48046875 C-4.04032016 94.77406074 -5.42463664 93.59559666 -7.98046875 90.984375 C-11.73763121 85.18846931 -14.62726815 78.83196017 -17.65869141 72.63671875 C-18.77765312 70.39135487 -19.95653752 68.20484065 -21.1796875 66.015625 C-25.82527181 57.13030174 -27.04657492 47.67132644 -27.90182495 37.79379272 C-28.03634835 36.26823325 -28.1881644 34.74408868 -28.35818481 33.22207642 C-29.64267161 21.12476084 -29.64267161 21.12476084 -25.76293945 16.12890625 C-22.94908311 13.79467629 -20.11006539 11.86847676 -16.98046875 9.984375 C-15.69073615 9.05677814 -14.4067997 8.12098127 -13.1328125 7.171875 C-12.07191406 6.45 -11.01101562 5.728125 -9.91796875 4.984375 C-8.83386719 4.241875 -7.74976563 3.499375 -6.6328125 2.734375 C-2.45912023 -0.01940134 -2.45912023 -0.01940134 0 0 Z " fill="#DDEDFE" transform="translate(198.98046875,269.015625)"/>
<path d="M0 0 C1.08809212 0.00848969 1.08809212 0.00848969 2.19816589 0.01715088 C4.50128883 0.03943401 6.80282099 0.08961013 9.10546875 0.140625 C10.67250347 0.16070066 12.23956274 0.17894957 13.80664062 0.1953125 C17.63602394 0.23927163 21.46422721 0.30823877 25.29296875 0.390625 C24.84268573 20.49414463 23.87241413 40.56229108 22.79296875 60.640625 C22.72725677 61.888367 22.6615448 63.13610901 22.59384155 64.42166138 C22.40445848 68.00012849 22.20911029 71.5782167 22.01171875 75.15625 C21.95442093 76.24560349 21.89712311 77.33495697 21.83808899 78.45732117 C21.78130478 79.45914932 21.72452057 80.46097748 21.66601562 81.49316406 C21.59392883 82.80852142 21.59392883 82.80852142 21.52038574 84.15045166 C21.29296875 86.390625 21.29296875 86.390625 20.29296875 89.390625 C16.25463086 89.4898752 12.21677003 89.56227062 8.17749023 89.61035156 C6.80496852 89.6304049 5.43253158 89.65765528 4.06030273 89.69238281 C2.08224831 89.74117052 0.10355756 89.76151376 -1.875 89.78125 C-3.06375732 89.80219727 -4.25251465 89.82314453 -5.47729492 89.84472656 C-9.44129489 89.28738739 -10.98459913 88.30205191 -13.70703125 85.390625 C-15.54500731 80.94800249 -15.96354612 77.14809959 -15.98168945 72.36303711 C-15.98680038 71.68744247 -15.99191132 71.01184784 -15.99717712 70.31578064 C-16.01099034 68.09975133 -16.01012321 65.88403578 -16.0078125 63.66796875 C-16.01170292 62.11910386 -16.0160383 60.57024003 -16.02079773 59.02137756 C-16.02824133 55.78268974 -16.02798143 52.54411099 -16.02270508 49.30541992 C-16.01690136 45.16044317 -16.0338719 41.01591195 -16.05704975 36.87100887 C-16.07179491 33.67535301 -16.07265794 30.47980441 -16.06954002 27.28412056 C-16.07005246 25.75593747 -16.07527574 24.22774826 -16.08535194 22.69959831 C-16.09771989 20.56237795 -16.09092442 18.42602533 -16.0793457 16.28881836 C-16.07997513 15.07447617 -16.08060455 13.86013397 -16.08125305 12.60899353 C-15.54017678 7.95564937 -13.69845546 5.41902873 -10.5012207 2.10253906 C-6.95265914 -0.07155563 -4.03139322 -0.11957658 0 0 Z " fill="#DDEDFE" transform="translate(308.70703125,410.609375)"/>
<path d="M0 0 C-0.33 0.969375 -0.66 1.93875 -1 2.9375 C-2.58815307 8.58172746 -2.83249956 13.79387618 -0.75 19.3125 C0.94468014 21.9150445 2.77570624 23.85240602 5 26 C5 26.66 5 27.32 5 28 C3.390625 29.3671875 3.390625 29.3671875 1.25 30.875 C-3.25628886 34.03305766 -3.25628886 34.03305766 -7 38 C-7 42.42436255 -4.74563923 44.72294673 -2 48 C-2 48.66 -2 49.32 -2 50 C-1.42636719 50.27714844 -0.85273438 50.55429688 -0.26171875 50.83984375 C2 52 2 52 4.04296875 53.25390625 C9.4836314 56.57380058 13.63545202 57.69692629 20 58 C19.96519531 58.66644531 19.93039063 59.33289063 19.89453125 60.01953125 C19.63128152 68.98255781 20.61034778 78.16586792 26.34375 85.4375 C30.8095061 89.65047746 36.53514531 92.31174585 42 95 C36.14155511 98.44614405 29.36032625 97.62821658 22.88671875 96.41796875 C9.38375376 92.73534194 -2.49427547 85.0687123 -13 76 C-13.84691406 75.33355469 -14.69382813 74.66710937 -15.56640625 73.98046875 C-30.63479782 61.7177488 -39.23608349 41.86130416 -43.9375 23.5 C-44.14922852 22.6754834 -44.36095703 21.8509668 -44.57910156 21.00146484 C-45.79916895 15.87697399 -46.19926096 11.26531981 -46 6 C-44.1603956 8.26412849 -42.33780115 10.5259102 -40.64453125 12.90234375 C-35.18925462 20.52218054 -29.51909592 25.1140966 -21 29 C-20.95875 27.906875 -20.9175 26.81375 -20.875 25.6875 C-19.61842205 15.96193092 -13.25660355 8.1735284 -6 2 C-3 0 -3 0 0 0 Z " fill="#46314C" transform="translate(223,186)"/>
<path d="M0 0 C0.66 0 1.32 0 2 0 C3.1484375 1.64453125 3.1484375 1.64453125 4.375 3.8125 C7.22893768 8.50288454 9.02892919 10.5072323 14.5 11.875 C15.19351563 12.03613281 15.88703125 12.19726562 16.6015625 12.36328125 C26.33678973 14.94771454 34.39398864 19.25836404 41 27 C41.98660809 29.34095191 42.145645 30.44379666 41.50390625 32.89453125 C38.10524997 39.81876459 33.27291424 44.12110479 26.625 47.9375 C21.31038912 49.49523078 16.0422196 50.55238496 10.91015625 47.93359375 C6.29796113 44.35499838 4.61814757 40.52073878 3 35 C1.68 35 0.36 35 -1 35 C-1.21914062 35.59167969 -1.43828125 36.18335938 -1.6640625 36.79296875 C-3.84024469 42.21573168 -5.72662232 46.02773258 -11 49 C-17.85770937 50.28848266 -23.21632096 49.12770688 -29.06640625 45.42578125 C-31.67929286 43.49910729 -33.86250275 41.442854 -36 39 C-36.7425 38.175 -37.485 37.35 -38.25 36.5 C-40.1455097 33.792129 -40.75758539 32.27507092 -41 29 C-36.27703066 21.35328773 -26.20678364 15.49395608 -17.7734375 13.07421875 C-15.7292044 12.62022654 -13.6836856 12.1719714 -11.63671875 11.73046875 C-7.62042821 10.61780752 -5.79723637 9.08413241 -3 6 C-1.13076797 2.85011127 -1.13076797 2.85011127 0 0 Z " fill="#D9A582" transform="translate(256,195)"/>
<path d="M0 0 C0.52249935 9.46615298 1.04411755 18.93235397 1.56460571 28.39861774 C1.80630748 32.7940082 2.04831463 37.1893814 2.29101562 41.5847168 C2.52515109 45.82513257 2.75848969 50.06559151 2.99127197 54.30608177 C3.08029707 55.92523962 3.16961102 57.54438162 3.25921631 59.16350746 C3.38450932 61.4283812 3.50878234 63.69330875 3.6328125 65.95825195 C3.70387207 67.24842728 3.77493164 68.5386026 3.84814453 69.86787415 C3.94716029 71.91014387 4 73.95533139 4 76 C2.5459375 76.05607422 2.5459375 76.05607422 1.0625 76.11328125 C-8.84333232 76.57294575 -18.30332038 77.9497712 -28 80 C-29.08418853 74.54047817 -29.31140631 69.13523907 -29.53515625 63.58984375 C-29.57813339 62.58595108 -29.62111053 61.58205841 -29.66539001 60.54774475 C-29.7553649 58.42554122 -29.84350543 56.30325922 -29.92993164 54.1809082 C-30.06106559 50.97259423 -30.19901352 47.76462769 -30.33789062 44.55664062 C-30.76910318 34.36675169 -31.16792202 24.20095177 -31 14 C-31.66 13.67 -32.32 13.34 -33 13 C-29.21051275 11.30753743 -25.42021168 9.61691247 -21.62915039 7.92797852 C-20.33986328 7.35328685 -19.05079878 6.77809548 -17.76196289 6.20239258 C-15.90829986 5.37449452 -14.05384101 4.54840283 -12.19921875 3.72265625 C-11.08377686 3.22515869 -9.96833496 2.72766113 -8.8190918 2.21508789 C-5.67119248 0.85827704 -3.44703313 0 0 0 Z " fill="#548BEC" transform="translate(172,289)"/>
<path d="M0 0 C3.21888693 1.71597193 6.08905519 3.8102115 9 6 C10.010625 6.721875 11.02125 7.44375 12.0625 8.1875 C20.05947955 15.16547385 25.35820702 25.18354072 29 35 C29.36738281 35.95648438 29.73476563 36.91296875 30.11328125 37.8984375 C29.9259313 43.02794994 26.36015408 45.45576708 22.75 48.8125 C22.01217285 49.52172607 21.2743457 50.23095215 20.51416016 50.96166992 C14.90937637 56.29470292 9.12402935 61.27088844 3 66 C1.74872265 66.9931845 0.49881053 67.98809054 -0.75 68.984375 C-2.04128686 70.01089462 -3.33294983 71.03694131 -4.625 72.0625 C-5.55046631 72.79786987 -5.55046631 72.79786987 -6.49462891 73.5480957 C-10.88391177 77 -10.88391177 77 -12 77 C-12.09273712 67.82917151 -12.16378355 58.65850478 -12.20724869 49.48730946 C-12.22811132 45.2285943 -12.25640431 40.97020027 -12.30175781 36.71166992 C-12.34526351 32.6008508 -12.36914707 28.4903403 -12.37950897 24.3793087 C-12.38689193 22.81200999 -12.40130936 21.24472791 -12.42292023 19.67756081 C-12.45201852 17.47973952 -12.45595354 15.28318843 -12.45410156 13.08520508 C-12.46298401 11.83500076 -12.47186646 10.58479645 -12.48101807 9.29670715 C-11.91259265 5.40094467 -10.7404029 3.77053848 -8 1 C-5.00818583 -0.49590709 -3.3583794 -0.42743011 0 0 Z " fill="#3E7FDD" transform="translate(408,392)"/>
<path d="M0 0 C0.66 0.33 1.32 0.66 2 1 C2 1.66 2 2.32 2 3 C2.59425781 3.268125 3.18851563 3.53625 3.80078125 3.8125 C6.01965705 5.01061411 7.4025848 6.23628332 9.1875 8 C21.17100884 18.70437026 36.26203171 25.40545425 52 28 C50.304854 42.02956362 46.67296446 52.50713614 37.9375 63.625 C36 65 36 65 33.70703125 64.80078125 C21.07706094 61.06464285 11.80493982 48.19050417 5.68261719 37.1953125 C3.04853196 32.28768079 0.75305561 27.28887963 -1 22 C-1.20496094 21.38253906 -1.40992188 20.76507813 -1.62109375 20.12890625 C-2.14259001 17.19884993 -1.87832979 14.52371983 -1.625 11.5625 C-1.53476563 10.45003906 -1.44453125 9.33757812 -1.3515625 8.19140625 C-1.04485864 5.40721676 -0.6028087 2.73307336 0 0 Z " fill="#B97D54" transform="translate(203,255)"/>
<path d="M0 0 C0.33 0 0.66 0 1 0 C1 3.3 1 6.6 1 10 C1.9075 10.185625 2.815 10.37125 3.75 10.5625 C7.21610078 12.09558304 8.42953455 13.51847741 10.3359375 16.7578125 C12.44866654 23.89137997 10.36937004 29.65704153 7.6875 36.25 C5.53699476 41.75328251 3.59032951 47.08887313 2.3125 52.875 C1.1356436 58.01298282 -0.4646289 61.16404161 -4.8125 64.3125 C-7.90294255 65.28378195 -10.78579695 65.12362319 -14 65 C-14.31683325 58.45211279 -13.68869345 52.42819017 -12.5625 46 C-12.42440918 45.20883789 -12.28631836 44.41767578 -12.14404297 43.60253906 C-12.00885254 42.8287793 -11.87366211 42.05501953 -11.734375 41.2578125 C-9.96800768 31.13854897 -9.88563532 21.24199213 -10 11 C-6.7 10.67 -3.4 10.34 0 10 C0 6.7 0 3.4 0 0 Z " fill="#CB8C5F" transform="translate(349,122)"/>
<path d="M0 0 C1.29550781 -0.02126953 1.29550781 -0.02126953 2.6171875 -0.04296875 C5.2491288 0.19890748 6.86480544 0.85766459 9.125 2.1875 C9.05539063 3.38052734 9.05539063 3.38052734 8.984375 4.59765625 C8.64179737 16.03730226 10.11862732 27.14505057 11.70214844 38.44555664 C11.88293945 39.74485107 12.06373047 41.04414551 12.25 42.3828125 C12.41757813 43.54828613 12.58515625 44.71375977 12.7578125 45.91455078 C13.10831779 49.03880207 13.19170478 52.04701525 13.125 55.1875 C5.96514002 55.67291424 5.96514002 55.67291424 2.3125 53.5625 C-1.83117837 49.0636492 -3.3351758 43.97836561 -4.75 38.125 C-6.02346255 32.99429311 -7.58865253 28.20778728 -9.625 23.3125 C-11.64010775 18.20589154 -13.23649574 13.65475634 -11.875 8.1875 C-8.96137411 2.51021426 -6.36983535 0.04725397 0 0 Z " fill="#BA7D53" transform="translate(163.875,131.8125)"/>
<path d="M0 0 C2.71400822 2.71400822 3.79397 5.95150119 5.25 9.4375 C9.84261619 21.03209046 9.84261619 21.03209046 17 31 C8.96096008 31.67618093 3.55419155 30.83288872 -3 26 C-5.8125 23.5 -5.8125 23.5 -8 21 C-9.11375 19.7625 -9.11375 19.7625 -10.25 18.5 C-12.15278617 15.78173405 -12.79228981 14.29369023 -13 11 C-11.5234375 8.8671875 -11.5234375 8.8671875 -9.375 6.875 C-8.64023438 6.19179687 -7.90546875 5.50859375 -7.1484375 4.8046875 C-4.89046384 2.90798962 -2.64120943 1.32060471 0 0 Z " fill="#C98A60" transform="translate(228,213)"/>
<path d="M0 0 C3.06705137 4.60057706 5.30626544 9.62543522 7.70507812 14.59716797 C8.62309069 16.49605065 9.5496761 18.39059258 10.4765625 20.28515625 C11.06042895 21.49192971 11.64377996 22.69895272 12.2265625 23.90625 C12.75846191 25.00259766 13.29036133 26.09894531 13.83837891 27.22851562 C15 30 15 30 15 33 C14.39671875 33.10957031 13.7934375 33.21914063 13.171875 33.33203125 C7.06315013 34.50797128 7.06315013 34.50797128 2 38 C0.4286781 36.4286781 0.78106692 34.80015803 0.68359375 32.6171875 C0.64161865 31.70340332 0.59964355 30.78961914 0.55639648 29.84814453 C0.51716064 28.86700684 0.4779248 27.88586914 0.4375 26.875 C0.3950415 25.88483887 0.35258301 24.89467773 0.30883789 23.87451172 C-0.01163405 15.91107422 -0.11171322 7.96887666 0 0 Z " fill="#A7B6EF" transform="translate(174,325)"/>
</svg>
