<?xml version="1.0" encoding="UTF-8"?>
<svg version="1.1" xmlns="http://www.w3.org/2000/svg" width="512" height="512">
<path d="M0 0 C0.88080231 0.00115814 1.76160461 0.00231628 2.6690979 0.00350952 C38.87574289 0.09772587 38.87574289 0.09772587 47.5625 6.3125 C47.22180765 9.46390423 46.98173159 10.92031561 44.625 13.125 C42.5625 14.3125 42.5625 14.3125 40.5625 14.3125 C40.5625 15.3025 40.5625 16.2925 40.5625 17.3125 C41.15675781 17.45945312 41.75101562 17.60640625 42.36328125 17.7578125 C54.7382042 21.10654748 64.27757375 27.43649443 72.97070312 36.83496094 C75.67912765 39.34897708 79.19157179 40.46454585 82.5625 41.875 C96.92201558 48.08294038 110.86316336 55.12154041 123.5625 64.3125 C124.16626465 64.74788086 124.7700293 65.18326172 125.39208984 65.63183594 C144.0690219 79.16692174 161.36777048 94.03531934 175.5625 112.3125 C176.56847354 113.56683701 177.57502341 114.82071195 178.58203125 116.07421875 C212.75347465 159.09009613 230.09370583 212.27916944 229.875 266.9375 C229.87284485 267.90805328 229.8706897 268.87860657 229.86846924 269.87857056 C229.8174334 284.20680898 229.47008438 298.23435782 226.5625 312.3125 C226.36382324 313.29557129 226.16514648 314.27864258 225.96044922 315.29150391 C217.77868627 354.63138133 201.0033856 391.1505329 175.5625 422.3125 C175.0571875 422.93350586 174.551875 423.55451172 174.03125 424.19433594 C163.68506153 436.81048894 152.45934046 448.28764502 139.5625 458.3125 C138.08910156 459.49392578 138.08910156 459.49392578 136.5859375 460.69921875 C106.57426474 484.57922071 70.74894799 500.97359393 33.1875 508.625 C32.46498047 508.77227539 31.74246094 508.91955078 30.99804688 509.07128906 C15.66691368 511.96536239 0.50477809 512.68728976 -15.0625 512.625 C-16.03305328 512.62284485 -17.00360657 512.6206897 -18.00357056 512.61846924 C-32.33180898 512.5674334 -46.35935782 512.22008438 -60.4375 509.3125 C-61.91210693 509.01448486 -61.91210693 509.01448486 -63.41650391 508.71044922 C-118.69441369 497.21395295 -171.53524785 467.31803566 -206.4375 422.3125 C-207.47895535 420.99983232 -208.52063822 419.68734513 -209.5625 418.375 C-216.62427604 409.40265731 -222.93715433 400.31636494 -228.4375 390.3125 C-228.90542969 389.46945312 -229.37335938 388.62640625 -229.85546875 387.7578125 C-247.84993764 355.0994705 -260.44917289 318.02337677 -260.640625 280.3984375 C-260.65121445 279.01227737 -260.65121445 279.01227737 -260.66201782 277.59811401 C-260.89036214 238.92842958 -260.89036214 238.92842958 -257.4375 222.3125 C-257.13948486 220.84006836 -257.13948486 220.84006836 -256.83544922 219.33789062 C-248.69089558 180.1708237 -232.15324974 143.11389417 -206.4375 112.3125 C-205.96344727 111.73693359 -205.48939453 111.16136719 -205.00097656 110.56835938 C-194.56721974 97.9251831 -183.40082173 86.3890316 -170.4375 76.3125 C-169.45523438 75.52488281 -168.47296875 74.73726563 -167.4609375 73.92578125 C-143.94348842 55.21098304 -116.97032698 41.08967364 -88.21777344 32.33178711 C-87.15461914 32.00315674 -86.09146484 31.67452637 -84.99609375 31.3359375 C-84.0311499 31.05024902 -83.06620605 30.76456055 -82.07202148 30.47021484 C-78.1279193 28.7370175 -76.05084377 25.92672777 -73.4140625 22.6171875 C-65.37948356 13.24880495 -52.55755661 8.03925851 -41 4.5625 C-40.34507568 4.36382324 -39.69015137 4.16514648 -39.01538086 3.96044922 C-26.12582557 0.30900826 -13.28823777 -0.05382868 0 0 Z " fill="#88CE65" transform="translate(271.4375,-0.3125)"/>
<path d="M0 0 C-0.90901174 1.5877405 -1.82757924 3.17001197 -2.75 4.75 C-3.51570313 6.07257812 -3.51570313 6.07257812 -4.296875 7.421875 C-7.6208823 12.45362917 -10.46490889 14.43231774 -16.1875 16.3125 C-27.71099308 20.55799745 -34.47344679 27.84512557 -40.9375 38.0625 C-43.87867127 46.19397351 -40.83710934 53.63123163 -38.375 61.5 C-35.14568762 72.28988944 -32.57117144 83.05765195 -30.5 94.125 C-30.37067078 94.79877686 -30.24134155 95.47255371 -30.10809326 96.16674805 C-28.64692962 103.83791584 -27.58723069 111.18260797 -28 119 C-28.9075 119.2475 -29.815 119.495 -30.75 119.75 C-34.15021739 121.05777592 -35.71669612 122.20929526 -38 125 C-40.48163426 132.44490277 -38.51744978 138.29475074 -35.6875 145.25 C-33.53019854 150.75834541 -31.60665316 156.06966407 -30.375 161.875 C-29.28765651 166.73406624 -27.95141092 168.98444956 -24 172 C-23.67 172.33 -23.34 172.66 -23 173 C-21.65252916 173.23075082 -20.29622435 173.41153063 -18.9375 173.5625 C-17.638125 173.706875 -16.33875 173.85125 -15 174 C-14.93530518 174.58265625 -14.87061035 175.1653125 -14.80395508 175.765625 C-12.11202843 199.27896885 -6.39173661 223.60826339 11 241 C11.20970994 245.33400546 11.08828066 248.82001292 10 253 C8.3467456 267.40693122 17.4911052 280.57986914 25.90234375 291.4609375 C30.16482668 296.56894363 34.9208088 300.40264225 40.38671875 304.17578125 C44.97646596 307.3796855 48.29526698 309.77949592 50.6875 314.9375 C51.28111328 316.18853516 51.28111328 316.18853516 51.88671875 317.46484375 C52.98095696 319.95663532 54.00733027 322.46619918 55 325 C49.72684667 324.5547115 44.98229776 323.91626837 40 322 C39.77570313 322.54398437 39.55140625 323.08796875 39.3203125 323.6484375 C37.596282 326.71904804 35.28847072 329.09522236 32.875 331.625 C28.57443187 336.2002678 24.60909858 340.90101094 20.8515625 345.94140625 C18.13684083 348.95967275 15.54813474 350.70558452 11.53515625 351.46875 C10.71917969 351.4790625 9.90320313 351.489375 9.0625 351.5 C7.84240234 351.54640625 7.84240234 351.54640625 6.59765625 351.59375 C1.71295228 350.47724624 -1.31363869 347.08432736 -3.89941406 342.99926758 C-4.69943848 341.3386731 -4.69943848 341.3386731 -5.515625 339.64453125 C-5.81341354 339.03330414 -6.11120209 338.42207703 -6.41801453 337.79232788 C-7.37835492 335.8064163 -8.3152154 333.81055321 -9.25 331.8125 C-9.90823109 330.43071999 -10.56651617 329.04896571 -11.22485352 327.66723633 C-27 294.24731253 -27 294.24731253 -27 287 C-27.94773285 287.37436943 -27.94773285 287.37436943 -28.91461182 287.75630188 C-41.7685366 292.8141957 -54.65497911 297.66075908 -67.734375 302.10546875 C-68.9661145 302.524263 -70.197854 302.94305725 -71.46691895 303.37454224 C-76.50595247 305.08287051 -81.54720007 306.78449187 -86.59179688 308.47631836 C-112.56378665 316.89433297 -112.56378665 316.89433297 -135 332 C-135.61101562 332.51820313 -136.22203125 333.03640625 -136.8515625 333.5703125 C-142.85259261 339.02330333 -146.80508577 346.14164817 -151 353 C-168.53837193 336.82735948 -175.44858103 297.60512201 -179 275 C-179.27493286 273.27970581 -179.27493286 273.27970581 -179.55541992 271.5246582 C-181.20608344 259.99785434 -181.35768364 248.56781637 -181.3125 236.9375 C-181.31034485 235.94077271 -181.3081897 234.94404541 -181.30596924 233.91711426 C-181.25566577 219.42913258 -180.95768725 205.23303944 -178 191 C-177.70198486 189.52756836 -177.70198486 189.52756836 -177.39794922 188.02539062 C-169.25339558 148.8583237 -152.71574974 111.80139417 -127 81 C-126.52594727 80.42443359 -126.05189453 79.84886719 -125.56347656 79.25585938 C-115.12971974 66.6126831 -103.96332173 55.0765316 -91 45 C-89.52660156 43.81857422 -89.52660156 43.81857422 -88.0234375 42.61328125 C-72.57561266 30.32015695 -19.40686783 -9.70343392 0 0 Z " fill="#72C2F8" transform="translate(192,31)"/>
<path d="M0 0 C37.16457124 6.10208299 78.58493226 44.13828468 101 73 C102.00597354 74.25433701 103.01252341 75.50821195 104.01953125 76.76171875 C138.19097465 119.77759613 155.53120583 172.96666944 155.3125 227.625 C155.30926727 229.08082993 155.30926727 229.08082993 155.30596924 230.56607056 C155.2549334 244.89430898 154.90758438 258.92185782 152 273 C151.80132324 273.98307129 151.60264648 274.96614258 151.39794922 275.97900391 C146.54283413 299.32356105 139.29882132 323.39014061 127 344 C126.34 344.33 125.68 344.66 125 345 C124.59910156 344.32195312 124.19820312 343.64390625 123.78515625 342.9453125 C107.21789139 315.82158182 82.4505312 308.19852524 53.9375 298.625 C48.61021567 296.83451195 43.28533727 295.03713778 37.96484375 293.2265625 C37.32253185 293.00821999 36.68021996 292.78987747 36.01844406 292.56491852 C24.14633169 288.51599232 12.52161853 283.95635354 1 279 C0.67290039 280.0842627 0.34580078 281.16852539 0.00878906 282.28564453 C-3.08834826 292.44620503 -7.09264722 302.13414437 -11.4375 311.8125 C-11.97463623 313.01479248 -12.51177246 314.21708496 -13.06518555 315.45581055 C-23.59989119 338.65314021 -23.59989119 338.65314021 -30 343 C-32.71875 343.56640625 -32.71875 343.56640625 -35.5 343.5625 C-36.4178125 343.58441406 -37.335625 343.60632813 -38.28125 343.62890625 C-42.08307623 342.74946081 -43.429811 340.90816492 -46 338 C-47.02595475 336.90762255 -48.05474889 335.81790689 -49.0859375 334.73046875 C-53.86012618 329.60064073 -58.63246481 324.46599014 -63.3125 319.25 C-64.11107422 318.36054687 -64.11107422 318.36054687 -64.92578125 317.453125 C-66 316 -66 316 -66 314 C-66.56847656 314.20496094 -67.13695312 314.40992188 -67.72265625 314.62109375 C-72.5084454 316.29092669 -76.95943201 317.46376936 -82 318 C-80.61789271 313.97932426 -78.60098212 310.6146932 -76.31640625 307.0625 C-74.93694236 304.96072211 -74.93694236 304.96072211 -73.6640625 302.4921875 C-71.71256578 299.56952341 -69.71160862 298.09590318 -66.8125 296.125 C-51.5895951 285.34294252 -39.98527925 270.72292084 -36 252 C-36.0547748 249.65428845 -36.27772335 247.36790867 -36.53759766 245.03637695 C-37.70950985 234.49020798 -37.70950985 234.49020798 -35.83203125 230.546875 C-34.125 228.8125 -34.125 228.8125 -32.16796875 227.10546875 C-22.68317197 217.89410755 -18.61481879 203.32060915 -15 191 C-14.64035156 189.865625 -14.28070313 188.73125 -13.91015625 187.5625 C-12.8061932 183.24140857 -12.31056137 178.99308743 -11.875 174.5625 C-11.74544922 173.32209961 -11.74544922 173.32209961 -11.61328125 172.05664062 C-11.40328384 170.03833222 -11.20085549 168.01923867 -11 166 C-10.35764404 165.89453857 -9.71528809 165.78907715 -9.0534668 165.68041992 C-8.31394775 165.55900635 -7.57442871 165.43759277 -6.8125 165.3125 C-6.03519531 165.18488281 -5.25789063 165.05726563 -4.45703125 164.92578125 C-0.99942411 163.62299446 0.67218722 161.85294227 3 159 C4.23945315 155.7691585 4.23945315 155.7691585 4.9375 152.1875 C6.26863049 146.43787509 8.04458142 141.09645831 10.25 135.625 C12.94811473 128.74884063 14.59824972 123.32467572 11.9375 116.125 C9.26305164 113.19173405 6.72283507 112.33460125 3 111 C1.70756404 90.56036468 6.77237969 68.00888148 15.875 49.75 C19.36686485 42.66249601 20.46004727 38.41282944 17.953125 30.8359375 C14.3929641 21.81552983 9.43204827 13.98017273 4 6 C2.66329195 4.00223314 1.33195301 2.00094299 0 0 Z " fill="#72C2F8" transform="translate(346,39)"/>
<path d="M0 0 C0.87081207 0.0036557 1.74162415 0.0073114 2.63882446 0.01107788 C38.66499863 0.18831064 38.66499863 0.18831064 47.3125 6.375 C46.97180765 9.52640423 46.73173159 10.98281561 44.375 13.1875 C42.3125 14.375 42.3125 14.375 40.3125 14.375 C40.3125 15.365 40.3125 16.355 40.3125 17.375 C40.90675781 17.52195312 41.50101563 17.66890625 42.11328125 17.8203125 C62.42480668 23.31674395 75.80549827 38.08991201 86.19921875 55.74316406 C91.05688567 64.25709278 95.59212006 72.31104667 94.3125 82.375 C93.36453338 85.34094245 92.0308071 88.0393882 90.625 90.8125 C81.75855702 109.60403652 78.71269223 129.75837649 77.3125 150.375 C78.08078125 150.48972656 78.8490625 150.60445312 79.640625 150.72265625 C83.30996949 151.61853422 84.85989638 153.58175698 87.3125 156.375 C89.3401898 160.43037961 88.83218609 165.40201775 87.70068359 169.69775391 C86.86220746 172.05725692 85.95213784 174.37159205 85 176.6875 C82.84543752 182.1711589 80.89785275 187.47925748 79.625 193.25 C78.4481436 198.38798282 76.8478711 201.53904161 72.5 204.6875 C69.40955745 205.65878195 66.52670305 205.49862319 63.3125 205.375 C63.27125 206.344375 63.23 207.31375 63.1875 208.3125 C62.01654228 216.3628343 55.35094517 223.32989213 49.3125 228.375 C43.46634615 232.375 43.46634615 232.375 40.3125 232.375 C40.03277344 231.54097656 39.75304687 230.70695313 39.46484375 229.84765625 C35.94742679 219.97400672 31.24737189 210.2542707 21.37890625 205.4296875 C15.93503013 203.09790919 10.28334779 201.35298743 4.625 199.625 C3.9124707 199.40207275 3.19994141 199.17914551 2.46582031 198.94946289 C-2.0174304 197.62458214 -5.96335405 197.01711016 -10.6875 197.375 C-12.50226003 198.77085785 -12.50226003 198.77085785 -13.6875 200.375 C-14.3475 200.375 -15.0075 200.375 -15.6875 200.375 C-16.05875 199.88 -16.43 199.385 -16.8125 198.875 C-19.76971248 196.50923002 -23.07993158 197.062062 -26.6875 197.375 C-29.38574917 197.93065808 -31.9559575 198.73931272 -34.5625 199.625 C-35.60567383 199.96942139 -35.60567383 199.96942139 -36.66992188 200.32080078 C-38.68052698 200.99240263 -40.68389959 201.68284713 -42.6875 202.375 C-43.66976562 202.69726562 -44.65203125 203.01953125 -45.6640625 203.3515625 C-54.87990927 206.63274633 -60.65988026 212.26265545 -65.43359375 220.73046875 C-67.36763098 224.80941954 -68.62539135 228.996131 -69.6875 233.375 C-77.88246885 232.15567938 -84.50456046 225.57691551 -89.6875 219.375 C-92.87768663 214.69444841 -95.02192381 211.15141128 -94.6875 205.375 C-95.904375 205.4575 -97.12125 205.54 -98.375 205.625 C-101.56439165 205.61373006 -102.63349606 205.40620228 -105.5 203.75 C-109.64367837 199.2511492 -111.1476758 194.16586561 -112.5625 188.3125 C-113.84100847 183.16720519 -115.40966738 178.35241635 -117.4375 173.4375 C-119.65930656 167.81763635 -121.28785379 163.29042868 -118.8828125 157.40625 C-117.18193638 154.18908897 -115.73360493 152.40573662 -112.6875 150.375 C-110 150.25 -110 150.25 -107.6875 150.375 C-110.24445526 129.25413377 -113.97465328 108.69058658 -120.45214844 88.39111328 C-122.40000681 82.12921343 -124.00489895 76.43973846 -121.91015625 69.9765625 C-114.42689803 57.22730776 -104.96067916 49.12566614 -90.9140625 44.52734375 C-85.98970418 41.97877234 -83.70741428 36.78455112 -81.0625 32.125 C-73.06306938 18.74090062 -60.46168342 11.10871378 -46 6.125 C-45.33097656 5.89079346 -44.66195312 5.65658691 -43.97265625 5.4152832 C-29.54503766 0.75803456 -15.03789902 -0.13808397 0 0 Z " fill="#FEC6AA" transform="translate(271.6875,-0.375)"/>
<path d="M0 0 C-0.90901174 1.5877405 -1.82757924 3.17001197 -2.75 4.75 C-3.51570313 6.07257812 -3.51570313 6.07257812 -4.296875 7.421875 C-7.6208823 12.45362917 -10.46490889 14.43231774 -16.1875 16.3125 C-27.71099308 20.55799745 -34.47344679 27.84512557 -40.9375 38.0625 C-43.87867127 46.19397351 -40.83710934 53.63123163 -38.375 61.5 C-35.14568762 72.28988944 -32.57117144 83.05765195 -30.5 94.125 C-30.37067078 94.79877686 -30.24134155 95.47255371 -30.10809326 96.16674805 C-28.64692962 103.83791584 -27.58723069 111.18260797 -28 119 C-28.9075 119.2475 -29.815 119.495 -30.75 119.75 C-34.15021739 121.05777592 -35.71669612 122.20929526 -38 125 C-40.48163426 132.44490277 -38.51744978 138.29475074 -35.6875 145.25 C-33.53019854 150.75834541 -31.60665316 156.06966407 -30.375 161.875 C-29.28765651 166.73406624 -27.95141092 168.98444956 -24 172 C-23.67 172.33 -23.34 172.66 -23 173 C-21.65252916 173.23075082 -20.29622435 173.41153063 -18.9375 173.5625 C-17.638125 173.706875 -16.33875 173.85125 -15 174 C-14.93530518 174.58265625 -14.87061035 175.1653125 -14.80395508 175.765625 C-12.11202843 199.27896885 -6.39173661 223.60826339 11 241 C11.20970994 245.33400546 11.08828066 248.82001292 10 253 C8.3467456 267.40693122 17.4911052 280.57986914 25.90234375 291.4609375 C30.16482668 296.56894363 34.9208088 300.40264225 40.38671875 304.17578125 C44.97646596 307.3796855 48.29526698 309.77949592 50.6875 314.9375 C51.28111328 316.18853516 51.28111328 316.18853516 51.88671875 317.46484375 C52.98095696 319.95663532 54.00733027 322.46619918 55 325 C49.72684667 324.5547115 44.98229776 323.91626837 40 322 C39.77570313 322.54398437 39.55140625 323.08796875 39.3203125 323.6484375 C37.596282 326.71904804 35.28847072 329.09522236 32.875 331.625 C28.57443187 336.2002678 24.60909858 340.90101094 20.8515625 345.94140625 C18.13684083 348.95967275 15.54813474 350.70558452 11.53515625 351.46875 C10.71917969 351.4790625 9.90320313 351.489375 9.0625 351.5 C7.84240234 351.54640625 7.84240234 351.54640625 6.59765625 351.59375 C1.71295228 350.47724624 -1.31363869 347.08432736 -3.89941406 342.99926758 C-4.69943848 341.3386731 -4.69943848 341.3386731 -5.515625 339.64453125 C-5.81341354 339.03330414 -6.11120209 338.42207703 -6.41801453 337.79232788 C-7.37835492 335.8064163 -8.3152154 333.81055321 -9.25 331.8125 C-9.90823109 330.43071999 -10.56651617 329.04896571 -11.22485352 327.66723633 C-27 294.24731253 -27 294.24731253 -27 287 C-27.94773285 287.37436943 -27.94773285 287.37436943 -28.91461182 287.75630188 C-41.7685366 292.8141957 -54.65497911 297.66075908 -67.734375 302.10546875 C-68.9661145 302.524263 -70.197854 302.94305725 -71.46691895 303.37454224 C-76.50595247 305.08287051 -81.54720007 306.78449187 -86.59179688 308.47631836 C-112.56378665 316.89433297 -112.56378665 316.89433297 -135 332 C-135.61101562 332.51820313 -136.22203125 333.03640625 -136.8515625 333.5703125 C-142.85259261 339.02330333 -146.80508577 346.14164817 -151 353 C-154.99342663 349.40548322 -156.74638115 344.72644006 -159 339.9375 C-159.43828125 339.03322266 -159.8765625 338.12894531 -160.328125 337.19726562 C-163.14700639 331.25808631 -165.30728335 325.35198805 -167 319 C-164.34764948 316.64986567 -161.67673936 314.32234241 -159 312 C-158.15179688 311.25105469 -157.30359375 310.50210937 -156.4296875 309.73046875 C-137.60045742 293.49746956 -115.76956007 281.68069752 -93.0625 271.8125 C-75.02478657 263.96787494 -55.52401338 255.0134874 -47.625 235.625 C-44.76260688 219.02311988 -52.01957674 204.46467282 -58.43310547 189.51293945 C-65.18930997 173.74105702 -68.91748678 158.08141228 -64 141.1875 C-62.24430814 135.08629972 -61.61504274 129.41336644 -61.625 123.0625 C-61.62371094 122.29381592 -61.62242187 121.52513184 -61.62109375 120.7331543 C-61.78456592 112.13321802 -63.69601998 104.69564877 -67.625 97.0625 C-67.97546387 96.3722876 -68.32592773 95.6820752 -68.68701172 94.97094727 C-71.79128189 89.04706892 -75.55873074 83.99875075 -80 79 C-80.76957031 78.05253906 -80.76957031 78.05253906 -81.5546875 77.0859375 C-87.94228501 69.24818271 -96.10246146 63.23064004 -104 57 C-102.35810173 55.30337179 -100.6924046 53.64593124 -99 52 C-98.36449219 51.37996094 -97.72898437 50.75992188 -97.07421875 50.12109375 C-83.09732951 37.0132339 -66.86916752 26.93714243 -50 18 C-49.16130371 17.55527344 -48.32260742 17.11054687 -47.45849609 16.65234375 C-7.92692161 -3.96346081 -7.92692161 -3.96346081 0 0 Z " fill="#49B0F6" transform="translate(192,31)"/>
<path d="M0 0 C28.40530582 4.66389165 56.8398131 29.59353605 78 48 C74.7914689 51.24849502 71.52514733 54.39040311 68.125 57.4375 C67.25101563 58.22511719 66.37703125 59.01273438 65.4765625 59.82421875 C63.52396963 61.53966706 61.54281576 63.14769664 59.5 64.75 C51.73581444 71.43633392 46.07361739 80.24193588 41.5 89.3125 C41.17394775 89.95751465 40.84789551 90.6025293 40.51196289 91.26708984 C36.94153887 98.68893909 35.61131153 105.72698324 35.625 113.9375 C35.62371094 114.76161377 35.62242187 115.58572754 35.62109375 116.43481445 C35.72936788 122.8592848 36.89953043 128.60222129 38.56347656 134.77929688 C42.3132348 149.27473253 39.74207437 163.3614503 34.3125 177.0625 C33.9623584 177.96572998 33.6122168 178.86895996 33.25146484 179.79956055 C30.69701566 186.35030102 28.04571002 192.86297245 25.2590332 199.31860352 C21.08465578 209.16652721 18.85436027 219.71916955 22.4375 230.125 C30.72179929 248.19983481 50.61033366 256.27056685 67.5859375 264.0078125 C89.67609163 274.09234951 110.27314067 285.0952255 129 300.6875 C129.5161084 301.11482422 130.0322168 301.54214844 130.56396484 301.98242188 C134.46622285 305.3137728 137.7516783 309.03534849 141 313 C136.52724583 324.00181351 131.92195377 334.69209922 126 345 C123.27174794 341.65004448 120.72802238 338.22533774 118.25 334.6875 C106.01417163 317.89985334 89.60490866 310.69023562 70.35546875 304.234375 C69.05602637 303.79294134 67.75682199 303.35080652 66.45783997 302.90802002 C61.69020203 301.28436695 56.91887008 299.67170261 52.14672852 298.06134033 C47.46368617 296.48084171 42.78277845 294.89426541 38.10546875 293.296875 C37.45717983 293.07554398 36.80889091 292.85421295 36.14095688 292.62617493 C24.23260554 288.54607748 12.56327232 283.97217122 1 279 C0.67290039 280.0842627 0.34580078 281.16852539 0.00878906 282.28564453 C-3.08834826 292.44620503 -7.09264722 302.13414437 -11.4375 311.8125 C-11.97463623 313.01479248 -12.51177246 314.21708496 -13.06518555 315.45581055 C-23.59989119 338.65314021 -23.59989119 338.65314021 -30 343 C-32.71875 343.56640625 -32.71875 343.56640625 -35.5 343.5625 C-36.4178125 343.58441406 -37.335625 343.60632813 -38.28125 343.62890625 C-42.08307623 342.74946081 -43.429811 340.90816492 -46 338 C-47.02595475 336.90762255 -48.05474889 335.81790689 -49.0859375 334.73046875 C-53.86012618 329.60064073 -58.63246481 324.46599014 -63.3125 319.25 C-64.11107422 318.36054687 -64.11107422 318.36054687 -64.92578125 317.453125 C-66 316 -66 316 -66 314 C-66.56847656 314.20496094 -67.13695312 314.40992188 -67.72265625 314.62109375 C-72.5084454 316.29092669 -76.95943201 317.46376936 -82 318 C-80.61789271 313.97932426 -78.60098212 310.6146932 -76.31640625 307.0625 C-74.93694236 304.96072211 -74.93694236 304.96072211 -73.6640625 302.4921875 C-71.71256578 299.56952341 -69.71160862 298.09590318 -66.8125 296.125 C-51.5895951 285.34294252 -39.98527925 270.72292084 -36 252 C-36.0547748 249.65428845 -36.27772335 247.36790867 -36.53759766 245.03637695 C-37.70950985 234.49020798 -37.70950985 234.49020798 -35.83203125 230.546875 C-34.125 228.8125 -34.125 228.8125 -32.16796875 227.10546875 C-22.68317197 217.89410755 -18.61481879 203.32060915 -15 191 C-14.64035156 189.865625 -14.28070313 188.73125 -13.91015625 187.5625 C-12.8061932 183.24140857 -12.31056137 178.99308743 -11.875 174.5625 C-11.74544922 173.32209961 -11.74544922 173.32209961 -11.61328125 172.05664062 C-11.40328384 170.03833222 -11.20085549 168.01923867 -11 166 C-10.35764404 165.89453857 -9.71528809 165.78907715 -9.0534668 165.68041992 C-8.31394775 165.55900635 -7.57442871 165.43759277 -6.8125 165.3125 C-6.03519531 165.18488281 -5.25789063 165.05726563 -4.45703125 164.92578125 C-0.99942411 163.62299446 0.67218722 161.85294227 3 159 C4.23945315 155.7691585 4.23945315 155.7691585 4.9375 152.1875 C6.26863049 146.43787509 8.04458142 141.09645831 10.25 135.625 C12.94811473 128.74884063 14.59824972 123.32467572 11.9375 116.125 C9.26305164 113.19173405 6.72283507 112.33460125 3 111 C1.70756404 90.56036468 6.77237969 68.00888148 15.875 49.75 C19.36686485 42.66249601 20.46004727 38.41282944 17.953125 30.8359375 C14.3929641 21.81552983 9.43204827 13.98017273 4 6 C2.66329195 4.00223314 1.33195301 2.00094299 0 0 Z " fill="#49B0F6" transform="translate(346,39)"/>
<path d="M0 0 C0.87081207 0.0036557 1.74162415 0.0073114 2.63882446 0.01107788 C38.66499863 0.18831064 38.66499863 0.18831064 47.3125 6.375 C46.97180765 9.52640423 46.73173159 10.98281561 44.375 13.1875 C42.3125 14.375 42.3125 14.375 40.3125 14.375 C40.3125 15.365 40.3125 16.355 40.3125 17.375 C40.90675781 17.52195312 41.50101563 17.66890625 42.11328125 17.8203125 C62.42480668 23.31674395 75.80549827 38.08991201 86.19921875 55.74316406 C91.05688567 64.25709278 95.59212006 72.31104667 94.3125 82.375 C93.36453338 85.34094245 92.0308071 88.0393882 90.625 90.8125 C81.72878093 109.66714394 78.8540564 129.71814424 77.3125 150.375 C74.0125 151.035 70.7125 151.695 67.3125 152.375 C66.94125 150.9725 66.57 149.57 66.1875 148.125 C64.98561185 144.00239054 63.37318006 140.60694238 61.23828125 136.890625 C57.73898886 130.00444174 57.52108965 123.98955046 57.625 116.375 C57.67496823 103.29760033 57.03531107 90.66427643 47.71484375 80.66015625 C39.47644363 72.98474475 29.43455646 72.02884644 18.57421875 72.08203125 C10.59524714 72.44749449 2.89742855 74.85677971 -4.76928711 76.94091797 C-14.81038756 79.58137746 -22.84941331 78.65691177 -32.61328125 75.3984375 C-44.89684417 71.30911922 -58.83944157 70.2972113 -71.06640625 75.05859375 C-79.0701663 79.07836594 -83.69132379 84.99035184 -86.6875 93.375 C-88.64695601 99.72956043 -88.8488316 105.79423444 -88.86303711 112.41308594 C-88.90498008 125.20826035 -89.96301139 133.55872351 -96.6875 144.375 C-97.62528939 147.0671023 -98.18179241 149.56551338 -98.6875 152.375 C-101.6575 151.715 -104.6275 151.055 -107.6875 150.375 C-107.84605469 149.0653125 -108.00460938 147.755625 -108.16796875 146.40625 C-110.65449889 126.63503469 -114.38795662 107.39535749 -120.45214844 88.39111328 C-122.40000681 82.12921343 -124.00489895 76.43973846 -121.91015625 69.9765625 C-114.42689803 57.22730776 -104.96067916 49.12566614 -90.9140625 44.52734375 C-85.98970418 41.97877234 -83.70741428 36.78455112 -81.0625 32.125 C-73.06306938 18.74090062 -60.46168342 11.10871378 -46 6.125 C-45.33097656 5.89079346 -44.66195312 5.65658691 -43.97265625 5.4152832 C-29.54503766 0.75803456 -15.03789902 -0.13808397 0 0 Z " fill="#945230" transform="translate(271.6875,-0.375)"/>
<path d="M0 0 C0.47308594 1.20011719 0.94617188 2.40023438 1.43359375 3.63671875 C5.09732197 12.88791376 8.83980216 22.09995659 12.75 31.25 C13.11407959 32.10553467 13.47815918 32.96106934 13.85327148 33.8425293 C15.5429352 37.77272493 17.29554538 41.62367229 19.265625 45.421875 C21 49 21 49 21 52 C20.42894531 52.13535156 19.85789063 52.27070313 19.26953125 52.41015625 C7.00708812 55.66584465 -5.65909306 61.97170225 -12.84765625 72.77734375 C-16.9734058 80.04373481 -18.14133436 85.77016072 -18.20532227 94.0949707 C-18.21522186 94.89549362 -18.22512146 95.69601654 -18.23532104 96.52079773 C-18.26680277 99.15576258 -18.29164055 101.79074544 -18.31640625 104.42578125 C-18.3369873 106.25709999 -18.35798407 108.0884141 -18.37937927 109.91972351 C-18.43448111 114.73158004 -18.48394267 119.54347859 -18.53222656 124.35540771 C-18.58252855 129.26887741 -18.63816916 134.18228634 -18.69335938 139.09570312 C-18.80079548 148.73041679 -18.90227257 158.3651833 -19 168 C-50.0302291 158.02272073 -80.25723223 129.01132363 -100 104 C-100.50370117 103.36739258 -101.00740234 102.73478516 -101.52636719 102.08300781 C-109.14961192 92.47707691 -116.06954181 82.74414179 -122 72 C-122.63164063 70.97777344 -123.26328125 69.95554687 -123.9140625 68.90234375 C-125 66 -125 66 -124.078125 63.359375 C-109.19801532 42.12024409 -93.00807519 31.9098149 -68.875 23.8125 C-66.97029897 23.16247242 -65.06608875 22.51100501 -63.16235352 21.8581543 C-59.30766623 20.53717316 -55.45119273 19.22163219 -51.59326172 17.91015625 C-44.07859 15.35031802 -36.58840823 12.72193046 -29.10333252 10.07699585 C-26.99872834 9.33411239 -24.89280592 8.59507761 -22.78662109 7.85668945 C-16.41206312 5.61430871 -10.08989806 3.30460936 -3.85766602 0.68823242 C-2 0 -2 0 0 0 Z " fill="#6FAF46" transform="translate(165,318)"/>
<path d="M0 0 C0.680625 -0.01417969 1.36125 -0.02835938 2.0625 -0.04296875 C4 0.1875 4 0.1875 7 2.1875 C7 2.8475 7 3.5075 7 4.1875 C7.66 4.1875 8.32 4.1875 9 4.1875 C9.33 3.1975 9.66 2.2075 10 1.1875 C15.90854926 -1.76677463 22.91977847 1.03560528 28.8125 2.875 C29.7003418 3.15045654 30.58818359 3.42591309 31.50292969 3.7097168 C44.63573625 7.88581414 53.30415485 12.79059663 59.9375 25.375 C61.60064656 28.95243942 62.6864831 32.21628596 63 36.1875 C73.33483476 30.51061893 79.76691668 24.82247579 85 14.1875 C85.33 14.1875 85.66 14.1875 86 14.1875 C85.91002254 38.8413247 74.17822399 63.07456016 57.125 80.4375 C52.1526745 85.34374551 46.94926935 89.49986129 41 93.1875 C40.04222656 93.79335938 39.08445312 94.39921875 38.09765625 95.0234375 C35.1102709 96.84585791 32.08783624 98.54174032 29 100.1875 C28.20851563 100.62578125 27.41703125 101.0640625 26.6015625 101.515625 C16.33197319 106.23498319 2.28397433 105.76305532 -8.59375 103.41015625 C-11.61807447 102.24280024 -14.22378301 100.86299767 -17 99.1875 C-17.6192334 98.83333008 -18.2384668 98.47916016 -18.87646484 98.11425781 C-27.79108936 93.00983038 -35.65883462 87.42246408 -43 80.1875 C-43.68191406 79.57777344 -44.36382812 78.96804688 -45.06640625 78.33984375 C-60.98850528 63.66409298 -69.64313132 40.27527239 -72 19.1875 C-72.0274688 17.52105971 -72.03622333 15.85377298 -72 14.1875 C-70.52872695 16.13337727 -69.07344856 18.08241872 -67.67578125 20.08203125 C-62.07128081 27.96687285 -55.83068523 33.24522981 -47 37.1875 C-46.938125 36.23875 -46.87625 35.29 -46.8125 34.3125 C-45.33811602 24.43014249 -38.81322348 15.7220511 -31.08203125 9.69140625 C-23.83541467 5.1920563 -15.1463447 3.42645309 -7 1.1875 C-4.35559361 0.3060312 -2.71939248 0.02575182 0 0 Z " fill="#945331" transform="translate(249,195.8125)"/>
<path d="M0 0 C-0.4012207 0.44802979 -0.80244141 0.89605957 -1.21582031 1.35766602 C-4.17488467 4.72313124 -6.7782015 7.87910652 -8.75 11.9375 C-9.13671875 12.70964844 -9.5234375 13.48179688 -9.921875 14.27734375 C-12.76339359 21.45320773 -13.15973179 27.63602922 -13.17553711 35.30517578 C-13.21107666 46.65317305 -13.30201269 55.41330748 -19.34375 65.21875 C-21.96616377 69.62242595 -22.60077965 73.95060186 -23 79 C-23.06960937 79.84949219 -23.13921875 80.69898438 -23.2109375 81.57421875 C-23.60122453 92.09695743 -21.56357318 102.62784014 -20 113 C-19.88833496 113.74749512 -19.77666992 114.49499023 -19.66162109 115.26513672 C-19.12509608 118.84624863 -18.57341155 122.4246103 -18 126 C-18.6290625 126.20753906 -19.258125 126.41507813 -19.90625 126.62890625 C-30.62822353 130.48817082 -37.11348813 136.69417902 -42 147 C-43.19114876 150.29476241 -44.17436856 153.59608089 -45 157 C-53.19496885 155.78067938 -59.81706046 149.20191551 -65 143 C-68.19018663 138.31944841 -70.33442381 134.77641128 -70 129 C-71.216875 129.0825 -72.43375 129.165 -73.6875 129.25 C-76.87689165 129.23873006 -77.94599606 129.03120228 -80.8125 127.375 C-84.95617837 122.8761492 -86.4601758 117.79086561 -87.875 111.9375 C-89.15350847 106.79220519 -90.72216738 101.97741635 -92.75 97.0625 C-94.97180656 91.44263635 -96.60035379 86.91542868 -94.1953125 81.03125 C-92.49443638 77.81408897 -91.04610493 76.03073662 -88 74 C-83.03635538 73.3679254 -78.4951086 73.67994395 -74 76 C-73.92523438 75.41734375 -73.85046875 74.8346875 -73.7734375 74.234375 C-72.93955896 69.03489706 -71.60744995 65.07928101 -68.95703125 60.515625 C-65.42579643 53.6250484 -65.20835497 47.63174815 -65.3125 40 C-65.36692839 25.75531173 -64.08066996 14.26169095 -54.4765625 3.25390625 C-39.79320713 -11.10713156 -17.29439876 -4.74233805 0 0 Z " fill="#FEA97A" transform="translate(247,76)"/>
<path d="M0 0 C-3.17149231 3.23356778 -6.4278951 6.25250493 -9.875 9.1875 C-20.13464666 18.3952661 -28.13157158 31.21812709 -29.25390625 45.15234375 C-29.61896538 55.80971516 -27.5200377 64.87374856 -22 74 C-22 74.66 -22 75.32 -22 76 C-26.19414813 75.35135547 -30.25567829 74.45020736 -34.375 73.4375 C-47.25926503 70.69211863 -60.78281678 70.19886799 -72.33984375 77.47265625 C-80.11364725 83.5961551 -83.63889043 92.40925104 -85 102 C-85.14771769 105.34931538 -85.16834203 108.68564358 -85.17553711 112.03808594 C-85.21748008 124.83326035 -86.27551139 133.18372351 -93 144 C-93.93778939 146.6921023 -94.49429241 149.19051338 -95 152 C-97.97 151.34 -100.94 150.68 -104 150 C-104.15855469 148.6903125 -104.31710938 147.380625 -104.48046875 146.03125 C-106.96699889 126.26003469 -110.70045662 107.02035749 -116.76464844 88.01611328 C-118.71250681 81.75421343 -120.31739895 76.06473846 -118.22265625 69.6015625 C-110.73939803 56.85230776 -101.27317916 48.75066614 -87.2265625 44.15234375 C-82.30220418 41.60377234 -80.01991428 36.40955112 -77.375 31.75 C-67.5550646 15.31995671 -50.82122151 7.77293557 -33 3 C-21.98288163 0.26944846 -11.31487412 -0.41117308 0 0 Z " fill="#753616" transform="translate(268,0)"/>
<path d="M0 0 C0.94875 0.825 1.8975 1.65 2.875 2.5 C3.52597656 3.05171875 4.17695313 3.6034375 4.84765625 4.171875 C6.26448238 5.37527723 7.66863979 6.59378259 9.05859375 7.828125 C14.42002079 12.39974043 20.11517394 15.95719366 26.25 19.375 C27.01868408 19.80393555 27.78736816 20.23287109 28.5793457 20.67480469 C40.34662848 27.07775999 54.79964685 28.56334428 67.94140625 25.16015625 C71.14586474 23.99239653 74.01789852 22.65316498 77 21 C78.09441406 20.39542969 79.18882812 19.79085938 80.31640625 19.16796875 C87.36973443 15.02424061 93.75985241 10.2732058 100 5 C101.20829232 3.99995044 102.41661896 2.99994235 103.625 2 C104.40875 1.34 105.1925 0.68 106 0 C109.50316041 16.84991205 105.88902721 28.42487067 96.98828125 43.0625 C91.46595274 51.22122503 85.2026955 57.03155776 77.1875 62.5625 C71.8255792 66.26765122 68.29921709 69.31397778 65.95703125 75.61328125 C64.62258579 78.94122483 63.40563929 81.30089588 61 84 C58.05169853 84.73341393 55.26469185 84.56998007 52.25 84.375 C51.45722656 84.34792969 50.66445312 84.32085937 49.84765625 84.29296875 C47.89726634 84.22247273 45.94828099 84.11485499 44 84 C43.443125 82.865625 42.88625 81.73125 42.3125 80.5625 C41.93867188 79.83160156 41.56484375 79.10070312 41.1796875 78.34765625 C40.41813489 76.83211612 39.69117614 75.29845918 39.0078125 73.74609375 C36.1284466 67.70362881 32.36616008 64.74922293 26.8984375 61.00390625 C12.54489937 51.08023366 2.91234623 36.67103326 -2 20 C-3.12670755 13.30121148 -1.37452408 6.565807 0 0 Z " fill="#FEAA7B" transform="translate(203,273)"/>
<path d="M0 0 C3.56944452 1.41230054 6.04685204 3.43974774 8.7578125 6.078125 C9.27666016 6.57030518 9.79550781 7.06248535 10.33007812 7.56958008 C14.96161804 12.04831361 19.30571751 16.76685276 22.8828125 22.140625 C23.3048999 22.71772217 23.7269873 23.29481934 24.16186523 23.8894043 C25.51288183 26.01303434 26.35816631 27.67336254 26.8828125 30.140625 C25.92521337 33.72479289 24.01129695 36.52648382 21.9453125 39.578125 C21.3884375 40.44775879 20.8315625 41.31739258 20.2578125 42.21337891 C14.61093174 50.88424643 8.42375875 59.12876743 1.8828125 67.140625 C1.12484375 68.07213379 1.12484375 68.07213379 0.3515625 69.02246094 C-9.9788156 81.61933475 -21.18949974 93.18648674 -34.1171875 103.140625 C-34.65359863 103.55393066 -35.19000977 103.96723633 -35.74267578 104.39306641 C-45.83285833 112.140625 -45.83285833 112.140625 -47.1171875 112.140625 C-47.19375323 104.52757264 -47.2460025 96.91462096 -47.28198242 89.30126953 C-47.29699462 86.7156198 -47.31741063 84.12999522 -47.34350586 81.54443359 C-47.38022295 77.81080896 -47.39699024 74.07752334 -47.41015625 70.34375 C-47.42564011 69.20262756 -47.44112396 68.06150513 -47.45707703 66.88580322 C-47.46125886 46.58065528 -38.27058829 31.65086637 -24.6171875 17.265625 C-20.26580593 13.02910909 -15.65446356 9.18812012 -10.8671875 5.453125 C-10.19365234 4.91123535 -9.52011719 4.3693457 -8.82617188 3.81103516 C-5.72677002 1.46502401 -3.94949144 0.17817255 0 0 Z " fill="#B3D667" transform="translate(445.1171875,354.859375)"/>
<path d="M0 0 C19.32492004 10.5698484 37.83793199 27.67087725 45 49 C46.93367961 56.89767123 47.27113529 64.56946558 47.1953125 72.66796875 C47.1924826 73.82879471 47.18965271 74.98962067 47.18673706 76.18562317 C47.17564091 79.85302526 47.15055629 83.5201731 47.125 87.1875 C47.11495654 89.69075165 47.10583309 92.19400718 47.09765625 94.69726562 C47.07573629 100.79826221 47.0423656 106.89911293 47 113 C42.20608878 110.31822779 37.96721716 107.55750955 33.8125 103.9375 C33.25860596 103.46143311 32.70471191 102.98536621 32.1340332 102.49487305 C19.78484094 91.81794898 8.12066848 80.85417747 -2 68 C-2.50225098 67.36884277 -3.00450195 66.73768555 -3.52197266 66.08740234 C-11.14691939 56.47992357 -18.06842995 46.74615613 -24 36 C-24.63164063 34.97777344 -25.26328125 33.95554687 -25.9140625 32.90234375 C-27 30 -27 30 -26.078125 27.359375 C-18.79402995 16.96241882 -10.6511903 7.10079353 0 0 Z " fill="#88CD64" transform="translate(67,354)"/>
<path d="M0 0 C11.04100934 0.98756792 22.53478587 13.4777995 30 21 C30.77214844 21.74765625 31.54429687 22.4953125 32.33984375 23.265625 C34.75075497 27.2365376 34.63557781 30.46737499 34 35 C33.1783816 38.26333928 32.01529509 41.32234227 30.75 44.4375 C30.4008252 45.32348877 30.05165039 46.20947754 29.69189453 47.12231445 C26.63269437 54.73747674 23.28691668 62.22486463 19.875 69.6875 C19.38483398 70.7612085 18.89466797 71.83491699 18.38964844 72.94116211 C9.82549479 91.31972126 9.82549479 91.31972126 4 95 C1.37890625 95.46875 1.37890625 95.46875 -1.4375 95.5 C-2.36433594 95.5309375 -3.29117188 95.561875 -4.24609375 95.59375 C-8.09720939 94.76343854 -9.41077399 92.93815693 -12 90 C-13.02578235 88.90746065 -14.05458636 87.81775274 -15.0859375 86.73046875 C-19.86012618 81.60064073 -24.63246481 76.46599014 -29.3125 71.25 C-29.84488281 70.65703125 -30.37726563 70.0640625 -30.92578125 69.453125 C-32 68 -32 68 -32 66 C-32.56847656 66.20496094 -33.13695312 66.40992188 -33.72265625 66.62109375 C-38.5084454 68.29092669 -42.95943201 69.46376936 -48 70 C-46.61789271 65.97932426 -44.60098212 62.6146932 -42.31640625 59.0625 C-40.93694236 56.96072211 -40.93694236 56.96072211 -39.6640625 54.4921875 C-37.71256578 51.56952341 -35.71160862 50.09590318 -32.8125 48.125 C-16.62476625 36.65957492 -6.692398 22.17749551 -1.54296875 2.828125 C-1 1 -1 1 0 0 Z " fill="#DDEDFE" transform="translate(312,287)"/>
<path d="M0 0 C2.68615901 1.74353899 2.81844458 3.86839449 3.578125 6.91796875 C8.63041284 24.78629176 19.1980745 39.45742771 34.890625 49.41796875 C41.94845408 54.19270537 44.69881113 61.39996004 47.703125 69.10546875 C42.42997167 68.66018025 37.68542276 68.02173712 32.703125 66.10546875 C32.47882813 66.64945312 32.25453125 67.1934375 32.0234375 67.75390625 C30.299407 70.82451679 27.99159572 73.20069111 25.578125 75.73046875 C21.27755687 80.30573655 17.31222358 85.00647969 13.5546875 90.046875 C10.83996583 93.0651415 8.25125974 94.81105327 4.23828125 95.57421875 C3.42230469 95.58453125 2.60632813 95.59484375 1.765625 95.60546875 C0.95222656 95.63640625 0.13882813 95.66734375 -0.69921875 95.69921875 C-5.58392272 94.58271499 -8.61051369 91.18979611 -11.19628906 87.10473633 C-11.72963867 85.99767334 -12.26298828 84.89061035 -12.8125 83.75 C-13.25925079 82.83349922 -13.25925079 82.83349922 -13.71502686 81.89848328 C-14.67576487 79.91252324 -15.61273416 77.91656236 -16.546875 75.91796875 C-16.87059082 75.23605469 -17.19430664 74.55414063 -17.52783203 73.8515625 C-22.0938201 64.22949015 -26.38290492 54.51154065 -30.296875 44.60546875 C-30.72387695 43.54561768 -31.15087891 42.4857666 -31.59082031 41.39379883 C-33.66036039 35.95175674 -35.08394596 31.89288683 -33.296875 26.10546875 C-31.43220069 23.01478534 -28.86448731 20.63075778 -26.296875 18.10546875 C-25.57242188 17.38230469 -24.84796875 16.65914063 -24.1015625 15.9140625 C-19.37001879 11.42456146 -14.34869699 7.57456372 -8.921875 3.98046875 C-8.02940063 3.37634155 -8.02940063 3.37634155 -7.11889648 2.76000977 C-4.72783093 1.23145147 -2.86954649 0.13176489 0 0 Z " fill="#D2DBFA" transform="translate(199.296875,286.89453125)"/>
<path d="M0 0 C0.515625 0.2475 1.03125 0.495 1.5625 0.75 C1.23894531 1.27722656 0.91539062 1.80445313 0.58203125 2.34765625 C-0.71596969 5.40616421 -0.73849805 7.87110383 -0.75 11.1875 C-0.76675781 12.29996094 -0.78351563 13.41242188 -0.80078125 14.55859375 C-0.39785875 18.09824621 0.43276424 19.92199023 2.5625 22.75 C3.5525 23.41 4.5425 24.07 5.5625 24.75 C5.5625 25.41 5.5625 26.07 5.5625 26.75 C3.55078125 28.30078125 3.55078125 28.30078125 0.875 30.0625 C-4.7863544 33.86126334 -4.7863544 33.86126334 -9.4375 38.75 C-9.79271893 43.13103345 -6.85230663 46.50121931 -4.2578125 49.81640625 C-0.00445528 54.33445738 5.42087094 57.65219088 11.69921875 57.84765625 C12.87097656 57.83605469 14.04273438 57.82445312 15.25 57.8125 C16.42949219 57.80347656 17.60898438 57.79445313 18.82421875 57.78515625 C19.72785156 57.77355469 20.63148438 57.76195312 21.5625 57.75 C21.50449219 58.68199219 21.44648438 59.61398437 21.38671875 60.57421875 C21.01442507 71.0941745 22.33546592 80.65726094 29 89.3125 C31.71829226 91.89819264 34.39470179 93.7609174 37.5625 95.75 C37.5625 96.08 37.5625 96.41 37.5625 96.75 C26.18189486 97.28569794 16.71590725 97.59312211 6.5625 91.75 C5.93746582 91.39583008 5.31243164 91.04166016 4.66845703 90.67675781 C-4.2365811 85.57293658 -12.10322991 79.97816854 -19.4375 72.75 C-20.11941406 72.14027344 -20.80132812 71.53054688 -21.50390625 70.90234375 C-37.42600528 56.22659298 -46.08063132 32.83777239 -48.4375 11.75 C-48.4649688 10.08355971 -48.47372333 8.41627298 -48.4375 6.75 C-46.96622695 8.69587727 -45.51094856 10.64491872 -44.11328125 12.64453125 C-38.50878081 20.52937285 -32.26818523 25.80772981 -23.4375 29.75 C-23.375625 28.80125 -23.31375 27.8525 -23.25 26.875 C-21.78354958 17.04581879 -15.25324199 8.22364769 -7.5078125 2.265625 C-4.9093477 0.63740242 -3.09654299 -0.31759415 0 0 Z " fill="#763717" transform="translate(225.4375,203.25)"/>
<path d="M0 0 C0.66 0 1.32 0 2 0 C3.33716308 1.91478114 4.43799583 3.92406359 5.5859375 5.95703125 C8.74746656 10.52465472 12.35894591 11.53393476 17.625 12.8125 C26.8444154 15.33994098 36.47276174 19.76516192 42 28 C42.30440616 32.97196724 40.02274017 36.18180189 37 40 C31.55402657 45.43275505 26.43126831 49.07942418 18.5625 49.5625 C13.6235827 49.40794885 10.85684951 48.36130239 7.37109375 44.8671875 C5.09480538 41.76728482 4.07882824 38.68070813 3 35 C1.68 35 0.36 35 -1 35 C-1.23074219 35.60328125 -1.46148437 36.2065625 -1.69921875 36.828125 C-4.06070161 42.61515809 -6.23825038 46.11912519 -12 49 C-20.96952572 50.01699083 -26.80550097 47.68707142 -33.75 42.1875 C-37.12567449 39.12926279 -39.14774699 36.16756927 -41 32 C-40.41146823 26.88276612 -36.79002519 24.12350352 -33 21 C-25.77763211 15.89305939 -18.75163718 13.02027032 -10.12890625 11.1171875 C-6.36360719 9.7727736 -4.56852843 8.02587432 -2 5 C-0.680982 2.33466965 -0.680982 2.33466965 0 0 Z " fill="#FDC5A9" transform="translate(256,213)"/>
<path d="M0 0 C8.69786499 5.81439815 12.39765543 13.09846419 16.11328125 22.6015625 C10.84012792 22.156274 6.09557901 21.51783087 1.11328125 19.6015625 C0.88898438 20.14554687 0.6646875 20.68953125 0.43359375 21.25 C-1.29043675 24.32061054 -3.59824803 26.69678486 -6.01171875 29.2265625 C-10.31228688 33.8018303 -14.27762017 38.50257344 -18.03515625 43.54296875 C-20.74987792 46.56123525 -23.33858401 48.30714702 -27.3515625 49.0703125 C-31.59263334 49.12391213 -34.87618195 49.14879102 -38.32421875 46.4765625 C-42.96204934 41.27314281 -44.46013106 37.14898036 -44.2421875 30.2578125 C-42.94645853 20.57544217 -37.57841145 12.48491786 -30.2421875 6.27734375 C-21.9542105 0.3809223 -9.82589718 -4.76004221 0 0 Z " fill="#DDEDFE" transform="translate(230.88671875,333.3984375)"/>
<path d="M0 0 C0.94875 0.825 1.8975 1.65 2.875 2.5 C3.52597656 3.05171875 4.17695313 3.6034375 4.84765625 4.171875 C6.26448238 5.37527723 7.66863979 6.59378259 9.05859375 7.828125 C14.42002079 12.39974043 20.11517394 15.95719366 26.25 19.375 C27.01868408 19.80393555 27.78736816 20.23287109 28.5793457 20.67480469 C36.09839703 24.76616124 42.35331763 26.31698738 50.875 26.625 C51.75414062 26.66367187 52.63328125 26.70234375 53.5390625 26.7421875 C55.69238793 26.83581034 57.84616414 26.91896459 60 27 C60 27.33 60 27.66 60 28 C56.04 28.495 56.04 28.495 52 29 C51.85304687 29.60585938 51.70609375 30.21171875 51.5546875 30.8359375 C48.78222195 41.19284904 44.03715038 49.89061557 35 56 C31.8070124 57.67776985 28.68847525 59.22381348 24.99609375 58.734375 C14.20364803 54.76376875 6.56874561 40.07546637 1.99609375 30.265625 C1.66738281 29.51796875 1.33867187 28.7703125 1 28 C0.68160156 27.31421875 0.36320313 26.6284375 0.03515625 25.921875 C-3.65990836 17.27167767 -1.87175836 8.94098861 0 0 Z " fill="#FA9360" transform="translate(203,273)"/>
<path d="M0 0 C0.87398437 0.2165625 1.74796875 0.433125 2.6484375 0.65625 C18.18574207 4.17413028 32.54948405 3.82844643 48 0 C48.87011719 1.06927734 48.87011719 1.06927734 49.7578125 2.16015625 C54.11005584 7.49632259 58.49013433 12.79630884 63 18 C59.68640634 20.20906244 56.37244279 21.34349593 52.625 22.5625 C51.965 22.78357422 51.305 23.00464844 50.625 23.23242188 C42.06532934 26.05438501 34.14756385 26.27953224 25.1875 26.3125 C24.13996048 26.31692612 24.13996048 26.31692612 23.07125854 26.32144165 C12.5301901 26.33160662 2.99278483 25.6254707 -7 22 C-7.89847656 21.69191406 -8.79695312 21.38382812 -9.72265625 21.06640625 C-11.50099872 20.42888725 -13.25615831 19.7266007 -15 19 C-12.64894019 14.67373009 -9.73553497 11.35243853 -6.375 7.8125 C-2.78597254 4.20218008 -2.78597254 4.20218008 0 0 Z " fill="#B3D668" transform="translate(232,353)"/>
<path d="M0 0 C3.14847243 1.300456 4.61740061 2.5514352 6.8125 5.125 C9.84846663 12.475235 7.57212393 19.29615929 4.6875 26.3125 C2.53293752 31.7961589 0.58535275 37.10425748 -0.6875 42.875 C-1.8643564 48.01298282 -3.4646289 51.16404161 -7.8125 54.3125 C-10.90294255 55.28378195 -13.78579695 55.12362319 -17 55 C-17.33307505 46.91714742 -16.27373477 39.28034679 -15 31.3125 C-13.4938126 21.44090126 -12.38878049 11.983252 -13 2 C-8.66266785 -0.46864029 -4.89262491 -0.56015741 0 0 Z " fill="#FDAA7C" transform="translate(352,150)"/>
<path d="M0 0 C0.75023437 -0.00515625 1.50046875 -0.0103125 2.2734375 -0.015625 C4.98605509 0.29078363 7.14066036 1.14389825 9.625 2.25 C9.55539063 3.51263672 9.55539063 3.51263672 9.484375 4.80078125 C9.17947686 15.28709938 10.47434059 25.23807953 12.20214844 35.5793457 C13.28662062 42.21134738 13.89879481 48.52871774 13.625 55.25 C6.46514002 55.73541424 6.46514002 55.73541424 2.8125 53.625 C-1.33117837 49.1261492 -2.8351758 44.04086561 -4.25 38.1875 C-5.52850847 33.04220519 -7.09716738 28.22741635 -9.125 23.3125 C-11.34680656 17.69263635 -12.97535379 13.16542868 -10.5703125 7.28125 C-7.97285339 2.36822657 -5.60287632 -0.03824489 0 0 Z " fill="#F99461" transform="translate(163.375,149.75)"/>
<path d="M0 0 C0.35191406 1.00417969 0.70382813 2.00835937 1.06640625 3.04296875 C4.02397414 11.29537373 7.31102724 18.90192198 11.6796875 26.5234375 C13 29 13 29 13 31 C8.7832135 33.10839325 3.2314403 32.69608209 -1.19140625 31.31640625 C-8.74787284 27.75259324 -14.59030733 22.67180851 -18 15 C-17.47413269 9.93976738 -13.61528414 7.1930071 -10 4 C-6.57556151 1.22975849 -4.59370464 0 0 0 Z " fill="#FDA87A" transform="translate(233,230)"/>
<path d="M0 0 C2.93200474 2.85276137 5.64315404 5.65079784 8 9 C2.91059256 11.05362055 -1.54520815 12.43179252 -7 13 C-5.35821735 8.22390502 -2.73453298 4.20617096 0 0 Z " fill="#D3DBF4" transform="translate(271,344)"/>
<path d="M0 0 C7 8.44827586 7 8.44827586 7 12 C2.02906176 11.58846263 -2.44508386 11.20399168 -7 9 C-6.02180976 7.68677212 -5.0424189 6.37443848 -4.0625 5.0625 C-3.51722656 4.33160156 -2.97195312 3.60070312 -2.41015625 2.84765625 C-1 1 -1 1 0 0 Z " fill="#D3DBF6" transform="translate(240,344)"/>
<path d="M0 0 C0.66 0.33 1.32 0.66 2 1 C-2.62 5.62 -7.24 10.24 -12 15 C-12 10.09687565 -8.29800369 7.38658643 -5 4 C-3.37458956 2.61667196 -1.72614587 1.25537882 0 0 Z " fill="#7C3C1B" transform="translate(205,16)"/>
</svg>
