<?xml version="1.0" encoding="UTF-8"?>
<svg version="1.1" xmlns="http://www.w3.org/2000/svg" width="512" height="512">
<path d="M0 0 C1.11975471 -0.00627663 1.11975471 -0.00627663 2.26213074 -0.01268005 C4.68429371 -0.01897579 7.10529797 -0.00009575 9.52734375 0.0234375 C10.34851685 0.02775787 11.16968994 0.03207825 12.01574707 0.03652954 C23.73724854 0.10939013 35.06333747 0.44689934 46.46484375 3.3984375 C47.12709961 3.56472656 47.78935547 3.73101562 48.47167969 3.90234375 C63.61496975 7.80190342 77.24195221 14.63695441 89.46484375 24.3984375 C90.07972656 24.8728125 90.69460938 25.3471875 91.328125 25.8359375 C93.66428553 27.6909533 95.48907699 29.43299431 97.20703125 31.8828125 C100.0090253 35.00475742 102.17211467 35.67931219 106.15234375 36.9609375 C146.72590414 51.0455882 185.07965671 78.42478344 211.46484375 112.3984375 C212.47081729 113.65277451 213.47736716 114.90664945 214.484375 116.16015625 C248.67761892 159.20347668 265.99055977 212.39865765 265.77734375 267.0859375 C265.77460953 268.5426889 265.77460953 268.5426889 265.77182007 270.02886963 C265.72755803 284.0309578 265.31356145 297.64708025 262.46484375 311.3984375 C262.30387207 312.24744629 262.14290039 313.09645508 261.97705078 313.97119141 C254.70512784 352.10512738 238.62871951 387.99443997 214.46484375 418.3984375 C213.76101563 419.29433594 213.0571875 420.19023437 212.33203125 421.11328125 C183.0761031 457.65697644 144.03676297 485.6544221 99.46484375 500.3984375 C98.05235352 500.86588379 98.05235352 500.86588379 96.61132812 501.34277344 C81.79616537 506.14516694 66.90781389 509.39134189 51.46484375 511.3984375 C50.80807144 511.48432129 50.15129913 511.57020508 49.47462463 511.65869141 C43.8815943 512.34145001 38.36595461 512.57230728 32.734375 512.6015625 C31.82963943 512.60857681 30.92490387 512.61559113 29.99275208 512.62281799 C27.08756485 512.64023707 24.18258128 512.64667058 21.27734375 512.6484375 C20.28619568 512.64911224 19.29504761 512.64978699 18.27386475 512.65048218 C4.11360272 512.63513393 -9.62674605 512.27969014 -23.53515625 509.3984375 C-24.38416504 509.23746582 -25.23317383 509.07649414 -26.10791016 508.91064453 C-69.2628561 500.68124378 -109.92734183 481.2306671 -142.30078125 451.44921875 C-144.38682511 449.53458059 -146.51197671 447.68020792 -148.66015625 445.8359375 C-156.46629658 438.99969837 -163.08267618 431.51371227 -169.53515625 423.3984375 C-170.41070549 422.32490639 -171.28703042 421.25200753 -172.1640625 420.1796875 C-189.9583035 398.24398607 -203.57482799 373.18072881 -212.53515625 346.3984375 C-212.954021 345.14836914 -212.954021 345.14836914 -213.38134766 343.87304688 C-216.37653855 334.76935894 -218.86269748 325.60077541 -220.78515625 316.2109375 C-221.01187012 315.10963501 -221.01187012 315.10963501 -221.24316406 313.98608398 C-224.20611944 298.53758245 -224.94282562 283.21826271 -224.91015625 267.5234375 C-224.90961243 266.53631775 -224.9090686 265.549198 -224.9085083 264.53216553 C-224.86804926 248.51200208 -224.00035129 233.0952734 -220.53515625 217.3984375 C-220.31553223 216.40312012 -220.0959082 215.40780273 -219.86962891 214.38232422 C-218.33028539 207.64647073 -216.52445304 201.01434711 -214.53515625 194.3984375 C-214.29490723 193.58455566 -214.0546582 192.77067383 -213.80712891 191.93212891 C-205.07877377 163.01686712 -189.846995 135.52945889 -170.53515625 112.3984375 C-170.06110352 111.82287109 -169.58705078 111.24730469 -169.09863281 110.65429688 C-158.66487599 98.0111206 -147.49847798 86.4749691 -134.53515625 76.3984375 C-133.55289063 75.61082031 -132.570625 74.82320313 -131.55859375 74.01171875 C-109.47185512 56.43545633 -84.74967092 43.72272486 -58.18798828 34.34985352 C-48.94004614 31.06311062 -48.94004614 31.06311062 -40.53515625 26.0859375 C-35.01990318 22.41959238 -29.26732632 20.14114442 -23.08007812 17.88354492 C-18.02901745 16.03620753 -13.30961717 13.88029205 -8.53515625 11.3984375 C-9.12296875 9.51125 -9.12296875 9.51125 -9.72265625 7.5859375 C-10.390625 5.44140625 -10.390625 5.44140625 -10.53515625 3.3984375 C-8.01793865 -0.55693195 -4.2265474 -0.03503988 0 0 Z " fill="#FEC839" transform="translate(235.53515625,-0.3984375)"/>
<path d="M0 0 C1.11975471 -0.00627663 1.11975471 -0.00627663 2.26213074 -0.01268005 C4.68429371 -0.01897579 7.10529797 -0.00009575 9.52734375 0.0234375 C10.34851685 0.02775787 11.16968994 0.03207825 12.01574707 0.03652954 C23.73724854 0.10939013 35.06333747 0.44689934 46.46484375 3.3984375 C47.12709961 3.56472656 47.78935547 3.73101562 48.47167969 3.90234375 C63.58030259 7.79297626 77.30329306 14.60271902 89.46484375 24.3984375 C90.42390625 25.13191406 91.38296875 25.86539062 92.37109375 26.62109375 C110.56111487 41.9205425 120.29690249 68.68677696 122.28833008 91.7253418 C123.68895313 112.93616038 121.38197931 132.63761904 117.46484375 153.3984375 C112.84484375 153.7284375 108.22484375 154.0584375 103.46484375 154.3984375 C102.59859375 151.645 102.59859375 151.645 101.71484375 148.8359375 C100.08405597 143.90875307 98.13621702 139.82002084 95.46484375 135.3984375 C94.45281057 132.27824116 94.3288098 129.37780381 94.2890625 126.109375 C94.26521484 125.08457031 94.24136719 124.05976562 94.21679688 123.00390625 C94.17429963 120.87389261 94.14279668 118.74362724 94.12304688 116.61328125 C93.81784673 105.24280126 90.25498589 96.69940863 82.46484375 88.3984375 C65.86017596 72.9195099 39.22462654 70.68202973 17.64111328 71.30517578 C-3.01254354 72.1902663 -26.40014949 75.47080952 -41.9296875 90.5546875 C-50.78818657 100.72795164 -52.96548789 109.93666118 -52.97460938 123.08984375 C-53.11361445 129.96340492 -54.61881558 135.19804943 -57.53515625 141.3984375 C-58.26441434 143.02339647 -58.9935935 144.64839088 -59.72265625 146.2734375 C-60.20798828 147.32144531 -60.20798828 147.32144531 -60.703125 148.390625 C-61.52599096 150.37632033 -62.06999936 152.3028822 -62.53515625 154.3984375 C-63.5715625 154.34042969 -64.60796875 154.28242188 -65.67578125 154.22265625 C-67.04552781 154.17574712 -68.41532317 154.13024818 -69.78515625 154.0859375 C-70.46707031 154.04404297 -71.14898437 154.00214844 -71.8515625 153.95898438 C-74.14800725 153.85096612 -74.14800725 153.85096612 -77.53515625 154.3984375 C-80.88855913 157.71397938 -82.44109893 160.1852344 -82.8046875 164.875 C-82.73396532 170.18995164 -81.00758222 174.81730502 -79.22265625 179.7734375 C-78.60005477 181.55155613 -77.97895525 183.33020138 -77.359375 185.109375 C-77.05290039 185.97981445 -76.74642578 186.85025391 -76.43066406 187.74707031 C-75.25985406 191.21353613 -74.25093802 194.71848803 -73.26928711 198.24267578 C-71.99195105 201.99354955 -70.56083673 203.767411 -67.53515625 206.3984375 C-65.32784008 206.84970688 -65.32784008 206.84970688 -62.97265625 207.0859375 C-60.59375 207.47265625 -60.59375 207.47265625 -58.53515625 208.3984375 C-57.18242552 210.98926076 -56.48384944 213.57477579 -55.66796875 216.37890625 C-51.94424101 226.30456675 -42.57536455 231.87833335 -33.53515625 236.3984375 C-33.46039063 235.79257813 -33.385625 235.18671875 -33.30859375 234.5625 C-31.71079352 224.38043969 -26.67644573 215.79281061 -18.53515625 209.3984375 C-12.29034524 205.10038944 -4.97678097 203.15746726 2.21484375 201.0234375 C3.58213623 200.61049438 3.58213623 200.61049438 4.97705078 200.18920898 C9.75499666 198.83880552 13.57726363 197.8134874 18.46484375 199.3984375 C19.83984375 201.4609375 19.83984375 201.4609375 20.46484375 203.3984375 C21.12484375 203.3984375 21.78484375 203.3984375 22.46484375 203.3984375 C22.67109375 202.7590625 22.87734375 202.1196875 23.08984375 201.4609375 C24.46484375 199.3984375 24.46484375 199.3984375 26.83984375 198.5703125 C32.21258458 198.31557048 36.75878806 199.9559815 41.83984375 201.5859375 C42.84273438 201.89080078 43.845625 202.19566406 44.87890625 202.50976562 C56.07313876 206.00430025 64.98351417 209.99112049 71.265625 220.375 C73.87965465 225.4034198 75.73493296 229.74372634 76.46484375 235.3984375 C86.79967851 229.72155643 93.23176043 224.03341329 98.46484375 213.3984375 C98.79484375 213.3984375 99.12484375 213.3984375 99.46484375 213.3984375 C98.89936955 239.61587787 86.62553983 263.20736418 68.38671875 281.48046875 C59.15827185 290.14495501 48.16223246 296.66242158 36.46484375 301.3984375 C35.40136719 301.94371094 35.40136719 301.94371094 34.31640625 302.5 C24.09807479 305.7194743 9.71300249 304.85504831 0.25 300.0078125 C-0.66910156 299.47671875 -1.58820313 298.945625 -2.53515625 298.3984375 C-4.23865234 297.50898437 -4.23865234 297.50898437 -5.9765625 296.6015625 C-20.94507207 288.6463132 -34.86662831 277.14329692 -43.53515625 262.3984375 C-43.53515625 261.7384375 -43.53515625 261.0784375 -43.53515625 260.3984375 C-72.60205053 270.47410498 -72.60205053 270.47410498 -93.390625 291.7578125 C-93.76832031 292.62921875 -94.14601562 293.500625 -94.53515625 294.3984375 C-94.94378906 295.26984375 -95.35242188 296.14125 -95.7734375 297.0390625 C-100.13876507 308.2599045 -98.89458168 320.57195853 -98.53515625 332.3984375 C-101.84636505 333.65187371 -105.15928298 334.90073471 -108.47265625 336.1484375 C-109.52501465 336.54530762 -110.57737305 336.94217773 -111.66162109 337.35107422 C-118.08421734 339.76243608 -124.5219722 342.11981128 -130.984375 344.421875 C-132.43697051 344.94161951 -133.88952581 345.46147641 -135.34204102 345.98144531 C-137.47354525 346.74432781 -139.60580938 347.50435813 -141.74191284 348.25427246 C-154.95020296 352.89241547 -167.93749836 357.96885814 -178.53515625 367.3984375 C-179.14746094 367.92953125 -179.75976562 368.460625 -180.390625 369.0078125 C-184.84894941 373.14135831 -187.92519359 377.85101661 -191.0546875 383.04296875 C-192.53515625 385.3984375 -192.53515625 385.3984375 -194.53515625 387.3984375 C-214.15019513 349.43653355 -224.99943306 310.41328122 -224.91015625 267.5234375 C-224.90961243 266.53631775 -224.9090686 265.549198 -224.9085083 264.53216553 C-224.86804926 248.51200208 -224.00035129 233.0952734 -220.53515625 217.3984375 C-220.31553223 216.40312012 -220.0959082 215.40780273 -219.86962891 214.38232422 C-218.33028539 207.64647073 -216.52445304 201.01434711 -214.53515625 194.3984375 C-214.29490723 193.58455566 -214.0546582 192.77067383 -213.80712891 191.93212891 C-205.07877377 163.01686712 -189.846995 135.52945889 -170.53515625 112.3984375 C-170.06110352 111.82287109 -169.58705078 111.24730469 -169.09863281 110.65429688 C-158.66487599 98.0111206 -147.49847798 86.4749691 -134.53515625 76.3984375 C-133.55289063 75.61082031 -132.570625 74.82320313 -131.55859375 74.01171875 C-109.47185512 56.43545633 -84.74967092 43.72272486 -58.18798828 34.34985352 C-48.94004614 31.06311062 -48.94004614 31.06311062 -40.53515625 26.0859375 C-35.01990318 22.41959238 -29.26732632 20.14114442 -23.08007812 17.88354492 C-18.02901745 16.03620753 -13.30961717 13.88029205 -8.53515625 11.3984375 C-9.12296875 9.51125 -9.12296875 9.51125 -9.72265625 7.5859375 C-10.390625 5.44140625 -10.390625 5.44140625 -10.53515625 3.3984375 C-8.01793865 -0.55693195 -4.2265474 -0.03503988 0 0 Z " fill="#FE4155" transform="translate(235.53515625,-0.3984375)"/>
<path d="M0 0 C6.59825944 1.26433714 12.29302783 3.17405159 18.375 6 C19.66277344 6.59059204 19.66277344 6.59059204 20.9765625 7.19311523 C34.5425891 13.4914505 47.85800091 20.21240533 60 29 C60.90564697 29.65307129 60.90564697 29.65307129 61.82958984 30.31933594 C80.5065219 43.85442174 97.80527048 58.72281934 112 77 C113.00597354 78.25433701 114.01252341 79.50821195 115.01953125 80.76171875 C149.21277517 123.80503918 166.52571602 177.00022015 166.3125 231.6875 C166.30976578 233.1442514 166.30976578 233.1442514 166.30697632 234.63043213 C166.26271428 248.6325203 165.8487177 262.24864275 163 276 C162.83902832 276.84900879 162.67805664 277.69801758 162.51220703 278.57275391 C157.54146468 304.63930771 148.04356185 328.4978413 136 352 C134.37755334 349.84889736 132.7841129 347.69172662 131.23828125 345.484375 C119.18815214 328.37465821 105.01356462 320.84347998 85.75 314.0625 C84.07022827 313.45880296 82.39095152 312.853727 80.7121582 312.24731445 C76.57952491 310.75794592 72.44148797 309.28438725 68.30108643 307.81677246 C63.6842077 306.17800768 59.0741158 304.5203431 54.46386719 302.86303711 C52.32682216 302.09628064 50.18821341 301.33386444 48.04785156 300.57641602 C47.11811523 300.24569092 46.18837891 299.91496582 45.23046875 299.57421875 C44.43020264 299.29151123 43.62993652 299.00880371 42.80541992 298.7175293 C41 298 41 298 40 297 C39.93717065 295.57818125 39.94062893 294.15331461 39.97265625 292.73046875 C39.9866748 291.84738037 40.00069336 290.96429199 40.01513672 290.05444336 C40.03858154 288.6353064 40.03858154 288.6353064 40.0625 287.1875 C40.14667863 271.99580898 38.54236579 258.84342 28 247 C15.89010666 236.89920616 0.69196513 230.40090235 -14 225 C-12.9061946 222.23944352 -11.78662314 219.49399202 -10.6328125 216.7578125 C-5.71243284 204.90301177 -1.60924581 192.94647351 -1 180 C-1.35191406 180.56847656 -1.70382812 181.13695312 -2.06640625 181.72265625 C-7.16155403 189.69130774 -12.42639864 195.79725424 -21 200 C-21.66 200 -22.32 200 -23 200 C-23.43699219 198.7315625 -23.43699219 198.7315625 -23.8828125 197.4375 C-27.8601049 186.43115624 -33.11271262 176.77261832 -44.0625 171.53515625 C-48.78725136 169.59607474 -53.66203842 168.17082348 -58.5625 166.75 C-59.48224609 166.46898437 -60.40199219 166.18796875 -61.34960938 165.8984375 C-68.12387563 163.90030741 -68.12387563 163.90030741 -75 165 C-75.66 165.99 -76.32 166.98 -77 168 C-77.66 168 -78.32 168 -79 168 C-79.5775 167.319375 -80.155 166.63875 -80.75 165.9375 C-81.4925 165.298125 -82.235 164.65875 -83 164 C-88.68063428 164.48613986 -94.30650117 166.24712774 -99.8125 167.6875 C-100.75931641 167.91888672 -101.70613281 168.15027344 -102.68164062 168.38867188 C-113.75399821 171.30726304 -122.16530924 177.23427797 -128.25 187.0078125 C-130.656037 191.51913187 -131.93139275 196.01316615 -133 201 C-142.44088327 198.63977918 -149.27273362 191.55735839 -155 184 C-157.18470185 180.27358547 -158 177.39446031 -158 173 C-159.5159375 173.185625 -159.5159375 173.185625 -161.0625 173.375 C-166.29651828 172.87652207 -168.69669344 170.99509851 -172 167 C-173.33316523 164.23111836 -174.16525327 161.92161356 -175 159 C-175.60947438 157.06057988 -176.21921232 155.12123966 -176.83276367 153.18310547 C-177.49628985 151.07429158 -178.14520565 148.96135745 -178.79296875 146.84765625 C-179.71485584 143.86363426 -180.73644634 140.93237371 -181.8125 138 C-183.21544899 133.76696425 -183.51168429 130.45896308 -183 126 C-181.25364203 122.85655565 -179.53137274 120.53137274 -177 118 C-174.5390625 117.76953125 -174.5390625 117.76953125 -171.625 117.8125 C-170.66851562 117.81894531 -169.71203125 117.82539063 -168.7265625 117.83203125 C-166.33405932 117.97942041 -164.28958203 118.32180627 -162 119 C-161.95875 118.0925 -161.9175 117.185 -161.875 116.25 C-161.20368698 111.27618082 -158.71110967 107.14412124 -156.375 102.76953125 C-154.40731871 98.80621865 -153.88312792 95.55179235 -153.82421875 91.1484375 C-153.80037109 90.21386719 -153.77652344 89.27929688 -153.75195312 88.31640625 C-153.70950261 86.37911929 -153.67797508 84.44155738 -153.65820312 82.50390625 C-153.28508297 69.81782107 -147.98475015 60.67526754 -139.0625 51.9375 C-120.63300498 36.22458046 -92.24263038 33.73543904 -69 35 C-63.96800199 35.49761433 -58.99157687 36.19688596 -54 37 C-53.02160156 37.144375 -52.04320312 37.28875 -51.03515625 37.4375 C-35.79492894 39.88643179 -20.52065417 45.60285631 -11.171875 58.52734375 C-5.28604213 68.02753515 -4.66413147 75.90414121 -4.609375 86.8828125 C-4.44672172 94.05762926 -3.10173959 99.5438074 0 106 C0.39364746 106.85432617 0.78729492 107.70865234 1.19287109 108.58886719 C1.87374911 110.06132487 2.56397378 111.52951458 3.265625 112.9921875 C4 115 4 115 4 119 C4.99 118.67 5.98 118.34 7 118 C8.89470816 117.9314505 10.7916834 117.91519628 12.6875 117.9375 C13.68136719 117.94652344 14.67523438 117.95554687 15.69921875 117.96484375 C16.45847656 117.97644531 17.21773437 117.98804688 18 118 C18.03738281 117.43796875 18.07476562 116.8759375 18.11328125 116.296875 C18.46828814 111.75835552 18.92249681 107.28125829 19.734375 102.80078125 C23.06974942 84.03930014 24.06923863 63.73252956 20 45 C19.75507813 43.75089844 19.51015625 42.50179687 19.2578125 41.21484375 C16.27495552 27.08597547 10.37455899 14.27828302 1.46875 2.90625 C0 1 0 1 0 0 Z " fill="#FF7085" transform="translate(335,35)"/>
<path d="M0 0 C1.47989756 1.93082749 2.77120753 3.82372218 4.0625 5.875 C14.78828298 22.02086691 33.78515772 37.1319279 53 42 C67.08876924 43.63639836 78.75044222 42.11583772 91 35 C92.01449219 34.42507813 93.02898437 33.85015625 94.07421875 33.2578125 C108.32837594 24.62977314 119.19467944 14.05104345 128 0 C133.40893736 0.59334925 137.79677372 2.44992964 142.6875 4.6875 C143.48551025 5.04980713 144.28352051 5.41211426 145.10571289 5.78540039 C160.42203548 12.80971327 174.16896808 20.12537069 180.98828125 36.3515625 C186.56568345 51.73567662 185.0331286 69.25358564 178.46875 84.0234375 C168.32879829 104.57302049 150.15686039 116.44217746 130 126 C129.34 126 128.68 126 128 126 C128.00888245 126.80100128 128.01776489 127.60200256 128.0269165 128.42727661 C128.10718648 135.98947175 128.16802699 143.55145926 128.20724869 151.1139698 C128.2280912 155.00162103 128.25634681 158.88891915 128.30175781 162.77636719 C128.34533619 166.53058195 128.36916219 170.28445786 128.37950897 174.0389061 C128.38687898 175.46861986 128.40127114 176.89831583 128.42292023 178.32788467 C128.4521076 180.33575481 128.4536352 182.34396857 128.45410156 184.35205078 C128.46298401 185.49344513 128.47186646 186.63483948 128.48101807 187.81082153 C127.85016792 191.99339563 125.99586758 195.00413242 123 198 C115.77037037 198.59259259 115.77037037 198.59259259 112.5625 196.125 C109.97840891 192.61063612 109.87739978 190.60290659 109.88647461 186.26513672 C109.88659546 185.04721436 109.88671631 183.82929199 109.88684082 182.57446289 C109.89195679 181.28918701 109.89707275 180.00391113 109.90234375 178.6796875 C109.90335083 177.50220947 109.90435791 176.32473145 109.90539551 175.11157227 C109.91064036 170.69937165 109.92460154 166.28718488 109.9375 161.875 C109.958125 152.01625 109.97875 142.1575 110 132 C79.64 132 49.28 132 18 132 C18.19769044 151.47617885 18.19769044 151.47617885 18.45043945 170.95166016 C18.46504566 173.39744985 18.47778601 175.84325171 18.48828125 178.2890625 C18.51386108 179.55387451 18.53944092 180.81868652 18.5657959 182.12182617 C18.57075071 192.10477656 18.57075071 192.10477656 15.59838867 195.80712891 C12.02459813 198.82317576 12.02459813 198.82317576 9 198.75 C8.0409375 198.77320313 8.0409375 198.77320313 7.0625 198.796875 C3.51290398 197.42544018 1.61025872 195.34965297 0 192 C-0.7098541 186.99365534 -0.58222565 182.01744172 -0.48828125 176.9765625 C-0.47894647 175.50541387 -0.4718335 174.03424961 -0.46684265 172.56307983 C-0.44782456 168.7059172 -0.39877083 164.84970793 -0.34332275 160.99291992 C-0.29201676 157.0514007 -0.26930456 153.10972622 -0.24414062 149.16796875 C-0.19064505 141.4448796 -0.10539777 133.72257379 0 126 C-1.42339691 125.53414742 -1.42339691 125.53414742 -2.87554932 125.05888367 C-5.36457652 124.21534651 -7.45860089 123.35601852 -9.734375 122.08203125 C-10.71144409 121.53699951 -10.71144409 121.53699951 -11.70825195 120.98095703 C-12.38202881 120.59536621 -13.05580566 120.20977539 -13.75 119.8125 C-14.45664795 119.4088623 -15.1632959 119.00522461 -15.89135742 118.58935547 C-34.97667253 107.56441747 -48.19400326 94.43453564 -54.30859375 72.9375 C-57.92560398 57.57031529 -56.88646291 42.80586915 -49.4375 28.75 C-41.46339031 16.37707414 -26.80209584 9.39573958 -13.5625 4.125 C-12.58345703 3.7228125 -11.60441406 3.320625 -10.59570312 2.90625 C-3.40421716 0 -3.40421716 0 0 0 Z " fill="#FEDC40" transform="translate(192,260)"/>
<path d="M0 0 C1.46759766 0.2165625 1.46759766 0.2165625 2.96484375 0.4375 C18.20507106 2.88643179 33.47934583 8.60285631 42.828125 21.52734375 C48.71395787 31.02753515 49.33586853 38.90414121 49.390625 49.8828125 C49.55327828 57.05762926 50.89826041 62.5438074 54 69 C54.39364746 69.85432617 54.78729492 70.70865234 55.19287109 71.58886719 C55.87374911 73.06132487 56.56397378 74.52951458 57.265625 75.9921875 C58 78 58 78 58 82 C58.99 81.67 59.98 81.34 61 81 C66.12776758 80.51579904 70.51585923 80.15191956 75.0625 82.75 C78.64718323 86.91285794 79.40257478 90.12988612 79.27587891 95.51611328 C78.7889806 99.89992155 77.26208454 103.84104564 75.6875 107.9375 C75.06411834 109.61243151 74.44302112 111.28821503 73.82421875 112.96484375 C73.36269409 114.20028931 73.36269409 114.20028931 72.8918457 115.46069336 C71.70073193 118.85209067 70.74714717 122.29615893 69.82568359 125.76953125 C68.24566483 130.03773097 65.09813131 133.95093435 61 136 C58.6670134 136.04022391 56.33293334 136.04320247 54 136 C53.95875 136.969375 53.9175 137.93875 53.875 138.9375 C52.70404228 146.9878343 46.03844517 153.95489213 40 159 C34.15384615 163 34.15384615 163 31 163 C30.56300781 161.7315625 30.56300781 161.7315625 30.1171875 160.4375 C26.1398951 149.43115624 20.88728738 139.77261832 9.9375 134.53515625 C5.21274864 132.59607474 0.33796158 131.17082348 -4.5625 129.75 C-5.48224609 129.46898437 -6.40199219 129.18796875 -7.34960938 128.8984375 C-14.12387563 126.90030741 -14.12387563 126.90030741 -21 128 C-21.66 128.99 -22.32 129.98 -23 131 C-23.66 131 -24.32 131 -25 131 C-25.5775 130.319375 -26.155 129.63875 -26.75 128.9375 C-27.4925 128.298125 -28.235 127.65875 -29 127 C-34.68063428 127.48613986 -40.30650117 129.24712774 -45.8125 130.6875 C-46.75931641 130.91888672 -47.70613281 131.15027344 -48.68164062 131.38867188 C-59.75399821 134.30726304 -68.16530924 140.23427797 -74.25 150.0078125 C-76.656037 154.51913187 -77.93139275 159.01316615 -79 164 C-88.44088327 161.63977918 -95.27273362 154.55735839 -101 147 C-103.18470185 143.27358547 -104 140.39446031 -104 136 C-105.5159375 136.185625 -105.5159375 136.185625 -107.0625 136.375 C-112.29651828 135.87652207 -114.69669344 133.99509851 -118 130 C-119.33316523 127.23111836 -120.16525327 124.92161356 -121 122 C-121.60947438 120.06057988 -122.21921232 118.12123966 -122.83276367 116.18310547 C-123.49628985 114.07429158 -124.14520565 111.96135745 -124.79296875 109.84765625 C-125.71485584 106.86363426 -126.73644634 103.93237371 -127.8125 101 C-129.21544899 96.76696425 -129.51168429 93.45896308 -129 89 C-127.25364203 85.85655565 -125.53137274 83.53137274 -123 81 C-120.5390625 80.76953125 -120.5390625 80.76953125 -117.625 80.8125 C-116.66851562 80.81894531 -115.71203125 80.82539063 -114.7265625 80.83203125 C-112.33405932 80.97942041 -110.28958203 81.32180627 -108 82 C-107.95875 81.0925 -107.9175 80.185 -107.875 79.25 C-107.20368698 74.27618082 -104.71110967 70.14412124 -102.375 65.76953125 C-100.40731871 61.80621865 -99.88312792 58.55179235 -99.82421875 54.1484375 C-99.80037109 53.21386719 -99.77652344 52.27929688 -99.75195312 51.31640625 C-99.70950261 49.37911929 -99.67797508 47.44155738 -99.65820312 45.50390625 C-99.28508297 32.81782107 -93.98475015 23.67526754 -85.0625 14.9375 C-62.90506853 -3.95384442 -27.12450812 -4.36416667 0 0 Z " fill="#FEC6AA" transform="translate(281,72)"/>
<path d="M0 0 C3.4931439 1.28288028 5.86874885 3.3890529 8.5234375 5.91015625 C9.31234375 6.64951416 9.31234375 6.64951416 10.1171875 7.40380859 C19.78722141 16.70764356 27.07148661 28.68369863 27.8359375 42.31640625 C27.93670771 48.41300369 27.70228267 54.21573878 26.6484375 60.22265625 C23.80723437 79.24819426 25.7531374 97.27472691 29.1484375 116.03515625 C31.3179696 128.04317721 33.3359375 139.72977747 33.3359375 151.97265625 C33.34238281 152.966604 33.34882813 153.96055176 33.35546875 154.98461914 C33.04434878 167.37648447 27.01064563 177.51761183 18.7109375 186.41015625 C8.76093376 195.84745238 -3.20842158 202.23745471 -15.55944824 207.93621826 C-37.22457638 217.96204187 -56.76082565 229.39751522 -74.0402832 246.03881836 C-76.68328604 248.56319525 -79.04454327 250.44137506 -82.3515625 251.97265625 C-83.15662035 248.32965448 -83.94287821 244.68281039 -84.7265625 241.03515625 C-84.94828125 240.03291016 -85.17 239.03066406 -85.3984375 237.99804688 C-88.87241602 221.70100059 -89.76115421 205.716001 -89.7265625 189.09765625 C-89.72601868 188.1105365 -89.72547485 187.12341675 -89.72491455 186.10638428 C-89.68445551 170.08622083 -88.81675754 154.66949215 -85.3515625 138.97265625 C-85.13193848 137.97733887 -84.91231445 136.98202148 -84.68603516 135.95654297 C-83.14669164 129.22068948 -81.34085929 122.58856586 -79.3515625 115.97265625 C-79.11131348 115.15877441 -78.87106445 114.34489258 -78.62353516 113.50634766 C-69.89518002 84.59108587 -54.66340125 57.10367764 -35.3515625 33.97265625 C-34.87750977 33.39708984 -34.40345703 32.82152344 -33.91503906 32.22851562 C-26.9776566 23.82209493 -19.64977293 15.91213607 -11.79101562 8.35888672 C-10.4921888 7.108083 -9.2098805 5.84018136 -7.9296875 4.5703125 C-7.24390625 3.91933594 -6.558125 3.26835938 -5.8515625 2.59765625 C-5.00078125 1.78167969 -5.00078125 1.78167969 -4.1328125 0.94921875 C-2.3515625 -0.02734375 -2.3515625 -0.02734375 0 0 Z " fill="#FF7085" transform="translate(100.3515625,78.02734375)"/>
<path d="M0 0 C6.59825944 1.26433714 12.29302783 3.17405159 18.375 6 C19.23351562 6.39372803 20.09203125 6.78745605 20.9765625 7.19311523 C34.54653845 13.49328408 47.84705307 20.22201158 60 29 C60.67820801 29.4832373 61.35641602 29.96647461 62.05517578 30.46435547 C64.29686473 32.06696427 66.52525288 33.6864698 68.75 35.3125 C69.46696045 35.8286084 70.1839209 36.3447168 70.92260742 36.87646484 C71.58236572 37.36711426 72.24212402 37.85776367 72.921875 38.36328125 C73.51581055 38.79938721 74.10974609 39.23549316 74.72167969 39.68481445 C76 41 76 41 76 44 C74.3125 45.5078125 74.3125 45.5078125 72 47.125 C61.33762761 55.16355975 52.49337524 66.98071423 50.20703125 80.47265625 C49.54956119 88.49875301 49.36341429 96.58593912 51 104.5 C54.58452222 123.53149206 51.63586932 143.78836734 47.91015625 162.57421875 C45.86334631 173.0320819 44.59339092 183.13708268 44.5 193.8125 C44.47256714 195.41303223 44.47256714 195.41303223 44.44458008 197.04589844 C44.54311497 209.67827066 49.96493223 219.76654269 58.4375 228.9375 C68.45151683 238.35721316 80.64004983 244.61649263 93.00634766 250.33422852 C116.51216683 261.23796161 136.11347555 274.22101865 155 292 C155.56033936 292.44867432 156.12067871 292.89734863 156.69799805 293.35961914 C158 295 158 295 157.9543457 297.16625977 C157.75929443 297.97893311 157.56424316 298.79160645 157.36328125 299.62890625 C157.1513916 300.51980957 156.93950195 301.41071289 156.72119141 302.32861328 C155.6629634 306.24842736 154.52380002 310.1028648 153.1875 313.9375 C152.90124756 314.76217773 152.61499512 315.58685547 152.32006836 316.43652344 C147.87028298 328.69895192 141.83375567 340.35091244 136 352 C134.37755334 349.84889736 132.7841129 347.69172662 131.23828125 345.484375 C119.18815214 328.37465821 105.01356462 320.84347998 85.75 314.0625 C84.07022827 313.45880296 82.39095152 312.853727 80.7121582 312.24731445 C76.57952491 310.75794592 72.44148797 309.28438725 68.30108643 307.81677246 C63.6842077 306.17800768 59.0741158 304.5203431 54.46386719 302.86303711 C52.32682216 302.09628064 50.18821341 301.33386444 48.04785156 300.57641602 C47.11811523 300.24569092 46.18837891 299.91496582 45.23046875 299.57421875 C44.43020264 299.29151123 43.62993652 299.00880371 42.80541992 298.7175293 C41 298 41 298 40 297 C39.93717065 295.57818125 39.94062893 294.15331461 39.97265625 292.73046875 C39.9866748 291.84738037 40.00069336 290.96429199 40.01513672 290.05444336 C40.0307666 289.10835205 40.04639648 288.16226074 40.0625 287.1875 C40.14667863 271.99580898 38.54236579 258.84342 28 247 C15.89010666 236.89920616 0.69196513 230.40090235 -14 225 C-12.9061946 222.23944352 -11.78662314 219.49399202 -10.6328125 216.7578125 C-4.66683097 202.38381556 -1.43725 188.45043749 0 173 C0.88751953 172.88785156 0.88751953 172.88785156 1.79296875 172.7734375 C2.58316406 172.64195312 3.37335938 172.51046875 4.1875 172.375 C4.96480469 172.25898438 5.74210937 172.14296875 6.54296875 172.0234375 C10.80353762 170.24876494 13.13040958 167.04150217 14.8918457 162.90625 C15.68963584 160.55775052 16.3915772 158.20026548 17.0625 155.8125 C17.56418276 154.11262345 18.06807881 152.4133985 18.57421875 150.71484375 C18.81446777 149.90128418 19.0547168 149.08772461 19.30224609 148.24951172 C20.18644174 145.39892435 21.26352683 142.64386425 22.375 139.875 C24.0972646 135.20751822 24.97892201 130.94259644 24 126 C21.77561281 121.72596143 21.77561281 121.72596143 18 119 C18.32202668 113.53665085 18.76623233 108.12418421 19.734375 102.734375 C23.06157526 83.98718591 24.06620816 63.71857896 20 45 C19.75507813 43.75089844 19.51015625 42.50179687 19.2578125 41.21484375 C16.27495552 27.08597547 10.37455899 14.27828302 1.46875 2.90625 C0 1 0 1 0 0 Z " fill="#FE4155" transform="translate(335,35)"/>
<path d="M0 0 C0.33 0 0.66 0 1 0 C1.21914062 0.81082031 1.43828125 1.62164062 1.6640625 2.45703125 C7.24946669 21.96053612 18.5750666 35.24359239 35.8125 45.5625 C36.55564453 46.01818359 37.29878906 46.47386719 38.06445312 46.94335938 C42.06112494 49.36339407 46.10435055 51.59345921 50.29174805 53.66772461 C51.17775192 54.10757187 52.0637558 54.54741913 52.97660828 55.00059509 C53.64432755 55.33039871 54.31204681 55.66020233 55 56 C55.00546844 57.22362495 55.00546844 57.22362495 55.01104736 58.4719696 C55.04894561 66.16722233 55.10581847 73.8619919 55.18390274 81.5569334 C55.22337856 85.51282577 55.25556627 89.46849551 55.27099609 93.42456055 C55.2861624 97.24386903 55.32060631 101.0625655 55.36830902 104.88160133 C55.38312331 106.33715298 55.39104105 107.79279202 55.39188385 109.24841881 C55.39425536 111.29086595 55.42134398 113.33162418 55.45410156 115.3737793 C55.46298401 116.53515915 55.47186646 117.696539 55.48101807 118.89311218 C56.30382981 123.81887862 59.48590019 126.66160518 63 130 C62.59007812 130.6290625 62.18015625 131.258125 61.7578125 131.90625 C55.46523494 141.90211483 54.07281959 150.22883999 55 162 C55.6110254 164.52886813 56.35212523 166.82945138 57.34375 169.23046875 C58 171 58 171 58 174 C51.11323947 173.46917464 45.1294167 172.04328977 38.625 169.75 C37.63967285 169.40283936 36.6543457 169.05567871 35.63916016 168.69799805 C6.24572157 157.97584877 -20.74419741 142.22898996 -43.765625 121.05078125 C-45.85166886 119.13614309 -47.97682046 117.28177042 -50.125 115.4375 C-57.93114033 108.60126087 -64.54751993 101.11527477 -71 93 C-71.87554924 91.92646889 -72.75187417 90.85357003 -73.62890625 89.78125 C-95.32315862 63.0089586 -95.32315862 63.0089586 -94.84375 55.578125 C-90.74618484 43.05778701 -77.50977477 31.94888486 -66.20410156 26.05664062 C-57.76621407 22.01153904 -48.86684986 18.94838617 -40.08172607 15.75750732 C-37.82796394 14.93739879 -35.57620702 14.11194256 -33.32470703 13.28564453 C-28.38605178 11.47405846 -23.44396894 9.67202994 -18.5 7.875 C-17.28858841 7.43409531 -17.28858841 7.43409531 -16.05270386 6.98428345 C-13.75522215 6.14982835 -11.45607794 5.32015107 -9.15625 4.4921875 C-8.46161148 4.23957657 -7.76697296 3.98696564 -7.05128479 3.72669983 C-2.2303608 2 -2.2303608 2 0 2 C0 1.34 0 0.68 0 0 Z " fill="#FEB332" transform="translate(137,330)"/>
<path d="M0 0 C1.11975471 -0.00627663 1.11975471 -0.00627663 2.26213074 -0.01268005 C4.68429371 -0.01897579 7.10529797 -0.00009575 9.52734375 0.0234375 C10.34851685 0.02775787 11.16968994 0.03207825 12.01574707 0.03652954 C23.73724854 0.10939013 35.06333747 0.44689934 46.46484375 3.3984375 C47.12709961 3.56472656 47.78935547 3.73101562 48.47167969 3.90234375 C63.58030259 7.79297626 77.30329306 14.60271902 89.46484375 24.3984375 C90.42390625 25.13191406 91.38296875 25.86539062 92.37109375 26.62109375 C110.56111487 41.9205425 120.29690249 68.68677696 122.28833008 91.7253418 C123.68895313 112.93616038 121.38197931 132.63761904 117.46484375 153.3984375 C112.84484375 153.7284375 108.22484375 154.0584375 103.46484375 154.3984375 C102.88734375 152.5628125 102.30984375 150.7271875 101.71484375 148.8359375 C100.08405597 143.90875307 98.13621702 139.82002084 95.46484375 135.3984375 C94.45281057 132.27824116 94.3288098 129.37780381 94.2890625 126.109375 C94.26521484 125.08457031 94.24136719 124.05976562 94.21679688 123.00390625 C94.17429963 120.87389261 94.14279668 118.74362724 94.12304688 116.61328125 C93.81784673 105.24280126 90.25498589 96.69940863 82.46484375 88.3984375 C65.86017596 72.9195099 39.22462654 70.68202973 17.64111328 71.30517578 C-3.01254354 72.1902663 -26.40014949 75.47080952 -41.9296875 90.5546875 C-50.78818657 100.72795164 -52.96548789 109.93666118 -52.97460938 123.08984375 C-53.11361445 129.96340492 -54.61881558 135.19804943 -57.53515625 141.3984375 C-58.26441434 143.02339647 -58.9935935 144.64839088 -59.72265625 146.2734375 C-60.04621094 146.97210938 -60.36976563 147.67078125 -60.703125 148.390625 C-61.71037588 150.68185687 -61.71037588 150.68185687 -62.53515625 154.3984375 C-66.82515625 154.0684375 -71.11515625 153.7384375 -75.53515625 153.3984375 C-79.1256258 140.57533196 -79.9147543 127.81381267 -79.84765625 114.5859375 C-79.84583344 113.83831146 -79.84401062 113.09068542 -79.84213257 112.32040405 C-79.79738567 101.418631 -79.44216798 90.97152049 -76.53515625 80.3984375 C-76.19484375 79.15320313 -75.85453125 77.90796875 -75.50390625 76.625 C-70.17792811 59.1716257 -61.7378104 45.03526362 -48.53515625 32.3984375 C-47.93316406 31.75261719 -47.33117187 31.10679688 -46.7109375 30.44140625 C-37.66801913 21.9504793 -24.91084578 18.00343044 -13.39770508 14.14111328 C-11.25503459 13.36124198 -11.25503459 13.36124198 -8.53515625 11.3984375 C-9.12296875 9.51125 -9.12296875 9.51125 -9.72265625 7.5859375 C-10.390625 5.44140625 -10.390625 5.44140625 -10.53515625 3.3984375 C-8.01793865 -0.55693195 -4.2265474 -0.03503988 0 0 Z " fill="#753616" transform="translate(235.53515625,-0.3984375)"/>
<path d="M0 0 C1.375 2.0625 1.375 2.0625 2 4 C2.66 4 3.32 4 4 4 C4.20625 3.360625 4.4125 2.72125 4.625 2.0625 C6 0 6 0 8.375 -0.828125 C13.74774083 -1.08286702 18.29394431 0.557544 23.375 2.1875 C24.37789063 2.49236328 25.38078125 2.79722656 26.4140625 3.11132812 C37.60829501 6.60586275 46.51867042 10.59268299 52.80078125 20.9765625 C55.4148109 26.0049823 57.27008921 30.34528884 58 36 C68.33483476 30.32311893 74.76691668 24.63497579 80 14 C80.33 14 80.66 14 81 14 C80.4345258 40.21744037 68.16069608 63.80892668 49.921875 82.08203125 C40.6934281 90.74651751 29.69738871 97.26398408 18 102 C17.29101562 102.36351562 16.58203125 102.72703125 15.8515625 103.1015625 C5.63323104 106.3210368 -8.75184126 105.45661081 -18.21484375 100.609375 C-19.13394531 100.07828125 -20.05304688 99.5471875 -21 99 C-22.13566406 98.40703125 -23.27132812 97.8140625 -24.44140625 97.203125 C-32.36999058 92.98935444 -39.30713523 88.0173427 -46 82 C-46.76828125 81.32582031 -47.5365625 80.65164063 -48.328125 79.95703125 C-64.76005556 64.64545959 -73.22087744 42.75747261 -77 21 C-77.03824623 18.66698014 -77.04574284 16.33288492 -77 14 C-75.52872695 15.94587727 -74.07344856 17.89491872 -72.67578125 19.89453125 C-67.07128081 27.77937285 -60.83068523 33.05772981 -52 37 C-51.92523438 36.39414063 -51.85046875 35.78828125 -51.7734375 35.1640625 C-50.17563727 24.98200219 -45.14128948 16.39437311 -37 10 C-30.75518899 5.70195194 -23.44162472 3.75902976 -16.25 1.625 C-15.33847168 1.34970459 -14.42694336 1.07440918 -13.48779297 0.79077148 C-8.70984709 -0.55963198 -4.88758012 -1.5849501 0 0 Z " fill="#945230" transform="translate(254,199)"/>
<path d="M0 0 C5.40893736 0.59334925 9.79677372 2.44992964 14.6875 4.6875 C15.48551025 5.04980713 16.28352051 5.41211426 17.10571289 5.78540039 C32.42203548 12.80971327 46.16896808 20.12537069 52.98828125 36.3515625 C58.56568345 51.73567662 57.0331286 69.25358564 50.46875 84.0234375 C40.32879829 104.57302049 22.15686039 116.44217746 2 126 C1.34 126 0.68 126 0 126 C0.00888245 126.80100128 0.01776489 127.60200256 0.0269165 128.42727661 C0.10718648 135.98947175 0.16802699 143.55145926 0.20724869 151.1139698 C0.2280912 155.00162103 0.25634681 158.88891915 0.30175781 162.77636719 C0.34533619 166.53058195 0.36916219 170.28445786 0.37950897 174.0389061 C0.38687898 175.46861986 0.40127114 176.89831583 0.42292023 178.32788467 C0.4521076 180.33575481 0.4536352 182.34396857 0.45410156 184.35205078 C0.46298401 185.49344513 0.47186646 186.63483948 0.48101807 187.81082153 C-0.14983208 191.99339563 -2.00413242 195.00413242 -5 198 C-12.22962963 198.59259259 -12.22962963 198.59259259 -15.4375 196.125 C-18.02159109 192.61063612 -18.12260022 190.60290659 -18.11352539 186.26513672 C-18.11344986 185.06404266 -18.11337433 183.86294861 -18.11329651 182.62545776 C-18.10813522 181.32335358 -18.10297394 180.02124939 -18.09765625 178.6796875 C-18.09579138 177.33733167 -18.0943678 175.99497516 -18.09336853 174.65261841 C-18.08954878 171.11804325 -18.07972312 167.58350913 -18.06866455 164.0489502 C-18.05843878 160.44279546 -18.05381365 156.83663391 -18.04882812 153.23046875 C-18.03863092 146.15360958 -18.01905798 139.07686312 -18 132 C-29.55 132 -41.1 132 -53 132 C-50.42106169 129.42106169 -47.94192098 127.03801404 -45.1875 124.6875 C-43.79002643 123.46019849 -42.39415737 122.23106726 -41 121 C-40.41992188 120.49984375 -39.83984375 119.9996875 -39.2421875 119.484375 C-23.03642612 104.55999941 -13.70867333 79.46603305 -12.15625 57.8984375 C-11.94465259 52.61908215 -11.89200355 47.34574701 -11.875 42.0625 C-11.87032715 41.00981934 -11.8656543 39.95713867 -11.86083984 38.87255859 C-11.87213041 33.31846609 -12.18458607 28.05036517 -13 22.5625 C-13.34820057 19.01461856 -13.34768028 17.56299497 -11.4609375 14.5078125 C-9.375 12.1875 -9.375 12.1875 -7.1484375 10.078125 C-4.04813015 7.07928225 -2.16048692 3.7133369 0 0 Z " fill="#FDE67E" transform="translate(320,260)"/>
<path d="M0 0 C0.78117188 0.58249512 0.78117188 0.58249512 1.578125 1.17675781 C2.94712019 2.19703312 4.31705007 3.21605456 5.6875 4.234375 C7.13050293 5.33612724 8.5519803 6.46740268 9.9375 7.640625 C14.84407693 11.74221665 20.05851572 14.82629347 25.6875 17.8125 C26.41251709 18.19768799 27.13753418 18.58287598 27.88452148 18.97973633 C39.11065891 24.79702205 51.94722169 26.43320845 64.40869141 23.41699219 C69.21950082 21.80806146 73.62309501 19.54256898 78 17 C79.01449219 16.42507813 80.02898437 15.85015625 81.07421875 15.2578125 C86.70619174 11.84878004 91.83574834 7.88896768 96.90625 3.69921875 C99 2 99 2 102 0 C108.99630318 28.48494867 102.96662567 60.69070068 88.87109375 85.94140625 C82.66303139 96.08944972 72.7066434 108.47762603 62 114 C54.18637001 115.38150338 44.39660433 115.70916588 36.9453125 112.8125 C34.64076246 111.05665235 32.89079975 109.19378795 31 107 C30.12730469 106.20078125 29.25460938 105.4015625 28.35546875 104.578125 C10.26824494 87.85177302 -1.01214618 62.16346024 -2.15673828 37.64208984 C-2.25668528 33.84360159 -2.30001893 30.04976487 -2.3125 26.25 C-2.31797852 25.03062744 -2.32345703 23.81125488 -2.32910156 22.55493164 C-2.26856496 14.85582342 -1.51576456 7.54845547 0 0 Z " fill="#FEAA7A" transform="translate(205,278)"/>
<path d="M0 0 C0 0.33 0 0.66 0 1 C-0.82242188 0.96777344 -1.64484375 0.93554688 -2.4921875 0.90234375 C-9.18437711 0.97189306 -13.4048819 1.59173027 -18.5 6.125 C-20.03865397 7.7134486 -21.54334683 9.33603289 -23 11 C-23.78503906 11.83917969 -23.78503906 11.83917969 -24.5859375 12.6953125 C-31.65260822 21.21814567 -32.17148776 31.84523164 -32.3125 42.375 C-32.45143141 51.46140798 -33.8418046 57.84761691 -38.30859375 65.74609375 C-45.19714767 78.99820787 -42.13854831 95.14988741 -39.75390625 109.24609375 C-38.63299618 115.99258437 -37.83968108 122.77767548 -37.9375 129.625 C-37.94652344 130.46289062 -37.95554687 131.30078125 -37.96484375 132.1640625 C-37.97644531 132.76992187 -37.98804688 133.37578125 -38 134 C-38.71285156 134.35191406 -39.42570312 134.70382813 -40.16015625 135.06640625 C-51.47637747 140.89966699 -58.75079792 148.11247596 -62.81640625 160.484375 C-63.27855016 162.30709642 -63.65135974 164.15220663 -64 166 C-73.44088327 163.63977918 -80.27273362 156.55735839 -86 149 C-88.18470185 145.27358547 -89 142.39446031 -89 138 C-90.5159375 138.185625 -90.5159375 138.185625 -92.0625 138.375 C-97.29651828 137.87652207 -99.69669344 135.99509851 -103 132 C-104.33316523 129.23111836 -105.16525327 126.92161356 -106 124 C-106.60947438 122.06057988 -107.21921232 120.12123966 -107.83276367 118.18310547 C-108.49628985 116.07429158 -109.14520565 113.96135745 -109.79296875 111.84765625 C-110.71485584 108.86363426 -111.73644634 105.93237371 -112.8125 103 C-114.21544899 98.76696425 -114.51168429 95.45896308 -114 91 C-112.25364203 87.85655565 -110.53137274 85.53137274 -108 83 C-105.5390625 82.76953125 -105.5390625 82.76953125 -102.625 82.8125 C-101.66851562 82.81894531 -100.71203125 82.82539063 -99.7265625 82.83203125 C-97.33405932 82.97942041 -95.28958203 83.32180627 -93 84 C-92.95875 83.0925 -92.9175 82.185 -92.875 81.25 C-92.20368698 76.27618082 -89.71110967 72.14412124 -87.375 67.76953125 C-85.40731871 63.80621865 -84.88312792 60.55179235 -84.82421875 56.1484375 C-84.80037109 55.21386719 -84.77652344 54.27929688 -84.75195312 53.31640625 C-84.70950261 51.37911929 -84.67797508 49.44155738 -84.65820312 47.50390625 C-84.28508297 34.81782107 -78.98475015 25.67526754 -70.0625 16.9375 C-51.26974524 0.91486654 -23.56267188 -0.64261832 0 0 Z " fill="#FEA97A" transform="translate(266,70)"/>
<path d="M0 0 C0.33 0 0.66 0 1 0 C1.21914062 0.81082031 1.43828125 1.62164062 1.6640625 2.45703125 C5.34179673 15.29920077 10.66406793 24.45812826 20 34 C20.556875 34.57234375 21.11375 35.1446875 21.6875 35.734375 C22.77767035 36.83693365 23.88579423 37.92173635 25 39 C23.72334895 42.82995315 21.44735404 44.15624691 18.3125 46.4375 C-4.3892255 63.48828784 -28.78954823 85.61305204 -34 115 C-34.470982 118.99635223 -34.79662085 122.98150848 -35 127 C-38.58175126 125.73782964 -41.03123228 124.36861149 -43.78515625 121.76171875 C-44.47448242 121.11340088 -45.16380859 120.46508301 -45.87402344 119.79711914 C-46.5962207 119.10094482 -47.31841797 118.40477051 -48.0625 117.6875 C-48.81692383 116.96618896 -49.57134766 116.24487793 -50.34863281 115.50170898 C-67.28251624 99.1818679 -85.3619468 79.74676788 -95 58 C-94.43149763 49.18821323 -85.59021748 40.88738701 -79.484375 35.109375 C-67.98503099 25.34578103 -54.06698238 20.83714644 -40.08172607 15.75750732 C-37.82796394 14.93739879 -35.57620702 14.11194256 -33.32470703 13.28564453 C-28.38605178 11.47405846 -23.44396894 9.67202994 -18.5 7.875 C-17.28858841 7.43409531 -17.28858841 7.43409531 -16.05270386 6.98428345 C-13.75522215 6.14982835 -11.45607794 5.32015107 -9.15625 4.4921875 C-8.46161148 4.23957657 -7.76697296 3.98696564 -7.05128479 3.72669983 C-2.2303608 2 -2.2303608 2 0 2 C0 1.34 0 0.68 0 0 Z " fill="#FFC739" transform="translate(137,330)"/>
<path d="M0 0 C6.85356656 1.99220255 13.60310205 4.19347994 20.328125 6.58203125 C21.27959412 6.91869308 22.23106323 7.25535492 23.21136475 7.60221863 C25.21183801 8.31109089 27.21185296 9.02125777 29.21142578 9.73266602 C32.22640328 10.80411431 35.24395571 11.86806736 38.26171875 12.93164062 C61.37779067 21.11637144 80.84309301 29.08150137 94.8828125 50.421875 C96.27844952 53.64257581 96.19493648 54.71149596 95 58 C93.63689282 60.61280984 92.09333508 63.0847352 90.5 65.5625 C89.82723022 66.62150513 89.82723022 66.62150513 89.14086914 67.7019043 C85.0624397 74.0460481 80.67643061 80.07983784 76 86 C75.29359375 86.89976562 74.5871875 87.79953125 73.859375 88.7265625 C65.75909178 98.83734768 57.01887192 108.27376601 47.5625 117.125 C46.98346924 117.66946777 46.40443848 118.21393555 45.80786133 118.77490234 C42.71804582 121.61895239 39.71817226 123.98454214 36 126 C35.91363281 124.93523437 35.82726562 123.87046875 35.73828125 122.7734375 C33.20668157 95.26381278 17.20767247 72.49553614 -3.625 54.91796875 C-7.63891384 51.67646925 -11.66637936 48.45132595 -15.72167969 45.26171875 C-19.00915699 42.66303002 -22.11385312 40.05377662 -25 37 C-24.35933594 36.45472656 -23.71867187 35.90945313 -23.05859375 35.34765625 C-11.4458037 25.22324168 -4.70837063 14.74405263 0 0 Z " fill="#FFDC40" transform="translate(374,332)"/>
<path d="M0 0 C22.58769916 0.38166619 44.55550953 6.77723743 63 20 C64.31677734 20.89525391 64.31677734 20.89525391 65.66015625 21.80859375 C85.21163171 36.24011449 95.87107924 60.68500953 100 84 C103.29840346 107.38452654 100.33215201 130.03959433 96 153 C91.38 153.33 86.76 153.66 82 154 C81.4225 152.164375 80.845 150.32875 80.25 148.4375 C78.61921222 143.51031557 76.67137327 139.42158334 74 135 C72.98796682 131.87980366 72.86396605 128.97936631 72.82421875 125.7109375 C72.78844727 124.17373047 72.78844727 124.17373047 72.75195312 122.60546875 C72.70945588 120.47545511 72.67795293 118.34518974 72.65820312 116.21484375 C72.35300298 104.84436376 68.79014214 96.30097113 61 88 C46.10590945 74.1156783 24.59116586 72.23773402 5.30175781 70.69702148 C4.37331055 70.62040283 3.44486328 70.54378418 2.48828125 70.46484375 C1.64821533 70.399021 0.80814941 70.33319824 -0.05737305 70.26538086 C-2 70 -2 70 -3 69 C-3.65670678 61.06569023 -4.21131492 53.41112928 1 47 C3.50335361 44.34739743 6.08362243 41.77762608 8.75878906 39.29833984 C12.46048825 35.82235402 14.77941586 33.04858593 15.15234375 27.89453125 C14.0728864 17.43360824 8.92455781 10.39093239 1.79296875 2.93359375 C0 1 0 1 0 0 Z " fill="#945230" transform="translate(257,0)"/>
<path d="M0 0 C1.34771484 0.01740234 1.34771484 0.01740234 2.72265625 0.03515625 C5.31506291 0.27319025 6.81988604 0.56374466 9 2 C10.68412157 4.81748987 11.74842879 7.61096054 12.8359375 10.70703125 C18.19572889 25.86912568 30.24510898 40.67467123 44 49 C44 49.33 44 49.66 44 50 C32.45 50 20.9 50 9 50 C9.05800781 54.26164062 9.11601562 58.52328125 9.17578125 62.9140625 C9.207958 66.32172412 9.23506398 69.72934256 9.25875092 73.1370697 C9.28510638 76.72922472 9.32029666 80.32078558 9.37719727 83.91259766 C9.43170274 87.3750633 9.46145867 90.83695444 9.47438622 94.29981613 C9.48806074 96.25749428 9.52706523 98.21494268 9.56648254 100.17227173 C9.56960681 110.10620139 9.56960681 110.10620139 6.59838867 113.80712891 C3.02459813 116.82317576 3.02459813 116.82317576 0 116.75 C-0.9590625 116.77320313 -0.9590625 116.77320313 -1.9375 116.796875 C-5.48709602 115.42544018 -7.38974128 113.34965297 -9 110 C-9.7098541 104.99365534 -9.58222565 100.01744172 -9.48828125 94.9765625 C-9.47894647 93.50541387 -9.4718335 92.03424961 -9.46684265 90.56307983 C-9.44782456 86.7059172 -9.39877083 82.84970793 -9.34332275 78.99291992 C-9.29201676 75.0514007 -9.26930456 71.10972622 -9.24414062 67.16796875 C-9.19064505 59.4448796 -9.10539777 51.72257379 -9 44 C-9.94762207 43.69041351 -10.89524414 43.38082703 -11.87158203 43.06185913 C-14.423225 42.19577109 -16.54854029 41.29767709 -18.875 39.9765625 C-19.88820312 39.40421875 -19.88820312 39.40421875 -20.921875 38.8203125 C-21.60765625 38.42585938 -22.2934375 38.03140625 -23 37.625 C-23.68578125 37.23828125 -24.3715625 36.8515625 -25.078125 36.453125 C-27.06532856 35.32299779 -29.03634034 34.17050707 -31 33 C-31.8957373 32.46777832 -31.8957373 32.46777832 -32.80957031 31.92480469 C-36.90876524 29.36493905 -36.90876524 29.36493905 -37.75 26 C-37.04124325 18.52583789 -32.5561735 11.00492529 -27.1875 5.9375 C-18.83575328 -0.511118 -10.25432098 -0.58088061 0 0 Z " fill="#FCE581" transform="translate(201,342)"/>
<path d="M0 0 C0.515625 0.2475 1.03125 0.495 1.5625 0.75 C1.2325 1.36875 0.9025 1.9875 0.5625 2.625 C-1.36488078 8.64806495 -1.39256966 14.4640009 1.4375 20.1875 C2.71718456 22.4577552 4.11414851 24.57747276 5.5625 26.75 C4.91023438 27.18570313 4.25796875 27.62140625 3.5859375 28.0703125 C-4.03805223 33.22511636 -4.03805223 33.22511636 -10.4375 39.75 C-10.7441809 43.73685167 -8.51827965 46.81881235 -6.171875 49.97265625 C-2.4931878 53.7424821 4.14652763 58.5218211 9.55078125 58.8828125 C13.6821287 58.86892562 17.53290158 58.78989637 21.5625 57.75 C21.3975 58.36875 21.2325 58.9875 21.0625 59.625 C19.67400015 68.30312406 20.47364233 75.84992314 24.5625 83.75 C25.87891181 85.10004277 27.20941687 86.43671343 28.5625 87.75 C28.5625 88.41 28.5625 89.07 28.5625 89.75 C29.13484375 90.03617187 29.7071875 90.32234375 30.296875 90.6171875 C33.71875 92.328125 37.140625 94.0390625 40.5625 95.75 C40.5625 96.41 40.5625 97.07 40.5625 97.75 C16.98539288 98.77276559 16.98539288 98.77276559 6.5625 92.75 C5.42683594 92.15703125 4.29117188 91.5640625 3.12109375 90.953125 C-4.80749058 86.73935444 -11.74463523 81.7673427 -18.4375 75.75 C-19.20578125 75.07582031 -19.9740625 74.40164063 -20.765625 73.70703125 C-37.19755556 58.39545959 -45.65837744 36.50747261 -49.4375 14.75 C-49.47574623 12.41698014 -49.48324284 10.08288492 -49.4375 7.75 C-47.96622695 9.69587727 -46.51094856 11.64491872 -45.11328125 13.64453125 C-39.50878081 21.52937285 -33.26818523 26.80772981 -24.4375 30.75 C-24.36273438 30.14414063 -24.28796875 29.53828125 -24.2109375 28.9140625 C-22.59141624 18.59358385 -17.49918159 10.37459922 -9.4375 3.75 C-3.74948857 -0.38456293 -3.74948857 -0.38456293 0 0 Z " fill="#763717" transform="translate(226.4375,205.25)"/>
<path d="M0 0 C0.78117188 0.58249512 0.78117188 0.58249512 1.578125 1.17675781 C2.94712019 2.19703312 4.31705007 3.21605456 5.6875 4.234375 C7.13050293 5.33612724 8.5519803 6.46740268 9.9375 7.640625 C14.84407693 11.74221665 20.05851572 14.82629347 25.6875 17.8125 C26.41251709 18.19768799 27.13753418 18.58287598 27.88452148 18.97973633 C34.51972719 22.41804159 40.3505288 24.2750246 47.875 24.625 C48.56335938 24.66367187 49.25171875 24.70234375 49.9609375 24.7421875 C51.64023246 24.83548166 53.32007767 24.91878238 55 25 C55 25.33 55 25.66 55 26 C53.35 26 51.7 26 50 26 C50.02537842 26.59570801 50.05075684 27.19141602 50.0769043 27.80517578 C50.23497113 34.45172475 49.35330904 40.42307442 47.8125 46.875 C47.58546387 47.84099121 47.35842773 48.80698242 47.12451172 49.80224609 C45.40243811 56.8726257 43.34074397 63.50886783 40 70 C39.47535156 71.02351563 38.95070312 72.04703125 38.41015625 73.1015625 C34.12021313 80.94213882 28.53989386 89.34004549 20 93 C15.99543972 91.66514657 15.05551142 89.19974655 13.125 85.6875 C12.77348877 85.05884033 12.42197754 84.43018066 12.05981445 83.7824707 C8.90634805 78.03501221 6.30492895 72.13764604 4 66 C3.71511719 65.27941406 3.43023437 64.55882812 3.13671875 63.81640625 C2.30651611 61.56421551 1.63257596 59.31587131 1 57 C0.58041016 55.46859375 0.58041016 55.46859375 0.15234375 53.90625 C-1.96409793 44.69234576 -2.28680626 35.69334607 -2.3125 26.25 C-2.31789795 25.03086914 -2.3232959 23.81173828 -2.32885742 22.55566406 C-2.26885271 14.85627731 -1.51581331 7.54869823 0 0 Z " fill="#FB945F" transform="translate(205,278)"/>
<path d="M0 0 C0.66 0 1.32 0 2 0 C3.29926629 1.91926704 4.37439333 3.9253885 5.48828125 5.95703125 C8.69658348 10.29279886 13.15781881 11.47084326 18.1875 12.8125 C27.1609659 15.48933051 36.5661908 19.99516028 42 28 C42.52072661 32.89483017 39.82617931 36.3270232 36.88671875 40.03515625 C31.92448889 45.20286147 25.955357 49.07400383 18.6875 49.3125 C14.04927229 49.24473369 11.53786301 48.12648359 8 45 C5.53236595 41.79874501 3.62110978 39.03721354 3 35 C0.57080135 34.86559222 0.57080135 34.86559222 -2 36 C-2.94205257 37.95107569 -3.53614781 39.92710499 -4.1875 41.9921875 C-5.39966586 44.98763583 -7.31079944 46.31924965 -10 48 C-14.8847362 49.6282454 -19.56476306 49.98512821 -24.4140625 48.0234375 C-26.69285632 46.78115191 -28.84818021 45.4499567 -31 44 C-31.9075 43.401875 -32.815 42.80375 -33.75 42.1875 C-36.78836987 39.23352929 -39.38209382 35.94460936 -41 32 C-40.6324498 27.49313439 -37.67955424 25.07728721 -34.55859375 22.08984375 C-26.9404951 15.8674273 -18.26302789 12.39187566 -8.77734375 10.1171875 C-4.13085094 8.24813413 -1.97603445 4.44607751 0 0 Z " fill="#FDC5A9" transform="translate(256,216)"/>
<path d="M0 0 C2.19421387 1.58558655 2.19421387 1.58558655 4 4 C4.39504064 6.62144023 4.54796897 8.82411608 4.51757812 11.44311523 C4.5245874 12.18669281 4.53159668 12.93027039 4.53881836 13.69638062 C4.55640246 16.15083323 4.54477382 18.60412969 4.53125 21.05859375 C4.5339451 22.76725994 4.53782768 24.47592463 4.54284668 26.18458557 C4.5487425 29.76488859 4.54017738 33.34479226 4.52148438 36.92504883 C4.49871175 41.50966716 4.51180621 46.09334797 4.53577423 50.67793179 C4.55024485 54.20647718 4.54562019 57.7348012 4.53526306 61.26335335 C4.53259836 62.9534116 4.53585653 64.64349008 4.54518127 66.3335247 C4.55536615 68.69871927 4.53981998 71.06240756 4.51757812 73.42749023 C4.52567505 74.12323654 4.53377197 74.81898285 4.54211426 75.53581238 C4.45994205 80.26379595 3.35504212 82.68764694 0 86 C-2.74448951 86.8630133 -5.20676192 86.6366518 -8 86 C-10.43119623 84.12984906 -11.64069173 82.71861655 -13 80 C-13.11286311 77.65781842 -13.1594195 75.31236266 -13.17700195 72.9675293 C-13.18357315 72.24375092 -13.19014435 71.51997253 -13.19691467 70.77426147 C-13.2166573 68.37424622 -13.2283125 65.97429357 -13.23828125 63.57421875 C-13.24235678 62.75485147 -13.2464323 61.9354842 -13.25063133 61.09128761 C-13.27149643 56.75430172 -13.28579609 52.41734751 -13.29516602 48.08032227 C-13.30623003 43.60112058 -13.34062821 39.12241575 -13.38033772 34.6433897 C-13.4064866 31.19897032 -13.4148563 27.7546696 -13.41844749 24.31015968 C-13.42331814 22.65914365 -13.43494582 21.00813309 -13.45348549 19.35721397 C-13.47784073 17.04462739 -13.47691918 14.73332994 -13.4699707 12.4206543 C-13.47583694 11.10542282 -13.48170319 9.79019135 -13.48774719 8.43510437 C-12.92176928 4.44903697 -11.81516947 2.81931005 -9 0 C-5.81452856 -1.59273572 -3.39809153 -0.76164121 0 0 Z " fill="#DEEDFB" transform="translate(315,372)"/>
<path d="M0 0 C3.80579327 1.1763361 5.06161149 1.91794637 7.4375 5.0625 C7.83244368 7.71804778 7.98539245 9.95998585 7.95507812 12.61328125 C7.9620874 13.36821869 7.96909668 14.12315613 7.97631836 14.90097046 C7.99390198 17.39268948 7.98227511 19.88326974 7.96875 22.375 C7.97144483 24.10848203 7.97532717 25.84196259 7.98034668 27.57543945 C7.9862422 31.20701501 7.97767726 34.8381968 7.95898438 38.46972656 C7.93619454 43.12394045 7.94931737 47.77723171 7.97327423 52.43141174 C7.98773091 56.01052803 7.98312687 59.5894257 7.97276306 63.16854858 C7.9700954 64.88455311 7.97336693 66.60057751 7.98268127 68.31655884 C7.99284508 70.71547996 7.97735007 73.11290875 7.95507812 75.51171875 C7.96317505 76.22041107 7.97127197 76.92910339 7.97961426 77.65927124 C7.92109092 81.06308251 7.65466544 82.784834 5.53015137 85.5012207 C3.25895635 87.19570733 2.23450149 87.60620315 -0.5625 87.5625 C-1.2225 87.5728125 -1.8825 87.583125 -2.5625 87.59375 C-5.55521512 86.79881005 -6.65825739 85.49499426 -8.5625 83.0625 C-8.96257077 80.4128807 -9.12038745 78.17584058 -9.09594727 75.52758789 C-9.10456284 74.77425674 -9.11317841 74.0209256 -9.12205505 73.24476624 C-9.14473271 70.75787869 -9.13797308 68.27211647 -9.12890625 65.78515625 C-9.13414137 64.05406866 -9.14041744 62.32298392 -9.14768982 60.59190369 C-9.15809753 56.96453425 -9.15352786 53.33755699 -9.13891602 49.71020508 C-9.12173422 45.06491802 -9.14521319 40.42086857 -9.18040562 35.77571964 C-9.2023827 32.20083949 -9.20093735 28.62625527 -9.1926403 25.05132866 C-9.19182082 23.33892904 -9.19868383 21.6265077 -9.21341133 19.91417122 C-9.2308625 17.51761315 -9.21631288 15.12327596 -9.19360352 12.72680664 C-9.20529572 12.02170959 -9.21698792 11.31661255 -9.22903442 10.59014893 C-9.15556765 6.77341393 -8.61924423 5.13536835 -6.24571228 2.08738708 C-3.5625 0.0625 -3.5625 0.0625 0 0 Z " fill="#DEEDFE" transform="translate(201.5625,370.9375)"/>
<path d="M0 0 C3.70894417 2.11939667 5.35713618 4.13336285 7 8 C8.05647276 14.81122961 6.10508058 20.64789902 3.6875 26.9375 C3.06411834 28.61243151 2.44302112 30.28821503 1.82421875 31.96484375 C1.51653564 32.78847412 1.20885254 33.61210449 0.8918457 34.46069336 C-0.29926807 37.85209067 -1.25285283 41.29615893 -2.17431641 44.76953125 C-3.75433517 49.03773097 -6.90186869 52.95093435 -11 55 C-13.3329866 55.04022391 -15.66706666 55.04320247 -18 55 C-18.21470297 48.72590217 -17.93465772 43.03002628 -16.578125 36.90625 C-14.20864115 24.99479063 -13.70672633 13.10568518 -14 1 C-9.37939044 -0.54020319 -4.82536624 -0.51574193 0 0 Z " fill="#FEA87A" transform="translate(353,153)"/>
<path d="M0 0 C0.96164063 0.00515625 1.92328125 0.0103125 2.9140625 0.015625 C4.34878906 0.00789062 4.34878906 0.00789062 5.8125 0 C8.54964908 0.26665636 10.19893707 0.86820413 12.5390625 2.265625 C12.46945313 3.52826172 12.46945313 3.52826172 12.3984375 4.81640625 C12.09353936 15.30272438 13.38840309 25.25370453 15.11621094 35.5949707 C16.20068312 42.22697238 16.81285731 48.54434274 16.5390625 55.265625 C13.22885643 55.67095636 10.61003401 55.85455027 7.62109375 54.2109375 C3.04258801 50.59889672 1.12468727 46.81531171 -0.4609375 41.265625 C-1.07041188 39.32620488 -1.68014982 37.38686466 -2.29370117 35.44873047 C-2.95722735 33.33991658 -3.60614315 31.22698245 -4.25390625 29.11328125 C-5.17579334 26.12925926 -6.19738384 23.19799871 -7.2734375 20.265625 C-8.67638649 16.03258925 -8.97262179 12.72458808 -8.4609375 8.265625 C-4.11572174 0.44423663 -4.11572174 0.44423663 0 0 Z " fill="#FB9360" transform="translate(160.4609375,152.734375)"/>
<path d="M0 0 C2.09329253 3.92879042 3.65891391 8.06160543 5.3125 12.1875 C7.58892995 17.83424439 9.96614359 23.18438775 13.25 28.3359375 C14 30 14 30 13 33 C8.1152638 34.6282454 3.43523694 34.98512821 -1.4140625 33.0234375 C-3.69285632 31.78115191 -5.84818021 30.4499567 -8 29 C-8.9075 28.401875 -9.815 27.80375 -10.75 27.1875 C-13.78836987 24.23352929 -16.38209382 20.94460936 -18 17 C-17.6612123 12.42636604 -14.47319525 10.00572365 -11.34375 6.97265625 C-7.86492724 4.04464709 -4.08362596 1.96619028 0 0 Z " fill="#FDA97A" transform="translate(233,231)"/>
</svg>
